<svg id="b250ff9e-9688-4312-9e7d-6e5724f7e99f" data-name="Layer 1" xmlns="http://www.w3.org/2000/svg" viewBox="0 0 512 512"><defs><style>.b53f49c8-5cd7-4633-93ae-491623cf7762{fill:#fff;}.f4f3b55c-43f5-4812-aeda-53af7345007e{fill:#94a6c3;}.f4283cef-1b45-4b93-a896-39ae270867cb{fill:#1b314f;}.ac52abbd-063e-492e-9433-ba81a5c3d22f{fill:#ffd923;}.e0f8fb68-7b75-417c-b1b7-6b965bfc790c{fill:#d82122;}</style></defs><path class="b53f49c8-5cd7-4633-93ae-491623cf7762" d="M121.91,280.56l13.54-101.77L18,97.22l107.35,36.37,25.36-38.9,92.57-57.44L447.29,149.67,457.87,321.2,367,447.52l-71.86,11,37.16-68V325l-27-51.13-27.45-18.19-42.23,43.54v46.07l-33,30.85-41.87,5.08-18.54,10.5L111.77,382,99.09,336.41l22.82-32.09Z"/><path class="f4f3b55c-43f5-4812-aeda-53af7345007e" d="M309.52,96.36C287.13,91.72,262.65,93,262.65,93s-8,37.16-57.88,46.94C205.14,139.89,270.62,162.27,309.52,96.36Z"/><path class="f4f3b55c-43f5-4812-aeda-53af7345007e" d="M329.8,433.54c27-21.15,47.3-50.27,56.64-83.22.44-1.24,4.21-3.41,6.74-5.08,4.2-2.53,8.48-4.63,9.27-8a177.69,177.69,0,0,0,2.54-30c0-3.77-3.84-7.61-7.61-11.38-3-2.53-5.94-5.5-5.94-7.6A160.59,160.59,0,0,0,341.17,187.7l-3,3c27.45,25.78,45.2,60.84,49,98,.44,3.41,3.77,6.74,7.17,10.14,3,2.54,6.38,6.38,6.38,8A171.41,171.41,0,0,1,398.25,336c-.43,1.67-4.2,3.41-7.17,5.07-4.2,2.1-8,4.2-8.84,7.61A156.16,156.16,0,0,1,318,436.15c5.51-11.81,22.82-50.27,32.09-69.75l-1.67-62.52L294.74,252l-30.42,4.2-33.4,54.11s15.65,19.85-6.37,43.1c-21.51,22.81-38.46,27.89-38.46,27.89l-15.65-8.48c4.64-5.94,14-14.78,21.15-20.72,12.24-10.14,24.48-11,24.48-21.94.51-22.89-24-16.59-24-16.59L183.12,322l-3.77,31.29-18.54,23.26-2.1-.44-30.43-6.73s18.62-9.71,21.59-20.72c3-10.58-5.94-45.64-6.38-47.74a46.11,46.11,0,0,1,12.68,19.42c6.74-18.62,15.65-36.37,18.18-38s36.73-19.85,36.73-19.85l-11.38,30,8.48-4.64L228.46,238s19.85-9.71,34.63-9.71c26.58-.43,65.91-33,48.17-91.27,5.07,2.1,92.93,46.07,108.14,132.27C430.77,335.54,393.18,397.62,329.8,433.54Z"/><path class="f4283cef-1b45-4b93-a896-39ae270867cb" d="M229.26,105.63C239,94.18,235.2,77.3,235.2,77.3l-28.32,41.87C206.44,119.17,216.94,119.61,229.26,105.63Z"/><path class="f4283cef-1b45-4b93-a896-39ae270867cb" d="M134.15,334.23l3.4-16.87s-14,24.48-15.21,27.88c-1.3,3.84.87,10.58,6.3,10.15s12.25-8.48,12.25-14.35C140.89,333.44,134.15,334.23,134.15,334.23Z"/><path class="f4283cef-1b45-4b93-a896-39ae270867cb" d="M385.14,65.5s21.15.87,43.1,3.4C378.77,30,331.9,18.63,293.87,18.63c-52.37,0-87.86,21.59-90,22.82l16.52-26.22s-65.92-6.38-89.17,63.38c-5.94-14.78-11.37-36.36-11.37-36.36s-34.26,30.06-18.18,79.89C62.29,107.8,6.16,87.88,4,87.52c-3-.44-3.84.87-3.84.87s-.87,1.23,1.67,3.4c4.71,3.7,93.44,69.25,112.93,81.93-4.2,15.21-4.2,22.38,0,29.55,5.94,9.71,6.3,14.78,5.5,21.95s-8.47,69.32-10.14,76.93-19.41,34.62-18.61,42.66,11.8,42.23,21.58,46.07c7.17,2.53,24.92,8,36.73,8,4.2,0,8-.87,9.7-2.54,7.17-6.3,9.27-7.6,14.34-7.6h1.24c2.1,0,4.63.43,7.6.43,6.74,0,15.65-1.3,21.95-7.17,9.27-9.27,25.35-22,30.42-27.89a39.17,39.17,0,0,0,8-30c-1.3-10.15,4.2-19.05,10.58-27.89,8-10.58,22.82-29.56,22.82-29.56,29.19,21.88,47.37,55.27,47.37,92.43,0,65.92-57.44,119.16-128.43,119.16a135.74,135.74,0,0,1-32.09-3.77c32.53,11.37,60,15.21,82.43,15.21,47.74,0,73.09-17.31,73.09-17.31a210.24,210.24,0,0,1-23.25,24.48H296c79-11,117.49-76.05,117.49-76.05s-3,21.15-6.73,35.49c105.1-79,87.36-177.9,86.92-181.23.87,1.23,11.45,13.9,16.88,20.71C527.55,121.71,385.14,65.5,385.14,65.5ZM223.32,343.58c-1.67,2.1-8.84,8.47-13.91,13.11s-10.57,9.27-14.78,13.54c-1.66,1.67-5.07,2.54-10.14,2.54H171.82c6.37-8.47,24.91-27.89,31.29-32.09,7.6-5.07,11.44-10.14,6.74-19S193,315,193,315s7.17-3,13.54-3c-8-2.1-18.18,0-22.81,4.63-5.07,4.64-4.21,21.15-6.31,31.66-2.1,11-9.27,16.51-20.28,26.65-5.94,5.51-10.14,7.17-13.54,7.17a144.35,144.35,0,0,1-21.59-5.5c-4.2-5.51-10.57-23.69-12.24-31.29,1.23-4.2,6.3-13.11,8.84-18.18,5.07-9.71,8-15.22,8.91-20.29,1.66-7.17,7.17-51.57,9.27-70.11,5.5,7.17,13.11,19,11.37,26.65,12.24-17.31,3.4-34.26-.87-41-3.77-6.73-8.84-20.28-4.63-34.62S162,133.66,162,133.66s5.07,8.91,12.24,7.17S239.33,52.1,239.33,52.1s15.64,34.19-.87,59.18c-16.88,24.91-33.4,29.55-33.4,29.55a63.29,63.29,0,0,0,44.77-11.44c8.84,20.71,17.31,42.23,17.75,45.2-1.31,3-18.18,43.53-19.85,46.07-.87.86-6.74,2.53-11,3.4-7.17,2.1-11.37,3.4-13.11,4.64-3,2.53-16.52,39.69-22.82,57.87a35.13,35.13,0,0,0-20.72,14.78c3-2.1,12.25-3.41,19.05-4.2,5.94-.44,24,9.27,28.76,27.45v.87A26.14,26.14,0,0,1,223.32,343.58Zm-39.7,5.07c3.84-5.51,3.41-14.78,3.84-17.75s1.23-8.47,4.64-9.27,11.44.44,11.44,6.3c0,5.51-5.94,6.74-10.14,10.58C190.36,341.41,184.42,347.78,183.62,348.65Zm168.56-80.77a203,203,0,0,0,3.41-55.34,155.29,155.29,0,0,1,29.55,76.06c.43,3.4,3.77,6.74,7.17,10.14,3,2.54,6.38,5.94,6.38,8A172.94,172.94,0,0,1,396.15,336c-.43,1.23-4.2,3.41-7.17,5.07-4.2,2.1-8,4.2-8.84,7.61a157.49,157.49,0,0,1-55.77,81.56C363.63,389.21,382.6,321.56,352.18,267.88ZM325.6,434c27.45-21.15,48.6-50.71,57.87-84.1.44-1.23,4.21-3.4,6.74-5.07,4.2-2.1,8.48-4.64,9.27-8a177.89,177.89,0,0,0,2.54-30c0-3.77-3.84-7.6-7.61-11.37-2.1-2.54-5.5-5.51-5.5-7.61a165.73,165.73,0,0,0-34.63-84.09c-8.47-50.71-42.23-66.36-43.1-66.79.87,1.3,22.82,33,7.61,70.12-15.65,37.59-55.78,31.72-59.18,32.09-3.41,0-16.44,16.87-33,48.17-2.1-.87-11-3-21.15-1.24,7.6-21.15,19.05-51.14,21.15-53.67.87-.87,7.17-2.54,11.45-3.77,8-2.1,11.8-3.4,13.11-5.07.87-1.3,5.07-11,9.27-21.15,3.84,0,13.54-.87,14.34-1.3.87-.87,8.91-21.52,8.91-24,0-2.1-16.52-43.1-22.82-58.75a97,97,0,0,0,8.84-12.24C356.38,115.41,424,188.93,424,278A173.05,173.05,0,0,1,325.6,434Z"/><path class="f4283cef-1b45-4b93-a896-39ae270867cb" d="M213.18,205.81c8-9.28,3.84-26.59-11-29.56,3.84-8.84,9.27-26.58,9.27-26.58s-43.1,67.58-46.87,68.88S157,205,157,205c-8,30.86,13.54,35.06,16.08,25.35C184.86,227.32,205.14,214.64,213.18,205.81Z"/><path class="ac52abbd-063e-492e-9433-ba81a5c3d22f" d="M176.38,222.25l22-37.6s12.67,6.38,6.3,16.52C196.66,213,176.38,222.25,176.38,222.25Z"/><path class="e0f8fb68-7b75-417c-b1b7-6b965bfc790c" d="M448.09,396.38a247.57,247.57,0,0,1-21.95,25.79c54.47-104.81,2.53-200.72.43-204.48,3.84,3.83,7.61,8,11,11.8C479.38,275.92,484.45,345.68,448.09,396.38Z"/><path class="e0f8fb68-7b75-417c-b1b7-6b965bfc790c" d="M498.79,261.58c-19.05-51.14-46.07-94.67-105.61-133.93C335.74,89.62,274,92.59,270.62,93h-.87a28.78,28.78,0,0,1,6.3-1.66c13.11-4.2,30-7.61,46.94-9.71,44.84-6.45,90,8.77,120.9,41.36l.86.87C479.81,161,498,207.47,498.79,261.58Z"/><path class="e0f8fb68-7b75-417c-b1b7-6b965bfc790c" d="M379.63,52.39c-62.94-11.81-103.51-5.94-132.7,5.07-.87-3.41-3.84-10.14-6.37-15.65-8.77,10.58-18.11,23.25-24,31.29-16.08,11-22.82,21.59-22.82,21.59C203,63,230.13,39.35,263.09,33.41a171.78,171.78,0,0,1,30.42-2.54C322.63,31.31,351.75,38.48,379.63,52.39Z"/><path class="e0f8fb68-7b75-417c-b1b7-6b965bfc790c" d="M146.83,133.51c-49.4-1.66-33-59.18-32.09-62.51C114.74,71.44,118.07,116.2,146.83,133.51Z"/><path class="e0f8fb68-7b75-417c-b1b7-6b965bfc790c" d="M195.43,30C157.4,52.82,165,107.29,165,107.29,128.64,52,192.46,31.31,195.43,30Z"/><path class="b53f49c8-5cd7-4633-93ae-491623cf7762" d="M132.92,148.73c2.53,2.1,5.07,5.94,2.1,11.44-1.67,3-4.2,2.54-8,.87-5.07-2.53-35.49-20.28-62.95-38.46,31.29,11,63,22.81,68,25.35C132.05,147.93,132.48,148.36,132.92,148.73Z"/></svg>