<svg id="Layer_1" data-name="Layer 1" xmlns="http://www.w3.org/2000/svg" xmlns:xlink="http://www.w3.org/1999/xlink" viewBox="0 0 512 512"><defs><style>.cls-1{fill:url(#linear-gradient);}.cls-2{fill:#fff;}</style><linearGradient id="linear-gradient" x1="-596.67" y1="-387.77" x2="-597.16" y2="-387.35" gradientTransform="translate(463462 301002) scale(776)" gradientUnits="userSpaceOnUse"><stop offset="0" stop-color="#b6509e"/><stop offset="1" stop-color="#2ebac6"/></linearGradient></defs><circle class="cls-1" cx="256" cy="256" r="256"/><path class="cls-2" d="M368,358,281.47,148.72c-4.88-10.82-12.14-16.1-21.71-16.1h-7.65c-9.57,0-16.83,5.28-21.71,16.1L192.73,239.9H164.22a15.61,15.61,0,0,0-15.5,15.51v.19a15.65,15.65,0,0,0,15.5,15.51h15.31l-36,86.89a18.21,18.21,0,0,0-1,5.94,16.63,16.63,0,0,0,4.22,11.68c2.7,3,6.6,4.42,11.48,4.42a15.29,15.29,0,0,0,8.91-3,19.26,19.26,0,0,0,6.2-7.85L212.92,271h27.44a15.61,15.61,0,0,0,15.51-15.5v-.4a15.66,15.66,0,0,0-15.51-15.5H225.72l30.21-75.29,82.35,204.8a19.27,19.27,0,0,0,6.2,7.86,15.56,15.56,0,0,0,8.91,3c4.88,0,8.7-1.46,11.48-4.43s4.22-6.79,4.22-11.67A14,14,0,0,0,368,358Z"/></svg>