<svg width="100" height="101" viewBox="0 0 100 101" fill="none" xmlns="http://www.w3.org/2000/svg">
<circle cx="50" cy="50.8306" r="50" fill="white"/>
<path d="M31.9299 50.5634C31.8519 51.9888 32.3426 53.3869 33.2944 54.4509C34.2461 55.5148 35.5812 56.1577 37.0064 56.2383H37.3267C38.3793 56.235 39.4078 55.9234 40.2853 55.3421C41.1627 54.7607 41.8506 53.9351 42.2641 52.9671C42.6775 51.9991 42.7984 50.9313 42.6117 49.8954C42.425 48.8595 41.939 47.901 41.2136 47.1383C40.4883 46.3756 39.5554 45.842 38.5302 45.6036C37.505 45.3651 36.4324 45.4322 35.4449 45.7965C34.4574 46.1608 33.5983 46.8064 32.9736 47.6536C32.3489 48.5007 31.9861 49.5123 31.9299 50.5634V50.5634Z" fill="#0033AD"/>
<path d="M11.8348 49.1775C11.4911 49.1588 11.1497 49.2425 10.8536 49.4179C10.5574 49.5933 10.32 49.8526 10.1711 50.1629C10.0223 50.4732 9.96884 50.8207 10.0175 51.1614C10.0661 51.5022 10.2146 51.8208 10.4443 52.0771C10.674 52.3334 10.9745 52.5159 11.3079 52.6015C11.6412 52.687 11.9925 52.6719 12.3172 52.5579C12.6419 52.4438 12.9256 52.2361 13.1323 51.9609C13.339 51.6858 13.4595 51.3555 13.4785 51.0118C13.4929 50.7831 13.4616 50.5537 13.3864 50.3371C13.3113 50.1206 13.1938 49.9211 13.0408 49.7504C12.8878 49.5797 12.7024 49.4411 12.4954 49.3428C12.2883 49.2444 12.0638 49.1882 11.8348 49.1775V49.1775Z" fill="#0033AD"/>
<path d="M31.5893 19.2903C32.0022 19.0808 32.315 18.7159 32.4589 18.2758C32.6028 17.8356 32.5659 17.3564 32.3565 16.9434C32.147 16.5305 31.782 16.2177 31.3419 16.0738C30.9018 15.9299 30.4226 15.9668 30.0096 16.1763C29.5967 16.3857 29.2839 16.7507 29.14 17.1908C28.9961 17.6309 29.033 18.1102 29.2424 18.5231C29.4519 18.9361 29.8169 19.2489 30.257 19.3928C30.6971 19.5366 31.1763 19.4998 31.5893 19.2903V19.2903Z" fill="#0033AD"/>
<path d="M37.0502 28.8261C37.5248 28.5876 37.918 28.2136 38.1801 27.7515C38.4422 27.2895 38.5614 26.7601 38.5226 26.2303C38.4838 25.7005 38.2888 25.1941 37.9623 24.7751C37.6357 24.3562 37.1922 24.0434 36.6879 23.8765C36.1836 23.7096 35.6411 23.6959 35.1291 23.8373C34.617 23.9787 34.1584 24.2687 33.8112 24.6707C33.464 25.0727 33.2437 25.5687 33.1784 26.0959C33.113 26.623 33.2054 27.1577 33.444 27.6324C33.7648 28.268 34.3245 28.7506 35.0004 28.9744C35.6764 29.1981 36.4134 29.1448 37.0502 28.8261V28.8261Z" fill="#0033AD"/>
<path d="M18.6613 35.3761C19.0283 35.6167 19.4584 35.7431 19.8972 35.7392C20.336 35.7354 20.7638 35.6015 21.1266 35.3545C21.4893 35.1076 21.7707 34.7586 21.935 34.3517C22.0994 33.9448 22.1394 33.4983 22.0501 33.0687C21.9607 32.6391 21.7459 32.2456 21.4329 31.938C21.1199 31.6304 20.7227 31.4226 20.2916 31.3408C19.8604 31.2589 19.4147 31.3068 19.0108 31.4783C18.6068 31.6498 18.2628 31.9372 18.0223 32.3042V32.3042C17.8613 32.5475 17.7501 32.8202 17.6951 33.1067C17.6401 33.3932 17.6424 33.6877 17.7018 33.9733C17.7612 34.2589 17.8766 34.5299 18.0413 34.7706C18.206 35.0114 18.4167 35.2172 18.6613 35.3761V35.3761Z" fill="#0033AD"/>
<path d="M21.9253 48.2181C21.3936 48.1886 20.8651 48.3175 20.4067 48.5884C19.9482 48.8593 19.5804 49.2601 19.3498 49.74C19.1191 50.22 19.036 50.7576 19.1109 51.2848C19.1858 51.812 19.4153 52.3052 19.7705 52.7019C20.1257 53.0986 20.5906 53.3811 21.1064 53.5136C21.6221 53.6461 22.1656 53.6227 22.6681 53.4463C23.1705 53.2699 23.6093 52.9485 23.9291 52.5226C24.2488 52.0968 24.4351 51.5857 24.4644 51.054V51.054C24.5036 50.3413 24.2581 49.6422 23.782 49.1104C23.3059 48.5786 22.638 48.2576 21.9253 48.2181V48.2181Z" fill="#0033AD"/>
<path d="M18.9597 66.2851C18.5673 66.4835 18.2425 66.7938 18.0264 67.1768C17.8103 67.5598 17.7127 67.9983 17.7458 68.4368C17.7789 68.8753 17.9413 69.2941 18.2124 69.6403C18.4836 69.9865 18.8513 70.2445 19.2691 70.3817C19.6869 70.519 20.1359 70.5292 20.5596 70.4112C20.9832 70.2932 21.3623 70.0522 21.6489 69.7188C21.9356 69.3853 22.1169 68.9743 22.17 68.5378C22.2231 68.1013 22.1456 67.6588 21.9472 67.2663V67.2663C21.6793 66.7418 21.215 66.3444 20.6555 66.1606C20.096 65.9768 19.4865 66.0216 18.9597 66.2851V66.2851Z" fill="#0033AD"/>
<path d="M29.4127 42.6494C29.9359 42.9909 30.5485 43.1696 31.1732 43.1629C31.7979 43.1563 32.4066 42.9646 32.9224 42.612C33.4382 42.2595 33.8378 41.762 34.0709 41.1823C34.3039 40.6027 34.3599 39.967 34.2317 39.3555C34.1035 38.7441 33.797 38.1844 33.3507 37.7472C32.9045 37.3099 32.3387 37.0148 31.7247 36.8991C31.1108 36.7834 30.4764 36.8523 29.9016 37.0971C29.3268 37.3419 28.8375 37.7516 28.4956 38.2745C28.2657 38.621 28.1069 39.0099 28.0286 39.4183C27.9502 39.8268 27.9538 40.2467 28.0391 40.6538C28.1245 41.0608 28.2898 41.4469 28.5257 41.7895C28.7615 42.132 29.063 42.4244 29.4127 42.6494V42.6494Z" fill="#0033AD"/>
<path d="M62.5843 28.6136C63.0294 28.9069 63.5515 29.0616 64.0845 29.0582C64.6175 29.0548 65.1376 28.8934 65.5789 28.5945C66.0202 28.2955 66.363 27.8724 66.5638 27.3787C66.7647 26.885 66.8147 26.3427 66.7074 25.8206C66.6001 25.2985 66.3405 24.8199 65.9612 24.4453C65.5819 24.0707 65.1001 23.8171 64.5767 23.7163C64.0533 23.6155 63.5117 23.6723 63.0205 23.8793C62.5293 24.0863 62.1105 24.4343 61.8171 24.8793V24.8793C61.6185 25.1737 61.4807 25.5047 61.4117 25.853C61.3428 26.2014 61.344 26.56 61.4155 26.9078C61.487 27.2556 61.6271 27.5857 61.8279 27.8786C62.0286 28.1715 62.2857 28.4214 62.5843 28.6136V28.6136Z" fill="#0033AD"/>
<path d="M68.0889 19.12C68.3781 19.305 68.7155 19.4004 69.0587 19.3943C69.402 19.3882 69.7358 19.2809 70.0182 19.0857C70.3007 18.8905 70.5191 18.6162 70.6462 18.2973C70.7733 17.9784 70.8033 17.629 70.7325 17.2931C70.6617 16.9572 70.4932 16.6497 70.2482 16.4092C70.0032 16.1687 69.6926 16.0059 69.3554 15.9414C69.0182 15.8768 68.6695 15.9133 68.353 16.0463C68.0365 16.1792 67.7663 16.4028 67.5764 16.6888C67.3315 17.0818 67.248 17.5543 67.3435 18.0075C67.4391 18.4606 67.7061 18.8593 68.0889 19.12V19.12Z" fill="#0033AD"/>
<path d="M62.9905 45.4228C61.5734 45.3583 60.188 45.8556 59.1354 46.8067C58.0829 47.7578 57.4483 49.0859 57.3694 50.5023C57.2906 51.9188 57.7739 53.3091 58.7144 54.3711C59.6549 55.4332 60.9765 56.0812 62.3921 56.1743H62.6905C64.0931 56.177 65.4413 55.6318 66.4477 54.6549C67.4542 53.678 68.0393 52.3467 68.0784 50.9447C68.1175 49.5427 67.6075 48.1808 66.6571 47.1493C65.7067 46.1178 64.391 45.4983 62.9905 45.4228V45.4228Z" fill="#0033AD"/>
<path d="M38.8205 42.265C39.3018 43.2151 40.0538 44.0012 40.9816 44.5242C41.9094 45.0471 42.9713 45.2834 44.0333 45.2033C45.0953 45.1231 46.1098 44.73 46.9485 44.0738C47.7873 43.4175 48.4128 42.5274 48.7461 41.5158C49.0793 40.5043 49.1054 39.4167 48.821 38.3903C48.5366 37.364 47.9544 36.445 47.148 35.7492C46.3416 35.0535 45.3472 34.6124 44.2902 34.4814C43.2333 34.3505 42.1613 34.5357 41.2095 35.0136C40.5763 35.3327 40.0122 35.7734 39.5494 36.3106C39.0867 36.8477 38.7343 37.4709 38.5124 38.1443C38.2905 38.8177 38.2036 39.5283 38.2564 40.2353C38.3093 40.9424 38.5009 41.6321 38.8205 42.265Z" fill="#0033AD"/>
<path d="M81.0372 35.3761C81.4254 35.1748 81.7454 34.8633 81.9571 34.4807C82.1688 34.0981 82.2628 33.6615 82.2272 33.2257C82.1916 32.7899 82.028 32.3744 81.757 32.0312C81.486 31.6881 81.1196 31.4327 80.7039 31.2971C80.2883 31.1615 79.8418 31.1517 79.4206 31.269C78.9993 31.3863 78.6222 31.6255 78.3364 31.9564C78.0507 32.2874 77.8691 32.6954 77.8145 33.1292C77.7598 33.5631 77.8346 34.0034 78.0294 34.3948C78.3019 34.9202 78.7699 35.3174 79.3325 35.501C79.8951 35.6845 80.5073 35.6397 81.0372 35.3761V35.3761Z" fill="#0033AD"/>
<path d="M67.3842 37.0807C66.8253 37.3615 66.3621 37.8017 66.0534 38.3456C65.7446 38.8896 65.6041 39.5129 65.6496 40.1368C65.695 40.7606 65.9245 41.3569 66.3089 41.8504C66.6933 42.3438 67.2155 42.7121 67.8092 42.9088C68.403 43.1055 69.0417 43.1217 69.6447 42.9553C70.2477 42.789 70.7878 42.4476 71.1967 41.9742C71.6056 41.5009 71.865 40.917 71.942 40.2962C72.0191 39.6755 71.9103 39.0459 71.6295 38.487C71.253 37.7376 70.5942 37.1684 69.7981 36.9047C69.0019 36.641 68.1337 36.7043 67.3842 37.0807V37.0807Z" fill="#0033AD"/>
<path d="M49.7844 18.3091C50.2222 18.3343 50.6577 18.2294 51.036 18.0076C51.4143 17.7858 51.7185 17.457 51.9103 17.0626C52.1021 16.6682 52.1729 16.2259 52.1138 15.7914C52.0547 15.3568 51.8683 14.9495 51.5781 14.6207C51.2879 14.2919 50.907 14.0563 50.4831 13.9436C50.0593 13.831 49.6117 13.8462 49.1965 13.9875C48.7813 14.1287 48.4173 14.3897 48.1501 14.7375C47.883 15.0853 47.7248 15.5043 47.6954 15.9419C47.6619 16.532 47.8625 17.1115 48.2536 17.5546C48.6447 17.9978 49.1947 18.2689 49.7844 18.3091V18.3091Z" fill="#0033AD"/>
<path d="M49.7641 32.237C50.3887 32.2707 51.0092 32.1185 51.5473 31.7995C52.0853 31.4805 52.5167 31.0092 52.7868 30.445C53.057 29.8809 53.1537 29.2493 53.0649 28.6302C52.9761 28.011 52.7057 27.4321 52.2879 26.9666C51.8701 26.5012 51.3236 26.1701 50.7176 26.0152C50.1116 25.8603 49.4733 25.8886 48.8833 26.0965C48.2934 26.3044 47.7784 26.6826 47.4034 27.1832C47.0284 27.6838 46.8103 28.2844 46.7766 28.9089C46.7515 29.3242 46.8092 29.7404 46.9462 30.1332C47.0832 30.526 47.2969 30.8878 47.5748 31.1974C47.8527 31.507 48.1893 31.7583 48.5652 31.9368C48.941 32.1152 49.3485 32.2173 49.7641 32.237Z" fill="#0033AD"/>
<path d="M32.6127 64.5804C33.1717 64.2997 33.6348 63.8595 33.9436 63.3155C34.2524 62.7716 34.3929 62.1482 34.3474 61.5244C34.3019 60.9006 34.0724 60.3042 33.688 59.8108C33.3036 59.3174 32.7815 58.949 32.1877 58.7524C31.5939 58.5557 30.9552 58.5395 30.3522 58.7058C29.7493 58.8722 29.2092 59.2136 28.8002 59.6869C28.3913 60.1602 28.1319 60.7442 28.0549 61.3649C27.9779 61.9856 28.0866 62.6153 28.3674 63.1742C28.744 63.9236 29.4027 64.4927 30.1989 64.7565C30.995 65.0202 31.8633 64.9569 32.6127 64.5804V64.5804Z" fill="#0033AD"/>
<path d="M51.811 36.8682C51.1533 37.8706 50.8488 39.0637 50.9458 40.2586C51.0428 41.4535 51.5357 42.5819 52.3464 43.4651C53.1571 44.3482 54.2393 44.9357 55.4216 45.1343C56.6039 45.333 57.8186 45.1315 58.8735 44.5618C59.9283 43.9921 60.7629 43.0867 61.2451 41.9891C61.7273 40.8915 61.8295 39.6644 61.5355 38.5022C61.2415 37.3399 60.5682 36.309 59.6221 35.5726C58.676 34.8363 57.5113 34.4367 56.3125 34.437C55.4192 34.436 54.5397 34.6578 53.7537 35.0823C52.9677 35.5068 52.3 36.1207 51.811 36.8682Z" fill="#0033AD"/>
<path d="M61.1765 59.3961C60.6976 58.445 59.9475 57.6573 59.0209 57.1325C58.0943 56.6077 57.033 56.3694 55.971 56.4478C54.909 56.5262 53.8942 56.9177 53.0547 57.5728C52.2152 58.228 51.5889 59.1173 51.2548 60.1284C50.9208 61.1395 50.894 62.227 51.178 63.2533C51.4619 64.2796 52.0438 65.1986 52.8501 65.8942C53.6563 66.5898 54.6508 67.0308 55.7076 67.1612C56.7644 67.2917 57.8362 67.1059 58.7874 66.6273V66.6273C60.0602 65.9938 61.0292 64.8807 61.4813 63.5328C61.9335 62.185 61.8317 60.7127 61.1984 59.4399C61.1984 59.4242 61.1984 59.4242 61.1765 59.3961Z" fill="#0033AD"/>
<path d="M70.5842 59.0117C70.061 58.6703 69.4484 58.4916 68.8237 58.4982C68.199 58.5049 67.5903 58.6966 67.0745 59.0491C66.5588 59.4017 66.1591 59.8992 65.9261 60.4788C65.693 61.0585 65.637 61.6942 65.7652 62.3056C65.8934 62.9171 66.2 63.4768 66.6462 63.914C67.0924 64.3512 67.6583 64.6464 68.2722 64.7621C68.8861 64.8778 69.5206 64.8089 70.0954 64.5641C70.6701 64.3192 71.1594 63.9095 71.5014 63.3867C71.7313 63.0401 71.89 62.6513 71.9684 62.2429C72.0467 61.8344 72.0431 61.4144 71.9578 61.0074C71.8725 60.6003 71.7071 60.2143 71.4713 59.8717C71.2355 59.5291 70.9339 59.2368 70.5842 59.0117V59.0117Z" fill="#0033AD"/>
<path d="M80.9091 50.9259C80.9385 50.3943 80.8097 49.8659 80.5388 49.4074C80.268 48.949 79.8673 48.5812 79.3874 48.3506C78.9076 48.1199 78.3701 48.0367 77.8429 48.1115C77.3157 48.1862 76.8226 48.4157 76.4258 48.7707C76.029 49.1257 75.7464 49.5905 75.6138 50.1061C75.4811 50.6218 75.5043 51.1652 75.6805 51.6676C75.8566 52.1701 76.1778 52.609 76.6035 52.9289C77.0291 53.2488 77.54 53.4354 78.0716 53.4649C78.7834 53.5 79.4804 53.2532 80.0115 52.7779C80.5427 52.3026 80.8651 51.6372 80.9091 50.9259Z" fill="#0033AD"/>
<path d="M88.3543 49.0072C88.0107 48.9885 87.6692 49.0722 87.3731 49.2476C87.0769 49.423 86.8395 49.6823 86.6906 49.9926C86.5418 50.3029 86.4883 50.6504 86.537 50.9911C86.5856 51.3318 86.7341 51.6505 86.9638 51.9068C87.1935 52.1631 87.494 52.3456 87.8274 52.4312C88.1607 52.5167 88.512 52.5016 88.8367 52.3875C89.1615 52.2735 89.4451 52.0658 89.6518 51.7906C89.8585 51.5154 89.979 51.1852 89.9981 50.8415C90.0199 50.3812 89.8597 49.9307 89.5521 49.5875C89.2446 49.2442 88.8143 49.0358 88.3543 49.0072V49.0072Z" fill="#0033AD"/>
<path d="M81.3356 66.2851C80.9686 66.0445 80.5385 65.9181 80.0997 65.9219C79.6609 65.9258 79.2331 66.0596 78.8704 66.3066C78.5076 66.5536 78.2263 66.9026 78.0619 67.3095C77.8975 67.7164 77.8575 68.1628 77.9469 68.5925C78.0362 69.0221 78.251 69.4156 78.564 69.7232C78.877 70.0307 79.2742 70.2386 79.7054 70.3204C80.1365 70.4022 80.5822 70.3544 80.9862 70.1829C81.3901 70.0114 81.7341 69.7239 81.9747 69.3569C82.1356 69.1137 82.2468 68.8409 82.3018 68.5545C82.3568 68.268 82.3545 67.9735 82.2951 67.6879C82.2357 67.4023 82.1203 67.1313 81.9557 66.8905C81.791 66.6498 81.5802 66.444 81.3356 66.2851V66.2851Z" fill="#0033AD"/>
<path d="M31.8877 82.549C31.6009 82.3593 31.2642 82.2589 30.9203 82.2605C30.5764 82.2621 30.2407 82.3657 29.9557 82.5581C29.6706 82.7504 29.449 83.023 29.3188 83.3413C29.1887 83.6596 29.1558 84.0094 29.2244 84.3463C29.293 84.6833 29.4599 84.9924 29.7041 85.2345C29.9483 85.4767 30.2589 85.6409 30.5964 85.7066C30.934 85.7723 31.2834 85.7364 31.6006 85.6035C31.9178 85.4706 32.1884 85.2466 32.3783 84.9599V84.9599C32.5072 84.7703 32.5968 84.5568 32.642 84.332C32.6871 84.1072 32.6868 83.8757 32.641 83.6511C32.5953 83.4264 32.5051 83.2132 32.3757 83.0239C32.2464 82.8346 32.0804 82.6732 31.8877 82.549Z" fill="#0033AD"/>
<path d="M68.4077 82.3709C67.9947 82.5803 67.6819 82.9453 67.538 83.3854C67.3941 83.8255 67.431 84.3048 67.6405 84.7177C67.85 85.1307 68.2149 85.4435 68.655 85.5874C69.0951 85.7312 69.5744 85.6944 69.9873 85.4849C70.1918 85.3812 70.3738 85.2382 70.523 85.0641C70.6723 84.89 70.7857 84.6883 70.857 84.4704C70.9282 84.2524 70.9558 84.0226 70.9382 83.794C70.9207 83.5654 70.8582 83.3425 70.7545 83.138C70.6508 82.9336 70.5078 82.7515 70.3337 82.6023C70.1597 82.4531 69.9579 82.3396 69.74 82.2684C69.522 82.1972 69.2922 82.1695 69.0636 82.1871C68.835 82.2047 68.6121 82.2671 68.4077 82.3709V82.3709Z" fill="#0033AD"/>
<path d="M48.186 64.7929C48.7697 63.9001 49.0755 62.8542 49.0648 61.7875C49.0541 60.7209 48.7274 59.6813 48.1259 58.8004C47.5245 57.9194 46.6753 57.2366 45.6858 56.8382C44.6962 56.4398 43.6108 56.3438 42.5667 56.5622C41.5226 56.7807 40.5667 57.3039 39.82 58.0656C39.0732 58.8273 38.569 59.7933 38.3712 60.8415C38.1735 61.8897 38.2909 62.9731 38.7088 63.9545C39.1267 64.936 39.8262 65.7715 40.7189 66.3554C41.9175 67.134 43.3756 67.4068 44.7747 67.114C46.1737 66.8213 47.4001 65.9868 48.186 64.7929V64.7929Z" fill="#0033AD"/>
<path d="M37.4127 73.0475C36.9676 72.7542 36.4455 72.5995 35.9125 72.6029C35.3794 72.6063 34.8594 72.7677 34.4181 73.0667C33.9767 73.3656 33.634 73.7887 33.4331 74.2825C33.2322 74.7762 33.1823 75.3184 33.2895 75.8405C33.3968 76.3627 33.6565 76.8413 34.0357 77.2158C34.415 77.5904 34.8968 77.8441 35.4202 77.9449C35.9437 78.0456 36.4852 77.9889 36.9764 77.7819C37.4676 77.5749 37.8864 77.2269 38.1798 76.7819C38.378 76.4874 38.5155 76.1563 38.5842 75.8081C38.653 75.4598 38.6516 75.1014 38.5801 74.7536C38.5087 74.4059 38.3687 74.076 38.1682 73.783C37.9678 73.4901 37.7109 73.24 37.4127 73.0475V73.0475Z" fill="#0033AD"/>
<path d="M49.9766 83.3521C49.5388 83.3272 49.1035 83.4324 48.7254 83.6544C48.3472 83.8764 48.0433 84.2053 47.8517 84.5997C47.6602 84.9941 47.5896 85.4364 47.6489 85.8709C47.7082 86.3053 47.8947 86.7125 48.185 87.0412C48.4752 87.3698 48.8562 87.6052 49.28 87.7178C49.7038 87.8303 50.1514 87.815 50.5665 87.6736C50.9816 87.5323 51.3455 87.2713 51.6126 86.9235C51.8796 86.5758 52.0378 86.1568 52.0672 85.7193C52.1006 85.1289 51.8998 84.5492 51.5084 84.106C51.117 83.6628 50.5665 83.3919 49.9766 83.3521V83.3521Z" fill="#0033AD"/>
<path d="M49.9985 69.4241C49.3739 69.3901 48.7532 69.5421 48.2149 69.8609C47.6767 70.1796 47.2451 70.6509 46.9747 71.215C46.7043 71.7791 46.6073 72.4107 46.6959 73.0299C46.7845 73.6492 47.0548 74.2282 47.4726 74.6938C47.8903 75.1594 48.4368 75.4907 49.0428 75.6457C49.6488 75.8008 50.2872 75.7726 50.8772 75.5647C51.4673 75.3569 51.9824 74.9787 52.3574 74.4781C52.7325 73.9775 52.9507 73.3769 52.9844 72.7522C53.0095 72.337 52.9519 71.921 52.815 71.5283C52.6781 71.1356 52.4645 70.7739 52.1868 70.4643C51.909 70.1547 51.5726 69.9034 51.1969 69.7248C50.8213 69.5463 50.4139 69.4441 49.9985 69.4241Z" fill="#0033AD"/>
<path d="M62.9468 72.835C62.4745 73.0787 62.0848 73.4565 61.8266 73.9211C61.5684 74.3856 61.4534 74.9161 61.4959 75.4458C61.5384 75.9756 61.7365 76.4809 62.0654 76.8984C62.3943 77.3158 62.8393 77.6267 63.3444 77.792C63.8495 77.9572 64.3921 77.9695 64.9042 77.8272C65.4162 77.6849 65.8748 77.3944 66.2222 76.9923C66.5696 76.5901 66.7904 76.0942 66.8567 75.5669C66.9231 75.0396 66.8321 74.5045 66.5952 74.0288C66.4359 73.709 66.2147 73.4242 65.9445 73.1907C65.6742 72.9572 65.3602 72.7797 65.0207 72.6687C64.6812 72.5576 64.3231 72.5151 63.967 72.5437C63.611 72.5722 63.2642 72.6713 62.9468 72.835Z" fill="#0033AD"/>
</svg>
