<svg width="101" height="101" viewBox="0 0 101 101" fill="none" xmlns="http://www.w3.org/2000/svg">
<circle cx="50.6873" cy="50.4006" r="50" fill="white"/>
<path d="M34.423 75.4006L41.6516 62.8786L48.8801 50.4006L56.0646 37.8786L57.2547 35.8945L57.7836 37.8786L59.9875 46.1237L57.5192 50.4006L50.2906 62.8786L43.1061 75.4006H51.7451L58.9737 62.8786L62.7202 56.3971L64.4833 62.8786L67.8331 75.4006H75.5906L72.2408 62.8786L68.891 50.4006L68.0094 47.1819L73.3868 37.8786H65.5411L65.2767 36.9527L62.5439 26.7234L62.1913 25.4006H54.6542L54.4779 25.6652L47.4256 37.8786L40.197 50.4006L33.0125 62.8786L25.7839 75.4006H34.423Z" fill="black"/>
</svg>
