<svg xmlns="http://www.w3.org/2000/svg" viewBox="0 0 101.23 100"><defs><style>.cls-1{fill:#d26b7f;}.cls-2{fill:#feecac;}.cls-3{fill:#ea8397;}</style></defs><g id="Layer_2" data-name="Layer 2"><g id="Layer_1-2" data-name="Layer 1"><path class="cls-1" d="M43.43,8.64A16.2,16.2,0,0,1,46,13.52a44.76,44.76,0,0,1,1.92,9.64c.34,3.46.5,6.92.68,10.37a24.46,24.46,0,0,1,.09,3,9,9,0,0,0-.92.07A113.73,113.73,0,0,0,44.47,13.2C44.16,11.64,43.68,10.17,43.43,8.64Z"/><path class="cls-1" d="M75.67,30.89A20,20,0,0,1,89.4,29.47a16.89,16.89,0,0,1-3,.13,27,27,0,0,0-9.9,2.62A38,38,0,0,0,63.79,42.64c-.57.7-1.09,1.44-1.7,2.12-.18-.36-.38-.72-.56-1.08s.11-.46.22-.66A51.57,51.57,0,0,1,68.15,36,31.48,31.48,0,0,1,75.67,30.89Z"/><path class="cls-1" d="M10.16,45A18.92,18.92,0,0,1,20.8,43.65c5,.79,9.69,3,14.23,5.2,0,.25,0,.5,0,.74l-.07,1.22a82.37,82.37,0,0,0-9.83-4,23.89,23.89,0,0,0-10-1.13,16.66,16.66,0,0,0-5,1.52,20.87,20.87,0,0,1-2,1.06A3,3,0,0,1,10.16,45Z"/><path class="cls-1" d="M60.62,59.69l.68-1c10.28,3.84,19.52,10,28.15,16.67a2.9,2.9,0,0,1,1,2.07c.06.39-.25.66-.41,1-1.47-1.36-2.8-2.87-4.36-4.12C78.27,68,69.52,63.46,60.51,59.94Z"/><path class="cls-1" d="M43.64,67.06a10.15,10.15,0,0,1,1.49-2.22l.2,0,.7.23c.11.16,0,.34-.07.5-3.43,5.31-6.05,11.11-9.87,16.17a15.41,15.41,0,0,1-4.7,4.29,5.73,5.73,0,0,1-3,.61,30.28,30.28,0,0,0,3.93-3.32C36.88,78.51,40.14,72.66,43.64,67.06Z"/><path class="cls-2" d="M38.92,40.92a14.13,14.13,0,0,1,8.81-4.38l.92-.07A14.19,14.19,0,0,1,61.53,43.7c.18.36.38.72.56,1.08a14.92,14.92,0,0,1-.79,13.9c-.22.33-.45.7-.68,1a14.37,14.37,0,0,1-8,5.42,12.69,12.69,0,0,1-6.56,0,6.38,6.38,0,0,0-.7-.23A15.84,15.84,0,0,1,38,59.13a14.42,14.42,0,0,1-3-8.34L35,49.57A14.59,14.59,0,0,1,38.92,40.92Z"/><path class="cls-3" d="M37.09,1.43A19.45,19.45,0,0,1,46.91.1a21.16,21.16,0,0,1,7.75,1.81,13.28,13.28,0,0,1,5.6,4.92,22.46,22.46,0,0,1,3,10,50.14,50.14,0,0,1,.13,6.37c.61-.43,1.2-.91,1.81-1.34a31,31,0,0,1,13.62-5.37c.57-.07,1.11-.14,1.67-.18h1.83a24.85,24.85,0,0,1,2.6.2,18,18,0,0,1,7.25,2.76,20.62,20.62,0,0,1,6.21,6.57,17.07,17.07,0,0,1,2.81,7.75,15.28,15.28,0,0,1-2,8.7,27.82,27.82,0,0,1-9,9.12,27.83,27.83,0,0,1,9.9,12.92A21.22,21.22,0,0,1,101,74a26.3,26.3,0,0,1-3.39,9.53,14.69,14.69,0,0,1-6.15,5.9,17.26,17.26,0,0,1-10.68,1.24,35.34,35.34,0,0,1-14.41-6.35,43.77,43.77,0,0,1-4.79-4,9.53,9.53,0,0,0-1.29-1.17,34.32,34.32,0,0,1-9.49,14.28,26.92,26.92,0,0,1-8.36,5.28,17.55,17.55,0,0,1-9.21,1,19.32,19.32,0,0,1-8.81-4.16,21.75,21.75,0,0,1-5-5.38,17.17,17.17,0,0,1-2.44-9.82,28.22,28.22,0,0,1,3.32-11.66c.56-1.13,1.22-2.19,1.85-3.28a27.94,27.94,0,0,1-10.16-1.31,16.46,16.46,0,0,1-6.87-4.38A18.56,18.56,0,0,1,.78,50.9,23,23,0,0,1,0,44.67C-.07,40.45.17,36,2,32.13a12.6,12.6,0,0,1,3.48-4.52A11.71,11.71,0,0,1,9.8,25.67a19.06,19.06,0,0,1,9,.57,43,43,0,0,1,11.86,5.64A71.54,71.54,0,0,1,29.2,20.14a28.65,28.65,0,0,1,2-12.47A12.43,12.43,0,0,1,37.09,1.43Zm6.34,7.21c.25,1.53.73,3,1,4.52a113.83,113.83,0,0,1,3.26,23.35,14.2,14.2,0,0,0-8.81,4.39A14.5,14.5,0,0,0,35,49.57c0-.25,0-.5,0-.74-4.54-2.22-9.19-4.41-14.23-5.2a18.83,18.83,0,0,0-10.64,1.31,3,3,0,0,0-2.08,3.28c.7-.3,1.36-.7,2.06-1.07a17.24,17.24,0,0,1,5-1.51,24,24,0,0,1,10,1.13,84.32,84.32,0,0,1,9.82,4,14.42,14.42,0,0,0,3,8.34,15.9,15.9,0,0,0,7.38,5.71l-.2,0A10.2,10.2,0,0,0,43.66,67c-3.5,5.61-6.75,11.46-11.34,16.27a32.85,32.85,0,0,1-3.93,3.32,5.88,5.88,0,0,0,3-.61,15.47,15.47,0,0,0,4.69-4.29c3.82-5.06,6.44-10.87,9.88-16.18.09-.16.2-.31.06-.49a12.69,12.69,0,0,0,6.56,0,14.34,14.34,0,0,0,8-5.42l-.16.23c9,3.52,17.75,8.08,25.19,14.34C87.24,75.5,88.57,77,90,78.35c.15-.29.49-.59.4-1a2.89,2.89,0,0,0-1-2.08C80.8,68.59,71.56,62.47,61.28,58.63a15,15,0,0,0,.79-13.89c.61-.68,1.13-1.43,1.69-2.13A38.16,38.16,0,0,1,76.48,32.2a27,27,0,0,1,9.9-2.62,21.67,21.67,0,0,0,3-.14,20.2,20.2,0,0,0-13.73,1.43A30.07,30.07,0,0,0,68.15,36a52.78,52.78,0,0,0-6.4,7c-.11.2-.29.4-.22.65a14.25,14.25,0,0,0-12.88-7.23,24.23,24.23,0,0,0-.09-3c-.18-3.46-.34-6.92-.68-10.37A43.55,43.55,0,0,0,46,13.45,16.69,16.69,0,0,0,43.43,8.64Z"/></g></g></svg>