<svg xmlns="http://www.w3.org/2000/svg" viewBox="0 0 611.95 587.56"><defs><style>.cls-1{fill:#2a2928;}.cls-2{fill:#4ebb80;}.cls-3{fill:#4bba7d;}.cls-4{fill:#4ebb7f;}.cls-5{fill:#fefefe;}.cls-6{fill:#fcfcfc;}.cls-7{fill:#4ab87c;}.cls-8{fill:#f7f8f7;}.cls-9{fill:#f5f4f4;}.cls-10{fill:#f5f5f4;}.cls-11{fill:#49b47a;}.cls-12{fill:#d5d6d6;}.cls-13{fill:#e0e1e0;}.cls-14{fill:#1f1f1e;}.cls-15{fill:#f6f5f5;}.cls-16{fill:#f3f2f2;}.cls-17{fill:#2e2d2d;}.cls-18{fill:#312f30;}</style></defs><g id="Layer_2" data-name="Layer 2"><g id="Layer_1-2" data-name="Layer 1"><path class="cls-1" d="M455.42,572.27c0,1.2-1.2.79-1.79,1.17-2.15,1.38-4.43,2.56-6.9,3.94-1.63-3.08-3.2-5.93-4.68-8.83s-2.81-5.7-4.2-8.57c-1.62-3.36-3.24-6.73-4.82-10.11-.76-1.62-1.4-3.28-2.16-4.89s-1.42-1.6-2.84-.8a100.56,100.56,0,0,1-14.34,6.8c-2,.74-4,1.79-6,2.53-2.4.87-4.86,1.54-7.29,2.32-1.16.37-2.32.78-3.47,1.19-3.57,1.24-7.11,2.56-10.71,3.71-2.74.88-5.57,1.52-8.34,2.32s-5.73,1.86-8.65,2.58c-3.69.91-7.42,1.66-11.15,2.36s-7.5,1.27-11.25,1.89c-.16,0-.31.07-.47.09-3.57.35-7.14.93-10.71,1-4.42.08-8.35,1.57-12.17,3.49a13.68,13.68,0,0,1-7.15,1.39c-2.78-.17-5.57-.46-8.35-.76a36.53,36.53,0,0,0-12.37.78,23.09,23.09,0,0,1-2.38.26l-8,1c-.24,0-.47.08-.71.1-4.94.37-9.87.72-14.8,1.13-1.26.1-2.51.39-3.76.57-1,.14-2.05.31-3.08.37-3.35.2-6.7.46-10.05.49-2.62,0-5.25-.4-7.88-.38-5.13,0-10.11-1-15.12-1.85-2.81-.48-5.63-.91-8.43-1.44-1.48-.28-2.94-.66-4.39-1.08-3.28-1-6.63-1.74-9.79-3-3.59-1.44-7.21-3-10.25-5.57a2.44,2.44,0,0,0-1.57,1.82c-.64,2-1.5,3.91-2.31,5.85-.91,2.16-1.9,4.3-2.79,6.47-.75,1.81-1.36,3.68-2.13,5.48a7.68,7.68,0,0,1-1.24,1.52l-8-3.61a11.2,11.2,0,0,1,.32-2.1c.54-1.6,1.2-3.15,1.8-4.73a73.32,73.32,0,0,0,2.53-7c.46-1.75,2-3.14,1.67-5.1,1-2.2,1.93-4.4,2.86-6.51-1.55-2.24-3.17-4.34-4.52-6.6-2.32-3.89-3.89-8.05-3.61-12.71a22.39,22.39,0,0,0,0-3.84c-.27-2.31.75-4.35,1.27-6.47a40.49,40.49,0,0,1,2.45-5.79,7.13,7.13,0,0,0,.13-5.37c-.64-1.76-1.47-3.45-2.21-5.18a16.06,16.06,0,0,1-1.63-6.82c.05-2.16.07-4.32,0-6.47-.09-3,1.14-5.7,2.36-8.27a34.23,34.23,0,0,1,8.87-11,25.55,25.55,0,0,1,7.26-4.37c1.94-.79,3.93-1.45,6.07-2.22-.17-2.49-.23-4.8-.51-7.08-.4-3.23-1.14-6.43-1.42-9.68a67.24,67.24,0,0,1,1.05-19,77.26,77.26,0,0,0,1.73-15.17c0-4.64.09-9.27.16-13.91,0-1,.11-1.91.17-2.87.22-3.42.58-6.84.62-10.27.1-7.35,0-14.71.07-22.06a32.44,32.44,0,0,1,.38-4.05,19.59,19.59,0,0,0,.53-3.26c-.12-2.77,1.09-5.25,1.46-7.92.42-3,1.82-5.89,1.9-9a9.82,9.82,0,0,1,.19-1.43,44.82,44.82,0,0,0,0-16.65c-.39-2.1-1-4.22-1.25-6.28-.69-4.95-1.52-10-.89-15,.28-2.3.41-4.61.63-6.92.19-2.06.52-4.12.6-6.19a89,89,0,0,0,.1-9.8c-.28-3.8-1.19-7.57-1.46-11.38a127.31,127.31,0,0,1,.87-25.81,5.49,5.49,0,0,1,.17-.7c.64-2.7,1.26-5.4,1.92-8.08.27-1.07.69-2.1.94-3.16.47-2,.86-4,1.3-6,.28-1.3.3-2.79,1-3.86,1.74-2.78.63-4.87-1.23-6.86a58.65,58.65,0,0,1-6.24-8.13c-3.39-5.18-5.35-11-8-16.55-2-4.2-3.78-8.53-5.57-12.83-1.56-3.72-3.12-7.44-4.47-11.23-.94-2.65-1.55-5.42-2.28-8.14-1-3.57-2.24-7.09-2.78-10.73-.71-4.79-2.36-9.43-2.33-14.33a6.06,6.06,0,0,0-.1-.71c-.56-4.25-1.23-8.49-1.63-12.75-.24-2.54-.08-5.11-.08-7.67a15.58,15.58,0,0,1,3.74-10.36,9.43,9.43,0,0,1,6.38-3.67,31.35,31.35,0,0,1,10.62.71,30.66,30.66,0,0,1,9.77,4.87A111.75,111.75,0,0,1,228.67,126c6.23,7,12.37,14,18.49,21.1,4.79,5.52,9.51,11.09,14.24,16.66,2.23,2.62,4.29,3.26,7.53,2.2,1-.34,2-.81,3.09-1.12,3.43-1,6.85-2.08,10.33-2.89,2.54-.59,5.17-.79,7.76-1.15.87-.12,1.74-.18,2.61-.3a53.21,53.21,0,0,1,5.43-.74c5-.12,10.08-.14,15.12-.09,3.67,0,7.35.2,11,.41,1.75.1,3.48.43,5.22.69,2.43.36,4.87.68,7.27,1.16a20.14,20.14,0,0,1,3.67,1.26c1.85.78,3.62,1.73,5.49,2.45a6.31,6.31,0,0,0,6.88-1.87c.51-.59.95-1.24,1.46-1.83q7.28-8.43,14.58-16.83c6-6.91,11.92-13.9,18.09-20.66a114,114,0,0,1,18-16.16,34,34,0,0,1,8.61-4.3,21.67,21.67,0,0,1,9.18-1.11,12.14,12.14,0,0,1,9.2,5.42,17.35,17.35,0,0,1,2.81,10.32c0,5.49-.8,11-1.27,16.46a25.72,25.72,0,0,1-.64,5.45,32.15,32.15,0,0,0-1,7.06,4.83,4.83,0,0,1-.21.93,34.36,34.36,0,0,0-1.47,5.7c-.23,2.49-1.19,4.72-1.79,7.07-.49,1.91-1,3.81-1.59,5.7-.72,2.33-1.45,4.67-2.27,7s-1.77,4.62-2.67,6.93c-.79,2-1.51,4.07-2.39,6.05-1.87,4.17-3.83,8.31-5.77,12.46-1.57,3.36-3.15,6.73-4.78,10.07a41.24,41.24,0,0,1-7.73,11c-2.19,2.22-2,4.69-1.32,7.27.81,3,2.12,6,2.63,9.07.65,3.95,1.93,7.76,2.37,11.79.27,2.49.69,5,.9,7.54,0,.08,0,.16.05.23,1.25,8.14.69,16.25-.34,24.35-.05.39-.25.75-.32,1.14-.48,2.57-1,5.14-1.4,7.71a5,5,0,0,0,.11,1.43c.55,4,1.42,8,1.61,12,.29,5.9.11,11.83.1,17.74a11.82,11.82,0,0,1-.27,2.14,64.81,64.81,0,0,0-1.59,7.59c-.39,4.36-.87,8.75-.27,13.15.32,2.35.25,4.7,1,7a48,48,0,0,1,1.28,6.72c.6,3.18,1.43,6.34,1.78,9.55.46,4.28.69,8.61.78,12.92.19,8.95.22,17.9.32,26.86,0,2.62.1,5.23.16,8.22a9.44,9.44,0,0,0,1.63-.87c1.7-1.5,3.27-3.15,5-4.56,5.82-4.66,11.65-9.3,17.59-13.8a88.81,88.81,0,0,1,9.58-6.41c4.54-2.58,9-5.34,13.75-7.52,3.84-1.74,7.43-4,11.19-5.93,2.88-1.47,5.87-2.74,8.77-4.2s6-3.26,9.09-4.76c4.19-2.06,8.44-4,12.67-6,1.71-.79,3.4-1.64,5.14-2.34,3.26-1.31,6.47-2.77,9.69-4.15,2.82-1.21,5.61-2.62,8.45-3.84,3.41-1.47,6.77-3.07,10.33-4.22,2.72-.89,5.26-2.32,7.93-3.39,3.22-1.29,6.48-2.47,9.73-3.69,1.81-.68,3.63-1.32,5.43-2,2.29-.91,4.56-1.9,6.85-2.81s4.87-1.85,7.31-2.76c2.1-.79,4.19-1.6,6.31-2.33s4.59-1.38,6.84-2.19c2.5-.91,5-1.95,7.41-3a19.27,19.27,0,0,0,2-1.11c1.66-.6,3.29-1.33,5-1.77a89.94,89.94,0,0,0,10.73-3.93c1.45-.57,3-.93,4.47-1.38,0,2.05.12,4.12-.06,6.16-.2,2.36-.67,4.69-1,7-3.19-.06-5.76,1.89-8.66,2.76-2.25.67-4.39,1.72-6.61,2.5s-4.62,1.42-6.89,2.24-4.59,1.84-6.89,2.73c-2.49,1-5,1.93-7.5,2.84-2.28.83-4.59,1.55-6.86,2.39-2,.76-4,1.57-6.1,2.19-2.53.75-4.91,2-7.37,3-2,.78-4,1.44-6,2.24s-3.9,1.81-5.89,2.59c-2.24.88-4.57,1.53-6.8,2.43-4.65,1.88-9.26,3.87-13.89,5.8-3.51,1.47-7,2.87-10.53,4.4-4.88,2.14-9.72,4.37-14.58,6.56-5.57,2.5-11.17,4.93-16.7,7.5-4.24,2-8.45,4-12.59,6.21-6.82,3.61-13.68,7.17-20.3,11.12-5.49,3.27-10.68,7-15.95,10.65A144.1,144.1,0,0,0,413.7,423c-4.1,3.84-6.08,8.39-5.09,14.08a51.23,51.23,0,0,1,.73,6.65c.21,5.19.43,10.38.38,15.57,0,4.24,1.23,5.44,5.21,4.94,3.66-.46,7.15.56,10.59,1.46a17.92,17.92,0,0,1,5.45,2.66c4.23,2.92,5.55,7.47,6.13,12.25a39.92,39.92,0,0,1,0,6.47c-.1,2,.74,3.14,2.51,4.08,5,2.63,9.44,5.94,12.07,11.15.57,1.12,1,2.32,1.54,3.45,1.08,2.18,2.48,2.75,4.64,2,3.68-1.25,7.42-2.35,11.05-3.76a55.77,55.77,0,0,0,7.55-3.64c4.19-2.4,8.24-5,12.4-7.47q7.68-4.52,15.43-8.88c4.89-2.76,9.8-5.5,14.78-8.1s10.2-5.09,15.28-7.67c2.51-1.28,4.92-2.73,7.43-4,3.8-1.92,7.62-3.79,11.48-5.58,2.7-1.26,5.48-2.36,8.24-3.52s5.68-2.55,8.62-3.52c1.66-.55,3.2-1.83,5.14-1.31-1,2-1.92,4.06-3,6-1.63,2.92-3.36,5.78-5.06,8.66a4.32,4.32,0,0,1-.62.67l-.57.7-.06.05c-2.29.88-4.64,1.62-6.85,2.67C554,471.46,549,474,544,476.52s-9.69,4.93-14.53,7.4c-1.52.67-3.08,1.24-4.53,2-3.27,1.79-6.45,3.73-9.71,5.53-4.73,2.62-9.51,5.15-14.25,7.75-3.71,2-7.44,4-11.08,6.18a39.08,39.08,0,0,1-9.6,3.86c-2.54.71-5,1.61-7.61,2.17a53.42,53.42,0,0,0-7.82,2.75c-3.56,1.38-7.15,2.71-10.6,4.32a8.44,8.44,0,0,0-4.1,4.11,37.81,37.81,0,0,1-4.53,6.85c-2.14,2.7-4.55,5.19-7,7.9.52,1.33,1,2.88,1.71,4.35,2,4.25,4,8.46,6.07,12.67.1.22.49.31.74.46a5.29,5.29,0,0,0,.23,1.62c2.56,5.11,5.35,10.11,7.35,15.49C454.87,572.11,455.21,572.17,455.42,572.27ZM220.8,291.8c0,1.65-.09,2.91,0,4.17.42,5.14-1.23,10.11-1.28,15.21a2.87,2.87,0,0,1-.13.71c-1.18,4.41-.85,8.86-.39,13.31.5,5,1.28,10,1.41,15a81.29,81.29,0,0,1-.95,12.14c-.45,3.69-1.22,7.35-1.86,11-.05.32-.17.62-.22.93-.56,3.78-1.29,7.55-1.63,11.35-.29,3.33-.2,6.71-.17,10.06a84.07,84.07,0,0,0,.35,10.78,86.62,86.62,0,0,1,.67,14.83c-.15,4.14-.53,8.29-.93,12.42-.36,3.79-.89,7.56-1.35,11.35,0,.15-.08.31-.1.46a77.58,77.58,0,0,0-1.48,8.88c-.24,4.31-.12,8.64,0,12.95.06,2.14.66,4.26.76,6.4q.56,11,.88,22a3.62,3.62,0,0,0,1.44,2.75c6.48,5.8,13.13,11.41,20.14,16.56,7.67,5.63,15.43,11.14,23.14,16.73a199,199,0,0,0,20.75,12.92c4.93,2.73,10,5.26,15,7.87a29.68,29.68,0,0,0,4.2,2.06c2.53.85,4.85,0,7-1.35a18,18,0,0,1,11.76-2.79,5.34,5.34,0,0,1,1.39.26,36.13,36.13,0,0,1,4.79,2c2,1.11,3.32.3,4.65-1,.68-.63,1.22-1.42,1.95-2,2.75-2.11,5.58-4.12,8.32-6.25q8.37-6.46,16.66-13c3.09-2.43,6.14-4.92,9.12-7.48,4.5-3.86,9-7.75,13.39-11.71,3.4-3.06,6.72-6.21,10-9.41,2.64-2.58,5.17-5.27,7.72-7.94,2.2-2.31,4.39-4.69,4.74-8a45.74,45.74,0,0,0,.12-7.31c-.35-6-.94-11.92-1.25-17.89-.2-4.07,0-8.16-.16-12.23-.27-5.64.49-11.29-.73-16.93a45.5,45.5,0,0,1-.82-10.24c.08-5.26.56-10.51.87-15.77a1.42,1.42,0,0,1,.05-.47c.92-2.06.66-4.24.69-6.38,0-3.36,0-6.72-.06-10.08a13.38,13.38,0,0,0-.11-1.67c-.53-3.85-1.09-7.69-1.63-11.54q-.64-4.57-1.27-9.15a2,2,0,0,0,0-.24,59.8,59.8,0,0,1-1.74-13c0-2.64-.16-5.28,0-7.91.25-3.73.74-7.44,1.14-11.15.05-.39.33-.76.35-1.14a72.24,72.24,0,0,0,.1-8.32c-.32-3.54-1.29-7-1.57-10.57-.42-5.17-.46-10.37-.67-15.56,0-.67.15-1.49-.87-1.63a2,2,0,0,0-.36.33,17.82,17.82,0,0,1-12.32,8.37c-4.29.88-8.58.17-12.8-.78-.76-1.2-2.2-.66-3.21-1.24a19.29,19.29,0,0,1-9.44-12.92,5.51,5.51,0,0,0-2.94-3.9,2.81,2.81,0,0,1-1.67-2.59,2.85,2.85,0,0,1,2.1-2.62c1.65-.51,3.34-.86,5-1.3,3.54-.91,7.12-1.7,10.6-2.83,1.59-.52,3.21-.66,4.78-1.08,3.11-.82,6.12-2.07,9.24-2.82,4-.95,7.95-1.9,11.84-3.15,1.46-.46,2.12-1,2.05-2.4a61.44,61.44,0,0,0-.67-6.91c-.51-3.12-1.2-6.21-1.88-9.29-.71-3.24-1.39-6.49-2.3-9.68a78.73,78.73,0,0,0-2.75-7.72c-1.42-3.55-2.82-7.12-4.5-10.55A90,90,0,0,0,376,200.6c-2.55-3.52-5.15-7-7.85-10.41-1.32-1.68-3-3.09-4.37-4.73-1.71-2.06-1.67-4.23.21-5.91a15.93,15.93,0,0,0,3.53-4.88,72.27,72.27,0,0,1,4.22-6.87,112.32,112.32,0,0,1,12.49-14.86c5.21-5.49,10-11.41,16.18-15.95,2.36-1.74,4.58-3.39,8-1.7a7.36,7.36,0,0,1,4.28,5.83c.7,4.44,0,8.89-1.11,13.21a67.2,67.2,0,0,1-3,8.65c-1.43,3.51-3,7-4.59,10.41-1.44,3.13-3,6.22-4.51,9.3-1.72,3.45-3.35,7-5.31,10.28a57.74,57.74,0,0,0-4.32,8.61,3.29,3.29,0,0,0,.12,3.16c1.25,2.08,2.35,4.25,3.59,6.34a9.88,9.88,0,0,0,1.52,1.54c1.74-2.81,3.42-5.3,4.88-7.9,2.6-4.65,5.15-9.34,7.59-14.08,1.74-3.4,3.3-6.89,4.87-10.36.87-1.91,1.58-3.89,2.38-5.82a51.86,51.86,0,0,0,2.19-5.67c.68-2.38,2-4.59,2.71-7,1.26-4,2.26-8,3.43-12,.81-2.77,1.83-5.49,1.86-8.44a7.74,7.74,0,0,1,.13-1,84.54,84.54,0,0,0,1.56-9.13c.27-4.3.18-8.64,0-12.95a11.72,11.72,0,0,0-1.14-4.82c-1.1-2.14-2.95-3.65-5.59-3.4a23.4,23.4,0,0,0-3.86.87,13.75,13.75,0,0,0-4,1.3,64.65,64.65,0,0,0-7.4,5.66,190.64,190.64,0,0,0-16,16.2c-5.09,5.78-10.25,11.49-15.36,17.25-4,4.55-8.12,9.08-12.06,13.73-1.92,2.26-4.12,4.37-5.13,7.29a31.45,31.45,0,0,1-1.49,4,3.34,3.34,0,0,1-4.4,1.47,35.76,35.76,0,0,1-3.84-2.22,24.35,24.35,0,0,0-8.33-3.56c-3.67-.81-7.43-1.24-11.14-2a66.63,66.63,0,0,0-10.93-1c-5.91-.16-11.83,0-17.75,0a6.38,6.38,0,0,0-2.15.16c-3.47,1.29-7.21.46-10.79,1.56-2.76.84-5.73,1.23-8.6,1.94a33,33,0,0,0-9.21,4.09,9.31,9.31,0,0,1-3.8,1.5c-3.23.42-5.15-.66-5.35-3.9A9.2,9.2,0,0,0,256,169c-2.77-3.37-5.66-6.63-8.52-9.92-4.7-5.42-9.39-10.85-14.13-16.24q-3.9-4.43-8-8.72c-6-6.4-11.86-12.94-18.89-18.29-3.84-2.93-8-4.91-12.95-4.81a4.62,4.62,0,0,0-3.41,1.72,7.51,7.51,0,0,0-1.89,5.23c0,6.86-.56,13.74.83,20.55.53,2.56.56,5.25,1.34,7.71,1.65,5.25,2.79,10.64,4.72,15.82,1,2.82,2,5.68,3.09,8.51,1.51,4.08,3.3,8,5.09,12a160.39,160.39,0,0,0,7.14,14.39c2.15,3.73,4,7.64,6.1,11.4.94,1.68,1.85,3.48,3.69,4.6a8.79,8.79,0,0,0,2.64-3.89c.16-.58.64-1.23.5-1.7A17.21,17.21,0,0,0,222,204.5c-.86-1.59-1.79-3.14-2.57-4.76-1.78-3.73-3.53-7.48-5.21-11.26s-3.23-7.37-4.73-11.1c-1.07-2.65-2-5.36-2.94-8.06-1.45-4.13-2.79-8.29-4.32-12.39a25.8,25.8,0,0,1-.79-14.83,8.86,8.86,0,0,1,2.2-3.83,4.67,4.67,0,0,1,4.63-1.66,17,17,0,0,1,6.43,3.35,57.63,57.63,0,0,1,6.85,7.65c3.11,3.85,6.37,7.61,9.17,11.68,4.36,6.33,8.38,12.9,12.56,19.35,1.06,1.64,2.27,3,4.57,2.47a11.15,11.15,0,0,1,2.69,0c1.39,1.87,2,3.44.58,5.11-.41.49-.81,1-1.26,1.44a85.66,85.66,0,0,0-13.33,16.83,97.56,97.56,0,0,0-6.79,12.92c-.82,2-1.89,3.9-2.73,5.89a46,46,0,0,0-2.25,6.17c-.72,2.82-1.81,5.52-2.31,8.43-.47,2.76-1.6,5.42-1.7,8.29a3.61,3.61,0,0,1-.16,1.19c-1.3,3.22-1.07,6.71-1.68,10a20.24,20.24,0,0,0-.13,4.54,2.37,2.37,0,0,0,2.33,2.52c1.25.23,2.52.41,3.77.65q3.36.64,6.72,1.36c1,.2,1.95.51,2.94.73q2.72.62,5.46,1.19c2.23.45,4.47.87,6.7,1.31a17.76,17.76,0,0,1,3.91.84c2.43,1.13,5.09,1.11,7.59,1.84,3,.88,6.16,1.5,9.22,2.31a2.73,2.73,0,0,1-.85,5.36c-.48,0-.95-.13-1.43-.17-2.1-.18-2.77.24-3.67,2.2-.69,1.49-1.37,3-2.18,4.42-3.57,6.32-8.83,10.13-16.23,10.67-.63,0-1.27.17-1.89.28a22.58,22.58,0,0,1-14.51-2.3C224.79,294.21,223,293.09,220.8,291.8Zm-29,235.84c-1.27,2.37-1.29,5-1.95,7.38-1,3.55-.28,7,.7,10.12a24.11,24.11,0,0,0,9.91,12.77C205,561,210,563,215,564.91a22.38,22.38,0,0,0,2.65.91c1.81.46,3.69.7,5.46,1.28a32.35,32.35,0,0,0,8.27,1.9c.55,0,1.09.28,1.64.36a107.92,107.92,0,0,0,11.1,1.61c5.75.26,11.52.06,17.28,0a21.16,21.16,0,0,0,2.38-.17q7.5-.81,15-1.66c5.3-.6,10.7.25,16-1.22,2.07-.58,2.34-.58,2-2.82a5.34,5.34,0,0,0-.44-1.84,6.43,6.43,0,0,1-.21-5.1,4.09,4.09,0,0,0-2.34-5.39c-3.55-1.69-7.09-3.41-10.67-5A135.71,135.71,0,0,1,267.44,539q-6.78-4.23-13.48-8.61c-5.59-3.67-11.24-7.27-16.65-11.2-5.58-4-11-8.34-16.28-12.75-3.74-3.12-7.2-6.57-10.7-10-2.59-2.51-5-5.19-7.55-7.76a2.53,2.53,0,0,0-3.39-.52c-5.27,3-8.11,7.79-9,13.48A15.84,15.84,0,0,0,196.07,517c2.31,2,4.51,4.06,6.68,6.19,1.1,1.09,1.17,3.91.46,5.12S201,529.36,200,530c-.35.22-1.11-.2-1.67-.37C196.18,529,194.05,528.34,191.78,527.64ZM445.11,511.1c0-2.76-.13-3.33-1.52-5.6-2.08-3.39-5.29-5.54-8.63-7.42a3.22,3.22,0,0,0-4.59.89,7.55,7.55,0,0,1-2.63,1.93,4.94,4.94,0,0,1-5.25-1.2c-1-1.05-.89-3.18,0-4.85,1.65-3.27,3.72-6.29,5-9.82.89-2.56-.43-7.71-3.21-9.18a15,15,0,0,0-7.36-2.2,6.78,6.78,0,0,1-2.52-.56,2.35,2.35,0,0,0-3,.67,3.47,3.47,0,0,0-.55,2.18,15.16,15.16,0,0,1-1.36,7,24.72,24.72,0,0,1-4,6.31c-1.78,2.17-4,4-5.87,6.08a194.8,194.8,0,0,1-17.07,16.93c-4.17,3.67-8.45,7.2-12.74,10.72-1.77,1.45-3.72,2.67-5.57,4-1.69,1.23-3.39,2.46-5.05,3.74-5.17,4-10.27,8-15.49,11.88-2.93,2.19-6,4.11-9,6.2a2.07,2.07,0,0,0-.67,3.09,19.14,19.14,0,0,1,2.66,7,3.27,3.27,0,0,0,4.27,2.43,21.87,21.87,0,0,1,3.54-.5c3.64-.38,7.33-.52,10.92-1.19a39,39,0,0,1,5.39-.87,6,6,0,0,0,1.14-.31c2-.52,4.08-1.07,6.14-1.55,1.88-.44,3.82-.69,5.67-1.22,3.15-.91,6.26-2,9.38-3,2.94-.94,5.88-1.87,8.81-2.82,2.16-.7,4.29-1.44,6.45-2.13,2.36-.76,4.79-1.32,7.08-2.26,5.12-2.1,10.25-4.19,15.22-6.7a72.16,72.16,0,0,0,14.24-9.86A32,32,0,0,0,442.92,518C444,515.79,445.51,513.6,445.11,511.1ZM227.57,201.45c1.17-1.5,2.29-2.87,3.32-4.3,2-2.82,3.75-6,6.8-7.79a4.34,4.34,0,0,0,2.25-5,8.17,8.17,0,0,0-1.1-2.82q-4.54-7.29-9.21-14.49c-3.87-6-7.38-12.26-12.17-17.63-2.58-2.89-5.05-5.88-8.37-8a2.82,2.82,0,0,0-4.46,2.15,7,7,0,0,0,.06,2.14c.53,2.95,1,5.9,1.72,8.81.77,3.2,1.67,6.37,2.67,9.5s2.3,6.46,3.42,9.7,2,6.72,3.42,9.89C218.78,190.07,221.94,196.32,227.57,201.45Zm157-4.07c1.54.53,2.12-.58,2.57-1.37,1.4-2.49,2.61-5.09,3.92-7.63q2.93-5.67,5.9-11.32c3-5.6,6.46-10.94,7.81-17.31.51-2.42,1.72-4.7,1.8-7.25a3.2,3.2,0,0,1,.23-.91c.92-2.76,1.91-5.45.89-8.48-.79-2.35-2.24-3.24-4.35-2a17.26,17.26,0,0,0-4,3.17c-3.77,4.21-7.45,8.52-11.09,12.84-2.64,3.14-5.25,6.31-7.75,9.56a103.3,103.3,0,0,0-9,13.47c-.57,1.05-.83,2,.11,2.94.71.73,1.33,1.53,2,2.24C377.54,189.25,381.93,192.66,384.6,197.38ZM316.9,549.72c-4.78.16-8.75,1.72-11.19,6.21a7.1,7.1,0,0,0,3,10,16,16,0,0,0,9.39,1.62A26.36,26.36,0,0,0,324,566c4.19-1.69,6.19-6,3.95-9.75C325.5,552.11,322,549.5,316.9,549.72ZM238,276.87c0-3.19-1.92-5.21-4.85-5.07a4.55,4.55,0,0,0-4.21,4.78,5.14,5.14,0,0,0,5.1,4.85C236.59,281.39,238.05,279.71,238,276.87Zm136,.32c0-2.67-.84-3.58-3.49-3.64s-4.48,1.56-4.45,4a4.4,4.4,0,0,0,3.94,4.22C372.38,281.79,374,279.9,374.07,277.19Z"/><path class="cls-2" d="M185.21,565.06c.29,2-1.21,3.35-1.67,5.1a73.32,73.32,0,0,1-2.53,7c-.6,1.58-1.26,3.13-1.8,4.73a11.2,11.2,0,0,0-.32,2.1c-5.81-2.87-11.68-5.61-17.4-8.64a241.68,241.68,0,0,1-26.35-16c-1.53-1.09-2.94-2.34-4.49-3.41s-3.32-2-4.9-3.11a280.47,280.47,0,0,1-28.63-23.64,252.77,252.77,0,0,1-19.77-20.32c-3.19-3.71-6.43-7.37-9.5-11.18-3.41-4.23-6.8-8.48-9.92-12.93-4.4-6.29-8.71-12.66-12.75-19.19-3.92-6.33-7.55-12.85-11.11-19.39-2-3.71-3.62-7.63-5.4-11.46-1.53-3.29-3.07-6.57-4.54-9.88-.89-2-1.68-4-2.48-6.06-1.25-3.23-2.52-6.45-3.7-9.7-.94-2.59-1.75-5.23-2.62-7.84-.3-.9-.65-1.77-.9-2.68-1-3.62-2-7.26-3-10.88-.92-3.2-2.27-6.32-2.8-9.57-.64-3.92-2.15-7.62-2.4-11.64-.15-2.48-1.05-4.9-1.62-7.35a2,2,0,0,1-.06-.23c-.41-3.07-.8-6.14-1.22-9.2-.46-3.38-.94-6.76-1.42-10.15a13.47,13.47,0,0,1-.3-1.64c-.2-9-1.82-17.95-1.54-27,.21-6.55,0-13.11.18-19.67.05-2.38.56-4.74.75-7.12.24-3,.15-5.93.57-8.85.54-3.77.38-7.64,1.64-11.3a2.8,2.8,0,0,0,.08-1,49.44,49.44,0,0,1,1.86-12c.06-.23.06-.48.1-.72.4-2.72.72-5.46,1.26-8.16.37-1.84,1.09-3.61,1.56-5.44.54-2.07.93-4.18,1.46-6.26s1.2-4.26,1.77-6.4c.42-1.61.7-3.26,1.18-4.85.83-2.77,1.75-5.51,2.66-8.26,1.18-3.59,2.3-7.22,3.63-10.76,1.4-3.74,3-7.4,4.53-11.09,1.42-3.43,2.72-6.91,4.29-10.27,3.42-7.31,7.11-14.48,11-21.57s8.17-14.11,12.64-20.91c3.84-5.86,8.12-11.42,12.3-17q3.37-4.55,7.07-8.84c4.63-5.38,9.25-10.79,14.11-16a225.89,225.89,0,0,1,18.78-18c7.23-6.1,14.53-12.13,22.09-17.81a289,289,0,0,1,26.58-17.47c5.47-3.23,11.12-6.19,16.81-9,5.42-2.7,11-5.14,16.53-7.54,4.17-1.81,8.44-3.41,12.68-5.06s8.49-3.29,12.78-4.82c2.35-.83,4.79-1.42,7.19-2.1,3.2-.91,6.39-1.83,9.6-2.69,2.29-.6,4.62-1.07,6.92-1.67,2-.51,3.92-1.11,5.87-1.66a2.92,2.92,0,0,1,.7-.15c4.62-.08,8.9-2.13,13.55-2.18,2,0,4-.76,6.07-1.08,6.39-1,12.84-1.43,19.26-2.14,7.1-.78,14.19-.76,21.29-1A259,259,0,0,1,328,.71c6.76.45,13.5,1.25,20.23,2,2.91.34,5.77,1.08,8.65,1.62a13.75,13.75,0,0,0,1.44.12,31.7,31.7,0,0,1,9,1.8,2.38,2.38,0,0,0,.7.11c3,0,5.86,1.09,8.75,1.86,3.21.85,6.48,1.49,9.68,2.35,2.89.79,5.73,1.77,8.6,2.62,1.71.51,3.46.94,5.18,1.43,1.05.3,2.11.61,3.13,1q7.71,2.94,15.42,5.93c3.19,1.24,6.4,2.44,9.51,3.85,4.51,2,8.88,4.38,13.42,6.32,7,3,13.52,6.93,20.08,10.74a275.92,275.92,0,0,1,29.4,19.81c5.32,4.08,10.5,8.35,15.56,12.75,4.78,4.15,9.3,8.59,13.95,12.9a215.48,215.48,0,0,1,17.49,18.77c3.36,4,6.5,8.09,9.71,12.16,2.19,2.78,4.45,5.52,6.47,8.42,4,5.75,7.91,11.54,11.68,17.42,2.84,4.43,5.58,8.94,8.06,13.59,3.26,6.11,6.25,12.37,9.29,18.6q2.37,4.86,4.51,9.83c1.26,2.95,2.37,5.95,3.52,8.94q1.37,3.54,2.66,7.1c.54,1.47,1,3,1.51,4.46.77,2.3,1.56,4.59,2.3,6.9.87,2.69,1.74,5.39,2.53,8.11.64,2.2,1.22,4.42,1.71,6.66.54,2.46,1.63,4.77,1.73,7.36a21.14,21.14,0,0,0,1,3.88c.59,2.45,1.19,4.89,1.71,7.36.38,1.78.63,3.59.94,5.39.38,2.27.94,4.53,1.1,6.81.58,8.35,2.59,16.56,2.38,25,1.7,10,.68,20.09.92,30.15a9.71,9.71,0,0,1-.1,1.19c-1.49.45-3,.81-4.47,1.38a89.94,89.94,0,0,1-10.73,3.93c-1.7.44-3.33,1.17-5,1.77.13-1.74.31-3.49.37-5.24.16-5.43.46-10.86.35-16.28-.14-7.34-.61-14.68-.95-22a11.61,11.61,0,0,0-.17-1.43c-.24-1.56-.54-3.11-.75-4.67a14.82,14.82,0,0,0-.21-2.86c-1.18-3.34-.34-6.94-1.59-10.33-.65-1.78-.42-3.88-.93-5.84-1-3.9-1.55-7.9-2.38-11.84-.69-3.26-1.44-6.5-2.29-9.72s-1.84-6.33-2.75-9.49c-.41-1.45-.67-2.94-1.16-4.36-.88-2.53-1.9-5-2.81-7.54-1.2-3.34-2.26-6.73-3.55-10q-2.13-5.46-4.58-10.79c-2.53-5.52-5.08-11-7.82-16.46-2.42-4.77-5-9.49-7.71-14.07a283.8,283.8,0,0,0-18.93-28c-4.23-5.4-8.66-10.65-13.11-15.87-2.34-2.75-5-5.25-7.39-7.91A224.35,224.35,0,0,0,490.14,86.6c-5.65-4.65-11.51-9-17.35-13.46-2.69-2-5.46-4-8.32-5.79-5.66-3.58-11.37-7.06-17.11-10.52-3.22-1.94-6.47-3.87-9.82-5.58-3.88-2-7.86-3.8-11.83-5.6-4.94-2.23-9.88-4.45-14.89-6.51-3.5-1.43-7.1-2.59-10.68-3.82-2.67-.91-5.37-1.76-8.07-2.59-2.47-.75-5-1.44-7.44-2.14-3.17-.91-6.35-1.8-9.52-2.7-1.07-.3-2.13-.65-3.22-.87-2.8-.57-5.62-1-8.41-1.62-3.31-.72-6.55-1.86-10-1.78a1.38,1.38,0,0,1-.71-.08c-2.59-1.44-5.57-.84-8.34-1.57s-6-.58-9-1a121.91,121.91,0,0,0-15.76-1.11q-12.82-.25-25.67,0c-5.82.11-11.64.64-17.46,1a2.61,2.61,0,0,0-.94.14c-2,.93-4.06.74-6.13.83a19.67,19.67,0,0,0-2.87.19c-2.55.49-5.07,1.38-7.64,1.53a74.59,74.59,0,0,0-8.19,1.27c-2.11.37-4.23.76-6.32,1.24-2.47.57-4.91,1.24-7.36,1.88-1.15.31-2.28.66-3.43,1l-5.89,1.57c-1.73.48-3.46,1-5.19,1.47-2.63.75-5.29,1.41-7.88,2.28-2.39.8-4.7,1.86-7,2.78-4.27,1.67-8.58,3.26-12.83,5-7.34,3-14.46,6.44-21.51,10.07-7.64,3.93-15.05,8.27-22.27,12.89a231.06,231.06,0,0,0-22,15.77c-4,3.3-8.06,6.59-12,10a282.41,282.41,0,0,0-22.4,21.91c-5.43,5.83-10.48,12-15.37,18.31a233.75,233.75,0,0,0-16.26,23.49c-3.55,5.94-7.07,11.91-10.43,18-2.33,4.18-4.48,8.48-6.5,12.82-2.1,4.51-3.95,9.13-5.89,13.71-.82,1.94-1.63,3.9-2.35,5.89-.85,2.36-1.6,4.75-2.39,7.12-1.27,3.83-2.56,7.64-3.78,11.47-.52,1.64-.86,3.33-1.33,5-.87,3.09-1.9,6.13-2.64,9.25-.91,3.87-1.57,7.8-2.41,11.69-.73,3.43-1.75,6.79-1.84,10.33a8.15,8.15,0,0,1-.18,1.19c-.26,1.47-.55,2.94-.78,4.42-.11.79-.07,1.6-.18,2.39-.55,3.6-1.39,7.18-1.62,10.8-.35,5.49-.74,11-.91,16.48-.29,9.24-.74,18.51.55,27.76.63,4.55.13,9.18,1,13.79.89,4.89.94,9.92,2.07,14.81.56,2.4.71,4.88,1.12,7.31.28,1.73.69,3.43,1,5.15.47,2.34.85,4.71,1.4,7,.88,3.67,1.86,7.32,2.8,11,.39,1.52.69,3.07,1.16,4.57.91,2.91,1.93,5.8,2.89,8.71.8,2.4,1.52,4.84,2.39,7.22.8,2.18,1.78,4.3,2.63,6.47.93,2.33,1.72,4.72,2.71,7,1.75,4,3.5,8.1,5.43,12.06,2.52,5.21,5.08,10.41,7.87,15.47,3,5.43,6.17,10.76,9.45,16,3,4.88,6.22,9.7,9.56,14.38,3.16,4.42,6.43,8.78,10,12.9,5.76,6.7,11.63,13.31,17.73,19.7a270.59,270.59,0,0,0,31.24,27.52c2.73,2.09,5.56,4.06,8.39,6,4.32,3,8.59,6.07,13,8.85,8.16,5.1,16.61,9.69,25.17,14.07C181.26,563.6,183.27,564.26,185.21,565.06Z"/><path class="cls-3" d="M575.28,450.28c-1.94-.52-3.48.76-5.14,1.31-2.94,1-5.76,2.32-8.62,3.52s-5.54,2.26-8.24,3.52c-3.86,1.79-7.68,3.66-11.48,5.58-2.51,1.26-4.92,2.71-7.43,4-5.08,2.58-10.23,5-15.28,7.67s-9.89,5.34-14.78,8.1q-7.76,4.36-15.43,8.88c-4.16,2.45-8.21,5.07-12.4,7.47a55.77,55.77,0,0,1-7.55,3.64c-3.63,1.41-7.37,2.51-11.05,3.76-2.16.74-3.56.17-4.64-2-.56-1.13-1-2.33-1.54-3.45-2.63-5.21-7.08-8.52-12.07-11.15-1.77-.94-2.61-2.09-2.51-4.08a39.92,39.92,0,0,0,0-6.47c-.58-4.78-1.9-9.33-6.13-12.25a17.92,17.92,0,0,0-5.45-2.66c-3.44-.9-6.93-1.92-10.59-1.46-4,.5-5.25-.7-5.21-4.94,0-5.19-.17-10.38-.38-15.57a51.23,51.23,0,0,0-.73-6.65c-1-5.69,1-10.24,5.09-14.08a144.1,144.1,0,0,1,16.88-13.6c5.27-3.62,10.46-7.38,15.95-10.65,6.62-3.95,13.48-7.51,20.3-11.12,4.14-2.19,8.35-4.24,12.59-6.21,5.53-2.57,11.13-5,16.7-7.5,4.86-2.19,9.7-4.42,14.58-6.56,3.49-1.53,7-2.93,10.53-4.4,4.63-1.93,9.24-3.92,13.89-5.8,2.23-.9,4.56-1.55,6.8-2.43,2-.78,3.9-1.78,5.89-2.59s4-1.46,6-2.24c2.46-1,4.84-2.22,7.37-3,2.08-.62,4.08-1.43,6.1-2.19,2.27-.84,4.58-1.56,6.86-2.39,2.51-.91,5-1.87,7.5-2.84,2.3-.89,4.57-1.9,6.89-2.73s4.61-1.44,6.89-2.24,4.36-1.83,6.61-2.5c2.9-.87,5.47-2.82,8.66-2.76-.19,3.33-.38,6.67-.6,10-.09,1.35-.18,2.71-.38,4.05s-.51,2.45-.77,3.67a2.56,2.56,0,0,0-.14.7,30.45,30.45,0,0,1-1.22,9.66c-.68,2.76-.48,5.65-1.63,8.33a23.57,23.57,0,0,0-1,4.88c-.43,2.32-.82,4.65-1.29,7-.22,1.08-.63,2.13-.92,3.2-1.1,4-2.14,8.11-3.28,12.14-.92,3.22-1.85,6.44-3,9.6-1.47,4.15-3.14,8.23-4.7,12.34-1.14,3-2.17,6-3.42,9-1.46,3.46-3.09,6.84-4.68,10.24q-2.13,4.54-4.33,9.07c-1.09,2.25-2.22,4.49-3.36,6.72C575.9,450,575.54,450.12,575.28,450.28Z"/><path class="cls-4" d="M455.42,572.27c-.21-.1-.55-.16-.61-.31-2-5.38-4.79-10.38-7.35-15.49a5.29,5.29,0,0,1-.23-1.62l6.08-3.58a254.22,254.22,0,0,0,24.05-16.08c6.84-5.13,13.33-10.76,19.81-16.36,11.43-9.89,21.5-21.09,31.22-32.63a10.23,10.23,0,0,0,1.1-2.28c4.84-2.47,9.67-5,14.53-7.4s10-5.06,15.09-7.47c2.21-1.05,4.56-1.79,6.85-2.67-1.2,2.08-2.32,4.21-3.63,6.22q-7.61,11.67-16.29,22.55c-4.18,5.25-8.66,10.2-13,15.29-5.42,6.39-11.42,12.18-17.4,18-4.3,4.16-8.9,8-13.47,11.91-3.65,3.1-7.41,6.09-11.24,9-4.27,3.22-8.61,6.36-13,9.35-5.14,3.46-10.37,6.79-15.64,10.05C460.08,570.06,457.71,571.09,455.42,572.27Z"/><path class="cls-4" d="M566,466.33l.57-.7Z"/><path class="cls-5" d="M185.21,565.06c-1.94-.8-4-1.46-5.82-2.42-8.56-4.38-17-9-25.17-14.07-4.45-2.78-8.72-5.86-13-8.85-2.83-2-5.66-3.93-8.39-6a270.59,270.59,0,0,1-31.24-27.52c-6.1-6.39-12-13-17.73-19.7-3.55-4.12-6.82-8.48-10-12.9-3.34-4.68-6.51-9.5-9.56-14.38-3.28-5.25-6.46-10.58-9.45-16C52,438.13,49.48,432.93,47,427.72c-1.93-4-3.68-8-5.43-12.06-1-2.29-1.78-4.68-2.71-7-.85-2.17-1.83-4.29-2.63-6.47-.87-2.38-1.59-4.82-2.39-7.22-1-2.91-2-5.8-2.89-8.71-.47-1.5-.77-3.05-1.16-4.57-.94-3.66-1.92-7.31-2.8-11-.55-2.32-.93-4.69-1.4-7-.34-1.72-.75-3.42-1-5.15-.41-2.43-.56-4.91-1.12-7.31-1.13-4.89-1.18-9.92-2.07-14.81-.83-4.61-.33-9.24-1-13.79-1.29-9.25-.84-18.52-.55-27.76.17-5.48.56-11,.91-16.48.23-3.62,1.07-7.2,1.62-10.8.11-.79.07-1.6.18-2.39.23-1.48.52-2.95.78-4.42a8.15,8.15,0,0,0,.18-1.19c.09-3.54,1.11-6.9,1.84-10.33.84-3.89,1.5-7.82,2.41-11.69.74-3.12,1.77-6.16,2.64-9.25.47-1.65.81-3.34,1.33-5,1.22-3.83,2.51-7.64,3.78-11.47.79-2.37,1.54-4.76,2.39-7.12.72-2,1.53-3.95,2.35-5.89,1.94-4.58,3.79-9.2,5.89-13.71,2-4.34,4.17-8.64,6.5-12.82,3.36-6.05,6.88-12,10.43-18a233.75,233.75,0,0,1,16.26-23.49c4.89-6.31,9.94-12.48,15.37-18.31a282.41,282.41,0,0,1,22.4-21.91c4-3.39,8-6.68,12-10a231.06,231.06,0,0,1,22-15.77c7.22-4.62,14.63-9,22.27-12.89,7-3.63,14.17-7.08,21.51-10.07,4.25-1.73,8.56-3.32,12.83-5,2.35-.92,4.66-2,7-2.78,2.59-.87,5.25-1.53,7.88-2.28,1.73-.49,3.46-1,5.19-1.47l5.89-1.57c1.15-.31,2.28-.66,3.43-1,2.45-.64,4.89-1.31,7.36-1.88,2.09-.48,4.21-.87,6.32-1.24A74.59,74.59,0,0,1,259,23.48c2.57-.15,5.09-1,7.64-1.53a19.67,19.67,0,0,1,2.87-.19c2.07-.09,4.17.1,6.13-.83a2.61,2.61,0,0,1,.94-.14c5.82-.35,11.64-.88,17.46-1q12.83-.24,25.67,0a121.91,121.91,0,0,1,15.76,1.11c3,.45,6.11.26,9,1s5.75.13,8.34,1.57a1.38,1.38,0,0,0,.71.08c3.45-.08,6.69,1.06,10,1.78,2.79.6,5.61,1.05,8.41,1.62,1.09.22,2.15.57,3.22.87,3.17.9,6.35,1.79,9.52,2.7,2.48.7,5,1.39,7.44,2.14,2.7.83,5.4,1.68,8.07,2.59,3.58,1.23,7.18,2.39,10.68,3.82,5,2.06,9.95,4.28,14.89,6.51,4,1.8,8,3.6,11.83,5.6,3.35,1.71,6.6,3.64,9.82,5.58,5.74,3.46,11.45,6.94,17.11,10.52,2.86,1.8,5.63,3.74,8.32,5.79,5.84,4.42,11.7,8.81,17.35,13.46a224.35,224.35,0,0,1,23.07,21.82c2.43,2.66,5,5.16,7.39,7.91,4.45,5.22,8.88,10.47,13.11,15.87a283.8,283.8,0,0,1,18.93,28c2.76,4.58,5.29,9.3,7.71,14.07,2.74,5.42,5.29,10.94,7.82,16.46q2.45,5.32,4.58,10.79c1.29,3.3,2.35,6.69,3.55,10,.91,2.52,1.93,5,2.81,7.54.49,1.42.75,2.91,1.16,4.36.91,3.16,1.91,6.31,2.75,9.49s1.6,6.46,2.29,9.72c.83,3.94,1.38,7.94,2.38,11.84.51,2,.28,4.06.93,5.84,1.25,3.39.41,7,1.59,10.33a14.82,14.82,0,0,1,.21,2.86c.21,1.56.51,3.11.75,4.67a11.61,11.61,0,0,1,.17,1.43c.34,7.33.81,14.67.95,22,.11,5.42-.19,10.85-.35,16.28-.06,1.75-.24,3.5-.37,5.24a19.27,19.27,0,0,1-2,1.11c-2.45,1-4.91,2.07-7.41,3-2.25.81-4.57,1.42-6.84,2.19s-4.21,1.54-6.31,2.33c-2.44.91-4.88,1.81-7.31,2.76s-4.56,1.9-6.85,2.81c-1.8.72-3.62,1.36-5.43,2-3.25,1.22-6.51,2.4-9.73,3.69-2.67,1.07-5.21,2.5-7.93,3.39-3.56,1.15-6.92,2.75-10.33,4.22-2.84,1.22-5.63,2.63-8.45,3.84-3.22,1.38-6.43,2.84-9.69,4.15-1.74.7-3.43,1.55-5.14,2.34-4.23,2-8.48,3.92-12.67,6-3.07,1.5-6,3.23-9.09,4.76s-5.89,2.73-8.77,4.2c-3.76,1.93-7.35,4.19-11.19,5.93-4.77,2.18-9.21,4.94-13.75,7.52a88.81,88.81,0,0,0-9.58,6.41c-5.94,4.5-11.77,9.14-17.59,13.8-1.77,1.41-3.34,3.06-5,4.56a9.44,9.44,0,0,1-1.63.87c-.06-3-.13-5.6-.16-8.22-.1-9-.13-17.91-.32-26.86-.09-4.31-.32-8.64-.78-12.92-.35-3.21-1.18-6.37-1.78-9.55a48,48,0,0,0-1.28-6.72c-.78-2.33-.71-4.68-1-7-.6-4.4-.12-8.79.27-13.15a64.81,64.81,0,0,1,1.59-7.59,11.82,11.82,0,0,0,.27-2.14c0-5.91.19-11.84-.1-17.74-.19-4-1.06-8-1.61-12a5,5,0,0,1-.11-1.43c.44-2.57.92-5.14,1.4-7.71.07-.39.27-.75.32-1.14,1-8.1,1.59-16.21.34-24.35,0-.07,0-.15-.05-.23-.21-2.53-.63-5.05-.9-7.54-.44-4-1.72-7.84-2.37-11.79-.51-3.09-1.82-6-2.63-9.07-.69-2.58-.87-5,1.32-7.27a41.24,41.24,0,0,0,7.73-11c1.63-3.34,3.21-6.71,4.78-10.07,1.94-4.15,3.9-8.29,5.77-12.46.88-2,1.6-4,2.39-6.05.9-2.31,1.84-4.6,2.67-6.93s1.55-4.64,2.27-7c.58-1.89,1.1-3.79,1.59-5.7.6-2.35,1.56-4.58,1.79-7.07a34.36,34.36,0,0,1,1.47-5.7,4.83,4.83,0,0,0,.21-.93,32.15,32.15,0,0,1,1-7.06,25.72,25.72,0,0,0,.64-5.45c.47-5.48,1.23-11,1.27-16.46A17.35,17.35,0,0,0,432,108.32a12.14,12.14,0,0,0-9.2-5.42,21.67,21.67,0,0,0-9.18,1.11,34,34,0,0,0-8.61,4.3,114,114,0,0,0-18,16.16c-6.17,6.76-12.08,13.75-18.09,20.66q-7.31,8.4-14.58,16.83c-.51.59-.95,1.24-1.46,1.83a6.31,6.31,0,0,1-6.88,1.87c-1.87-.72-3.64-1.67-5.49-2.45a20.14,20.14,0,0,0-3.67-1.26c-2.4-.48-4.84-.8-7.27-1.16-1.74-.26-3.47-.59-5.22-.69-3.67-.21-7.35-.37-11-.41-5-.05-10.08,0-15.12.09a53.21,53.21,0,0,0-5.43.74c-.87.12-1.74.18-2.61.3-2.59.36-5.22.56-7.76,1.15-3.48.81-6.9,1.89-10.33,2.89-1,.31-2,.78-3.09,1.12-3.24,1.06-5.3.42-7.53-2.2-4.73-5.57-9.45-11.14-14.24-16.66C241,140.06,234.9,133,228.67,126a111.75,111.75,0,0,0-18.11-16.53,30.66,30.66,0,0,0-9.77-4.87,31.35,31.35,0,0,0-10.62-.71,9.43,9.43,0,0,0-6.38,3.67,15.58,15.58,0,0,0-3.74,10.36c0,2.56-.16,5.13.08,7.67.4,4.26,1.07,8.5,1.63,12.75a6.06,6.06,0,0,1,.1.71c0,4.9,1.62,9.54,2.33,14.33.54,3.64,1.81,7.16,2.78,10.73.73,2.72,1.34,5.49,2.28,8.14,1.35,3.79,2.91,7.51,4.47,11.23,1.79,4.3,3.55,8.63,5.57,12.83,2.65,5.52,4.61,11.37,8,16.55a58.65,58.65,0,0,0,6.24,8.13c1.86,2,3,4.08,1.23,6.86-.68,1.07-.7,2.56-1,3.86-.44,2-.83,4-1.3,6-.25,1.06-.67,2.09-.94,3.16-.66,2.68-1.28,5.38-1.92,8.08a5.49,5.49,0,0,0-.17.7,127.31,127.31,0,0,0-.87,25.81c.27,3.81,1.18,7.58,1.46,11.38a89,89,0,0,1-.1,9.8c-.08,2.07-.41,4.13-.6,6.19-.22,2.31-.35,4.62-.63,6.92-.63,5.06.2,10.07.89,15,.29,2.06.86,4.18,1.25,6.28a44.82,44.82,0,0,1,0,16.65,9.82,9.82,0,0,0-.19,1.43c-.08,3.13-1.48,6-1.9,9-.37,2.67-1.58,5.15-1.46,7.92a19.59,19.59,0,0,1-.53,3.26,32.44,32.44,0,0,0-.38,4.05c-.05,7.35,0,14.71-.07,22.06,0,3.43-.4,6.85-.62,10.27-.06,1-.16,1.91-.17,2.87-.07,4.64-.17,9.27-.16,13.91a77.26,77.26,0,0,1-1.73,15.17,67.24,67.24,0,0,0-1.05,19c.28,3.25,1,6.45,1.42,9.68.28,2.28.34,4.59.51,7.08-2.14.77-4.13,1.43-6.07,2.22a25.55,25.55,0,0,0-7.26,4.37,34.23,34.23,0,0,0-8.87,11c-1.22,2.57-2.45,5.25-2.36,8.27.07,2.15.05,4.31,0,6.47a16.06,16.06,0,0,0,1.63,6.82c.74,1.73,1.57,3.42,2.21,5.18a7.13,7.13,0,0,1-.13,5.37,40.49,40.49,0,0,0-2.45,5.79c-.52,2.12-1.54,4.16-1.27,6.47a22.39,22.39,0,0,1,0,3.84c-.28,4.66,1.29,8.82,3.61,12.71,1.35,2.26,3,4.36,4.52,6.6C187.14,560.66,186.17,562.86,185.21,565.06Z"/><path class="cls-6" d="M220.8,291.8c2.24,1.29,4,2.41,5.84,3.34a22.58,22.58,0,0,0,14.51,2.3c.62-.11,1.26-.23,1.89-.28,7.4-.54,12.66-4.35,16.23-10.67.81-1.43,1.49-2.93,2.18-4.42.9-2,1.57-2.38,3.67-2.2.48,0,.95.17,1.43.17a2.73,2.73,0,0,0,.85-5.36c-3.06-.81-6.18-1.43-9.22-2.31-2.5-.73-5.16-.71-7.59-1.84a17.76,17.76,0,0,0-3.91-.84c-2.23-.44-4.47-.86-6.7-1.31q-2.74-.57-5.46-1.19c-1-.22-2-.53-2.94-.73q-3.36-.72-6.72-1.36c-1.25-.24-2.52-.42-3.77-.65a2.37,2.37,0,0,1-2.33-2.52,20.24,20.24,0,0,1,.13-4.54c.61-3.34.38-6.83,1.68-10a3.61,3.61,0,0,0,.16-1.19c.1-2.87,1.23-5.53,1.7-8.29.5-2.91,1.59-5.61,2.31-8.43a46,46,0,0,1,2.25-6.17c.84-2,1.91-3.89,2.73-5.89a97.56,97.56,0,0,1,6.79-12.92,85.66,85.66,0,0,1,13.33-16.83c.45-.45.85-1,1.26-1.44,1.46-1.67.81-3.24-.58-5.11a11.15,11.15,0,0,0-2.69,0c-2.3.5-3.51-.83-4.57-2.47-4.18-6.45-8.2-13-12.56-19.35-2.8-4.07-6.06-7.83-9.17-11.68a57.63,57.63,0,0,0-6.85-7.65,17,17,0,0,0-6.43-3.35,4.67,4.67,0,0,0-4.63,1.66,8.86,8.86,0,0,0-2.2,3.83,25.8,25.8,0,0,0,.79,14.83c1.53,4.1,2.87,8.26,4.32,12.39.95,2.7,1.87,5.41,2.94,8.06,1.5,3.73,3.09,7.43,4.73,11.1s3.43,7.53,5.21,11.26c.78,1.62,1.71,3.17,2.57,4.76a17.21,17.21,0,0,1,1.42,2.85c.14.47-.34,1.12-.5,1.7a8.79,8.79,0,0,1-2.64,3.89c-1.84-1.12-2.75-2.92-3.69-4.6-2.11-3.76-3.95-7.67-6.1-11.4a160.39,160.39,0,0,1-7.14-14.39c-1.79-4-3.58-7.92-5.09-12-1.06-2.83-2.05-5.69-3.09-8.51-1.93-5.18-3.07-10.57-4.72-15.82-.78-2.46-.81-5.15-1.34-7.71-1.39-6.81-.87-13.69-.83-20.55a7.51,7.51,0,0,1,1.89-5.23,4.62,4.62,0,0,1,3.41-1.72c5-.1,9.11,1.88,12.95,4.81,7,5.35,12.89,11.89,18.89,18.29q4,4.3,8,8.72c4.74,5.39,9.43,10.82,14.13,16.24,2.86,3.29,5.75,6.55,8.52,9.92a9.2,9.2,0,0,1,2.41,5.46c.2,3.24,2.12,4.32,5.35,3.9a9.31,9.31,0,0,0,3.8-1.5,33,33,0,0,1,9.21-4.09c2.87-.71,5.84-1.1,8.6-1.94,3.58-1.1,7.32-.27,10.79-1.56a6.38,6.38,0,0,1,2.15-.16c5.92,0,11.84-.12,17.75,0a66.63,66.63,0,0,1,10.93,1c3.71.71,7.47,1.14,11.14,2a24.35,24.35,0,0,1,8.33,3.56,35.76,35.76,0,0,0,3.84,2.22,3.34,3.34,0,0,0,4.4-1.47,31.45,31.45,0,0,0,1.49-4c1-2.92,3.21-5,5.13-7.29,3.94-4.65,8-9.18,12.06-13.73,5.11-5.76,10.27-11.47,15.36-17.25a190.64,190.64,0,0,1,16-16.2,64.65,64.65,0,0,1,7.4-5.66,13.75,13.75,0,0,1,4-1.3,23.4,23.4,0,0,1,3.86-.87c2.64-.25,4.49,1.26,5.59,3.4a11.72,11.72,0,0,1,1.14,4.82c.14,4.31.23,8.65,0,12.95a84.54,84.54,0,0,1-1.56,9.13,7.74,7.74,0,0,0-.13,1c0,2.95-1.05,5.67-1.86,8.44-1.17,4-2.17,8-3.43,12-.74,2.37-2,4.58-2.71,7a51.86,51.86,0,0,1-2.19,5.67c-.8,1.93-1.51,3.91-2.38,5.82-1.57,3.47-3.13,7-4.87,10.36-2.44,4.74-5,9.43-7.59,14.08-1.46,2.6-3.14,5.09-4.88,7.9a9.88,9.88,0,0,1-1.52-1.54c-1.24-2.09-2.34-4.26-3.59-6.34a3.29,3.29,0,0,1-.12-3.16,57.74,57.74,0,0,1,4.32-8.61c2-3.32,3.59-6.83,5.31-10.28,1.54-3.08,3.07-6.17,4.51-9.3,1.59-3.44,3.16-6.9,4.59-10.41a67.2,67.2,0,0,0,3-8.65c1.08-4.32,1.81-8.77,1.11-13.21a7.36,7.36,0,0,0-4.28-5.83c-3.42-1.69-5.64,0-8,1.7-6.16,4.54-11,10.46-16.18,15.95a112.32,112.32,0,0,0-12.49,14.86,72.27,72.27,0,0,0-4.22,6.87,15.93,15.93,0,0,1-3.53,4.88c-1.88,1.68-1.92,3.85-.21,5.91,1.38,1.64,3.05,3,4.37,4.73,2.7,3.41,5.3,6.89,7.85,10.41a90,90,0,0,1,7.79,13.13c1.68,3.43,3.08,7,4.5,10.55A78.73,78.73,0,0,1,391,232c.91,3.19,1.59,6.44,2.3,9.68.68,3.08,1.37,6.17,1.88,9.29a61.44,61.44,0,0,1,.67,6.91c.07,1.36-.59,1.94-2.05,2.4-3.89,1.25-7.86,2.2-11.84,3.15-3.12.75-6.13,2-9.24,2.82-1.57.42-3.19.56-4.78,1.08-3.48,1.13-7.06,1.92-10.6,2.83-1.67.44-3.36.79-5,1.3a2.85,2.85,0,0,0-2.1,2.62,2.81,2.81,0,0,0,1.67,2.59,5.51,5.51,0,0,1,2.94,3.9,19.29,19.29,0,0,0,9.44,12.92c1,.58,2.45,0,3.21,1.24,4.22.95,8.51,1.66,12.8.78a17.82,17.82,0,0,0,12.32-8.37,2,2,0,0,1,.36-.33c1,.14.84,1,.87,1.63.21,5.19.25,10.39.67,15.56.28,3.54,1.25,7,1.57,10.57a72.24,72.24,0,0,1-.1,8.32c0,.38-.3.75-.35,1.14-.4,3.71-.89,7.42-1.14,11.15-.18,2.63,0,5.27,0,7.91a59.8,59.8,0,0,0,1.74,13,2,2,0,0,1,0,.24q.63,4.57,1.27,9.15c.54,3.85,1.1,7.69,1.63,11.54a13.38,13.38,0,0,1,.11,1.67c0,3.36.1,6.72.06,10.08,0,2.14.23,4.32-.69,6.38a1.42,1.42,0,0,0-.05.47c-.31,5.26-.79,10.51-.87,15.77a45.5,45.5,0,0,0,.82,10.24c1.22,5.64.46,11.29.73,16.93.19,4.07,0,8.16.16,12.23.31,6,.9,11.92,1.25,17.89a45.74,45.74,0,0,1-.12,7.31c-.35,3.34-2.54,5.72-4.74,8-2.55,2.67-5.08,5.36-7.72,7.94-3.27,3.2-6.59,6.35-10,9.41-4.41,4-8.89,7.85-13.39,11.71-3,2.56-6,5.05-9.12,7.48q-8.28,6.57-16.66,13c-2.74,2.13-5.57,4.14-8.32,6.25-.73.56-1.27,1.35-1.95,2-1.33,1.27-2.7,2.08-4.65,1a36.13,36.13,0,0,0-4.79-2,5.34,5.34,0,0,0-1.39-.26,18,18,0,0,0-11.76,2.79c-2.17,1.35-4.49,2.2-7,1.35a29.68,29.68,0,0,1-4.2-2.06c-5-2.61-10.05-5.14-15-7.87a199,199,0,0,1-20.75-12.92c-7.71-5.59-15.47-11.1-23.14-16.73-7-5.15-13.66-10.76-20.14-16.56a3.62,3.62,0,0,1-1.44-2.75q-.32-11-.88-22c-.1-2.14-.7-4.26-.76-6.4-.14-4.31-.26-8.64,0-12.95a77.58,77.58,0,0,1,1.48-8.88c0-.15.08-.31.1-.46.46-3.79,1-7.56,1.35-11.35.4-4.13.78-8.28.93-12.42a86.62,86.62,0,0,0-.67-14.83,84.07,84.07,0,0,1-.35-10.78c0-3.35-.12-6.73.17-10.06.34-3.8,1.07-7.57,1.63-11.35.05-.31.17-.61.22-.93.64-3.66,1.41-7.32,1.86-11a81.29,81.29,0,0,0,.95-12.14c-.13-5-.91-10-1.41-15-.46-4.45-.79-8.9.39-13.31a2.87,2.87,0,0,0,.13-.71c.05-5.1,1.7-10.07,1.28-15.21C220.71,294.71,220.8,293.45,220.8,291.8ZM316,366.92c4.05-.8,8.18-1,12.08-2.8a34.22,34.22,0,0,0,5.37-3c3-2.11,4.71-5.17,6.29-8.33q1.29-2.6,2.64-5.16a21.68,21.68,0,0,1,4.1-5.13c2.39-2.38,3-5.7,3.28-8.92a20.74,20.74,0,0,0-.76-7.05,24.71,24.71,0,0,0-9.59-14.19c-1.91-1.54-2.08-3.41-1.76-5.49a30.41,30.41,0,0,1,1.13-4.82c1.36-4.11-.41-8.05-.49-12.08-2.06-5.62-6.44-8.48-12-9.36-5-.78-9.45.93-13.28,4.25-1.33,1.15-1.35,1.09-2.9.17a21.74,21.74,0,0,0-8-3.24c-5.16-.72-9.34,1.92-12.14,6.67a25.53,25.53,0,0,0-2.76,7.47,21.41,21.41,0,0,0,.05,10.37c.81,3,1,6.15-1.75,8.47a25.09,25.09,0,0,0-8.36,13.62c-.78,3.1-.12,5.85.82,8.6a14.39,14.39,0,0,0,5.44,6.82,17.33,17.33,0,0,1,3.68,3.82,12.35,12.35,0,0,1,1.54,3.65c1.36,4.48,4.5,7.42,8.37,9.67a41.1,41.1,0,0,0,9.88,4.24C309.87,366,312.93,366.24,316,366.92Z"/><path class="cls-7" d="M191.78,527.64c2.27.7,4.4,1.36,6.53,2,.56.17,1.32.59,1.67.37,1-.65,2.49-.47,3.23-1.74s.64-4-.46-5.12c-2.17-2.13-4.37-4.23-6.68-6.19a15.84,15.84,0,0,1-5.72-15.33c.93-5.69,3.77-10.5,9-13.48a2.53,2.53,0,0,1,3.39.52c2.53,2.57,5,5.25,7.55,7.76,3.5,3.39,7,6.84,10.7,10,5.29,4.41,10.7,8.7,16.28,12.75,5.41,3.93,11.06,7.53,16.65,11.2q6.69,4.39,13.48,8.61a135.71,135.71,0,0,0,15.69,8.84c3.58,1.61,7.12,3.33,10.67,5a4.09,4.09,0,0,1,2.34,5.39,6.43,6.43,0,0,0,.21,5.1,5.34,5.34,0,0,1,.44,1.84c.31,2.24,0,2.24-2,2.82-5.27,1.47-10.67.62-16,1.22q-7.5.84-15,1.66a21.16,21.16,0,0,1-2.38.17c-5.76,0-11.53.22-17.28,0a107.92,107.92,0,0,1-11.1-1.61c-.55-.08-1.09-.33-1.64-.36a32.35,32.35,0,0,1-8.27-1.9c-1.77-.58-3.65-.82-5.46-1.28a22.38,22.38,0,0,1-2.65-.91C210,563,205,561,200.44,557.91a24.11,24.11,0,0,1-9.91-12.77c-1-3.17-1.67-6.57-.7-10.12C190.49,532.61,190.51,530,191.78,527.64Z"/><path class="cls-7" d="M445.11,511.1c.4,2.5-1.15,4.69-2.19,6.91a32,32,0,0,1-8.13,10.85,72.16,72.16,0,0,1-14.24,9.86c-5,2.51-10.1,4.6-15.22,6.7-2.29.94-4.72,1.5-7.08,2.26-2.16.69-4.29,1.43-6.45,2.13-2.93,1-5.87,1.88-8.81,2.82-3.12,1-6.23,2.07-9.38,3-1.85.53-3.79.78-5.67,1.22-2.06.48-4.1,1-6.14,1.55a6,6,0,0,1-1.14.31,39,39,0,0,0-5.39.87c-3.59.67-7.28.81-10.92,1.19a21.87,21.87,0,0,0-3.54.5,3.27,3.27,0,0,1-4.27-2.43,19.14,19.14,0,0,0-2.66-7,2.07,2.07,0,0,1,.67-3.09c3-2.09,6.11-4,9-6.2,5.22-3.89,10.32-7.92,15.49-11.88,1.66-1.28,3.36-2.51,5.05-3.74,1.85-1.35,3.8-2.57,5.57-4,4.29-3.52,8.57-7.05,12.74-10.72a194.8,194.8,0,0,0,17.07-16.93c1.87-2.11,4.09-3.91,5.87-6.08a24.72,24.72,0,0,0,4-6.31,15.16,15.16,0,0,0,1.36-7,3.47,3.47,0,0,1,.55-2.18,2.35,2.35,0,0,1,3-.67,6.78,6.78,0,0,0,2.52.56,15,15,0,0,1,7.36,2.2c2.78,1.47,4.1,6.62,3.21,9.18-1.24,3.53-3.31,6.55-5,9.82-.85,1.67-.92,3.8,0,4.85a4.94,4.94,0,0,0,5.25,1.2,7.55,7.55,0,0,0,2.63-1.93,3.22,3.22,0,0,1,4.59-.89c3.34,1.88,6.55,4,8.63,7.42C445,507.77,445.12,508.34,445.11,511.1Z"/><path class="cls-8" d="M529.49,483.92a10.23,10.23,0,0,1-1.1,2.28c-9.72,11.54-19.79,22.74-31.22,32.63-6.48,5.6-13,11.23-19.81,16.36a254.22,254.22,0,0,1-24.05,16.08l-6.08,3.58c-.25-.15-.64-.24-.74-.46-2.05-4.21-4.09-8.42-6.07-12.67-.69-1.47-1.19-3-1.71-4.35,2.4-2.71,4.81-5.2,7-7.9a37.81,37.81,0,0,0,4.53-6.85,8.44,8.44,0,0,1,4.1-4.11c3.45-1.61,7-2.94,10.6-4.32a53.42,53.42,0,0,1,7.82-2.75c2.6-.56,5.07-1.46,7.61-2.17a39.08,39.08,0,0,0,9.6-3.86c3.64-2.15,7.37-4.15,11.08-6.18,4.74-2.6,9.52-5.13,14.25-7.75,3.26-1.8,6.44-3.74,9.71-5.53C526.41,485.16,528,484.59,529.49,483.92Z"/><path class="cls-9" d="M227.57,201.45c-5.63-5.13-8.79-11.38-11.65-17.77-1.41-3.17-2.27-6.59-3.42-9.89s-2.37-6.44-3.42-9.7-1.9-6.3-2.67-9.5c-.7-2.91-1.19-5.86-1.72-8.81a7,7,0,0,1-.06-2.14,2.82,2.82,0,0,1,4.46-2.15c3.32,2.09,5.79,5.08,8.37,8,4.79,5.37,8.3,11.62,12.17,17.63q4.65,7.2,9.21,14.49a8.17,8.17,0,0,1,1.1,2.82,4.34,4.34,0,0,1-2.25,5c-3.05,1.84-4.79,5-6.8,7.79C229.86,198.58,228.74,200,227.57,201.45Z"/><path class="cls-10" d="M384.6,197.38c-2.67-4.72-7.06-8.13-10.91-12-.71-.71-1.33-1.51-2-2.24-.94-1-.68-1.89-.11-2.94a103.3,103.3,0,0,1,9-13.47c2.5-3.25,5.11-6.42,7.75-9.56,3.64-4.32,7.32-8.63,11.09-12.84a17.26,17.26,0,0,1,4-3.17c2.11-1.26,3.56-.37,4.35,2,1,3,0,5.72-.89,8.48a3.2,3.2,0,0,0-.23.91c-.08,2.55-1.29,4.83-1.8,7.25-1.35,6.37-4.85,11.71-7.81,17.31q-3,5.66-5.9,11.32c-1.31,2.54-2.52,5.14-3.92,7.63C386.72,196.8,386.14,197.91,384.6,197.38Z"/><path class="cls-11" d="M316.9,549.72c5.09-.22,8.6,2.39,11,6.49,2.24,3.76.24,8.06-3.95,9.75a26.36,26.36,0,0,1-5.86,1.62,16,16,0,0,1-9.39-1.62,7.1,7.1,0,0,1-3-10C308.15,551.44,312.12,549.88,316.9,549.72Z"/><path class="cls-12" d="M238,276.87c0,2.84-1.45,4.52-4,4.56a5.14,5.14,0,0,1-5.1-4.85,4.55,4.55,0,0,1,4.21-4.78C236.12,271.66,238,273.68,238,276.87Z"/><path class="cls-13" d="M374.07,277.19c0,2.71-1.69,4.6-4,4.57a4.4,4.4,0,0,1-3.94-4.22c0-2.43,1.77-4.05,4.45-4S374.11,274.52,374.07,277.19Z"/><path class="cls-14" d="M316,366.92c-3.08-.68-6.14-.89-9.17-1.73A41.1,41.1,0,0,1,297,361c-3.87-2.25-7-5.19-8.37-9.67a12.35,12.35,0,0,0-1.54-3.65,17.33,17.33,0,0,0-3.68-3.82,14.39,14.39,0,0,1-5.44-6.82c-.94-2.75-1.6-5.5-.82-8.6a25.09,25.09,0,0,1,8.36-13.62c2.78-2.32,2.56-5.43,1.75-8.47a21.41,21.41,0,0,1-.05-10.37,25.53,25.53,0,0,1,2.76-7.47c2.8-4.75,7-7.39,12.14-6.67a21.74,21.74,0,0,1,8,3.24c1.55.92,1.57,1,2.9-.17,3.83-3.32,8.3-5,13.28-4.25,5.59.88,10,3.74,12,9.36.08,4,1.85,8,.49,12.08a30.41,30.41,0,0,0-1.13,4.82c-.32,2.08-.15,3.95,1.76,5.49A24.71,24.71,0,0,1,349,326.55a20.74,20.74,0,0,1,.76,7.05c-.32,3.22-.89,6.54-3.28,8.92a21.68,21.68,0,0,0-4.1,5.13q-1.35,2.57-2.64,5.16c-1.58,3.16-3.32,6.22-6.29,8.33a34.22,34.22,0,0,1-5.37,3C324.19,365.94,320.06,366.12,316,366.92Zm-2.16-38.7c.91,1,1.83,1.89,2.63,2.88,1.64,2,3.07,4.21,4.85,6.09a16,16,0,0,0,10.82,5.44,13.27,13.27,0,0,0,5.53-1.21c3.58-1.34,6.69-5.75,6.92-9.56a15,15,0,0,0-1.79-7.25c-1.91-4.17-5.29-6.69-9.4-8.46a18.79,18.79,0,0,1-3.9-2.22,2.92,2.92,0,0,1-1.13-3.32,27.45,27.45,0,0,1,1.18-3c1.13-2.47,2.45-4.88,3.41-7.42,1.11-2.91,1.29-5.91-.57-8.68a9.21,9.21,0,0,0-5.25-4.08c-4.77-1.34-7.32-.61-10.26,3.35-1.7,2.29-2.8,2.8-5.27,2a9.3,9.3,0,0,1-2.68-1.69,12.32,12.32,0,0,0-10.76-2.21,3.74,3.74,0,0,0-1.2.69,9.2,9.2,0,0,0-4.12,7.76,24.74,24.74,0,0,0,.24,6.21c.61,2.72,1.83,5.3,2.57,8a4.16,4.16,0,0,1-.37,2.94,12.43,12.43,0,0,1-2.7,2.87c-3.56,3.07-7.35,5.8-9.24,10.48a11.06,11.06,0,0,0-.44,7.37c1.19,4.05,4.5,6.45,8.6,7.16a16.07,16.07,0,0,0,8.45-.7,17.42,17.42,0,0,0,9-7.52C310.32,332.13,311.37,329.89,313.85,328.22Zm21,20.41c-2-.33-3.88-.53-5.7-1a25,25,0,0,1-4.95-1.65,23.25,23.25,0,0,1-8.77-7c-.74-1-1.5-.76-2.23-.16s-1.42,1.43-2.16,2.11c-3.53,3.24-7,6.62-12.19,7a25.07,25.07,0,0,0-4.14,1,7.58,7.58,0,0,0,1.93,4c3.08,4.3,7.76,5.86,12.54,6.64,3.89.64,7.95.31,11.93.27a14.32,14.32,0,0,0,8.48-3.18A12.51,12.51,0,0,0,334.9,348.63Z"/><path class="cls-15" d="M313.85,328.22c-2.48,1.67-3.53,3.91-4.83,6a17.42,17.42,0,0,1-9,7.52,16.07,16.07,0,0,1-8.45.7c-4.1-.71-7.41-3.11-8.6-7.16a11.06,11.06,0,0,1,.44-7.37c1.89-4.68,5.68-7.41,9.24-10.48a12.43,12.43,0,0,0,2.7-2.87,4.16,4.16,0,0,0,.37-2.94c-.74-2.71-2-5.29-2.57-8a24.74,24.74,0,0,1-.24-6.21,9.2,9.2,0,0,1,4.12-7.76,3.74,3.74,0,0,1,1.2-.69,12.32,12.32,0,0,1,10.76,2.21,9.3,9.3,0,0,0,2.68,1.69c2.47.76,3.57.25,5.27-2,2.94-4,5.49-4.69,10.26-3.35a9.21,9.21,0,0,1,5.25,4.08c1.86,2.77,1.68,5.77.57,8.68-1,2.54-2.28,4.95-3.41,7.42a27.45,27.45,0,0,0-1.18,3,2.92,2.92,0,0,0,1.13,3.32,18.79,18.79,0,0,0,3.9,2.22c4.11,1.77,7.49,4.29,9.4,8.46a15,15,0,0,1,1.79,7.25c-.23,3.81-3.34,8.22-6.92,9.56a13.27,13.27,0,0,1-5.53,1.21,16,16,0,0,1-10.82-5.44c-1.78-1.88-3.21-4.08-4.85-6.09C315.68,330.11,314.76,329.21,313.85,328.22ZM308,306.35a21.15,21.15,0,0,0-.86-2.79c-.78-1.79-1.5-3.64-3.11-4.91s-3.28-1.1-4.28.85a4.61,4.61,0,0,0-.56,2.69,10.44,10.44,0,0,0,4.75,7.43,2.23,2.23,0,0,0,1.49.34C306.61,309.73,308,307.91,308,306.35Zm10.44,1.58c.36.11.8.22,1.24.37a2.37,2.37,0,0,0,3.13-.94,19.59,19.59,0,0,0,2.53-7.48,3,3,0,0,0-2-2.89,2.58,2.58,0,0,0-3.07,1.19C318.68,301.17,317.29,304.25,318.44,307.93Z"/><path class="cls-16" d="M334.9,348.63a12.51,12.51,0,0,1-5.26,8,14.32,14.32,0,0,1-8.48,3.18c-4,0-8,.37-11.93-.27-4.78-.78-9.46-2.34-12.54-6.64a7.58,7.58,0,0,1-1.93-4,25.07,25.07,0,0,1,4.14-1c5.23-.34,8.66-3.72,12.19-7,.74-.68,1.39-1.48,2.16-2.11s1.49-.83,2.23.16a23.25,23.25,0,0,0,8.77,7,25,25,0,0,0,4.95,1.65C331,348.1,332.91,348.3,334.9,348.63Z"/><path class="cls-17" d="M308,306.35c-.05,1.56-1.39,3.38-2.57,3.61a2.23,2.23,0,0,1-1.49-.34,10.44,10.44,0,0,1-4.75-7.43,4.61,4.61,0,0,1,.56-2.69c1-1.95,2.56-2.2,4.28-.85s2.33,3.12,3.11,4.91A21.15,21.15,0,0,1,308,306.35Z"/><path class="cls-18" d="M318.44,307.93c-1.15-3.68.24-6.76,1.81-9.75a2.58,2.58,0,0,1,3.07-1.19,3,3,0,0,1,2,2.89,19.59,19.59,0,0,1-2.53,7.48,2.37,2.37,0,0,1-3.13.94C319.24,308.15,318.8,308,318.44,307.93Z"/></g></g></svg>