<svg width="512" height="512" viewBox="0 0 512 512" fill="none" xmlns="http://www.w3.org/2000/svg">
<path d="M512 256C512 114.615 397.385 0 256 0C114.615 0 0 114.615 0 256C0 397.385 114.615 512 256 512C397.385 512 512 397.385 512 256Z" fill="url(#paint0_radial_139_199)"/>
<path d="M425.359 190.078C424.286 196.345 423.032 199.383 421.563 202.9L421.559 202.908C419.974 206.72 418.177 211.047 416.547 219.631C415.899 223.066 415.575 225.586 415.293 227.808L415.276 227.945L415.258 228.075C414.806 231.634 414.502 234.03 413.057 238.295C411.883 241.779 409.922 247.591 405.196 253.851C401.382 258.917 394.994 267.396 386.471 268.414C385.733 268.462 384.183 268.54 383.553 268.218C359.374 255.871 338.599 246.747 331.408 244.7C323.043 242.331 324.114 224.094 325.061 208.006C325.486 200.815 325.887 194.016 325.549 188.194C324.375 167.883 320.778 145.651 303.09 134.813C292.53 128.345 278.907 126.448 265.891 126.421C268.304 125.273 270.994 123.714 273.925 122.007L274.015 121.956C281.679 117.517 291.191 112.008 300.644 111.039C303.736 110.734 306.774 110.376 309.769 110.045C328.825 107.887 345.288 106.033 362.655 111.979C370.526 114.679 386.673 123.687 390.843 132.052C393.775 137.955 398.728 142.559 408.609 151.744C413.754 156.529 417.143 159.312 419.622 161.348L419.737 161.441C423.22 164.306 423.907 164.905 424.941 167.023C428.145 173.548 426.979 180.478 425.359 190.078V190.078Z" fill="white"/>
<path d="M336.905 273.406C338.298 273.881 338.82 275.573 338.02 276.807C335.505 280.685 332.635 285.905 329.218 292.237C327.556 295.336 325.98 298.26 324.658 300.542C319.973 308.587 319.592 315.359 319.294 320.793C318.973 326.478 318.685 329.088 315.289 331.354C312.484 333.234 309.614 333.86 289.704 336.892C286.231 337.43 284.688 338.103 283.333 338.695C283.116 338.789 282.9 338.882 282.673 338.975C281.294 339.542 279.922 338.354 279.998 336.864C280.14 334.088 280.229 330.67 280.241 326.438V325.575C280.345 321.673 280.181 318.508 280.041 315.955C279.779 310.872 279.746 308.731 281.101 306.518C282.764 303.845 284.063 303.028 286.194 301.677C289.172 299.806 293.255 297.23 299.297 288.925C302.51 284.528 303.222 282.142 303.668 280.081C303.858 279.227 303.928 278.906 306.401 277.032C309.015 275.048 316.979 269.015 327.174 270.728C329.872 271.186 333.278 272.168 336.905 273.406V273.406Z" fill="white"/>
<path d="M258.188 365.36C257.753 365.925 257.248 366.186 256.515 366.224C254.433 366.308 252.971 365.796 252.004 364.629C249.95 362.13 250.227 357.108 250.706 354.173L259.124 351.928C259.784 356.385 260.095 362.877 258.188 365.36V365.36Z" fill="white"/>
<path d="M258.867 334.987C258.727 336.215 258.573 337.597 258.58 339.042C258.589 339.581 258.596 340.123 258.613 340.652C258.63 342.027 258.683 344.212 258.493 345.206C255.863 346.163 253.617 346.163 250.666 346.113C250.622 345.259 250.676 343.988 250.71 343.128C250.726 342.465 250.763 341.806 250.77 341.177C250.78 340.481 250.77 339.792 250.77 339.106C250.76 337.486 250.736 334.833 251.134 334.05C251.928 333.936 252.737 333.762 253.607 333.561C255.347 333.187 257.619 332.708 259.065 332.926C259.041 333.488 258.954 334.324 258.867 334.987Z" fill="white"/>
<path d="M243.291 362.763C242.883 367.078 241.551 372.414 237.503 373.226C235.682 373.599 234.802 373.052 234.247 372.529C231.513 369.997 231.078 362.345 231.459 356.869C233.28 356.903 235.666 356.494 238.493 355.946C240.216 355.604 241.933 355.223 243.298 354.908C243.455 356.936 243.569 359.827 243.291 362.763V362.763Z" fill="white"/>
<path d="M241.38 347.277L232.248 350.479C232.71 346.935 233.329 341.946 233.547 338.63C233.704 336.298 234.34 335.582 234.52 335.428C234.58 335.375 234.704 335.264 235.042 335.264C235.096 335.264 235.146 335.274 235.206 335.274L235.397 335.301L241.169 334.986C241.413 337.7 241.413 343.656 241.38 347.277V347.277Z" fill="white"/>
<path d="M226.623 344.435C226.108 345.811 225.499 349.702 225.117 352.443L213.677 352.095C214.323 348.551 215.216 344.947 216.2 342.073C217.194 339.219 218.264 337.077 219.248 336.475C220.396 335.786 222.922 335.632 224.471 336.953C226.988 339.098 227.684 341.554 226.623 344.435V344.435Z" fill="white"/>
<path d="M222.353 379.451C221.466 380.664 220.482 381.28 219.261 381.409C218.017 381.548 217.05 381.27 216.276 380.545C212.683 377.229 212.977 366.366 213.108 361.141C217.852 360.061 222.972 359.14 225.401 359C225.766 363.374 225.87 374.662 222.353 379.451Z" fill="white"/>
<path d="M207.423 351.793C206.864 353.282 206.325 354.691 205.917 355.935C204.585 356.354 200.52 355.989 196.367 355.072L199.221 337.07C203.913 335.825 209.353 335.424 210.669 336.819C212.402 338.659 208.922 347.868 207.423 351.793V351.793Z" fill="white"/>
<path d="M202.242 382.202C200.023 384.936 196.697 386.215 192.056 386.166C188.844 386.11 187.696 384.891 187.121 383.978C184.544 379.896 187.067 370.276 189.593 364.129L205.089 365.059C205.246 366.142 205.377 367.452 205.437 368.883C205.608 373.254 205.059 378.702 202.242 382.202Z" fill="white"/>
<path d="M330.301 251.539C316.35 247.588 317.552 227.189 318.713 207.474C319.124 200.497 319.512 193.902 319.195 188.508C318.124 170.054 315.022 149.957 300.179 140.86C284.215 131.097 258.098 133.322 241.985 135.372C241.97 135.374 241.956 135.384 241.941 135.385C241.935 135.385 241.929 135.386 241.923 135.388C236.021 137.177 230.5 138.336 226.219 138.109C216.713 137.617 209.315 133.615 202.8 130.102C197.717 127.348 193.283 124.969 189.107 124.969C188.886 124.969 188.656 124.969 188.428 124.979C175.937 125.789 170.195 128.84 164.978 133.495C163.666 134.656 162.067 138.018 156.83 153.11C154.187 160.735 153.698 164.908 153.207 168.963C152.765 172.668 152.316 176.479 150.346 182.164C148.974 186.086 147.963 189.469 146.983 192.731C144.4 201.397 142.359 208.224 136.225 216.341C135.505 217.302 134.612 218.714 133.581 220.323C132.19 222.515 130.47 225.239 128.198 228.391C126.595 230.612 122.914 238.928 123.115 241.461C123.416 245.493 124.728 247.996 126.227 250.917C127.719 253.798 129.419 257.06 129.73 261.564L129.78 262.294C130.329 269.438 129.308 273.021 115.72 285.161C107.032 292.935 100.859 300.426 96.6965 305.921C96.329 306.406 96.8069 307.126 97.4133 307.078C97.5536 307.058 97.6943 307.048 97.825 307.048C98.0858 307.028 98.3467 307.018 98.6045 307.018C98.8653 307.018 99.1266 307.028 99.3839 307.038C99.6452 307.048 99.8959 307.068 100.154 307.108C103.44 307.483 106.643 308.873 108.956 311.268C109.358 311.684 109.983 311.797 110.52 311.582C112.732 310.662 115.164 310.813 117.487 311.03C120.25 311.287 123.04 312.093 124.944 313.807C125.669 314.46 126.663 314.806 127.619 314.61C129.782 314.166 132.036 314.24 134.13 315.002C135.684 315.581 137.016 316.46 138.108 317.562C139.137 318.601 140.878 318.808 142.149 318.084C142.657 317.795 143.204 317.546 143.797 317.344C146.748 316.344 150.011 316.913 152.875 317.943C154.287 318.452 155.766 318.904 157.038 319.753C159.138 321.151 160.503 323.132 161.42 325.363C162.123 327.076 164.466 327.662 165.97 326.58C167.776 325.28 169.267 325.113 170.77 325.78C171.392 326.06 171.878 326.416 172.25 326.845C173.327 328.087 175.057 329.325 176.657 328.947C181.113 327.893 186.507 328.592 190.466 330.712C191.927 331.481 193.365 332.651 194.415 334.423C194.417 334.425 194.417 334.425 194.418 334.428C194.419 334.435 194.428 334.431 194.429 334.424L194.549 333.637C194.604 333.281 194.857 332.986 195.201 332.88L196.161 332.582C198.423 331.863 209.95 328.54 214.434 333.262C214.628 333.456 214.966 333.475 215.152 333.272C215.763 332.604 216.259 332.236 216.576 332.054C219.497 330.284 224.502 330.173 227.835 333.024C228.505 333.587 229.593 333.383 230.098 332.668C230.409 332.227 230.762 331.839 231.158 331.505C232.329 330.495 233.811 330.013 235.451 330.113L241.785 329.772C243.378 329.684 248.326 329.348 249.887 329.017C250.005 328.993 250.127 328.971 250.251 328.952C250.91 328.852 251.693 328.681 252.513 328.51C255.585 327.841 259.068 327.088 261.929 328.41C264.679 329.681 264.332 332.813 264 335.574C263.87 336.695 263.729 337.866 263.739 338.977C263.759 339.496 263.769 340.017 263.779 340.55C263.82 342.93 263.87 345.129 263.399 346.818C263.398 346.822 263.398 346.825 263.398 346.829C263.398 346.832 263.398 346.835 263.399 346.838L263.689 348.145C263.992 349.431 265.365 350.156 266.489 349.462C268.628 348.14 270.831 346.472 271.534 345.484C271.599 345.393 271.649 345.293 271.687 345.189C271.786 344.923 271.957 344.373 272.148 343.263C272.54 340.911 272.978 336.129 273.018 326.419C273.018 325.907 273.018 325.539 273.028 325.368C273.108 321.764 272.968 318.873 272.827 316.32C272.566 311.057 272.355 306.914 274.969 302.698C277.512 298.596 279.981 297.043 282.354 295.541C285.114 293.811 288.229 291.847 293.473 284.652C296.046 281.109 296.364 279.68 296.615 278.539C297.184 275.866 298.067 274.256 302.039 271.254C305.271 268.812 315.109 261.357 328.38 263.589C332.732 264.328 339.786 266.649 346.749 269.392C346.753 269.393 346.756 269.394 346.76 269.394C346.763 269.394 346.763 269.395 346.767 269.395C347.017 269.469 347.275 269.555 347.512 269.676C347.62 269.732 347.731 269.788 347.846 269.834C353.865 272.238 359.723 274.912 363.6 277.089C364.704 277.709 366.108 277.34 366.912 276.362C368.11 274.91 369.41 274.024 370.803 273.189C371.36 272.847 371.792 272.59 372.203 272.238C373.509 271.129 373.495 268.803 371.973 268.02C353.444 258.502 336.075 253.182 330.301 251.539V251.539ZM197.365 255.832C193.052 274.718 163.797 295.474 150.5 295.474H150.238C150.028 295.464 149.797 295.444 149.549 295.404C149.298 295.363 149.027 295.303 148.739 295.223C148.599 295.183 148.448 295.132 148.298 295.092C145.885 294.333 142.542 292.479 140.013 289.989C138.273 288.28 136.901 286.265 136.469 284.094C136.389 283.712 136.309 283.334 136.228 282.953C135.509 279.74 134.615 275.728 137.45 269.163C137.841 268.283 138.189 267.46 138.51 266.711C138.611 266.46 138.721 266.209 138.822 265.971C139.123 265.262 139.39 264.609 139.631 264.02C140.033 263.02 140.361 262.17 140.632 261.447C140.742 261.166 140.843 260.895 140.933 260.647C141.743 258.375 141.843 257.526 141.953 256.645C142.054 255.956 142.154 255.113 142.435 253.912C143.265 250.368 143.697 247.367 144.078 244.693C144.758 239.888 145.35 235.736 147.94 231.924C148.381 231.275 148.87 230.683 149.422 230.164C149.613 229.983 149.794 229.813 149.991 229.642C150.192 229.471 150.392 229.321 150.59 229.171C151.219 228.729 151.891 228.341 152.621 228.009C152.872 227.899 153.123 227.788 153.37 227.698C153.882 227.507 154.421 227.347 154.983 227.206C157.366 226.627 160.176 226.537 163.409 226.945C166.943 227.226 170.215 227.895 173.116 228.705C175.539 229.375 177.7 230.158 179.53 230.887C179.721 230.957 179.902 231.028 180.082 231.108C180.434 231.248 180.772 231.389 181.103 231.54C181.605 231.75 182.064 231.951 182.495 232.138C183.064 232.4 183.586 232.63 184.048 232.838L184.479 233.038C186.52 233.969 188.274 234.989 189.773 236.06C190.513 236.602 191.205 237.151 191.824 237.71C192.035 237.891 192.236 238.081 192.423 238.282C192.624 238.473 192.815 238.663 192.992 238.854C198.613 244.773 198.336 251.619 197.365 255.832V255.832ZM210.924 184.255L210.355 187.678C209.044 195.395 206.032 205.972 194.923 208.695C184.235 211.309 181.702 211.868 174.096 212.209C173.926 212.229 173.745 212.229 173.564 212.229C168.01 212.229 157.322 208.726 155.428 200.019C154.217 194.414 156.69 190.352 160.762 183.616C161.441 182.505 162.174 181.314 162.954 179.982C168.338 170.914 170.459 164.349 172.162 159.086C173.822 153.943 175.204 149.69 178.758 146.166C179.577 145.347 180.508 144.573 181.589 143.834C182.278 143.362 183.001 142.944 183.76 142.553C184.771 142.051 185.831 141.612 186.942 141.261C189.415 140.471 192.085 140.07 194.759 140.07C199.942 140.07 205.118 141.562 208.809 144.523C210.469 145.855 212.831 148.516 214.203 156.362C214.909 160.404 213.708 167.833 210.924 184.255V184.255ZM290.177 206.213C286.352 212.778 284.261 216.391 280.958 219.102C274.403 224.486 266.757 225.848 260.463 225.848C255.939 225.848 252.098 225.148 249.836 224.737C243.331 223.545 231.222 221.344 227.189 211.787C226.4 209.897 226.39 208.695 226.39 207.173C226.39 205.67 226.39 203.141 225.691 197.125L225.65 196.723C225.329 193.999 224.971 190.917 225.75 186.966L225.841 186.494C228.123 174.886 228.742 173.113 229.254 172.112C230.435 169.83 233.236 168.93 235.518 170.101C237.73 171.252 238.65 173.933 237.609 176.184C237.378 176.844 236.729 179.316 234.966 188.294L234.876 188.766C234.374 191.299 234.594 193.22 234.886 195.652L234.926 196.064C235.685 202.599 235.685 205.56 235.685 207.163C235.685 207.445 235.685 207.756 235.695 207.941C235.699 208.011 235.733 208.106 235.755 208.174C236.433 209.779 237.868 211.037 239.653 212.033C241.187 212.891 242.839 211.388 242.51 209.661C240.588 199.596 240.785 188.043 244.603 180.842C245.882 178.393 248.25 174.389 250.499 170.649C250.505 170.638 250.513 170.629 250.519 170.618C250.524 170.607 250.532 170.598 250.538 170.588C250.766 170.211 250.993 169.838 251.218 169.462C251.409 169.141 251.599 168.833 251.777 168.532C252.767 166.889 253.698 165.38 254.44 164.179C254.541 164.008 254.641 163.837 254.741 163.677C254.812 163.556 254.882 163.446 254.952 163.345C255.113 163.085 255.253 162.844 255.384 162.636C255.444 162.536 255.504 162.445 255.554 162.355C255.585 162.315 255.605 162.275 255.625 162.244C255.695 162.124 255.765 162.014 255.826 161.923C255.946 161.732 256.036 161.592 256.087 161.502C256.09 161.495 256.094 161.487 256.097 161.48C256.109 161.46 256.13 161.431 256.142 161.411C256.15 161.397 256.151 161.395 256.16 161.382C256.714 160.575 257.262 159.798 257.802 159.053C259.019 157.372 257.596 155.225 255.705 156.078C252.459 157.542 250.272 159.21 249.792 159.591C247.781 161.194 244.857 160.863 243.267 158.852C241.675 156.841 242.006 153.909 244.017 152.306C246.409 150.426 259.088 141.177 274.273 145.521C285.211 148.633 290.946 156.991 293.108 160.133C294.848 162.686 300.185 170.433 300.014 181.25C299.887 189.499 296.444 195.435 290.177 206.213V206.213Z" fill="white"/>
<path d="M191.561 149.639C190.785 151.519 189.855 153.851 188.854 156.385C186.522 162.25 183.875 168.895 182.603 171.305C180.408 175.468 178.702 178.094 177.337 180.212C175.777 182.641 174.533 184.565 173.593 187.246C171.946 191.937 171.652 197.18 172.722 202.882C169.815 202.561 165.053 200.557 164.514 198.033C164.113 196.153 165.281 194.099 168.721 188.44C169.41 187.309 170.149 186.081 170.959 184.716C176.872 174.758 179.264 167.35 181.024 161.932C182.921 156.04 183.818 153.567 186.84 151.502C188.191 150.562 189.838 149.963 191.561 149.639V149.639Z" fill="white"/>
<path d="M185.792 358.488C182.57 365.071 178.558 371.145 176.059 374.158C173.987 368.561 170.39 355.738 171.34 345.421C171.367 345.123 171.401 344.829 171.444 344.541C171.826 341.356 172.672 338.431 174.178 336.089C175.172 334.55 177.922 333.609 181.048 333.609C183.353 333.609 185.862 334.115 188.021 335.273H188.038C189.195 335.891 190.771 337.143 190.935 340.784C191.173 345.699 188.831 352.307 185.792 358.488V358.488Z" fill="white"/>
<path d="M362.363 284.715C362.614 284.916 362.771 285.219 362.628 285.507C361.667 287.441 360.51 288.797 359.148 290.396C357.504 292.354 355.624 294.576 353.872 298.039C351.381 302.948 350.584 307.425 350.166 318.889C349.671 332.357 350.19 339.923 350.584 345.44C350.956 350.767 351.186 353.98 350.235 359.176C348.32 369.655 343.837 376.597 338.159 385.381C331.055 396.367 323.707 407.718 311.537 411.34C310.406 411.688 310.369 411.688 307.194 411.699C304.433 411.699 299.839 411.706 291.143 412.03C275.245 412.604 267.271 412.89 260.448 414.203C253.291 415.589 249.557 417.111 245.937 418.574C242.671 419.894 239.582 421.151 233.663 422.367C230.136 423.081 224.862 423.858 206.894 423.882C188.219 423.917 176.946 423.927 162.059 422.231C141.634 419.898 131.382 418.731 124.572 415.095C108.511 406.526 101.728 391.118 90.5087 365.594C90.4895 365.549 90.47 365.504 90.4508 365.458C90.3122 365.141 90.6992 364.835 90.9973 365.013C91.5295 365.343 92.0847 365.615 92.6706 365.81C93.1589 365.984 93.6709 366.117 94.1863 366.204C95.2135 366.378 96.2842 366.388 97.3716 366.204C97.5624 366.169 97.7366 366.127 97.9038 366.054C97.9358 366.044 97.9675 366.026 97.9992 366.012C98.189 365.918 98.4258 365.998 98.506 366.193C99.2189 368.161 100.353 369.91 102.257 370.92C104.164 371.916 106.333 371.993 108.454 371.975C110.639 371.94 112.841 371.818 115.019 371.557C116.173 371.435 117.354 371.999 117.796 373.072C119.789 377.907 122.261 381.407 125.971 381.923C126.172 381.95 126.433 381.982 126.764 381.982C127.488 381.982 128.55 381.801 130.001 380.944C131.791 379.888 134.487 380.554 135.847 382.125C136.647 383.051 137.525 383.765 138.298 384.385C142.119 388.31 151.408 390.191 159.208 390.191C163.464 390.191 167.279 389.634 169.524 388.537C172.737 386.98 172.737 384.587 172.579 383.619C172.306 381.884 172.059 380.164 171.848 378.457C171.823 378.255 172.133 378.175 172.214 378.363C172.683 379.38 173.252 380.651 174.774 380.895C174.938 380.912 175.122 380.951 175.333 380.951C177.508 380.951 180.889 381.658 181.473 383.751C181.769 384.817 182.191 385.817 182.762 386.722C184.066 388.788 186.723 391.25 191.99 391.337H192.398C198.448 391.337 203.116 389.359 206.265 385.451C206.469 385.197 206.664 384.939 206.851 384.674C207.983 383.082 211.343 383.013 212.783 384.336C214.403 385.834 216.44 386.607 218.712 386.607C219.077 386.607 219.445 386.59 219.827 386.548C222.534 386.259 224.876 384.824 226.626 382.379C227.771 380.78 228.606 378.816 229.217 376.691C229.396 376.064 230.255 375.88 230.735 376.318C231.893 377.388 233.746 378.52 236.42 378.52C237.072 378.52 237.779 378.45 238.528 378.293C243.781 377.238 246.397 372.888 247.636 367.98C247.678 367.816 247.916 367.771 248.024 367.9C249.356 369.52 251.812 371.39 256.085 371.39C256.303 371.39 256.53 371.39 256.754 371.38C259.016 371.275 260.924 370.282 262.299 368.506C263.916 366.399 264.586 363.313 264.767 360.175C264.835 359.02 265.577 358.005 266.638 357.543C271.082 355.605 276.325 351.672 277.888 348.97C277.9 348.951 277.91 348.933 277.921 348.914C278.402 348.067 279.157 347.378 280.111 347.191C283.412 346.546 284.89 345.907 286.237 345.32C287.368 344.824 288.275 344.433 290.815 344.038C311.012 340.957 314.953 340.277 319.324 337.363C325.862 333.003 326.193 327.003 326.515 321.198C326.792 316.289 327.107 310.718 330.918 304.179C332.303 301.793 333.903 298.815 335.602 295.667C338.508 290.275 342.545 282.775 345.502 278.658C346.174 277.723 347.407 277.431 348.466 277.882C355.31 280.801 361.099 283.698 362.363 284.715V284.715Z" fill="white"/>
<path d="M166.218 344.783C165.418 351.767 164.929 361.095 166.06 373.25C166.381 376.677 166.827 380.24 167.382 383.841C166.425 384.364 163.568 385.099 158.485 385.015C151.18 384.869 144.07 383.033 141.935 380.724L141.603 380.425C139.827 378.997 138.662 378.056 138.495 375.507C138.442 374.646 138.809 373.793 139.599 372.588C140.034 371.909 140.61 371.129 141.322 370.16C142.55 368.513 144.073 366.458 145.632 363.814C150.203 356.09 151.936 353.704 154.138 350.692C154.312 350.448 154.496 350.204 154.687 349.953C155.985 348.176 157.507 346.051 159.797 342.561C161.503 339.968 162.922 337.937 164.09 336.344C166.04 333.691 167.318 332.252 168.138 331.469C168.018 332.67 167.747 334.36 167.486 335.919C167.098 338.315 166.609 341.25 166.218 344.783Z" fill="white"/>
<path d="M162.872 236.233C162.829 236.293 162.775 236.353 162.732 236.417C161.782 237.732 160.694 239.221 159.399 242.118C155.916 249.858 155.849 254.238 155.796 257.762C155.762 259.609 155.742 261.078 155.237 262.794C154.889 263.925 154.323 265.223 153.671 266.719C151.616 271.42 148.936 277.584 150.137 285.879C148.474 285.079 145.931 283.249 145.576 282.276C145.489 281.824 145.392 281.379 145.288 280.934C144.713 278.347 144.332 276.661 145.978 272.873C150.304 262.895 150.836 260.529 151.174 257.812C151.245 257.22 151.315 256.758 151.489 256.008C152.402 252.073 152.881 248.704 153.272 245.997C153.854 241.888 154.246 239.171 155.632 237.126C156.137 236.37 157.566 235.979 159.61 235.979C160.42 235.979 161.333 236.038 162.327 236.179L162.561 236.196C162.662 236.206 162.769 236.216 162.872 236.233V236.233Z" fill="white"/>
<path d="M157.164 334.652C156.93 332.259 156.512 329.863 155.642 327.608C155.582 327.494 155.321 326.919 155.267 326.808C155.11 326.521 154.929 326.25 154.762 325.965C154.752 325.955 154.745 325.955 154.745 325.948C154.735 325.932 154.728 325.932 154.728 325.922C154.631 325.818 154.544 325.714 154.451 325.617C154.31 325.477 154.156 325.339 154.006 325.216C153.979 325.182 153.952 325.155 153.929 325.145C153.858 325.085 153.755 325.005 153.641 324.938C153.457 324.841 153.283 324.737 153.102 324.643C153.048 324.61 152.918 324.556 152.798 324.513C152.798 324.513 152.788 324.513 152.788 324.503C152.761 324.493 152.734 324.486 152.711 324.476C152.684 324.459 152.667 324.449 152.65 324.443C152.624 324.433 152.607 324.426 152.59 324.426C152.573 324.426 152.573 324.416 152.573 324.416C152.52 324.389 152.487 324.383 152.46 324.372C151.068 323.86 149.656 323.302 148.177 323.084C148.167 323.084 148.143 323.074 148.123 323.074H148.09C147.926 323.074 147.584 323.041 147.568 323.041C147.36 323.031 147.159 323.031 146.959 323.041C146.862 323.041 146.768 323.041 146.681 323.051H146.604C146.57 323.051 146.527 323.061 146.484 323.061C146.467 323.077 146.44 323.077 146.43 323.077C146.42 323.077 146.413 323.077 146.413 323.077C146.082 323.175 145.734 323.262 145.403 323.365C145.262 323.435 145.108 323.506 144.968 323.593C144.847 323.663 144.723 323.75 144.603 323.81C144.593 323.82 144.576 323.837 144.559 323.837L144.533 323.864C144.375 324.021 144.211 324.168 144.054 324.326C144.001 324.379 143.853 324.56 143.75 324.69C143.723 324.707 143.706 324.724 143.706 324.741C143.696 324.751 143.696 324.751 143.69 324.757C143.68 324.767 143.68 324.774 143.663 324.784C143.653 324.794 143.653 324.801 143.646 324.801C143.603 324.878 143.559 324.941 143.542 324.975C142.984 325.845 142.418 326.708 141.836 327.568C140.494 329.623 139.119 331.667 137.727 333.698C136.455 335.535 135.184 337.372 133.922 339.209C133.216 340.236 132.52 341.254 131.824 342.281C131.704 342.455 131.59 342.629 131.476 342.803C132.303 342.96 133.129 343.124 133.966 343.281C135.836 343.623 137.7 343.951 139.597 344.212C143.505 344.744 147.477 344.988 151.436 344.848C151.627 344.837 151.817 344.848 151.995 344.881C152.945 343.522 154.066 341.903 155.495 339.735C156.288 338.523 157.044 337.402 157.757 336.365C157.435 335.87 157.235 335.277 157.164 334.652V334.652Z" fill="white"/>
<path d="M143.251 350.804C142.913 353.816 139.543 361.615 134.283 369.042C129.88 375.249 127.206 376.753 126.674 376.806C124.549 376.513 122.451 371.254 120.788 366.04C120.119 363.926 119.517 361.816 119.011 360.049C117.87 356.081 117.663 350.761 117.864 347.418C122.304 349.88 130.104 350.543 141.056 350.587H141.089C141.812 350.663 142.528 350.744 143.251 350.804V350.804Z" fill="white"/>
<path d="M135.457 326.006V326.023C135.403 326.094 135.36 326.171 135.31 326.241C133.429 329.008 131.532 331.762 129.635 334.519C128.651 335.938 127.677 337.356 126.71 338.785C126.178 339.562 125.465 340.415 124.846 341.335C123.287 340.97 121.731 340.612 120.189 340.177C118.927 339.813 117.682 339.421 116.461 338.933C116.216 338.845 115.982 338.749 115.755 338.638C115.554 338.23 115.266 337.862 114.918 337.584C114.928 337.574 114.928 337.55 114.935 337.54C115.38 336.634 115.832 335.72 116.277 334.817C117.12 333.154 117.967 331.501 118.907 329.898C120.58 327.007 122.598 324.066 125.429 322.192C125.569 322.088 125.723 321.991 125.873 321.897C126.971 321.208 128.069 320.723 129.417 320.556C129.574 320.539 130.522 320.545 130.966 320.582C131.043 320.582 131.107 320.592 131.151 320.592H131.16C131.194 320.603 131.257 320.619 131.351 320.653C131.682 320.757 132.014 320.827 132.345 320.94C132.459 320.994 132.563 321.044 132.676 321.104C132.964 321.278 133.258 321.436 133.529 321.653C133.094 321.322 134.132 322.393 134.132 322.316C134.968 323.473 135.222 324.441 135.457 326.006V326.006Z" fill="white"/>
<path d="M120.56 318.14C117.076 321.004 114.544 324.818 112.429 328.787C111.244 330.989 110.173 333.234 109.059 335.472C108.945 335.7 108.831 335.917 108.701 336.142C107.647 335.914 106.593 335.61 105.566 335.282C104.468 334.933 103.381 334.532 102.337 334.047C101.858 333.819 101.38 333.585 100.901 333.334C101.945 331.356 103.19 329.459 104.375 327.616C106.047 325.012 107.858 322.452 109.825 320.05C110.565 319.137 111.348 318.136 112.385 317.534C113.446 316.908 114.727 317.055 115.945 317.126C117.234 317.206 118.619 317.239 119.837 317.728C120.088 317.835 120.359 318.002 120.56 318.14V318.14Z" fill="white"/>
<path d="M115.029 364.878C114.855 365.025 114.708 365.185 114.577 365.366C114.457 365.401 114.333 365.429 114.256 365.446C113.42 365.533 112.566 365.596 111.723 365.648C110.104 365.753 108.457 365.822 106.821 365.763C105.908 365.728 105.081 365.589 104.706 365.007C104.104 364.091 103.923 362.5 103.706 361.289C102.635 355.342 102.495 349.145 103.254 343.129C106.362 344.243 109.558 345.107 112.837 345.645C112.131 351.069 113.333 359.033 114.039 361.472C114.366 362.608 114.698 363.753 115.029 364.878Z" fill="white"/>
<path d="M105.031 316.168C102.28 319.544 99.7738 323.141 97.5252 326.865C96.6186 328.381 95.5911 329.947 94.8349 331.567C93.7475 331.262 92.7636 330.827 91.7197 330.182C90.92 329.686 90.1437 329.137 89.3875 328.562C89.1966 328.405 88.6746 327.996 88.3503 327.735C88.2733 327.675 88.203 327.615 88.1225 327.571C88.3736 326.859 88.8355 326.066 89.0897 325.533C89.6651 324.272 90.3077 323.034 90.9803 321.826C92.2585 319.564 93.6873 317.352 95.3069 315.315C95.9091 314.565 96.4813 313.598 97.4148 313.32C98.2681 313.076 99.3924 313.19 100.078 313.31C102.116 313.705 103.709 314.629 105.031 316.168Z" fill="white"/>
<path d="M83.8177 330.887C83.8626 330.711 84.0883 330.688 84.1942 330.836C84.9138 331.838 85.9019 332.712 86.9604 333.537C87.4348 333.897 87.9064 334.258 88.3856 334.598C88.4602 334.65 88.4953 334.743 88.4741 334.831C87.3661 339.428 86.6009 344.299 86.5755 349.108C86.5741 349.374 86.1732 349.431 86.1112 349.173C84.7393 343.432 82.9567 334.257 83.8177 330.887V330.887Z" fill="white"/>
<path d="M97.3067 341.086C96.748 345.195 96.4801 349.314 96.6609 353.456C96.748 355.728 96.9922 357.984 97.2966 360.229C97.2966 360.246 97.2966 360.262 97.3067 360.272V360.283C96.818 360.169 96.3063 360.152 95.7842 360.229C95.888 360.195 95.6202 360.212 95.5067 360.212H95.4729C95.3962 360.202 95.2823 360.195 95.2454 360.185C94.67 360.045 94.6199 359.985 94.1647 359.697C93.5725 359.315 92.9467 358.616 92.5283 357.903C91.4242 355.989 91.1801 353.664 91.093 351.496C90.929 347.239 91.2936 342.989 92.0867 338.82C92.7659 339.098 93.3583 339.353 94.3419 339.777C95.3158 340.202 96.3262 340.621 97.3101 341.076V341.086H97.3067Z" fill="white"/>
<mask id="mask0_139_199" style="mask-type:alpha" maskUnits="userSpaceOnUse" x="0" y="0" width="512" height="512">
<path d="M512 256C512 114.615 397.385 0 256 0C114.615 0 0 114.615 0 256C0 397.385 114.615 512 256 512C397.385 512 512 397.385 512 256Z" fill="url(#paint1_radial_139_199)"/>
</mask>
<g mask="url(#mask0_139_199)">
<g opacity="0.8">
<path d="M207.192 552.552C188.442 552.552 170.66 551.368 155.737 550.205L151.624 549.884L147.515 549.313C145.719 549.062 143.276 548.798 140.918 548.54C126.563 546.98 99.8661 544.071 70.394 530.23L65.8167 528.074L61.5483 525.681C4.90427 493.934 -16.2943 446.15 -27.7089 420.463C-28.4356 418.83 -29.3167 416.844 -30.1464 415.016C-35.908 403.222 -39.5526 392.592 -42.6423 382.861L-43.3288 380.684L-43.9011 378.573C-52.1231 349.353 -54.2 324.121 -50.4352 299.169C-46.6589 274.114 -37.3785 251.319 -21.255 227.46L-12.8957 213.809C-11.1976 211.051 -9.99869 208.016 -9.35403 204.843C-2.98015 173.254 11.4841 150.876 18.5903 140.189C20.5464 127.252 23.7719 114.541 28.2198 102.237L28.8835 100.372L29.593 98.5522C29.7074 98.2318 29.8562 97.78 30.1309 96.9559C33.3235 87.338 40.8074 64.8347 59.975 41.2045L67.1726 32.4847L74.5078 25.8591C93.3487 8.73903 115.793 -3.93144 140.186 -11.217C153.804 -15.2782 167.844 -17.7605 182.028 -18.615L183.401 -18.718L185.467 -18.8152C187.922 -18.9297 190.365 -18.9869 192.751 -18.9869C201.602 -19.0034 210.438 -18.2587 219.162 -16.7612C224.612 -15.8438 230.211 -16.4844 235.314 -18.6093C250.438 -24.9182 266.335 -29.1859 282.586 -31.2997C283.942 -31.4944 285.126 -31.6431 286.059 -31.7633C288.622 -32.0837 292.696 -32.5644 297.616 -33.0335C306.199 -33.8517 319.358 -34.8301 333.623 -34.8301C361.482 -34.8301 385.459 -31.2196 406.928 -23.7988L408.754 -23.1637L410.537 -22.4943C457.913 -4.59132 482.029 20.4179 499.371 42.4805L500.196 43.5332L502.582 45.656C518.248 57.9126 531.574 72.9003 541.912 89.8956L545.144 95.2165L547.875 100.795C571.047 148.096 563.684 191.769 560.908 208.178L560.758 209.054C558.763 221.159 555.59 233.041 551.278 244.528C549.693 255.603 547.084 266.507 543.486 277.101C537.335 295.931 528.259 313.677 516.594 329.688C509.875 339.189 502.293 348.046 493.937 356.145C490.984 358.999 489.068 362.761 488.497 366.829C488.134 369.333 487.723 371.809 487.253 374.265C480.461 410.7 464.527 436.06 458.02 446.157L438.356 474.401C414.675 503.905 386.577 523.365 352.573 533.824L344.334 536.405L335.436 537.955C325.257 539.752 314.939 540.644 304.603 540.623C303.178 540.623 301.742 540.623 300.151 540.581H299.693L297.937 540.689L296.054 540.759H296.003C292.063 540.891 288.156 541.536 284.382 542.675C262.417 549.393 237.574 552.552 207.192 552.552Z" stroke="url(#paint2_linear_139_199)" stroke-width="0.826219" stroke-miterlimit="10"/>
<path d="M207.192 533.149C189.226 533.149 171.993 532.006 157.511 530.86L154.079 530.596L150.645 530.122C148.505 529.826 145.891 529.551 143.368 529.265C129.424 527.746 106.114 525.214 80.0921 513.01L76.2702 511.213L72.7168 509.217C22.733 481.179 4.24069 439.554 -6.81346 414.678C-7.60305 412.905 -8.56993 410.725 -9.47394 408.743C-14.6234 398.183 -17.9992 388.427 -20.8485 379.448L-21.4207 377.64L-21.9185 375.878C-29.2307 349.891 -31.1188 327.714 -27.8575 306.075C-24.5962 284.436 -16.38 264.439 -2.04731 243.36L8.66353 225.87C10.5576 222.771 11.8576 219.346 12.497 215.771C17.8295 186.059 31.8648 164.992 38.2442 155.402L39.0509 154.189L39.3487 153.709C39.48 153.417 39.6061 153.136 39.7263 152.833C40.1153 151.569 40.4984 150.344 40.8704 149.177C42.5482 136.988 45.5112 125.011 49.7103 113.445L50.2825 111.889L50.8948 110.327C51.0892 109.829 51.2724 109.292 51.8102 107.678C54.8484 98.5236 61.1707 79.5162 77.7121 59.1244L83.714 51.8581L89.8075 46.348C106.143 31.5046 125.605 20.5196 146.755 14.2041C158.762 10.6395 171.139 8.46434 183.642 7.72142L184.786 7.62993L186.503 7.54981C188.591 7.45254 190.674 7.40677 192.705 7.40677C201.674 7.39082 210.622 4.80886 219.408 6.61291C226.188 8.01535 233.237 7.26523 239.571 4.46731C251.403 -0.750802 267.332 -2.83492 285.567 -5.10639C286.866 -5.2952 287.999 -5.43828 288.88 -5.54699C291.277 -5.85022 295.11 -6.30228 299.751 -6.74284C307.818 -7.51526 320.234 -8.45933 333.583 -8.45933C358.856 -8.45933 380.385 -5.2609 399.409 1.31897L400.931 1.84532L402.418 2.41747C444.409 18.2835 465.164 39.5222 481.332 60.1142C482.231 61.2587 483.15 62.4315 483.495 62.8379L483.878 63.181L486.943 65.9103L487.358 66.3338C501.325 77.0342 513.181 90.2414 522.317 105.281L525.005 109.715L527.294 114.361C547.227 155.047 540.978 192.06 538.314 207.869L538.171 208.711C536.28 220.195 533.183 231.449 528.934 242.285C527.597 252.831 525.197 263.215 521.773 273.279C516.333 289.942 508.308 305.645 497.988 319.813C491.001 329.744 482.924 338.86 473.906 346.991C469.72 350.748 467.08 355.924 466.495 361.517C466.059 365.637 465.471 369.643 464.729 373.572C458.738 405.734 444.736 427.98 438.328 437.941L422.4 461.096C401.23 488.298 376.146 506.086 345.757 515.451L338.892 517.604L331.454 518.889C322.576 520.457 313.577 521.237 304.563 521.219C303.252 521.219 301.913 521.219 300.472 521.184H299.213C299.213 521.184 298.927 521.185 298.343 521.226L296.77 521.324L295.185 521.38L292.021 521.501C287.838 521.648 283.696 522.369 279.708 523.64C259.476 530.101 236.098 533.149 207.192 533.149Z" stroke="url(#paint3_linear_139_199)" stroke-width="0.826219" stroke-miterlimit="10"/>
<path d="M207.192 510.262C190.027 510.262 173.331 509.147 159.279 508.054L156.539 507.841L153.804 507.465C151.326 507.12 148.54 506.817 145.845 506.521C132.519 505.072 112.396 502.881 89.8302 492.297L86.769 490.862L83.9084 489.263C40.5611 464.966 24.6437 429.119 14.1045 405.396C13.2062 403.365 12.1878 401.077 11.2437 398.956C6.66642 389.646 3.61107 380.764 1.00771 372.544L0.549971 371.102L0.149461 369.688C-6.25301 346.939 -7.94658 327.812 -5.18876 309.508C-2.39089 290.947 4.89842 273.645 17.7377 255.05L19.2654 252.841L20.919 250.719C21.9603 249.391 22.9615 248.081 23.9457 246.799L30.3882 234.984C32.5011 231.123 33.9278 226.923 34.6049 222.574C38.7016 196.066 51.4723 176.915 57.3655 168.081L57.3944 168.035C57.7319 167.532 58.1666 166.891 58.3899 166.536L59.6486 164.528C60.1408 163.453 60.7928 162.022 61.3651 160.523C61.9373 158.732 62.6182 156.518 63.3619 154.229C64.7585 142.937 67.4342 131.84 71.3379 121.153L71.7841 119.905L72.2707 118.647C72.6823 117.6 72.9857 116.69 73.5806 114.899C76.4015 106.425 81.6309 90.6963 95.5402 73.5373L100.352 67.7183L105.21 63.3301C119.038 50.7641 135.511 41.4647 153.414 36.1179C163.806 33.034 174.519 31.1639 185.341 30.5451L186.256 30.4764L187.647 30.4135C189.363 30.3334 191.08 30.2934 192.796 30.2934C202.101 30.2806 211.369 31.4593 220.374 33.8007C228.171 35.773 236.415 34.9028 243.627 31.3461C255.168 25.7447 270.604 19.7999 288.691 17.5799C289.932 17.4025 290.979 17.2652 291.832 17.1565C294.08 16.8761 297.662 16.4527 302.011 16.0122C309.58 15.2855 321.218 14.4216 333.668 14.4216C356.355 14.4216 375.435 17.208 392.028 22.941L393.247 23.3645L394.438 23.8107C433.006 38.3894 450.274 57.4825 463.43 74.2297C466.331 77.92 466.77 78.4922 468.762 80.2602L471.218 82.4458L472.172 83.4242C478.518 88.339 491.492 98.4606 502.85 117.182L505.006 120.729L506.828 124.443C523.522 158.515 518.328 189.286 515.835 204.076L515.695 204.894C513.909 215.739 510.889 226.343 506.688 236.5L506.577 237.433C505.466 247.15 503.32 256.719 500.172 265.978C495.449 280.477 488.469 294.14 479.49 306.464C471.977 317.233 462.945 326.859 452.678 335.044C450.236 336.98 448.233 339.418 446.812 342.192C445.388 344.966 444.576 348.013 444.426 351.127C444.148 357.241 443.444 363.328 442.323 369.343C437.136 397.232 424.963 416.566 418.75 426.217L406.403 444.465C387.789 469.312 365.728 485.397 339.064 493.571L333.577 495.288L327.643 496.319C320.056 497.66 312.365 498.326 304.66 498.312C303.464 498.312 302.245 498.312 300.929 498.277H299.31C299.087 498.277 298.406 498.277 297.021 498.36L295.762 498.441L288.181 498.723C283.725 498.876 279.314 499.67 275.085 501.084C256.552 507.326 234.69 510.262 207.192 510.262Z" stroke="url(#paint4_linear_139_199)" stroke-width="0.826219" stroke-miterlimit="10"/>
<path d="M207.189 487.375C190.785 487.375 174.655 486.292 161.049 485.237L158.995 485.076L156.942 484.794C154.132 484.404 151.174 484.08 148.308 483.77C135.783 482.401 118.658 480.545 99.5421 471.576L97.2535 470.496L95.1194 469.302C58.4094 448.703 44.9065 418.314 35.0423 396.11C34.0183 393.822 32.9539 391.412 31.901 389.106C27.7072 380.674 25.0352 372.576 22.8152 365.648L22.472 364.565L22.1744 363.509C11.4407 325.362 15.4744 298.602 36.5644 268.071L37.7086 266.412L38.9503 264.821C40.3518 263.03 41.6621 261.308 42.9553 259.672C44.9006 257.12 46.8688 254.522 49.0147 251.85C50.3459 250.185 51.4204 248.33 52.2013 246.346L54.6216 240.167C55.6474 237.539 56.291 234.778 56.5327 231.968C58.6326 207.496 70.5333 189.656 76.4269 180.817L76.461 180.771C76.8901 180.118 77.5425 179.146 77.7599 178.797L79.1388 176.594L79.5623 176.022C80.2948 174.54 81.7308 171.41 82.9951 168.132C83.6761 165.889 84.7516 162.445 85.8045 159.315C85.8045 159.195 85.8045 159.063 85.8501 158.926C86.9783 148.671 89.3412 138.591 92.8879 128.904L93.2254 127.966L93.5914 127.022C94.2323 125.391 94.6844 124.03 95.3082 122.147C97.8257 114.583 102.037 101.921 113.32 88.006L116.93 83.6349L120.552 80.3623C147.203 56.1826 177.024 54.0942 186.991 53.4248L187.678 53.3732L188.731 53.3217C190.087 53.2587 191.443 53.2301 192.77 53.2301C204.603 53.2719 216.31 55.6661 227.208 60.2734C229.139 61.0755 231.224 61.4402 233.312 61.3413C235.4 61.2424 237.441 60.6823 239.287 59.7011H239.344C249.477 53.8253 268.038 43.1716 291.703 40.3222C292.847 40.1505 293.9 40.019 294.672 39.9217C296.755 39.6585 300.079 39.2695 304.164 38.8747C311.236 38.1995 322.096 37.3927 333.642 37.3927C353.743 37.3927 370.381 39.773 384.512 44.6592L385.428 44.9739L386.32 45.3115C419.373 57.8019 433.629 73.4732 445.391 88.4526C448.554 92.4576 449.968 94.3172 453.51 97.4411L455.353 99.0833L456.829 100.6L457.972 101.503C463.576 105.84 473.994 113.914 483.241 129.122L484.86 131.782L486.226 134.569C499.674 162.033 495.466 186.939 493.206 200.327L493.073 201.123C491.482 210.855 488.713 220.358 484.826 229.421L484.498 230.2C484.463 230.366 484.418 230.612 484.348 230.972C484.171 231.893 484.07 232.626 483.948 233.558L483.812 234.611C482.896 242.819 481.088 250.904 478.427 258.722C474.422 271.054 468.494 282.675 460.856 293.155C453.305 303.877 444.837 312.608 435.332 319.52C431.16 322.568 427.753 326.543 425.381 331.132C423.006 335.721 421.735 340.799 421.658 345.965C421.578 352.408 420.948 358.832 419.774 365.167C415.392 388.792 405.312 404.79 399.036 414.539L390.064 427.99C373.997 450.438 355.042 464.77 332.229 471.754L331.022 472.134C329.086 472.74 327.111 473.22 325.111 473.562L323.664 473.816C317.37 474.93 310.99 475.484 304.599 475.467C303.518 475.467 302.419 475.467 301.229 475.439H301.035C300.491 475.439 299.89 475.439 299.249 475.439C298.803 475.439 297.624 475.439 295.496 475.571L294.552 475.627L293.631 475.662C290.57 475.777 286.765 475.909 283.372 476.059C278.722 476.25 274.128 477.152 269.749 478.73C253.328 484.596 233.233 487.375 207.189 487.375Z" stroke="url(#paint5_linear_139_199)" stroke-width="0.826219" stroke-miterlimit="10"/>
<path d="M207.192 464.488C191.566 464.488 175.998 463.44 162.826 462.416L161.453 462.311L160.086 462.12C156.933 461.685 153.792 461.34 150.765 461.012C139.253 459.762 124.927 458.198 109.261 450.852L107.728 450.131L106.309 449.337C76.2357 432.476 64.9985 407.162 55.9581 386.821C54.8484 384.317 53.6697 381.729 52.5252 379.211C48.9837 372.147 46.586 364.91 44.6178 358.712L44.3889 357.996L44.1887 357.293C35.3318 325.824 38.2554 305.849 55.3802 281.058L56.1413 279.953L56.9709 278.895C58.4644 276.984 59.8318 275.199 61.1362 273.476C65.6049 267.618 69.9019 261.976 76.3273 255.116C77.7362 253.611 78.5794 251.664 78.7132 249.606L79.1994 242.202L79.0106 239.776L79.0963 237.259C79.7657 216.953 89.9674 201.676 95.4259 193.471C96.0553 192.521 96.7133 191.543 97.1023 190.919L98.0236 189.454L98.8762 188.31C99.8946 186.645 102.572 180.97 104.598 175.523C105.296 173.234 106.646 168.868 107.836 165.406C108.185 164.302 108.219 164.034 108.506 161.665C109.436 153.096 111.409 144.672 114.382 136.581L114.605 135.952L114.851 135.317C115.698 133.154 116.287 131.386 116.968 129.338C119.125 122.849 122.375 113.071 131.037 102.389L133.452 99.4706L135.843 97.3081C154.513 80.3549 174.853 77.145 188.58 76.2238L189.043 76.1837H189.752C190.748 76.1381 191.738 76.1151 192.71 76.1151C204.434 76.1151 218.458 81.7394 225.822 85.1381C227.583 85.9462 229.486 86.3979 231.423 86.4679C233.359 86.5376 235.29 86.2238 237.105 85.5443C241.686 83.8846 246.151 81.9195 250.47 79.6625C259.836 74.227 275.376 65.2499 294.675 63.0013C295.74 62.8411 296.695 62.7209 297.485 62.6178C299.424 62.3775 302.485 62.0455 306.279 61.6509C312.859 61.0215 322.934 60.272 333.582 60.272C351.089 60.272 365.286 62.2402 376.975 66.2798L377.581 66.4912L378.155 66.7145C405.762 77.145 416.747 89.1317 427.314 102.583C430.745 106.92 433.173 110.021 438.213 114.53L439.439 115.623L440.581 116.767C441.612 117.786 442.72 118.722 443.893 119.565C448.634 123.233 456.575 129.378 463.618 140.975L464.694 142.749L465.61 144.609C475.815 165.441 472.538 184.872 470.577 196.481L470.444 197.27C469.142 205.284 466.857 213.108 463.642 220.563V220.62C462.75 222.548 462.137 224.592 461.817 226.691C461.542 228.156 461.368 229.334 461.204 230.639L461.065 231.703C460.33 238.4 458.867 244.996 456.7 251.374C453.433 261.55 448.547 271.133 442.229 279.753C432.905 293.056 422.125 302.417 409.137 308.361C405.981 309.801 403.285 312.085 401.349 314.961C399.409 317.837 398.301 321.192 398.151 324.657C398.089 326.075 398.064 327.243 398.106 327.895C398.747 337.902 399.471 349.242 397.242 360.925C393.665 380.249 385.484 393.237 379.333 402.773C379.333 402.773 351.114 442.047 325.435 449.884L322.671 450.748L319.702 451.27C314.704 452.159 309.638 452.597 304.562 452.58C303.601 452.58 302.617 452.58 301.559 452.552H301.467C300.786 452.552 300.048 452.552 299.213 452.552C298.206 452.552 296.564 452.552 294.012 452.73L293.388 452.768H292.77C282.946 453.123 273.66 453.454 271.08 453.959C269.698 454.175 268.351 454.569 267.074 455.136C252.541 461.507 233.483 464.488 207.192 464.488Z" stroke="url(#paint6_linear_139_199)" stroke-width="0.826219" stroke-miterlimit="10"/>
<path d="M207.191 441.602C192.35 441.602 177.33 440.592 164.594 439.599L163.913 439.55L163.232 439.453C159.748 438.972 156.441 438.61 153.237 438.261C142.4 437.084 131.191 435.865 118.976 430.136L118.209 429.77L117.499 429.376C94.0408 416.218 85.3266 396.563 76.8759 377.532C75.6742 374.833 74.4325 372.039 73.1511 369.263C70.2902 363.61 68.2649 357.547 66.4453 351.802L66.3308 351.447L66.228 351.087C59.1847 326.038 60.9753 313.25 74.2382 294.065L74.6217 293.493L75.0334 292.961C76.5896 290.976 78.003 289.122 79.3648 287.331C85.7387 278.972 91.2484 271.745 103.596 260.348L103.63 260.314C104.535 259.448 105.171 258.34 105.46 257.122C105.75 255.903 105.681 254.627 105.261 253.447L103.035 247.102C102.588 245.102 102.274 243.074 102.097 241.032V240.963L101.959 239.247L102.005 237.988C102.457 224.205 109.707 213.339 114.501 206.147C115.251 205.003 115.966 203.956 116.521 203.063L116.979 202.331L117.493 201.638C120.04 198.206 124.176 188.702 126.351 182.814C126.923 181.001 128.388 176.131 129.606 172.601C130.474 169.946 131.036 167.201 131.283 164.419C132.002 157.53 133.582 150.758 135.986 144.262L136.1 143.942L136.226 143.627C137.285 140.909 138.029 138.678 138.75 136.515C140.666 130.753 142.835 124.219 148.871 116.776L150.084 115.311L151.268 114.241C164.531 102.191 179.07 99.765 190.284 99.0213H190.885C191.514 99.0213 192.143 98.9813 192.767 98.9813C203.678 98.9813 212.066 103.456 217.616 106.419L218.909 107.106L219.104 107.209C220.626 108.033 221.964 108.754 223.206 109.366C226.655 111.096 230.618 111.503 234.346 110.51C241.944 108.468 253.8 103.97 261.775 99.5877L261.942 99.4905C270.329 94.6272 282.963 87.3035 297.77 85.6783C298.703 85.5296 299.596 85.421 300.437 85.3123C302.153 85.0949 305.014 84.74 308.51 84.4255C314.597 83.8533 323.895 83.1493 333.639 83.1493C348.56 83.1493 360.309 84.7059 369.552 87.8984L369.856 88.0071L370.165 88.1217C392.314 96.4923 400.394 105.252 409.394 116.73C413.055 121.393 416.517 125.799 423.079 131.64L423.692 132.213L424.263 132.784C426.04 134.574 427.952 136.222 429.986 137.711C433.922 140.76 439.317 144.937 444.165 152.913L444.701 153.8L445.158 154.733C452.124 168.951 449.804 182.694 448.111 192.724L447.979 193.514C446.965 199.841 445.154 206.015 442.584 211.886C441.086 215.266 440.02 218.823 439.414 222.471C439.014 224.588 438.78 226.242 438.585 227.775L438.446 228.862C437.896 234.047 436.774 239.155 435.099 244.093C432.56 252.103 428.722 259.642 423.737 266.407C415.326 278.48 406.002 285.924 393.613 289.866C387.678 291.743 382.568 295.611 379.155 300.817L378.169 302.327L377.083 303.569C373.938 307.151 374.822 321.031 375.366 329.316C375.94 338.408 376.55 347.808 374.854 356.66C372.06 371.792 365.578 382.008 359.776 390.99C359.776 390.99 338.228 422.076 318.786 427.98L317.373 428.425L315.885 428.683C312.182 429.345 308.427 429.672 304.665 429.655C303.818 429.655 302.948 429.655 302.027 429.655C301.209 429.655 300.311 429.655 299.315 429.655C297.993 429.655 295.882 429.655 292.667 429.878H292.049C279.009 430.355 271.142 430.634 266.793 431.48C263.867 431.999 261.01 432.852 258.28 434.026C246.636 439.188 230.375 441.602 207.191 441.602Z" stroke="url(#paint7_linear_139_199)" stroke-width="0.826219" stroke-miterlimit="10"/>
</g>
</g>
<defs>
<radialGradient id="paint0_radial_139_199" cx="0" cy="0" r="1" gradientUnits="userSpaceOnUse" gradientTransform="translate(256 282.827) rotate(90) scale(287.61)">
<stop offset="0.166667" stop-color="#073183"/>
<stop offset="1" stop-color="#0054F9"/>
</radialGradient>
<radialGradient id="paint1_radial_139_199" cx="0" cy="0" r="1" gradientUnits="userSpaceOnUse" gradientTransform="translate(256 282.827) rotate(90) scale(287.61)">
<stop offset="0.166667" stop-color="#073183"/>
<stop offset="1" stop-color="#0054F9"/>
</radialGradient>
<linearGradient id="paint2_linear_139_199" x1="62.17" y1="83.1495" x2="419.523" y2="469.675" gradientUnits="userSpaceOnUse">
<stop offset="0.205697" stop-color="#89D0FF"/>
<stop offset="0.398413" stop-color="#EBBF9A"/>
<stop offset="0.601546" stop-color="#A280EB"/>
<stop offset="0.841139" stop-color="#A281FF"/>
</linearGradient>
<linearGradient id="paint3_linear_139_199" x1="62.17" y1="83.1495" x2="419.523" y2="469.675" gradientUnits="userSpaceOnUse">
<stop offset="0.205697" stop-color="#89D0FF"/>
<stop offset="0.398413" stop-color="#EBBF9A"/>
<stop offset="0.601546" stop-color="#A280EB"/>
<stop offset="0.841139" stop-color="#A281FF"/>
</linearGradient>
<linearGradient id="paint4_linear_139_199" x1="62.17" y1="83.1495" x2="419.523" y2="469.675" gradientUnits="userSpaceOnUse">
<stop offset="0.205697" stop-color="#89D0FF"/>
<stop offset="0.398413" stop-color="#EBBF9A"/>
<stop offset="0.601546" stop-color="#A280EB"/>
<stop offset="0.841139" stop-color="#A281FF"/>
</linearGradient>
<linearGradient id="paint5_linear_139_199" x1="62.17" y1="83.1495" x2="419.523" y2="469.675" gradientUnits="userSpaceOnUse">
<stop offset="0.205697" stop-color="#89D0FF"/>
<stop offset="0.398413" stop-color="#EBBF9A"/>
<stop offset="0.601546" stop-color="#A280EB"/>
<stop offset="0.841139" stop-color="#A281FF"/>
</linearGradient>
<linearGradient id="paint6_linear_139_199" x1="62.17" y1="83.1495" x2="419.523" y2="469.675" gradientUnits="userSpaceOnUse">
<stop offset="0.205697" stop-color="#89D0FF"/>
<stop offset="0.398413" stop-color="#EBBF9A"/>
<stop offset="0.601546" stop-color="#A280EB"/>
<stop offset="0.841139" stop-color="#A281FF"/>
</linearGradient>
<linearGradient id="paint7_linear_139_199" x1="62.17" y1="83.1495" x2="419.523" y2="469.675" gradientUnits="userSpaceOnUse">
<stop offset="0.205697" stop-color="#89D0FF"/>
<stop offset="0.398413" stop-color="#EBBF9A"/>
<stop offset="0.601546" stop-color="#A280EB"/>
<stop offset="0.841139" stop-color="#A281FF"/>
</linearGradient>
</defs>
</svg>
