<svg xmlns="http://www.w3.org/2000/svg" xmlns:xlink="http://www.w3.org/1999/xlink" viewBox="0 0 95 82.3"><defs><style>.cls-1,.cls-10,.cls-11,.cls-12,.cls-13,.cls-14,.cls-15,.cls-16,.cls-17,.cls-2,.cls-3,.cls-4,.cls-5,.cls-6,.cls-7,.cls-8,.cls-9{fill-rule:evenodd;}.cls-1{fill:url(#linear-gradient);}.cls-2{fill:url(#linear-gradient-2);}.cls-3{fill:url(#linear-gradient-3);}.cls-4{fill:url(#linear-gradient-4);}.cls-5{fill:url(#linear-gradient-5);}.cls-6{fill:url(#linear-gradient-6);}.cls-7{fill:url(#linear-gradient-7);}.cls-8{fill:url(#linear-gradient-8);}.cls-9{fill:url(#linear-gradient-9);}.cls-10{fill:url(#linear-gradient-10);}.cls-11{fill:url(#linear-gradient-11);}.cls-12{fill:url(#linear-gradient-12);}.cls-13{fill:url(#linear-gradient-13);}.cls-14{fill:url(#linear-gradient-14);}.cls-15{fill:url(#linear-gradient-15);}.cls-16{fill:url(#linear-gradient-16);}.cls-17{fill:url(#linear-gradient-25);}</style><linearGradient id="linear-gradient" x1="21.94" y1="-2317.27" x2="15.45" y2="-2380.24" gradientTransform="translate(0 2399.28)" gradientUnits="userSpaceOnUse"><stop offset="0" stop-color="#c3c4c3"/><stop offset="0.09" stop-color="#d8d8d8"/><stop offset="0.21" stop-color="#e9eae9"/><stop offset="0.35" stop-color="#f6f6f6"/><stop offset="0.55" stop-color="#fdfdfd"/><stop offset="1" stop-color="#fff"/></linearGradient><linearGradient id="linear-gradient-2" x1="866.57" y1="-3767.11" x2="866.53" y2="-3767.01" gradientTransform="translate(-1310171.39 1303486.38) scale(1512 346)" xlink:href="#linear-gradient"/><linearGradient id="linear-gradient-3" x1="865.63" y1="-3765.52" x2="865.69" y2="-3765.5" gradientTransform="translate(-843951.35 4908372.35) scale(975 1303.5)" xlink:href="#linear-gradient"/><linearGradient id="linear-gradient-4" x1="861.96" y1="-3765.86" x2="861.95" y2="-3765.91" gradientTransform="translate(-236149.37 3890216.71) scale(274 1033)" gradientUnits="userSpaceOnUse"><stop offset="0" stop-color="#b7b8b8"/><stop offset="0.11" stop-color="#c9caca"/><stop offset="0.3" stop-color="#e1e1e1"/><stop offset="0.5" stop-color="#f2f2f2"/><stop offset="0.73" stop-color="#fcfcfc"/><stop offset="1" stop-color="#fff"/></linearGradient><linearGradient id="linear-gradient-5" x1="32.98" y1="-2373.67" x2="79.39" y2="-2352.98" gradientTransform="translate(0 2399.28)" xlink:href="#linear-gradient-4"/><linearGradient id="linear-gradient-6" x1="865.87" y1="-3766.47" x2="865.83" y2="-3766.41" gradientTransform="translate(-906486.48 1785366.04) scale(1047 474)" xlink:href="#linear-gradient-4"/><linearGradient id="linear-gradient-7" x1="857.58" y1="-3766" x2="857.55" y2="-3766.04" gradientTransform="translate(-154326.28 2835872.26) scale(180 753)" gradientUnits="userSpaceOnUse"><stop offset="0" stop-color="#b7b8b8"/><stop offset="0.21" stop-color="#cecece"/><stop offset="0.52" stop-color="#e9e9e9"/><stop offset="0.79" stop-color="#f9f9f9"/><stop offset="1" stop-color="#fff"/></linearGradient><linearGradient id="linear-gradient-8" x1="864.63" y1="-3766.27" x2="864.59" y2="-3766.21" gradientTransform="translate(-575772.41 1789028.27) scale(666 475)" xlink:href="#linear-gradient-7"/><linearGradient id="linear-gradient-9" x1="31.85" y1="-2363.46" x2="67.88" y2="-2354.33" gradientTransform="translate(0 2399.28)" xlink:href="#linear-gradient-7"/><linearGradient id="linear-gradient-10" x1="32.88" y1="-2354.83" x2="59.62" y2="-2352.73" gradientTransform="translate(0 2399.28)" gradientUnits="userSpaceOnUse"><stop offset="0" stop-color="#abacac"/><stop offset="0.18" stop-color="#bdbdbd"/><stop offset="0.73" stop-color="#ededed"/><stop offset="1" stop-color="#fff"/></linearGradient><linearGradient id="linear-gradient-11" x1="860.17" y1="-3766.16" x2="860.12" y2="-3766.2" gradientTransform="translate(-212415.7 1924577.48) scale(247 511)" xlink:href="#linear-gradient-10"/><linearGradient id="linear-gradient-12" x1="862.17" y1="-3766.19" x2="862.14" y2="-3766.14" gradientTransform="translate(-329287.07 1555484.46) scale(382 413)" xlink:href="#linear-gradient-10"/><linearGradient id="linear-gradient-13" x1="36.31" y1="-2348.11" x2="53.17" y2="-2354.44" gradientTransform="translate(0 2399.28)" gradientUnits="userSpaceOnUse"><stop offset="0" stop-color="#9fa0a0"/><stop offset="0.17" stop-color="#a5a6a6"/><stop offset="0.4" stop-color="#b6b6b6"/><stop offset="0.66" stop-color="#d1d1d1"/><stop offset="0.94" stop-color="#f6f6f6"/><stop offset="1" stop-color="#fff"/></linearGradient><linearGradient id="linear-gradient-14" x1="49.27" y1="-2332.85" x2="35.75" y2="-2344.28" xlink:href="#linear-gradient-13"/><linearGradient id="linear-gradient-15" x1="856.49" y1="-3766.17" x2="856.48" y2="-3766.12" gradientTransform="translate(-163534.26 1224054) scale(191 325)" xlink:href="#linear-gradient-13"/><linearGradient id="linear-gradient-16" x1="21.79" y1="-2317.27" x2="15.31" y2="-2380.23" xlink:href="#linear-gradient"/><linearGradient id="linear-gradient-25" x1="49.28" y1="-2333.07" x2="35.76" y2="-2344.29" xlink:href="#linear-gradient-13"/></defs><g id="Layer_2" data-name="Layer 2"><g id="Layer_1-2" data-name="Layer 1"><g id="Layer_1-3" data-name="Layer_1"><g id="_2806123167536" data-name=" 2806123167536"><path class="cls-1" d="M1,82.3H19.81L37.07,16.89.25,81c-.5.5,0,1.3.8,1.3Z"/><path class="cls-2" d="M85.47,65,19.56,82.3H94c.8,0,1.3-.8.8-1.3L85.52,65Z"/><path class="cls-3" d="M75.44,55l10,10L47.9.37a1,1,0,0,0-1.55,0L36.82,16.84,75.44,55Z"/><polygon class="cls-4" points="33.23 78.66 33.23 30.76 19.56 82.3 33.23 78.66"/><polygon class="cls-5" points="33.23 30.76 75.44 55.01 36.82 16.84 33.23 30.76"/><polygon class="cls-6" points="33.23 78.66 85.47 65.04 75.44 55.01 33.23 78.66"/><polygon class="cls-7" points="33.23 78.66 42.21 73.52 33.23 41.09 33.23 78.66"/><polygon class="cls-8" points="75.44 55.01 66.41 49.82 42.21 73.52 75.44 55.01"/><polygon class="cls-9" points="33.23 30.81 33.23 41.09 66.76 50.02 33.23 30.81"/><polygon class="cls-10" points="35.28 48.02 54.34 48.02 59.48 48.02 33.23 41.09 35.28 48.02"/><polygon class="cls-11" points="35.03 48.02 42.21 73.52 47.35 68.63 37.82 52.41 35.03 48.02"/><polygon class="cls-12" points="59.48 48.02 47.35 68.63 66.41 49.82 59.48 48.02"/><polygon class="cls-13" points="54.34 48.02 35.03 48.02 37.82 52.66 54.34 48.02"/><polygon class="cls-14" points="49.95 64.49 37.82 52.66 47.35 68.88 49.95 64.49"/><polygon class="cls-15" points="59.48 48.02 54.34 48.02 49.95 64.24 59.48 48.02"/><path class="cls-16" d="M1,82.3H19.81l17-65.46L.2,81C-.3,81.5.2,82.3,1,82.3Z"/><path class="cls-2" d="M85.47,65,19.56,82.3H94c.8,0,1.3-.8.8-1.3L85.52,65Z"/><path class="cls-3" d="M75.44,55l10,10L47.9.37a1,1,0,0,0-1.55,0L36.82,16.84,75.44,55Z"/><polygon class="cls-4" points="33.23 78.66 33.23 30.76 19.56 82.3 33.23 78.66"/><polygon class="cls-6" points="33.23 78.66 85.47 65.04 75.44 55.01 33.23 78.66"/><polygon class="cls-7" points="33.23 78.66 42.21 73.52 33.23 41.09 33.23 78.66"/><polygon class="cls-8" points="75.44 55.01 66.41 49.82 42.21 73.52 75.44 55.01"/><polygon class="cls-11" points="35.03 48.02 42.21 73.52 47.35 68.63 37.82 52.41 35.03 48.02"/><polygon class="cls-12" points="59.48 48.02 47.35 68.63 66.41 49.82 59.48 48.02"/><polygon class="cls-17" points="49.95 64.49 37.82 52.66 47.35 68.63 49.95 64.49"/><polygon class="cls-15" points="59.48 48.02 54.34 48.02 49.95 64.24 59.48 48.02"/></g></g></g></g></svg>