<svg id="Layer_1" data-name="Layer 1" xmlns="http://www.w3.org/2000/svg" viewBox="0 0 100 100"><defs><style>.cls-1{fill:#fff;}</style></defs><rect width="100" height="100"/><path class="cls-1" d="M16.32,47l1.78-8.36c10.51,0,20.67-.07,30.82.06a6.36,6.36,0,0,0,5.7-2.57c1.68-2.18,2.71-2.17,4.44,0a6.22,6.22,0,0,0,5.67,2.54c5-.19,10,0,15-.09,1.62,0,2.4.49,2.67,2,.36,2,.8,4,1.29,6.34H79.92c-6.39,0-12.79-.11-19.17.06a6.26,6.26,0,0,1-5.68-2.56c-1.71-2.19-2.72-2.21-4.47-.1a7,7,0,0,1-6.14,2.67C35.3,46.93,26.13,47,16.32,47Z"/><path class="cls-1" d="M16.73,56.11c7.12,0,13.58-.08,20,0a6.61,6.61,0,0,0,5.95-2.63c1.73-2.25,2.57-2.26,4.39,0a6.67,6.67,0,0,0,5.94,2.59c9-.13,18,0,27,0h3.15c-.85,2.57-1.49,4.89-2.41,7.1a2.59,2.59,0,0,1-2,1.2c-10.65.08-21.3.11-31.94,0-1.14,0-2.47-1.07-3.35-2-2.55-2.65-3-2.83-5.38-.1a6.07,6.07,0,0,1-5.35,2.23c-3.77-.15-7.54-.09-11.31,0a2.19,2.19,0,0,1-2.55-1.69C18.3,60.72,17.58,58.67,16.73,56.11Z"/><path class="cls-1" d="M77,29.73c-2.63,0-4.63.28-6.49-.1a7.28,7.28,0,0,1-3.25-2.31c-2.19-2.27-2.92-2.47-4.87-.12a7,7,0,0,1-6.17,2.6c-10-.14-20-.06-29.94-.06H23.06c7.13-8.86,15.82-13.31,26.51-13.45C60.61,16.16,69.58,20.66,77,29.73Z"/><path class="cls-1" d="M74.29,72.71c-12,14.17-36.41,14.38-48.18.51a48.83,48.83,0,0,0,3.64-3.38c1.36-1.53,2.71-1.66,3.82,0,1.65,2.52,3.89,3,6.72,2.93C51.48,72.63,62.67,72.71,74.29,72.71Z"/></svg>