<svg xmlns="http://www.w3.org/2000/svg" viewBox="0 0 100 100"><defs><style>.cls-1{fill:none;}.cls-2{fill:#213147;}.cls-3{fill:#12aaff;}.cls-4{fill:#9dcced;}.cls-5{fill:#fff;}</style></defs><g id="Layer_2" data-name="Layer 2"><g id="Layer_1-2" data-name="Layer 1"><g id="Layer_1-3" data-name="Layer_1"><g id="_2405588477232" data-name=" 2405588477232"><rect class="cls-1" width="100" height="100"/><path class="cls-2" d="M9,30.4V69.6a7,7,0,0,0,3.52,6.08l34,19.6a7.05,7.05,0,0,0,7,0l34-19.6A7,7,0,0,0,91,69.6V30.4a7,7,0,0,0-3.52-6.08l-34-19.6a7.05,7.05,0,0,0-7,0l-34,19.6A7,7,0,0,0,9.08,30.4Z"/><path class="cls-3" d="M57.4,57.6,52.56,70.88a1.91,1.91,0,0,0,0,1.16l8.32,22.84,9.64-5.56L59,57.6A.83.83,0,0,0,57.4,57.6Z"/><path class="cls-3" d="M67.12,35.28a.83.83,0,0,0-1.56,0L60.72,48.56a1.91,1.91,0,0,0,0,1.16l13.64,37.4L84,81.56,67.12,35.32Z"/><path class="cls-4" d="M50,6.2a1.35,1.35,0,0,1,.68.2L87.4,27.6a1.36,1.36,0,0,1,.68,1.2V71.2a1.45,1.45,0,0,1-.68,1.2L50.68,93.6a1.26,1.26,0,0,1-1.36,0L12.6,72.4a1.36,1.36,0,0,1-.68-1.2V28.76a1.45,1.45,0,0,1,.68-1.2L49.32,6.36a1.35,1.35,0,0,1,.68-.2h0ZM50,0a7.61,7.61,0,0,0-3.8,1L9.48,22.2a7.54,7.54,0,0,0-3.8,6.56v42.4a7.54,7.54,0,0,0,3.8,6.56L46.2,98.92a7.5,7.5,0,0,0,3.8,1,7.61,7.61,0,0,0,3.8-1l36.72-21.2a7.54,7.54,0,0,0,3.8-6.56V28.76a7.54,7.54,0,0,0-3.8-6.56L53.76,1A7.5,7.5,0,0,0,50,0h0Z"/><polygon class="cls-2" points="25.68 87.16 29.08 77.88 35.88 83.52 29.52 89.36 25.68 87.16"/><path class="cls-5" d="M46.88,25.76H37.56A1.69,1.69,0,0,0,36,26.84L16,81.56l9.64,5.56,22-60.28a.82.82,0,0,0-.76-1.12Z"/><path class="cls-5" d="M63.2,25.76H53.88a1.69,1.69,0,0,0-1.56,1.08L29.52,89.32l9.64,5.56,24.8-68a.82.82,0,0,0-.76-1.12Z"/></g></g></g></g></svg>