<svg width="100" height="100" viewBox="0 0 100 100" fill="none" xmlns="http://www.w3.org/2000/svg">
<circle cx="50" cy="50" r="50" fill="white"/>
<path d="M89.9013 46.8262C88.4224 25.0571 69.582 8.61337 47.8186 10.0925C36.9796 10.832 27.4583 15.8824 20.8158 23.4453L20.7969 23.4326C20.7495 23.4927 20.7084 23.5527 20.6673 23.616C14.0691 31.2294 10.356 41.3428 11.0923 52.1863C11.1618 53.2229 11.2819 54.2342 11.4304 55.2424C11.4304 55.2898 11.4431 55.3309 11.4494 55.3783C11.5505 56.042 11.6674 56.7057 11.7938 57.3536C11.9139 57.9541 12.0498 58.5514 12.1983 59.1456C16.7615 77.3402 33.8037 90.2253 53.1781 88.9074C74.9383 87.4283 91.3865 68.5858 89.9076 46.8167C89.9108 46.8135 89.9013 46.8262 89.9013 46.8262ZM81.3027 47.414C81.486 50.0941 81.3154 52.7172 80.835 55.2456C80.835 55.2329 80.8224 55.2203 80.8224 55.2045C77.953 48.2073 72.2902 43.1506 67.3131 40.3568C68.3212 28.4988 64.2984 23.4959 59.7416 22.6836C56.1644 22.0105 52.7199 24.3681 52.0468 27.9457C52.0215 28.0722 52.0026 28.2017 51.9868 28.3313C51.5222 31.9405 54.0692 35.2464 57.678 35.7109C57.6844 35.7109 57.6875 35.7109 57.6938 35.7141C58.0098 35.7552 58.3227 35.7678 58.6261 35.7615C58.6482 36.185 58.6608 36.6085 58.6608 37.032C54.4484 35.9922 50.5142 35.7805 46.9243 36.106C45.575 36.1945 44.2319 36.3651 42.9016 36.6117C43.3503 32.6074 44.8545 28.1069 47.7681 24.8201C50.5868 21.6344 54.7771 19.8171 59.3466 20.2849C60.2124 20.3733 61.1383 20.5883 61.9694 20.8664C62.0105 20.879 62.0516 20.8917 62.0863 20.898C72.6726 25.212 80.4685 35.2653 81.2932 47.414C81.2964 47.414 81.3027 47.414 81.3027 47.414ZM53.769 53.4473C53.769 53.4473 53.769 53.4536 53.7627 53.4599C52.7641 54.8948 51.6328 56.2348 50.3814 57.4579C48.4886 55.4573 46.8864 53.2039 45.6224 50.7578C45.5623 50.6282 45.496 50.5144 45.4328 50.3848V50.3722C44.6902 48.7888 44.0992 47.1359 43.6631 45.4419C46.4693 44.7782 49.2185 44.5349 51.8509 44.6645L52.2712 44.6834H52.2838C53.9334 44.8193 55.6493 45.1227 57.4284 45.6094C56.6036 48.3843 55.3743 51.0232 53.7785 53.4378C53.7754 53.441 53.769 53.4473 53.769 53.4473ZM40.2755 20.3639L40.2566 20.3891C35.6271 26.3687 34.085 33.7989 34.1513 39.5035C23.3755 44.5602 21.0623 50.5429 22.6329 54.8979C22.6708 55.0212 22.7213 55.135 22.7687 55.2519C24.175 58.6115 28.0397 60.198 31.4021 58.7948C34.7612 57.3884 36.3476 53.5231 34.9445 50.1604C34.8213 49.8728 34.6791 49.5947 34.5179 49.3293C34.856 49.1049 35.2226 48.8836 35.6144 48.6529C36.8153 52.8247 38.5944 56.3486 40.6705 59.2941C41.4226 60.4097 42.2316 61.4843 43.1164 62.5177C39.4255 64.1327 34.7739 65.0809 30.4667 64.2023C26.3017 63.3521 22.6329 60.6341 20.7463 56.4402C20.3861 55.6185 20.1143 54.7589 19.9342 53.8803C19.8236 53.1249 19.7382 52.3633 19.6845 51.6016C18.7239 37.4492 27.4994 24.8548 40.2755 20.3639ZM52.5935 80.3142C44.1909 80.8894 36.3349 78.0228 30.4003 72.9251C37.8897 73.9459 45.0978 71.5661 50.0054 68.6522C59.7732 75.4597 66.1154 74.4737 69.1017 70.9371C71.4749 68.1718 71.1557 64.0063 68.3907 61.6328C68.2927 61.5475 68.1916 61.4685 68.0873 61.3895C65.1895 59.1803 61.0498 59.7397 58.8409 62.6378L58.8378 62.641C58.6482 62.8907 58.4807 63.1625 58.3322 63.4311C57.9751 63.2478 57.5959 63.0455 57.2104 62.8211C59.9628 59.9799 62.2191 56.6994 63.8813 53.1123C64.4785 51.8987 64.9999 50.6503 65.4487 49.3735C68.694 51.7691 71.8446 55.3151 73.2382 59.4869C74.5844 63.5164 74.0693 68.0611 71.3801 71.7873C70.8492 72.511 70.2425 73.1747 69.5694 73.7689L69.5441 73.7942C64.6839 77.6246 58.7777 79.8938 52.603 80.3047C52.5998 80.3078 52.5935 80.3142 52.5935 80.3142Z" fill="url(#paint0_linear_3610_378)"/>
<defs>
<linearGradient id="paint0_linear_3610_378" x1="23.5436" y1="76.4657" x2="73.9121" y2="26.0964" gradientUnits="userSpaceOnUse">
<stop stop-color="#E6007A"/>
<stop offset="0.21" stop-color="#703AC2"/>
<stop offset="0.46" stop-color="#0070EB"/>
<stop offset="0.77" stop-color="#0297FB"/>
<stop offset="1" stop-color="#0AE2FF"/>
</linearGradient>
</defs>
</svg>
