<svg width="101" height="101" viewBox="0 0 101 101" fill="none" xmlns="http://www.w3.org/2000/svg">
<circle cx="50.7585" cy="50.9177" r="50" fill="white"/>
<path d="M50.7585 90.9177C72.8499 90.9177 90.7585 73.0091 90.7585 50.9177C90.7585 28.8263 72.8499 10.9177 50.7585 10.9177C28.6672 10.9177 10.7585 28.8263 10.7585 50.9177C10.7585 73.0091 28.6672 90.9177 50.7585 90.9177Z" fill="#2E3148"/>
<path d="M50.7585 74.1276C63.577 74.1276 73.9684 63.7362 73.9684 50.9177C73.9684 38.0992 63.577 27.7078 50.7585 27.7078C37.94 27.7078 27.5486 38.0992 27.5486 50.9177C27.5486 63.7362 37.94 74.1276 50.7585 74.1276Z" fill="#1B1E36"/>
<path d="M50.8407 16.0209C46.523 16.0209 43.0219 31.6817 43.0219 51.0004C43.0219 70.3191 46.523 85.9799 50.8407 85.9799C55.1585 85.9799 58.6596 70.3191 58.6596 51.0004C58.6596 31.6817 55.1585 16.0209 50.8407 16.0209ZM51.3806 84.0059C50.8868 84.6644 50.393 84.1703 50.393 84.1703C48.4046 81.8663 47.4103 77.586 47.4103 77.586C43.9323 66.3927 44.7601 42.3598 44.7601 42.3598C46.3947 23.2801 49.3681 18.7729 50.3799 17.7722C50.4833 17.6701 50.6193 17.6077 50.7641 17.596C50.9089 17.5843 51.0532 17.624 51.1716 17.7082C52.6398 18.7486 53.8711 23.0993 53.8711 23.0993C57.5073 36.5972 57.178 49.2721 57.178 49.2721C57.5073 60.3009 55.3559 72.6465 55.3559 72.6465C53.6999 82.0289 51.3806 84.0059 51.3806 84.0059Z" fill="#6F7390"/>
<path d="M81.1816 33.5927C79.0319 29.8461 63.7068 34.6032 46.9416 44.2167C30.1765 53.8301 18.3506 64.6611 20.4988 68.4061C22.6469 72.1511 37.9736 67.3955 54.7388 57.7821C71.5039 48.1687 83.3298 37.3376 81.1816 33.5927ZM22.4821 67.8922C21.6591 67.7885 21.845 67.112 21.845 67.112C22.8546 64.2413 26.0674 61.2487 26.0674 61.2487C34.0492 52.6611 55.3087 41.4199 55.3087 41.4199C72.67 33.3424 78.0626 33.6832 79.4306 34.0599C79.571 34.0991 79.693 34.1867 79.775 34.3072C79.857 34.4278 79.8937 34.5734 79.8786 34.7184C79.7141 36.5104 76.5452 39.7424 76.5452 39.7424C66.6533 49.6173 55.4946 55.6403 55.4946 55.6403C46.092 61.4163 34.3128 65.6912 34.3128 65.6912C25.35 68.921 22.4824 67.8922 22.4824 67.8922H22.4821Z" fill="#6F7390"/>
<path d="M81.1057 68.5307C83.2721 64.7941 71.476 53.9134 54.7697 44.2277C38.0635 34.5419 22.7403 29.7259 20.5758 33.469C18.4113 37.212 30.2056 48.0862 46.9214 57.772C63.6372 67.4578 78.9412 72.2741 81.1057 68.5307ZM22.0113 34.9128C21.6913 34.1541 22.3668 33.9714 22.3668 33.9714C25.3576 33.4066 29.5585 34.6936 29.5585 34.6936C40.9873 37.2962 61.3665 50.0616 61.3665 50.0616C77.0571 61.0411 79.4635 65.8773 79.8241 67.2501C79.8608 67.3909 79.8466 67.5401 79.7839 67.6714C79.7213 67.8028 79.6142 67.9077 79.4817 67.9678C77.8456 68.717 73.4635 67.6008 73.4635 67.6008C59.9572 63.9794 49.1556 57.3442 49.1556 57.3442C39.4504 52.1096 29.8536 44.0552 29.8536 44.0552C22.5614 37.9154 22.0136 34.9211 22.0136 34.9211L22.0113 34.9128Z" fill="#6F7390"/>
<path d="M50.7585 55.0329C53.0313 55.0329 54.8737 53.1905 54.8737 50.9177C54.8737 48.6449 53.0313 46.8025 50.7585 46.8025C48.4857 46.8025 46.6433 48.6449 46.6433 50.9177C46.6433 53.1905 48.4857 55.0329 50.7585 55.0329Z" fill="#B7B9C8"/>
</svg>
