<svg width="1080" height="1080" viewBox="0 0 1080 1080" fill="none" xmlns="http://www.w3.org/2000/svg">
<path d="M540 1080C838.234 1080 1080 838.234 1080 540C1080 241.766 838.234 0 540 0C241.766 0 0 241.766 0 540C0 838.234 241.766 1080 540 1080Z" fill="#E84142"/>
<path d="M730.489 554.032C749.197 521.717 779.386 521.717 798.095 554.032L914.599 758.551C933.308 790.866 918.001 817.229 880.583 817.229H645.875C608.882 817.229 593.575 790.866 611.859 758.551L730.489 554.032ZM505.134 160.299C523.843 127.984 553.607 127.984 572.316 160.299L598.253 207.071L659.481 314.646C674.363 345.26 674.363 381.402 659.481 412.016L454.111 767.906C435.402 796.819 404.363 815.103 369.922 817.229H199.418C162.001 817.229 146.694 791.292 165.402 758.551L505.134 160.299Z" fill="white"/>
</svg>
