<svg width="512" height="512" viewBox="0 0 512 512" fill="none" xmlns="http://www.w3.org/2000/svg">
<circle cx="256" cy="256" r="256" fill="#0055D5"/>
<path fill-rule="evenodd" clip-rule="evenodd" d="M164.353 208.291L156.926 202.555C143.62 194.221 117.291 186.587 118.42 222.715C119.549 258.843 125.879 302.014 128.903 319.083C131.86 328.827 143.58 343.518 166.805 324.325C190.03 305.132 313.575 189.988 372.444 134.815C382.221 127.33 403.951 118.491 412.646 143.014C423.515 173.668 435.726 302.9 431.037 345.878C427.286 380.261 381.187 358.87 358.606 343.877L286.64 299.419C281.054 296.684 272.199 289.07 281.468 280.493C283.266 278.83 284.813 277.289 286.191 275.918C293.693 268.448 296.161 265.991 306.59 276.054C316.466 285.583 343.265 301.865 355.43 308.815C368.076 317.839 393.37 326.757 393.37 290.24C395.016 238.534 387.442 146.029 343.969 189.66C300.496 233.291 188.735 334.333 138.289 379.401C127.31 387.211 102.772 393.051 92.4498 353.935C79.5469 305.039 75.1328 200.458 86.338 153.261C89.6296 147.645 99.6117 138.335 113.207 146.016C126.802 153.697 197.162 195.229 230.643 215.035C233.586 216.972 238.589 221.852 235.057 225.875C232.547 228.735 226.238 235.732 220.973 241.553C217.823 245.035 212.527 245.501 208.812 242.632L183.013 222.704L143.575 259.695C140.299 262.768 134.931 261.284 133.7 256.963L130.87 247.032C129.726 243.015 130.955 238.696 134.044 235.884L164.353 208.291Z" fill="white"/>
</svg>
