<svg width="517" height="930" viewBox="0 0 517 930" fill="none" xmlns="http://www.w3.org/2000/svg">
<mask id="mask0" mask-type="alpha" maskUnits="userSpaceOnUse" x="237" y="237" width="456" height="456">
<circle cx="465.208" cy="465.045" r="227.667" fill="#C4C4C4"/>
</mask>
<g mask="url(#mask0)">
<path opacity="0.5" fill-rule="evenodd" clip-rule="evenodd" d="M-31.4908 -33.589H-34.7166V-30.3631L-31.4908 -33.589ZM36.2511 -33.589H33.0253V-30.3631L36.2511 -33.589ZM-32.136 37.7013H-35.3618L-32.136 34.4755V37.7013ZM32.3801 37.7013H35.606V34.4755L32.3801 37.7013ZM-31.4908 102.217H-34.7166V105.443L-31.4908 102.217ZM36.2511 102.217H33.0253V105.443L36.2511 102.217ZM-32.136 173.508H-35.3618L-32.136 170.282V173.508ZM32.3801 173.508H35.606V170.282L32.3801 173.508ZM101.735 102.217H104.961L101.735 105.443V102.217ZM169.477 102.217H172.703L169.477 105.443V102.217ZM101.09 173.508H104.316V170.282L101.09 173.508ZM172.058 173.508H168.832L172.058 170.282V173.508ZM104.961 -33.589H101.735V-30.3631L104.961 -33.589ZM172.703 -33.589H169.477V-30.3631L172.703 -33.589ZM104.316 37.7013H101.09L104.316 34.4755V37.7013ZM168.832 37.7013H172.058V34.4755L168.832 37.7013ZM-31.4908 238.024H-34.7166V241.25L-31.4908 238.024ZM36.2511 238.024H33.0253V241.25L36.2511 238.024ZM-32.136 309.314H-35.3618L-32.136 306.089V309.314ZM32.3801 309.314H35.606V306.089L32.3801 309.314ZM-31.4908 373.83H-34.7166V377.056L-31.4908 373.83ZM36.2511 373.83H33.0253V377.056L36.2511 373.83ZM-32.136 445.121H-35.3618L-32.136 441.895V445.121ZM32.3801 445.121H35.606V441.895L32.3801 445.121ZM101.735 373.83H104.961L101.735 377.056V373.83ZM169.477 373.83H172.703L169.477 377.056V373.83ZM101.09 445.121H104.316V441.895L101.09 445.121ZM172.058 445.121H168.832L172.058 441.895V445.121ZM104.961 238.024H101.735V241.25L104.961 238.024ZM172.703 238.024H169.477V241.25L172.703 238.024ZM104.316 309.314H101.09L104.316 306.088V309.314ZM168.832 309.314H172.058V306.088L168.832 309.314ZM241.09 -33.589H237.864V-30.3631L241.09 -33.589ZM308.832 -33.589H305.606V-30.3631L308.832 -33.589ZM240.445 37.7013H237.219L240.445 34.4755V37.7013ZM304.961 37.7013H308.187V34.4755L304.961 37.7013ZM241.09 102.217H237.864V105.443L241.09 102.217ZM308.832 102.217H305.606V105.443L308.832 102.217ZM240.445 173.508H237.219L240.445 170.282V173.508ZM304.961 173.508H308.187V170.282L304.961 173.508ZM374.316 102.217H377.541L374.316 105.443V102.217ZM442.058 102.217H445.283L442.058 105.443V102.217ZM373.671 173.508H376.896V170.282L373.671 173.508ZM444.638 173.508H441.412L444.638 170.282V173.508ZM377.541 -33.589H374.316V-30.3631L377.541 -33.589ZM445.283 -33.589H442.058V-30.3631L445.283 -33.589ZM376.896 37.7013H373.671L376.896 34.4755V37.7013ZM441.412 37.7013H444.638V34.4755L441.412 37.7013ZM241.09 238.024H237.864V241.25L241.09 238.024ZM308.832 238.024H305.606V241.25L308.832 238.024ZM240.445 309.314H237.219L240.445 306.089V309.314ZM304.961 309.314H308.187V306.089L304.961 309.314ZM241.09 373.83H237.864V377.056L241.09 373.83ZM308.832 373.83H305.606V377.056L308.832 373.83ZM240.445 445.121H237.219L240.445 441.895V445.121ZM304.961 445.121H308.187V441.895L304.961 445.121ZM374.316 373.83H377.541L374.316 377.056V373.83ZM442.058 373.83H445.283L442.058 377.056V373.83ZM373.67 445.121H376.896V441.895L373.67 445.121ZM444.638 445.121H441.412L444.638 441.895V445.121ZM377.541 238.024H374.316V241.25L377.541 238.024ZM445.283 238.024H442.058V241.25L445.283 238.024ZM376.896 309.314H373.67L376.896 306.088V309.314ZM441.412 309.314H444.638V306.088L441.412 309.314ZM-31.4908 510.282H-34.7166V513.508L-31.4908 510.282ZM36.2511 510.282H33.0253V513.508L36.2511 510.282ZM-32.136 581.572H-35.3618L-32.136 578.347V581.572ZM32.3801 581.572H35.606V578.347L32.3801 581.572ZM-31.4908 646.089H-34.7166V649.314L-31.4908 646.089ZM36.2511 646.089H33.0253V649.314L36.2511 646.089ZM-32.136 717.379H-35.3618L-32.136 714.153V717.379ZM32.3801 717.379H35.606V714.153L32.3801 717.379ZM101.735 646.089H104.961L101.735 649.314V646.089ZM169.477 646.089H172.703L169.477 649.314V646.089ZM101.09 717.379H104.316V714.153L101.09 717.379ZM172.058 717.379H168.832L172.058 714.153V717.379ZM104.961 510.282H101.735V513.508L104.961 510.282ZM172.703 510.282H169.477V513.508L172.703 510.282ZM104.316 581.572H101.09L104.316 578.347V581.572ZM168.832 581.572H172.058V578.347L168.832 581.572ZM-31.4908 781.895H-34.7166V785.121L-31.4908 781.895ZM36.2511 781.895H33.0253V785.121L36.2511 781.895ZM-32.136 853.185H-35.3618L-32.136 849.96V853.185ZM32.3801 853.185H35.606V849.96L32.3801 853.185ZM-31.4908 917.701H-34.7166V920.927L-31.4908 917.701ZM36.2511 917.701H33.0253V920.927L36.2511 917.701ZM-32.136 988.992H-35.3618L-32.136 985.766V988.992ZM32.3801 988.992H35.606V985.766L32.3801 988.992ZM101.735 917.701H104.961L101.735 920.927V917.701ZM169.477 917.701H172.703L169.477 920.927V917.701ZM101.09 988.992H104.316V985.766L101.09 988.992ZM172.058 988.992H168.832L172.058 985.766V988.992ZM104.961 781.895H101.735V785.121L104.961 781.895ZM172.703 781.895H169.477V785.121L172.703 781.895ZM104.316 853.185H101.09L104.316 849.96V853.185ZM168.832 853.185H172.058V849.96L168.832 853.185ZM241.09 510.282H237.864V513.508L241.09 510.282ZM308.832 510.282H305.606V513.508L308.832 510.282ZM240.445 581.572H237.219L240.445 578.347V581.572ZM304.961 581.572H308.187V578.347L304.961 581.572ZM241.09 646.089H237.864V649.314L241.09 646.089ZM308.832 646.089H305.606V649.314L308.832 646.089ZM240.445 717.379H237.219L240.445 714.153V717.379ZM304.961 717.379H308.187V714.153L304.961 717.379ZM374.316 646.089H377.541L374.316 649.314V646.089ZM442.058 646.089H445.283L442.058 649.314V646.089ZM373.671 717.379H376.896V714.153L373.671 717.379ZM444.638 717.379H441.412L444.638 714.153V717.379ZM377.541 510.282H374.316V513.508L377.541 510.282ZM445.283 510.282H442.058V513.508L445.283 510.282ZM376.896 581.572H373.671L376.896 578.347V581.572ZM441.412 581.572H444.638V578.347L441.412 581.572ZM241.09 781.895H237.864V785.121L241.09 781.895ZM308.832 781.895H305.606V785.121L308.832 781.895ZM240.445 853.185H237.219L240.445 849.96V853.185ZM304.961 853.185H308.187V849.96L304.961 853.185ZM241.09 917.701H237.864V920.927L241.09 917.701ZM308.832 917.701H305.606V920.927L308.832 917.701ZM240.445 988.992H237.219L240.445 985.766V988.992ZM304.961 988.992H308.187V985.766L304.961 988.992ZM374.316 917.701H377.541L374.316 920.927V917.701ZM442.058 917.701H445.283L442.058 920.927V917.701ZM373.67 988.992H376.896V985.766L373.67 988.992ZM444.638 988.992H441.412L444.638 985.766V988.992ZM377.541 781.895H374.316V785.121L377.541 781.895ZM445.283 781.895H442.058V785.121L445.283 781.895ZM376.896 853.185H373.67L376.896 849.96V853.185ZM441.412 853.185H444.638V849.96L441.412 853.185ZM513.671 -33.589H510.445V-30.3631L513.671 -33.589ZM581.413 -33.589H578.187V-30.3631L581.413 -33.589ZM513.026 37.7013H509.8L513.026 34.4755V37.7013ZM577.542 37.7013H580.767V34.4755L577.542 37.7013ZM513.671 102.217H510.445V105.443L513.671 102.217ZM581.413 102.217H578.187V105.443L581.413 102.217ZM513.026 173.508H509.8L513.026 170.282V173.508ZM577.542 173.508H580.767V170.282L577.542 173.508ZM646.896 102.217H650.122L646.896 105.443V102.217ZM714.638 102.217H717.864L714.638 105.443V102.217ZM646.251 173.508H649.477V170.282L646.251 173.508ZM717.219 173.508H713.993L717.219 170.282V173.508ZM650.122 -33.589H646.896V-30.3631L650.122 -33.589ZM717.864 -33.589H714.638V-30.3631L717.864 -33.589ZM649.477 37.7013H646.251L649.477 34.4755V37.7013ZM713.993 37.7013H717.219V34.4755L713.993 37.7013ZM513.671 238.024H510.445V241.25L513.671 238.024ZM581.412 238.024H578.187V241.25L581.412 238.024ZM513.025 309.314H509.8L513.025 306.089V309.314ZM577.542 309.314H580.767V306.089L577.542 309.314ZM513.671 373.83H510.445V377.056L513.671 373.83ZM581.412 373.83H578.187V377.056L581.412 373.83ZM513.025 445.121H509.8L513.025 441.895V445.121ZM577.542 445.121H580.767V441.895L577.542 445.121ZM646.896 373.83H650.122L646.896 377.056V373.83ZM714.638 373.83H717.864L714.638 377.056V373.83ZM646.251 445.121H649.477V441.895L646.251 445.121ZM717.219 445.121H713.993L717.219 441.895V445.121ZM650.122 238.024H646.896V241.25L650.122 238.024ZM717.864 238.024H714.638V241.25L717.864 238.024ZM649.477 309.314H646.251L649.477 306.088V309.314ZM713.993 309.314H717.219V306.088L713.993 309.314ZM786.251 -33.589H783.025V-30.3631L786.251 -33.589ZM853.993 -33.589H850.767V-30.3631L853.993 -33.589ZM785.606 37.7013H782.38L785.606 34.4755V37.7013ZM850.122 37.7013H853.348V34.4755L850.122 37.7013ZM786.251 102.217H783.025V105.443L786.251 102.217ZM853.993 102.217H850.767V105.443L853.993 102.217ZM785.606 173.508H782.38L785.606 170.282V173.508ZM850.122 173.508H853.348V170.282L850.122 173.508ZM919.477 102.217H922.703L919.477 105.443V102.217ZM987.219 102.217H990.445L987.219 105.443V102.217ZM918.832 173.508H922.058V170.282L918.832 173.508ZM989.8 173.508H986.574L989.8 170.282V173.508ZM922.703 -33.589H919.477V-30.3631L922.703 -33.589ZM990.445 -33.589H987.219V-30.3631L990.445 -33.589ZM922.058 37.7013H918.832L922.058 34.4755V37.7013ZM986.574 37.7013H989.8V34.4755L986.574 37.7013ZM786.251 238.024H783.025V241.25L786.251 238.024ZM853.993 238.024H850.767V241.25L853.993 238.024ZM785.606 309.314H782.38L785.606 306.089V309.314ZM850.122 309.314H853.348V306.089L850.122 309.314ZM786.251 373.83H783.025V377.056L786.251 373.83ZM853.993 373.83H850.767V377.056L853.993 373.83ZM785.606 445.121H782.38L785.606 441.895V445.121ZM850.122 445.121H853.348V441.895L850.122 445.121ZM919.477 373.83H922.703L919.477 377.056V373.83ZM987.219 373.83H990.445L987.219 377.056V373.83ZM918.832 445.121H922.058V441.895L918.832 445.121ZM989.8 445.121H986.574L989.8 441.895V445.121ZM922.703 238.024H919.477V241.25L922.703 238.024ZM990.445 238.024H987.219V241.25L990.445 238.024ZM922.058 309.314H918.832L922.058 306.088V309.314ZM986.574 309.314H989.8V306.088L986.574 309.314ZM513.671 510.282H510.445V513.508L513.671 510.282ZM581.412 510.282H578.187V513.508L581.412 510.282ZM513.025 581.572H509.8L513.025 578.347V581.572ZM577.542 581.572H580.767V578.347L577.542 581.572ZM513.671 646.089H510.445V649.314L513.671 646.089ZM581.412 646.089H578.187V649.314L581.412 646.089ZM513.025 717.379H509.8L513.025 714.153V717.379ZM577.542 717.379H580.767V714.153L577.542 717.379ZM646.896 646.089H650.122L646.896 649.314V646.089ZM714.638 646.089H717.864L714.638 649.314V646.089ZM646.251 717.379H649.477V714.153L646.251 717.379ZM717.219 717.379H713.993L717.219 714.153V717.379ZM650.122 510.282H646.896V513.508L650.122 510.282ZM717.864 510.282H714.638V513.508L717.864 510.282ZM649.477 581.572H646.251L649.477 578.347V581.572ZM713.993 581.572H717.219V578.347L713.993 581.572ZM513.671 781.895H510.445V785.121L513.671 781.895ZM581.412 781.895H578.187V785.121L581.412 781.895ZM513.025 853.185H509.8L513.025 849.96V853.185ZM577.542 853.185H580.767V849.96L577.542 853.185ZM513.671 917.701H510.445V920.927L513.671 917.701ZM581.412 917.701H578.187V920.927L581.412 917.701ZM513.025 988.992H509.8L513.025 985.766V988.992ZM577.542 988.992H580.767V985.766L577.542 988.992ZM646.896 917.701H650.122L646.896 920.927V917.701ZM714.638 917.701H717.864L714.638 920.927V917.701ZM646.251 988.992H649.477V985.766L646.251 988.992ZM717.219 988.992H713.993L717.219 985.766V988.992ZM650.122 781.895H646.896V785.121L650.122 781.895ZM717.864 781.895H714.638V785.121L717.864 781.895ZM649.477 853.185H646.251L649.477 849.96V853.185ZM713.993 853.185H717.219V849.96L713.993 853.185ZM786.251 510.282H783.025V513.508L786.251 510.282ZM853.993 510.282H850.767V513.508L853.993 510.282ZM785.606 581.572H782.38L785.606 578.347V581.572ZM850.122 581.572H853.348V578.347L850.122 581.572ZM786.251 646.089H783.025V649.314L786.251 646.089ZM853.993 646.089H850.767V649.314L853.993 646.089ZM785.606 717.379H782.38L785.606 714.153V717.379ZM850.122 717.379H853.348V714.153L850.122 717.379ZM919.477 646.089H922.703L919.477 649.314V646.089ZM987.219 646.089H990.445L987.219 649.314V646.089ZM918.832 717.379H922.058V714.153L918.832 717.379ZM989.8 717.379H986.574L989.8 714.153V717.379ZM922.703 510.282H919.477V513.508L922.703 510.282ZM990.445 510.282H987.219V513.508L990.445 510.282ZM922.058 581.572H918.832L922.058 578.347V581.572ZM986.574 581.572H989.8V578.347L986.574 581.572ZM786.251 781.895H783.025V785.121L786.251 781.895ZM853.993 781.895H850.767V785.121L853.993 781.895ZM785.606 853.185H782.38L785.606 849.96V853.185ZM850.122 853.185H853.348V849.96L850.122 853.185ZM786.251 917.701H783.025V920.927L786.251 917.701ZM853.993 917.701H850.767V920.927L853.993 917.701ZM785.606 988.992H782.38L785.606 985.766V988.992ZM850.122 988.992H853.348V985.766L850.122 988.992ZM919.477 917.701H922.703L919.477 920.927V917.701ZM987.219 917.701H990.445L987.219 920.927V917.701ZM918.832 988.992H922.058V985.766L918.832 988.992ZM989.8 988.992H986.574L989.8 985.766V988.992ZM922.703 781.895H919.477V785.121L922.703 781.895ZM990.445 781.895H987.219V785.121L990.445 781.895ZM922.058 853.185H918.832L922.058 849.96V853.185ZM986.574 853.185H989.8V849.96L986.574 853.185Z" fill="white"/>
</g>
</svg>
