<svg id="a121aed2-1be0-4e62-9a5f-562c29147d5e" data-name="Layer 1" xmlns="http://www.w3.org/2000/svg" xmlns:xlink="http://www.w3.org/1999/xlink" viewBox="0 0 512 512"><defs><style>.a7401774-6b29-47ff-a685-4bddc996571f{fill:#fff;}.bebd9020-5e40-407c-9a8c-58120c238c82{fill:#ffae54;fill-rule:evenodd;}.e87716b0-c756-4377-aa7f-1b63759443b5,.f3a2f1d8-89c9-4097-8f82-f4b84e986672{stroke:#ac562a;stroke-width:19.22px;}.f3a2f1d8-89c9-4097-8f82-f4b84e986672{fill:url(#f1fa40da-6fe1-4abe-8465-5cfa171d4d07);}.e87716b0-c756-4377-aa7f-1b63759443b5,.f114c2db-a1ab-440f-93c4-0736641d2d49{fill:#ac562a;}</style><radialGradient id="f1fa40da-6fe1-4abe-8465-5cfa171d4d07" cx="-142.29" cy="-332.68" r="17.98" gradientTransform="matrix(0, 14.35, -14.21, 0, -4471.24, 2298.2)" gradientUnits="userSpaceOnUse"><stop offset="0.33" stop-color="#f7b450"/><stop offset="0.65" stop-color="#ffc977"/><stop offset="1" stop-color="#f90"/></radialGradient></defs><path class="a7401774-6b29-47ff-a685-4bddc996571f" d="M387.44,247.81c3.58-1.79,9,1.79,9,5.38l7.18,26.9c1.79,3.59-1.8,9-5.38,9-3.59,1.79-9-1.8-9-5.38l-7.17-26.9C380.26,253.19,382.06,247.81,387.44,247.81ZM181.2,47c-1.79-3.58-1.79-9,1.8-10.76l23.31-16.14c3.59-1.79,9-1.79,10.76,1.8,1.79,5.38,1.79,9-1.79,12.55L192,50.54C188.38,50.54,183,50.54,181.2,47Z"/><path class="bebd9020-5e40-407c-9a8c-58120c238c82" d="M301.36,142c-26.9-5.38-55.6-1.79-80.7,14.35,35.86-12.56,77.11-3.59,105.8,25.11,39.46,41.24,39.46,107.6,0,147-5.38,5.38-10.76,9-16.14,12.55,14.35-5.38,28.7-12.55,39.46-25.1,28.69-28.7,35.86-69.94,25.1-105.81C344.4,199.39,317.5,174.28,301.36,142Z"/><path class="f3a2f1d8-89c9-4097-8f82-f4b84e986672" d="M471.73,375.14h0c-64.57,120.15-215.21,165-333.57,98.63C18,409.21-25,256.78,39.53,136.62c43-78.91,122-125.53,206.23-129.12,10.76,0,19.73,5.38,25.11,16.14s9,25.11,7.17,39.45V79.23c0,25.11,7.18,50.22,17.94,71.74a111.6,111.6,0,0,0-138.09,52c-30.49,55.59-9,123.74,44.83,154.22s123.74,9,152.44-44.83h0c16.14-30.49,17.93-66.35,5.38-96.84a154.19,154.19,0,0,0,69.94,16.14,162.7,162.7,0,0,0,41.25-5.38c7.17-1.79,16.14-1.79,21.52,1.79s9,7.18,9,12.56C504,285.47,493.25,332.1,471.73,375.14Z"/><path class="e87716b0-c756-4377-aa7f-1b63759443b5" d="M407.16,326.72l9-3.59h0c7.18,17.93-1.79,34.07-7.17,46.63v1.79c-3.59,7.17-7.18,12.55-7.18,17.93-1.79,9-1.79,17.94,0,23.32s7.18,10.76,14.35,12.55c5.38,1.79,14.35,0,25.11-7.17a249.56,249.56,0,0,0,59.18-175.75c0-5.38-3.59-10.76-9-14.35s-14.34-3.58-21.52-1.79a149.21,149.21,0,0,1-39.45,5.38c-25.11,0-48.42-5.38-69.94-17.93,12.55,30.48,10.76,64.56-3.59,95-1.79,5.38-5.38,9-9,14.35,7.18-1.79,14.35-5.38,25.11-12.55C385.64,301.61,401.78,310.58,407.16,326.72Zm0,0c5.39,14.34-1.79,26.9-7.17,39.45-3.59,7.17-7.17,14.35-9,21.52ZM235,143.79h0c-25.1,7.18-44.83,3.59-59.18-3.58-14.34-9-26.9-21.52-32.28-35.87-7.17-16.14-9-32.28-5.38-46.63s10.76-25.1,21.52-30.48C190.17,14.67,222.45,7.5,252.94,7.5c9,0,16.14,5.38,21.52,14.35s7.17,21.52,5.38,32.28C278,61.3,278,70.27,278,79.23c0,25.11,7.18,50.22,17.94,71.74A103.13,103.13,0,0,0,235,143.79Z"/><circle class="f114c2db-a1ab-440f-93c4-0736641d2d49" cx="68.22" cy="199.39" r="12.55"/><circle class="f114c2db-a1ab-440f-93c4-0736641d2d49" cx="254.73" cy="423.56" r="12.55"/><circle class="f114c2db-a1ab-440f-93c4-0736641d2d49" cx="175.82" cy="434.32" r="21.52"/></svg>