<svg id="b9a5eeb6-f778-4f38-861e-811145d4b6f5" data-name="Layer 1" xmlns="http://www.w3.org/2000/svg" viewBox="0 0 512 512"><defs><style>.a2723958-f537-4167-b9bc-bfb70bee757e{fill:#fff;}.af4c7ab7-775d-4127-b0e7-0d35281468e5{fill:#e2b900;}.adc81965-afd3-4a95-a311-9ba961120630{fill:#004b95;}.a67c6390-4640-4540-8b8a-f1d6cb771134{fill:#a4234b;}.f4a9ff9f-42d8-4c48-b005-9c19712c545e{fill:#db2f36;}.a9c7a210-e8a7-49df-8c1f-3b43ddbba165{fill:#ffdf00;}</style></defs><circle class="a2723958-f537-4167-b9bc-bfb70bee757e" cx="256" cy="256" r="256"/><path d="M303.22,89.81c-15.57,10.81-30.57,15.84-47.22,15.84s-31.65-5-47.21-15.84L204.73,87l-4.11,2.72C183,101.37,168.74,103.5,146.93,103.5a72.83,72.83,0,0,1-23.38-4.1l-5.18-1.79-3.15,4.48c-1.67,2.39-2.92,3.9-4.12,5.36a54.48,54.48,0,0,0-4.53,6.15l-2.63,4.24,3,4c13.33,17.72,18.36,35.94,18.36,53.09,0,32-17.49,60.25-31.26,74.54l-5,5.15,5.06,5c2.71,2.71,7.55,7.73,11.55,11.93l-.16,2.21,0,.4q-.24,4.59-.24,9.18c0,32.48,9.6,59.49,28.6,80.37,22,24.19,56.39,38.62,97,40.87,10.1,9.2,20.36,16.83,20.81,17.17L256,425l4.34-3.23c.46-.34,10.66-8,20.74-17.16,40.65-2.25,75.05-16.68,97.05-40.87,19-20.89,28.6-47.89,28.6-80.37,0-3-.09-6.07-.25-9.18v-.07l0-.4s-.15-2-.16-2.14c3.71-3.89,8.7-9.08,11.55-11.93l5.06-5-5-5.15c-13.77-14.3-31.26-42.56-31.26-74.55,0-17.15,5-35.37,18.36-53.08l3-4-2.63-4.23a50.7,50.7,0,0,0-4.53-6.16c-1.2-1.46-2.45-3-4.12-5.36l-3.15-4.48-5.18,1.79a72.78,72.78,0,0,1-23.38,4.1c-21.8,0-36.1-2.13-53.68-13.78L307.27,87Z"/><path class="af4c7ab7-775d-4127-b0e7-0d35281468e5" d="M256,415.93s-11.62-8.62-22.12-18.42c-68.67-2.85-125.5-41.36-121.16-122.93.26-2.16,0-2,.41-5.68-3.93-4.17-10.45-11-13.89-14.4,24.63-25.56,53.38-84,13.48-137,2.62-4.22,4.52-5.62,8.43-11.17a79.87,79.87,0,0,0,25.75,4.5c22.88,0,38.5-2.27,57.7-15,15.19,10.54,31.65,17.14,51.37,17.14s36.18-6.6,51.37-17.14c19.2,12.72,34.82,15,57.7,15a80,80,0,0,0,25.76-4.5c3.9,5.55,5.8,7,8.42,11.17-39.89,53-11.15,111.49,13.48,137.05-3.44,3.43-10,10.23-13.89,14.4.37,3.67.15,3.52.41,5.68,4.34,81.57-52.49,120.08-121.16,122.93-10.5,9.8-22.06,18.42-22.06,18.42Z"/><path d="M125.78,269.71h-1l-.41,3.51-.3,2.26c-1.6,31.42,6.23,56.81,23.28,75.51,19.55,21.45,51.24,33.67,91.62,35.34h.68c12.11.07,23.56.13,33.29,0,40.42-1.67,72.1-13.89,91.65-35.34,17.05-18.7,24.89-44.09,23.29-75.45,0-.06-.31-2.33-.31-2.33l-.41-3.46-1,0Z"/><path class="adc81965-afd3-4a95-a311-9ba961120630" d="M126.75,271.89l-.2,1.67-.28,2.09q-.19,3.86-.2,7.73c0,27.21,7.7,49.44,22.92,66.14a85,85,0,0,0,12.2,11V271.89Zm259,3.82-.28-2.16-.2-1.66H350.81V360.5a85,85,0,0,0,12.2-11c15.23-16.71,22.92-38.93,22.92-66.12C385.93,280.88,385.87,278.31,385.73,275.71Z"/><path class="a67c6390-4640-4540-8b8a-f1d6cb771134" d="M199.11,271.89H161.19V360.5c10.49,7.8,23.24,13.76,37.92,17.77Zm113.78,0V378.27c14.69-4,27.43-10,37.92-17.77V271.89Z"/><path class="adc81965-afd3-4a95-a311-9ba961120630" d="M219.65,326.47a36.33,36.33,0,0,1,17.39-31V271.89H199.11V378.27A178.75,178.75,0,0,0,237,384.05V357.49A36.33,36.33,0,0,1,219.65,326.47ZM275,271.89v23.56a36.36,36.36,0,0,1,0,62v26.56a178.65,178.65,0,0,0,37.93-5.78V271.89Z"/><path class="a67c6390-4640-4540-8b8a-f1d6cb771134" d="M275,295.45V271.89H237v23.56a36.39,36.39,0,0,1,37.92,0Zm-37.92,62v26.56l2,.1h.64c12.1.07,23.54.13,33.22,0l2-.1V357.49a36.39,36.39,0,0,1-37.92,0Z"/><path class="af4c7ab7-775d-4127-b0e7-0d35281468e5" d="M237.45,333.07c-6.58-6-6.6-18.17-4.83-26.25.49-2.26,1.11-4.46,1.74-7a34.36,34.36,0,0,0-10.18,39.49,13.2,13.2,0,0,0,1.78.12,12.68,12.68,0,0,0,11.49-6.38Zm35.32,2.62c-1.12,5.75-7.27,10.06-13.07,13.52-6,3.56-15.6,5.4-22.85,5.73a34.32,34.32,0,0,0,49.2-11.9c-1-8.46-9.07-9.46-13.28-7.35Z"/><path class="af4c7ab7-775d-4127-b0e7-0d35281468e5" d="M234.19,353c7.16.05,18.16-1.75,24.47-5.51,8.15-4.86,14.48-10.05,11.47-17.24-1.52-3.64-6.58-7.85-13.13-3.21-.42,5.37-7.05,10.11-11.8,9.5a14.32,14.32,0,0,1-6.12-2.17A14.7,14.7,0,0,1,226,341.49c-.28,0-.56,0-.83,0A34.44,34.44,0,0,0,234.19,353Zm21.72-47.87c5.68-2.36,13.54.7,19.54,4.05a39.87,39.87,0,0,1,14.8,15.26,34.32,34.32,0,0,0-33.95-32.24C250.88,295.71,251.62,302.42,255.91,305.09Z"/><path class="af4c7ab7-775d-4127-b0e7-0d35281468e5" d="M255,327a13.21,13.21,0,0,1-3.57-18,10.11,10.11,0,0,1,2.57-2.8,9.51,9.51,0,0,1-.95-13.91,34.07,34.07,0,0,0-16.07,5.65c-1.5,6.45-3.41,12.33-3.31,19.06.13,9.07,3.88,16.46,11.83,17.48,3.72.47,9.07-3.48,9.5-7.5Z"/><path class="af4c7ab7-775d-4127-b0e7-0d35281468e5" d="M290.17,329.62c-2-7.09-9-14.94-15.72-18.7-8.29-4.63-17.36-7.14-21.34-.83A11.15,11.15,0,0,0,256,325.21c7.89-5.45,14.19-.15,16,4.21a11.59,11.59,0,0,1,.94,4c4.65-1.64,12.22-.59,14.55,6.68a34.14,34.14,0,0,0,2.67-10.47Z"/><path d="M224.72,230.15h-24v33.73h7.31V250H218v-7.12h-9.95v-5.52h17v-7.16ZM238.67,247c0,10.55,5.8,17.38,14.79,17.38,5.85,0,10.07-2.58,12.53-7.66l.14-.29L260,252.81l-.18.3c-1.75,2.93-3.42,4-6.15,4-4.48,0-7.48-4.06-7.48-10.11,0-6.25,2.85-10.12,7.43-10.12a5.94,5.94,0,0,1,5.72,3.39l.16.3,6.76-3.12-.15-.32c-2.38-4.92-6.67-7.51-12.4-7.51-8.84,0-15,7.14-15,17.38Zm68.22-1.41a7.65,7.65,0,0,0,3.24-6.38c0-5.68-4.05-9.08-10.82-9.08h-15.5v33.73h15.35c7.58,0,12.1-4.12,12.1-11a7.9,7.9,0,0,0-4.37-7.26ZM291,236.94h8c3.29,0,3.71,1.5,3.71,2.81,0,1.86-1.11,2.76-3.38,2.76H291Zm8.42,20H291v-7.83h8.42c3,0,4.37,1.23,4.37,3.89S302.26,256.9,299.4,256.9ZM307,109.6c-16.34,9.88-33,14.69-51,14.71s-34.65-4.83-51-14.71l-.55-.33-.55.31c-18.61,10.52-35,12.58-57,12.58a86.41,86.41,0,0,1-16.22-1.58l-2.35-.45,1.21,2.07c22.6,38.67,14.57,76.06,3.87,100.62l-.67,1.52H379.23l-.67-1.52c-10.7-24.56-18.73-61.95,3.87-100.62l1.21-2.07-2.35.45a86.3,86.3,0,0,1-16.21,1.58c-22,0-38.38-2.06-57-12.58l-.55-.31-.55.33Z"/><path class="a2723958-f537-4167-b9bc-bfb70bee757e" d="M180.41,121.23c-10.32,2.45-21,3.11-33.48,3.11A88.34,88.34,0,0,1,132.5,123,107.42,107.42,0,0,1,144,153.48h36.38V121.23Zm74.5,32.25v-27a95.79,95.79,0,0,1-37.51-8v35Zm-109.85,37a129.61,129.61,0,0,1-9,31.68h44.34V190.48Zm72.34,31.68h37.51V190.48H217.4v31.68Z"/><path class="f4a9ff9f-42d8-4c48-b005-9c19712c545e" d="M217.4,153.48v-35a112.38,112.38,0,0,1-13-6.67,92.08,92.08,0,0,1-24,9.46v32.25H144a102.87,102.87,0,0,1,2.2,21.14,110.29,110.29,0,0,1-1.17,15.86h35.35v31.68h37V190.48h37.51v-37Z"/><path class="a9c7a210-e8a7-49df-8c1f-3b43ddbba165" d="M307.58,111.77l-.06,0V222.16h13V117.82a95.87,95.87,0,0,1-12.95-6Zm-26.07,11.29v99.1h13V118.48A97.91,97.91,0,0,1,281.51,123.06Zm-24.42,3.41v95.69h11.42V125.67A101.43,101.43,0,0,1,257.09,126.47Zm76.45-4.82V222.16h13V123.6a108.45,108.45,0,0,1-13-1.95Zm32.23,53A104.39,104.39,0,0,1,379.5,123a88.22,88.22,0,0,1-14.42,1.3c-1.89,0-3.72,0-5.54-.06v97.88h16.4c-5.51-13-10.17-29.37-10.17-47.54Z"/><path class="f4a9ff9f-42d8-4c48-b005-9c19712c545e" d="M346.54,123.6v98.56h13V124.28C355,124.2,350.7,124,346.54,123.6Zm-78,2.07v96.49h13v-99.1A95.89,95.89,0,0,1,268.51,125.67Zm26-7.19V222.16h13V111.8A111.92,111.92,0,0,1,294.52,118.48Zm26-.66V222.16h13V121.65A90.53,90.53,0,0,1,320.53,117.82Z"/></svg>