<?xml version="1.0" encoding="utf-8"?>
<!-- Generator: Adobe Illustrator 24.1.2, SVG Export Plug-In . SVG Version: 6.00 Build 0)  -->
<svg version="1.1" id="Layer_1" xmlns="http://www.w3.org/2000/svg" xmlns:xlink="http://www.w3.org/1999/xlink" x="0px" y="0px"
	 viewBox="0 0 512 512" style="enable-background:new 0 0 512 512;" xml:space="preserve">
<style type="text/css">
	.st0{fill:#0AC18E;}
	.st1{fill:#FFFFFF;}
</style>
<circle class="st0" cx="256" cy="256" r="256"/>
<path class="st1" d="M339.2,168c-12.8-32-43.2-33.6-80-27.2L246.4,96l-27.2,8l12.8,43.2c-6.4,1.6-14.4,4.8-22.4,6.4l-12.8-44.8
	l-27.2,8l12.8,44.8c-6.4,1.6-11.2,3.2-17.6,4.8l0,0L128,179.2l8,28.8c0,0,20.8-6.4,19.2-6.4c11.2-3.2,16,1.6,19.2,8l14.4,51.2h3.2
	l-3.2,1.6l20.8,72c0,3.2,0,9.6-8,12.8l-19.2,6.4l3.2,33.6l35.2-9.6l19.2-4.8l12.8,44.8l27.2-8l-12.8-44.8c7.7-1.4,15.2-3.5,22.4-6.4
	l12.8,44.8l27.2-8l-12.8-44.8c44.8-16,73.6-36.8,65.6-81.6c-6.4-35.2-27.2-46.4-56-44.8C342.4,208,348.8,192,339.2,168L339.2,168z
	 M329.6,276.8c9.6,33.6-49.6,46.4-68.8,52.8l-17.6-60.8C262.4,264,318.4,241.6,329.6,276.8L329.6,276.8z M291.2,195.2
	c9.6,30.4-40,41.6-56,46.4l-16-54.4C235.2,182.4,283.2,163.2,291.2,195.2z"/>
</svg>
