<svg width="243" height="37" viewBox="0 0 243 37" fill="none" xmlns="http://www.w3.org/2000/svg">
<path d="M147.882 0.90741H149.665V36.3007H147.882V0.90741ZM9.27764 21.1322C10.4523 21.1322 11.2623 20.4041 11.2623 19.231C11.2623 17.9771 10.3713 17.3299 9.23714 17.3299H5.34875V21.1322H9.27764ZM8.75109 13.6086C9.8042 13.6086 10.4928 13.0827 10.4928 12.031C10.4928 11.0198 9.76369 10.413 8.71059 10.413H5.34875V13.6086H8.75109ZM0.0427246 6.0445H9.72319C11.5054 6.0445 12.923 6.48945 13.8951 7.29844C15.0292 8.18833 15.6773 9.5636 15.6773 11.1816C15.6773 13.0423 14.9482 14.2153 13.3686 14.9434V14.9838C15.3938 15.6715 16.5684 17.4513 16.5684 19.7164C16.5684 21.8603 15.7988 23.4378 14.4217 24.3681C13.2875 25.2176 11.8294 25.6221 9.92571 25.6221H0.0427246V6.0445ZM17.5405 6.0445H22.6035V25.6221H17.5405V6.0445ZM33.013 18.6647C33.013 16.3187 32.2434 14.7411 30.7043 14.7411C29.1651 14.7411 28.4361 16.3187 28.4361 18.6647C28.4361 21.0108 29.1651 22.5884 30.7043 22.5884C32.2434 22.5884 33.013 21.0108 33.013 18.6647ZM23.4541 18.6647C23.4541 14.3771 26.3298 11.2625 30.7853 11.2625C35.2407 11.2625 38.0355 14.458 38.0355 18.6647C38.0355 22.8715 35.2407 26.067 30.7853 26.067C26.3298 26.067 23.4541 22.8715 23.4541 18.6647ZM48.0805 18.6647C48.0805 16.3187 47.3109 14.7411 45.7718 14.7411C44.2326 14.7411 43.5036 16.3187 43.5036 18.6647C43.5036 21.0108 44.2326 22.5884 45.7718 22.5884C47.3109 22.5884 48.0805 21.0108 48.0805 18.6647ZM38.5621 18.6647C38.5621 14.3771 41.4378 11.2625 45.8933 11.2625C50.3487 11.2625 53.1435 14.458 53.1435 18.6647C53.1435 22.8715 50.3487 26.067 45.8933 26.067C41.4378 26.067 38.5621 22.8715 38.5621 18.6647ZM54.1966 11.667H58.8546V13.7299H58.8951C59.8672 12.1119 61.0823 11.222 63.1075 11.222C64.8897 11.222 66.1858 12.1119 66.8744 13.649H66.9149C68.049 11.7883 69.5476 11.222 71.2488 11.222C74.5296 11.222 75.9068 13.649 75.9068 16.8445V25.6221H70.9653V17.7749C70.9653 16.3591 70.5197 15.4288 69.2641 15.4288C68.0085 15.4288 67.4009 16.5614 67.4009 18.058V25.6221H62.4594V17.7749C62.4594 16.3591 62.0139 15.4288 60.7583 15.4288C59.5026 15.4288 58.8951 16.5614 58.8951 18.058V25.6221H53.9536V11.6265H54.1966V11.667ZM87.0049 18.5434C87.0049 16.3591 86.2353 14.9434 84.6962 14.9434C83.157 14.9434 82.1849 16.5209 82.1849 18.5434C82.1849 20.6063 83.1975 22.1434 84.6962 22.1434C86.1948 22.1434 87.0049 20.7681 87.0049 18.5434ZM82.2254 23.8423L82.1849 25.6221H77.5269V6.00405H82.4684V13.0827H82.5089C83.481 11.8288 84.6556 11.1816 86.4378 11.1816C90.0427 11.1816 92.0679 14.5389 92.0679 18.5839C92.0679 23.3569 89.9212 26.067 86.3973 26.067C84.6556 26.067 83.076 25.4198 82.2254 23.8423ZM97.698 17.1681H102.315C102.072 15.5906 101.262 14.7007 100.128 14.7007C98.7105 14.6198 97.9815 15.631 97.698 17.1681ZM92.878 18.6243C92.878 14.4176 95.7538 11.222 99.9662 11.222C102.032 11.222 103.612 11.9501 104.867 13.1232C106.487 14.7007 107.216 17.1681 107.176 19.9591H97.6574C97.941 21.5771 98.7915 22.5479 100.25 22.5479C101.1 22.5479 101.708 22.2243 102.113 21.4962H106.892C106.609 22.7501 105.637 23.9636 104.341 24.8535C103.085 25.703 101.829 26.0266 100.047 26.0266C95.7943 26.0266 92.878 22.8715 92.878 18.6243ZM112.482 13.7299H112.522C113.576 11.9906 114.872 11.3029 116.573 11.3029C116.978 11.3029 117.261 11.3434 117.342 11.4243V15.8737H117.221C114.345 15.3883 112.603 16.7232 112.603 19.8782V25.6221H107.662V11.6265H112.32V13.6895C112.401 13.7299 112.482 13.7299 112.482 13.7299ZM127.225 18.0985C127.225 16.3591 126.375 14.9434 124.957 14.9434C123.54 14.9434 122.689 16.1973 122.689 18.0985C122.689 19.9591 123.58 21.294 124.957 21.294C126.375 21.294 127.225 19.9591 127.225 18.0985ZM118.193 25.8648H122.932C123.094 26.4311 123.702 27.0378 124.917 27.0378C126.496 27.0378 127.063 26.0266 127.063 24.6108V23.3569H126.942C126.172 24.3277 125.16 24.9344 123.58 24.9344C120.542 24.9344 117.909 22.6692 117.909 18.3007C117.909 14.2962 120.056 11.1816 123.378 11.1816C125.241 11.1816 126.415 11.9501 127.144 13.1636H127.185V11.6265H131.843V23.9232C131.843 26.1479 131.073 27.9277 129.858 28.9389C128.603 30.0715 126.861 30.476 124.917 30.476C121.231 30.5165 118.639 28.9389 118.193 25.8648ZM181.622 36.2603C181.217 36.3007 180.853 36.2603 180.488 36.2198C179.8 36.1794 179.152 36.0985 178.503 35.9771C177.45 35.8153 176.438 35.4917 175.425 35.0064C173.521 34.1165 172.144 32.9839 170.929 31.285C169.876 29.8288 168.945 28.494 167.324 28.494C166.879 28.494 166.028 28.8985 165.745 29.0198C165.299 28.6962 165.056 28.4535 165.016 28.1704C164.894 27.7659 165.34 27.6041 165.542 27.5636C165.947 27.3209 166.393 27.24 166.838 27.1187C167.122 27.0783 167.405 26.9569 167.689 26.876L168.864 26.5524C169.147 26.5119 169.431 26.3906 169.755 26.3097C166.271 25.3389 164.125 22.2243 164.125 17.6131C164.125 9.52316 170.727 1.8782 177.693 1.8782C182.635 1.8782 185.673 5.35686 185.673 10.9389C185.673 17.2895 181.501 23.6805 176.033 25.8648C174.615 26.4311 171.942 27.0378 170.727 27.4423C173.805 27.8468 176.033 29.9906 177.086 31.7299C177.815 32.8625 178.503 34.0356 179.719 34.6423C180.043 34.8041 180.326 34.9255 180.731 34.9659C181.015 35.0064 181.46 35.0872 181.906 35.1277C181.865 35.3704 181.784 35.9771 181.622 36.2603ZM167.689 27.8468C169.674 27.9681 170.686 29.303 171.739 30.7592C173.157 32.6603 174.899 34.6423 179.516 35.2086C177.977 34.521 177.086 33.5097 176.235 32.1749C174.818 29.9097 173.521 27.8468 169.471 27.9681L169.431 27.4018C169.309 27.4423 169.188 27.4423 169.107 27.4423L167.932 27.7659C167.851 27.7659 167.729 27.8468 167.689 27.8468ZM174.332 3.33438C169.269 5.23551 165.097 11.1816 165.097 17.4917C165.097 21.2131 166.514 23.8423 169.026 24.9749C168.175 24.2468 167.729 23.1142 167.729 21.6176C167.729 17.8153 171.091 7.94563 172.387 5.59956C173.035 4.62877 173.643 3.81977 174.332 3.33438ZM180.731 3.37483C181.582 4.10292 181.987 5.15462 181.987 6.6917C181.987 10.6962 178.463 20.5659 177.248 22.7501C176.681 23.7209 176.114 24.449 175.385 24.9344C175.425 24.9344 175.506 24.894 175.547 24.894C180.731 22.8311 184.62 16.8041 184.62 10.858C184.66 7.09619 183.283 4.50742 180.731 3.37483ZM177.653 3.37483C175.587 3.37483 174.372 4.10292 173.319 6.00405C172.144 8.18832 168.742 17.9771 168.742 21.5771C168.742 23.8827 169.755 24.894 172.104 24.894C174.17 24.894 175.385 24.1659 176.438 22.2648C177.693 19.9591 181.055 10.2917 181.055 6.6917C181.015 4.38608 180.002 3.37483 177.653 3.37483ZM235.29 26.2693C234.278 26.2693 233.427 25.8648 232.86 25.0962C232.131 24.1254 232.009 22.7501 232.455 21.1726L235.169 12.7591H233.022V12.2333C233.022 12.2333 233.427 10.9389 233.751 10.9389H235.736L237.153 6.449L241.973 6.2872L240.434 10.9389H242.702V11.4647C242.702 11.4647 242.257 12.7591 241.973 12.7591H239.908L236.546 23.4782C236.505 23.5996 236.505 23.7209 236.546 23.8018C236.546 23.8423 236.667 23.8423 236.708 23.8423C237.437 23.8423 238.044 23.5187 238.895 21.9816L239.138 21.5771L240.758 22.1839L240.515 22.6288C239.422 25.0153 237.558 26.2693 235.29 26.2693ZM236.546 11.7479L233.467 21.4153C233.062 22.6693 233.184 23.7614 233.71 24.4895C234.116 25.0153 234.683 25.258 235.331 25.258C236.1 25.258 236.91 25.0962 237.518 24.6917C236.91 24.8535 236.1 24.8535 235.776 24.3681C235.533 24.0445 235.493 23.64 235.614 23.1142L239.138 11.8288L240.596 7.21754L237.842 7.33888L236.546 11.7479ZM226.015 26.2693C223.868 26.2693 222.734 24.7322 222.734 23.2355C222.734 21.8198 223.341 20.3636 223.99 19.0288C224.597 17.6131 225.245 16.2378 225.245 14.822C225.245 13.9726 224.962 13.9726 224.719 13.9726C223.463 13.9726 222.41 15.2265 220.223 19.2715L218.157 26.0266H213.418L217.144 14.2962C217.266 13.8917 217.266 13.6086 217.144 13.5277C217.144 13.5277 217.104 13.4063 216.901 13.4063C216.577 13.4063 216.172 13.5277 215.565 14.8625L215.403 15.267L213.701 14.7007L213.945 14.1749C214.836 12.1928 216.577 10.9793 218.521 10.9793C219.534 10.9793 220.385 11.3838 220.952 12.1119C221.235 12.5164 221.519 13.1232 221.559 14.013C223.098 11.9501 224.759 10.9793 226.622 10.9793C228.647 10.9793 229.903 12.2333 229.903 14.3367C229.903 16.4805 228.891 18.6243 228.121 20.3636C227.594 21.4962 227.108 22.5074 227.108 23.1142C227.108 23.8827 227.432 23.8827 227.594 23.8827C228.202 23.8827 228.85 23.5591 229.782 22.0221L230.025 21.6985L231.604 22.3861L231.361 22.8311C230.227 24.894 228.202 26.2693 226.015 26.2693ZM224.8 13.0018C225.488 13.0018 226.258 13.3254 226.258 14.8625C226.258 16.44 225.569 17.9367 224.921 19.4737C224.314 20.8086 223.746 22.103 223.746 23.276C223.746 24.2468 224.476 25.2985 226.015 25.2985C226.744 25.2985 227.432 25.1367 228.04 24.8131C227.878 24.8535 227.716 24.8535 227.513 24.8535C226.541 24.8535 226.055 24.1659 226.055 23.1142C226.055 22.2647 226.582 21.2131 227.108 19.9591C227.878 18.3412 228.85 16.3187 228.85 14.3367C228.85 12.7591 228.08 11.9906 226.541 11.9906C225.691 11.9906 224.638 12.2333 223.26 13.4468C223.827 13.1232 224.273 13.0018 224.8 13.0018ZM214.755 24.9749H217.468L219.372 18.867C219.939 17.8558 220.425 16.9659 220.911 16.2378L220.304 15.9546C220.749 14.5389 220.709 13.3659 220.142 12.6378C219.696 12.031 219.008 11.9097 218.521 11.9097C217.914 11.9097 217.266 12.0715 216.78 12.3546C217.225 12.3142 217.671 12.476 217.954 12.8805C218.238 13.285 218.278 13.8917 218.076 14.5794L214.755 24.9749ZM207.747 26.2693C205.763 26.2693 204.467 24.9749 204.467 22.9928C204.467 21.2535 205.317 19.5142 206.168 17.7749C206.856 16.3591 207.464 15.0243 207.464 14.013C207.464 13.3254 207.302 13.3254 207.059 13.3254C206.816 13.3254 206.087 13.8917 205.722 14.7816L205.56 15.1861L203.859 14.6198L204.102 14.094C204.993 12.0715 206.816 10.8984 208.922 10.8984C210.907 10.8984 212 12.476 212 13.9726C212 15.8737 210.988 17.8962 210.137 19.7164C209.53 21.0108 208.882 22.2243 208.882 23.0737C208.882 23.8423 209.165 23.8423 209.408 23.8423C210.137 23.8423 210.745 23.5187 211.595 21.9816L211.838 21.5771L213.418 22.2648L213.175 22.7097C212.081 24.8535 209.935 26.2693 207.747 26.2693ZM207.059 12.3951C207.95 12.3951 208.476 12.9614 208.476 14.013C208.476 15.267 207.788 16.7232 207.059 18.2198C206.289 19.8378 205.479 21.5367 205.479 23.0333C205.479 24.449 206.33 25.2985 207.747 25.2985C208.436 25.2985 209.084 25.1367 209.773 24.8131H209.368C208.922 24.8131 207.909 24.6513 207.909 23.0737C207.909 22.0625 208.517 20.7681 209.246 19.3119C210.097 17.6131 210.988 15.7119 210.988 14.013C210.988 12.9614 210.259 11.9501 208.922 11.9501C208.274 11.9501 207.585 12.1119 207.018 12.3951H207.059ZM198.188 26.2693C197.054 26.2693 196.123 25.8243 195.475 24.9749C195.11 24.449 194.908 23.8423 194.867 23.2355C193.328 25.2985 191.829 26.2288 190.047 26.2288C187.981 26.2288 186.564 24.894 186.564 22.8715C186.564 20.7277 187.536 18.5029 188.305 16.6827C188.832 15.5097 189.278 14.4175 189.278 13.8108C189.278 13.3659 189.237 13.3254 189.237 13.3254H189.075C188.792 13.3254 188.305 13.7704 187.779 14.7816L187.617 15.1861L185.997 14.6198L186.24 14.094C187.131 12.1119 188.711 10.9389 190.695 10.9389C192.599 10.9389 193.774 12.0715 193.774 13.9322C193.774 15.3479 193.166 16.8041 192.518 18.1389C191.91 19.5546 191.262 20.9299 191.262 22.3052C191.262 23.1546 191.546 23.1546 191.748 23.1546C193.004 23.1546 194.017 21.9007 196.244 17.9367L198.31 11.1816L203.13 11.0602L199.201 23.4782C199.161 23.7209 199.161 23.7614 199.161 23.8018C199.161 23.8018 199.282 23.8423 199.566 23.8423C200.254 23.8423 200.7 23.5591 201.591 22.0625L201.753 21.7389L203.454 22.3052L203.17 22.8311C201.996 25.0153 200.254 26.2693 198.188 26.2693ZM195.596 20.9704L196.204 21.2535C195.758 22.5884 195.799 23.6805 196.325 24.4086C197.054 25.4198 198.918 25.5412 200.214 24.7322C200.052 24.7726 199.809 24.7726 199.606 24.7726C199.039 24.7726 198.634 24.6108 198.431 24.2468C198.269 24.0041 198.148 23.6805 198.31 23.0737L201.793 11.9906L199.039 12.1524L197.135 18.3412C196.528 19.3928 196.042 20.2423 195.596 20.9704ZM189.156 12.3142C189.926 12.3142 190.331 12.84 190.331 13.8513C190.331 14.6198 189.885 15.7119 189.278 17.1277C188.548 18.867 187.576 21.0108 187.576 22.9119C187.576 24.449 188.548 25.3389 190.047 25.3389C190.938 25.3389 192.032 25.0962 193.247 23.7614C192.72 24.085 192.234 24.2872 191.667 24.2872C191.1 24.2872 190.128 24.0445 190.128 22.4266C190.128 20.849 190.817 19.3524 191.465 17.8153C192.072 16.4805 192.639 15.1861 192.639 14.013C192.639 12.6782 191.91 11.9906 190.574 11.9906C190.007 11.9906 189.44 12.1119 188.954 12.3951L189.156 12.3142ZM210.623 9.15911C209.287 9.15911 208.152 8.10743 208.152 6.81304C208.152 5.39731 209.206 4.26473 210.623 4.26473C211.96 4.26473 212.972 5.39731 212.972 6.81304C212.972 8.10743 211.919 9.15911 210.623 9.15911ZM210.623 5.3164C209.773 5.3164 209.084 5.92315 209.084 6.85349C209.084 7.62203 209.773 8.26923 210.623 8.26923C211.352 8.26923 212.041 7.66248 212.041 6.85349C212 5.9636 211.393 5.3164 210.623 5.3164Z" fill="#D9DADB" fill-opacity="0.2"/>
<path d="M233.062 10.6557L232.455 12.8399H241.973L242.702 10.6557H233.062Z" fill="#D9DADB" fill-opacity="0.2"/>
<path d="M181.541 6.65122C181.541 10.4535 178.098 20.2018 176.883 22.4265C175.83 24.4086 174.453 25.3389 172.104 25.3389C169.107 25.3389 168.296 23.7614 168.296 21.5771C168.296 17.8153 171.658 8.0265 172.914 5.80177C174.048 3.81975 175.344 2.8894 177.693 2.8894C180.691 2.92985 181.541 4.50739 181.541 6.65122ZM185.106 10.8175C185.106 5.47818 182.23 2.28266 177.612 2.28266C170.808 2.28266 164.57 9.88718 164.57 17.5726C164.57 22.9119 167.446 26.1074 172.063 26.1074C172.185 26.1074 172.468 26.067 172.59 26.067C172.468 26.1074 172.347 26.1074 172.266 26.1883C171.82 26.3097 171.375 26.431 170.97 26.5119C170.443 26.6333 169.957 26.7546 169.431 26.9164C168.904 27.0378 168.418 27.1996 167.972 27.3209C167.567 27.4423 167.122 27.6041 166.717 27.7254C166.555 27.7659 166.393 27.7659 166.271 27.8468C166.15 27.8872 165.988 27.9681 165.866 28.0086C165.745 28.049 165.704 28.049 165.623 28.1299C165.623 28.1299 165.502 28.1704 165.502 28.2513C165.502 28.5748 165.745 28.858 165.907 28.858C166.15 28.858 166.636 28.3322 167.486 28.3322C172.144 28.3322 170.848 35.8153 181.663 35.8153C181.703 35.8153 181.703 35.1277 181.663 35.1277C175.749 35.1277 177.572 27.1591 169.512 27.4423C171.699 26.9164 173.724 26.1883 175.871 25.2984C181.015 23.2355 185.106 17.0467 185.106 10.8175ZM198.755 23.276L202.401 11.5456L198.634 11.7074L196.609 18.2198C194.462 22.1434 193.247 23.7209 191.708 23.7209C190.938 23.7209 190.695 23.1546 190.695 22.3861C190.695 19.5142 193.206 16.6018 193.206 13.9726C193.206 12.395 192.315 11.4647 190.614 11.4647C188.913 11.4647 187.455 12.4759 186.604 14.3366L187.333 14.6198C187.9 13.4872 188.508 12.8804 189.075 12.8804C189.602 12.8804 189.804 13.1636 189.804 13.8917C189.804 15.5906 187.05 19.4333 187.05 22.9524C187.05 24.813 188.305 25.8647 190.047 25.8647C191.748 25.8647 193.49 25.0153 195.677 21.213C194.624 24.4895 196.366 25.8647 198.148 25.8647C199.849 25.8647 201.51 24.8535 202.725 22.5883L201.996 22.3052C201.145 23.8423 200.578 24.3681 199.566 24.3681C198.796 24.2872 198.512 23.9636 198.755 23.276ZM208.922 11.4243C206.856 11.4243 205.277 12.6782 204.548 14.3366L205.317 14.6198C205.763 13.649 206.654 12.8804 207.099 12.8804C207.666 12.8804 207.99 13.1231 207.99 14.0535C207.99 16.4804 204.993 19.9996 204.993 23.0333C204.993 24.6108 205.965 25.7838 207.747 25.7838C209.813 25.7838 211.757 24.3681 212.648 22.5883L211.919 22.3052C211.028 23.8827 210.299 24.3681 209.287 24.3681C208.557 24.3681 208.314 23.8827 208.314 23.1142C208.314 21.0512 211.393 17.2894 211.393 14.0535C211.514 12.7186 210.542 11.4243 208.922 11.4243ZM212.446 6.81301C212.446 5.68043 211.595 4.79054 210.583 4.79054C209.449 4.79054 208.598 5.68043 208.598 6.81301C208.598 7.82425 209.449 8.67369 210.583 8.67369C211.636 8.67369 212.446 7.82425 212.446 6.81301ZM230.875 22.5479L230.146 22.2647C229.255 23.7209 228.526 24.3276 227.554 24.3276C226.825 24.3276 226.541 23.8018 226.541 23.0737C226.541 21.3344 229.336 17.7748 229.336 14.2962C229.336 12.4355 228.323 11.4243 226.582 11.4243C224.881 11.4243 222.936 12.1928 220.749 16.0759C221.721 12.9209 220.344 11.4243 218.481 11.4243C216.618 11.4243 215.119 12.6782 214.309 14.3366L215.038 14.6198C215.646 13.2849 216.172 12.8804 216.82 12.8804C217.428 12.8804 217.792 13.4872 217.509 14.4175L213.985 25.5411H217.711L219.737 19.0692C221.883 15.1456 223.098 13.5681 224.678 13.5681C225.448 13.5681 225.65 14.1344 225.65 14.9029C225.65 17.7748 223.179 20.6872 223.179 23.3164C223.179 24.6512 224.192 25.8243 225.934 25.8243C227.878 25.7434 229.863 24.6108 230.875 22.5479ZM242.216 11.4243H239.786L241.244 6.77256L237.477 6.89392L236.06 11.3838H233.751C233.629 11.3838 233.427 12.2332 233.467 12.2332H235.776L232.9 21.2939C232.131 23.9231 233.224 25.7838 235.209 25.7838C237.234 25.7838 238.854 24.7321 239.948 22.5883L239.219 22.3052C238.328 23.8827 237.599 24.3681 236.586 24.3681C236.019 24.3681 235.817 23.9232 235.979 23.3569L239.462 12.2737H241.892C242.095 12.1928 242.297 11.4243 242.216 11.4243Z" fill="#D9DADB" fill-opacity="0.2"/>
</svg>
