<svg id="Layer_1" data-name="Layer 1" xmlns="http://www.w3.org/2000/svg" viewBox="0 0 512 512"><defs><style>.cls-1{fill:#f3ba2f;}</style></defs><g id="Layer_2" data-name="Layer 2"><g id="Layer_1-2" data-name="Layer 1-2"><path class="cls-1" d="M156.83,215.41,256.26,116l99.48,99.48,57.86-57.86L256.26.26,99,157.55l57.86,57.85M.26,256.26l57.86-57.87L116,256.25,58.11,314.11Zm156.57,40.86,99.43,99.43,99.48-99.48,57.89,57.83,0,0L256.26,512.26,99,355l-.08-.08,57.94-57.78m239.72-40.83,57.86-57.85,57.85,57.85L454.4,314.14Z"/><path class="cls-1" d="M314.94,256.23h0l-58.7-58.71L212.87,240.9h0l-5,5L197.6,256.17l-.08.08.08.08L256.26,315,315,256.29l0,0-.06,0"/></g></g></svg>