<svg id="Layer_1" data-name="Layer 1" xmlns="http://www.w3.org/2000/svg" viewBox="0 0 512 512"><defs><style>.cls-1{fill:#eab300;}.cls-2{fill:#fff;}</style></defs><path class="cls-1" d="M512,256c0,141.36-114.61,256-256,256S0,397.37,0,256,114.6,0,256,0,512,114.63,512,256Z"/><path class="cls-2" d="M356.7,193.3c-3.29-34.29-32.89-45.78-70.29-49.05V96.67H257.47V143c-7.59,0-15.38.14-23.1.3V96.67H205.43l0,47.54c-6.26.12-12.43.24-18.43.24v-.14l-39.92,0v30.92s21.38-.41,21,0c11.73,0,15.54,6.8,16.65,12.68v54.19a21.45,21.45,0,0,1,3.05.21h-3.05l0,75.92c-.52,3.69-2.69,9.56-10.88,9.59.37.32-21,0-21,0L147,362.35h37.69c7,0,13.9.12,20.66.16l0,48.11h28.92V363c7.93.17,15.61.23,23.12.23l0,47.37h28.94v-48c48.67-2.78,82.77-15.05,87-60.76C376.78,265,359.47,248.6,331.84,242c16.82-8.52,27.32-23.57,24.86-48.66ZM316.19,296.15c0,36-61.54,31.87-81.18,31.87V264.26C254.65,264.3,316.19,258.67,316.19,296.15Zm-13.47-89.93c0,32.71-51.37,28.88-67.71,28.9v-57.8C251.37,177.32,302.74,172.12,302.72,206.22Z"/><path class="cls-2" d="M184.77,240.79h4.3V244h-4.3Z"/></svg>