<svg id="Layer_1" data-name="Layer 1" xmlns="http://www.w3.org/2000/svg" viewBox="0 0 512 512"><defs><style>.cls-1{fill:#f7931a;}.cls-2{fill:#fff;}</style></defs><g id="Layer_1-2" data-name="Layer_1"><g id="_1421344023328" data-name=" 1421344023328"><path class="cls-1" d="M504.31,317.93C470.12,455.07,331.22,538.54,194.06,504.34S-26.51,331.23,7.7,194.1,180.78-26.53,317.89,7.66,538.5,180.78,504.31,317.93Z"/><path class="cls-2" d="M368.88,219.53c5.1-34.07-20.84-52.38-56.3-64.6l11.5-46.15-28.09-7-11.2,44.93c-7.39-1.84-15-3.57-22.51-5.29l11.28-45.23-28.07-7L234,135.32c-6.11-1.39-12.12-2.77-17.94-4.22l0-.14-38.74-9.67-7.47,30s20.84,4.78,20.4,5.07c11.38,2.84,13.44,10.37,13.09,16.34l-13.1,52.57a23.25,23.25,0,0,1,2.92.94c-.94-.23-1.94-.49-3-.73l-18.37,73.64c-1.39,3.46-4.92,8.65-12.87,6.68.28.4-20.42-5.1-20.42-5.1l-13.95,32.16L161.15,342c6.8,1.71,13.46,3.49,20,5.17l-11.63,46.68,28.06,7,11.51-46.19c7.67,2.08,15.11,4,22.39,5.81l-11.47,46,28.09,7,11.62-46.59c47.91,9.06,83.93,5.41,99.09-37.92,12.21-34.88-.61-55-25.81-68.13,18.35-4.23,32.18-16.3,35.86-41.24h0Zm-64.18,90c-8.68,34.88-67.41,16-86.46,11.3L233.67,259c19,4.75,80.1,14.16,71,50.54ZM313.39,219c-7.92,31.73-56.8,15.61-72.66,11.66l14-56.09c15.86,4,66.93,11.33,58.68,44.43Z"/></g></g></svg>