<svg width="101" height="101" viewBox="0 0 101 101" fill="none" xmlns="http://www.w3.org/2000/svg">
<circle cx="50.7585" cy="50.4006" r="50" fill="white"/>
<path d="M50.7585 90.4006C72.8499 90.4006 90.7585 72.492 90.7585 50.4006C90.7585 28.3092 72.8499 10.4006 50.7585 10.4006C28.6672 10.4006 10.7585 28.3092 10.7585 50.4006C10.7585 72.492 28.6672 90.4006 50.7585 90.4006Z" fill="black"/>
<path d="M80.1161 44.2482C79.7207 42.3277 79.1362 40.451 78.3711 38.6457C77.6171 36.8675 76.6946 35.1655 75.6161 33.5632C74.5467 31.9801 73.3269 30.5041 71.9736 29.1557C70.6244 27.8023 69.1475 26.5824 67.5636 25.5132C65.9589 24.4401 64.2583 23.5179 62.4836 22.7582C58.8135 21.2016 54.8677 20.3994 50.8811 20.3994C46.8945 20.3994 42.9487 21.2016 39.2786 22.7582C35.7297 24.2551 32.5064 26.4289 29.7886 29.1582C28.4355 30.5058 27.2156 31.981 26.1461 33.5632C25.0729 35.1687 24.1507 36.8701 23.3911 38.6457C21.8345 42.3158 21.0323 46.2616 21.0323 50.2482C21.0323 54.2348 21.8345 58.1806 23.3911 61.8507C24.1261 63.6257 25.0761 65.3082 26.1461 66.9307C27.2156 68.5145 28.4354 69.9913 29.7886 71.3407C31.1378 72.6941 32.6147 73.9139 34.1986 74.9832C35.7886 76.0532 37.5036 76.9732 39.2786 77.7382C42.9487 79.2948 46.8945 80.097 50.8811 80.097C54.8677 80.097 58.8135 79.2948 62.4836 77.7382C64.2586 77.0032 65.9411 76.0532 67.5636 74.9832C69.1475 73.9139 70.6244 72.6941 71.9736 71.3407C73.327 69.9915 74.5469 68.5146 75.6161 66.9307C76.6861 65.3407 77.6061 63.6257 78.3711 61.8507C80.7262 56.2964 81.3348 50.1568 80.1161 44.2482ZM50.9086 76.3607C36.4911 76.3607 24.8286 64.6657 24.8286 50.2782C24.8286 35.8907 36.5236 24.1957 50.9086 24.1957C65.2961 24.1957 76.9911 35.8907 76.9911 50.2782C76.9911 64.6657 65.2986 76.3607 50.9086 76.3607Z" fill="white"/>
<path d="M51.3712 74.0957H52.0762C52.1987 74.0957 52.3187 74.0957 52.4412 74.0632H52.4737C52.5962 74.0632 52.6862 74.0632 52.8087 74.0332H52.9012C52.9937 74.0332 53.0862 74.0332 53.1762 74.0032H53.2687C53.3612 74.0032 53.4537 73.9732 53.5762 73.9732H53.6362C53.7587 73.9732 53.8812 73.9407 54.0037 73.9407C54.1262 73.9407 54.2187 73.9107 54.3412 73.8807H54.4012C54.4937 73.8807 54.5862 73.8507 54.6762 73.8507H54.7387C54.8612 73.8182 54.9537 73.8182 55.0762 73.7882C55.3187 73.7582 55.5637 73.6957 55.7787 73.6357H55.8412C55.9312 73.6057 56.0537 73.6057 56.1462 73.5732H56.1762C56.4212 73.5132 56.6362 73.4507 56.8812 73.3907C54.5883 73.4634 52.2953 73.2476 50.0562 72.7482C46.6862 72.0132 43.4737 70.6982 40.7487 68.4307C38.6004 66.6429 36.8764 64.4 35.7012 61.8641C34.526 59.3283 33.9291 56.563 33.9537 53.7682C33.9758 49.5988 35.4594 45.5691 38.1462 42.3807C41.6362 38.2482 46.5962 36.0732 51.6762 35.9507H52.3812V31.8807H51.5862C50.0408 31.9091 48.5021 32.0933 46.9937 32.4307C45.4758 32.774 43.9984 33.2768 42.5862 33.9307C41.1462 34.6057 39.7987 35.4307 38.5437 36.3807C37.2469 37.3666 36.066 38.4963 35.0237 39.7482C34.0424 40.9069 33.1907 42.1694 32.4837 43.5132C31.7844 44.8087 31.2197 46.1725 30.7987 47.5832C30.3857 48.9721 30.1094 50.3981 29.9737 51.8407L29.8812 53.1857V53.9807C29.9112 55.5432 30.0962 57.0732 30.4312 58.5732C30.7687 60.1057 31.2887 61.5732 31.9312 62.9832C32.6987 64.6657 34.0762 67.1457 36.1262 69.0132C40.312 72.313 45.4887 74.1037 50.8187 74.0957H51.3712Z" fill="white"/>
<path d="M58.0436 70.1755C56.5337 70.1216 55.0298 69.9578 53.5436 69.6855C47.2386 68.553 41.8186 64.6955 39.8311 58.8805C37.4111 51.808 41.1161 44.1555 48.1561 41.8305C49.4978 41.3809 50.9037 41.1529 52.3186 41.1555C54.1261 41.1555 55.9311 41.523 57.5861 42.1955L59.2986 38.553C58.7836 38.3465 58.2634 38.1531 57.7386 37.973C55.9847 37.4225 54.1569 37.1435 52.3186 37.1455C50.4769 37.149 48.6477 37.4486 46.9011 38.033C44.672 38.7682 42.6191 39.9565 40.8711 41.523C40.0281 42.2739 39.2596 43.1045 38.5761 44.003C37.9005 44.8913 37.3159 45.8453 36.8311 46.8505C35.844 48.8715 35.2614 51.066 35.1161 53.3105C34.9636 55.6355 35.2686 57.9605 36.0336 60.1655C36.8131 62.4338 38.0658 64.5105 39.7086 66.258C41.2086 67.8805 42.9536 69.1055 45.0636 70.238C47.2686 71.4005 49.9936 72.013 52.8386 72.413C54.6761 72.6555 57.1261 72.718 58.5636 72.718C59.8186 72.258 60.3386 72.043 61.0136 71.768C61.5961 71.493 62.1761 71.218 62.7586 70.8805C63.3411 70.543 63.4336 70.4805 64.4111 69.8405C64.4982 69.7864 64.5802 69.7244 64.6561 69.6555C61.2886 70.238 60.4311 70.2055 58.0436 70.1755Z" fill="white"/>
<path d="M65.5761 65.6156C64.6261 65.6756 63.2786 65.7656 61.7486 65.7656C59.0236 65.7656 55.6861 65.5231 52.8411 64.5731C48.4311 63.1056 44.2686 59.3406 44.2686 54.6856C44.2676 53.5839 44.4839 52.4927 44.905 51.4747C45.3262 50.4566 45.944 49.5316 46.723 48.7525C47.5021 47.9735 48.4271 47.3557 49.4451 46.9346C50.4632 46.5134 51.5543 46.2971 52.6561 46.2981C55.8086 46.2981 58.5336 48.0431 59.9736 50.5831L63.6161 48.7781C63.0449 47.7028 62.3113 46.7221 61.4411 45.8706C60.2879 44.7155 58.9184 43.7991 57.4107 43.1739C55.9031 42.5486 54.287 42.2268 52.6548 42.2268C51.0227 42.2268 49.4065 42.5486 47.8989 43.1739C46.3912 43.7991 45.0217 44.7155 43.8686 45.8706C42.7139 47.0237 41.7978 48.3931 41.1728 49.9005C40.5478 51.4079 40.2261 53.0238 40.2261 54.6556C40.2342 56.3658 40.6004 58.0554 41.3011 59.6156C41.9411 61.0231 42.8311 62.3406 43.9636 63.5656C45.9536 65.7056 48.6761 67.4206 51.5861 68.4006C54.3711 69.3181 58.4736 69.6556 62.4536 69.3806C63.5536 69.2881 64.3811 69.1956 65.7886 68.8906C67.1468 67.8187 68.3797 66.5968 69.4636 65.2481C68.5136 65.3406 66.7686 65.5231 65.5761 65.6156Z" fill="white"/>
</svg>
