<svg width="1366" height="511" viewBox="0 0 1366 511" fill="none" xmlns="http://www.w3.org/2000/svg">
<mask id="mask0" mask-type="alpha" maskUnits="userSpaceOnUse" x="-2" y="0" width="1368" height="511">
<rect x="-2" width="1367.9" height="510.353" fill="#C4C4C4"/>
</mask>
<g mask="url(#mask0)">
<rect x="14.5408" y="328.122" width="0.62089" height="78.2695" fill="#7B808A" fill-opacity="0.65"/>
<rect x="44.9648" y="287.124" width="0.620876" height="78.2695" fill="#7B808A" fill-opacity="0.65"/>
<rect x="75.3889" y="314.456" width="0.620934" height="78.2695" fill="#7B808A" fill-opacity="0.65"/>
<rect x="105.813" y="268.488" width="0.620905" height="78.2695" fill="#7B808A" fill-opacity="0.65"/>
<rect x="136.237" y="210.096" width="0.620905" height="78.2695" fill="#7B808A" fill-opacity="0.65"/>
<rect x="166.662" y="191.461" width="0.620876" height="78.2695" fill="#7B808A" fill-opacity="0.65"/>
<rect x="197.086" y="222.52" width="0.620905" height="78.2695" fill="#7B808A" fill-opacity="0.65"/>
<rect x="227.51" y="253.58" width="0.620876" height="78.2695" fill="#7B808A" fill-opacity="0.65"/>
<rect x="257.934" y="298.925" width="0.620905" height="78.2695" fill="#7B808A" fill-opacity="0.65"/>
<rect x="288.358" y="280.291" width="0.620963" height="78.2695" fill="#7B808A" fill-opacity="0.65"/>
<rect x="318.782" y="246.125" width="0.620905" height="78.2695" fill="#7B808A" fill-opacity="0.65"/>
<rect x="349.206" y="275.321" width="0.620847" height="78.2695" fill="#7B808A" fill-opacity="0.65"/>
<rect x="379.631" y="261.654" width="0.620963" height="78.2695" fill="#7B808A" fill-opacity="0.65"/>
<rect x="410.055" y="274.079" width="0.620905" height="78.2695" fill="#7B808A" fill-opacity="0.65"/>
<rect x="440.479" y="288.366" width="0.620963" height="78.2695" fill="#7B808A" fill-opacity="0.65"/>
<rect x="470.903" y="311.35" width="0.620905" height="78.2695" fill="#7B808A" fill-opacity="0.65"/>
<rect x="501.327" y="292.713" width="0.620847" height="78.2695" fill="#7B808A" fill-opacity="0.65"/>
<rect x="531.751" y="253.58" width="0.620905" height="78.2695" fill="#7B808A" fill-opacity="0.65"/>
<rect x="562.176" y="225.005" width="0.620905" height="78.2695" fill="#7B808A" fill-opacity="0.65"/>
<rect x="592.6" y="234.944" width="0.620905" height="78.2695" fill="#7B808A" fill-opacity="0.65"/>
<rect x="623.024" y="247.367" width="0.620905" height="78.2695" fill="#7B808A" fill-opacity="0.65"/>
<rect x="653.448" y="229.354" width="0.620905" height="78.2695" fill="#7B808A" fill-opacity="0.65"/>
<rect x="5.84839" y="336.818" width="18.0061" height="60.8763" fill="url(#paint0_linear)"/>
<rect x="36.2725" y="307.622" width="18.0061" height="37.2712" fill="url(#paint1_linear)"/>
<rect x="66.6963" y="330.606" width="18.0061" height="45.9678" fill="url(#paint2_linear)"/>
<rect x="97.1204" y="277.184" width="18.0062" height="60.8763" fill="url(#paint3_linear)"/>
<rect width="18.0061" height="6.21187" transform="matrix(1 0 0 -1 127.545 252.336)" fill="url(#paint4_linear)"/>
<rect width="18.0062" height="13.6661" transform="matrix(1 0 0 -1 157.969 237.429)" fill="url(#paint5_linear)"/>
<rect width="18.0061" height="24.8475" transform="matrix(1 0 0 -1 188.393 274.079)" fill="url(#paint6_linear)"/>
<rect width="18.0061" height="37.2712" transform="matrix(1 0 0 -1 218.817 311.35)" fill="url(#paint7_linear)"/>
<rect width="18.0061" height="19.878" transform="matrix(1 0 0 -1 249.241 348)" fill="url(#paint8_linear)"/>
<rect width="18.0061" height="9.93898" transform="matrix(1 0 0 -1 279.665 324.395)" fill="url(#paint9_linear)"/>
<rect width="18.0061" height="22.3627" transform="matrix(1 0 0 -1 310.09 296.441)" fill="url(#paint10_linear)"/>
<rect width="18.0061" height="52.1797" transform="matrix(1 0 0 -1 340.514 340.545)" fill="url(#paint11_linear)"/>
<rect width="18.0062" height="13.6661" transform="matrix(1 0 0 -1 370.938 307.622)" fill="url(#paint12_linear)"/>
<rect width="18.0061" height="28.5746" transform="matrix(1 0 0 -1 401.362 327.499)" fill="url(#paint13_linear)"/>
<rect width="18.0061" height="11.1814" transform="matrix(1 0 0 -1 431.786 333.09)" fill="url(#paint14_linear)"/>
<rect width="18.0061" height="34.7864" transform="matrix(1 0 0 -1 462.21 367.878)" fill="url(#paint15_linear)"/>
<rect width="18.0061" height="19.878" transform="matrix(1 0 0 -1 492.635 341.788)" fill="url(#paint16_linear)"/>
<rect width="18.0061" height="12.4237" transform="matrix(1 0 0 -1 523.059 298.925)" fill="url(#paint17_linear)"/>
<rect width="18.0061" height="43.4831" transform="matrix(1 0 0 -1 553.483 285.881)" fill="url(#paint18_linear)"/>
<rect width="18.0061" height="43.4831" transform="matrix(1 0 0 -1 553.483 285.881)" fill="url(#paint19_linear)"/>
<rect width="18.0061" height="24.8475" transform="matrix(1 0 0 -1 583.907 286.502)" fill="url(#paint20_linear)"/>
<rect width="18.0062" height="6.21186" transform="matrix(1 0 0 -1 614.331 289.608)" fill="url(#paint21_linear)"/>
<rect width="18.0061" height="19.878" transform="matrix(1 0 0 -1 644.755 278.428)" fill="url(#paint22_linear)"/>
<rect x="644.881" y="242.511" width="0.620901" height="78.2695" fill="#7B808A" fill-opacity="0.65"/>
<rect x="675.305" y="236.299" width="0.620898" height="78.2695" fill="#7B808A" fill-opacity="0.65"/>
<rect x="705.729" y="223.875" width="0.620898" height="78.2695" fill="#7B808A" fill-opacity="0.65"/>
<rect x="736.153" y="205.239" width="0.620898" height="78.2695" fill="#7B808A" fill-opacity="0.65"/>
<rect x="766.578" y="174.18" width="0.62089" height="78.2695" fill="#7B808A" fill-opacity="0.65"/>
<rect x="797.002" y="180.393" width="0.620905" height="78.2695" fill="#7B808A" fill-opacity="0.65"/>
<rect x="827.426" y="216.421" width="0.620905" height="78.2695" fill="#7B808A" fill-opacity="0.65"/>
<rect x="857.85" y="249.964" width="0.62089" height="78.2695" fill="#7B808A" fill-opacity="0.65"/>
<rect x="888.274" y="208.966" width="0.620876" height="78.2695" fill="#7B808A" fill-opacity="0.65"/>
<rect x="918.698" y="236.299" width="0.620934" height="78.2695" fill="#7B808A" fill-opacity="0.65"/>
<rect x="949.123" y="190.332" width="0.620905" height="78.2695" fill="#7B808A" fill-opacity="0.65"/>
<rect x="979.546" y="131.939" width="0.620905" height="78.2695" fill="#7B808A" fill-opacity="0.65"/>
<rect x="1009.97" y="113.303" width="0.620876" height="78.2695" fill="#7B808A" fill-opacity="0.65"/>
<rect x="1040.4" y="144.364" width="0.620905" height="78.2695" fill="#7B808A" fill-opacity="0.65"/>
<rect x="1070.82" y="175.423" width="0.620876" height="78.2695" fill="#7B808A" fill-opacity="0.65"/>
<rect x="1101.24" y="220.77" width="0.620905" height="78.2695" fill="#7B808A" fill-opacity="0.65"/>
<rect x="1131.67" y="202.134" width="0.620963" height="78.2695" fill="#7B808A" fill-opacity="0.65"/>
<rect x="1162.09" y="167.969" width="0.620905" height="78.2695" fill="#7B808A" fill-opacity="0.65"/>
<rect x="1192.52" y="197.165" width="0.620847" height="78.2695" fill="#7B808A" fill-opacity="0.65"/>
<rect x="1222.94" y="183.498" width="0.620963" height="78.2695" fill="#7B808A" fill-opacity="0.65"/>
<rect x="1253.36" y="195.921" width="0.620905" height="78.2695" fill="#7B808A" fill-opacity="0.65"/>
<rect x="1283.79" y="274.715" width="0.620963" height="78.2695" fill="#7B808A" fill-opacity="0.65"/>
<rect x="1314.21" y="297.699" width="0.620905" height="78.2695" fill="#7B808A" fill-opacity="0.65"/>
<rect x="1344.64" y="279.064" width="0.620847" height="78.2695" fill="#7B808A" fill-opacity="0.65"/>
<rect x="636.188" y="279.782" width="18.0061" height="3.72711" fill="url(#paint23_linear)"/>
<rect x="666.612" y="261.767" width="18.0061" height="27.3322" fill="url(#paint24_linear)"/>
<rect x="697.036" y="248.102" width="18.0061" height="29.8169" fill="url(#paint25_linear)"/>
<rect x="727.461" y="243.132" width="18.0061" height="2.48473" fill="url(#paint26_linear)"/>
<rect x="757.885" y="195.921" width="18.0061" height="34.7864" fill="url(#paint27_linear)"/>
<rect x="788.309" y="216.421" width="18.0061" height="6.21186" fill="url(#paint28_linear)"/>
<rect x="818.733" y="236.299" width="18.0061" height="38.5136" fill="url(#paint29_linear)"/>
<rect x="849.157" y="258.661" width="18.0061" height="60.8763" fill="url(#paint30_linear)"/>
<rect x="879.582" y="229.466" width="18.0061" height="37.2712" fill="url(#paint31_linear)"/>
<rect x="910.005" y="252.45" width="18.0061" height="45.9678" fill="url(#paint32_linear)"/>
<rect x="940.43" y="199.028" width="18.0062" height="60.8763" fill="url(#paint33_linear)"/>
<rect width="18.0061" height="6.21187" transform="matrix(1 0 0 -1 970.854 174.18)" fill="url(#paint34_linear)"/>
<rect width="18.0062" height="13.6661" transform="matrix(1 0 0 -1 1001.28 159.272)" fill="url(#paint35_linear)"/>
<rect width="18.0061" height="24.8475" transform="matrix(1 0 0 -1 1031.7 195.921)" fill="url(#paint36_linear)"/>
<rect width="18.0061" height="37.2712" transform="matrix(1 0 0 -1 1062.13 233.193)" fill="url(#paint37_linear)"/>
<rect width="18.0061" height="19.878" transform="matrix(1 0 0 -1 1092.55 269.843)" fill="url(#paint38_linear)"/>
<rect width="18.0061" height="9.93898" transform="matrix(1 0 0 -1 1122.97 246.238)" fill="url(#paint39_linear)"/>
<rect width="18.0061" height="22.3627" transform="matrix(1 0 0 -1 1153.4 218.284)" fill="url(#paint40_linear)"/>
<rect width="18.0061" height="52.1797" transform="matrix(1 0 0 -1 1183.82 262.39)" fill="url(#paint41_linear)"/>
<rect width="18.0062" height="13.6661" transform="matrix(1 0 0 -1 1214.25 229.466)" fill="url(#paint42_linear)"/>
<rect width="18.0061" height="28.5746" transform="matrix(1 0 0 -1 1244.67 249.344)" fill="url(#paint43_linear)"/>
<rect width="18.0061" height="11.1814" transform="matrix(1 0 0 -1 1275.1 319.44)" fill="url(#paint44_linear)"/>
<rect width="18.0061" height="34.7864" transform="matrix(1 0 0 -1 1305.52 354.227)" fill="url(#paint45_linear)"/>
<rect width="18.0061" height="19.878" transform="matrix(1 0 0 -1 1335.94 328.137)" fill="url(#paint46_linear)"/>
</g>
<defs>
<linearGradient id="paint0_linear" x1="14.8515" y1="-256.725" x2="14.8515" y2="996.311" gradientUnits="userSpaceOnUse">
<stop stop-color="#373D48"/>
<stop offset="1" stop-color="#222631"/>
</linearGradient>
<linearGradient id="paint1_linear" x1="45.2755" y1="-55.772" x2="45.2755" y2="711.393" gradientUnits="userSpaceOnUse">
<stop stop-color="#373D48"/>
<stop offset="1" stop-color="#222631"/>
</linearGradient>
<linearGradient id="paint2_linear" x1="75.6994" y1="-117.58" x2="75.6994" y2="828.591" gradientUnits="userSpaceOnUse">
<stop stop-color="#373D48"/>
<stop offset="1" stop-color="#222631"/>
</linearGradient>
<linearGradient id="paint3_linear" x1="106.123" y1="-316.359" x2="106.123" y2="936.677" gradientUnits="userSpaceOnUse">
<stop stop-color="#373D48"/>
<stop offset="1" stop-color="#222631"/>
</linearGradient>
<linearGradient id="paint4_linear" x1="9.00307" y1="-60.5658" x2="9.00307" y2="67.2953" gradientUnits="userSpaceOnUse">
<stop stop-color="#373D48"/>
<stop offset="1" stop-color="#222631"/>
</linearGradient>
<linearGradient id="paint5_linear" x1="9.00308" y1="-133.244" x2="9.00308" y2="148.049" gradientUnits="userSpaceOnUse">
<stop stop-color="#373D48"/>
<stop offset="1" stop-color="#222631"/>
</linearGradient>
<linearGradient id="paint6_linear" x1="9.00307" y1="-242.263" x2="9.00307" y2="269.181" gradientUnits="userSpaceOnUse">
<stop stop-color="#373D48"/>
<stop offset="1" stop-color="#222631"/>
</linearGradient>
<linearGradient id="paint7_linear" x1="9.00307" y1="-363.394" x2="9.00307" y2="403.771" gradientUnits="userSpaceOnUse">
<stop stop-color="#373D48"/>
<stop offset="1" stop-color="#222631"/>
</linearGradient>
<linearGradient id="paint8_linear" x1="9.00307" y1="-193.81" x2="9.00307" y2="215.345" gradientUnits="userSpaceOnUse">
<stop stop-color="#373D48"/>
<stop offset="1" stop-color="#222631"/>
</linearGradient>
<linearGradient id="paint9_linear" x1="9.00307" y1="-96.905" x2="9.00307" y2="107.672" gradientUnits="userSpaceOnUse">
<stop stop-color="#373D48"/>
<stop offset="1" stop-color="#222631"/>
</linearGradient>
<linearGradient id="paint10_linear" x1="9.00307" y1="-218.036" x2="9.00307" y2="242.263" gradientUnits="userSpaceOnUse">
<stop stop-color="#373D48"/>
<stop offset="1" stop-color="#222631"/>
</linearGradient>
<linearGradient id="paint11_linear" x1="9.00307" y1="-508.752" x2="9.00307" y2="565.28" gradientUnits="userSpaceOnUse">
<stop stop-color="#373D48"/>
<stop offset="1" stop-color="#222631"/>
</linearGradient>
<linearGradient id="paint12_linear" x1="9.0031" y1="-133.244" x2="9.0031" y2="148.049" gradientUnits="userSpaceOnUse">
<stop stop-color="#373D48"/>
<stop offset="1" stop-color="#222631"/>
</linearGradient>
<linearGradient id="paint13_linear" x1="9.00307" y1="-278.602" x2="9.00307" y2="309.558" gradientUnits="userSpaceOnUse">
<stop stop-color="#373D48"/>
<stop offset="1" stop-color="#222631"/>
</linearGradient>
<linearGradient id="paint14_linear" x1="9.00307" y1="-109.018" x2="9.00307" y2="121.131" gradientUnits="userSpaceOnUse">
<stop stop-color="#373D48"/>
<stop offset="1" stop-color="#222631"/>
</linearGradient>
<linearGradient id="paint15_linear" x1="9.00307" y1="-339.168" x2="9.00307" y2="376.853" gradientUnits="userSpaceOnUse">
<stop stop-color="#373D48"/>
<stop offset="1" stop-color="#222631"/>
</linearGradient>
<linearGradient id="paint16_linear" x1="9.00307" y1="-193.81" x2="9.00307" y2="215.345" gradientUnits="userSpaceOnUse">
<stop stop-color="#373D48"/>
<stop offset="1" stop-color="#222631"/>
</linearGradient>
<linearGradient id="paint17_linear" x1="9.00307" y1="-121.131" x2="9.00307" y2="134.59" gradientUnits="userSpaceOnUse">
<stop stop-color="#373D48"/>
<stop offset="1" stop-color="#222631"/>
</linearGradient>
<linearGradient id="paint18_linear" x1="9.00307" y1="-423.96" x2="9.00307" y2="471.066" gradientUnits="userSpaceOnUse">
<stop stop-color="#373D48"/>
<stop offset="1" stop-color="#222631"/>
</linearGradient>
<linearGradient id="paint19_linear" x1="9.00307" y1="-423.96" x2="9.00307" y2="471.066" gradientUnits="userSpaceOnUse">
<stop stop-color="#373D48"/>
<stop offset="1" stop-color="#222631"/>
</linearGradient>
<linearGradient id="paint20_linear" x1="9.00307" y1="-242.263" x2="9.00307" y2="269.181" gradientUnits="userSpaceOnUse">
<stop stop-color="#373D48"/>
<stop offset="1" stop-color="#222631"/>
</linearGradient>
<linearGradient id="paint21_linear" x1="9.0031" y1="-60.5657" x2="9.0031" y2="67.2952" gradientUnits="userSpaceOnUse">
<stop stop-color="#373D48"/>
<stop offset="1" stop-color="#222631"/>
</linearGradient>
<linearGradient id="paint22_linear" x1="9.00307" y1="-193.81" x2="9.00307" y2="215.345" gradientUnits="userSpaceOnUse">
<stop stop-color="#373D48"/>
<stop offset="1" stop-color="#222631"/>
</linearGradient>
<linearGradient id="paint23_linear" x1="645.191" y1="243.442" x2="645.191" y2="320.159" gradientUnits="userSpaceOnUse">
<stop stop-color="#373D48"/>
<stop offset="1" stop-color="#222631"/>
</linearGradient>
<linearGradient id="paint24_linear" x1="675.615" y1="-4.72191" x2="675.615" y2="557.866" gradientUnits="userSpaceOnUse">
<stop stop-color="#373D48"/>
<stop offset="1" stop-color="#222631"/>
</linearGradient>
<linearGradient id="paint25_linear" x1="706.039" y1="-42.6136" x2="706.039" y2="571.118" gradientUnits="userSpaceOnUse">
<stop stop-color="#373D48"/>
<stop offset="1" stop-color="#222631"/>
</linearGradient>
<linearGradient id="paint26_linear" x1="736.464" y1="218.906" x2="736.464" y2="270.05" gradientUnits="userSpaceOnUse">
<stop stop-color="#373D48"/>
<stop offset="1" stop-color="#222631"/>
</linearGradient>
<linearGradient id="paint27_linear" x1="766.888" y1="-143.246" x2="766.888" y2="572.775" gradientUnits="userSpaceOnUse">
<stop stop-color="#373D48"/>
<stop offset="1" stop-color="#222631"/>
</linearGradient>
<linearGradient id="paint28_linear" x1="797.312" y1="155.855" x2="797.312" y2="283.716" gradientUnits="userSpaceOnUse">
<stop stop-color="#373D48"/>
<stop offset="1" stop-color="#222631"/>
</linearGradient>
<linearGradient id="paint29_linear" x1="827.736" y1="-139.208" x2="827.736" y2="653.529" gradientUnits="userSpaceOnUse">
<stop stop-color="#373D48"/>
<stop offset="1" stop-color="#222631"/>
</linearGradient>
<linearGradient id="paint30_linear" x1="858.16" y1="-334.883" x2="858.16" y2="918.154" gradientUnits="userSpaceOnUse">
<stop stop-color="#373D48"/>
<stop offset="1" stop-color="#222631"/>
</linearGradient>
<linearGradient id="paint31_linear" x1="888.585" y1="-133.928" x2="888.585" y2="633.237" gradientUnits="userSpaceOnUse">
<stop stop-color="#373D48"/>
<stop offset="1" stop-color="#222631"/>
</linearGradient>
<linearGradient id="paint32_linear" x1="919.008" y1="-195.736" x2="919.008" y2="750.435" gradientUnits="userSpaceOnUse">
<stop stop-color="#373D48"/>
<stop offset="1" stop-color="#222631"/>
</linearGradient>
<linearGradient id="paint33_linear" x1="949.433" y1="-394.515" x2="949.433" y2="858.521" gradientUnits="userSpaceOnUse">
<stop stop-color="#373D48"/>
<stop offset="1" stop-color="#222631"/>
</linearGradient>
<linearGradient id="paint34_linear" x1="9.00307" y1="-60.5658" x2="9.00307" y2="67.2953" gradientUnits="userSpaceOnUse">
<stop stop-color="#373D48"/>
<stop offset="1" stop-color="#222631"/>
</linearGradient>
<linearGradient id="paint35_linear" x1="9.00308" y1="-133.244" x2="9.00308" y2="148.049" gradientUnits="userSpaceOnUse">
<stop stop-color="#373D48"/>
<stop offset="1" stop-color="#222631"/>
</linearGradient>
<linearGradient id="paint36_linear" x1="9.00307" y1="-242.263" x2="9.00307" y2="269.181" gradientUnits="userSpaceOnUse">
<stop stop-color="#373D48"/>
<stop offset="1" stop-color="#222631"/>
</linearGradient>
<linearGradient id="paint37_linear" x1="9.00307" y1="-363.394" x2="9.00307" y2="403.771" gradientUnits="userSpaceOnUse">
<stop stop-color="#373D48"/>
<stop offset="1" stop-color="#222631"/>
</linearGradient>
<linearGradient id="paint38_linear" x1="9.00307" y1="-193.81" x2="9.00307" y2="215.345" gradientUnits="userSpaceOnUse">
<stop stop-color="#373D48"/>
<stop offset="1" stop-color="#222631"/>
</linearGradient>
<linearGradient id="paint39_linear" x1="9.00307" y1="-96.905" x2="9.00307" y2="107.672" gradientUnits="userSpaceOnUse">
<stop stop-color="#373D48"/>
<stop offset="1" stop-color="#222631"/>
</linearGradient>
<linearGradient id="paint40_linear" x1="9.00307" y1="-218.036" x2="9.00307" y2="242.263" gradientUnits="userSpaceOnUse">
<stop stop-color="#373D48"/>
<stop offset="1" stop-color="#222631"/>
</linearGradient>
<linearGradient id="paint41_linear" x1="9.00307" y1="-508.752" x2="9.00307" y2="565.28" gradientUnits="userSpaceOnUse">
<stop stop-color="#373D48"/>
<stop offset="1" stop-color="#222631"/>
</linearGradient>
<linearGradient id="paint42_linear" x1="9.0031" y1="-133.244" x2="9.0031" y2="148.049" gradientUnits="userSpaceOnUse">
<stop stop-color="#373D48"/>
<stop offset="1" stop-color="#222631"/>
</linearGradient>
<linearGradient id="paint43_linear" x1="9.00307" y1="-278.602" x2="9.00307" y2="309.558" gradientUnits="userSpaceOnUse">
<stop stop-color="#373D48"/>
<stop offset="1" stop-color="#222631"/>
</linearGradient>
<linearGradient id="paint44_linear" x1="9.00307" y1="-109.018" x2="9.00307" y2="121.131" gradientUnits="userSpaceOnUse">
<stop stop-color="#373D48"/>
<stop offset="1" stop-color="#222631"/>
</linearGradient>
<linearGradient id="paint45_linear" x1="9.00307" y1="-339.168" x2="9.00307" y2="376.853" gradientUnits="userSpaceOnUse">
<stop stop-color="#373D48"/>
<stop offset="1" stop-color="#222631"/>
</linearGradient>
<linearGradient id="paint46_linear" x1="9.00307" y1="-193.81" x2="9.00307" y2="215.345" gradientUnits="userSpaceOnUse">
<stop stop-color="#373D48"/>
<stop offset="1" stop-color="#222631"/>
</linearGradient>
</defs>
</svg>
