<svg width="512" height="512" viewBox="0 0 512 512" fill="none" xmlns="http://www.w3.org/2000/svg">
<circle cx="256" cy="256" r="256" fill="white"/>
<path d="M386.379 336.064C369.454 363.625 344.23 385.114 314.329 397.445C284.428 409.776 251.389 412.313 219.956 404.694C188.523 397.074 160.313 379.689 139.377 355.036C118.441 330.382 105.857 299.728 103.431 267.476C101.005 235.224 108.862 203.032 125.875 175.524C142.887 148.016 168.179 126.607 198.118 114.371C228.058 102.135 261.105 99.7021 292.514 107.421C323.923 115.14 352.078 132.614 372.936 157.334L336.977 187.674C322.534 170.556 303.036 158.455 281.286 153.11C259.535 147.764 236.65 149.449 215.917 157.923C195.184 166.396 177.67 181.222 165.889 200.271C154.108 219.32 148.667 241.612 150.347 263.947C152.027 286.282 160.741 307.509 175.239 324.582C189.737 341.654 209.272 353.693 231.04 358.97C252.807 364.246 275.687 362.489 296.393 353.95C317.099 345.411 334.567 330.53 346.287 311.444L386.379 336.064Z" fill="#0E1736"/>
</svg>
