<svg width="512" height="512" viewBox="0 0 512 512" fill="none" xmlns="http://www.w3.org/2000/svg">
<circle cx="256" cy="256" r="256" fill="#0E1736"/>
<circle cx="366.429" cy="147.619" r="72.6192" fill="#CA8FE9"/>
<path d="M399.834 293.356C390.619 328.335 359.534 368.022 329.169 387.68C298.805 407.338 262.198 414.958 226.512 409.048C190.825 403.139 158.628 384.126 136.221 355.729C113.814 327.333 102.81 291.597 105.362 255.515C107.914 219.433 123.838 185.601 150.019 160.641C176.199 135.681 210.752 121.389 246.915 120.561C283.077 119.733 318.248 132.429 345.543 156.165C372.838 179.901 385.31 211.524 395.477 243.477L321.87 251.237C319.727 232.913 312.767 221.97 298.846 209.865C284.925 197.759 266.987 191.283 248.543 191.705C230.099 192.128 212.477 199.417 199.124 212.148C185.771 224.878 177.65 242.133 176.348 260.535C175.047 278.938 180.659 297.164 192.087 311.647C203.515 326.13 219.936 335.827 238.137 338.841C256.338 341.855 275.009 337.969 290.495 327.943C305.982 317.916 317.17 302.472 321.87 284.632L399.834 293.356Z" fill="#FFB0C3" fill-opacity="0.75"/>
<path d="M296.715 127.286C350.838 151.841 366.4 173.882 386.763 217.334C321.406 227.5 286.548 183.929 296.715 127.286Z" fill="#CB65B8"/>
</svg>
