<svg id="fd9e46b8-15b9-40b7-8750-67572310960e" data-name="Layer 1" xmlns="http://www.w3.org/2000/svg" viewBox="0 0 512 512"><defs><style>.ee393f28-6faf-4085-9d8f-a6a14c2ef254{fill:#fff;}.bf2ecfc9-c6ce-4708-8119-d441d2d09c30{fill:#cd0124;}</style></defs><circle class="ee393f28-6faf-4085-9d8f-a6a14c2ef254" cx="259" cy="243" r="219"/><path class="bf2ecfc9-c6ce-4708-8119-d441d2d09c30" d="M303.79,268c0-3.42,0-5.12-3.42-6.83-11.94-8.53-25.6-17.07-37.54-25.6a7.67,7.67,0,0,0-8.54,0l-37.54,27.31a9.37,9.37,0,0,0-5.12,8.53,18.21,18.21,0,0,1-3.42,10.24,7.7,7.7,0,0,0,0,8.53c13.66,27.31,25.6,54.62,39.26,81.92,5.12,8.54,8.53,18.78,13.65,29,1.71-1.71,1.71-3.42,3.41-5.12,15.36-34.14,29-68.27,44.38-102.4,1.7-3.42,1.7-5.12-1.71-6.83A22.31,22.31,0,0,1,303.79,268Z"/><path class="bf2ecfc9-c6ce-4708-8119-d441d2d09c30" d="M245.76,223.57c-34.13-23.89-68.27-47.78-100.69-70l-1.71,1.71c1.71,3.41,1.71,5.12,3.41,8.53l35.84,76.8C186,247.47,187.73,254.29,198,256a15.34,15.34,0,0,0,8.54-1.71c10.24-8.53,22.18-15.36,32.42-23.89Z"/><path class="bf2ecfc9-c6ce-4708-8119-d441d2d09c30" d="M256,0C114.62,0,0,114.62,0,256S114.62,512,256,512,512,397.38,512,256,397.38,0,256,0ZM394.24,148.48c-3.41,0-5.12,1.71-6.83,5.12-13.65,34.13-29,68.27-42.66,102.4v6.83a22.2,22.2,0,0,1-10.58,29.54,23.85,23.85,0,0,1-3.08,1.18c-1.7,0-3.41,1.7-5.12,5.12-15.36,34.13-30.72,70-44.37,104.1a7.67,7.67,0,0,0,0,8.54,21.51,21.51,0,0,1-3.41,29A20.83,20.83,0,0,1,250.88,442a19.64,19.64,0,0,1-5.14-27.28l0,0a10.92,10.92,0,0,0,0-10.24c-17.07-34.13-32.43-68.27-49.49-102.4a12,12,0,0,0-8.54-6.83,21.85,21.85,0,0,1-15.36-32.42,7.67,7.67,0,0,0,0-8.54C157,220.16,141.65,187.73,124.59,153.6c0-1.71-1.71-3.41-6.83-3.41A21.85,21.85,0,0,1,99,129.71a26.27,26.27,0,0,1,15.36-22.19,21.17,21.17,0,0,1,25.6,8.53c1.7,3.42,3.41,3.42,8.53,3.42H365.23c3.41,0,6.82,0,8.53-5.12a19.63,19.63,0,0,1,23.89-8.54A23.89,23.89,0,0,1,413,126.29,22.19,22.19,0,0,1,394.24,148.48Z"/><path class="bf2ecfc9-c6ce-4708-8119-d441d2d09c30" d="M256,211.63a7.7,7.7,0,0,0,8.53,0c32.43-23.9,64.86-46.08,95.58-70,1.7-1.7,3.41-1.7,3.41-3.41v-1.71h-215A13.16,13.16,0,0,1,153.6,140Z"/><path class="bf2ecfc9-c6ce-4708-8119-d441d2d09c30" d="M273.07,223.57c13.65,10.24,27.3,18.78,41,27.31,3.41,1.71,8.53,0,13.65,0,1.71,0,3.41-3.41,3.41-5.12,12-27.31,23.9-56.32,35.84-83.63,0-1.7,1.71-3.41,1.71-5.12h-1.71C337.92,177.49,305.49,199.68,273.07,223.57Z"/></svg>