<svg width="512" height="512" viewBox="0 0 512 512" fill="none" xmlns="http://www.w3.org/2000/svg">
<circle cx="256" cy="256" r="256" fill="#FEFEFE"/>
<path d="M216.606 374.104L169.275 387.627C196.048 414.925 213.965 424.796 253.119 429.549L216.606 374.104Z" fill="#424242"/>
<path d="M297.746 352.466L224.72 371.398L261.233 426.844H280.166L297.746 352.466Z" fill="#41403E"/>
<path d="M303.155 376.809L289.632 422.788L312.622 414.674L303.155 376.809Z" fill="#41403E"/>
<path d="M320.736 410.617L312.622 349.762L387 329.477C369.551 367.609 353.839 384.455 320.736 410.617Z" fill="#41403E"/>
<path d="M358.601 191.539L312.622 338.943L376.181 320.011C380.128 268.306 377.711 239.965 358.601 191.539Z" fill="#41403E"/>
<path d="M219.311 364.637L144.933 249.689C161.792 173.735 186.013 146.208 238.244 106.342L293.689 343L219.311 364.637Z" fill="#67C5DF"/>
<path d="M301.803 343L239.596 82C290.404 118.748 315.361 142.71 346.43 198.301L301.803 343Z" fill="#868686"/>
<path d="M126.698 241.575L210.543 371.399L161.859 382.218C132.799 335.96 123.16 306.281 126.698 241.575Z" fill="#8D7E7B"/>
</svg>
