<svg width="162" height="39" viewBox="0 0 162 39" fill="none" xmlns="http://www.w3.org/2000/svg">
<path d="M23.5882 28.2159L16.8497 31.1539V30.8574C15.5559 31.1808 14.1004 31.3695 12.7527 31.4504C6.3916 31.3965 1.37816 28.0542 1.2973 24.1189V22.6634C3.37276 25.6822 7.63148 27.7307 12.7527 27.6499C14.4778 27.7307 16.2567 27.4612 17.7392 27.0569L18.3322 25.6014C16.5802 26.1404 14.6395 26.4909 12.7527 26.4909C6.3916 26.4909 1.37816 23.1755 1.2973 19.1594V17.9734C3.37276 20.7766 7.63148 22.7982 12.7527 22.6634C15.0708 22.7982 17.308 22.313 19.2217 21.4774L19.5182 20.0219C17.6584 20.9922 15.2595 21.5583 12.7797 21.4774C6.41855 21.5583 1.40512 18.2429 1.32426 14.1459V12.96C3.39971 15.8171 7.65844 17.8656 12.7797 17.9464C15.6907 17.8656 18.44 17.0839 20.7042 15.8979L21.0006 14.1459C18.9521 15.6554 15.9603 16.6527 12.7797 16.7874C6.41855 16.6527 1.40512 13.3104 1.32426 9.15946C1.37816 5.19722 6.41855 1.88189 12.7797 1.82798C16.5532 1.88189 20.0842 3.20264 22.1597 5.35895L22.3753 5.70935H23.8578L23.6421 5.35895C21.5667 2.52879 17.3888 0.668964 12.7797 0.668964C5.71775 0.64201 0.111328 4.49643 0.111328 9.13251V9.429V24.3884C0.353914 28.9167 5.82557 32.6094 12.7258 32.6094C17.281 32.6363 21.405 30.8304 23.5882 28.2159Z" fill="#D9DADB" fill-opacity="0.3"/>
<path d="M20.8391 38.5392L23.211 28.4585L16.3917 31.4234L20.5426 13.9572H12.5642L14.6397 5.35894H40.1112L38.0357 13.9572H29.7339L27.9549 18.7011L37.1462 14.8467L20.8391 38.5392ZM24.99 26.41L23.804 32.3398L33.5883 17.5421L25.583 21.1L29.1409 12.7982H37.1462L38.6287 6.57187H15.5022L14.0197 12.7982H22.0251L18.1706 29.3749L24.99 26.41Z" fill="#D9DADB" fill-opacity="0.3"/>
<path d="M57.0111 11.1271V11.1541C57.0381 12.0975 56.7416 12.8252 56.1486 13.3643C55.5556 13.9034 54.747 14.1729 53.6958 14.1729C52.6446 14.1729 51.782 13.8225 51.1351 13.1487C50.4882 12.4748 50.1648 11.5854 50.1648 10.5072V8.7552C50.1648 7.67704 50.4882 6.78756 51.1082 6.11371C51.7551 5.43986 52.5907 5.08947 53.6149 5.08947C54.6931 5.08947 55.5286 5.359 56.1486 5.87113C56.7685 6.41021 57.065 7.13796 57.0381 8.08135V8.1083H55.313C55.313 7.54227 55.1782 7.11101 54.9087 6.84147C54.6392 6.57193 54.2079 6.43716 53.6419 6.43716C53.1028 6.43716 52.6985 6.65279 52.402 7.08406C52.1055 7.51532 51.9438 8.0544 51.9438 8.72825V10.5072C51.9438 11.181 52.1055 11.7471 52.402 12.1783C52.7254 12.6096 53.1567 12.8252 53.7227 12.8252C54.2618 12.8252 54.6392 12.6905 54.9087 12.4209C55.1782 12.1514 55.313 11.7201 55.313 11.1541H57.0111V11.1271ZM66.7684 10.4263C66.7684 11.5045 66.418 12.4209 65.7442 13.1217C65.0703 13.8225 64.1809 14.1729 63.0757 14.1729C61.9706 14.1729 61.1081 13.8225 60.4073 13.1217C59.7334 12.4209 59.383 11.5045 59.383 10.4263V8.83606C59.383 7.7579 59.7334 6.86842 60.4073 6.14067C61.0811 5.43987 61.9706 5.06251 63.0488 5.06251C64.1539 5.06251 65.0434 5.41291 65.7172 6.14067C66.418 6.84147 66.7415 7.7579 66.7415 8.83606V10.4263H66.7684ZM64.9895 8.80911C64.9895 8.1083 64.8277 7.56923 64.4773 7.11101C64.1269 6.67975 63.6687 6.43716 63.0488 6.43716C62.4558 6.43716 61.9706 6.6528 61.6472 7.11101C61.3237 7.54227 61.1351 8.1083 61.1351 8.80911V10.3994C61.1351 11.1002 61.2968 11.6662 61.6472 12.1244C61.9706 12.5557 62.4558 12.7983 63.0488 12.7983C63.6687 12.7983 64.1269 12.5827 64.4773 12.1244C64.8277 11.6932 64.9895 11.1002 64.9895 10.3994V8.80911ZM71.3506 14.0382H69.5716V5.19728H71.3506V14.0382ZM81.5662 14.0382H79.7872L76.2293 8.08135H76.2023V14.0382H74.4234V5.19728H76.2023L79.7602 11.1541H79.7872V5.19728H81.5662V14.0382ZM90.4879 6.57193H87.9542V14.0382H86.1753V6.57193H83.6955V5.19728H90.4879V6.57193ZM97.8194 10.1568H94.531V12.6905H98.4393V14.0382H92.779V5.19728H98.4393V6.57193H94.558V8.78215H97.8463V10.1568H97.8194ZM102.752 12.6905H106.714V14.0382H100.973V5.19728H102.752V12.6905ZM114.261 10.1568H110.973V12.6905H114.881V14.0382H109.221V5.19728H114.881V6.57193H111V8.78215H114.288V10.1568H114.261ZM124.207 12.8522C123.938 13.2026 123.533 13.526 122.967 13.7956C122.428 14.0651 121.728 14.1999 120.865 14.1999C119.787 14.1999 118.924 13.8764 118.25 13.2026C117.577 12.5287 117.226 11.6662 117.226 10.5881V8.72825C117.226 7.65009 117.55 6.78756 118.224 6.11371C118.87 5.43986 119.733 5.08947 120.757 5.08947C121.835 5.08947 122.671 5.359 123.237 5.87113C123.803 6.38325 124.1 7.0571 124.073 7.91963V7.94658H122.401C122.401 7.48836 122.267 7.11101 121.997 6.84147C121.728 6.57193 121.323 6.43716 120.811 6.43716C120.272 6.43716 119.841 6.65279 119.49 7.0571C119.167 7.48836 119.005 8.02744 119.005 8.67434V10.5342C119.005 11.208 119.167 11.7471 119.517 12.1783C119.868 12.6096 120.326 12.7983 120.892 12.7983C121.323 12.7983 121.647 12.7444 121.889 12.6635C122.132 12.5827 122.321 12.4748 122.455 12.3401V10.615H120.757V9.37514H124.234V12.8522H124.207ZM128.789 10.5072V14.0382H127.011V5.19728H130.083C131.081 5.19728 131.889 5.43987 132.455 5.89808C133.021 6.3563 133.318 7.00319 133.318 7.81181C133.318 8.27002 133.21 8.64739 132.967 8.99779C132.725 9.32123 132.374 9.59077 131.916 9.80641C132.428 9.96813 132.806 10.2107 133.048 10.5881C133.264 10.9385 133.399 11.3967 133.399 11.9358V12.5827C133.399 12.8252 133.426 13.0948 133.506 13.3643C133.56 13.6339 133.695 13.8225 133.857 13.9573V14.0921H132.024C131.862 13.9573 131.754 13.7417 131.701 13.4452C131.647 13.1487 131.62 12.8522 131.62 12.5827V11.9627C131.62 11.5315 131.512 11.1811 131.269 10.9385C131.027 10.6959 130.676 10.5611 130.245 10.5611H128.789V10.5072ZM128.789 9.1595H130.056C130.541 9.1595 130.919 9.05169 131.161 8.83606C131.404 8.62043 131.539 8.32394 131.539 7.89267C131.539 7.48837 131.404 7.16492 131.161 6.92233C130.919 6.67975 130.568 6.57193 130.083 6.57193H128.789V9.1595ZM140.838 12.1514H137.981L137.388 14.0651H135.528L138.52 5.22424H140.326L143.291 14.0651H141.431L140.838 12.1514ZM138.412 10.7498H140.407L139.436 7.62314H139.409L138.412 10.7498ZM147.226 10.8307V14.0382H145.447V5.19728H148.843C149.867 5.19728 150.649 5.46682 151.242 5.97894C151.835 6.49107 152.105 7.19187 152.105 8.02744C152.105 8.86302 151.808 9.56382 151.242 10.0759C150.649 10.5881 149.867 10.8576 148.843 10.8576H147.226V10.8307ZM147.226 9.48295H148.843C149.328 9.48295 149.706 9.34819 149.975 9.07865C150.218 8.80911 150.353 8.45871 150.353 8.0544C150.353 7.62314 150.218 7.27273 149.975 7.00319C149.733 6.73365 149.355 6.59888 148.843 6.59888H147.226V9.48295ZM161.835 14.0382H160.056V10.3724H156.444V14.0382H154.665V5.19728H156.444V8.99779H160.056V5.19728H161.835V14.0382Z" fill="#D9DADB" fill-opacity="0.3"/>
<path d="M53.3993 28.4855H52.2942V22.6634H50.2996V21.72H55.3939V22.6634H53.3993V28.4855ZM60.8116 28.4855H59.7065V25.3319C59.7065 24.9276 59.6256 24.6311 59.4639 24.4424C59.3022 24.2537 59.0596 24.1459 58.7092 24.1459C58.251 24.1459 57.9275 24.2807 57.7119 24.5502C57.4963 24.8197 57.3885 25.278 57.3885 25.9249V28.4585H56.3103V21.2618H57.3885V23.0947C57.3885 23.3912 57.3615 23.6877 57.3345 24.0381H57.4154C57.5502 23.7955 57.7658 23.6068 58.0353 23.472C58.3049 23.3373 58.6014 23.2564 58.9518 23.2564C60.1917 23.2564 60.8116 23.8764 60.8116 25.1432V28.4855ZM64.5582 28.5663C63.7496 28.5663 63.1296 28.3238 62.6984 27.8655C62.2402 27.4073 62.0245 26.7604 62.0245 25.9518C62.0245 25.1162 62.2402 24.4693 62.6445 23.9842C63.0488 23.499 63.6418 23.2564 64.3695 23.2564C65.0434 23.2564 65.5825 23.472 65.9598 23.8764C66.3641 24.2807 66.5528 24.8467 66.5528 25.5745V26.1674H63.1296C63.1566 26.6526 63.2914 27.0569 63.534 27.2995C63.7765 27.5691 64.1539 27.7038 64.6121 27.7038C64.9086 27.7038 65.2051 27.6769 65.4477 27.623C65.7172 27.569 65.9868 27.4612 66.2833 27.3265V28.2159C66.0137 28.3507 65.7442 28.4316 65.4746 28.4855C65.2321 28.5394 64.9086 28.5663 64.5582 28.5663ZM64.3695 24.092C64.0191 24.092 63.7496 24.1998 63.534 24.4154C63.3183 24.6311 63.2105 24.9545 63.1566 25.3858H65.4746C65.4746 24.9545 65.3668 24.6311 65.1781 24.4154C64.9895 24.1998 64.7199 24.092 64.3695 24.092ZM72.8061 24.1729H71.5662V28.4855H70.4611V24.1729H69.6255V23.6607L70.4611 23.3373V23.0138C70.4611 22.4208 70.5959 21.9626 70.8924 21.6661C71.1889 21.3696 71.6201 21.2349 72.1862 21.2349C72.5635 21.2349 72.9409 21.2888 73.3182 21.4235L73.0217 22.2591C72.7522 22.1783 72.5096 22.1243 72.2401 22.1243C71.9975 22.1243 71.8088 22.2052 71.701 22.34C71.5932 22.5017 71.5393 22.7173 71.5393 23.0138V23.3373H72.7792V24.1729H72.8061ZM77.3074 28.4855L77.1457 27.8116H77.0918C76.9301 28.0542 76.7144 28.2429 76.4449 28.3777C76.1754 28.5124 75.8519 28.5933 75.5015 28.5933C74.8816 28.5933 74.4234 28.4316 74.0999 28.1351C73.7765 27.8386 73.6417 27.3534 73.6417 26.7335V23.3642H74.7468V26.5178C74.7468 26.9222 74.8277 27.1917 74.9894 27.4073C75.1511 27.596 75.3937 27.7038 75.7441 27.7038C76.2023 27.7038 76.5258 27.5691 76.7414 27.2995C76.957 27.03 77.0648 26.5718 77.0648 25.9249V23.3642H78.17V28.4855H77.3074ZM81.6201 27.6769C81.8896 27.6769 82.1591 27.623 82.4287 27.5421V28.3507C82.3209 28.4046 82.1591 28.4585 81.9705 28.4855C81.7818 28.5124 81.5931 28.5394 81.3775 28.5394C80.3532 28.5394 79.8411 28.0003 79.8411 26.9222V24.1729H79.1403V23.6877L79.895 23.2834L80.2724 22.2052H80.9462V23.3373H82.4017V24.1729H80.9462V26.9222C80.9462 27.1917 81.0001 27.3804 81.1349 27.5151C81.2158 27.623 81.4044 27.6769 81.6201 27.6769ZM87.0378 28.4855L86.8761 27.8116H86.8222C86.6604 28.0542 86.4448 28.2429 86.1753 28.3777C85.9057 28.5124 85.5823 28.5933 85.2319 28.5933C84.6119 28.5933 84.1537 28.4316 83.8303 28.1351C83.5338 27.8386 83.3721 27.3534 83.3721 26.7335V23.3642H84.4772V26.5178C84.4772 26.9222 84.558 27.1917 84.7198 27.4073C84.8815 27.596 85.1241 27.7038 85.4745 27.7038C85.9327 27.7038 86.2561 27.5691 86.4718 27.2995C86.6874 27.03 86.7952 26.5718 86.7952 25.9249V23.3642H87.9003V28.4855H87.0378ZM92.0512 23.2564C92.2669 23.2564 92.4556 23.2834 92.5903 23.3103L92.4825 24.3346C92.3208 24.3076 92.1591 24.2807 91.9973 24.2807C91.5661 24.2807 91.2157 24.4154 90.9461 24.7119C90.6766 25.0084 90.5418 25.3588 90.5418 25.817V28.4855H89.4637V23.3642H90.3262L90.461 24.2537H90.5149C90.6766 23.9572 90.9192 23.7146 91.1887 23.526C91.4313 23.3642 91.7278 23.2564 92.0512 23.2564ZM95.5822 28.5663C94.7736 28.5663 94.1536 28.3238 93.7224 27.8655C93.2642 27.4073 93.0485 26.7604 93.0485 25.9518C93.0485 25.1162 93.2642 24.4693 93.6685 23.9842C94.0728 23.499 94.6658 23.2564 95.3935 23.2564C96.0674 23.2564 96.6065 23.472 96.9838 23.8764C97.3881 24.2807 97.5768 24.8467 97.5768 25.5745V26.1674H94.1536C94.1806 26.6526 94.3154 27.0569 94.558 27.2995C94.8005 27.5691 95.1779 27.7038 95.6361 27.7038C95.9326 27.7038 96.2291 27.6769 96.4717 27.623C96.7412 27.569 97.0108 27.4612 97.3073 27.3265V28.2159C97.0377 28.3507 96.7682 28.4316 96.4986 28.4855C96.2291 28.5394 95.9326 28.5663 95.5822 28.5663ZM95.3935 24.092C95.0431 24.092 94.7736 24.1998 94.558 24.4154C94.3423 24.6311 94.2345 24.9545 94.1806 25.3858H96.4986C96.4986 24.9545 96.3908 24.6311 96.2021 24.4154C95.9865 24.1998 95.717 24.092 95.3935 24.092ZM105.798 25.8979C105.798 26.7335 105.582 27.3804 105.151 27.8655C104.72 28.3238 104.127 28.5663 103.372 28.5663C102.887 28.5663 102.482 28.4585 102.105 28.2429C101.728 28.0273 101.458 27.7038 101.269 27.2995C101.081 26.8952 100.973 26.437 100.973 25.8979C100.973 25.0623 101.189 24.4154 101.62 23.9572C102.051 23.499 102.644 23.2564 103.426 23.2564C104.154 23.2564 104.747 23.499 105.178 23.9842C105.609 24.4693 105.798 25.0893 105.798 25.8979ZM102.078 25.8979C102.078 27.0839 102.509 27.6769 103.399 27.6769C104.261 27.6769 104.693 27.0839 104.693 25.8979C104.693 24.7389 104.261 24.1459 103.399 24.1459C102.941 24.1459 102.617 24.3076 102.402 24.6041C102.186 24.9006 102.078 25.3319 102.078 25.8979ZM109.625 24.1729H108.385V28.4855H107.28V24.1729H106.445V23.6607L107.28 23.3373V23.0138C107.28 22.4208 107.415 21.9626 107.711 21.6661C108.008 21.3696 108.439 21.2349 109.005 21.2349C109.383 21.2349 109.76 21.2888 110.137 21.4235L109.841 22.2591C109.571 22.1783 109.329 22.1243 109.059 22.1243C108.817 22.1243 108.628 22.2052 108.52 22.34C108.412 22.4748 108.358 22.7173 108.358 23.0138V23.3373H109.598V24.1729H109.625ZM117.28 28.4855H116.175V25.3319C116.175 24.9276 116.094 24.658 115.959 24.4424C115.825 24.2537 115.582 24.1459 115.259 24.1459C114.827 24.1459 114.531 24.2807 114.342 24.5502C114.153 24.8197 114.046 25.278 114.046 25.9249V28.4855H112.968V23.3642H113.83L113.992 24.0381H114.046C114.18 23.7955 114.396 23.6068 114.666 23.472C114.935 23.3373 115.232 23.2834 115.555 23.2834C116.337 23.2834 116.876 23.5529 117.118 24.092H117.199C117.361 23.8494 117.577 23.6338 117.846 23.499C118.116 23.3642 118.439 23.2834 118.79 23.2834C119.41 23.2834 119.841 23.4451 120.137 23.7416C120.407 24.0381 120.569 24.5233 120.569 25.1432V28.4855H119.49V25.3319C119.49 24.9276 119.41 24.658 119.275 24.4424C119.113 24.2537 118.897 24.1459 118.574 24.1459C118.143 24.1459 117.846 24.2807 117.658 24.5502C117.469 24.8197 117.361 25.2241 117.361 25.7631V28.4855H117.28ZM126.552 25.8979C126.552 26.7335 126.337 27.3804 125.905 27.8655C125.474 28.3238 124.881 28.5663 124.126 28.5663C123.641 28.5663 123.237 28.4585 122.86 28.2429C122.482 28.0273 122.213 27.7038 122.024 27.2995C121.835 26.8952 121.728 26.437 121.728 25.8979C121.728 25.0623 121.943 24.4154 122.374 23.9572C122.806 23.499 123.399 23.2564 124.18 23.2564C124.908 23.2564 125.501 23.499 125.932 23.9842C126.337 24.4693 126.552 25.0893 126.552 25.8979ZM122.833 25.8979C122.833 27.0839 123.264 27.6769 124.153 27.6769C125.016 27.6769 125.447 27.0839 125.447 25.8979C125.447 24.7389 125.016 24.1459 124.153 24.1459C123.695 24.1459 123.372 24.3076 123.156 24.6041C122.94 24.9006 122.833 25.3319 122.833 25.8979ZM132.32 28.4855H131.215V25.3319C131.215 24.9276 131.134 24.6311 130.973 24.4424C130.811 24.2537 130.568 24.1459 130.218 24.1459C129.76 24.1459 129.409 24.2807 129.221 24.5502C129.032 24.8197 128.897 25.278 128.897 25.9249V28.4855H127.819V23.3642H128.682L128.843 24.0381H128.897C129.059 23.7955 129.275 23.6068 129.544 23.472C129.814 23.3373 130.137 23.2834 130.488 23.2834C131.727 23.2834 132.32 23.9033 132.32 25.1702V28.4855ZM136.067 28.5663C135.258 28.5663 134.638 28.3238 134.207 27.8655C133.749 27.4073 133.533 26.7604 133.533 25.9518C133.533 25.1162 133.749 24.4693 134.153 23.9842C134.558 23.499 135.151 23.2564 135.878 23.2564C136.552 23.2564 137.091 23.472 137.469 23.8764C137.873 24.2807 138.062 24.8467 138.062 25.5745V26.1674H134.638C134.665 26.6526 134.8 27.0569 135.043 27.2995C135.285 27.5691 135.663 27.7038 136.121 27.7038C136.417 27.7038 136.714 27.6769 136.957 27.623C137.199 27.569 137.496 27.4612 137.792 27.3265V28.2159C137.523 28.3507 137.253 28.4316 136.983 28.4855C136.714 28.5394 136.417 28.5663 136.067 28.5663ZM135.851 24.092C135.501 24.092 135.231 24.1998 135.016 24.4154C134.8 24.6311 134.692 24.9545 134.638 25.3858H136.957C136.957 24.9545 136.849 24.6311 136.66 24.4154C136.471 24.1998 136.202 24.092 135.851 24.092ZM138.331 23.3642H139.517L140.568 26.2753C140.73 26.6796 140.838 27.0839 140.892 27.4343H140.919C140.946 27.2726 141 27.0569 141.08 26.8143C141.161 26.5718 141.539 25.4127 142.266 23.3642H143.452L141.269 29.1593C140.865 30.2105 140.218 30.7496 139.275 30.7496C139.032 30.7496 138.789 30.7227 138.574 30.6688V29.8062C138.735 29.8332 138.924 29.8601 139.14 29.8601C139.652 29.8601 140.029 29.5636 140.245 28.9437L140.434 28.4585L138.331 23.3642Z" fill="#D9DADB" fill-opacity="0.3"/>
</svg>
