<svg width="155" height="31" viewBox="0 0 155 31" fill="none" xmlns="http://www.w3.org/2000/svg">
<path d="M13.8669 15.574C13.8669 16.3981 14.5107 17.0419 15.3348 17.0419C16.1589 17.0419 16.8027 16.3981 16.8027 15.574C16.8027 14.75 16.1589 14.1062 15.3348 14.1062C14.5107 14.1319 13.8669 14.7757 13.8669 15.574ZM26.1765 14.1319C25.3524 14.1319 24.7086 14.7757 24.7086 15.5998C24.7086 16.4239 25.3524 17.0677 26.1765 17.0677C27.0005 17.0677 27.6444 16.4239 27.6444 15.5998C27.6444 14.7757 27.0005 14.1319 26.1765 14.1319ZM26.1765 25.1539C25.3524 25.1539 24.7086 25.7977 24.7086 26.6217C24.7086 27.4458 25.3524 28.0896 26.1765 28.0896C27.0005 28.0896 27.6444 27.4458 27.6444 26.6217C27.6444 25.7977 27.0005 25.1539 26.1765 25.1539Z" fill="#D9DADB" fill-opacity="0.2"/>
<path d="M29.2922 2.0027C27.8244 0.174298 25.1976 0.0970442 23.6525 1.53917L23.4722 1.71943L23.1117 2.0027C21.6438 3.1873 19.4549 3.0843 18.09 1.71943V1.61642C17.6265 1.15288 17.0084 0.792351 16.3646 0.612086C16.2616 0.612086 16.0814 0.509079 16.0041 0.509079H14.5362C14.4332 0.509079 14.356 0.509077 14.253 0.612086H14.0727C13.9697 0.612086 13.8924 0.715093 13.7894 0.715093C13.7894 0.715093 13.6864 0.715099 13.6864 0.818108C13.5834 0.818108 13.5061 0.921115 13.4031 0.921115C13.4031 0.921115 13.3001 0.921114 13.3001 1.02412C13.1971 1.12713 13.1199 1.12713 13.0169 1.20439C13.0169 1.20439 12.9138 1.20439 12.9138 1.3074C12.8108 1.41041 12.7336 1.4104 12.6306 1.48766L12.5276 1.59067L12.3473 1.77093L11.9868 2.05421C10.5189 3.23881 8.32996 3.1358 7.06811 1.77093C7.06811 1.77093 6.9651 1.77094 6.9651 1.66793L6.78483 1.48766C6.24403 1.02412 5.60023 0.663589 4.87917 0.586332H3.23103C3.23103 0.689341 3.12802 0.689344 3.05077 0.766601H3.02501C2.56147 0.946866 2.12369 1.12713 1.73741 1.48766L1.6344 1.59067L1.35112 1.87394C0.990592 2.23447 0.810327 2.69801 0.630062 3.05854C0.630062 3.16155 0.527053 3.23881 0.527053 3.34182C0.527053 3.44483 0.424044 3.52208 0.424044 3.70235C0.321036 4.34615 0.321036 4.98995 0.527053 5.60801C0.527053 5.71101 0.630062 5.78827 0.630062 5.89128V5.99429C0.630062 6.0973 0.733071 6.17456 0.733071 6.27756C0.836079 6.38057 0.836079 6.45783 0.913336 6.63809C1.0936 6.7411 1.27387 6.92137 1.37687 6.99863L1.55714 7.17889L1.73741 7.35916C3.10227 8.72402 3.10227 11.0932 1.6344 12.5611C1.45413 12.7414 1.17086 13.0246 1.0936 13.2049C0.990592 13.3079 0.990592 13.3852 0.913336 13.5654V13.6684C0.810327 13.7714 0.810327 13.8487 0.733071 13.9517V14.0547C0.733071 14.1577 0.630062 14.235 0.630062 14.338V14.441C0.630062 14.544 0.630062 14.6213 0.527053 14.7243V16.0891C0.527053 16.1922 0.527053 16.2694 0.630062 16.3724V16.4754C0.810327 17.1192 1.17086 17.763 1.71165 18.3038C3.17953 19.7717 3.17953 22.1409 1.71165 23.583L1.60864 23.686L1.42838 23.8663V23.9693C1.32537 24.0723 1.24811 24.1496 1.24811 24.2526C1.24811 24.2526 1.24811 24.3556 1.14511 24.3556C1.0421 24.4586 1.0421 24.5359 0.96484 24.6389L0.861831 24.7419C0.861831 24.8449 0.758823 24.8449 0.758823 24.9221C0.758823 24.9994 0.655814 25.0251 0.655814 25.1024C0.655814 25.2054 0.655814 25.2054 0.552805 25.2827C0.37254 25.6432 0.269531 26.1067 0.269531 26.4673V27.1883C0.37254 27.4716 0.37254 27.7291 0.552805 27.9094C0.552805 28.0124 0.655814 28.0897 0.655814 28.0897C0.655814 28.0897 0.655814 28.1927 0.758823 28.1927C0.758823 28.2957 0.861831 28.3729 0.861831 28.4759C0.861831 28.4759 0.861831 28.5789 0.96484 28.5789C1.06785 28.7592 1.14511 28.8622 1.24811 28.9395C1.24811 28.9395 1.24811 29.0425 1.35112 29.0425C1.35112 29.0425 1.35112 29.1455 1.45413 29.1455C1.45413 29.2485 1.55714 29.2485 1.55714 29.2485L1.66015 29.3515C1.76316 29.4545 1.84041 29.4545 1.84041 29.5318L1.94342 29.6348C1.94342 29.6348 2.04643 29.6348 2.04643 29.7378C2.14944 29.8408 2.2267 29.9181 2.3297 29.9181C2.3297 29.9181 2.43271 29.9181 2.43271 30.0211C2.53572 30.1241 2.61298 30.1241 2.71599 30.2013H2.76749C2.8705 30.3043 2.94776 30.3043 3.12802 30.3043C3.23103 30.3043 3.4113 30.4074 3.48855 30.4074H3.59156C3.69457 30.4074 3.77183 30.4074 3.87484 30.5104H4.6989C4.98218 30.5104 5.16244 30.4074 5.41997 30.4074H5.52297C5.62598 30.4074 5.70324 30.3043 5.80625 30.3043H5.85775C5.96076 30.3043 6.03802 30.2013 6.14103 30.2013H6.24404C6.4243 30.0983 6.70757 29.9181 6.88784 29.8408L7.17111 29.5575L7.27412 29.4545C8.742 27.9094 11.1112 27.9094 12.5533 29.4545C14.2015 31.1799 16.9312 31.1027 18.4763 29.1712C19.5579 27.8064 19.5579 25.7977 18.4763 24.3298C17.0084 22.5014 14.3817 22.4242 12.8366 23.8663L12.6563 24.0466L12.2958 24.3298C10.8279 25.5144 8.63899 25.4114 7.27412 24.0466L7.09386 23.8663L6.81058 23.5058C5.62598 22.0379 5.72899 19.849 7.09386 18.4841C7.91793 17.763 8.27846 16.7587 8.27846 15.7544V15.4711C8.27846 14.5698 7.91793 13.6427 7.19687 12.9989C7.19687 12.8959 7.09386 12.8959 7.09386 12.8186L6.81058 12.4581C5.62598 10.9902 5.72899 8.80128 7.09386 7.43641L7.19687 7.3334L7.29987 7.2304C8.76775 5.68527 11.1369 5.68527 12.5791 7.2304L12.6821 7.3334L12.7851 7.43641L12.9654 7.61668C13.0684 7.61668 13.0684 7.71969 13.1456 7.71969C13.2229 7.71969 13.2486 7.82269 13.3259 7.82269C13.4031 7.82269 13.4289 7.9257 13.5061 7.9257C13.5834 7.9257 13.6092 8.02872 13.6864 8.02872C13.7637 8.02872 13.7894 8.13172 13.8667 8.13172C13.9439 8.13172 13.9697 8.23473 14.0469 8.23473C14.1242 8.23473 14.15 8.23473 14.2272 8.33774C14.3302 8.33774 14.3302 8.33774 14.4075 8.44074H15.9526C16.0556 8.44074 16.1329 8.44075 16.2359 8.33774H16.4161C16.5192 8.33774 16.5964 8.23473 16.6994 8.23473H16.8024C16.9054 8.23473 16.9827 8.13172 17.163 8.05446C17.5235 7.8742 17.884 7.59093 18.1673 7.3334L18.2703 7.2304C19.7382 5.68527 22.1074 5.68527 23.5495 7.2304C25.0946 9.0588 27.9274 8.95579 29.3952 7.05013C30.3738 5.37624 30.3738 3.36757 29.2922 2.0027Z" fill="#D9DADB" fill-opacity="0.2"/>
<path d="M50.0744 13.3078C49.5336 12.767 49.0701 12.4065 48.4263 12.1232C47.8855 11.8399 47.2417 11.6597 46.4176 11.6597C45.6965 11.6597 44.9497 11.8399 44.4089 12.1232C43.8681 12.4065 43.4046 12.767 43.0441 13.3078C42.6835 13.7713 42.4003 14.3121 42.22 14.9559C42.0397 15.5997 41.9367 16.2435 41.9367 16.8616C41.9367 17.4796 42.0397 18.1492 42.2973 18.7673C42.4775 19.4111 42.8381 19.8488 43.1986 20.3124C43.5591 20.7759 44.0999 21.1365 44.6665 21.394C45.2072 21.6773 45.8511 21.7545 46.5721 21.7545C47.3962 21.7545 48.04 21.5742 48.5808 21.291C49.1216 21.0077 49.6624 20.6472 50.1259 20.1064L52.0316 22.115C51.3105 22.9391 50.4864 23.4799 49.5594 23.8404C48.658 24.201 47.6537 24.3812 46.5464 24.3812C45.4648 24.3812 44.3574 24.201 43.4561 23.8404C42.5548 23.4799 41.7307 22.9391 41.0869 22.2953C40.4431 21.6515 39.9023 20.8274 39.5418 19.9261C39.1812 19.0248 39.001 17.9174 39.001 16.8358C39.001 15.7543 39.1812 14.6469 39.5418 13.7456C39.9023 12.8443 40.4431 12.0202 41.0869 11.2734C41.7307 10.6296 42.5548 10.0888 43.4561 9.72824C44.3574 9.36771 45.4648 9.18745 46.5464 9.18745C47.628 9.18745 48.6323 9.36771 49.5594 9.72824C50.5637 10.0888 51.3878 10.7326 52.1088 11.4536L50.0744 13.3078ZM56.2549 16.6813C56.2549 17.4024 56.3579 18.1492 56.6155 18.69C56.7957 19.3338 57.1563 19.8746 57.5168 20.3381C57.8773 20.8017 58.4181 21.1622 58.9847 21.3425C59.5255 21.6257 60.2723 21.703 60.9933 21.703C61.7144 21.703 62.3582 21.6 63.002 21.3425C63.5428 21.0592 64.0836 20.6987 64.4699 20.3381C64.8304 19.8746 65.1909 19.3338 65.3712 18.69C65.5515 18.0462 65.7317 17.4024 65.7317 16.6813C65.7317 15.9603 65.6287 15.2135 65.3712 14.6727C65.1909 14.0289 64.8304 13.4881 64.4699 13.0245C64.1093 12.561 63.5685 12.2005 63.002 12.0202C62.4612 11.7369 61.7144 11.6597 60.9933 11.6597C60.2723 11.6597 59.6285 11.7627 58.9847 12.0202C58.4439 12.3035 57.9031 12.664 57.5168 13.0245C57.1563 13.4881 56.7957 14.0289 56.6155 14.6727C56.4352 15.3165 56.2549 15.9603 56.2549 16.6813ZM53.3449 16.6813C53.3449 15.5997 53.5252 14.5954 53.8857 13.6683C54.2463 12.767 54.7871 11.9429 55.5339 11.1961C56.2549 10.4751 57.0017 9.90851 58.0061 9.54798C58.9074 9.18745 59.9117 8.90418 61.0191 8.90418C62.1264 8.90418 63.105 9.08444 64.0321 9.54798C64.9334 9.90851 65.7575 10.4493 66.5043 11.1961C67.2254 11.9172 67.6889 12.7413 68.1524 13.6683C68.513 14.5697 68.6932 15.574 68.6932 16.6813C68.6932 17.7629 68.513 18.7673 68.1524 19.6943C67.7919 20.5957 67.2511 21.4197 66.5043 22.1665C65.7832 22.8876 65.0364 23.3511 64.0321 23.8147C63.1308 24.1752 62.1264 24.4585 61.0191 24.4585C59.9375 24.4585 58.9332 24.2782 58.0061 23.8147C57.1048 23.4542 56.2807 22.9134 55.5339 22.1665C54.8128 21.4455 54.3493 20.6987 53.8857 19.6943C53.6282 18.7673 53.3449 17.7629 53.3449 16.6813ZM71.5002 24.0722H74.2299V9.49647H71.5002V24.0722ZM70.8564 4.19152C70.8564 3.65073 71.0367 3.18719 71.3972 2.72365C71.7577 2.36312 72.2213 2.07985 72.7621 2.07985C73.3029 2.07985 73.7664 2.26012 74.1269 2.72365C74.4875 3.08419 74.6677 3.62498 74.6677 4.19152C74.6677 4.75807 74.4875 5.19586 74.1269 5.6594C73.7664 6.01993 73.3029 6.30321 72.7621 6.30321C72.2213 6.30321 71.7577 6.12294 71.3972 5.6594C71.0367 5.27312 70.8564 4.73232 70.8564 4.19152ZM78.0413 9.47072H80.7967V11.7369H80.8998C81.2603 10.9128 81.8011 10.269 82.7282 9.83126C83.5522 9.36772 84.5566 9.11019 85.7412 9.11019C86.4622 9.11019 87.106 9.2132 87.7498 9.47072C88.3936 9.65098 88.9344 10.0115 89.398 10.4751C89.8615 10.9386 90.222 11.4794 90.5826 12.2005C90.8658 12.9215 91.0461 13.7456 91.0461 14.7499V24.1495H88.2649V15.4967C88.2649 14.8529 88.1619 14.2091 87.9816 13.7713C87.8013 13.3078 87.5181 12.87 87.2605 12.5867C86.9773 12.3035 86.6167 12.0459 86.179 11.9429C85.8184 11.8399 85.3549 11.7627 84.8913 11.7627C84.3505 11.7627 83.8097 11.8657 83.3462 12.0459C82.8827 12.2262 82.4449 12.5095 82.0586 12.9473C81.6981 13.3078 81.4148 13.8486 81.2345 14.4924C81.0543 15.1362 80.9513 15.8573 80.9513 16.6813V24.2525H78.2215V9.49647L78.0413 9.47072ZM101.115 21.7803C101.836 21.7803 102.48 21.6773 103.124 21.4197C103.768 21.1365 104.205 20.7759 104.669 20.3381C105.03 19.8746 105.39 19.3338 105.57 18.69C105.751 18.0462 105.931 17.4024 105.931 16.6041C105.931 15.883 105.828 15.1362 105.57 14.5181C105.39 13.8743 105.03 13.3335 104.669 12.87C104.205 12.4065 103.768 12.0459 103.124 11.7884C102.48 11.5051 101.836 11.4279 101.115 11.4279C100.394 11.4279 99.7504 11.5309 99.1065 11.7884C98.4627 12.0717 98.025 12.4322 97.5614 12.87C97.2009 13.3335 96.8404 13.8743 96.6601 14.5181C96.4798 15.162 96.2996 15.8058 96.2996 16.6041C96.2996 17.3251 96.4026 18.072 96.6601 18.69C96.8404 19.3338 97.2009 19.8746 97.5614 20.3381C97.9219 20.8017 98.4627 21.1622 99.1065 21.4197C99.6473 21.6 100.394 21.7803 101.115 21.7803ZM108.686 23.9692H105.957V21.8833H105.854C105.313 22.7073 104.566 23.2481 103.665 23.7117C102.763 24.1752 101.759 24.3555 100.755 24.3555C99.6731 24.3555 98.5658 24.1752 97.6644 23.8147C96.7631 23.4542 95.939 22.9134 95.2952 22.1665C94.6514 21.4455 94.1106 20.6214 93.8273 19.6943C93.4668 18.793 93.2866 17.7887 93.2866 16.6813C93.2866 15.574 93.4668 14.5954 93.8273 13.5911C94.1879 12.6897 94.6514 11.8657 95.2952 11.1189C95.939 10.3978 96.7631 9.83125 97.6644 9.47072C98.5658 9.11019 99.5701 8.92993 100.755 8.92993C101.759 8.92993 102.763 9.1102 103.665 9.57373C104.566 10.0373 105.313 10.6553 105.751 11.4021H105.854V0.457458H108.583V23.9692H108.686ZM122.618 15.4967C122.618 14.8529 122.515 14.3121 122.335 13.7713C122.155 13.2305 121.871 12.767 121.511 12.4065C121.15 12.0459 120.687 11.7627 120.223 11.5051C119.683 11.3249 119.142 11.1446 118.395 11.1446C117.751 11.1446 117.107 11.2476 116.567 11.5051C116.026 11.7884 115.562 12.0459 115.099 12.5095C114.738 12.87 114.378 13.3335 114.197 13.8743C114.017 14.4151 113.837 14.8787 113.837 15.3422H122.593L122.618 15.4967ZM113.888 17.7629C113.888 18.4067 114.069 18.9475 114.352 19.4883C114.635 20.0291 114.996 20.4927 115.433 20.8532C115.897 21.2137 116.438 21.497 116.979 21.6773C117.622 21.8575 118.163 21.9605 118.807 21.9605C119.631 21.9605 120.455 21.7803 121.073 21.3167C121.717 20.9562 122.258 20.4154 122.799 19.7716L124.884 21.4197C123.339 23.4284 121.15 24.4327 118.421 24.4327C117.236 24.4327 116.232 24.2525 115.33 23.8919C114.429 23.5314 113.605 22.9906 112.961 22.2438C112.317 21.5227 111.777 20.7759 111.493 19.7716C111.133 18.8703 110.953 17.8659 110.953 16.7586C110.953 15.677 111.133 14.6727 111.493 13.7456C111.854 12.8443 112.395 12.0202 113.038 11.2734C113.682 10.5523 114.506 10.0888 115.408 9.62523C116.309 9.2647 117.313 9.08444 118.421 9.08444C119.708 9.08444 120.79 9.2647 121.691 9.72824C122.593 10.1918 123.339 10.7326 123.88 11.4536C124.421 12.1747 124.884 12.9988 125.168 13.9259C125.451 14.8272 125.528 15.7543 125.528 16.7586V17.7629H113.888ZM136.293 13.1275C135.932 12.767 135.572 12.4065 135.108 12.1232C134.645 11.8399 134.026 11.6597 133.383 11.6597C132.739 11.6597 132.198 11.8399 131.657 12.1232C131.194 12.4065 130.936 12.767 130.936 13.3078C130.936 13.7713 131.116 14.1319 131.4 14.3121C131.683 14.5954 132.044 14.7757 132.404 14.9559C132.765 15.1362 133.228 15.2392 133.589 15.3165C134.052 15.4195 134.413 15.4967 134.67 15.4967C135.211 15.677 135.855 15.78 136.318 16.0375C136.859 16.2178 137.323 16.5011 137.683 16.8616C138.044 17.2221 138.327 17.5827 138.585 18.0462C138.765 18.5097 138.945 19.0505 138.945 19.7716C138.945 20.5957 138.765 21.3167 138.404 21.8575C138.044 22.3983 137.58 22.9391 137.039 23.3254C136.499 23.7117 135.855 23.9692 135.134 24.1495C134.413 24.3297 133.666 24.4327 133.048 24.4327C131.863 24.4327 130.782 24.2525 129.855 23.8919C128.953 23.5314 128.129 22.8876 127.382 21.8833L129.468 20.1579C129.932 20.6214 130.37 20.9819 130.936 21.3425C131.503 21.703 132.121 21.8833 132.945 21.8833C133.305 21.8833 133.666 21.8833 134.026 21.7803C134.387 21.6773 134.67 21.6 134.928 21.4197C135.211 21.2395 135.391 21.0592 135.572 20.8789C135.752 20.5957 135.855 20.3381 135.855 20.0549C135.855 19.6943 135.752 19.3338 135.494 19.0505C135.211 18.7673 134.954 18.587 134.593 18.4067C134.232 18.2265 133.872 18.1235 133.511 18.0462L132.43 17.7629C131.889 17.5827 131.245 17.4797 130.782 17.2994C130.241 17.1191 129.777 16.8358 129.417 16.5783C129.056 16.295 128.696 15.8573 128.413 15.3937C128.129 14.9302 128.052 14.3121 128.052 13.6683C128.052 12.9473 128.232 12.2004 128.516 11.6597C128.799 11.1189 129.237 10.6553 129.803 10.2948C130.344 9.93426 130.885 9.65098 131.529 9.47072C132.172 9.29045 132.893 9.18745 133.537 9.18745C134.542 9.18745 135.443 9.36771 136.37 9.72824C137.271 10.0888 138.018 10.7326 138.559 11.5566L136.293 13.1275ZM141.598 0.817995H144.327V15.574L150.534 9.36771H154.268L147.624 15.9345L154.911 23.7632H150.997L144.353 16.295V23.7632H141.623V0.817995" fill="#D9DADB" fill-opacity="0.2"/>
</svg>
