<svg xmlns="http://www.w3.org/2000/svg" viewBox="0 0 100 100"><defs><style>.cls-1{fill:#070a0e;}.cls-2{fill:#00d395;fill-rule:evenodd;}</style></defs><g id="Layer_2" data-name="Layer 2"><g id="Layer_1-2" data-name="Layer 1"><path class="cls-1" d="M50,100A50,50,0,1,0,0,50,50,50,0,0,0,50,100Z"/><path class="cls-2" d="M28.89,66.77a5,5,0,0,1-2.41-4.29V52.7a2.09,2.09,0,0,1,2.1-2.09,2.14,2.14,0,0,1,1.05.28L51.68,63.75a4.19,4.19,0,0,1,2.08,3.63V77.5A2.51,2.51,0,0,1,51.25,80a2.58,2.58,0,0,1-1.32-.37ZM61.75,48.22a4.2,4.2,0,0,1,2.08,3.63V72.38A1.67,1.67,0,0,1,63,73.84l-4.83,2.72-.2.08V65.23a4.2,4.2,0,0,0-2-3.6L36.55,50.05V37.17a2.1,2.1,0,0,1,2.1-2.09,2.18,2.18,0,0,1,1.06.28ZM71.4,33.05a4.21,4.21,0,0,1,2.09,3.63v30a1.69,1.69,0,0,1-.89,1.47L68,70.62V49.74a4.2,4.2,0,0,0-2-3.6L46.2,34.27V22.06a2.14,2.14,0,0,1,.28-1,2.12,2.12,0,0,1,2.87-.77Z"/></g></g></svg>