<svg width="512" height="512" viewBox="0 0 512 512" fill="none" xmlns="http://www.w3.org/2000/svg">
<path d="M256 0C397.385 0 512 114.615 512 256C512 397.385 397.385 512 256 512C114.615 512 0 397.385 0 256C0 114.615 114.615 0 256 0Z" fill="#FEFEFE"/>
<path d="M111.557 222.589C106.423 222.589 104.141 224.871 104.141 229.435C104.141 229.435 104.141 332.171 104.141 347.005C104.141 352.139 106.423 353.851 111.557 353.851C168.068 354.421 237.115 304.201 294.195 264.821V128.98C237.7 167.79 166.927 223.159 111.557 222.589Z" fill="url(#paint0_linear_17_6777)"/>
<path d="M408.912 275.661C414.047 275.661 416.329 273.378 416.329 268.814C416.329 268.814 416.329 166.078 416.329 151.245C416.329 146.11 414.047 144.398 408.912 144.398C351.832 143.828 283.355 194.048 226.275 233.428V368.698C282.785 329.889 353.558 274.519 408.912 275.661Z" fill="url(#paint1_linear_17_6777)"/>
<path d="M294.195 264.821V187.202C270.789 202.036 247.398 218.025 225.704 232.858V310.477C249.68 295.644 272.516 279.655 294.195 264.821Z" fill="#194AAD"/>
<defs>
<linearGradient id="paint0_linear_17_6777" x1="216.553" y1="337.121" x2="183.28" y2="148.552" gradientUnits="userSpaceOnUse">
<stop offset="0.1" stop-color="#194AAD"/>
<stop offset="0.5" stop-color="#248FCB"/>
<stop offset="0.8" stop-color="#2BBFDF"/>
</linearGradient>
<linearGradient id="paint1_linear_17_6777" x1="342.403" y1="131.975" x2="298.403" y2="381.479" gradientUnits="userSpaceOnUse">
<stop offset="0.1" stop-color="#194AAD"/>
<stop offset="0.5" stop-color="#248FCB"/>
<stop offset="0.8" stop-color="#2BBFDF"/>
</linearGradient>
</defs>
</svg>
