<svg id="Layer_1" data-name="Layer 1" xmlns="http://www.w3.org/2000/svg" viewBox="0 0 512 512"><defs><style>.cls-1{fill:#008de4;}</style></defs><g id="Layer_2" data-name="Layer 2"><g id="Layer_1-2" data-name="Layer 1-2"><path class="cls-1" d="M335.54,47.6H148.64l-15.5,86.6,168.7.2c83.1,0,107.6,30.2,106.9,80.2-.4,25.6-11.5,69-16.3,83.1-12.8,37.5-39.1,80.2-137.7,80.1l-164-.1L75.29,464.4h186.5c65.8,0,93.7-7.7,123.4-21.3,65.7-30.5,104.8-95.3,120.5-179.9,23.25-126-5.75-215.6-170.15-215.6"/><path class="cls-1" d="M68,212.5c-49,0-56,31.9-60.6,51.2-6.1,25.2-8.1,35.5-8.1,35.5h191.4c49,0,56-31.9,60.6-51.2,6.1-25.2,8.1-35.5,8.1-35.5Z"/></g></g></svg>