<svg id="Layer_1" data-name="Layer 1" xmlns="http://www.w3.org/2000/svg" xmlns:xlink="http://www.w3.org/1999/xlink" viewBox="0 0 512 512"><defs><style>.cls-1{fill:url(#linear-gradient);}.cls-2{fill:#4971fa;}.cls-3{fill:url(#linear-gradient-2);}</style><linearGradient id="linear-gradient" x1="-7377.92" y1="-614.33" x2="-7091.56" y2="-614.33" gradientTransform="matrix(1, 0, 0, -1, 7603.2, -358.83)" gradientUnits="userSpaceOnUse"><stop offset="0" stop-color="#62d0c9"/><stop offset="1" stop-color="#7de2ac"/></linearGradient><linearGradient id="linear-gradient-2" x1="-7602.3" y1="-614.83" x2="-7315.93" y2="-614.83" gradientTransform="matrix(1, 0, 0, -1, 7603.2, -358.83)" gradientUnits="userSpaceOnUse"><stop offset="0" stop-color="#3268fb"/><stop offset="1" stop-color="#4795fa"/></linearGradient></defs><g id="Laag_3" data-name="Laag 3"><g id="Layer_1-2" data-name="Layer 1-2"><path id="_Pad_" data-name=" Pad " class="cls-1" d="M225.28,303.45H351.65a85.17,85.17,0,1,0,.5-170.33H311.69L225.28,58.2H351.65A159.36,159.36,0,0,1,512,217.54c.49,65.43-39.47,124.38-100.4,148.85l99.9,86.42H397.61Z"/><path id="_Pad_2" data-name=" Pad 2" class="cls-2" d="M287.22,208.05H160.84a85.42,85.42,0,0,0,0,170.83H201.3l85.92,74.92H160.84C72.43,453.8.5,382.38,0,294.46A159.58,159.58,0,0,1,100.4,145.11L.5,58.2H114.89Z"/><path id="_Pad_3" data-name=" Pad 3" class="cls-3" d="M287.22,208.05H160.84a85.42,85.42,0,0,0,0,170.83H201.3l85.92,74.92H160.84C72.43,453.8.5,382.38,0,294.46A159.58,159.58,0,0,1,100.4,145.11L.5,58.2H114.89Z"/></g></g></svg>