<svg id="Layer_1" data-name="Layer 1" xmlns="http://www.w3.org/2000/svg" viewBox="0 0 512 512"><defs><style>.cls-1{fill:#002352;stroke:#06c;stroke-miterlimit:10;stroke-width:43.87px;}.cls-2{fill:#fff;}</style></defs><circle class="cls-1" cx="256" cy="256" r="236"/><path class="cls-2" d="M122.56,193.1H289.21s57.52-.54,17.74,73.65c0,0-29,58.06-101.06,57L244.7,224.6a7.84,7.84,0,0,0-4.38-10.19,8,8,0,0,0-2.72-.56L186.53,213,122,370s21.51,2.15,33.33,1.07l-6.45,16.13h30.43a4.08,4.08,0,0,0,3.87-2.69L188.68,370l12.91-1.08-7.53,18.28h29.68a5.37,5.37,0,0,0,5-3.44l8.28-21.29s90.31-15.05,131.17-88.16c0,0,54.83-84.94-9.68-115a125,125,0,0,0-39.78-10.75l7.53-18.6a3.66,3.66,0,0,0-2-4.77,3.52,3.52,0,0,0-1.36-.28H295.13l-8.6,22.58H274.7l6.66-17.53a3.77,3.77,0,0,0-3.44-5H250l-8.6,22.58H154.49a12.88,12.88,0,0,0-11.39,6.77Z"/></svg>