<svg width="512" height="512" viewBox="0 0 512 512" fill="none" xmlns="http://www.w3.org/2000/svg">
<path d="M256 512C397.385 512 512 397.385 512 256C512 114.615 397.385 0 256 0C114.615 0 0 114.615 0 256C0 397.385 114.615 512 256 512Z" fill="#0E1736"/>
<path d="M254.896 172.336L228.832 146.208C225.323 142.851 223.29 138.238 223.182 133.383C223.074 128.528 224.899 123.829 228.256 120.32C231.613 116.811 236.226 114.778 241.081 114.67C245.936 114.562 250.635 116.387 254.144 119.744L254.752 120.352L312.928 178.528C320.08 185.68 320.08 197.248 312.928 204.4L254.688 262.576C251.233 265.873 246.625 267.687 241.849 267.631C237.073 267.575 232.509 265.653 229.132 262.276C225.755 258.899 223.833 254.334 223.777 249.559C223.721 244.783 225.535 240.175 228.832 236.72L256.144 209.408C237.743 206.16 218.788 208.647 201.848 216.533C184.908 224.419 170.803 237.323 161.442 253.495C152.082 269.667 147.919 288.325 149.519 306.942C151.119 325.559 158.404 343.234 170.386 357.572C182.368 371.91 198.469 382.217 216.505 387.098C234.542 391.978 253.644 391.195 271.221 384.856C288.798 378.516 304.001 366.925 314.77 351.655C325.539 336.385 331.353 318.173 331.424 299.488V98.2719C331.424 93.4216 333.351 88.77 336.78 85.3403C340.21 81.9107 344.862 79.9839 349.712 79.9839C354.562 79.9839 359.214 81.9107 362.644 85.3403C366.073 88.77 368 93.4216 368 98.2719V301.936C367.489 327.773 359.17 352.851 344.136 373.871C329.102 394.89 308.058 410.867 283.772 419.699C259.485 428.531 233.094 429.806 208.07 423.354C183.046 416.902 160.56 403.027 143.571 383.554C126.583 364.08 115.886 339.921 112.889 314.252C109.892 288.584 114.734 262.61 126.779 239.746C138.824 216.883 157.508 198.2 180.373 186.157C203.237 174.113 229.212 169.273 254.88 172.272L254.896 172.336Z" fill="white"/>
</svg>
