<svg width="100" height="100" viewBox="0 0 100 100" fill="none" xmlns="http://www.w3.org/2000/svg">
<path d="M50 100C77.6142 100 100 77.6142 100 50C100 22.3858 77.6142 0 50 0C22.3858 0 0 22.3858 0 50C0 77.6142 22.3858 100 50 100Z" fill="#FFE804"/>
<path fill-rule="evenodd" clip-rule="evenodd" d="M57.3214 24.2143C57.6429 23.4286 57.8214 22.6786 57.8572 21.9643C58.0357 20.4643 57.6786 19.2857 56.7857 18.9286C55.9286 18.5714 54.8214 19.1428 53.8571 20.25V20.0357C53.8571 16.9643 52.4286 14.4286 50.6429 14.4286C48.8571 14.4286 47.4286 16.9286 47.4286 20.0357C47.4286 20.25 47.4286 20.4643 47.4643 20.6786C46.3929 19.25 44.9643 18.5 43.9643 18.9643C42.7143 19.5714 42.5357 21.8214 43.6072 24.0357C43.7857 24.3928 44.1786 25.0357 44.4286 25.3571C30.6786 27.5 22.8571 38.3571 21.8571 56.2143H29.5357C30.3571 41.5 37.9643 33.1428 50.6429 33.1428C62 33.1428 70.5 41.1428 70.3929 56.2143H78.0714C78.2143 38.4286 68.1429 26.9286 56.6072 25.4286C56.8929 25.0714 57.1072 24.6786 57.3214 24.2143Z" fill="black"/>
<path fill-rule="evenodd" clip-rule="evenodd" d="M41 43.3929V48.3571C41 49.4643 42.1428 50.3571 43.5357 50.3571C44.9285 50.3571 46.0714 49.4643 46.0714 48.3571V43.3929C46.0714 42.2857 44.9285 41.3929 43.5357 41.3929C42.1428 41.3929 41 42.2857 41 43.3929ZM56.6428 41.3929C55.3571 41.3929 54.2857 42.2857 54.2857 43.3929V48.3571C54.2857 49.4643 55.3214 50.3571 56.6428 50.3571C57.9285 50.3571 59 49.4643 59 48.3571V43.3929C59 42.2857 57.9285 41.3929 56.6428 41.3929Z" fill="black"/>
<path fill-rule="evenodd" clip-rule="evenodd" d="M45 69.5357C44.7857 70.1071 44.5357 70.5714 44.1786 70.9643C43.8214 71.3571 43.4286 71.6786 42.9286 71.8929C42.4643 72.1071 41.9286 72.25 41.3929 72.25C40.8571 72.25 40.3214 72.1429 39.8571 71.8929C39.3929 71.6786 38.9643 71.3571 38.6071 70.9643C38.25 70.5357 37.9643 70.0714 37.7857 69.5357C37.5714 68.9643 37.5 68.3571 37.5 67.75C37.5 67.1071 37.6071 66.5357 37.7857 65.9643C38 65.3929 38.25 64.9286 38.6071 64.5357C38.9643 64.1429 39.3571 63.8214 39.8571 63.6071C40.3571 63.3929 40.8571 63.25 41.3929 63.25C41.9286 63.25 42.4643 63.3571 42.9286 63.6071C43.3929 63.8214 43.8214 64.1429 44.1786 64.5357C44.5357 64.9286 44.7857 65.3929 45 65.9643C45.1786 66.5357 45.2857 67.1071 45.2857 67.75C45.3214 68.3929 45.2143 69 45 69.5357ZM48.6429 64.7857C48.2857 63.8929 47.7143 63.0714 47.0357 62.3571C45.6071 60.9286 43.6429 60.1429 41.6429 60.1429C39.6071 60.1429 37.6786 60.9286 36.2143 62.3571C35.5357 63.0357 34.9643 63.8929 34.6071 64.7857C34.2143 65.7143 34 66.75 34 67.7857C34 68.8571 34.2143 69.8214 34.6071 70.7857C35 71.7143 35.5357 72.5357 36.2143 73.2143C37.6429 74.6429 39.6071 75.4286 41.6429 75.4286C43.6786 75.4286 45.6071 74.6429 47.0357 73.2143C47.7143 72.5357 48.25 71.7143 48.6429 70.7857C49.0357 69.8571 49.25 68.8571 49.25 67.7857C49.25 66.7143 49.0357 65.7143 48.6429 64.7857ZM27.8571 69.5357C27.6786 70.0357 27.4286 70.5357 27.1071 70.9643C26.7857 71.3571 26.4286 71.6786 25.9643 71.8929C25.5357 72.1071 25.0714 72.25 24.5714 72.25H22.25V63.25H24.5714C25.0714 63.25 25.5357 63.3571 25.9643 63.6071C26.3929 63.8571 26.7857 64.1786 27.1071 64.5714C27.4286 64.9643 27.6786 65.4643 27.8571 66C28.0357 66.5714 28.1429 67.1429 28.1429 67.7857C28.1429 68.4286 28.0357 69 27.8571 69.5357ZM31.8214 64.7857C31.4643 63.8929 30.8929 63.0714 30.2143 62.3571C29.5357 61.6786 28.7143 61.1071 27.8214 60.75C26.8929 60.3571 25.8929 60.1429 24.8571 60.1429H18.75V75.3929H24.8571C25.8929 75.3929 26.8929 75.2143 27.8214 74.8214C28.75 74.4286 29.5357 73.8929 30.2143 73.2143C30.8929 72.5357 31.4286 71.7143 31.8214 70.7857C32.2143 69.8571 32.3929 68.8571 32.3929 67.8214C32.4286 66.7143 32.2143 65.7143 31.8214 64.7857ZM77.0357 69.5357C76.8214 70.1071 76.5714 70.5714 76.2143 70.9643C75.8571 71.3571 75.4643 71.6786 74.9643 71.8929C74.5 72.1071 73.9643 72.25 73.4286 72.25C72.8929 72.25 72.3571 72.1429 71.8929 71.8929C71.4286 71.6786 71 71.3571 70.6429 70.9643C70.2857 70.5357 70 70.0714 69.8214 69.5357C69.6071 68.9643 69.5357 68.3571 69.5357 67.75C69.5357 67.1071 69.6429 66.5357 69.8214 65.9643C70.0357 65.3929 70.2857 64.9286 70.6429 64.5357C71 64.1429 71.4286 63.8214 71.8929 63.6071C72.3571 63.3929 72.8929 63.25 73.4286 63.25C74 63.25 74.5 63.3571 74.9643 63.6071C75.4643 63.8214 75.8571 64.1429 76.2143 64.5357C76.5714 64.9286 76.8214 65.3929 77.0357 65.9643C77.25 66.5357 77.3214 67.1071 77.3214 67.75C77.3571 68.3929 77.25 69 77.0357 69.5357ZM80.6429 64.7857C80.2857 63.8929 79.7143 63.0714 79.0357 62.3571C77.6071 60.9286 75.6429 60.1429 73.6429 60.1429C71.6071 60.1429 69.6786 60.9286 68.2143 62.3571C67.5357 63.0357 66.9643 63.8929 66.6071 64.7857C66.2143 65.7143 66 66.75 66.0357 67.7857C66.0357 68.8571 66.2143 69.8214 66.6071 70.7857C67 71.7143 67.5357 72.5357 68.2143 73.2143C69.6429 74.6429 71.6071 75.4286 73.6429 75.4286C75.6786 75.4286 77.6071 74.6429 79.0357 73.2143C79.7143 72.5357 80.25 71.7143 80.6429 70.7857C81.0357 69.8571 81.25 68.8571 81.25 67.7857C81.25 66.7143 81.0714 65.7143 80.6429 64.7857ZM59.8929 69.5357C59.7143 70.0357 59.4643 70.5357 59.1429 70.9643C58.8214 71.3571 58.4643 71.6786 58 71.8929C57.5714 72.1071 57.1071 72.25 56.6071 72.25H54.2857V63.25H56.6071C57.1071 63.25 57.5714 63.3571 58 63.6071C58.4286 63.8571 58.8214 64.1786 59.1429 64.5714C59.4643 64.9643 59.7143 65.4643 59.8929 66C60.0714 66.5714 60.1786 67.1429 60.1786 67.7857C60.1429 68.4286 60.0714 69 59.8929 69.5357ZM63.8571 64.7857C63.5 63.8929 62.9286 63.0714 62.25 62.3571C61.5714 61.6786 60.75 61.1071 59.8571 60.75C58.9286 60.3571 57.9286 60.1429 56.8929 60.1429H50.7857V75.3929H56.8929C57.9286 75.3929 58.9286 75.2143 59.8571 74.8214C60.7857 74.4286 61.5714 73.8929 62.25 73.2143C62.9286 72.5357 63.4643 71.7143 63.8571 70.7857C64.25 69.8571 64.4286 68.8571 64.4286 67.8214C64.4643 66.7143 64.25 65.7143 63.8571 64.7857Z" fill="black"/>
</svg>
