<svg id="Layer_1" data-name="Layer 1" xmlns="http://www.w3.org/2000/svg" viewBox="0 0 512 512"><defs><style>.cls-1{fill:#988430;}.cls-2{fill:#7a6a2a;}.cls-3{fill:#ba9f33;}.cls-4{fill:#cfb66c;}.cls-10,.cls-11,.cls-12,.cls-13,.cls-14,.cls-15,.cls-16,.cls-17,.cls-18,.cls-19,.cls-20,.cls-21,.cls-22,.cls-23,.cls-24,.cls-25,.cls-26,.cls-27,.cls-28,.cls-29,.cls-30,.cls-31,.cls-32,.cls-33,.cls-34,.cls-35,.cls-36,.cls-37,.cls-38,.cls-39,.cls-4,.cls-40,.cls-41,.cls-42,.cls-43,.cls-44,.cls-45,.cls-46,.cls-47,.cls-48,.cls-49,.cls-5,.cls-50,.cls-51,.cls-52,.cls-53,.cls-54,.cls-55,.cls-56,.cls-57,.cls-58,.cls-59,.cls-6,.cls-60,.cls-61,.cls-62,.cls-63,.cls-64,.cls-65,.cls-66,.cls-67,.cls-68,.cls-69,.cls-7,.cls-70,.cls-71,.cls-72,.cls-73,.cls-74,.cls-75,.cls-76,.cls-77,.cls-78,.cls-79,.cls-8,.cls-80,.cls-81,.cls-82,.cls-83,.cls-84,.cls-85,.cls-86,.cls-87,.cls-88,.cls-89,.cls-9,.cls-90,.cls-91,.cls-92,.cls-94,.cls-95,.cls-96,.cls-97,.cls-98{fill-rule:evenodd;}.cls-5{fill:#e2cc85;}.cls-6{fill:#f1d789;}.cls-7{fill:#f4ecb4;}.cls-8{fill:#f3e19d;}.cls-9{fill:#f2e8b0;}.cls-10{fill:#f5eec0;}.cls-11{fill:#e6db9d;}.cls-12{fill:#e5cb7a;}.cls-13{fill:#d8c173;}.cls-14{fill:#e0cd81;}.cls-15{fill:#dfc57c;}.cls-16{fill:#e5cc7c;}.cls-17{fill:#d2c281;}.cls-18{fill:#e2c270;}.cls-19{fill:#ccb360;}.cls-20{fill:#d5b457;}.cls-21{fill:#d2b257;}.cls-22{fill:#d2b159;}.cls-23{fill:#c2a44d;}.cls-24{fill:#caa13e;}.cls-25{fill:#b59544;}.cls-26{fill:#c89d3a;}.cls-27{fill:#ceb052;}.cls-28{fill:#cca847;}.cls-29{fill:#c39d3c;}.cls-30{fill:#d2ba6b;}.cls-31{fill:#c0993a;}.cls-32{fill:#a88f33;}.cls-33{fill:#e3c571;}.cls-34{fill:#d8b65b;}.cls-35{fill:#d3ae4d;}.cls-36{fill:#f4efc8;}.cls-37{fill:#ebcc73;}.cls-38{fill:#e5c66b;}.cls-39{fill:#e6bd62;}.cls-40{fill:#b6933f;}.cls-41{fill:#c49937;}.cls-42{fill:#dfc068;}.cls-43{fill:#c99e3d;}.cls-44{fill:#b58634;}.cls-45{fill:#e6c367;}.cls-46{fill:#dcba5a;}.cls-47{fill:#e9ce77;}.cls-48{fill:#cdae50;}.cls-49{fill:#d2a83e;}.cls-50{fill:#c29637;}.cls-51{fill:#ac8132;}.cls-52{fill:#a67a2e;}.cls-53{fill:#8c6228;}.cls-54{fill:#cba94c;}.cls-55{fill:#be9c44;}.cls-56{fill:#a17c34;}.cls-57{fill:#92723a;}.cls-58{fill:#b18e3e;}.cls-59{fill:#543e26;}.cls-60{fill:#806031;}.cls-61{fill:#b6903c;}.cls-62{fill:#685026;}.cls-63{fill:#d4b968;}.cls-64{fill:#cca849;}.cls-65{fill:#585136;}.cls-66{fill:#252211;}.cls-67{fill:#c3b378;}.cls-68{fill:#e6d89c;}.cls-69{fill:#6f674d;}.cls-70{fill:#ac924c;}.cls-71{fill:#9f8e57;}.cls-72{fill:#eac970;}.cls-73{fill:#d7bc6b;}.cls-74{fill:#453a25;}.cls-75{fill:#84754b;}.cls-76{fill:#f7f7e7;}.cls-77{fill:#f8f6de;}.cls-78{fill:#d4c38b;}.cls-79{fill:#e2d59d;}.cls-80{fill:#cbac5a;}.cls-81{fill:#d6bc6f;}.cls-82{fill:#dfc677;}.cls-83{fill:#c4a859;}.cls-84{fill:#927d49;}.cls-85{fill:#6e6342;}.cls-86{fill:#39331f;}.cls-87{fill:#292311;}.cls-88{fill:#3f3824;}.cls-89{fill:#2d2815;}.cls-90{fill:#82764f;}.cls-91{fill:#2d2816;}.cls-92{fill:#574f35;}.cls-93{fill:none;}.cls-94{fill:#dec270;}.cls-95{fill:#cbaf59;}.cls-96{fill:#e3c677;}.cls-97{fill:#ecd592;}.cls-98{fill:#fff;fill-opacity:0.8;}</style></defs><g id="Layer_2" data-name="Layer 2"><g id="Layer_1-2" data-name="Layer 1-2"><g id="Layer_1-3" data-name="Layer 1-3"><circle class="cls-1" cx="256" cy="256" r="256"/><circle class="cls-2" cx="256" cy="256" r="247.8"/><circle class="cls-3" cx="256" cy="256" r="242.58"/><path class="cls-4" d="M111.93,228.66c-1.45-1.32-3-2.65-4.39-4s-2.86-2.65-4.31-4l-4.31-4.1c-.7-.7-1.45-1.32-2.15-2s-1.54-1.32-2.24-2c-5.72-5.42-11.47-10.85-17.11-16.28C83.26,201.7,89,207,94.82,212.43l2,2c.71.7,1.45,1.32,2.16,2l4.3,4c1.45,1.33,2.86,2.65,4.31,4.1s2.86,2.77,4.31,4.1ZM36,227.84S56.83,230,67,231.44c9.4,1.33,38.82,5.84,38.82,5.84Zm0,0c5.84.5,11.68,1.12,17.52,1.74,3,.29,5.84.62,8.7.91l4.39.5,4.31.62,17.4,2.77,8.7,1.45c2.86.5,5.71,1,8.7,1.54-2.86-.29-5.84-.71-8.7-1.12L88.36,235,71,232.44c-1.45-.21-2.86-.5-4.31-.7l-4.39-.51c-2.86-.29-5.84-.7-8.7-1-5.84-.7-11.68-1.45-17.52-2.36Zm67.69,14.86s-22.21,5.64-29.7,7.79-29.71,8.83-29.71,8.83l59.4-16.62Z"/><path class="cls-4" d="M103.72,242.7c-4.92,1.45-9.83,2.86-14.83,4.19l-14.83,4c-4.92,1.45-9.83,2.86-14.74,4.31l-7.37,2c-2.45.71-4.93,1.33-7.46,2,2.44-.82,4.93-1.65,7.37-2.36l7.38-2.36c4.93-1.53,9.83-3,14.74-4.51,5-1.25,9.94-2.57,15-3.78,4.76-1.2,9.77-2.4,14.78-3.52ZM47.43,273c2.44-.91,30.61-14,37.16-17.1,3.27-1.54,12.8-4.92,12.8-4.92Z"/><path class="cls-4" d="M47.43,273c2.15-.81,4.19-1.82,6.25-2.77l6.14-2.86,12.3-5.92c4.1-1.95,8.08-4.1,12.3-5.93,2.16-.91,4.31-1.65,6.46-2.36l3.28-1c1.12-.29,2.15-.62,3.28-.91-4.1,1.94-8.41,3.6-12.51,5.5s-8.29,3.69-12.52,5.52l-12.5,5.5c-4.2,1.7-8.3,3.53-12.48,5.26Zm2.73,11.47s25.52-14.95,34.3-19.76c4.6-2.56,19.47-9.94,19.47-9.94Z"/><path class="cls-4" d="M50.17,284.46c4.3-2.65,8.69-5.34,13.08-8.08l6.56-4c2.23-1.32,4.39-2.56,6.67-3.89s4.39-2.65,6.67-3.89a24.09,24.09,0,0,1,3.39-1.74L90,261.14c4.6-2.24,9.2-4.52,14-6.46-4.4,2.77-8.91,5.13-13.43,7.58-2.23,1.24-4.51,2.36-6.75,3.6s-4.39,2.57-6.67,3.77-4.39,2.57-6.67,3.77l-6.75,3.69-13.63,7.37ZM103.72,258s-15.86,12.18-21,16.07-20.25,14.83-20.25,14.83Z"/><polygon class="cls-5" points="194.78 356.25 186.66 340.88 191.38 321.66 225.06 308.65 210.72 279.24 217.81 249.54 231.1 222.94 272.2 216.48 302.39 187.69 367.6 192.62 380.4 262.34 355.75 350.12 341.71 395.56 284.79 397.71 258.36 379.4 227.42 366.48 194.78 356.25"/><path class="cls-6" d="M294.61,355.75s-7.87,3.6-21.3,2.77c-3.89-5.22-31.1-7.66-31.1-7.66s-3.4-1-9.4,1.45-11.77,2.16-17.11,3.48-10.65-5.63-14.75-7.08a58.22,58.22,0,0,1-9.52-5.22L180,342.37l-23-9.74-36.59-36.45-9.94,15.57L107.33,331l11.06,22.82L148.17,381l58.08,14.74,34.42-10.14,43.13-18.23,10.81-11.59Z"/><polygon class="cls-7" points="88.27 226.92 95.65 204.59 104.43 190.18 132.72 187.81 124.23 212.59 100.58 254.68 110.39 292.25 93 300.94 87.65 292.74 83.34 273.94 83.06 252.81 88.27 226.92"/><path class="cls-8" d="M120,354.22l-5.42-7.58a12.47,12.47,0,0,1-.62-6.76c.82-3.19.7-3.39.29-4.6s-3.9-5.34-3.69-8.9-.29-4.81,2.36-7.66,2-7.59,2-7.59l3.6,2.24.82-1.24a3.67,3.67,0,0,1,1.33,2.65c.29-2.24-.92-12.59,1.82-14.95S130,310.89,130,310.89l-3-19.47-7.67-20-13.63-18.22-.82-20.1v-1.74s-6.25,9.62-8,17.21c-1.24,5.22,1.74,11.55,1.12,19s-1.12,6.88.7,9.83,6.26,9,4.52,13.42c-1.54,3.77-6.76,1.12-6.76,1.12s-1,3.07-2.44,4.19a9.3,9.3,0,0,0-2-4.1c-.08.7-.29,1.66-.29,1.66s-.91-2.86-1.82-6.47c-1.24-4.8-2.57-11.14-3.77-14.53-.5,1.94-1.74,7.87-1.74,7.87l.7,9.11,3.4,12.51,3.28,8.19,3.19,10,2.77,6.73,2.23,5.14,2,11.56,9.4,9.94,5,2.23,3.64-1.86Z"/><path class="cls-9" d="M93.2,208.69s-6.75,11.47-8.69,23-3.69,23.78-2.46,39.52a163.15,163.15,0,0,0,5.51,32.56c3.28,11.56,11.76,27.63,11.76,27.63l.29-.62a43.86,43.86,0,0,1-3.39-8.49c-1.12-4.39-1.54-9.61-2.57-12s-2.45-4.39-3.19-7.29-.82-7.17-3-10.44c-.91-1.33-2-4.8-2.36-8.28-.41-5.22.21-11.07-.29-15.87-.91-8-1.53-13.42-.7-17.61s5.14-16.07,7.79-25.51c1.74-6,.7-11.15,3.89-16.41s5.14-9.81,5.84-13c.82-2.9-8.45,12.75-8.45,12.75h0Z"/><path class="cls-10" d="M125.23,204.1s-3.48,1-5.14,2.85-2.36,3.19-4.6,6.13-2.36,5.35-4.19,9-5.84,9-6.33,11-1.33,11.06-2.36,15.37,1,9.61,1,9.61l2.36-.5a7.44,7.44,0,0,0,2.36,5.14c2.36,2,2.78-6.88,2.78-6.88L120,226.05l13.3-9,1.45-7.29-9.49-5.63h0Z"/><path class="cls-11" d="M131.69,217.6s-6.26.41-9.32,2.65c-1.25.91-1.74,1.66-3.07,2.78-2.44,2-4.93,3.89-6.13,6.55s-2.77,6.67-3.77,14.25c-.41,3.19-.41,6.13-.7,8.7-.42,3.48-1,6.25-.71,8.19.42,4,4.52,6,4.92,10.56l8.49-4.3,8-31.53,17-10.65L136.77,214l-5.09,3.55h0Z"/><path class="cls-12" d="M86.88,429.89c0-.32.08-.63.11-.95,1.24-10.65,1.45-18.72,2.36-23.77,1.32-7.17,2.24-9.83,2-12.51-.29-4.31-.62-7.46-.21-10.77.62-4.39,4.93-9.61,4.81-13.22-.08-2.86-1.53-4.72-2.78-6.46S91,359,91,359s8.49-5.84,8.41-29.37a2.13,2.13,0,0,1,.49.21l4.19,11.89,2.86,3.47,11,20.47L132,379.4l20.88,14L166,407.69l1.32,38L150.2,467.88,147.4,473a243.16,243.16,0,0,1-60.52-43.07Z"/><path class="cls-13" d="M139.14,466.23a11.69,11.69,0,0,1,4.19-7.79,4.67,4.67,0,0,1,.91,2.77A24.67,24.67,0,0,1,161,450c11.14-2,13.83-10.15,13.83-10.15l23.65-21.5,27.05-24.9,32.89-11.55,15.37-3.78a8.57,8.57,0,0,1-.28,3.61c2.85-.21,9.19-1.66,15.78-4,2.65-1,5.14-1.45,6.46-.08,2,1.82,2.24,6.13,2.36,8.7,3.19-.71,6.87-3.77,9.83-3.48,4.72.5,8.91,6.05,13.71,6.05,6.34,0,9.2-3.9,13.63-7,2.65-1.82,6.46-4.1,8.62-5.64,5.13-3.77,59.48-20.38,59.48-20.38l19.06,1.24,3.06,20.47-1.64,53.49-.6.59L336.64,477l-120.1,18.41A240.55,240.55,0,0,1,139.77,469l-.62-2.73h0Z"/><path class="cls-6" d="M94.17,436.69c1.7-3.57,3.24-6.55,3.51-7.62.21,2.15.6,6.87,1.39,11.89-1.65-1.4-3.29-2.83-4.9-4.27Z"/><path class="cls-14" d="M181.9,487l15.53-4.32,1.32.42s.71.41.71,1.82c1.94-1.12,3.6-.91,4.8-1.65.62,1.32,1.24,5.71,4,6.25s5.92-1.24,9-3.6,6.55-5.51,9.19-6.76A49.19,49.19,0,0,1,229,484.7c3.48-2.77,9.53-14,18.14-13.83a32.62,32.62,0,0,1,12-14.46c8-5.43,13-5.84,19.26-5.34a33,33,0,0,1,9-8.08c1,.41,3.9,2.15,7.46.49s7.66-8.07,13-8.9a12.53,12.53,0,0,1,8.28,1.74s15.57-15.45,26.31-20.59c-.42-1.24-1.25-5.92,11.34-16.28.71.62.21,2.36.71,2.46a29.41,29.41,0,0,0,7.16-4.31c4.81-3.6,10.57-7.37,14.05-8.41,6.55-1.95,13.5,2,13.5,2a6.32,6.32,0,0,1,1.95-.91,26.43,26.43,0,0,0,3.77-.82c-.09,2.15,1.12,5.84,0,9a20.2,20.2,0,0,0,4.09,1.74c-.7,1.53-2.23,5.42-4.8,7.29,2.15,1,2.44,2.24,5.51,3.28a60.23,60.23,0,0,0-4.19,6.55c-.91,1.95-4.18,10-5.63,13.09s-3.6,8.7-4.6,9.83-4.6,5.92-7.37,8.28c2.45-.91,12.51-4,16.77-5.14-1.27,1.87-7.7,11.42-13.89,20.6a243.07,243.07,0,0,1-199,23Z"/><path class="cls-15" d="M132.71,216.48s-3.6,0-4.31.5,3.61,1.53,4.93,2,4.19,2.77,4.93,4.6,25.89,11.89,25.89,11.89l17.81-.92,6.14-8.48-11.68-10.23,8.19-24.15-10.85,1.74L147.67,209l-13.09,5-1.87,2.44Z"/><path class="cls-16" d="M171.83,224.48a2.77,2.77,0,0,0,2.45,1.32c3.69,0,7.09.91,8.49,2.78,2.37,3,8.91,12.51,8.91,12.51l15.66,5.63,1-18.44L191.24,216.4l-19.47,7.16v.91h.06Z"/><path class="cls-17" d="M168.76,231.31a17,17,0,0,0,6.46-1.12c3.6-1.32,9.52-4.18,12.09-3.06,3.6,1.53,2.86,6.34,6.76,10.65,2.36,2.65,6.66,2.57,9.11,5.43S214,244.74,214,244.74l3.19,17.2-12.8,16.41-4.19,20.38h-17.3l-15.81-6.28-7.79-18.84,3.89-19.05,5.54-23.25Z"/><path class="cls-18" d="M202.23,232.14a5,5,0,0,0,1.33.21c-.5.41-1.54,1.32-1.12,3.68s1.74,5.35.62,7.17a8.89,8.89,0,0,1,1.95,3.4c.7,2,.91,3.89,5.51,4.18a9.9,9.9,0,0,0-1.83,1.45,30.62,30.62,0,0,1,4.81,5.34,39.85,39.85,0,0,0,6.05-1.43l.91.62,1.94-.82s-1.82-.7-.49-5.14c1.24-3.89,2.36-3.68,2.46-4a41.52,41.52,0,0,0,.91-6.05,72.17,72.17,0,0,0,1.11-8.7l-1.32-14.45-7.45-4.52-6.07-5.85L205.83,218l-3.76,3.75-.29,9.32.45,1Z"/><path class="cls-19" d="M220.17,220.05a50.68,50.68,0,0,1,1.82,6.66,6,6,0,0,0,.29-1.74s1,5.72,1.24,8.08c.42-.08.82-.2.91.21a33.79,33.79,0,0,1,.82,7.58,20.69,20.69,0,0,1,7-7,12.19,12.19,0,0,1,5.64-2.24c3.19-.08,5.5,2,9.32,2,9.19,0,17.52-6.75,23.65-8.82,4.51-1.53,8.41-2.65,11.14-5.14a28.86,28.86,0,0,0,5.84-7.29c2.86-4.91,5.84-9.19,8.83-9.73a18.79,18.79,0,0,1-4.1.29s.91-.91,2.46-2.16,3.4-2.77,6-2.77c4.73,0,7.09.7,9.74.7a13.19,13.19,0,0,0,4.18-.7s2.78,1.95,9,1.95,10.44.62,13.72.91,14.24-.91,17.39-.82a15.22,15.22,0,0,1,5.93,1.45l-10.15-29.49-36.46-31.87L292.7,155.55l-33.39,33.39-32.31,12-6.75,7.58v11.56Z"/><path class="cls-20" d="M292.66,203.14s.91-.91,2.44-2.15,3.4-2.78,6-2.78c4.72,0,7.08.71,9.74.71a13,13,0,0,0,4.18-.71s2.78,1.95,9,1.95,10.44.62,13.71.91,14.25-.91,17.4-.82a15.17,15.17,0,0,1,5.92,1.45l-4.6-13.3-5.34-10.15L336,161.56l-18.44-10.85c-.08-.09-6.33-1.74-6.33-1.74l-16.57,10-15,38.9-.29,8.19,9.73,4.6c2.45-4.1,5.14-7.37,7.67-7.79-2.28.25-4,.25-4,.25Z"/><path class="cls-21" d="M292.45,205.92c-1.45.08-2.64-.21-3-1.24-1.24-3.48-2.23-4-3.27-4s-2.45,2.24-3.28,2.44-1.82-2.56-1.82-2.56l-.91-.42a55.55,55.55,0,0,0-9.12,7.58c-3.77,4.1-9.94,11.06-12.71,12.3s-12.31,1.66-15.57,2.36a20.22,20.22,0,0,0-7.37,3.61c-.5.54,1.45,1.12,1.74,1.65s-3.19.29-3.48.82.82,2.78,1.33,4a6.89,6.89,0,0,1,2.85-.71c3.19-.08,5.51,2,9.32,2,9.2,0,17.53-6.76,23.66-8.83,4.51-1.53,8.41-2.65,11.14-5.14a29.08,29.08,0,0,0,5.84-7.29,52.38,52.38,0,0,1,4.64-6.62h0Z"/><path class="cls-22" d="M160.56,410.93s-.82-3.07-8.41-11c-2.15-2.24-3.48-4.1-4.93-5.43-3.6-3.4-5.71-4.3-8.28-6.25-5.63-4.19-11.76-4.19-16.49-9.32s-10.22-14.95-14-25-4.81-13.22-4.81-13.5,1-2.24,2.36-2,1.33,2.85,1.66,3.48a20.51,20.51,0,0,0,2.24,2.85c1.94,2.24,4.72,4.92,6.13,8.91a40.12,40.12,0,0,0-1.45-7.16s7.29,4.59,13.5,9.4,8.82,6.46,10.65,9.52,6.13,11.15,8.19,13.51,30.31,11.27,30.31,11.27l13.44,10,6.67,14.62-5.22,8.19-10,2.15L165.78,418l-5.22-7.07h0Z"/><path class="cls-23" d="M124.4,360.55s3.39,5.43,11.68,10.57c7.45,4.51,19.26,8.61,29.78,11.06a83.17,83.17,0,0,0,17.52,2.65c14.63.2,24.69-4,37.16-5.34,6.76-.71,15-1.25,23.66-3.28,11.05-2.65,17.6-5.64,26.51-9.83,6.46-3,12.38-5.22,17.19-8.08,6.75-4,11.68-8.41,17.4-9.73-.71,1.95-1.45,5.43-7.09,9,3-.08,7.09-.29,7.09-.29a132.73,132.73,0,0,0-11,7.66c-4.31,3.28-10,8.83-15.87,12.51-3.77,2.36-7.87,4.1-10.56,5.51-6.55,3.61-9.2,5.43-13.5,9.83a5.9,5.9,0,0,1,1.65,0,32.45,32.45,0,0,0-9.32,2.78A12.64,12.64,0,0,0,242,396c-1.95.62-4.52,2-7.17,2.78-3.77,1.12-5,.62-5,.62l.62,1.24s-4.91-.08-6.55.08c.29.09.21.21.21.21a2.59,2.59,0,0,0-.82.29,8.66,8.66,0,0,1-2.57,1.12c-.5.08-.91.08-1.53.21.2.49,1.82,3.27,2.57,4.91-.62.42-9.95,7.46-9.95,7.46a7,7,0,0,1,.71,1.45c.29.91.41,2.23.7,2.85.7,1.25,1.12,1.45,1.12,1.45s-1.12.21-3.07.71a53.45,53.45,0,0,1-6.55,1.53c-.88.11-1.76.18-2.65.21a7.26,7.26,0,0,1-1.12,8.41c-3.36,4-4.39,4.6-5.43,7.16a10.84,10.84,0,0,0-1.65-1c-1.12-.5-2.66-1.24-3.19-2.24a26.31,26.31,0,0,1-1.25,3.89c-1,2.78-2.56,5.51-2.85,7.58-1.12-1.24-3.19-3.68-6-3.19s-5.14,4.4-5.63,5.51c0-.7-.5-1.24-.62-.41A31.52,31.52,0,0,1,163.83,467c-.09-1.94-.09-6.25-.29-7.66-.82.82-1.82,2-7.79,4.6s-4.92,5.13-4.92,5.13a12.88,12.88,0,0,1,2.66-8.41c3.18-4.3,5.13-6.33,5.13-6.66a1.84,1.84,0,0,0-.41-.92c-.42-.41-1.25-.91-1.25-1.24.5-.2,5.43-2.57,5.14-7.46a13.24,13.24,0,0,0-3.48-8.28c-.2-.21,1.95-1.74,1.66-2.23-.21-.29-2.86-2.24-3.19-3.28a10.21,10.21,0,0,1,.41-1.82,5.23,5.23,0,0,0,.42-2.16,17.4,17.4,0,0,0-1.66-4.18,23,23,0,0,0,2.36,0,21,21,0,0,1-2-3.89,49.6,49.6,0,0,0-1.24-5.14c.71.08,2.45.2,2.45,0,.08-.62-1.54-1.66-.82-2.46a4.19,4.19,0,0,1,2.36,1.66c-.5-1.33-1.33-3.89-3.07-4.93a7.52,7.52,0,0,1,6.05.41,8.18,8.18,0,0,1,3.28,3.48s1.45,1.12,3.68,2.78c2.57,2,5.84,4.91,11.06,7,1.12.62,4,.62,6.05.2a9.23,9.23,0,0,0,2.57-1A5,5,0,0,1,190,420a20.24,20.24,0,0,0-1.53-2.57c.7,0,1.53.09,1.53.09s.5-1.12-1.74-3.28c.5-.49,1.12-.82,1.12-1.66a4.88,4.88,0,0,1-2.24-1.53c.42-.29,1-1.24,1.74-1.53-.62-.5-2.15-2.57-2.86-2.77a12.41,12.41,0,0,0,1.95-.92,24.07,24.07,0,0,1-4.6-1.65,27.07,27.07,0,0,0-3.76-2.65c-1-.42-2.86-.62-3.61-1.45a11.73,11.73,0,0,0,2.65,0c.62,0,.91.08,1.12.08-.08-.29-.08-.91,1.53-1.12a7.59,7.59,0,0,0,2.24-.7,5.81,5.81,0,0,1-3.28-1.74c-1.74-1.66-3.19-3-4.18-3.19s-3,.7-4.18.62a3.82,3.82,0,0,1-2.37-1s-5.5.5-17.72-7c-10.57-6.46-15.17-12.17-15.17-12.17a18.47,18.47,0,0,1-2.85-1.33c-4-2.07-9.49-6.38-9.32-12h0Z"/><path class="cls-24" d="M276.79,111.93a5.38,5.38,0,0,1,2.46,1.65c1.95,2.24,3.19,6.47-1.24,11a7.08,7.08,0,0,0,4,.62c-1.54,1.83-5,5.72-5.22,9.12-.21,2.77,1.53,3.6,1.53,3.6a13.84,13.84,0,0,0-2.78,8.19,34.25,34.25,0,0,1,4.1-3.89,110.06,110.06,0,0,1,10.15-7,5.8,5.8,0,0,0,.29,2.15s5.34-4.39,9.83-2.44c2,.91,1.12,3.77,1.12,3.77a4.75,4.75,0,0,1,4.72.91c1.95,2,4.7,7,6.11,8.92a63.91,63.91,0,0,1,3.89,5.34,67.73,67.73,0,0,1,5.64,11.89c.08-2.16.62-5.51,6.75-3.4s13.09,6.67,18.93,15.57,7.29,18.93,10.23,22.75,6.05,9.82,6.26,12.39-.92,10.85,5.21,33.26c1.74-7,4.4-22.41,4.4-22.41l1.45-13.63,1.65-42.17-44-36.58-34.42-25-22.41,2.16,1.4,3.18h0Z"/><path class="cls-25" d="M358.61,174.68s-.63-4.09-11-11.06-18.43-6.87-25.89-12.71c-5.72-4.6-11.68-15.17-15.56-18.64s-4.39-13.38-4.39-13.38l12.71-10.65L333.41,80.9l16-17.61,7.66,10.65,10.65,12.51,5.93,25.11,2.15,36.74-17.2,26.39Z"/><path class="cls-26" d="M371.41,218.73a46.94,46.94,0,0,0-2-16.49A304.55,304.55,0,0,0,357.91,173c-1.12-6.25-.29-6.75.91-7.45s5.72-3.28,8.19-12.31,10.15-9.32,10.15-9.32l4.72-3.47,7.17,17.93,6.26,16.2L397.25,187l1.45,10.56-3.39,22.33L378.53,235l-7.12-16.31Z"/><path class="cls-27" d="M137.32,467.6v-.46a3.57,3.57,0,0,0,.91-.82,5.29,5.29,0,0,1,.71-1,7.83,7.83,0,0,1,3.39-.62c1,.2,3.77,1.33,5.22,1.24,3-.08,6.47-2.36,12-1.32,8.28,1.53,10.23,7.16,15,10.35a9.55,9.55,0,0,0,7.17,1.25h1.12c.2,0,1.73-1.74,2.56-1.66,1.66.08,1.83,1.45,2.86,1.53,2.45.29,7.17-1.24,9.53-.62a4.57,4.57,0,0,1,1.86,7.58c-2.56,2.36-5,4.6-5.5,6.55.63.49,1.23,1,1.81,1.54a241,241,0,0,1-58.65-23.48Z"/><path class="cls-28" d="M357.9,384.83s6.46-8.62,8.7-12.88-7.08-60.11-7.08-60.11l18.72-61.35-.5-20s.92-18.44,3.07-26.43c2.57,4.6,10.57,10.15,12.3,13.09.82-5.64,3.61-17.52,3.19-30.2,1.54,2.36,5.22,26.1,5.22,26.1l3.69,16,4.81,17L415.36,264l3.19,12.38,1.82,3,1.53,5.21,1.45,5.64,4.19,13.21L430,314.29,431.94,334a29,29,0,0,1,.91,4.6,18.44,18.44,0,0,1-.29,3.77,45,45,0,0,1,.42,8c-.42,3.27-.42,5.84-3,8.19s-4.19,16.4-4.19,16.4l-4.6-3.06a12.44,12.44,0,0,0-1.24-8,8.08,8.08,0,0,0-8.7-4c-2.36.5-7.08,1.24-8.61,2.57s-5,5.42-8.29,7.29c-4.09,2.45-10.77,2.65-14.33,3.47s-7.58,3.28-11.77,6.14a66,66,0,0,1-10.35,5.46h0Z"/><path class="cls-29" d="M357.9,475.34s.28.18.8.47a243.41,243.41,0,0,0,77.55-57.48c-.23-8.39-.54-17-.88-20.16-.7-6.76-.21-13.63-.41-17.61s-2.45-20.17-3.48-24.36S428.2,350,427.87,350s-2,7.87-2,9.83-.41,6.67-.41,7.87c-.29-.08-.42-.82-.42-1.12-.41,1-.91,2.86-1.11,3.07s.28-1.74,0-2.16-.82-.2-.71-1.24a12.53,12.53,0,0,1,.29-1.82s-1.24,1.82-2.15,6.46-.91,4.72-1.24,5.14-1.95,2.15-2,2.77c-.08,1.12,1.54,2.24,1.66,2.86.08,1-1.45,5.84-1.95,8.19s-.28,7-.81,9.32c-.42,2.16-.82,3.4-2.24,4.31,1,.21,2,.5,2,.5a15.3,15.3,0,0,1-2.24,11.35c-1.32,1.82-1.65,2.65-3.06,4.31-2.78,3.06-4.93,6.55-5.14,8.82a15.5,15.5,0,0,1-.29-2,96.57,96.57,0,0,0-6.13,7.87c-2.36,3.69-5.63,3.48-6.55,4.39a4.36,4.36,0,0,0-.82,3.89c-.82.21-2.36.5-3.4,3.69a7.73,7.73,0,0,1-3.69,4.39,19.38,19.38,0,0,1-5.51,1.74,6.72,6.72,0,0,1,1.95.62c-.62,1-3.48,2.65-6.67,4.73a13.94,13.94,0,0,0-5.51,6.66,4.79,4.79,0,0,1-4,3.07c.82.5,2,1.65,2.66,2a9.24,9.24,0,0,0-5.22,2.57c-2.9,2.4-3.9,3.11-5.22,3.31h0Z"/><path class="cls-30" d="M300.26,494.54a23.25,23.25,0,0,1,5.12-2.71c6.46-2.57,13.29-3.07,16-3.9s4.6-1.95,7.78-2.56c-.08.72-.15,1.4-.23,2.05a243.5,243.5,0,0,1-28.67,7.12Z"/><path class="cls-31" d="M419.43,324.6s-1.32,7.17-3.69,11.68-4.91,10.77-4.91,10.77a19,19,0,0,1,.5-4.18c-3,1.73-10.24,5.92-12.29,7.78s-5.22,4.81-6.05,6.26c1.95-5.72,4-10.85,4.31-13.21-3,2.15-16.9,13.62-24.15,21.2l-22.58,18.27a78.45,78.45,0,0,1-8,3.77c-3.89,1.65-8.48,3.06-11.88,4.39a18.77,18.77,0,0,1,4.39-6.67c2.15-2,8.61-9,9.61-12.29s1.12-5.43-.08-8.29c-1.12.29-3.69.42-5.43.91a10.6,10.6,0,0,0-3.6,2.36,84.43,84.43,0,0,1,4.18-14.74c-2.16.08-5.84.7-5.84.7a52.4,52.4,0,0,1,13.92-14.62,45,45,0,0,0-7.86,2.44c-5.14,2.16-10.77,5.35-15,7.08,2.36-3.27,18.93-26.92,28.79-49s13.5-27.63,15.66-39.43c1.12-5.84.82-14.48,1.12-22.21s1.24-14.54.62-19.13c2.57,3.18,12.18,12.17,12.51,32.27s-9.2,47.22-19.26,61.84c2.45.7,8.82,1.53,15.36-9.83s6.47-14.54,8.83-19.26a16.62,16.62,0,0,1,.2,3.19s9.53-11.56,14.05-26.1c.91,6.26,3.6,11.77-.62,23.24-3.77,10.36-8.7,12.88-8.7,12.88a19.41,19.41,0,0,0,6-2.57c.63,1.54.5,3.28,1.54,3.9s2.44,1.66,2.65,2.65c1.12-1.66,2.86-3.77,3.4-5.34-.42,3.27-.71,17.6.82,24.89,3.19-.29,6.46-.5,8.7-6.25a25.47,25.47,0,0,0-.5,13.83,16.3,16.3,0,0,0,3.23-3.23h0Z"/><path class="cls-32" d="M311.8,96.27a24.51,24.51,0,0,1-8.62,1.32c-4.72,0-3.39-1.82-10.77-1.82-11.35,0-51,6.56-58,6.46-4.52-.08,15.24,2,15.24,2l50.5.7,10.15-.81,3.77-7.68Z"/><path class="cls-33" d="M180.86,195s-6.47,4.93-9.2,8.7-4.18,6.26-7.29,9.32a6.25,6.25,0,0,0,2.15-.29s0,.82-.49,1a2.88,2.88,0,0,1,2.36.82c-.92.49-3.4,3-1.45,5.92,1.45,2.24,4.51,2.44,4.51,2.44s-.7,2,2.24,1.83c6.34-.29,13.42-3.07,16.69-2.36s5.14,1.12,7.46,5.14,4.6,4.59,4.6,4.59a23.5,23.5,0,0,0,1.12-9.19,27.14,27.14,0,0,0,1.94-9.32l-2.15-15.87L194,185.86l-12.18,6.76-.91,2.36Z"/><path class="cls-34" d="M192.41,192.62s.92,2.16,4.73,2.36a2.11,2.11,0,0,0-.29,1.74l.2,1.74a3.77,3.77,0,0,0,1.12-.82c.21.91-.2,2.36,0,3.4a7.82,7.82,0,0,0,.62,1.82,3.17,3.17,0,0,1,.21-.41,16.33,16.33,0,0,0,2.86,4.09,1.81,1.81,0,0,1,.2-.82,3,3,0,0,0,.5,1.45,1.46,1.46,0,0,1-.41-.29s.2,6.56,1.32,10a4.33,4.33,0,0,0,.5-.71c0-.2-.08,1.83-.29,3.28a14.25,14.25,0,0,0-.08,3.48,10.77,10.77,0,0,1,2.44-1.45c1.24-.5,3.28-2,4.52-5.43a36.14,36.14,0,0,0,1.65-5.92,8.23,8.23,0,0,1,.82,2.45c.09,1,2,.5,2,.5l.42-4.52,2.46-10.23,2.23-6.34,10.77-16.77,19.46-15,17,3.9,14.33-19.47L257,129.78l-23.36,2.44-21.21,29.37-17,26.64-3.07,4.39Z"/><path class="cls-35" d="M314.78,150.12a26.93,26.93,0,0,0-5.63,2.46c-4.19,2.17-7.09,2.86-8.7,6a15.6,15.6,0,0,0-1.74,5.72,40.77,40.77,0,0,1,4.51-1.66c1.74-.41,3.69-.28,3.48.42a4.63,4.63,0,0,1-.82,1.32s3.28-.08,3.19,1.54a8.42,8.42,0,0,1-1.24,4.18c-.62.82-3.19,2-3.48,3-.7,1.94.29,2-.08,3.6s-1.65,4.52-6.13,9.73a51.86,51.86,0,0,0-6.55,8.91,56.3,56.3,0,0,1-3.4-7.79c-.82.42-5.22,2.86-5.22,2.86l-10.19-35.5.2-2.36a6.27,6.27,0,0,0,1.12-3.19c-1.53-.5-1.74-.91-3.77-2.86s-3.68-4.31-7.08-5.92a4.49,4.49,0,0,0-3.6-2.65c-2.49-.5-4-.91-4-.91a4.31,4.31,0,0,0,2-1.54,25.2,25.2,0,0,1-6.13.62c-3.4-.08-3.77-.2-5.63.09s-4.1,1.12-4.93-1.74c-.92-.71-2.86-.08-4.52,2.36s-2.24,4.39-5.43,5.34a10.91,10.91,0,0,1-1.45,4,46.42,46.42,0,0,1-4.3,5.34c-3.07,3.6-2.57,9.53-7.46,14s.82-12.51.82-12.51l7.87-18.84,22.41-21.91,34.79-2.36,3.4,18,17,5.84,10.72,16.36h0Z"/><path class="cls-24" d="M320.29,154.1,305.67,133l-10.23-7.87s-7.29-13.42-7.79-13.83-7.29-1-11.68-1.33l.82,2a5.37,5.37,0,0,1,2.45,1.66c1.95,2.24,3.19,6.46-1.24,11a7.08,7.08,0,0,0,4,.62c-1.54,1.82-5,5.71-5.22,9.11-.21,2.78,1.53,3.6,1.53,3.6a13.81,13.81,0,0,0-2.77,8.2,32.77,32.77,0,0,1,4.09-3.9,106.24,106.24,0,0,1,10.15-7,5.88,5.88,0,0,0,.29,2.16s5.34-4.4,9.83-2.45c2,.91,1.12,3.77,1.12,3.77a4.74,4.74,0,0,1,4.72.91c1.95,1.95,4.72,7,6.13,8.91a63.91,63.91,0,0,1,3.89,5.34,67.36,67.36,0,0,1,5.64,11.89c.08-1.66.42-4,3.28-4l-4.35-7.79Z"/><path class="cls-36" d="M101.08,214s-1-2.57,0-7.58,2.65-7.38,3.19-14.75,5.34-16.57,5.34-16.57l13.29-6,9.41,2.56,2.77,12.6-11.89,6.55a9.14,9.14,0,0,1-4,5c-3.36,2.24-8,4-9.11,6.26a17.82,17.82,0,0,0-1.45,4.39s-3.4-.71-5.43,1.53-2.07,4.31-2.15,6Z"/><path class="cls-37" d="M127.92,210.64a6.12,6.12,0,0,0-2,2.46c-.82-1.33-2.78-9.2-2.86-16.28s-.5-8.84,1.14-11.28,8.06-5,7.15-9.41c-.92-4.19-4.73-5.92-9.41-4.72-3.27.82-5.71,7.78-9.11,11.26-2.57,2.65-5.63,2.24-6.46,3.69-1.12,1.95-.09,3.89-.42,5.14a24.77,24.77,0,0,1-3,5.34c-3.77,5.43-10.15,13.09-11,20a34.44,34.44,0,0,1,1.12-8.29l-.62-1,4.1-13.42L99.29,183l5.92-18.52,10.44-18.93,10.15-11.35,10.56.7,1.24,15.87,6.05,29.78,12.72,15.66L136,209.94l-8.08.7h0Z"/><path class="cls-38" d="M134.26,216.27a5.21,5.21,0,0,1-2.37.08c-.62-.33-1.24-.7-1-1.12s1.32-1.11,1.32-1.45a1.16,1.16,0,0,0-1-1.24,1.13,1.13,0,0,0-1.24.5,4.8,4.8,0,0,0-1.66-.82c.44-.05.88-.08,1.33-.09a13.32,13.32,0,0,0-3.61-1c1-.62,3.07-2.44,4.39-2.44s2.16-.21,1.95-.91a4.23,4.23,0,0,0-2.36-2.16c.41-.5.7-1.24-.29-3.27s-.62-3.4-.29-3.9a27.42,27.42,0,0,1,1.82-2.44,6.63,6.63,0,0,1,1.74-2.15A22.37,22.37,0,0,1,136,192.5c1.45-.5,2.65-1.12,3.48-.5a1.13,1.13,0,0,1,.49,1.45,7.53,7.53,0,0,1,5.43.29c2.57,1.24,8.83,2,8.83,2l2.24,4.52L141.64,213l-6.13,3.06-1.25.21h0Z"/><path class="cls-39" d="M154.84,195.48a57.68,57.68,0,0,0-5.63,4.18c.62.09,1.65.5,1.24,1.12s-3.48,2.78-5.14,4.81a31.74,31.74,0,0,0-4,5.84c-.62,1.12-5.35,4.39-7,4.8,3.4,0,10.23-4.18,12.8-4.18a2.52,2.52,0,0,0,2.15,2.77,16,16,0,0,0,11.27-2.56c5.63-3.4,3.77-5.93,6.13-7.58,4.52-3,6.34-5.64,8.82-7.29a16.31,16.31,0,0,1,3.77-2s.08-1.24.82-1.11a1.11,1.11,0,0,1,.91.7,25.5,25.5,0,0,1,9.83-3.89.57.57,0,0,1-.28-.29s.41-.21.49-.42c0,0,.29-.41.5-.2s.5,1.74.91,2.36c.91-.42,2.65-4.31,2.65-4.31l4.19-12V165.28l-3.28.62-24.57,10.44-14.92,15.45-1.74,3.69Z"/><path class="cls-40" d="M225.59,141.84a14,14,0,0,0,3.79-1.54,17.13,17.13,0,0,1-2.66,5.93,50.64,50.64,0,0,0-4,6.87c-1.74,3.4-1.95,8.29-3.61,10.44a7.55,7.55,0,0,1,2.36-.7,11.06,11.06,0,0,0-2.36,3c-.7,1.53-1.94,4.72-5,6.67s-7,3.19-11.14,7.79-8.49,10.23-10.65,12.29a30.84,30.84,0,0,0,3.07-8.41c.41-2.57-.09-5.64.62-9s.7-5.84,4.09-11.77,9.2-26.51,9.2-26.51l12.51-4,3.77,8.95h0Z"/><path class="cls-41" d="M216.56,134.26s-3.76,5.42-4.8,10.23-.08,4.39-.7,6.75a8.82,8.82,0,0,0,0,4.39,15.61,15.61,0,0,1,5.21-5.14c3.56-2.15,6.46-3.68,8.19-5.51s3.19-5.13,7-7.58c-1.53-.2-3.69-.91-4.1-.81,1.54-1.74,6.13-4.4,10.77-7.59s4.31-4.59,11.77-7.86c-2.45.41-3.61-.21-5.64,0,.82-1.74,3.69-2.57,6.56-5.43s-1.83-7.08-1.83-7.08l-21.84,13.21-10.56,12.43Z"/><polygon class="cls-42" points="157.29 124.4 157.78 120.42 164.04 110.39 170.59 92.79 170.59 68.72 170.09 54.8 171.12 45.69 171.91 42.79 172.74 41.67 178.08 44.45 185.46 54.47 186.16 73.82 178.99 104.35 158.53 126.68 157.29 124.4"/><path class="cls-32" d="M173.57,40.55s-3.28.09-4,13.72-1,20.79-1.53,27.54-1.66,10.86-2.24,14.83-.91,9.41-2.77,12.72c-.82,1.53-2.57,6.34-6.68,9.94a40.74,40.74,0,0,1-12.5,7c-1.83.42-11.07,1.33-14.84,3.4a22.57,22.57,0,0,0-6.13,3.89,78.36,78.36,0,0,0-16.48,22.33C99,170.42,91.67,211.47,91.67,211.47l1.66-2.77s.21-3.69,3.89-10.15,2.57-13.71,7.58-26.1a141.48,141.48,0,0,1,7.38-16.07c4.72-8.5,10.44-15.79,16.19-19.76a51.27,51.27,0,0,1,19.76-7.87l11.15-7.37s1.94-3.77,4.51-8.08c3.61-6,8.2-12.8,9.2-22.62,1.53-14.54-2.16-24.07-2-32.68s.29-15,2-16.49.5-.95.5-.95h0Z"/><path class="cls-43" d="M173.57,105.59a158.61,158.61,0,0,0,7.16-22.83c.42-2.15,1.24-4.3,1.45-6,1-10.15,1.33-14.34,0-19.89-1-4.09-5-7.78-7.08-10.65s-3-4.09-2.57-4.72a4.57,4.57,0,0,1,3.6-1.53A12.38,12.38,0,0,1,185,44c3.19,3.69,5.71,16.2,5.71,16.2l2.66,16.51,6.75,20.8-26.51,8.08h0Z"/><path class="cls-44" d="M219.75,93a4.21,4.21,0,0,1-2.56,0,3.71,3.71,0,0,1-1.66,3.48c-1.74-.71-18,.7-18,.7s-7.58-1.33-9.95-11.35c-1.65-6.67,1.25-15.86.29-21.91-1.45-8.91-3.48-10.65-3.68-13.42s-.42-3.48-.42-5.22a9.48,9.48,0,0,0-2.36-.5c-.2-.82.21-1.53-.7-3a16.39,16.39,0,0,1,7.87,4.39,15,15,0,0,1,3.77,4.8c.62.62,5.63,4.92,7.79,9.2s6.33,17.93,7.29,20.17a14.81,14.81,0,0,0,2.46,3.89c2.4,3,5.92,7.92,9.89,8.74h0Z"/><path class="cls-32" d="M192.91,51.2a113.6,113.6,0,0,1,6.75,12.59c2.45,5.51,3.9,10,7,13.71C205,72.7,202,63.26,200.29,59.9c-1.95-3.55-5.93-7.37-7.38-8.7Z"/><path class="cls-45" d="M164.74,119.3s-4.18,1-12,5.14c-2.57,1.32-5,2.44-7.37,3.48a128.89,128.89,0,0,1-17.94,6.75c.42.5.62.7.62.7a5.22,5.22,0,0,0,1.12,3.19c-.62.62-8.91,6.26-6.46,25.11,1.66-.62,3.6-1.45,3.89-1.45.5.08.62,1.45,1.24,1.45s2.66-.82,4.81-3.61c-.08,1.12-1.32,12.39,5.34,20,1.25-1.45,4.4-6.26,4.4-6.26l.08-1.53a41.66,41.66,0,0,1,2-10.23,27.07,27.07,0,0,1,5.14-8.49l17.72-25.32-2.65-8.9Z"/><path class="cls-46" d="M148.17,156.47a9.66,9.66,0,0,1-2.65,1.32,10.27,10.27,0,0,1,1.74-8.08c2.86-4.18,9.11-9.61,10.85-13.92,1.12-2.78.63-9.74,10.57-18.64s13.83-12,13.83-12l16.07-8.07,19.76,7.78-9.81,38.48-7.62,18-30.31-5.71-22.43.8Z"/><path class="cls-47" d="M159.74,146l3.78-4.72v-3.36s4.18-1.12,8.69-5.72S183,118.8,188.49,119.34s6,12,6.26,15.16.91,10.44,2,14.34-13.42,18.64-13.42,18.64l-10,7.58-13.66-29Z"/><path class="cls-48" d="M171.41,185.33s3.07-4.81.82-5.84a35.83,35.83,0,0,1,3.77-6.13s1.74-4.31,7.37-9.61,9.12-8.83,10-12.39a32.47,32.47,0,0,0,.91-7.08,12.84,12.84,0,0,0,1.95,1.32c.91.42,5.22,4,4.6,11.15s-3.28,10.15-3.28,10.15a48.11,48.11,0,0,1-4.39,3.89c-1.95,1.33-2.65,2.86-5.92,3a4.07,4.07,0,0,1,1.12-.62s-3.4-.41-5.23,1.24-5.7,6.76-7.64,8.29c-2,1.24-4.1,2.65-4.1,2.65h0Z"/><path class="cls-49" d="M309.15,104.76a50,50,0,0,0-15.25-3c-8.7-.29-21.41.2-33.88.29-13.42.08-25.6-4.6-42.5-5.43-2.77-1.66-9.83-8.91-31.86,6.46,1.33-.08,16-3.4,21.09,3s3.68,17.1,3,19.67c-1.33,5.72-5.63,14-7.37,19.89s-1.33,8.91-2.57,13-4,6.13-2.36,10.85c2.15-1.32,3.27-1.32,6.87-9.4s2.86-13.83,8.83-20.67,15.56-16.28,19.26-18.64,33.06-17.61,63.79-3.07c7.42-.78,13-13,13-13Z"/><path class="cls-50" d="M198.05,99.12a3.64,3.64,0,0,0-.21-.91,6.83,6.83,0,0,0-1.12-1.66s-7.29-1.32-11-.91c-6.47.71-12.31,8.7-15,12.8s-6.13,10.44-9.82,13.71a1.33,1.33,0,0,0-.21-.91s.21.29-.2.71-.42.62-.21.82l.62.62c.21,0,5.93-2.57,13.71-9.84,8.29-7.58,14.63-11.46,17.94-12.8a25.84,25.84,0,0,1,5.51-1.63Z"/><path class="cls-51" d="M339.47,68s-1.33,1.65-3,3.48c-3.69,3.89-8.5,8.28-12.6,12.79-3.89,4.31-8.28,7.67-13.21,13.3s-10.65,11.89-12.1,13.71a13.6,13.6,0,0,0-2.36,6.34c-.7-.5-1.53-1-1.53-1a10.82,10.82,0,0,0,1.24,1.82c1,1.45,2.65,3.28,3.48,4.39a13.31,13.31,0,0,1,2.15,4.72c.5.08,3.69.71,7.67-5.84S318.42,108,318.42,108l8.29-12.3,5.22-10.44,6.55-11.68,1-5.55h0Z"/><path class="cls-32" d="M348,59.61a64.07,64.07,0,0,0-7,6.55c-1.94,2.46-6.55,8.91-6.55,8.91l1.66-.21,8.41-7.45,3.27-5.84.17-2Z"/><path class="cls-52" d="M346.43,388.81s-.08-3.4,1.82-5.43,6.88-5,11.68-16.2,5.35-13.71,5.35-13.71-8.62,7.37-13.93,9.11c1.24-2.57,1.95-4.39,2.57-5.71-.71-.62-3.69-1.33-4-1.66,1.66-1.66,2.57-5.72,5.93-8.41,4.3-3.28,12.17-8.91,18.29-13.93s18.14-16.69,19.68-20.09a7.69,7.69,0,0,1,1.12,2.16s-6,7.87-9.2,12.88c-2.78,4.31-2.57,6.75-2.57,6.75l5.72-2.46s1.65,6.13-5.84,15.46c3.28-1.24,4.6-.5,6.46-1.54a29,29,0,0,0-11.27,11.89c-3.89,7.29-9.19,15.79-18.14,21.09a150.1,150.1,0,0,0-13.71,9.77h0Z"/><path class="cls-53" d="M324,109.07s-3.4,7.08-3.9,12.59c-.08,1.33-.41,2.36-.41,3.9-.08,4.92.29,10.44-.82,13a6.88,6.88,0,0,0-1-2.15c-.62,1.74-1.74,7.17-2.65,9.19a43.45,43.45,0,0,1-1.24-11.34c.08-5.43.2-6.47.2-7.58-.2,1.65-1.32,3.89-1.73,5.21-.62-1.11-1.33-2.56-2.16-3.76a26.93,26.93,0,0,1-1.65,2.65c-.09-.5-.29-1.83-.42-3.69a51.64,51.64,0,0,1-.08-5.51,24.94,24.94,0,0,1,5.63-9.53c4.39-4.8,8.91-14,10.23-16.9s7-14.74,7-14.74h4.31L329,94.66s-3.77,7.78-5.72,10.65-6.05,11.06-7.87,14.25c1.32-1.74,2.44-2.65,3.77-4.31a68.59,68.59,0,0,0,4.84-6.17h0Z"/><path class="cls-54" d="M348.05,59.07A18,18,0,0,1,344.77,65c-2.57,3.06-8.08,7.16-10.77,10.43-2.46,3.19-7.37,11.89-5.14,22.2A37.38,37.38,0,0,1,335.32,86c4.1-5,8.5-10.77,10.65-15.24a25.7,25.7,0,0,0,2.44-8.08l.82-1-.49-2.36-.71-.17Z"/><path class="cls-32" d="M431.93,333.83a45.21,45.21,0,0,1-2.16-8.61c-.49-4.1.82-4.92-.7-9.61-.91-2.86-2.57-2.46-3-2.86s-.71-4.72-.62-7.08a26.78,26.78,0,0,0-.5-6.75c-.62-.5-1-.92-2-4a42.47,42.47,0,0,0-2-5.51c-.49-.91-1.95-1.74-1.95-2.65,0-1.82,1.66-2.77,1.66-3.28-.08-1-1.32-.2-1.66-.49-.41-.5,1-3.48.5-3.9-.21-.2-1.66,1.54-2,1s-.91-5.43-1.66-8.7-1.45-5.51-1.53-6.46-5.72-17-7.08-20.88a99.82,99.82,0,0,1-2.78-10c-.41-2-.7-5.93-.91-5.51s-.08,2.44-.41,2.36-1.33-7.17-1.66-8.29-2-4.91-2.46-7.66-1.32-10-1.94-15-.91-7-.91-8.2a51.46,51.46,0,0,0-.5-9,83.81,83.81,0,0,0-3.9-15.24c-2.77-7-10.15-24.77-11.46-29.2,0-1.12,1.45-.5,1.45-.5s3.6,9,6.25,16,5,13.09,5.63,13.71,4.4,7.45,6.14,18.64,2.35,21.5,3.39,28.37a73.52,73.52,0,0,0,1.95,10.24c1.12,3.77,2.86,7.66,5.14,13.62a91.58,91.58,0,0,1,4.18,12.81c.91,4.59.91,8.07,1.45,10.35.5,1.95,1.24,5.84,3,11.47s4.31,12.89,6.05,17.4a96.71,96.71,0,0,1,5.43,20.59c.45,4.14,2,18.47,1.57,22.78h0Z"/><path class="cls-55" d="M348.25,58.57l-.2.5a.87.87,0,0,1,.49,1,24,24,0,0,1-.21,3.39c-.2,1.45-.62,2.57-.7,3.48,0,2,.29,4.19-2.45,9.74-.82,1.53-1.33,2.85-1.74,3.77a11.27,11.27,0,0,1-2.16,3.6c1.45-.82,6.67-4.1,9.32-3.6a19.38,19.38,0,0,0-6.34,5.71,13.93,13.93,0,0,0,4.92,0c4.6-.7,9.73-2.36,14.25-2,4.93.29,3-5.92,3-5.92l-5.69-12.51L350,58.16l-1.7.42Z"/><path class="cls-56" d="M376.34,152.28s-4.81-4.81-6.76-21.3-1.53-41-1.53-41l-3.89-9.53s-.82-6.34-2.86-8.7-6.05-6.34-7.87-8.28-3.89-4.6-5.14-5c.62-1,3.4-6.87,14-7s13.93,5.84,15,8,6.13,11.47,8,29.22,1.82,19,1.53,25.18a143.08,143.08,0,0,1-3.28,19.68c-1.78,7.13-3.72,15.08-7.29,18.68Z"/><path class="cls-53" d="M361.27,166.4a8.05,8.05,0,0,0,4.6-1c1.53-.08,7.08.63,11.34-4.8.29,1.24,1,4.6-.91,7.58,1-1,2.57-1.45,2.78-1.74.08,1.53,1.53,6.25-4.6,17.73,1.66-1.82,3.6-1.74,5.34-1.95.09,2.16,1.24,9.4-1.82,13.3a5.39,5.39,0,0,1-5.34,1.82,10.11,10.11,0,0,0,0-1.74c-.09-1.12-.5-2.23-.21-3a14.91,14.91,0,0,1-4.31-3c-3.6-3.4-8.28-9.2-8.61-13.51a5.32,5.32,0,0,1,3.89-5.84,4.47,4.47,0,0,1-.91-1.12,6.41,6.41,0,0,0-1.24-2.73Z"/><path class="cls-57" d="M329.32,114.29s-.21-.29-1.33,1c.21-1.32.42-2.57.5-3.77a13,13,0,0,1,2-3.06c-.62,1.24-1,2.36-1,2.36a16.73,16.73,0,0,1,3.78-4.6c1.53-1.24,3.47-1.82,4.3-3a7.13,7.13,0,0,0,.91-1.66,25.36,25.36,0,0,0,5.14-5.22c.42-.5,1-1,1.45-1.53.71-.29,2.36-1,4.31-2s4.31-2.65,5.72-3.28c2.77-1.24,5.72-1.12,7.08-3.07,1-.29,2.15-3.39,1.95-6,1.53.62,9.4,5.51,12.09,16.19,2,7.58-1.53,19.26-3,24.9s-1.65,9.82-3.69,12.38c-2.57,3.4-10.85,8.2-12.88,10.57-1.74,2-7,6.88-6.75,10.44.21,2.65,3.48,4.09,4.18,4.59s.71,1.12,2,.82,1.82-.91,2.36-.91.62.21.91.21a3.42,3.42,0,0,0,.63-.09s-.21,3.78-9,4.92c-.63.08-1.25.29-2,.41a5,5,0,0,0,2.78-2c-1.24-.21-4.8-.42-5.72-.71a11.15,11.15,0,0,1,2-2.44c.71-.62-.08-.82-.7-.5a33.35,33.35,0,0,0-3.07,2.36,30,30,0,0,1-3.6,3.28,8.08,8.08,0,0,1,1.53-7.09c-.5.09-1.45,1.54-2.36,1.25a13.46,13.46,0,0,1,.29-4.52c.5-1.87,3.19-5.14,3.19-5.14l13-23.24,2.77-17.6-29.78,5.78h0Z"/><path class="cls-58" d="M328.62,115.28s-.71.5.7,1.45a15,15,0,0,1-1.33,2c-.7.82-1.45,1.33-1.74,2a11.26,11.26,0,0,0-1.11,3.07c0,.62-.21,4.6-1.95,7.17a30,30,0,0,0-1.82,3.47,26,26,0,0,0-2.16,4.1,43.32,43.32,0,0,0-.7,5.43s.91-1.12,1.24-1.54a11.51,11.51,0,0,1-1.82,3c.5-.42,1.95-1.45,4.39-3.61,3.4-2.85,8.7-7.66,15.16-11.47a22,22,0,0,1-4.93.92c1-1,10.36-12,15.25-13a2,2,0,0,0,.41-1.33l-4.18-.41-8.5,1.82-1.24-6.55-5.67,3.44Z"/><path class="cls-59" d="M342.12,152.57a11.36,11.36,0,0,0-2.15,3.89,12.88,12.88,0,0,1-2-2.78c-1.54-2.56-3.89-5.84-9.41-4a18,18,0,0,1,0-3.9c.92-.2,3.69-2.44,6.47-5.71a26.46,26.46,0,0,0,5-8.08c.82-.62,2.24-1.66,4.09-2.86,2.66-1.82,5.85-4.31,6.34-7.08a17,17,0,0,1-7.87,1.53c1.53-.7,3.89-1.45,3.6-4.51.63-.42,1.12-.71,1.12-.71a4.15,4.15,0,0,0-1.45-.21c-.08-.29-.2-.7-.91-.49s-.82.2-.91.49a4.51,4.51,0,0,0-1.95.5,30,30,0,0,1-3.39,2.44c.29-.49.7-1.24.7-1.24a14.65,14.65,0,0,0-3.48.82,72.24,72.24,0,0,0-8.82,4.19c.29-.5.41-.82.62-.91s.7-.21.7-.29a3.09,3.09,0,0,1-.08-1.12,37.24,37.24,0,0,1,3.28-5.63,11,11,0,0,0,1.74-4.73l6.33-3.19,17.82-4.09,11.55.7-1.45,8-6.82,14-5.84,12.72-6.67,7.79-6.13,4.48h0Z"/><path class="cls-60" d="M371,118s-7,8.62-8.9,10c1.24-2.65,8.9-18.44,11.68-22.83-.62-.5-1.45-.5.5-8.19-1.66,3.89-2.24,5.92-3.61,7a2.56,2.56,0,0,1-2.45.7,1.76,1.76,0,0,0,.2-1s-5.84-.71-9.83-.71-11.89,2.16-16.28,3.9c-3.48,1.45-5.43,1.45-6.67,2.36s-1.95,2.15-2.57,2.44-2.85,1-3.39,1.82-1.33,1.74-1.33,2-.21.5.42.29c.2-.08,1.74-.91,3.47-1.95,2.36-1.32,5.22-2.86,7.3-3.77,5.92-2.36,7.78-1.94,10.43-2.44s6.76-1.66,9.4-1.66a78.65,78.65,0,0,1,8.83.21c-.5.41-.91.91-.71,2.65a13.17,13.17,0,0,1-.81,2.24c-1.24,3.39-3.61,9-4.92,11.89-1.82,3.89-3.89,7.16-4.91,9.19s-3.28,7.37-5.51,10.23-3.4,4.6-4.1,5.22-5.72,4.31-5.34,5.64a27.68,27.68,0,0,0,10.85-7.17c4.18-4.71,5-7.58,8.28-10.15s5.85-6.88,7.38-10.44c1.28-3.31,1-4.35,2.6-7.29h0Z"/><path class="cls-61" d="M221,182.27s-.91,3.76-3,5.63-5.63,3.4-6,6.46,3.6,4.6,3.6,4.6-2.24,3.69-2.24,6.46a42.66,42.66,0,0,0,.21,6.13,2.67,2.67,0,0,0-.82.82,6.8,6.8,0,0,0,2.24,4.31c2,1.65,3.77,2.65,4.8,2.23a10.28,10.28,0,0,1,.42,1s1.53-3.89,2.57-7.29,1.94-3,2.36-7.66S230,192.28,230,192.28l3.07-6.87-5-3.89-7.08.74Z"/><path class="cls-62" d="M230.32,189a29.82,29.82,0,0,0-2.86,3.39c-1.32,1.83-2.35,3.48-4.3,4.19s-3.19.7-3.07,2.65,1.95,2.78,3,3.77a4.83,4.83,0,0,1,1.54,4.72,4.71,4.71,0,0,0,2.77-2.86c1-2.23,8.28-15.86,8.28-15.86Z"/><path class="cls-63" d="M258.87,157.58a4.1,4.1,0,0,0,0-2.86c-.63-1.24-4.39-1.66-6.26-3.07s-4.31-2.45-6.25-1.82c.28-.7,1.45-2.24.49-2.57s-4.3,1.24-5.22,2-3,1.53-3.39,2-1.12,1.45-1.54,1-.62-1-1.32-.63-4.1,3.19-4.72,4.81a24.59,24.59,0,0,1-6.26,9.32c-4.22,4.1-6.05,6.75-4.81,8.28s1.83.42,2,1.74a11.13,11.13,0,0,1-.21,3.9c-.5,2.15-1.33,4.18-.21,4.6,2.86.91,5.64-.82,6.26-.29,1.24,1.11-.71,5.13,2.23,5.92a9.13,9.13,0,0,0,5.93-.71l10.85-5.84,10.44-5.5,5.34-10.57-2.86-8.82-.55-.91Z"/><path class="cls-64" d="M248.63,182.8a4.34,4.34,0,0,1,.41-5.22c2.24-2.44,5.43-3.48,6.67-5a2,2,0,0,0-.91-.62,8.27,8.27,0,0,1,3.6-3.4,3.44,3.44,0,0,0-2.36-1.11c-2,0-3.27,1.24-5.14,1.24s-2-.91-2-.91,3.06-.29,2.77-1.66-.82-1.45-.82-1.45,5.92-2.46,7-3.77.91-2.86,1.12-3.48c.7,0,4.8-2.15,6.46-1.24s.5,3.4.5,3.4,5-3.77,7.57-7.47c2.23.21,3.27-1.53,4.91-1.53,2,0,5.22,2.77,5.84,8.69.42,3.4,1,5.35.42,11.35-.29,3.4-.21,10.65.82,14.25.7,2.86,2.36,2.57,2.36,2.57a4.72,4.72,0,0,1-1.45,2.24c-1.12,1-1.24,3.77-1.12,4.81a19.41,19.41,0,0,0,.62,2.23,10.5,10.5,0,0,0-1.66,2.57,2.9,2.9,0,0,1-2.65,1.74,13.56,13.56,0,0,0-1.82,0c-1.32.09-1.74.29-2.57,0s-1.45-.62-1.12-3.28-10.23-8.82-10.23-8.82l-17.2-6.13h0Z"/><path class="cls-65" d="M228.87,209s3.77,5,19.26,5c7.37,0,9.94-.71,11.47-1.12s7.87-2.86,14.12-10.23c5.64-6.67,4.4-9.41,4.4-9.41l-3.28-.49-10.65,1.45-31.51,13.42L228.85,209Z"/><path class="cls-66" d="M240.42,210.23s-13.42,3-13.42-5.51c0-8.29,8.29-17,10.36-18.52s7.29-3.28,7.29-3.28H257l2.36,6.26-1,13.5-17.94,7.54Z"/><path class="cls-67" d="M252.81,185.46s-2.57-2.37-8.41.82-10.56,9.83-10.85,15.86c-.29,5.34,4.39,9.32,11.68,9.53a36.7,36.7,0,0,0,10.36-.82c-.42-.5-2.57-3.19-2.57-3.19l-.21-22.2Z"/><path class="cls-68" d="M250.28,186.78s-.62-.5-2.45.49c-1.53.82-3.77,3-5.51,4.52a23.32,23.32,0,0,0-2.46,2c-2.57,3.07-4.72,8.08-3.48,10.56s5.35,5.35,15.79,3.4l-1.92-21h0Z"/><path class="cls-66" d="M246.89,191.92a13.18,13.18,0,0,0-1.66,6.67c0,4.18,2.36,10.85,11.06,11.35,6.67.41,11.14-9.61,16-13.51,3.69-3,5.92-3.06,5.92-3.06s-3.77-4.1-13.83-9.4-21.09-6.05-27.14,2.15c2.86-.21,12.1-2.57,12.1-2.57l4.52,1.45-7,6.92Z"/><path class="cls-69" d="M259.89,197.34c-.29-.62-.49-1.45.71-1.65s1.74-.09,2.15.82.82,1.65.21,2a2.87,2.87,0,0,1-3.07-1.2ZM258,191.5s-.42.29-.21-.29.62-1.94,1.95-1.65,1,1.74.82,2.15a2.15,2.15,0,0,1-2.16.82.69.69,0,0,1-.5-.84.66.66,0,0,1,.09-.19Z"/><path class="cls-70" d="M145.82,194.15a12.75,12.75,0,0,0,7.08,2.36c3.77-.08,8.62-4,10.85-6.46,1.33-1.45,2.46-3,3.69-4.18a23.17,23.17,0,0,0,2.24-2.24c.7-.82,1.45-2.36,1.82-2.86a39.89,39.89,0,0,1-3.6,2.78,42.29,42.29,0,0,1-5.35,2.77c-1.12.42-12.72,6.56-12.72,6.56l-4,1.27Z"/><path class="cls-71" d="M150.83,163.54a16.72,16.72,0,0,1,5.34-2,99.59,99.59,0,0,1,10.23-1.45l5.63,2.46,2.24,8.49-4.09,8.83L165,183.11,159,173.59l-8.19-10h0Z"/><path class="cls-72" d="M143.45,171.12l-1.95,1.46a12.74,12.74,0,0,0,.92-3.69c.41-2.77,2.56-9.53,5.71-13.42a45,45,0,0,1,3.07-3.69,2.11,2.11,0,0,0-1.66.42,19.93,19.93,0,0,1,5.72-5.84c2.65-1.63,3.69-2.15,6.46-.82s3.48,2,5.51,2,3.77-2.23,3.77-2.23.41,1.32-1.12,4.39S162.3,159,162.3,159l-12.59,8.61-6.26,3.55h0Z"/><path class="cls-73" d="M152.77,162.51s9.11,1.24,11.89-1.33c.08.29.41.29.41.5a.69.69,0,0,1-.2.41,6.84,6.84,0,0,1,.91-.08,5.27,5.27,0,0,0,1.12.21,7,7,0,0,0,.91-.09,1.55,1.55,0,0,1-.62,1c.41,0,.82.08.82.41s.08,1.33-.42,1.54a1.89,1.89,0,0,1-1.24-.09,5.15,5.15,0,0,0,.62,2.24c.82,1.53,2.57,3.28,4.92,2.78,0,0,1.24,3-4,9.61-.7.91-1.45,2.15-2.36,3.19a12.29,12.29,0,0,0-.82,2.44s8.83-3.4,11.35-11.14a58.47,58.47,0,0,0,2.57-22.62,11.55,11.55,0,0,0-.91-4.52c-1.24-2.57-4.72-2.15-6.13-.7-2,2-5.43,7.08-10.15,10.56s-5,4.1-8.7,5.64h0Z"/><path class="cls-65" d="M141.84,173.69s-1.74,1-2.66,4.92S140,187.43,141,189s3.27,5.72,8,5.93a8.85,8.85,0,0,0,3.4-.71,21.06,21.06,0,0,0,4.6-2.86c2-1.53,3.68-2.85,3.48-3-.5-.21-12.51-10.15-12.51-10.15l-4.52-5-1.62.55Z"/><path class="cls-74" d="M153.19,190.18a10.58,10.58,0,0,0,3.89-1.12c1.45-.91-8.49-10.77-8.49-10.77l.71,10.65Z"/><path class="cls-75" d="M142.62,172.94a14.49,14.49,0,0,0-1.24,3,52.62,52.62,0,0,0,.91,10.44c.5,2.15,3.19,5.42,6.67,5.42,2.16,0,5.14-1.32,5.14-1.65s-3.07-.82-3.89-2.37c-.5-.81-.71-2.85-.82-4.91-.09-1.33-.09-2.78.41-3.28,1.12-1.24,1.33-4.8,1.33-4.8l4-7.39h-5.23l-6.25,3.89Z"/><path class="cls-66" d="M141.09,175.22s4.1-5.42,7.79-6.67,5.34-.49,5.34-.49l-2.15,5.51L149,177l.21,1.74s-.5,4.6,2.57,7.79,5.34,3.07,6.67,3.07,5.13-1.12,7.08-5.72c1.74-4.31,3.19-9.83-.29-15.37a12.51,12.51,0,0,0-10.56-5.72c-1.16,0-10.28.45-13.59,12.47Z"/><path class="cls-76" d="M246.27,193.66c-1.54-.71-.09-5,1.45-6.34a10.75,10.75,0,0,1,6.87-3.07c1.24-.08,2.44.71,2.24,1.54-.29,1.53-2.44,3.68-4.39,5.21C249.75,193.12,248,194.44,246.27,193.66Z"/><path class="cls-77" d="M163.42,170.17a3,3,0,0,1,2.86,2c.29,1.33-.71,4-2.86,4-1.74,0-2.65-2.16-2.65-2.78a3.11,3.11,0,0,1,.41-1.45A2.37,2.37,0,0,1,163.42,170.17Z"/><path class="cls-78" d="M147.26,171.12a9.63,9.63,0,0,0-4.18,4.1,10.86,10.86,0,0,0-.82,6.55,16,16,0,0,0,2,4.52,3.12,3.12,0,0,0,2.36,1.45c.7-.09,2.15-2,2.15-3.07s.08-5.84,1.45-8.41c1.2-2.57-2.9-5.13-2.9-5.13h0Z"/><path class="cls-79" d="M147.68,170.92c-.5.28-1.33.7-1.12,1.24s1.94.82,2.57,2a4.34,4.34,0,0,1,.49,3.19,4.87,4.87,0,0,0,1.45-1c.92-1,2-2.44,3-2.44.62,0,1.24.29,1.82.29.91,0,1.82-.29,2-1.24.2-1.25-1.74-2.37-2.86-2.16.21-.82.5-2-.42-2.86s-3.77.63-4.39,1-2.48,1.95-2.48,1.95Z"/><path class="cls-80" d="M213.5,258l6.13-1.81,1.74,1.24s1.24,2.65,3.19,3c-.62,1.33-2.24,2.46-2.16,3.4a2.9,2.9,0,0,0,.92,1.66s-5.51,9.11,5.34,18.29c-2.57,1-5.84,2.46-7.58,3.28,1.24.29,3.89.82,5,1.82s1.12,1.33,2.16,1.95,1.65,1.45,1.45,1.82c-.71-.42-3.07-1.65-3.48-.5s-10.24.71-10.24.71L199.42,296a3,3,0,0,0-1.12-3.19c-2-1.82-4.52.08-7.17-2-3.48-2.65-3.6-5.72-4.72-6.88,1.12-.7,3.4-1.73,8.82-2.45a3.68,3.68,0,0,1-.5-2.78c.5-1.45,2.57-2.36,2-4.09.91-.21,1.33-.21,3.61-3.07s3.48-3.48,5.13-3.69,2.65,0,5.72-2.86c2.15-2,1.45-3.76,1.45-3.76s1.41-.46.91-3.32h0Z"/><path class="cls-81" d="M195.4,258.87c.08-.42.41-.63,2.65-.42s16.4-1.32,20.26-1.53,17.6-.08,24.27,1.32,13.42,3.07,16.69,3.9,4.31,1.24,4.19,1.65a1.2,1.2,0,0,1-1.24.71c-.42-.08-11.27-3.4-14.62-4.1s-15-2.57-21.3-2.46c-5.93.09-8.29-.08-13.3.5s-13.3,1.45-15.78,1.12-1.95-.29-1.83-.7h0Z"/><path class="cls-82" d="M228.74,291.33s8.49,4.6,11.56,10.24c2.24,4.18-1.32,6.25-1.32,6.25s4.8,0,4.18,2.65c-.29,1.66-8.28,6.13-13.63,8.49s-5.22,2.24-7.87,2.66-9.61-.82-11.06,1.24-.82,4.18-.42,4.51a23.61,23.61,0,0,0,3.78.71s-.71,1.95-7.67,2.15-8.7.7-9.11,1.45,1.32.29,4.52.82,7.66.82,7.66.82a14.21,14.21,0,0,1-5.22,2.24c-4.31,1.11-11.06,2.15-13.09,3.39a12.11,12.11,0,0,0,3.28,1.83,20.56,20.56,0,0,0-4.6,1.65c.62.42,1.45.92,1.45.92s-3.48,4.18-5.51,5.22S172,355,167.94,354c-10-2.65-11.27-13.63-13.71-14.45-3.69-1.25-5.43,1.24-8.7-.5a19.69,19.69,0,0,1,3.77-2.36c-1.66-.82-10.24-6.26-10.24-6.26a61.89,61.89,0,0,0-3-5.71c-1.65-2.86-4.09-6.67-5.92-10-4-7.37-4.19-10.77-7.79-14.95.62-.82,2.77-.71,2.77-.71l30.2,9.94,53.56,1.56,13.92-19.89,5.93.71Z"/><path class="cls-83" d="M149.42,321.66a4.86,4.86,0,0,0,1.11.91,16.14,16.14,0,0,1,3.61,2.77c.41-.62,1.45-1.74,3.27,0s4.1.5,5.51.91,1.53.71,1.53.71a10.17,10.17,0,0,1,2.66-1.45c1.12-.42,2.44-.71,3.89-1.12a21.55,21.55,0,0,1,3.77-.7c.91.62,4.18,4.09,17.32-1,12.38-4.8,15.24-5.34,17.31-4.6.21-.5.42-1.45,3.61-1.32,0-1.33-2.66-5.84-2.66-5.84l-14.62-5h-8l-24,4.39-13.29,7.58-1,3.82Z"/><path class="cls-84" d="M141.42,313.25s.29,2.23,3.61,4.6a20.8,20.8,0,0,1,4.3,3.77s.62-.82,1.12-1.66.91-1.95,1.74-2.24c1.66-.7,5.43.62,6.26.42s.49-1.66,1.24-1.66c1.74-.08,2.86,1.12,3.48,1.12s2.15-.08,2.36-.41.29-3.78,2.65-5.43a7.07,7.07,0,0,1,6.55-.62c0,.62.08,2.15,1.74,2.23s1.82-.2,3.28.29,3.19-.08,4,2.36c.71-.2,2.37-.41,1.95-2.77a12.06,12.06,0,0,0,3.28-3.48c.41-.62,1.12-1.32,1.66-2.24a6.72,6.72,0,0,1,5.5,1.74c-.7.5-1.12.82-1.32,1.33a14.47,14.47,0,0,1,1.65,1.94c.63.82,1,1.83,1.83,2,1.74.49,4.6-.21,7.79,0a15.66,15.66,0,0,1,6.75,2c.41-.2.41-.29,1.45-.08s1.82.29.7-1c.62.29,1.33.91,1.95.29a4,4,0,0,1,2.86-1.74c1.74-.21,2.36.08,3.06-1.74.92-2.24-2.23-2.24-2.23-2.24s1.45-1.33,3.06-3.06c2-1.83,4.19-4.19,4.72-7.09.92-5.34-4.3-6-4.3-6l-25.31,7.78-31-1.53-26.38,13.13h0Z"/><path class="cls-85" d="M118.68,240.13a8.88,8.88,0,0,0-1.32,3.48c-.51,2.45-.29,2.16-.71,3.9s-5.51,19.05-3.6,24.89,5.22,8,7.29,12.72a18.23,18.23,0,0,1,1,2.57c.7,3.06.08,5.43.91,8.49a9.41,9.41,0,0,0,2.15,3.48c2.46,2.57,6.47,5,8.19,6.75,2.45,2.57,5.93,7.79,10.36,8.29,2.36.29,5.72-.71,8.49-2.36,2.46-1.54,4-3.69,6.55-4.92a29.72,29.72,0,0,1,14.34-2.07c3,.62,10,2.78,13.92,2.78a37.66,37.66,0,0,0,9-1.25c5.93-1.74,13.09-4.72,17.82-6.05,2.77-.81,5-1,7.29-1.53,3.89-.91,7.16-2.15,9-4.51-1.24-1.45-2.78-3.69-11.06-3.61-9.41.21-20.26,5.43-25.6,6.26s-7.67,1.53-13.63-.62-6-3.62-6-3.62S167,288.9,164.41,278s0-18.92,6.67-26.51a4.38,4.38,0,0,0,1.33-3.68s4.39-5.93,3.19-11.47-9.82-4.39-9.82-4.39l-47.1,8.23Z"/><path class="cls-86" d="M125.76,258.57a4.35,4.35,0,0,0-.49,2.24c.08,1.11.41,2.56,3.76,5.84a7.14,7.14,0,0,1,2.24,6s1.44.29,5.35-1.53c3.06-1.45,4.09,1.11,4.09,1.11a8.94,8.94,0,0,1,2.86-.91,6.16,6.16,0,0,0,2.57-.82,36.77,36.77,0,0,0,6.75,5.43c2.86,1.53,4.52,2.57,5.93,1.53s1.32-2.77,1.24-3.6a11.3,11.3,0,0,0-1.24-2.16c-.92-1.32-2.37-2.85-2.46-4.09-.21-2.86,2.15-6.26,1.65-7.08s-2.36-1-6.95.62c-4.77,1.57-25.32-2.61-25.32-2.61h0Z"/><path class="cls-87" d="M136.62,277.09s-2.36-2.24-1.54-13.09a13.65,13.65,0,0,1,3,.28S139.35,272.7,136.62,277.09Z"/><path class="cls-66" d="M119.8,231.85a6.42,6.42,0,0,0,.91-.82c-.82,1.53-4.6,7.66-1.53,17.32s10.77,16.77,20.25,17.1,14.48-4.31,20.18-11.26c2.23-2.78,4.8-6.26,7.08-8.62,3.4-3.69,6.05-4.72,6.05-8.28,0-7.29-7.46-10.57-18.44-13.84s-20.87-2.87-26-.63c-5,2.44-7.17,5-8.49,9Z"/><path class="cls-88" d="M155.05,280.36l.82-.42s.2-3.27,1.53-3.19a2.56,2.56,0,0,1,1.82,2.57,1.53,1.53,0,0,1-1.74,1.53,4,4,0,0,1-2.44-.49Z"/><path class="cls-89" d="M151.36,266.44s.82-.29,1.82.7c.82,0,4.4-.41,5.52.29a4.36,4.36,0,0,1,1.45,1.33s-4.19.91-6.47,0S151.36,266.44,151.36,266.44Z"/><path class="cls-90" d="M169.8,267.06a10.25,10.25,0,0,0-4.6-2.24c-.42-.08-.5.21-.82.21s-.29-.71-.29-.71l-1.34.71s-.21.29.49.82,1.66.91,1.95,1.74.29,1.12.42,1.24a4.46,4.46,0,0,0,2.23-.41c.71-.42,2-1.1,1.95-1.37h0Z"/><path class="cls-91" d="M148.88,275.47a3.48,3.48,0,0,1,3.19-3,3.2,3.2,0,0,1,3.4,2.56l-1.66,1.66s-1.24-1.78-4.92-1.24Z"/><path class="cls-92" d="M166.9,263.17a8.72,8.72,0,0,1-4.93,2.15,2,2,0,0,1,0-2.57c.91-1.32,1.95-1.74,3-1.32A2.44,2.44,0,0,1,166.9,263.17Z"/><path class="cls-90" d="M173.15,265.2c.09-.42-.2-.5,0-.71s1.33-.62,1.54-.41,0,.41,0,.82a1.91,1.91,0,0,1-.21,1.11,1.65,1.65,0,0,1-1.53.5c-.42-.12-.5-.7-.5-.82C172.65,265.61,173.15,265.4,173.15,265.2Zm7.07-4.48c0-.2.71-.62,1.12-.62.62,0,.62.5.71.62s.2-.08.41.29.5,1,.29,1.45a1.48,1.48,0,0,1-1.24.62A11.07,11.07,0,0,1,180.22,260.72Z"/><path class="cls-85" d="M166,266.15a5.69,5.69,0,0,1,2.15,1.24,11.29,11.29,0,0,1-1,.62,3.09,3.09,0,0,0-1.11-1.86Z"/><path class="cls-65" d="M164,257c-.21-.2.62-.7,1.11-.61s.71.41,1.25.49.62-.21.82-.41.91-.08,1,0a1.54,1.54,0,0,1,.21.29,1.17,1.17,0,0,1,.41-.82,1.28,1.28,0,0,1,1.12-.21,6.31,6.31,0,0,1,.42,1.53c-.09.21-1.33.5-1.54.29a15,15,0,0,0,1.24,1.74c.13.21-.91.7-1.32.62A16.77,16.77,0,0,1,164,257Zm5.42-6.87a.92.92,0,0,0-.41-.5c-.29-.08-1.24,0-1.24.5a15,15,0,0,0,1.74,4.72c1,1.45,1.73,2.65,2.44,3a1,1,0,0,0,1.24-.42,25.25,25.25,0,0,0,.21-5.34c-.08-3.61-.21-7.09-.42-7.29a1.1,1.1,0,0,0-1.32.2,39.85,39.85,0,0,0-2.24,5.14Z"/><path class="cls-92" d="M165.7,271.37a3.37,3.37,0,0,0-2.86-.29c-1.33.62-1.24,3.07-1.24,3.07a2,2,0,0,0,1.82-.21,5.61,5.61,0,0,0,2.28-2.57Z"/><path class="cls-90" d="M168.43,274.64c-.08-.82-.82-.82-.82-1.24a.92.92,0,0,1,.91-.7c.42,0,.82.49,1.33.81s1.24.82,1.32,1.45-.82,2.36-1.82,2.36-.7-1.86-.91-2.69Zm8-1.12s-1.66.5-1.54,0,.5-.62,1-.62a1.68,1.68,0,0,1,1-.5.92.92,0,0,1,.62.21s1.12-.5,1.45-.21.09.29.29.63a2.93,2.93,0,0,1,.5,1.24c0,.33-1.24,1-2.24.91C176.43,274.93,176.63,273.73,176.43,273.52Zm9.65-1.86s.49.29.08.62a6.71,6.71,0,0,1-3,.91c-1.25,0-2.36.21-2.36-.21s1-1.24,1.65-1.45a1.34,1.34,0,0,1,1-.49c.5,0,2.44-.21,3-.29s.91.2.62.62c-.12.29-1,.29-1,.29Zm2.85-12.79s-.62,1.32-1.32,1.32-.7-.29-.7-.5.7-1,.62-1.24c-.21,0-.71,0-.62-.49s.7-.92,1.32-.82a2.66,2.66,0,0,1,1.66-.62c.7,0,1.32.2,1.32.62s-.82,1.32-1.12,1.53-.74.55-1.16.21Zm-9.44,24.48s-.82.08-.82.49c0,.21.21.21.5.09a2,2,0,0,0,.49-.09c.09.09.09.5.71.5a4,4,0,0,0,1.45-.5c.5-.2.91-.41.91-.81a1.23,1.23,0,0,0-1.24-1,1.59,1.59,0,0,0-.91.21s-.21-.42-.92,0-.62.41-.41.62c.37.33.25.54.25.54Zm-4.68,4.31c0-.21,1-.63,1.32-.5a5.23,5.23,0,0,1,1.12,1.82c0,.21-1,.71-1.45.71a2,2,0,0,1-1.12-.82c0-.09.5-.21.5-.29s-.37-.71-.37-.92Zm-3.28-6.05c.21-.08.21-.29.5-.5a.71.71,0,0,1,.62-.08,1,1,0,0,1,.71-.5c.49-.08.91,0,.82.21,0,.62.41,1,.41,1.53s-.29,1.12-1.32,1.53a7.43,7.43,0,0,1-2.66.21,1.38,1.38,0,0,1-.2-1.33,3.36,3.36,0,0,1,1.12-1.07Z"/><path class="cls-85" d="M172.85,281.89s-.7.41-.7.62a1.86,1.86,0,0,0-.09.62c0,.12.92-.08,1-.21S172.85,282.11,172.85,281.89Z"/><path class="cls-65" d="M166.69,279.94a9.07,9.07,0,0,1,1.66.21c.41.21.7.62.29,1.12s-.82,1.24-1.74,1.12-2-.62-2-1a2,2,0,0,1,.49-1.45c.42-.33.62-.12,1.33,0Z"/><path class="cls-92" d="M166.19,280.36a11.45,11.45,0,0,0-1.65,1.53c-.42.5-2.45,3.07-3.07,3.6a8.11,8.11,0,0,1,.7-1,4.27,4.27,0,0,0-1.74,2.24c-.49,1.53,2.78,2.36,4.93,3s3,.82,3,.82a23.19,23.19,0,0,1-2-3.77c-.82-2-1.25-2.15-.71-3.07s1-1.53,1-2.23A11.59,11.59,0,0,0,166.19,280.36Z"/><path class="cls-66" d="M119,283.63a2.32,2.32,0,0,0,.91,0c.62-.08,7.09-2.46,13.84-2a74.31,74.31,0,0,1,14.95,2.46c8.49,2.23,19.06,6.67,25.89,9.19,1.82.71,3.61,1.95,4.92,2.45,5.22,2,5.42,2,8.49,2.57,3.6.49,7.29-.71,11.14-1.54,4.72-1,12.8-1.53,19.88-2.57a40.3,40.3,0,0,0,6.76-1.53s-5.64,5.64-19.14,7.66a59.92,59.92,0,0,1-16.49.21,49.9,49.9,0,0,1-9.32-1.66c-2.44-.7-7.45-2.57-13.63-4.09-4.3-1.12-9.11-1.95-14.62-3-13.59-2.49-28.33-5.35-33.59-8.12Z"/><line class="cls-93" x1="111.93" y1="231.1" x2="77.42" y2="198.88"/><path class="cls-4" d="M103.72,258c-3.27,2.78-6.75,5.43-10.14,8l-10.23,7.87c-3.48,2.56-6.88,5.21-10.36,7.78s-7,5-10.65,7.38c3.28-2.78,6.75-5.35,10.23-7.87s7.09-5,10.44-7.57l10.23-7.87c3.52-2.57,6.92-5.22,10.48-7.7Zm-18.1,29s3.69-3.07,8.29-7.37c5.71-5.35,12.71-12.18,15-13.42L85.62,287Z"/><path class="cls-4" d="M85.62,287c1.83-1.83,3.77-3.61,5.72-5.35l3-2.56c.91-.82,2-1.74,2.86-2.66,1.82-1.82,3.61-3.77,5.43-5.63a32.63,32.63,0,0,1,2.86-2.65,7.74,7.74,0,0,1,1.65-1.12,4.81,4.81,0,0,1,1.74-.91c-.41.62-.91.91-1.32,1.45a18.46,18.46,0,0,0-1.33,1.32c-.91.91-1.94,1.74-2.86,2.57-1.94,1.66-4,3.28-5.92,5s-3.77,3.61-5.72,5.35c-2.11,1.78-4.06,3.52-6.09,5.18Zm24.78-16.57s-13.51,13.21-16.28,15.36Z"/><path class="cls-4" d="M110.4,270.46a45.67,45.67,0,0,1-3.9,4l-4.1,3.9c-1.32,1.32-2.57,2.65-4,4s-2.77,2.46-4.3,3.61l4-3.9c1.33-1.32,2.78-2.44,4.19-3.77l4-3.89C107.62,273,109,271.66,110.4,270.46Zm.62,7.16a86.14,86.14,0,0,1-4.4,10.15c-3.47,7-8.69,15.66-11,20.09L111,277.62Z"/><path class="cls-4" d="M111,277.62a11.6,11.6,0,0,1-.92,4.19,40.13,40.13,0,0,1-1.65,3.89c-.62,1.24-1.33,2.57-2,3.77s-1.54,2.44-2.16,3.69l-4.18,7.37c-1.45,2.46-2.86,4.93-4.39,7.29a66.86,66.86,0,0,1,3.77-7.58c1.45-2.46,2.77-4.91,4.1-7.46a41.06,41.06,0,0,0,1.73-3.89c.62-1.32,1.24-2.57,1.74-3.77s1.12-2.57,1.74-3.77a26.14,26.14,0,0,1,2.24-3.73Z"/><path class="cls-94" d="M125.76,311.59a20.53,20.53,0,0,0-3.68,12.3C123.19,320.29,124.6,314.78,125.76,311.59Zm3.9,5.44s-1.45,14.75-2.65,22C128.7,330.65,129,331.35,129.66,317Zm27.13,22.87s-6.13,18-6.26,23c1.33-5.15,3.9-15.67,6.26-23.05Z"/><path class="cls-95" d="M171.12,310.48s9.95,16.4,17.4,30.4C186.5,333.83,181.86,320.91,171.12,310.48Z"/><path class="cls-96" d="M197.84,334.62a303,303,0,0,1,14.75,29.79C211.76,357.37,209.52,345.31,197.84,334.62Z"/><path class="cls-97" d="M276.38,358.81c1.66-1,4.93-6.67,7.79-8.08s5-1.74,7.58-4.6,3.28-4.8,8.9-7.16c7.88-3.4,2.46-7.79,2.46-7.79a26.06,26.06,0,0,1,2.78-2.36c2-1.53,4.39-3.4,4.18-6.67-.29-5.51-1.32-13.51-5.84-18.14,4.39-.92,12.8-1.54,18-2.86,6.05-1.54,8.83-3.69,8.83-3.69s-3.48-5.92,2.15-11.89,10.23-9.52,13.63-16.2c-3.89-.49-9.83-2.56-25,3.19a18.81,18.81,0,0,1,2.36,1.33s-9.32,2.57-12.71,5.43c-5.93,5-6.68,9.11-13.1,12.18s-12.88,2.23-18.22,4.72-6.13,4.6-8.08,5.51c.42.49-.08,1.32.7,2-.49.7-3.39,5.42-6.33,5.42.29,1.12,2.77,1.95,2.77,1.95s-1.82,1.33-6.46,1.66a47.45,47.45,0,0,0,10.77,9c-.5,1-2.57,2.57-1.74,4.51s3.28,4.6,12.72,6.76c-4.81.2-10.44,1.32-18,.29s-8.82-1.45-13.5-.29c.5.49,1.82.49,3,1.82-1.24.08-9-.91-11.68,2.57s-4,9.52-3.77,13.5c-1.45.71-2.86,1.95-2.15,4.52s4.39,3.39,6.75,5,2.57,2.36,4.81,1.95,5.84-2.86,7.87-2.86a5.3,5.3,0,0,1,3.48,1.53s5.51-2.65,6.05-2.15.08,3.68.61,4.18,6.76-3.31,8.42-4.35Z"/><path class="cls-98" d="M396.8,193c-25.89-66.86-89.89-79.25-89.89-79.25H124.31l.71,68.1h36.36V334H124.31v68H301.86c42.79,0,77.09-43,77.09-43C433.87,281,396.8,193,396.8,193Zm-94,120.08s-13.93,20.1-29.08,20.1H243.42l-.72-151.16h38.9s18,3.77,30.61,39.43C312.21,221.49,328.91,272.56,302.81,313.12Z"/></g></g></g></svg>