<svg id="a12a157b-62ac-4094-b586-721e67d3f75c" data-name="Layer 1" xmlns="http://www.w3.org/2000/svg" viewBox="0 0 512 512"><defs><style>.f4b74437-d576-4965-a21f-a5e2ce2f142e{fill:#fff;}.b75081ea-ac29-400c-9908-9ed5edbed6a6{fill:#e6007a;}</style></defs><path class="f4b74437-d576-4965-a21f-a5e2ce2f142e" d="M258.57,0C151.63.43,65,87,64.61,194a199.26,199.26,0,0,0,10.23,63A27.73,27.73,0,0,0,109,274a27.61,27.61,0,0,0,16.49-34,127.9,127.9,0,0,1-7.55-49.45,139.92,139.92,0,1,1,148.3,143.84s-27.22,1.66-40.77,3.31a141.41,141.41,0,0,0-14.83,2.95,1.77,1.77,0,0,1-2.5,0l0,0h0a1.79,1.79,0,0,1,0-2.17l4.21-23,25.57-115a26.59,26.59,0,0,0-51.9-11.6c0,.15-.07.31-.1.47,0,0-60.81,281.49-60.81,284a25.56,25.56,0,0,0,18.45,31.07h0a3.63,3.63,0,0,0,.45.1h1.41a25.53,25.53,0,0,0,31.12-18.31v0a5.78,5.78,0,0,0,.17-.69,6.74,6.74,0,0,1,0-1.27c.75-3.32,8.42-40.77,8.42-40.77a69,69,0,0,1,57.12-54.31c5.87-.9,30.54-2.56,30.54-2.56C379.3,376,457.05,281,446.42,174.51A193.84,193.84,0,0,0,258.57,0Z"/><path class="b75081ea-ac29-400c-9908-9ed5edbed6a6" d="M270.33,447.22a32.32,32.32,0,0,0-38.23,25h0a2,2,0,0,1-.1.49,32.2,32.2,0,0,0,24.6,38.32h1a31.68,31.68,0,0,0,38.23-23.36,1.32,1.32,0,0,1,.1-.39v-1.78A33.52,33.52,0,0,0,270.33,447.22Z"/></svg>