<svg width="101" height="101" viewBox="0 0 101 101" fill="none" xmlns="http://www.w3.org/2000/svg">
<circle cx="50.6873" cy="50.9177" r="50" fill="white"/>
<path fill-rule="evenodd" clip-rule="evenodd" d="M65.6893 35.8395C65.4939 35.6441 65.3767 35.4488 65.3767 35.1754C65.3767 34.902 65.4939 34.7067 65.6893 34.5113C66.0799 34.1598 66.705 34.1598 67.1348 34.5113C67.3301 34.7067 67.4473 34.902 67.4473 35.1754C67.4473 35.4488 67.3301 35.6441 67.1348 35.8395C66.9395 35.9957 66.666 36.1129 66.4316 36.1129C66.1581 36.152 65.8846 36.0738 65.6893 35.8395Z" fill="#0D022B"/>
<path fill-rule="evenodd" clip-rule="evenodd" d="M63.189 38.5348C63.0327 38.3395 62.9155 38.1441 62.9155 37.8707C62.9155 37.5973 63.0327 37.402 63.189 37.2067C63.5406 36.8551 64.1657 36.8551 64.5173 37.2067C64.6736 37.402 64.7908 37.5973 64.7908 37.8707C64.7908 38.1441 64.6736 38.3395 64.5173 38.5348C64.322 38.691 64.1267 38.8082 63.8532 38.8082C63.5797 38.8082 63.3844 38.691 63.189 38.5348Z" fill="#0D022B"/>
<path fill-rule="evenodd" clip-rule="evenodd" d="M60.4541 41.1128C60.2979 40.9565 60.1807 40.7222 60.1807 40.4487C60.1807 40.1753 60.2979 39.98 60.4541 39.7847C60.8058 39.4331 61.4309 39.4331 61.7825 39.7847C61.9388 39.9409 62.056 40.1753 62.056 40.4487C62.056 40.7222 61.9388 40.9175 61.7825 41.1128C61.5871 41.3081 61.3918 41.3862 61.1183 41.3862C60.8448 41.3862 60.6104 41.269 60.4541 41.1128Z" fill="#0D022B"/>
<path fill-rule="evenodd" clip-rule="evenodd" d="M57.8365 43.73C57.6411 43.5737 57.5239 43.3393 57.5239 43.0659C57.5239 42.7925 57.6411 42.5972 57.8365 42.4019C58.2272 42.0503 58.8523 42.0503 59.282 42.4019C59.4774 42.5581 59.5946 42.7925 59.5946 43.0659C59.5946 43.3393 59.4774 43.5737 59.282 43.73C59.0867 43.9253 58.8132 44.0034 58.5788 44.0034C58.3053 44.0034 58.0709 43.9643 57.8365 43.73Z" fill="#0D022B"/>
<path fill-rule="evenodd" clip-rule="evenodd" d="M55.3362 46.3471C55.1409 46.1909 55.0627 45.9565 55.0627 45.6831C55.0627 45.4097 55.18 45.2143 55.3362 45.019C55.6878 44.6675 56.3129 44.6675 56.6646 45.019C56.8599 45.1753 56.938 45.4097 56.938 45.6831C56.938 45.9565 56.8208 46.1909 56.6646 46.3471C56.5083 46.5425 56.2739 46.6206 56.0004 46.6206C55.766 46.6596 55.4925 46.5815 55.3362 46.3471Z" fill="#0D022B"/>
<path fill-rule="evenodd" clip-rule="evenodd" d="M52.3279 48.3003C52.3279 48.0268 52.4451 47.8315 52.6014 47.6362C52.953 47.2847 53.5781 47.2847 53.9297 47.6362C54.125 47.8315 54.2032 48.0268 54.2032 48.3003C54.2032 48.5737 54.086 48.769 53.9297 48.9643C53.7734 49.1206 53.539 49.2378 53.2655 49.2378C52.992 49.2378 52.7967 49.1206 52.6014 48.9643C52.406 48.8081 52.3279 48.5737 52.3279 48.3003Z" fill="#0D022B"/>
<path fill-rule="evenodd" clip-rule="evenodd" d="M47.4444 54.0814C47.2881 53.9252 47.1709 53.6908 47.1709 53.4174C47.1709 53.1439 47.2881 52.9486 47.4444 52.7533C47.796 52.4017 48.4211 52.4017 48.7727 52.7533C48.9681 52.9486 49.0462 53.1439 49.0462 53.4174C49.0462 53.6908 48.929 53.8861 48.7727 54.0814C48.6164 54.2767 48.382 54.3549 48.1085 54.3549C47.8741 54.3939 47.6397 54.3158 47.4444 54.0814Z" fill="#0D022B"/>
<path fill-rule="evenodd" clip-rule="evenodd" d="M44.7486 56.6986C44.5532 56.5423 44.436 56.308 44.436 56.0345C44.436 55.7611 44.5532 55.5658 44.7486 55.3705C45.1393 55.0189 45.7644 55.0189 46.1941 55.3705C46.3895 55.5658 46.5067 55.7611 46.5067 56.0345C46.5067 56.308 46.3895 56.5033 46.1941 56.6986C45.9988 56.8939 45.7253 56.972 45.4909 56.972C45.1783 57.0111 44.9439 56.8939 44.7486 56.6986Z" fill="#0D022B"/>
<path fill-rule="evenodd" clip-rule="evenodd" d="M42.209 59.3547C42.0528 59.1985 41.9355 58.9641 41.9355 58.6907C41.9355 58.4172 42.0528 58.1829 42.209 58.0266C42.5606 57.675 43.1857 57.675 43.5374 58.0266C43.6936 58.1829 43.8108 58.4172 43.8108 58.6907C43.8108 58.9641 43.6936 59.1594 43.5374 59.3547C43.342 59.55 43.1467 59.6282 42.8732 59.6282C42.5997 59.6282 42.4434 59.511 42.209 59.3547Z" fill="#0D022B"/>
<path fill-rule="evenodd" clip-rule="evenodd" d="M39.5916 61.9719C39.3963 61.8157 39.3181 61.5813 39.3181 61.3078C39.3181 61.0344 39.4353 60.8391 39.5916 60.6438C39.9432 60.2922 40.5683 60.2922 40.9199 60.6438C41.0762 60.8391 41.1934 61.0344 41.1934 61.3078C41.1934 61.5813 41.0762 61.8157 40.9199 61.9719C40.7246 62.1672 40.5292 62.2453 40.2558 62.2453C40.0214 62.2453 39.7479 62.1672 39.5916 61.9719Z" fill="#0D022B"/>
<path fill-rule="evenodd" clip-rule="evenodd" d="M36.8958 64.5891C36.7005 64.4328 36.5833 64.1985 36.5833 63.925C36.5833 63.6516 36.7005 63.4563 36.8958 63.261C37.2865 62.9094 37.9116 62.9094 38.2632 63.261C38.4585 63.4563 38.5758 63.6516 38.5758 63.925C38.5758 64.1985 38.4585 64.4328 38.2632 64.5891C38.0679 64.7453 37.7944 64.8625 37.56 64.8625C37.2865 64.8625 37.0521 64.7844 36.8958 64.5891Z" fill="#0D022B"/>
<path fill-rule="evenodd" clip-rule="evenodd" d="M34.3172 67.2063C34.1218 67.011 34.0437 66.8157 34.0437 66.5422C34.0437 66.2688 34.1609 66.0735 34.3172 65.8782C34.6688 65.5266 35.2939 65.5266 35.6455 65.8782C35.8409 66.0735 35.919 66.2688 35.919 66.5422C35.919 66.8157 35.8018 67.011 35.6455 67.2063C35.4892 67.3625 35.2548 67.4797 34.9813 67.4797C34.786 67.5188 34.5516 67.4016 34.3172 67.2063Z" fill="#0D022B"/>
<path fill-rule="evenodd" clip-rule="evenodd" d="M35.6455 35.8395C35.8018 35.6441 35.919 35.4488 35.919 35.1754C35.919 34.902 35.8018 34.7067 35.6455 34.5113C35.2939 34.1598 34.6688 34.1598 34.3172 34.5113C34.1218 34.7067 34.0437 34.902 34.0437 35.1754C34.0437 35.4488 34.1609 35.6441 34.3172 35.8395C34.4735 35.9957 34.7079 36.1129 34.9813 36.1129C35.2548 36.152 35.4892 36.0738 35.6455 35.8395Z" fill="#0D022B"/>
<path fill-rule="evenodd" clip-rule="evenodd" d="M38.2632 38.5348C38.4586 38.3395 38.5758 38.1441 38.5758 37.8707C38.5758 37.5973 38.4586 37.402 38.2632 37.2067C37.8725 36.8551 37.2474 36.8551 36.8177 37.2067C36.6223 37.402 36.5051 37.5973 36.5051 37.8707C36.5051 38.1441 36.6223 38.3395 36.8177 38.5348C37.013 38.691 37.2865 38.8082 37.5209 38.8082C37.7944 38.7691 38.0679 38.691 38.2632 38.5348Z" fill="#0D022B"/>
<path fill-rule="evenodd" clip-rule="evenodd" d="M40.9199 41.1128C41.0762 40.9565 41.1934 40.7222 41.1934 40.4487C41.1934 40.1753 41.0762 39.98 40.9199 39.7847C40.5683 39.4331 39.9432 39.4331 39.5916 39.7847C39.4353 39.9409 39.3181 40.1753 39.3181 40.4487C39.3181 40.7222 39.4353 40.9175 39.5916 41.1128C39.7869 41.3081 39.9823 41.3862 40.2558 41.3862C40.4902 41.3862 40.7246 41.269 40.9199 41.1128Z" fill="#0D022B"/>
<path fill-rule="evenodd" clip-rule="evenodd" d="M43.5374 43.73C43.6936 43.5737 43.8108 43.3393 43.8108 43.0659C43.8108 42.7925 43.6936 42.5972 43.5374 42.4019C43.1857 42.0503 42.5606 42.0503 42.209 42.4019C42.0528 42.5581 41.9355 42.7925 41.9355 43.0659C41.9355 43.3393 42.0528 43.5737 42.209 43.73C42.4044 43.9253 42.5997 44.0034 42.8732 44.0034C43.1076 44.0034 43.342 43.9643 43.5374 43.73Z" fill="#0D022B"/>
<path fill-rule="evenodd" clip-rule="evenodd" d="M46.116 46.3471C46.3113 46.1909 46.4285 45.9565 46.4285 45.6831C46.4285 45.4097 46.3113 45.2143 46.116 45.019C45.7644 44.6675 45.1002 44.6675 44.7486 45.019C44.5532 45.1753 44.436 45.4097 44.436 45.6831C44.436 45.9565 44.5532 46.1909 44.7486 46.3471C44.9439 46.5425 45.2174 46.6206 45.4518 46.6206C45.6862 46.6596 45.9597 46.5815 46.116 46.3471Z" fill="#0D022B"/>
<path fill-rule="evenodd" clip-rule="evenodd" d="M49.0462 48.3003C49.0462 48.0268 48.929 47.8315 48.7727 47.6362C48.4211 47.2847 47.796 47.2847 47.4444 47.6362C47.249 47.8315 47.1709 48.0268 47.1709 48.3003C47.1709 48.5737 47.2881 48.769 47.4444 48.9643C47.6007 49.1206 47.8351 49.2378 48.1085 49.2378C48.382 49.2378 48.5774 49.1206 48.7727 48.9643C48.9681 48.8081 49.0462 48.5737 49.0462 48.3003Z" fill="#0D022B"/>
<path fill-rule="evenodd" clip-rule="evenodd" d="M51.3901 51.6205C51.5855 51.4252 51.6636 51.2298 51.6636 50.9564C51.6636 50.683 51.5464 50.4877 51.3901 50.2924C51.0385 49.9408 50.4134 49.9408 50.0618 50.2924C49.8665 50.4877 49.7883 50.683 49.7883 50.9564C49.7883 51.2298 49.9055 51.4252 50.0618 51.6205C50.2181 51.7767 50.4525 51.8939 50.726 51.8939C50.9995 51.8939 51.2339 51.7767 51.3901 51.6205Z" fill="#0D022B"/>
<path fill-rule="evenodd" clip-rule="evenodd" d="M54.0078 54.0814C54.2032 53.9252 54.3204 53.6908 54.3204 53.4174C54.3204 53.1439 54.2032 52.9486 54.0078 52.7533C53.6171 52.4017 52.992 52.4017 52.6404 52.7533C52.4451 52.9486 52.3279 53.1439 52.3279 53.4174C52.3279 53.6908 52.4451 53.8861 52.6404 54.0814C52.8358 54.2767 53.1093 54.3549 53.3437 54.3549C53.539 54.3939 53.8125 54.3158 54.0078 54.0814Z" fill="#0D022B"/>
<path fill-rule="evenodd" clip-rule="evenodd" d="M56.6646 56.6986C56.8208 56.5423 56.938 56.308 56.938 56.0345C56.938 55.7611 56.8208 55.5658 56.6646 55.3705C56.3129 55.0189 55.6878 55.0189 55.3362 55.3705C55.18 55.5658 55.0627 55.7611 55.0627 56.0345C55.0627 56.308 55.18 56.5033 55.3362 56.6986C55.5316 56.8939 55.7269 56.972 56.0004 56.972C56.1957 57.0111 56.4692 56.8939 56.6646 56.6986Z" fill="#0D022B"/>
<path fill-rule="evenodd" clip-rule="evenodd" d="M59.2822 59.3547C59.4385 59.1985 59.5557 58.9641 59.5557 58.6907C59.5557 58.4172 59.4385 58.1829 59.2822 58.0266C58.9306 57.675 58.3055 57.675 57.9539 58.0266C57.7976 58.1829 57.6804 58.4172 57.6804 58.6907C57.6804 58.9641 57.7976 59.1594 57.9539 59.3547C58.1492 59.55 58.3446 59.6282 58.6181 59.6282C58.8915 59.6282 59.0869 59.511 59.2822 59.3547Z" fill="#0D022B"/>
<path fill-rule="evenodd" clip-rule="evenodd" d="M61.7434 61.9719C61.9388 61.8157 62.0169 61.5813 62.0169 61.3078C62.0169 61.0344 61.8997 60.8391 61.7434 60.6438C61.3918 60.2922 60.7667 60.2922 60.4151 60.6438C60.2588 60.8391 60.1416 61.0344 60.1416 61.3078C60.1416 61.5813 60.2588 61.8157 60.4151 61.9719C60.6104 62.1672 60.8058 62.2453 61.0792 62.2453C61.3137 62.2453 61.5871 62.1672 61.7434 61.9719Z" fill="#0D022B"/>
<path fill-rule="evenodd" clip-rule="evenodd" d="M64.5173 64.5891C64.7127 64.4328 64.7908 64.1985 64.7908 63.925C64.7908 63.6516 64.6736 63.4563 64.5173 63.261C64.1657 62.9094 63.5406 62.9094 63.189 63.261C62.9937 63.4563 62.9155 63.6516 62.9155 63.925C62.9155 64.1985 63.0327 64.4328 63.189 64.5891C63.3453 64.7453 63.5797 64.8625 63.8532 64.8625C64.1267 64.8625 64.3611 64.7844 64.5173 64.5891Z" fill="#0D022B"/>
<path fill-rule="evenodd" clip-rule="evenodd" d="M67.135 67.2063C67.3304 67.011 67.4476 66.8157 67.4476 66.5422C67.4476 66.2688 67.3304 66.0735 67.135 65.8782C66.7443 65.5266 66.1192 65.5266 65.7676 65.8782C65.5723 66.0735 65.4551 66.2688 65.4551 66.5422C65.4551 66.8157 65.5723 67.011 65.7676 67.2063C65.963 67.3625 66.2365 67.4797 66.4709 67.4797C66.6662 67.5188 66.9006 67.4016 67.135 67.2063Z" fill="#0D022B"/>
<path fill-rule="evenodd" clip-rule="evenodd" d="M41.8576 36.5816C44.5142 34.8239 47.4444 34.0036 50.6871 33.9645C53.8516 33.9645 56.7818 34.8239 59.5166 36.5816L65.1425 30.9567C60.7277 27.5974 55.9613 25.9177 50.6871 25.9177C45.4128 25.9177 40.5683 27.5974 36.2708 30.9567L41.8576 36.5816Z" fill="#0D022B"/>
<path fill-rule="evenodd" clip-rule="evenodd" d="M36.2316 59.6673C34.4345 56.933 33.575 54.0424 33.575 50.9174C33.575 47.7534 34.4345 44.8237 36.2316 42.1675L30.6448 36.5817C27.3631 40.8785 25.7222 45.644 25.7222 50.9565C25.7222 56.1908 27.3631 60.9954 30.6839 65.3703L36.2316 59.6673Z" fill="#0D022B"/>
<path fill-rule="evenodd" clip-rule="evenodd" d="M59.4775 65.2532C56.8209 67.05 53.8907 67.9875 50.7262 68.0266C47.4835 68.0266 44.5142 67.1672 41.8576 65.2922L36.2317 70.8781C40.5683 74.2765 45.4128 75.9562 50.7262 75.9171C56.0004 75.878 60.7668 74.1593 65.0643 70.8781L59.4775 65.2532Z" fill="#0D022B"/>
<path fill-rule="evenodd" clip-rule="evenodd" d="M64.9861 42.0894C66.7832 44.8237 67.7209 47.7924 67.6427 50.9955C67.6037 54.1205 66.7051 56.972 64.9861 59.5892L70.612 65.175C73.9328 60.8782 75.6518 56.1126 75.6518 50.8783C75.6909 45.5659 74.0109 40.7222 70.612 36.3864L64.9861 42.0894Z" fill="#0D022B"/>
<path fill-rule="evenodd" clip-rule="evenodd" d="M70.8463 67.0109C72.9951 67.0109 74.7923 68.7687 74.7923 70.9561C74.7923 73.1045 73.0342 74.9014 70.8463 74.9014C68.6975 74.9014 66.9004 73.1436 66.9004 70.9561C66.9004 68.7687 68.6585 67.0109 70.8463 67.0109Z" fill="#0D022B"/>
<path fill-rule="evenodd" clip-rule="evenodd" d="M30.6058 67.0109C32.7546 67.0109 34.5127 68.7687 34.5127 70.9561C34.5127 73.1045 32.7546 74.9014 30.6058 74.9014C28.4571 74.9014 26.699 73.1436 26.699 70.9561C26.699 68.7687 28.4571 67.0109 30.6058 67.0109Z" fill="#0D022B"/>
<path fill-rule="evenodd" clip-rule="evenodd" d="M70.9244 26.7771C73.0732 26.7771 74.8313 28.5349 74.8313 30.7224C74.8313 32.9098 73.0732 34.6676 70.9244 34.6676C68.7757 34.6676 67.0176 32.9098 67.0176 30.7224C67.0176 28.5349 68.7757 26.7771 70.9244 26.7771Z" fill="#0D022B"/>
<path fill-rule="evenodd" clip-rule="evenodd" d="M30.5275 26.7771C32.6762 26.7771 34.4734 28.5349 34.4734 30.6833C34.4734 32.8317 32.7153 34.5895 30.5275 34.5895C28.3787 34.5895 26.5815 32.8317 26.5815 30.6833C26.5815 28.5349 28.3396 26.7771 30.5275 26.7771Z" fill="#0D022B"/>
</svg>
