<svg id="Layer_1" data-name="Layer 1" xmlns="http://www.w3.org/2000/svg" viewBox="0 0 512 512"><defs><style>.cls-1{fill:#7866d5;}.cls-2{fill:#fff;}</style></defs><circle class="cls-1" cx="256" cy="256" r="256"/><path class="cls-2" d="M367.51,126.92c8.67,1.08,17.7,1.8,26.36,3.25,17,3.25,22.75,11.91,19.86,29.24a14.55,14.55,0,0,1-12.27,12.64,47,47,0,0,1-12.28.72c-56.33,0-112.29.36-168.62.36a149.84,149.84,0,0,0-25.28,2.17c-27.8,4.33-38.63,15.89-40.8,44-1.08,13-1.08,13,12.28,13H397.12a20.38,20.38,0,0,1,10.11,2.89c10.11,6.5,7.58,17,7.22,26.36-.36,7.58-5.05,11.91-13,13.36a46.16,46.16,0,0,1-10.11.72H161.7c-8.3,0-8.3,0-7.58,8.3A122,122,0,0,0,157,306.73c3.61,13.72,11.91,22.39,26,26.36,15.16,4.33,31.05,5.05,46.58,5.41H393.87c6.86,0,13.36.73,17.7,7.23,6.86,10.83,3.24,24.91-7.59,31.77a11.21,11.21,0,0,1-4.69,2.17c-11.92,4-24.19,4.69-36.83,5.05-51.63,1.09-102.91,1.09-154.18,0a260,260,0,0,1-47.3-5.41c-36.47-7.59-54.88-26.36-61-63.19-1.44-8.31-2.17-17-3.25-25.64V223.32c.72-6.5,1.44-13.36,2.17-19.86,4.69-41.52,23.47-62.1,64.27-71.49,14.44-3.25,29.61-4,44-5.41Z"/><path class="cls-2" d="M285.19,391.94c-26,0-51.63-.36-77.27-.72a242.54,242.54,0,0,1-48.38-5.78c-39.36-8.3-59.58-29.24-66.08-68.24a166.5,166.5,0,0,1-2.17-18.05c-.36-2.53-.72-5.06-1.08-7.95V222.6l.72-6.5c.36-4.69,1.09-9,1.45-13.36,5.05-44.41,26-67.16,69.68-76.91,11.56-2.52,22.75-3.61,33.95-4.69l10.83-1.08H368.6a59.16,59.16,0,0,0,7.94.72c6.14.72,12.28,1.08,18.78,2.53,20.58,4,28.52,15.52,24.91,36.46a21.06,21.06,0,0,1-18.05,18.06,80.41,80.41,0,0,1-13.36,1.08c-56,.36-112.3.72-168.26.72a137.27,137.27,0,0,0-24.19,2.17c-24.92,4-33.22,13-35.39,38.27,0,2.17-.36,4.34-.36,6.14h236.5a28.48,28.48,0,0,1,13.36,3.61c12.28,8,11.2,19.86,10.47,28.53,0,1.08-.36,2.52-.36,3.61-.72,10.11-6.86,17-18,19.13a59.54,59.54,0,0,1-11.19.73H160.62v1.44a111.22,111.22,0,0,0,2.89,22c2.89,11.19,9.75,18,21.3,21.3,15.53,4.33,31.42,5.05,45.14,5.05,42.6.37,85.93.37,128.18.37h36.1c5.42,0,16.61,0,23.11,10.47A28.85,28.85,0,0,1,421,364.86a29.87,29.87,0,0,1-13.36,18.42,32.64,32.64,0,0,1-6.13,2.89c-13.36,4.33-27.09,5.05-38.64,5.41C337.18,391.58,311.19,391.94,285.19,391.94Zm-182-101.82a54.13,54.13,0,0,1,.72,7.58Q105,306.37,106.1,315c5.78,33.94,22,50.55,56,57.77a248.51,248.51,0,0,0,46.22,5.41c50.91,1.09,102.91,1.09,154.18,0,10.47-.36,23.11-1.08,34.66-4.69,1.09-.36,2.17-1.08,3.25-1.45A18.45,18.45,0,0,0,408,361.61,15.76,15.76,0,0,0,405.79,349c-2.17-3.25-5.06-4.34-11.92-4.34h-36.1c-41.89,0-85.58,0-128.18-.36-14.45,0-31.42-.72-48.39-5.78-16.25-4.33-26.36-14.8-30.33-31.05A111,111,0,0,1,148,283.26v-.36c-.36-5.06-.72-8.67,2.17-11.92s6.86-3.25,11.91-3.25H391.71a38.2,38.2,0,0,0,9-.72c5.78-1.08,7.22-3.61,7.59-7.22,0-1.44.36-2.53.36-4,.72-9,.72-13.36-4.34-16.61a13.53,13.53,0,0,0-6.5-1.81H166.76c-7.95,0-12.64,0-16.25-3.61s-2.89-8.66-2.53-16.24c2.53-31.06,15.53-45.14,46.22-49.83a209,209,0,0,1,26.36-2.53c56.33,0,112.29-.36,168.62-.36a56.63,56.63,0,0,0,11.19-.72,7.69,7.69,0,0,0,6.86-6.86c2.53-14.45-1.08-19.14-14.8-22a142.67,142.67,0,0,0-17.33-2.16,57.73,57.73,0,0,0-8-.73H207.56l-10.83,1.09c-11.2,1.08-21.67,1.8-32.5,4.33-37.91,9.39-54.52,27.8-58.85,66.8-.36,4.33-1.09,8.66-1.45,13.36l-.72,6.14v66.07Z"/></svg>