<svg width="512" height="512" viewBox="0 0 512 512" fill="none" xmlns="http://www.w3.org/2000/svg">
<path d="M256 512C397.385 512 512 397.385 512 256C512 114.615 397.385 0 256 0C114.615 0 0 114.615 0 256C0 397.385 114.615 512 256 512Z" fill="white"/>
<g clip-path="url(#clip0_562_22)">
<path d="M140.861 222.981C144.281 230.29 152.745 244.737 152.745 244.737L250.593 83L155.096 149.678C149.406 153.474 144.737 158.612 141.503 164.638C137.153 173.73 134.842 183.661 134.732 193.739C134.621 203.816 136.713 213.797 140.861 222.981V222.981Z" fill="url(#paint0_linear_562_22)"/>
<path d="M102.09 276.239C103.168 291.71 107.54 306.772 114.912 320.417C122.284 334.061 132.487 345.973 144.837 355.355L250.464 429.001C250.464 429.001 184.377 333.77 128.636 239.01C122.992 228.999 119.198 218.053 117.436 206.697C116.656 201.555 116.656 196.324 117.436 191.182C115.983 193.874 113.161 199.388 113.161 199.388C107.509 210.914 103.66 223.239 101.748 235.933C100.647 249.351 100.762 262.841 102.09 276.239V276.239Z" fill="#A0A8D4"/>
<path d="M371.566 289.018C368.146 281.709 359.682 267.262 359.682 267.262L261.835 428.999L357.331 362.364C363.022 358.568 367.69 353.43 370.925 347.404C375.281 338.307 377.595 328.367 377.706 318.282C377.817 308.196 375.721 298.208 371.566 289.018V289.018Z" fill="url(#paint1_linear_562_22)"/>
<path d="M410.337 235.761C409.259 220.291 404.887 205.228 397.515 191.584C390.143 177.939 379.94 166.027 367.59 156.645L261.963 83C261.963 83 328.007 178.23 383.791 272.99C389.42 283.004 393.199 293.95 394.948 305.303C395.729 310.446 395.729 315.676 394.948 320.819C396.402 318.126 399.223 312.612 399.223 312.612C404.875 301.086 408.724 288.761 410.636 276.068C411.751 262.651 411.651 249.16 410.337 235.761Z" fill="#A0A8D4"/>
<path style="mix-blend-mode:color" d="M141.502 164.638C144.737 158.612 149.406 153.474 155.096 149.678L250.592 83L152.745 244.78C152.745 244.78 144.195 230.333 140.861 223.024C136.706 213.834 134.611 203.846 134.721 193.76C134.832 183.675 137.147 173.735 141.502 164.638V164.638ZM102.09 276.239C103.168 291.709 107.54 306.772 114.912 320.416C122.284 334.061 132.487 345.973 144.837 355.355L250.464 429C250.464 429 184.377 333.77 128.636 239.01C122.992 228.999 119.198 218.053 117.436 206.697C116.656 201.554 116.656 196.324 117.436 191.181C115.983 193.874 113.161 199.388 113.161 199.388C107.509 210.914 103.66 223.239 101.748 235.932C100.647 249.351 100.762 262.841 102.09 276.239V276.239ZM371.395 289.061C367.975 281.752 359.511 267.305 359.511 267.305L261.835 429L357.331 362.365C363.021 358.569 367.69 353.431 370.925 347.405C375.28 338.307 377.595 328.368 377.706 318.283C377.816 308.197 375.721 298.209 371.566 289.019L371.395 289.061ZM410.166 235.804C409.088 220.333 404.716 205.271 397.344 191.627C389.972 177.982 379.769 166.07 367.419 156.688L261.963 83C261.963 83 328.007 178.23 383.791 272.99C389.42 283.004 393.199 293.95 394.948 305.303C395.729 310.446 395.729 315.676 394.948 320.819C396.402 318.126 399.223 312.612 399.223 312.612C404.875 301.086 408.724 288.761 410.636 276.068C411.751 262.651 411.651 249.16 410.337 235.761L410.166 235.804Z" fill="url(#paint2_linear_562_22)"/>
</g>
<defs>
<linearGradient id="paint0_linear_562_22" x1="254.867" y1="86.975" x2="129.291" y2="223.123" gradientUnits="userSpaceOnUse">
<stop offset="0.58" stop-color="#A0A8D4"/>
<stop offset="0.73" stop-color="#8791C7"/>
<stop offset="0.91" stop-color="#6470B4"/>
</linearGradient>
<linearGradient id="paint1_linear_562_22" x1="5194.63" y1="13474.7" x2="9814.71" y2="9887.67" gradientUnits="userSpaceOnUse">
<stop offset="0.58" stop-color="#A0A8D4"/>
<stop offset="0.73" stop-color="#8791C7"/>
<stop offset="0.91" stop-color="#6470B4"/>
</linearGradient>
<linearGradient id="paint2_linear_562_22" x1="256.192" y1="81.2903" x2="256.192" y2="430.069" gradientUnits="userSpaceOnUse">
<stop stop-color="#513EFF"/>
<stop offset="0.18" stop-color="#5157FF"/>
<stop offset="0.57" stop-color="#5298FF"/>
<stop offset="1" stop-color="#52E5FF"/>
</linearGradient>
<clipPath id="clip0_562_22">
<rect width="310" height="346" fill="white" transform="translate(101 83)"/>
</clipPath>
</defs>
</svg>
