<svg id="Layer_1" data-name="Layer 1" xmlns="http://www.w3.org/2000/svg" viewBox="0 0 512 512"><defs><style>.cls-1{fill:#3ab83a;}.cls-2{fill:#0b8311;}.cls-3{fill:#146714;}</style></defs><g id="Layer_2" data-name="Layer 2"><g id="svg8"><g id="layer5"><g id="g1627"><path id="path1599" class="cls-1" d="M97.73,279.32c55.7,29.58,113.82,60.54,158.7,84.5l157.41-84.5c-57,84.67-104.48,155.16-157.41,233.17C203.42,434.65,144.87,348.76,97.73,279.32ZM103.79,256l152.82-81.55,150.83,81L256.69,337ZM256.43,148.29,97.73,231.84,255.74.49l158.1,231.87Z"/><path id="path1593" class="cls-2" d="M256.43,363.82l157.41-84.5c-57,84.67-157.41,233.17-157.41,233.17Zm.18-189.4,150.83,81L256.69,337Zm-.18-26.12L255.74.49l158.1,231.87Z"/><path id="path1603" class="cls-2" d="M103.79,256l152.82,12.54,150.84-13.06L256.69,337.09Z"/><path id="path1606" class="cls-3" d="M256.61,268.51l150.83-13.06L256.69,337.09Z"/></g></g></g></g></svg>