<svg width="100" height="101" viewBox="0 0 100 101" fill="none" xmlns="http://www.w3.org/2000/svg">
<circle cx="50" cy="50.8306" r="40.9466" fill="#202944"/>
<path fill-rule="evenodd" clip-rule="evenodd" d="M50 100.831C77.6142 100.831 100 78.4449 100 50.8306C100 23.2164 77.6142 0.830627 50 0.830627C22.3858 0.830627 0 23.2164 0 50.8306C0 78.4449 22.3858 100.831 50 100.831ZM46.4237 26.3051H40.5471V32.4362H46.4237V26.3051ZM31.8613 26.3051H25.7302V32.4362H31.8613V26.3051ZM31.6055 47.2543V41.1232H25.4745V47.2543H31.6055ZM27.519 74.8447H29.818V72.5457H27.519V74.8447ZM25.7302 62.5826H31.8613V56.706H25.7302V62.5826ZM42.5916 74.8447H44.8856V72.5457H42.5916V74.8447ZM42.5916 60.5381H44.8856V58.2391H42.5916V60.5381ZM40.5471 47.51H46.6744L46.6794 41.3777H40.5471V47.51ZM57.4084 74.8447H59.7074V72.5457H57.4084V74.8447ZM57.4084 60.5381H59.7074V58.2391H57.4084V60.5381ZM57.4084 45.4655H59.7074V43.1665H57.4084V45.4655ZM55.6209 32.4362H61.752V26.3051H55.6209V32.4362ZM72.481 74.8485H74.7813V72.5457H72.481V74.8485ZM72.481 60.5418H74.7813V58.2391H72.481V60.5418ZM72.481 45.4692H74.7813V43.1665H72.481V45.4692ZM72.481 30.6524H74.7813V28.3496H72.481V30.6524Z" fill="white"/>
</svg>
