<svg id="b5785c62-ec84-4a0e-b8aa-ccb80f6b8863" data-name="Layer 1" xmlns="http://www.w3.org/2000/svg" viewBox="0 0 512 512"><defs><style>.a4d65994-ff15-4341-bf21-4550a204e0bf{fill:#0090ff;}.a4d65994-ff15-4341-bf21-4550a204e0bf,.a6f8e3cf-8425-492b-8525-04940fbca780{fill-rule:evenodd;}.a6f8e3cf-8425-492b-8525-04940fbca780{fill:#fff;}</style></defs><path class="a4d65994-ff15-4341-bf21-4550a204e0bf" d="M256,512C115.2,512,0,396.8,0,254.73,1.29,113.93,115.2-1.27,257.28,0,398.08,1.29,512,115.21,512,258.57,510.71,398.08,396.8,512,256,512"/><path class="a6f8e3cf-8425-492b-8525-04940fbca780" d="M280.32,225.29l-7.68,41,73,10.23-5.12,19.2L268.8,285.44c-5.12,16.64-7.68,34.56-14.08,49.92-6.4,17.92-12.8,35.84-20.48,52.48C224,409.6,206.08,425,181.76,428.8c-14.08,2.56-29.44,1.28-41-7.68-3.84-2.56-7.68-7.68-7.68-11.52,0-5.12,2.56-11.52,6.4-14.08,2.56-1.28,9,0,12.8,1.28a56.83,56.83,0,0,1,10.24,14.08c7.68,10.24,17.92,11.52,28.16,3.84,11.52-10.24,17.92-24.32,21.76-38.4,7.68-30.72,15.36-60.16,21.76-90.88v-5.12L166.4,270.08,169,250.89l70.4,10.24,9-39.68-73-11.52,2.56-20.48,75.52,10.24c2.56-7.68,3.84-14.08,6.4-20.48,6.4-23,12.8-46.08,28.16-66.56s33.28-33.28,60.16-32c11.52,0,23,3.84,30.72,12.8,1.28,1.28,3.84,3.84,3.84,6.4,0,5.12,0,11.52-3.84,15.36-5.12,3.84-11.52,2.56-16.64-2.56-3.84-3.84-6.4-7.68-10.24-11.52-7.68-10.24-19.2-11.52-28.16-2.56a82,82,0,0,0-16.64,24.32c-9,26.88-15.36,55-24.32,83.2l70.4,10.24-5.12,19.2-67.84-10.24"/></svg>