<svg width="100" height="100" viewBox="0 0 100 100" fill="none" xmlns="http://www.w3.org/2000/svg">
<circle cx="50" cy="50" r="50" fill="white"/>
<path d="M78.4277 71.2393C77.6277 80.7393 66.4277 88.7393 49.6277 88.3393C33.8277 87.9393 22.7277 81.3393 21.9277 71.8393C21.8277 70.6393 21.9277 69.4393 22.0277 68.1393C22.5277 64.4393 23.8277 60.9393 25.7277 57.7393L26.9277 58.2393C30.0277 57.0393 33.2277 56.1393 36.5277 55.5393C40.8277 54.9393 45.2277 54.8393 49.5277 55.1393C53.8277 54.8393 58.2277 54.9393 62.5277 55.5393C65.8277 56.1393 69.0277 57.0393 72.1277 58.2393L73.3277 57.7393L74.1277 57.3393C76.0277 60.5393 77.3277 64.0393 78.0277 67.7393C78.2277 68.8393 78.3276 70.0393 78.2276 71.1393" fill="#F4A427"/>
<path d="M78.4277 71.2393C77.6277 80.6393 66.5276 88.3392 49.6277 88.2392C33.8277 87.8392 22.7277 81.2393 21.9277 71.7393C21.8277 70.5393 21.9277 69.3393 22.0277 68.0393C23.7277 67.6393 25.4277 67.6393 27.1277 67.9393C30.3277 68.4393 32.1277 70.4393 34.4277 71.4393C35.7277 72.0393 37.0277 71.0393 38.2277 69.9393C41.4277 66.8393 45.7277 65.0393 50.1277 64.9393C54.6277 64.8393 58.3277 66.6393 62.2277 70.2393C63.0277 71.0393 64.1277 71.5393 65.2277 71.4393C66.2277 71.1393 67.2277 70.6393 68.0277 69.9393C71.0277 67.9393 74.6277 67.1392 78.1277 67.6392C78.4277 68.9392 78.5277 70.0393 78.4277 71.2393Z" fill="white"/>
<path d="M31.9275 47.8393C30.8275 48.9393 29.4275 49.7393 27.9275 50.0393L27.3275 50.1393C26.7275 50.3393 26.1275 50.4393 25.4275 50.4393C25.3275 50.4393 25.1275 50.4393 25.0275 50.4393C24.7275 50.3393 24.3275 50.2393 24.0275 50.1393C22.9275 49.6393 21.9275 49.0393 21.0275 48.2393C19.2275 46.7393 17.5275 45.0393 16.2275 43.0393C10.7275 35.0393 12.4275 24.2393 20.0275 18.2393C20.5275 17.9393 21.1275 17.9393 21.5275 18.4393C21.7275 18.7393 21.8275 19.0393 21.7275 19.3393C21.0275 22.5393 20.4275 27.5393 23.4275 31.8393C26.0275 35.4393 31.4275 38.9393 34.7275 38.9393C35.4275 42.9393 34.3275 45.6393 31.9275 47.8393Z" fill="#F79422"/>
<path d="M31.9275 47.8393C30.8275 48.9393 29.4275 49.7393 27.9275 50.0393L27.3275 50.1393C26.7275 50.3393 26.1275 50.4393 25.4275 50.4393C25.3275 50.4393 25.1275 50.4393 25.0275 50.4393C24.7275 50.3393 24.3275 50.2393 24.0275 50.1393C22.9275 49.6393 21.9275 49.0393 21.0275 48.2393C19.2275 46.7393 17.5275 45.0393 16.2275 43.0393C10.7275 35.0393 12.4275 24.2393 20.0275 18.2393C20.5275 17.9393 21.1275 17.9393 21.5275 18.4393C21.7275 18.7393 21.8275 19.0393 21.7275 19.3393C21.0275 22.5393 20.4275 27.5393 23.4275 31.8393C26.0275 35.4393 31.4275 38.9393 34.7275 38.9393C35.4275 42.9393 34.3275 45.6393 31.9275 47.8393Z" stroke="#221F1F" stroke-linejoin="round"/>
<path d="M46.3273 34.0392L45.0273 46.8392H44.9273C42.9273 47.1392 40.2273 47.5392 36.5273 48.1392C33.1273 48.6392 28.5273 51.0392 25.8273 52.6392L25.5273 50.5392C26.1273 50.4392 26.8273 50.3392 27.4273 50.2392L28.0273 50.1392C29.5273 49.8392 30.9273 49.0392 32.0273 47.9392C34.3273 45.6392 35.5273 43.0392 34.7273 38.9392L35.1273 39.0392C36.3273 37.7392 37.7273 36.7392 39.3273 35.9392C41.4273 34.7392 43.8273 34.1392 46.3273 34.0392Z" fill="#5A595C"/>
<path d="M46.3273 34.0392L45.0273 46.8392H44.9273C42.9273 47.1392 40.2273 47.5392 36.5273 48.1392C33.1273 48.6392 28.5273 51.0392 25.8273 52.6392L25.5273 50.5392C26.1273 50.4392 26.8273 50.3392 27.4273 50.2392L28.0273 50.1392C29.5273 49.8392 30.9273 49.0392 32.0273 47.9392C34.3273 45.6392 35.5273 43.0392 34.7273 38.9392L35.1273 39.0392C36.3273 37.7392 37.7273 36.7392 39.3273 35.9392C41.4273 34.7392 43.8273 34.1392 46.3273 34.0392Z" stroke="#221F1F" stroke-linejoin="round"/>
<path d="M75.5274 57.0393L74.7274 57.4393L73.9274 57.8393L72.7274 58.3393C69.6274 57.1393 66.4274 56.2393 63.1274 55.6393C58.8274 54.8393 54.5274 54.4393 50.1274 54.4393C45.7274 54.4393 41.4274 54.7393 37.1274 55.6393C33.8274 56.2393 30.6274 57.1393 27.5274 58.3393C27.1274 58.1393 26.7274 57.9393 26.3274 57.8393L24.6274 57.0393C24.7274 55.6393 24.6274 54.8393 24.6274 53.4393C24.9274 53.2393 25.4274 52.9393 25.9274 52.6393L26.0274 52.5393C28.6274 50.9393 33.2274 48.6393 36.6274 48.0393C40.3274 47.4393 42.9274 47.0393 45.0274 46.7393C46.3274 46.6393 47.7274 46.6393 49.1274 46.6393C51.2274 46.6393 53.1274 46.6393 55.0274 46.7393C57.0274 47.0393 59.7274 47.4393 63.5274 48.0393C67.0274 48.5393 71.6274 50.9393 74.3274 52.5393H74.4274C74.9274 52.8393 75.3274 53.0393 75.6274 53.3393C75.5274 54.8393 75.4274 55.6393 75.5274 57.0393Z" fill="#929497"/>
<path d="M75.5274 57.0393L74.7274 57.4393L73.9274 57.8393L72.7274 58.3393C69.6274 57.1393 66.4274 56.2393 63.1274 55.6393C58.8274 54.9393 54.5274 54.5393 50.1274 54.5393C45.7274 54.5393 41.4274 54.8393 37.1274 55.6393C33.8274 56.2393 30.6274 57.1393 27.5274 58.3393C27.1274 58.1393 26.7274 57.9393 26.3274 57.8393L24.6274 57.0393C24.7274 55.6393 24.6274 54.8393 24.6274 53.4393C24.9274 53.2393 25.4274 52.9393 25.9274 52.6393L26.0274 52.5393C28.6274 50.9393 33.2274 48.6393 36.6274 48.0393C40.3274 47.4393 42.9274 47.0393 45.0274 46.7393C46.3274 46.6393 47.7274 46.6393 49.1274 46.6393C51.2274 46.6393 53.1274 46.6393 55.0274 46.7393C57.0274 47.0393 59.7274 47.4393 63.5274 48.0393C67.0274 48.5393 71.6274 50.9393 74.3274 52.5393H74.4274C74.9274 52.8393 75.3274 53.0393 75.6274 53.3393C75.5274 54.8393 75.4274 55.6393 75.5274 57.0393Z" stroke="#221F1F" stroke-linecap="round" stroke-linejoin="round"/>
<path d="M54.9277 46.8392C53.1277 46.7392 51.1277 46.6392 49.0277 46.7392C47.6277 46.7392 46.2277 46.8392 44.9277 46.8392H45.0277L46.3277 34.0392L46.6277 31.4392C47.6277 30.8392 48.8277 30.5392 49.9277 30.5392H50.1277C51.3277 30.5392 52.4277 30.8392 53.4277 31.4392L53.7277 34.0392V34.1392L54.9277 46.8392Z" fill="#929497"/>
<path d="M54.9277 46.8392C53.1277 46.7392 51.1277 46.6392 49.0277 46.7392C47.6277 46.7392 46.2277 46.8392 44.9277 46.8392H45.0277L46.3277 34.0392L46.6277 31.4392C47.6277 30.8392 48.8277 30.5392 49.9277 30.5392H50.1277C51.3277 30.5392 52.4277 30.8392 53.4277 31.4392L53.7277 34.0392V34.1392L54.9277 46.8392Z" stroke="#221F1F" stroke-linecap="round" stroke-linejoin="round"/>
<circle cx="74.7275" cy="57.4392" r="0.5" fill="#221F1F"/>
<path d="M78.4273 71.3392C77.6273 80.8392 65.5273 88.4392 49.6273 88.4392C33.8273 88.0392 22.7273 81.4392 22.0273 71.9392C21.9273 70.7392 22.0273 69.5392 22.1273 68.2392C22.6273 64.5392 23.9273 61.0392 25.8273 57.8392L27.0273 58.3392C30.1273 57.1392 33.3273 56.2392 36.6273 55.6392C40.9273 54.8392 45.2273 54.5392 49.6273 54.4392C54.0273 54.4392 58.3273 54.8392 62.6273 55.6392C65.9273 56.2392 69.1273 57.1392 72.2273 58.3392L73.5273 57.8392L74.3273 57.4392C76.2273 60.6392 77.5273 64.1392 78.2273 67.8392C78.5273 69.0392 78.5273 70.2392 78.4273 71.3392Z" stroke="#221F1F" stroke-linecap="round" stroke-linejoin="round"/>
<path d="M83.3274 43.0392C81.9274 44.9392 80.3274 46.7392 78.4274 48.2392C77.5274 49.0392 76.5274 49.6392 75.4274 50.1392L74.9274 50.3392L74.6274 50.4392C73.9274 50.6392 73.5274 50.4392 72.2274 50.2392L71.6274 50.1392C70.1274 49.8392 68.7274 49.0392 67.6274 47.9392C65.3274 45.6392 64.1274 43.0392 64.9274 38.9392C68.1274 39.0392 73.6274 35.5392 76.2274 31.8392C79.1274 27.5392 78.5274 22.5392 77.8274 19.3392C77.7274 18.7392 78.0274 18.2392 78.6274 18.0392C78.9274 17.9392 79.3274 18.0392 79.5274 18.2392C87.1274 24.2392 88.8274 35.1392 83.3274 43.0392Z" fill="#F79422"/>
<path d="M83.3274 43.0392C81.9274 44.9392 80.3274 46.7392 78.4274 48.2392C77.5274 49.0392 76.5274 49.6392 75.4274 50.1392L74.9274 50.3392L74.6274 50.4392C73.9274 50.6392 73.5274 50.4392 72.2274 50.2392L71.6274 50.1392C70.1274 49.8392 68.7274 49.0392 67.6274 47.9392C65.3274 45.6392 64.1274 43.0392 64.9274 38.9392C68.1274 39.0392 73.6274 35.5392 76.2274 31.8392C79.1274 27.5392 78.5274 22.5392 77.8274 19.3392C77.7274 18.7392 78.0274 18.2392 78.6274 18.0392C78.9274 17.9392 79.3274 18.0392 79.5274 18.2392C87.1274 24.2392 88.8274 35.1392 83.3274 43.0392Z" stroke="#221F1F" stroke-linejoin="round"/>
<path d="M74.6274 50.4392L74.2274 52.6392C71.5274 51.0392 66.9274 48.6392 63.4274 48.1392C59.6274 47.5392 57.0274 47.1392 54.9274 46.8392L53.6274 34.0392C55.9274 34.1392 58.2274 34.8392 60.3274 35.9392C61.9274 36.7392 63.3274 37.8392 64.5274 39.0392L64.9274 38.9392C64.1274 42.9392 65.3274 45.6392 67.6274 47.9392C68.7274 49.0392 70.1274 49.8392 71.6274 50.1392C71.7274 50.1392 72.1274 50.3392 72.2274 50.3392C73.0274 50.6392 73.8274 50.6392 74.6274 50.4392Z" fill="#5A595C"/>
<path d="M74.6274 50.4392L74.2274 52.6392C71.5274 51.0392 66.9274 48.6392 63.4274 48.1392C59.6274 47.5392 57.0274 47.1392 54.9274 46.8392L53.6274 34.0392C55.9274 34.1392 58.2274 34.8392 60.3274 35.9392C61.9274 36.7392 63.3274 37.8392 64.5274 39.0392L64.9274 38.9392C64.1274 42.9392 65.3274 45.6392 67.6274 47.9392C68.7274 49.0392 70.1274 49.8392 71.6274 50.1392L72.2274 50.2392C73.5274 50.4392 73.9274 50.6392 74.6274 50.4392Z" stroke="#221F1F" stroke-linejoin="round"/>
<path d="M53.6275 34.0392H53.2275" stroke="#221F1F" stroke-linejoin="round"/>
<path d="M74.7275 49.9392C75.4275 50.7392 75.2275 51.9392 74.4275 52.6392C74.3275 52.7392 74.3275 52.7392 74.2275 52.8392" fill="#F79422"/>
<path d="M74.7275 49.9392C75.4275 50.7392 75.2275 51.9392 74.4275 52.6392C74.3275 52.7392 74.3275 52.7392 74.2275 52.8392" stroke="#221F1F" stroke-miterlimit="10"/>
<path d="M25.4275 49.9392C24.7275 50.7392 24.9275 51.9392 25.7275 52.6392C25.8275 52.7392 25.8275 52.7392 25.9275 52.8392" fill="#F79422"/>
<path d="M25.4275 49.9392C24.7275 50.7392 24.9275 51.9392 25.7275 52.6392C25.8275 52.7392 25.8275 52.7392 25.9275 52.8392" stroke="#221F1F" stroke-miterlimit="10"/>
<path d="M46.3276 75.1393C47.0276 75.3393 47.8276 75.2393 48.5276 74.8393C49.6276 74.4393 50.3276 73.3393 50.2276 72.1393C50.1276 73.3393 50.8276 74.4393 51.9276 74.8393C52.6276 75.1393 53.3276 75.2393 54.0276 75.1393" stroke="#171717" stroke-linecap="round" stroke-linejoin="round"/>
<path d="M54.1274 68.7393C54.1274 69.9393 52.3274 71.5393 50.1274 71.5393C47.9274 71.5393 46.1274 69.9393 46.1274 68.7393C46.1274 67.5393 47.9274 67.1393 50.1274 67.1393C52.3274 67.1393 54.1274 67.6393 54.1274 68.7393Z" fill="#171717"/>
<path d="M51.7276 68.3393C51.7276 68.6393 50.9276 69.0393 50.0276 69.0393C49.1276 69.0393 48.3276 68.6393 48.3276 68.4393C48.3276 68.2393 49.1276 68.2393 50.0276 68.2393C50.9276 68.2393 51.7276 68.0393 51.7276 68.3393Z" fill="white"/>
<path d="M43.8274 72.1393C43.7274 73.5393 44.6274 74.7393 46.0274 75.0393H46.3274" stroke="#171717" stroke-linecap="round" stroke-linejoin="round"/>
<path d="M50.2275 70.7393C50.2275 71.2393 50.2275 71.6393 50.2275 72.1393" stroke="#171717" stroke-linecap="round" stroke-linejoin="round"/>
<path d="M54.1274 75.1393H54.4274C55.8274 74.8393 56.8274 73.6393 56.6274 72.2393" stroke="#171717" stroke-linecap="round" stroke-linejoin="round"/>
<path d="M79.5273 18.2393C87.1273 24.2393 88.7273 35.0393 83.2273 42.9393" stroke="#221F1F" stroke-linejoin="round"/>
<path d="M31.9275 47.8393C30.8275 48.9393 29.4275 49.7393 27.9275 50.0393L27.3275 50.1393C26.7275 50.3393 26.1275 50.4393 25.4275 50.4393C25.3275 50.4393 25.1275 50.4393 25.0275 50.4393C24.7275 50.3393 24.3275 50.2393 24.0275 50.1393C22.9275 49.6393 21.9275 49.0393 21.0275 48.2393C19.2275 46.7393 17.5275 45.0393 16.2275 43.0393C10.7275 35.0393 12.4275 24.2393 20.0275 18.2393C20.5275 17.9393 21.1275 17.9393 21.5275 18.4393C21.7275 18.7393 21.8275 19.0393 21.7275 19.3393C21.0275 22.5393 20.4275 27.5393 23.4275 31.8393C26.0275 35.4393 31.4275 38.9393 34.7275 38.9393C35.4275 42.9393 34.3275 45.6393 31.9275 47.8393Z" stroke="#221F1F" stroke-linejoin="round"/>
<path d="M42.8273 62.2392C42.8273 64.4392 41.5273 66.1392 39.9273 66.1392C38.3273 66.1392 37.0273 64.3392 37.0273 62.2392C37.0273 60.3392 38.0273 58.7392 39.3273 58.3392L42.5273 60.7392C42.7273 61.2392 42.8273 61.7392 42.8273 62.2392Z" fill="#221F1F"/>
<path d="M41.7275 61.7392C41.7275 62.5392 41.2275 63.1392 40.7275 63.1392C40.2275 63.1392 39.7275 62.5392 39.7275 61.7392C39.7275 60.9392 40.2275 60.3392 40.7275 60.3392C41.2275 60.3392 41.7275 60.9392 41.7275 61.7392Z" fill="white"/>
<path d="M39.3274 65.2392C38.2274 66.1392 37.2274 67.1392 36.3274 68.2392C35.9274 68.7392 35.5274 69.3392 35.2274 70.0392C34.9274 70.6392 34.7274 71.3392 34.6274 72.0392C34.5274 72.3392 34.5274 72.7392 34.5274 73.0392V73.5392V74.0392C34.5274 74.7392 34.5274 75.4392 34.5274 76.2392C34.6274 76.9392 34.7274 77.7392 34.8274 78.4392C34.9274 78.8392 34.9274 79.1392 35.0274 79.5392C35.1274 79.8392 35.2274 80.2392 35.4274 80.5392C35.2274 80.2392 35.1274 79.8392 34.9274 79.5392C34.8274 79.2392 34.6274 78.8392 34.5274 78.5392C34.3274 77.8392 34.1274 77.1392 33.9274 76.3392C33.8274 75.6392 33.7274 74.8392 33.6274 74.1392V73.6392V73.0392C33.6274 72.6392 33.6274 72.2392 33.6274 71.9392C33.7274 71.1392 33.8274 70.3392 34.1274 69.6392C34.4274 68.9392 34.7274 68.2392 35.1274 67.5392C36.0274 66.2392 36.9274 65.0392 38.0274 64.0392C38.4274 63.7392 38.9274 63.7392 39.3274 64.0392C39.6274 64.2392 39.7274 64.8392 39.3274 65.2392Z" fill="#221F1F"/>
<path d="M38.6275 64.9393C38.5275 64.9393 38.5275 64.9393 38.4275 64.9393H38.3275H38.1275L37.6275 64.8393C37.3275 64.7393 37.0275 64.7393 36.7275 64.7393C36.1275 64.7393 35.4275 64.7393 34.8275 64.9393C34.5275 65.0393 34.2275 65.1393 33.9275 65.2393C33.0275 65.6393 32.2275 66.3393 31.7275 67.1393C32.0275 66.4393 32.3275 65.8393 32.8275 65.3393C33.0275 65.0393 33.3275 64.8393 33.6275 64.6393C33.9275 64.4393 34.2275 64.2393 34.5275 64.0393C35.1275 63.6393 35.8275 63.4393 36.6275 63.2393C37.0275 63.1393 37.3275 63.1393 37.7275 63.1393C37.9275 63.1393 38.1275 63.1393 38.3275 63.1393H38.7275C39.2275 63.1393 39.6275 63.5393 39.7275 64.0393C39.8275 64.5393 39.2275 64.9393 38.6275 64.9393Z" fill="#221F1F"/>
<path d="M63.3274 62.2392C63.3274 64.4392 62.0274 66.1392 60.5274 66.1392C59.0274 66.1392 57.6274 64.3392 57.6274 62.2392C57.6274 61.7392 57.7274 61.2392 57.8274 60.7392L61.0274 58.3392C62.3274 58.7392 63.3274 60.3392 63.3274 62.2392Z" fill="#221F1F"/>
<path d="M58.6274 61.7392C58.6274 62.5392 59.1274 63.1392 59.6274 63.1392C60.1274 63.1392 60.6274 62.5392 60.6274 61.7392C60.6274 60.9392 60.1274 60.3392 59.6274 60.3392C59.1274 60.3392 58.6274 60.9392 58.6274 61.7392Z" fill="white"/>
<path d="M62.3276 63.8392C63.4276 64.9392 64.3276 66.0392 65.1276 67.3392C65.5276 67.9392 65.9276 68.6392 66.2276 69.3392C66.5276 70.0392 66.7276 70.8392 66.8276 71.5392C66.9276 72.3392 66.9276 73.0392 66.8276 73.8392C66.7276 74.5392 66.6276 75.3392 66.5276 76.0392C66.4276 76.7392 66.2276 77.4392 66.0276 78.1392C65.9276 78.4392 65.8276 78.8392 65.6276 79.1392C65.5276 79.4392 65.3276 79.8392 65.1276 80.1392C65.2276 79.8392 65.4276 79.4392 65.5276 79.1392C65.6276 78.8392 65.7276 78.4392 65.8276 78.1392C65.9276 77.4392 66.1276 76.7392 66.1276 76.0392C66.2276 75.3392 66.2276 74.6392 66.2276 73.8392C66.2276 73.1392 66.1276 72.4392 66.0276 71.7392C65.8276 71.0392 65.6276 70.4392 65.3276 69.8392C65.0276 69.2392 64.6276 68.6392 64.1276 68.1392C63.2276 67.0392 62.2276 66.0392 61.1276 65.1392C60.7276 64.7392 60.7276 64.2392 61.1276 63.8392C61.4276 63.5392 61.9276 63.4392 62.3276 63.7392V63.8392Z" fill="#221F1F"/>
<path d="M61.7274 63.1392H62.2274C62.4274 63.1392 62.6274 63.1392 62.8274 63.1392C63.2274 63.1392 63.6274 63.1392 64.0274 63.2392C64.8274 63.3392 65.5274 63.5392 66.2274 63.8392C66.9274 64.1392 67.5274 64.6392 68.1274 65.1392C68.6274 65.6392 69.0274 66.3392 69.3274 66.9392C68.9274 66.3392 68.4274 65.8392 67.8274 65.4392C67.2274 65.0392 66.6274 64.7392 65.9274 64.6392C65.2274 64.5392 64.5274 64.5392 63.8274 64.5392C63.5274 64.5392 63.1274 64.6392 62.8274 64.6392L62.3274 64.7392H62.1274H62.0274H61.9274H61.8274C61.3274 64.8392 60.8274 64.4392 60.8274 63.9392C60.7274 63.4392 61.1274 62.9392 61.6274 62.9392C61.7274 62.9392 61.7274 62.9392 61.8274 62.9392" fill="#221F1F"/>
</svg>
