<svg width="113" height="30" viewBox="0 0 113 30" fill="none" xmlns="http://www.w3.org/2000/svg">
<path fill-rule="evenodd" clip-rule="evenodd" d="M102.04 29.1229C100.607 28.9693 98.3251 28.4695 97.5655 28.1429L97.1943 27.9834L97.1436 26.1447C97.1159 25.1333 97.0839 23.781 97.0724 23.1397L97.0516 21.9734L97.2742 21.8668C97.3964 21.8083 97.6432 21.7536 97.8226 21.7452L98.1488 21.7299L98.4268 22.4141C99.5106 25.0832 100.782 26.5226 102.443 26.9602C103.077 27.1272 104.264 27.1287 104.734 26.963C106.047 26.4989 106.768 25.504 106.774 24.1449C106.781 22.5351 105.897 21.7616 102.555 20.4557C100.484 19.6468 99.7619 19.2303 98.9022 18.3499C97.9744 17.4001 97.5291 16.319 97.4455 14.8131C97.3444 12.9934 97.9137 11.4595 99.1755 10.1523C100.445 8.83675 102.093 8.12392 104.338 7.91896C106.315 7.73858 109.35 8.15782 110.94 8.83146L111.231 8.95431L111.282 10.5933C111.311 11.4946 111.34 12.7029 111.348 13.2786L111.361 14.3248L110.972 14.4694C110.356 14.6983 110.315 14.6694 109.973 13.7616C109.012 11.216 107.897 10.0114 106.158 9.6435C105.098 9.41958 104.213 9.66061 103.57 10.3486C103.068 10.8854 102.872 11.3618 102.824 12.1624C102.773 13.0295 102.928 13.4981 103.458 14.0782C104.11 14.7926 105.18 15.4096 107.311 16.3003C109.921 17.391 111.166 18.3172 111.843 19.6707C112.283 20.55 112.407 21.2519 112.363 22.6035C112.33 23.6177 112.297 23.8261 112.067 24.5069C111.315 26.7269 109.617 28.1886 106.995 28.8738C106.106 29.1058 105.979 29.1179 104.213 29.1372C103.195 29.1484 102.217 29.1419 102.04 29.1229ZM67.3582 28.8928C69.8027 28.5261 71.5957 27.6864 73.1143 26.1973C75.3091 24.0448 76.3662 21.0068 76.2235 17.2629C76.1498 15.3353 75.8352 14.076 75.0364 12.5138C73.9544 10.3974 72.1038 8.91326 70.0026 8.47598C68.4262 8.14817 66.398 8.40475 64.8562 9.12785C64.4719 9.30761 64.1041 9.45503 64.0388 9.45503C63.9352 9.45503 63.924 8.85914 63.9502 4.76035L63.9806 0.0653687L63.6576 0.130056C63.4801 0.165822 61.6692 0.503267 59.6333 0.88021C57.5974 1.25715 55.8522 1.58402 55.7552 1.60704C55.6078 1.64156 55.582 1.69785 55.5979 1.94977C55.6153 2.23061 55.6386 2.25611 55.9352 2.32143C56.9553 2.54597 57.1369 2.6259 57.5163 3.01777C57.9808 3.49797 58.1906 4.11097 58.3284 5.39046C58.4381 6.40994 58.4624 23.9748 58.3576 26.5677L58.2957 28.105L59.1253 28.2823C62.264 28.9537 65.3928 29.1864 67.3582 28.8928ZM89.5254 28.8903C91.3897 28.5877 93.2257 27.6926 94.5455 26.4426C95.2681 25.7581 95.5078 25.4275 95.4074 25.2546C95.1394 24.7927 95.1509 24.7931 94.4659 25.2142C93.3752 25.8841 92.8289 26.0688 91.5476 26.2004C90.0511 26.354 88.6707 26.1036 87.3949 25.4477C86.5489 25.0126 85.5347 24.0115 85.0279 23.1111C84.3364 21.8823 83.9611 20.4473 83.8492 18.6027C83.8022 17.8283 83.8125 17.6352 83.9033 17.5776C83.9652 17.5385 86.6484 17.5061 89.9097 17.5055L95.8041 17.5042V17.2713C95.8041 16.742 95.6303 15.3188 95.4746 14.573C94.8484 11.573 93.1955 9.43388 90.8384 8.57363C89.9 8.2309 89.0127 8.0869 87.843 8.0869C85.0714 8.0869 82.8079 8.99629 81.0568 10.8129C79.6608 12.2616 78.8325 13.8888 78.3269 16.1762C78.1745 16.8654 78.149 17.2237 78.149 18.6715C78.149 20.1083 78.1752 20.479 78.3229 21.1437C79.2612 25.3653 82.0377 28.1454 86.0272 28.8576C87.038 29.038 88.5276 29.052 89.5254 28.8903ZM32.4752 28.7855C33.903 28.4521 35.0412 27.9429 36.0586 27.1828C38.5335 25.3339 39.8895 22.4994 40.0148 18.9128C40.1382 15.3773 39.072 12.3636 37.0109 10.4204C35.3379 8.84297 33.2292 8.0869 30.5036 8.0869C27.6146 8.0869 25.2876 8.98292 23.4976 10.7849C21.5802 12.7153 20.5656 15.4081 20.5656 18.5685C20.5656 21.8472 21.4822 24.4939 23.2592 26.3481C24.2392 27.3704 25.1931 27.9837 26.5605 28.4704C27.0443 28.6424 27.4 28.7251 28.6931 28.9655C28.8038 28.9861 29.546 28.9898 30.3426 28.9739C31.4165 28.9525 31.9609 28.9046 32.4752 28.7855ZM16.9179 19.3958L16.7317 18.631C16.3813 17.1945 15.7069 16.166 14.8733 15.7971C14.4887 15.627 13.5363 15.53 11.6941 15.474L10.8291 15.4479V17.2645C10.8291 19.2443 10.9379 21.9227 11.0772 23.3761C11.2719 25.4026 11.7896 26.5223 12.7192 26.9275C12.8967 27.0049 13.4583 27.1306 13.9673 27.2068C14.4762 27.283 14.956 27.3782 15.0334 27.418C15.2299 27.5197 15.2414 28.569 15.0471 28.6436C14.8947 28.7021 0.694297 28.6978 0.549096 28.6393C0.482248 28.6122 0.448669 28.4116 0.448669 28.0403C0.448669 27.3732 0.406071 27.403 1.69578 27.1639C2.68513 26.9801 3.03896 26.7925 3.47581 26.2196C4.32276 25.1087 4.50589 22.9702 4.50776 14.164C4.50962 5.89367 4.35012 4.1542 3.47425 2.87596C3.0856 2.30868 2.4308 2.00077 1.33386 1.86953L0.488777 1.76814L0.465457 1.10849L0.442139 0.44853L0.707044 0.401567C0.852555 0.375442 5.96785 0.364559 12.074 0.376999L23.1765 0.400015L23.2287 0.721906C23.2573 0.89887 23.3042 2.71516 23.3328 4.75818L23.3854 8.47256L22.813 8.64641C21.9511 8.90828 21.9564 8.91139 21.569 7.88568C20.6166 5.36558 19.525 3.91348 18.031 3.18043C17.0006 2.67442 16.5243 2.61346 13.6144 2.61346H11.0819L11.0384 3.03612C10.9566 3.82826 10.8273 8.92601 10.8282 11.3267L10.8291 13.7211L11.5735 13.7168C11.9829 13.7146 12.7901 13.6844 13.3672 13.6499C14.235 13.598 14.493 13.5519 14.8559 13.384C15.7479 12.971 16.3548 12.0619 16.7267 10.5815L16.9185 9.81736L18.2322 9.77071V19.4425L16.9179 19.3958ZM40.2162 28.6241C40.1429 28.5774 40.1189 28.3917 40.1357 28.0011L40.16 27.445L40.4417 27.385C40.5965 27.352 40.9292 27.2864 41.181 27.2394C41.9602 27.0939 42.4079 26.6706 42.6598 25.8424C42.865 25.1672 42.9555 23.0079 42.9601 18.6715C42.966 13.3678 42.8556 12.1154 42.3193 11.4054C42.0289 11.0206 41.8193 10.9112 41.1145 10.7759C40.7666 10.709 40.4003 10.6375 40.3008 10.6166C40.1394 10.5831 40.1195 10.5305 40.1195 10.1361C40.1195 9.75267 40.1441 9.68331 40.3008 9.61862C40.5415 9.51972 48.5132 7.9258 48.7678 7.9258H48.9665L48.9276 9.11292C48.9062 9.76604 48.8717 10.7168 48.8515 11.2259L48.8142 12.1515L49.103 11.6305C50.0274 9.96291 51.0643 8.92787 52.4429 8.29591C53.1997 7.94882 53.7047 7.84525 54.6396 7.84525C55.7487 7.84525 56.8571 8.20727 56.8571 8.56928C56.8571 8.8128 54.9036 13.9765 54.7957 14.0178C54.7431 14.0381 54.3616 13.8919 53.9481 13.6935C53.0853 13.2792 52.276 13.0767 51.4903 13.0786C50.5115 13.0808 49.4186 13.4409 48.987 13.904C48.8027 14.1021 48.8017 14.1139 48.7557 17.0713C48.7103 20.0001 48.8079 23.5723 48.9724 25.0092C49.113 26.233 49.4379 26.8358 50.1095 27.1163C50.3336 27.2099 51.7508 27.404 52.2135 27.4046C52.2486 27.4046 52.2666 27.6854 52.2536 28.0285L52.2303 28.6524L46.2755 28.6716C43.035 28.6819 40.3316 28.6611 40.2162 28.6241ZM31.1712 27.5228C31.7411 27.3536 32.4444 26.6939 32.8191 25.9771C33.593 24.497 33.9387 22.3081 33.9471 18.8323C33.958 14.4766 33.2752 11.7046 31.8344 10.2534C31.2293 9.64412 30.8003 9.45472 30.0267 9.45597C28.3098 9.45877 27.22 11.2517 26.7894 14.782C26.5916 16.4048 26.5904 20.271 26.7875 21.6898C27.3975 26.0809 28.972 28.1762 31.1712 27.5228ZM66.0371 27.4839C66.6216 27.3732 67.0755 27.1405 67.5634 26.702C68.7853 25.6029 69.7041 23.3338 70.0654 20.5226C70.2128 19.3778 70.1929 16.7687 70.0296 15.813C69.5884 13.2282 68.6401 11.5295 67.2571 10.8456C66.6832 10.5619 66.5949 10.5417 65.9143 10.5417C65.4274 10.5417 65.0089 10.5939 64.6528 10.6988L64.1199 10.8558L64.0804 13.7976C64.0301 17.5661 64.1526 27.0006 64.2555 27.2715C64.3211 27.4441 64.3935 27.4808 64.7194 27.5063C65.4815 27.5663 65.6114 27.5644 66.0371 27.4839ZM88.4732 15.9249L89.8733 15.8761L89.8229 14.8815C89.6451 11.3736 88.7869 9.4569 87.3949 9.45814C85.8823 9.46001 84.6734 11.4054 84.1707 14.6467C84.1091 15.0451 84.0578 15.5178 84.0569 15.697L84.0556 16.0223L85.5642 15.998C86.3941 15.9847 87.7031 15.9517 88.4732 15.9249Z" fill="#D9DADB" fill-opacity="0.2"/>
</svg>
