<svg width="512" height="512" viewBox="0 0 512 512" fill="none" xmlns="http://www.w3.org/2000/svg">
<path d="M256 512C397.385 512 512 397.385 512 256C512 114.615 397.385 0 256 0C114.615 0 0 114.615 0 256C0 397.385 114.615 512 256 512Z" fill="#1969FF"/>
<path fill-rule="evenodd" clip-rule="evenodd" d="M275.2 206.4L332.8 172.8V240L275.2 206.4ZM332.8 350.4L256 395.2L179.2 350.4V272L256 316.8L332.8 272V350.4ZM179.2 172.8L236.8 206.4L179.2 240V172.8ZM265.6 222.4L323.2 256L265.6 289.6V222.4ZM246.4 289.6L188.8 256L246.4 222.4V289.6ZM323.2 156.8L256 195.2L188.8 156.8L256 116.8L323.2 156.8ZM160 150.4V360L256 414.4L352 360V150.4L256 96L160 150.4Z" fill="white"/>
</svg>
