<svg width="512" height="446" viewBox="0 0 512 446" fill="none" xmlns="http://www.w3.org/2000/svg">
<g clip-path="url(#clip0)">
<path d="M144.743 0.0281596C267.145 -0.00938653 389.555 -0.00938653 511.972 0.0281596C512.009 39.5932 512.009 79.1515 511.972 118.703C389.566 118.74 267.157 118.74 144.743 118.703C144.704 79.1378 144.704 39.5796 144.743 0.0281596Z" fill="#02A6C2"/>
<path d="M0.153598 163.351C39.6436 163.147 79.1404 163.147 118.644 163.351C118.849 202.841 118.849 242.338 118.644 281.842C79.1421 282.045 39.6453 282.048 0.153598 281.852C-0.0511992 242.355 -0.0511992 202.855 0.153598 163.351Z" fill="#5FCADE"/>
<path d="M144.835 163.351C233.182 163.164 321.524 163.164 409.86 163.351C410.048 202.841 410.048 242.338 409.86 281.842C321.514 282.026 233.172 282.026 144.835 281.842C144.65 242.35 144.65 202.853 144.835 163.351Z" fill="#5FCADE"/>
<path d="M144.945 326.71C184.368 326.282 223.785 326.282 263.195 326.71C263.604 366.108 263.61 405.524 263.213 444.96C223.789 445.349 184.374 445.342 144.965 444.939C144.556 405.545 144.549 366.135 144.945 326.71Z" fill="#ABEBF4"/>
</g>
<defs>
<clipPath id="clip0">
<rect width="512" height="445.246" fill="white"/>
</clipPath>
</defs>
</svg>
