<svg width="512" height="512" viewBox="0 0 512 512" fill="none" xmlns="http://www.w3.org/2000/svg">
<path d="M256 512C397.385 512 512 397.385 512 256C512 114.615 397.385 0 256 0C114.615 0 0 114.615 0 256C0 397.385 114.615 512 256 512Z" fill="white"/>
<path d="M263.365 322V257.666L414 170.5V338.833L263.365 432V404.833L390.066 327L390.568 210L286.964 269.166V308.5L263.365 322Z" fill="black"/>
<path d="M190.856 224.75L247.297 257.168L247.297 430.335L98 338.668L98.0001 171.5L120.701 184.5L120.701 327L224.032 388.834L224.534 269.168L190.856 249.668L190.856 224.75Z" fill="black"/>
<path d="M310.396 211L255.665 242.498L108.88 157.999L255.498 79L402.618 158L380.023 171L255.498 103.833L154.405 158.333L255.498 216.834L288.805 197.834L310.396 211Z" fill="black"/>
</svg>
