<svg xmlns="http://www.w3.org/2000/svg" viewBox="0 0 100 100"><defs><style>.cls-1{fill:#fff;}.cls-2{fill:#181ea9;}</style></defs><g id="Layer_2" data-name="Layer 2"><g id="Layer_1-2" data-name="Layer 1"><circle class="cls-1" cx="50" cy="50" r="49.66"/><g id="Layer_1-3" data-name="Layer_1"><path class="cls-2" d="M50,0a50,50,0,1,0,50,50A50.07,50.07,0,0,0,50,0Zm0,97.16A47.16,47.16,0,1,1,97.16,50,47.22,47.22,0,0,1,50,97.16Zm9.52-68.24-4.4,4.4a8.93,8.93,0,0,0-5.28-1.68,9.12,9.12,0,0,0-1.52,18.12V53a9.12,9.12,0,1,0,3,0V49.76a9.12,9.12,0,0,0,7.6-9,9.21,9.21,0,0,0-1.68-5.28l4.4-4.4ZM55.92,62a6.08,6.08,0,1,1-6.08-6.08A6.08,6.08,0,0,1,55.92,62ZM49.84,46.8a6.08,6.08,0,1,1,6.08-6.08A6.08,6.08,0,0,1,49.84,46.8Z"/></g></g></g></svg>