<svg width="100" height="100" viewBox="0 0 100 100" fill="none" xmlns="http://www.w3.org/2000/svg">
<g clip-path="url(#clip0_3904_275)">
<path d="M50 100C77.6142 100 100 77.6142 100 50C100 22.3858 77.6142 0 50 0C22.3858 0 0 22.3858 0 50C0 77.6142 22.3858 100 50 100Z" fill="white"/>
<path d="M57.5125 16.3766C50.9774 16.3767 44.7099 18.9728 40.0888 23.5939C35.4677 28.2149 32.8716 34.4824 32.8716 41.0176H32.8721C32.8723 41.0348 32.8712 41.0516 32.8721 41.0691L32.8741 41.1076C32.8917 41.4172 33.0272 41.7083 33.2528 41.921C33.4784 42.1337 33.777 42.252 34.0871 42.2513H80.9381C81.2482 42.252 81.5467 42.1337 81.7723 41.921C81.9979 41.7083 82.1335 41.4172 82.1511 41.1076L82.1531 41.0691C82.154 41.0516 82.1529 41.0348 82.1531 41.0176H82.1535C82.1535 34.4824 79.5574 28.2149 74.9363 23.5939C70.3152 18.9728 64.0477 16.3767 57.5125 16.3766" fill="#53CBC8"/>
<path d="M16.5602 68.5297C16.5601 68.8263 16.4722 69.1162 16.3074 69.3628C16.1426 69.6094 15.9084 69.8015 15.6344 69.915C15.3604 70.0285 15.0589 70.0582 14.768 70.0003C14.4771 69.9425 14.2099 69.7996 14.0002 69.5899C13.7905 69.3802 13.6477 69.113 13.5899 68.8221C13.532 68.5313 13.5617 68.2298 13.6752 67.9558C13.7887 67.6818 13.9808 67.4476 14.2274 67.2828C14.474 67.118 14.7639 67.03 15.0605 67.03C15.2574 67.03 15.4525 67.0688 15.6344 67.1442C15.8164 67.2195 15.9817 67.33 16.1209 67.4693C16.2602 67.6085 16.3707 67.7739 16.446 67.9558C16.5214 68.1378 16.5602 68.3328 16.5602 68.5297" fill="#E1147B"/>
<path d="M79.3091 60.2328H29.037C28.7813 60.233 28.5301 60.2996 28.3078 60.426C28.0856 60.5523 27.8999 60.7342 27.769 60.9538C27.6381 61.1734 27.5664 61.4232 27.5609 61.6788C27.5554 61.9345 27.6163 62.1871 27.7377 62.4121L27.7627 62.4588C27.8893 62.6929 28.077 62.8884 28.3057 63.0245C28.5345 63.1606 28.7958 63.2322 29.062 63.2319H79.2837C79.5499 63.2322 79.8113 63.1606 80.0401 63.0245C80.2688 62.8884 80.4565 62.6929 80.5833 62.4588L80.6084 62.4121C80.7297 62.1871 80.7905 61.9345 80.785 61.6789C80.7795 61.4233 80.7077 61.1736 80.5768 60.954C80.4459 60.7344 80.2603 60.5525 80.0381 60.4261C79.8159 60.2997 79.5647 60.2331 79.3091 60.2328" fill="#E1147B"/>
<path d="M85.9897 46.6385H29.0352C28.8342 46.639 28.6354 46.6804 28.4509 46.7602C28.2665 46.8399 28.1002 46.9565 27.9623 47.1026C27.8243 47.2488 27.7176 47.4215 27.6486 47.6103C27.5796 47.799 27.5497 47.9998 27.5609 48.2005L27.5636 48.2474C27.5849 48.6237 27.7496 48.9775 28.0239 49.2361C28.2981 49.4947 28.661 49.6384 29.0379 49.6376H85.987C86.3639 49.6383 86.7267 49.4946 87.0009 49.2361C87.2751 48.9775 87.4399 48.6237 87.4612 48.2474L87.4637 48.2005C87.4749 47.9999 87.4451 47.799 87.3761 47.6103C87.3071 47.4215 87.2004 47.2488 87.0625 47.1027C86.9246 46.9565 86.7583 46.84 86.5739 46.7602C86.3894 46.6804 86.1907 46.639 85.9897 46.6385" fill="#E1147B"/>
<path d="M64.5434 80.6243H38.8767C38.544 80.6246 38.2211 80.7372 37.9604 80.9439C37.6996 81.1506 37.5163 81.4392 37.4401 81.7631C37.3639 82.087 37.3993 82.4271 37.5406 82.7284C37.6818 83.0297 37.9206 83.2744 38.2183 83.423L38.3121 83.4702C38.5168 83.5716 38.7422 83.624 38.9706 83.6233H64.4494C64.6778 83.624 64.9033 83.5716 65.108 83.4702L65.2017 83.423C65.4994 83.2744 65.7383 83.0297 65.8795 82.7284C66.0207 82.4272 66.0561 82.087 65.9799 81.7632C65.9037 81.4393 65.7204 81.1506 65.4597 80.9439C65.199 80.7372 64.8761 80.6246 64.5434 80.6243" fill="#E1147B"/>
<path d="M80.2262 73.8271H54.5594C54.2267 73.8274 53.9038 73.94 53.643 74.1467C53.3823 74.3534 53.1989 74.6421 53.1227 74.966C53.0466 75.2899 53.0819 75.63 53.2232 75.9313C53.3645 76.2326 53.6033 76.4773 53.901 76.6259L53.9948 76.673C54.1995 76.7744 54.425 76.8269 54.6534 76.8261H80.132C80.3604 76.8268 80.5859 76.7744 80.7906 76.673L80.8842 76.6259C81.1819 76.4773 81.4207 76.2326 81.562 75.9314C81.7033 75.6301 81.7387 75.29 81.6625 74.9661C81.5863 74.6422 81.4031 74.3535 81.1424 74.1468C80.8816 73.9401 80.5588 73.8275 80.2261 73.8271" fill="#E1147B"/>
<path d="M45.2276 69.5573L45.1838 69.5108C44.9883 69.3002 44.8585 69.037 44.8104 68.7537C44.7623 68.4703 44.7979 68.1791 44.9129 67.9157C45.0279 67.6523 45.2173 67.4282 45.4578 67.2709C45.6983 67.1135 45.9795 67.0298 46.2669 67.03H87.9248C88.2122 67.0298 88.4934 67.1135 88.734 67.2708C88.9745 67.4282 89.1639 67.6523 89.2789 67.9157C89.3939 68.1791 89.4295 68.4703 89.3814 68.7537C89.3332 69.037 89.2034 69.3002 89.0079 69.5108L88.9644 69.5573C88.8257 69.7057 88.6581 69.8242 88.4718 69.9053C88.2856 69.9865 88.0847 70.0286 87.8815 70.0292H46.3105C46.1073 70.0287 45.9064 69.9865 45.7201 69.9054C45.5339 69.8242 45.3663 69.7057 45.2276 69.5573" fill="#E1147B"/>
<path d="M20.4163 67.03H40.3089C40.6417 67.0303 40.9646 67.1429 41.2253 67.3496C41.4861 67.5563 41.6694 67.845 41.7456 68.1689C41.8218 68.4928 41.7864 68.8329 41.6452 69.1342C41.5039 69.4354 41.2651 69.6802 40.9673 69.8288L40.8736 69.8757C40.669 69.9772 40.4436 70.0298 40.2152 70.0291H20.5103C20.2818 70.0298 20.0563 69.9772 19.8517 69.8757L19.758 69.8288C19.4603 69.6802 19.2214 69.4355 19.0802 69.1342C18.9389 68.833 18.9035 68.4929 18.9797 68.169C19.0558 67.8451 19.2391 67.5564 19.4998 67.3497C19.7605 67.143 20.0834 67.0303 20.4161 67.03" fill="#E1147B"/>
<path d="M25.1798 48.138C25.1798 48.4346 25.0919 48.7245 24.9271 48.9711C24.7624 49.2177 24.5282 49.41 24.2542 49.5235C23.9802 49.637 23.6787 49.6667 23.3878 49.6089C23.0969 49.551 22.8297 49.4082 22.62 49.1985C22.4102 48.9888 22.2674 48.7216 22.2095 48.4308C22.1516 48.1399 22.1813 47.8384 22.2948 47.5643C22.4083 47.2903 22.6004 47.0561 22.847 46.8913C23.0936 46.7265 23.3835 46.6386 23.6801 46.6385C23.8771 46.6385 24.0721 46.6773 24.254 46.7526C24.4359 46.828 24.6013 46.9384 24.7405 47.0777C24.8798 47.2169 24.9903 47.3822 25.0656 47.5641C25.141 47.7461 25.1798 47.9411 25.1798 48.138" fill="#E1147B"/>
<path d="M60.5284 55.3402L60.5411 55.2935C60.5997 55.0748 60.6072 54.8454 60.5629 54.6233C60.5187 54.4012 60.4239 54.1922 60.286 54.0126C60.148 53.833 59.9706 53.6875 59.7674 53.5875C59.5642 53.4875 59.3407 53.4356 59.1142 53.4358H17.4509C17.2244 53.4355 17.0009 53.4874 16.7976 53.5874C16.5944 53.6874 16.417 53.8329 16.279 54.0125C16.141 54.1922 16.0462 54.4011 16.002 54.6233C15.9578 54.8454 15.9653 55.0748 16.024 55.2935L16.0367 55.3402C16.1213 55.654 16.3069 55.9312 16.5647 56.129C16.8226 56.3269 17.1384 56.4343 17.4634 56.4349H59.1017C59.4267 56.4343 59.7425 56.3268 60.0003 56.129C60.2581 55.9312 60.4437 55.654 60.5284 55.3402" fill="#E1147B"/>
<path d="M13.5929 54.9351C13.5929 55.2317 13.505 55.5216 13.3402 55.7682C13.1755 56.0149 12.9413 56.2071 12.6673 56.3206C12.3933 56.4341 12.0918 56.4638 11.8009 56.406C11.51 56.3482 11.2428 56.2054 11.033 55.9957C10.8233 55.786 10.6805 55.5188 10.6226 55.2279C10.5647 54.937 10.5944 54.6355 10.7079 54.3615C10.8213 54.0874 11.0135 53.8532 11.2601 53.6884C11.5067 53.5237 11.7966 53.4357 12.0932 53.4357C12.4909 53.4357 12.8723 53.5936 13.1536 53.8748C13.4348 54.156 13.5928 54.5374 13.5929 54.9351" fill="#E1147B"/>
<path d="M25.1798 61.7322C25.1798 62.0288 25.0919 62.3187 24.9271 62.5654C24.7624 62.812 24.5282 63.0042 24.2542 63.1177C23.9802 63.2312 23.6787 63.261 23.3878 63.2031C23.0969 63.1453 22.8297 63.0025 22.62 62.7928C22.4102 62.5831 22.2674 62.3159 22.2095 62.025C22.1516 61.7341 22.1813 61.4326 22.2948 61.1586C22.4083 60.8846 22.6004 60.6504 22.847 60.4856C23.0936 60.3208 23.3835 60.2328 23.6801 60.2328C24.0778 60.2328 24.4592 60.3908 24.7405 60.6719C25.0217 60.9531 25.1797 61.3345 25.1798 61.7322" fill="#E1147B"/>
<path d="M50.7027 75.3268C50.7027 75.6234 50.6148 75.9133 50.45 76.1599C50.2852 76.4065 50.051 76.5987 49.777 76.7121C49.503 76.8256 49.2015 76.8553 48.9106 76.7975C48.6197 76.7396 48.3525 76.5968 48.1428 76.3871C47.9331 76.1774 47.7903 75.9102 47.7324 75.6193C47.6746 75.3284 47.7043 75.0269 47.8177 74.7529C47.9312 74.4789 48.1234 74.2447 48.37 74.0799C48.6166 73.9151 48.9065 73.8272 49.2031 73.8271C49.4 73.8271 49.595 73.8659 49.777 73.9413C49.959 74.0166 50.1243 74.1271 50.2636 74.2663C50.4028 74.4056 50.5133 74.5709 50.5886 74.7529C50.664 74.9348 50.7028 75.1299 50.7027 75.3268" fill="#E1147B"/>
<path d="M35.0201 82.1239C35.0201 82.4205 34.9321 82.7104 34.7674 82.957C34.6026 83.2036 34.3684 83.3958 34.0944 83.5093C33.8204 83.6227 33.5189 83.6524 33.228 83.5946C32.9371 83.5367 32.6699 83.3939 32.4602 83.1842C32.2505 82.9745 32.1077 82.7073 32.0498 82.4164C31.992 82.1255 32.0216 81.824 32.1351 81.55C32.2486 81.276 32.4408 81.0418 32.6874 80.877C32.934 80.7122 33.2239 80.6243 33.5205 80.6243C33.7174 80.6242 33.9124 80.663 34.0944 80.7384C34.2763 80.8137 34.4417 80.9242 34.5809 81.0635C34.7202 81.2027 34.8307 81.368 34.906 81.55C34.9814 81.732 35.0201 81.927 35.0201 82.1239" fill="#E1147B"/>
</g>
<defs>
<clipPath id="clip0_3904_275">
<rect width="100" height="100" fill="white"/>
</clipPath>
</defs>
</svg>
