<svg width="512" height="512" viewBox="0 0 512 512" fill="none" xmlns="http://www.w3.org/2000/svg">
<path d="M256 512C397.385 512 512 397.385 512 256C512 114.615 397.385 0 256 0C114.615 0 0 114.615 0 256C0 397.385 114.615 512 256 512Z" fill="#6747ED"/>
<path fill-rule="evenodd" clip-rule="evenodd" d="M252.267 289.067C214.401 289.067 184.001 258.667 184.001 220.8C184.001 182.934 214.401 152.534 252.267 152.534C290.134 152.534 320.534 182.934 320.534 220.8C320.534 258.667 290.134 289.067 252.267 289.067ZM252.267 118.4C308.801 118.4 354.667 164.267 354.667 220.8C354.667 277.334 308.801 323.2 252.267 323.2C195.734 323.2 149.867 277.334 149.867 220.8C149.867 164.267 195.734 118.4 252.267 118.4ZM349.867 328.534C356.801 335.467 356.801 346.134 349.867 352.534L281.601 420.8C274.667 427.734 264.001 427.734 257.601 420.8C250.667 413.867 250.667 403.2 257.601 396.8L325.867 328.534C332.267 321.6 343.467 321.6 349.867 328.534ZM389.334 135.467C389.334 145.067 381.867 152.534 372.267 152.534C362.667 152.534 355.201 145.067 355.201 135.467C355.201 125.867 362.667 118.4 372.267 118.4C381.334 118.4 389.334 125.867 389.334 135.467Z" fill="white"/>
</svg>
