<svg width="512" height="512" viewBox="0 0 512 512" fill="none" xmlns="http://www.w3.org/2000/svg">
<path d="M256 512C397.385 512 512 397.385 512 256C512 114.615 397.385 0 256 0C114.615 0 0 114.615 0 256C0 397.385 114.615 512 256 512Z" fill="#7F27FF"/>
<path d="M246.016 223.999H128.32V339.551C128.192 351.375 132.928 362.751 141.44 371.103C149.952 379.455 161.552 384.111 173.6 383.999H246.032L246.016 223.999ZM248.736 163.535H261.408C273.952 141.935 285.44 127.247 296.24 119.311C309.552 109.503 323.184 109.423 333.872 119.919C343.856 129.711 345.728 141.999 339.152 153.839C337.296 157.135 334.832 160.367 331.744 163.535H378.272C389.136 163.535 400 172.463 400 184.863C400 195.535 390.896 206.207 378.272 206.207H264.128V177.759H246.016V206.207H133.728C122.88 206.207 112 197.279 112 184.863C112 174.207 121.104 163.535 133.728 163.535H180.768C177.825 160.793 175.205 157.722 172.96 154.383C165.168 142.479 166.112 129.903 176.272 119.919C186.96 109.423 200.592 109.519 213.92 119.311C224.704 127.247 236.192 141.951 248.752 163.535H248.736ZM227.696 163.535C218.416 148.767 210.128 138.735 203.056 133.535C196.512 128.735 192.928 128.703 189.072 132.479C185.12 136.367 184.88 139.695 188.192 144.751C191.968 150.527 199.92 157.039 211.376 163.535H227.696ZM282.448 163.535H301.968C312.896 157.263 320.112 150.927 323.248 145.295C325.968 140.431 325.392 136.735 321.072 132.495C317.216 128.703 313.632 128.719 307.104 133.535C300.016 138.735 291.712 148.767 282.464 163.535H282.448ZM264.128 223.983H381.84V339.551C381.89 345.423 380.754 351.244 378.5 356.666C376.245 362.088 372.919 366.999 368.72 371.103C360.134 379.496 348.566 384.134 336.56 383.999H264.128V223.983Z" fill="white"/>
</svg>
