<svg width="512" height="512" viewBox="0 0 512 512" fill="none" xmlns="http://www.w3.org/2000/svg">
<path d="M256 512C397.385 512 512 397.385 512 256C512 114.615 397.385 0 256 0C114.615 0 0 114.615 0 256C0 397.385 114.615 512 256 512Z" fill="white"/>
<path d="M330.202 275.359C330.456 275.381 330.7 275.464 330.915 275.6C331.13 275.737 331.308 275.923 331.435 276.143C331.563 276.363 331.635 276.61 331.646 276.864C331.657 277.118 331.606 277.371 331.498 277.601L257.619 405.257C257.481 405.478 257.29 405.662 257.064 405.791C256.838 405.921 256.583 405.992 256.323 406H211.157C210.895 406 210.637 405.931 210.41 405.799C210.182 405.668 209.994 405.479 209.864 405.251C209.734 405.023 209.667 404.765 209.669 404.502C209.671 404.24 209.743 403.983 209.877 403.757L283.757 276.101C283.887 275.877 284.073 275.69 284.298 275.56C284.522 275.43 284.777 275.36 285.037 275.359H330.202ZM286.285 238.776C286.025 238.768 285.77 238.697 285.544 238.567C285.318 238.438 285.128 238.254 284.99 238.034L209.877 108.246C209.743 108.02 209.671 107.763 209.669 107.501C209.667 107.239 209.734 106.981 209.864 106.753C209.994 106.525 210.182 106.336 210.41 106.204C210.637 106.072 210.895 106.003 211.157 106.004H256.323C256.583 106.011 256.838 106.083 257.064 106.212C257.29 106.342 257.481 106.525 257.619 106.746L332.731 236.534C332.865 236.759 332.937 237.016 332.939 237.278C332.941 237.541 332.874 237.799 332.744 238.027C332.614 238.255 332.426 238.444 332.199 238.576C331.971 238.707 331.713 238.776 331.451 238.776H286.285Z" fill="#E31337"/>
<path d="M295.213 108.247C295.074 108.015 295.002 107.749 295.003 107.478C295.005 107.207 295.08 106.942 295.222 106.711C295.364 106.48 295.566 106.292 295.807 106.168C296.048 106.043 296.318 105.987 296.588 106.005H341.817C342.077 106.005 342.332 106.073 342.557 106.204C342.782 106.334 342.968 106.522 343.097 106.747L429.208 255.261C429.34 255.486 429.41 255.742 429.41 256.003C429.41 256.264 429.34 256.52 429.208 256.745L343.097 405.259C342.968 405.485 342.782 405.672 342.557 405.803C342.332 405.933 342.077 406.001 341.817 406.001H296.588C296.324 406.004 296.064 405.937 295.835 405.807C295.606 405.676 295.415 405.487 295.283 405.259C295.151 405.031 295.083 404.771 295.084 404.508C295.086 404.244 295.158 403.986 295.292 403.759L380.882 256.003L295.213 108.247ZM258.455 255.245C258.594 255.485 258.667 255.758 258.667 256.035C258.667 256.312 258.594 256.584 258.455 256.824L171.949 405.259C171.804 405.47 171.609 405.644 171.382 405.763C171.155 405.883 170.902 405.945 170.645 405.945C170.388 405.945 170.135 405.883 169.908 405.763C169.681 405.644 169.486 405.47 169.341 405.259L81.8709 256.761C81.7322 256.521 81.6592 256.249 81.6592 255.972C81.6592 255.694 81.7322 255.422 81.8709 255.182L168.377 106.747C168.522 106.536 168.717 106.363 168.944 106.243C169.171 106.123 169.424 106.061 169.681 106.061C169.938 106.061 170.191 106.123 170.418 106.243C170.645 106.363 170.84 106.536 170.985 106.747L258.455 255.245Z" fill="#E31337"/>
</svg>
