<svg width="512" height="512" viewBox="0 0 512 512" fill="none" xmlns="http://www.w3.org/2000/svg">
<path d="M324.178 133.173C339.034 118.317 363.44 118.317 378.296 133.173C393.152 148.029 393.152 172.435 378.296 187.291C369.542 196.046 357.869 199.76 345.932 198.168C345.401 198.168 344.87 198.168 344.075 198.168C340.626 197.637 336.912 198.168 333.198 199.76C328.158 202.147 324.709 206.126 322.852 210.902C320.995 215.677 321.26 220.982 323.382 225.758C336.116 253.347 330.28 286.773 308.526 308.261C286.773 330.014 253.612 335.851 226.023 323.117C220.982 320.73 215.677 320.73 210.902 322.587C206.126 324.444 202.147 327.892 200.025 332.667C198.698 335.851 197.903 339.034 198.168 342.483C198.168 343.013 198.168 343.809 198.168 344.34C200.29 356.543 196.046 369.011 187.556 377.766C172.701 392.622 148.294 392.622 133.438 377.766C126.276 370.603 122.296 361.053 122.296 350.707C122.296 340.626 126.276 330.81 133.438 323.648C142.193 314.893 153.865 311.179 165.803 312.771C166.068 312.771 166.068 312.771 166.334 312.771C167.66 313.036 168.987 313.302 170.313 313.302C173.231 313.302 175.884 312.771 178.537 311.445C183.577 309.057 187.026 305.078 188.618 300.568C190.475 295.793 190.475 290.222 188.087 285.181C175.353 257.326 181.19 224.166 202.943 202.678C224.696 180.924 257.857 175.088 285.447 187.822C290.222 190.209 295.793 190.209 300.568 188.352C305.343 186.495 309.322 183.047 311.71 178.271C313.567 174.557 313.832 170.313 313.302 166.334C311.445 154.396 315.424 141.927 324.178 133.173ZM286.242 285.977C302.69 269.53 302.69 242.736 286.242 226.023C269.795 209.575 243.001 209.575 226.288 226.023C209.84 242.47 209.84 269.264 226.288 285.977C243.001 302.425 269.795 302.425 286.242 285.977ZM256 0C397.397 0 512 114.603 512 256C512 397.397 397.397 512 256 512C114.603 512 0 397.397 0 256C0 114.603 114.603 0 256 0ZM392.356 201.617C414.906 179.067 414.906 142.458 392.356 119.644C369.807 97.0943 333.198 97.0943 310.383 119.644C301.894 128.133 296.854 138.479 294.466 149.09C253.347 133.704 206.392 143.519 175.088 174.823C143.784 206.126 133.969 253.347 149.621 294.466C138.744 296.589 128.398 301.894 119.909 310.383C97.3596 332.933 97.3596 369.542 119.909 392.356C142.458 414.906 179.067 414.906 201.882 392.356C210.371 383.867 215.677 373.256 217.799 362.379C230.533 367.154 243.797 369.542 257.061 369.542C286.508 369.542 315.424 358.135 336.912 336.647C368.216 305.343 378.031 258.653 362.91 217.799C373.521 215.146 383.867 209.84 392.356 201.617Z" fill="#38A2FF"/>
</svg>
