<svg width="512" height="512" viewBox="0 0 512 512" fill="none" xmlns="http://www.w3.org/2000/svg">
<circle cx="256" cy="256" r="256" fill="#8834FF"/>
<path d="M81.3164 123.437C75.7339 123.876 71.4372 124.753 71.6786 125.412C73.9054 130.708 87.6737 161.892 87.8619 162.08C88.0501 162.268 91.2491 162.488 95.0126 162.645C111.698 163.271 124.901 166.531 139.171 173.583C149.427 178.628 157.017 184.05 164.92 191.917C176.556 203.513 184.146 216.394 188.599 232.159C189.101 233.976 189.509 235.606 189.509 235.857C189.509 236.202 186.968 236.264 175.741 236.264C168.151 236.264 161.627 236.39 161.22 236.546C160.624 236.766 159.056 240.151 152.532 255.1C148.141 265.161 144.503 273.623 144.44 273.905C144.221 274.72 146.855 275.44 153.442 276.412C154.79 276.631 162.882 276.851 172.447 276.976L189.101 277.164L188.098 280.612C176.87 318.659 142.026 345.268 99.3407 348.465C96.9257 348.621 93.7581 348.778 92.284 348.778H89.6182L81.4011 367.677C74.3445 383.817 73.2468 386.575 73.7172 386.732C75.8499 387.515 80.6171 387.797 91.6568 387.797C105.77 387.797 112.639 387.171 124.274 384.789C171.789 375.042 211.275 344.829 229.152 304.462C232.601 296.689 236.647 283.902 237.369 278.543L237.588 277.007H273.248L273.373 277.697C275.945 290.296 278.736 298.789 283.566 308.818C298.087 339.031 325.31 363.696 359.025 377.235C379.498 385.429 401.429 389.364 423.476 388.8C432.696 388.518 440.035 387.484 439.659 386.512C439.345 385.698 423.727 349.875 423.633 349.781C423.538 349.687 420.308 349.562 416.388 349.405C405.379 348.966 397.1 347.681 387.753 345.017C373.358 340.88 359.119 333.39 348.205 324.238C334.468 312.673 324.526 298.288 319.257 282.335C318.661 280.518 318.065 278.606 317.971 278.042L317.752 277.039L331.175 276.945C338.545 276.882 344.818 276.725 345.069 276.6C345.476 276.381 361.534 239.994 361.534 239.273C361.534 238.803 357.488 237.612 353.819 237.016C351.122 236.578 347.703 236.452 334.06 236.358L317.532 236.202L318.159 233.976C327.317 201.57 355.418 175.839 391.642 166.719C399.64 164.713 407.418 163.679 417.517 163.271C423.538 163.021 424.291 162.927 424.668 162.425C424.918 162.08 428.619 153.775 432.885 143.965C438.122 131.962 440.537 126.038 440.318 125.882C439.628 125.506 435.237 124.722 431.787 124.377C426.769 123.845 412.122 123.939 405.662 124.503C368.716 127.794 335.409 142.68 310.444 167.001C295.202 181.857 284.507 198.53 277.921 217.773C276.227 222.631 274.189 230.278 273.561 233.976L273.185 236.264H238.131L238.005 235.543C237.911 235.167 237.566 233.381 237.19 231.563C232.015 205.864 217.4 180.885 196.763 162.488C173.272 141.521 143.979 128.389 111.738 124.399C102.047 123.218 89.5555 122.81 81.3164 123.437Z" fill="#F9FBFD"/>
</svg>
