<svg id="e1e12e9c-3c68-4cac-9bf9-2fbf78d13574" data-name="Layer 1" xmlns="http://www.w3.org/2000/svg" xmlns:xlink="http://www.w3.org/1999/xlink" viewBox="0 0 512 512"><defs><style>.aa86ac8f-412b-4df0-a90d-00a42b2a3a9b{fill:none;}.b68c76b4-8d09-4fc0-a5e9-df47cce1a70d{fill:url(#a3c11532-a712-44ce-81d9-82fe2e152bd4);}.f8c305c2-6624-4ab9-ba2f-cce6b016cb76{fill:url(#ba0c3af4-b46e-4ab8-b860-0930cd28016e);}.e2c987cd-dc8f-4b91-89a3-25b6db032974{fill:#29abe2;}</style><linearGradient id="a3c11532-a712-44ce-81d9-82fe2e152bd4" x1="322.91" y1="362.94" x2="491.98" y2="187.87" gradientTransform="matrix(1, 0, 0, -1, 0, 514)" gradientUnits="userSpaceOnUse"><stop offset="0.21" stop-color="#f15a24"/><stop offset="0.68" stop-color="#fbb03b"/></linearGradient><linearGradient id="ba0c3af4-b46e-4ab8-b860-0930cd28016e" x1="-699.67" y1="1557.56" x2="-530.6" y2="1382.48" gradientTransform="matrix(-1, 0, 0, 1, -510.58, -1196.62)" gradientUnits="userSpaceOnUse"><stop offset="0.21" stop-color="#ed1e79"/><stop offset="0.89" stop-color="#522785"/></linearGradient></defs><path class="aa86ac8f-412b-4df0-a90d-00a42b2a3a9b" d="M462.21,256c0-40.08-33.45-72.69-74.57-72.69-10.9,0-30,5.39-59.36,31.08-15.76,13.82-29.48,29.22-39,40.49,16,16.93,33.3,34.87,41.16,41.68,3.23,2.79,24.56,20.27,49.85,31.23a33.82,33.82,0,0,0,7.26.89C428.74,328.44,462.21,295.86,462.21,256Z"/><path class="aa86ac8f-412b-4df0-a90d-00a42b2a3a9b" d="M329.68,297.37c24.19,21,40.64,28.21,50.64,30.43a33.82,33.82,0,0,0,7.26.89c41.15-.25,74.62-32.83,74.62-72.69,0-40.08-33.45-72.69-74.57-72.69-10.9,0-30,5.39-59.36,31.08-15.76,13.82-29.48,29.22-39,40.49C289.07,255.16,313.15,283.05,329.68,297.37Z"/><path class="b68c76b4-8d09-4fc0-a5e9-df47cce1a70d" d="M387.64,135.12c-28.59,0-59.8,14.65-92.78,43.55a412.14,412.14,0,0,0-39.31,40.09l0,.06,0,0s16,17.44,33.67,36.12c9.49-11.28,23.2-26.68,39-40.49,29.32-25.7,48.46-31.08,59.36-31.08,41.12,0,74.57,32.61,74.57,72.69,0,39.86-33.47,72.44-74.62,72.69a33.75,33.75,0,0,1-7.26-.89c12,5.19,24.88,8.92,37.16,8.92,75.36,0,90.09-49.18,91.1-52.66A116.59,116.59,0,0,0,512,256C512,189.34,456.21,135.12,387.64,135.12Z"/><path class="aa86ac8f-412b-4df0-a90d-00a42b2a3a9b" d="M49.79,256c0,40.08,33.45,72.69,74.57,72.69,10.9,0,30-5.39,59.36-31.08,15.76-13.82,29.48-29.22,39-40.49-16-16.93-33.3-34.87-41.16-41.68-3.23-2.79-24.56-20.27-49.85-31.23a33.82,33.82,0,0,0-7.26-.89C83.26,183.56,49.79,216.14,49.79,256Z"/><path class="aa86ac8f-412b-4df0-a90d-00a42b2a3a9b" d="M182.32,214.63c-24.19-21-40.64-28.21-50.64-30.43a33.82,33.82,0,0,0-7.26-.89C83.27,183.56,49.8,216.14,49.8,256c0,40.08,33.45,72.69,74.57,72.69,10.9,0,30-5.39,59.36-31.08,15.76-13.82,29.48-29.22,39-40.49l.7-.82C213.44,244.9,198.85,229,182.32,214.63Z"/><path class="f8c305c2-6624-4ab9-ba2f-cce6b016cb76" d="M124.36,376.88c28.59,0,59.8-14.65,92.78-43.55a412.14,412.14,0,0,0,39.31-40.09l-.05-.06,0,.05s-16-17.44-33.67-36.12c-9.49,11.28-23.2,26.68-39,40.49-29.32,25.7-48.46,31.08-59.36,31.08-41.12,0-74.57-32.61-74.57-72.69,0-39.86,33.47-72.44,74.62-72.69a33.75,33.75,0,0,1,7.26.89c-12-5.19-24.88-8.92-37.16-8.92-75.36,0-90.09,49.18-91.1,52.66A116.59,116.59,0,0,0,0,256C0,322.66,55.79,376.88,124.36,376.88Z"/><path class="e2c987cd-dc8f-4b91-89a3-25b6db032974" d="M417.35,335.51c-38.59-.95-78.7-31.38-86.88-38.94C309.33,277,260.55,224.1,256.72,220c-35.76-40-84.21-84.83-132.36-84.83h-.12C65.7,135.41,16.51,175,3.43,228c1-3.49,20.23-53.6,91-51.86,38.58.95,78.88,31.79,87.06,39.35,21.14,19.55,69.94,72.48,73.75,76.63,35.76,40,84.21,84.81,132.36,84.81h.12c58.54-.29,107.73-39.92,120.81-92.83C507.57,287.54,488.15,337.25,417.35,335.51Z"/></svg>