<svg width="100" height="100" viewBox="0 0 100 100" fill="none" xmlns="http://www.w3.org/2000/svg">
<path d="M49.9998 95.72C75.2503 95.72 95.7198 75.2505 95.7198 50C95.7198 24.7496 75.2503 4.28003 49.9998 4.28003C24.7493 4.28003 4.27979 24.7496 4.27979 50C4.27979 75.2505 24.7493 95.72 49.9998 95.72Z" fill="url(#paint0_linear_3904_266)"/>
<path d="M50 100C36.2 100 23.68 94.4 14.64 85.36C5.6 76.32 0 63.8 0 50C0 36.2 5.6 23.68 14.64 14.64C23.68 5.6 36.2 0 50 0C63.8 0 76.32 5.6 85.36 14.64C94.4 23.68 100 36.2 100 50C100 63.8 94.4 76.32 85.36 85.36C76.32 94.4 63.8 100 50 100ZM17.2 82.8C25.6 91.2 37.2 96.4 50 96.4C62.8 96.4 74.4 91.2 82.8 82.8C91.2 74.4 96.4 62.8 96.4 50C96.4 37.2 91.2 25.6 82.8 17.2C74.4 8.8 62.8 3.6 50 3.6C37.2 3.6 25.6 8.8 17.2 17.2C8.8 25.6 3.6 37.2 3.6 50C3.6 62.8 8.8 74.4 17.2 82.8Z" fill="url(#paint1_linear_3904_266)"/>
<path d="M50 98.52C36.6 98.52 24.48 93.08 15.68 84.32C6.91998 75.56 1.47998 63.4 1.47998 50C1.47998 36.6 6.91998 24.48 15.68 15.68C24.48 6.87998 36.6 1.47998 50 1.47998C63.4 1.47998 75.52 6.91998 84.32 15.68C93.12 24.48 98.52 36.6 98.52 50C98.52 63.4 93.08 75.52 84.32 84.32C75.52 93.12 63.4 98.52 50 98.52ZM18.16 81.84C26.32 90 37.56 95.04 50 95.04C62.44 95.04 73.68 90 81.84 81.84C90 73.68 95.04 62.44 95.04 50C95.04 37.56 90 26.32 81.84 18.16C73.68 9.99998 62.44 4.95998 50 4.95998C37.56 4.95998 26.32 9.99998 18.16 18.16C9.99998 26.32 4.95998 37.56 4.95998 50C4.95998 62.44 9.99998 73.68 18.16 81.84Z" fill="url(#paint2_linear_3904_266)"/>
<path d="M50.0002 26.9601C49.6402 37.2001 49.6402 48.2001 50.0002 58.4401C50.3202 48.1601 50.3202 37.2001 50.0002 26.9601ZM38.6802 81.0401L38.7202 81.1201C38.8402 81.0801 38.9202 81.0401 39.0402 80.9601C41.0402 79.8401 43.2402 79.0401 45.4002 78.2801C48.1602 77.3601 51.0402 77.2801 53.8402 78.0401C56.2802 78.7201 58.6402 79.6401 60.8802 80.8001C61.0402 80.8801 61.1602 81.0401 61.3202 81.0001C61.2802 80.9601 61.2802 80.9201 61.2402 80.8801C57.7202 78.1601 54.2002 75.4801 50.6802 72.7601C50.2002 72.3601 49.7602 72.4001 49.3202 72.8001C45.8002 75.6001 42.2402 78.3201 38.7202 81.0001L38.6802 81.0401ZM36.6002 42.2801C36.3602 42.6001 36.4802 42.8001 36.7202 43.0401C37.5602 43.9601 38.0802 45.0001 38.4402 46.2001C38.8402 47.6401 39.0402 49.1201 39.1202 50.6001C39.2402 52.8801 39.2002 55.2001 39.1602 57.4801C39.1202 60.5201 39.0802 63.6001 39.1202 66.6401C39.1602 70.0401 38.6802 73.2801 37.6002 76.4801C37.2002 77.7201 36.7602 79.0001 36.1602 80.2801C36.2402 80.2401 36.3602 80.2001 36.4402 80.1601C39.5202 77.6801 42.5602 75.1601 45.8002 72.8801C46.2002 72.5601 46.2002 72.2001 45.9602 71.8001C45.6802 71.4001 45.4402 71.0401 45.1202 70.6801C44.2802 69.6401 43.9602 68.4801 43.9202 67.2001C43.8802 65.4801 43.8402 63.8001 43.8402 62.1201C43.7602 55.8401 43.8002 49.5601 43.7202 43.2801C43.6002 35.2001 43.6002 27.2001 43.5602 19.1201V18.8401H43.4402C43.0802 22.0401 42.7202 25.2401 42.1202 28.4001C41.1602 33.3601 39.7602 38.0801 36.6402 42.2001L36.6002 42.2801ZM56.4002 33.4801C56.2802 40.6801 56.4002 47.8801 56.2802 55.0801C56.2002 58.8001 56.2402 62.5601 56.2402 66.3201C56.2402 68.2401 55.8402 69.9601 54.4802 71.3601C54.3602 71.5201 54.2402 71.6801 54.1202 71.8001C53.8002 72.2401 53.8802 72.6001 54.3602 72.9201C57.4402 75.1201 60.4002 77.5201 63.3202 79.9201C63.4802 80.0401 63.6002 80.2001 63.8402 80.2001C62.8402 78.0001 62.2002 75.7201 61.6402 73.4401C61.4002 72.5601 61.2402 71.6401 61.1602 70.7201C60.9602 68.4801 61.0002 66.2401 60.9602 63.9601C60.8802 60.1201 60.9202 56.2401 60.9202 52.3601C60.9202 51.0401 61.0002 49.7201 61.1602 48.4001C61.4002 46.6401 61.8002 44.9201 62.9202 43.4801C63.6402 42.5201 63.6402 42.5201 62.9602 41.5601C60.5202 38.0801 59.2002 34.1601 58.2802 30.0401C57.4802 26.3601 57.0402 22.6401 56.6402 18.8401H56.4802C56.4002 23.7201 56.4002 28.5601 56.3602 33.4401L56.4002 33.4801Z" fill="white"/>
<defs>
<linearGradient id="paint0_linear_3904_266" x1="4.27979" y1="50" x2="95.7198" y2="50" gradientUnits="userSpaceOnUse">
<stop stop-color="#500586"/>
<stop offset="0.1216" stop-color="#50048B"/>
<stop offset="0.2706" stop-color="#430584"/>
<stop offset="0.4314" stop-color="#311085"/>
<stop offset="0.4902" stop-color="#29188B"/>
<stop offset="0.7412" stop-color="#403965"/>
<stop offset="0.8314" stop-color="#483956"/>
<stop offset="0.9098" stop-color="#2F3D5A"/>
<stop offset="1" stop-color="#2B444A"/>
</linearGradient>
<linearGradient id="paint1_linear_3904_266" x1="0" y1="50" x2="100" y2="50" gradientUnits="userSpaceOnUse">
<stop stop-color="#4C0B57"/>
<stop offset="0.1216" stop-color="#8E04AC"/>
<stop offset="0.2706" stop-color="#242F96"/>
<stop offset="0.4314" stop-color="#2C8D7E"/>
<stop offset="0.5412" stop-color="#5AB33E"/>
<stop offset="0.6392" stop-color="#91AD05"/>
<stop offset="0.7412" stop-color="#2A9D06"/>
<stop offset="0.8314" stop-color="#40A55F"/>
<stop offset="0.9098" stop-color="#6BAC80"/>
<stop offset="1" stop-color="#68B7A9"/>
</linearGradient>
<linearGradient id="paint2_linear_3904_266" x1="1.47998" y1="50" x2="98.52" y2="50" gradientUnits="userSpaceOnUse">
<stop stop-color="#670E78"/>
<stop offset="0.1216" stop-color="#C204EC"/>
<stop offset="0.2706" stop-color="#3140CD"/>
<stop offset="0.4314" stop-color="#3CC1AC"/>
<stop offset="0.5412" stop-color="#7BF555"/>
<stop offset="0.6392" stop-color="#C7ED06"/>
<stop offset="0.7412" stop-color="#3AD609"/>
<stop offset="0.8314" stop-color="#58E283"/>
<stop offset="0.9098" stop-color="#93ECAF"/>
<stop offset="1" stop-color="#8FFAE8"/>
</linearGradient>
</defs>
</svg>
