<svg width="100" height="100" viewBox="0 0 100 100" fill="none" xmlns="http://www.w3.org/2000/svg">
<circle cx="50" cy="50" r="50" fill="black"/>
<path d="M73.6168 26H79.6893L55.0663 54.1168C54.4424 54.8239 54.4008 55.9053 55.0247 56.654L69.2079 73.1664H62.8858L49.784 57.8602L49.1185 57.0283C48.4946 56.3212 48.5362 55.1982 49.1601 54.4912L73.6168 26Z" fill="white"/>
<path d="M59.9328 56.654C59.5169 56.1964 59.3921 55.531 59.5169 54.9487C59.6416 54.6159 59.8496 54.2832 60.0992 54.0336L61.7213 52.2451L79.8142 73.1664H74.0744C74.0744 73.1664 63.4682 60.7717 59.9328 56.654Z" fill="white"/>
<path d="M28.3221 73.1664H22L41.3823 50.7478C42.0062 50.0407 42.0062 48.9593 41.3823 48.2522L22.1664 26H28.2389L47.5796 48.4186C48.0788 49.0841 48.1619 50.0407 47.6212 50.6646C42.5469 56.5292 28.3221 73.1664 28.3221 73.1664Z" fill="white"/>
<path d="M38.887 26H33.064L50.9905 46.7549C50.9905 46.7549 51.0321 46.7133 53.0286 44.3425C53.5693 43.7186 53.6941 42.9283 53.0702 42.3044C49.3268 38.4779 38.887 26 38.887 26Z" fill="white"/>
<path d="M56.3559 40.4743L68.7922 26H62.886L56.3975 33.5699L54.5259 35.7743C53.902 36.4814 53.8604 37.5628 54.4843 38.3115C54.9418 38.8522 56.3559 40.4743 56.3559 40.4743Z" fill="white"/>
<path d="M45.5418 58.692L33.1055 73.1664H38.9701L45.4586 65.5964L47.3302 63.392C47.9541 62.6849 47.9957 61.6035 47.3718 60.8549C46.9143 60.3141 45.5418 58.692 45.5418 58.692Z" fill="white"/>
</svg>
