<svg width="103" height="29" viewBox="0 0 103 29" fill="none" xmlns="http://www.w3.org/2000/svg">
<path fill-rule="evenodd" clip-rule="evenodd" d="M58.1158 8.73209C55.2728 8.18344 52.3856 7.89781 50.3554 7.89781C43.1768 7.89781 40.5924 10.879 40.5924 16.0941V20.8132C40.5924 25.5395 42.3587 28.7612 50.8561 28.7612C53.1099 28.7612 55.8871 28.5575 58.6165 28.0161V23.7937C56.4806 24.1936 54.4945 24.2905 51.3568 24.2905C47.9888 24.2905 46.0997 22.6587 46.0997 19.8197V17.0876C46.0997 14.0845 47.596 12.3685 50.6058 12.3685C51.1054 12.3685 52.0852 12.375 52.6084 12.5064V15.5974H58.1158V8.73209ZM35.085 15.5974C35.085 9.98166 32.5106 7.89781 27.8253 7.89781C26.0519 7.89781 24.3334 8.38834 22.3179 9.38805L21.8173 8.39455H14.5576V12.8653H17.5616V24.2905H15.0582V28.7612H25.5723V24.2905H23.0689V12.8757C24.1975 12.4756 25.326 12.3685 26.6154 12.3685C29.847 12.3685 29.5776 15.1672 29.5776 17.0981V28.7612H38.089V24.2905H35.085V15.5974ZM9.0502 24.2905H12.0542V28.7612H0.538818V24.2905H3.54283V4.91732H1.03949V0.446594H11.5535V4.91732H9.0502V24.2905Z" fill="#D9DADB" fill-opacity="0.2"/>
<path fill-rule="evenodd" clip-rule="evenodd" d="M97.6681 9.88507C97.6681 7.81885 96.9236 4.9176 93.4124 4.9176C89.7203 4.9176 88.0127 8.4758 89.1515 12.3688H84.2242C83.8509 11.2526 83.6279 8.14596 84.8215 5.67588C86.1382 2.95072 89.2451 0.446869 93.3499 0.446869H83.1487H74.6373L64.1233 16.0944V22.8005H75.3884V18.3298H69.3803L78.142 4.9176H78.3924V28.7615H83.1487C83.1487 19.9484 88.3209 17.0931 93.1621 15.0778C95.8259 13.9688 97.6681 12.6018 97.6681 9.88507ZM102.675 9.6367V24.2908H90.1581C90.1581 21.807 92.4997 21.384 95.4151 19.82C99.1586 17.8117 102.675 15.3493 102.675 9.6367Z" fill="#D9DADB" fill-opacity="0.2"/>
</svg>
