<svg xmlns="http://www.w3.org/2000/svg" viewBox="0 0 80 92.37"><defs><style>.cls-1{fill:#fff;}</style></defs><g id="Layer_2" data-name="Layer 2"><g id="Layer_1-2" data-name="Layer 1"><path class="cls-1" d="M40,0,0,23.09V69.28L40,92.37,80,69.28V23.09Zm.82,74.81L10.12,57.3l.12-8.52L40.8,66.28l14.74-8.5-9.89-5.71L42,54.2l-6.94-4,3.72-2.15-4.86-2.81L31,47,24,43,27,41.28,11.29,32.23l29.51-17L68.64,31.08l-7.47,4.33L40.8,23.73l-14.74,8.5L34.31,37l4.21-2.46,7,4L41.23,41l4.85,2.81,3.45-2,6.95,4-3.48,2,17.28,10L40.82,74.81Z"/></g></g></svg>