<svg xmlns="http://www.w3.org/2000/svg" viewBox="0 0 100 100"><defs><style>.cls-1{fill:#fff;}</style></defs><g id="Layer_2" data-name="Layer 2"><g id="Layer_1-2" data-name="Layer 1"><circle cx="50" cy="50" r="50"/><circle class="cls-1" cx="67.11" cy="16.53" r="4.53"/><circle class="cls-1" cx="68.35" cy="28.42" r="3.84"/><circle class="cls-1" cx="78.41" cy="29.86" r="3.83"/><circle class="cls-1" cx="77.18" cy="40" r="3.27"/><circle class="cls-1" cx="85.23" cy="43.1" r="3.3"/><circle class="cls-1" cx="67.06" cy="38.61" r="3.35"/><circle class="cls-1" cx="64.13" cy="46.77" r="2.81"/><circle class="cls-1" cx="74.2" cy="48.15" r="2.79"/><circle class="cls-1" cx="82.24" cy="51.23" r="2.82"/><circle class="cls-1" cx="78.25" cy="57.45" r="2.38"/><circle class="cls-1" cx="70.18" cy="54.34" r="2.43"/><circle class="cls-1" cx="60.12" cy="52.94" r="2.41"/><circle class="cls-1" cx="65.7" cy="58.69" r="2.1"/><circle class="cls-1" cx="73.77" cy="61.78" r="2.12"/><circle class="cls-1" cx="69.21" cy="64.52" r="1.67"/><circle class="cls-1" cx="64.89" cy="65.92" r="1.52"/><circle class="cls-1" cx="61.14" cy="61.51" r="1.8"/><circle class="cls-1" cx="55.62" cy="57.31" r="2.09"/><circle class="cls-1" cx="72.14" cy="80.12" r="4.51"/><circle class="cls-1" cx="61.16" cy="75.35" r="3.76"/><circle class="cls-1" cx="54.92" cy="83.21" r="3.79"/><circle class="cls-1" cx="53.02" cy="69.12" r="3.28"/><circle class="cls-1" cx="46.78" cy="77.13" r="3.28"/><circle class="cls-1" cx="40.07" cy="82.58" r="3.27"/><circle class="cls-1" cx="34.45" cy="75.94" r="2.78"/><circle class="cls-1" cx="41.18" cy="70.48" r="2.79"/><circle class="cls-1" cx="47.46" cy="62.48" r="2.79"/><circle class="cls-1" cx="37.84" cy="63.92" r="2.42"/><circle class="cls-1" cx="31.14" cy="69.38" r="2.4"/><circle class="cls-1" cx="29.59" cy="63.31" r="2.07"/><circle class="cls-1" cx="29.52" cy="57.98" r="1.78"/><circle class="cls-1" cx="30.44" cy="53.57" r="1.51"/><circle class="cls-1" cx="36.23" cy="52.54" r="1.8"/><circle class="cls-1" cx="42.57" cy="49.84" r="2.1"/><circle class="cls-1" cx="44.09" cy="55.9" r="2.38"/><circle class="cls-1" cx="36.31" cy="57.87" r="2.08"/><circle class="cls-1" cx="14.53" cy="52.73" r="4.5"/><circle class="cls-1" cx="24.25" cy="45.66" r="3.85"/><circle class="cls-1" cx="20.44" cy="36.23" r="3.83"/><circle class="cls-1" cx="29.81" cy="32.26" r="3.28"/><circle class="cls-1" cx="33.64" cy="41.66" r="3.29"/><circle class="cls-1" cx="42.17" cy="40.16" r="2.8"/><circle class="cls-1" cx="49.54" cy="40.54" r="2.42"/><circle class="cls-1" cx="55.62" cy="42.26" r="2.03"/><circle class="cls-1" cx="56.4" cy="35.41" r="1.77"/><circle class="cls-1" cx="51.72" cy="32.84" r="2.05"/><circle class="cls-1" cx="45.71" cy="31.12" r="2.4"/><circle class="cls-1" cx="38.36" cy="30.76" r="2.81"/><circle class="cls-1" cx="28.45" cy="23.71" r="3.18"/><circle class="cls-1" cx="36.97" cy="22.2" r="2.81"/><circle class="cls-1" cx="44.34" cy="22.59" r="2.42"/><circle class="cls-1" cx="50.38" cy="24.31" r="2.04"/><circle class="cls-1" cx="55.02" cy="26.89" r="1.82"/><circle class="cls-1" cx="58.42" cy="29.92" r="1.5"/></g></g></svg>