<svg xmlns="http://www.w3.org/2000/svg" viewBox="0 0 100 100"><defs><style>.cls-1{fill:#0a0b0c;}.cls-10,.cls-11,.cls-2,.cls-3,.cls-4,.cls-5,.cls-6,.cls-7,.cls-8,.cls-9{fill:#fff;}.cls-10,.cls-11,.cls-3,.cls-4,.cls-5,.cls-6,.cls-7,.cls-8,.cls-9{isolation:isolate;}.cls-3{opacity:0.9;}.cls-4{opacity:0.8;}.cls-5{opacity:0.4;}.cls-6{opacity:0.2;}.cls-7{opacity:0.3;}.cls-8{opacity:0.7;}.cls-9{opacity:0.6;}.cls-10{opacity:0.95;}.cls-11{opacity:0.55;}</style></defs><g id="Layer_2" data-name="Layer 2"><g id="Layer_1-2" data-name="Layer 1"><circle class="cls-1" cx="50" cy="50" r="50"/><path class="cls-2" d="M51.62,15.62V32.68l14.81-8.52Z"/><path class="cls-3" d="M66.43,24.16V41.22l14.8-8.54Z"/><path class="cls-4" d="M51.62,32.68v17l14.81-8.51Zm14.81,8.54V58.27l14.8-8.54Z"/><path class="cls-4" d="M51.62,49.73V66.78l14.81-8.51Z"/><path class="cls-2" d="M66.43,58.27v17l14.8-8.54Z"/><path class="cls-5" d="M13.35,32.1V49.16l14.81-8.54Z"/><path class="cls-6" d="M32,38.44V55.5L46.81,47Z"/><path class="cls-7" d="M21.06,49.23V66.28l14.8-8.54Z"/><path class="cls-3" d="M30.81,62.1V79.15l14.78-8.54Z"/><path class="cls-8" d="M51.5,69.44v17L66.28,78Z"/><path class="cls-3" d="M34.5,30V47.08l14.78-8.52Z"/><path class="cls-4" d="M51.62,15.62V32.68l-14.8-8.52Z"/><path class="cls-9" d="M34.5,22.88V39.93L19.69,31.39Z"/><path class="cls-9" d="M49.3,31.31V48.37L34.5,39.83Z"/><path class="cls-10" d="M32,38.44V55.5L17.16,47Z"/><path class="cls-9" d="M51.62,49.73V66.78L36.84,58.27Z"/><path class="cls-11" d="M21.06,53.7V70.76L6.25,62.22Z"/><path class="cls-2" d="M81.23,32.68v17l-14.8-8.51Z"/><path class="cls-10" d="M66.43,41.22V58.27L51.62,49.73Z"/><path class="cls-3" d="M81.23,49.73V66.78l-14.8-8.51Z"/><path class="cls-8" d="M66.43,58.27v17L51.62,66.78Z"/><path class="cls-5" d="M48.34,65.38V82.43l-14.8-8.52Z"/><path class="cls-2" d="M66.43,24.16V41.22L51.62,32.68Z"/></g></g></svg>