<svg id="Layer_1" data-name="Layer 1" xmlns="http://www.w3.org/2000/svg" viewBox="0 0 512 512"><defs><style>.cls-1{fill:#31cb9e;}</style></defs><path class="cls-1" d="M229.27,256,420.2,365.38a10.08,10.08,0,0,0,15.28-8.71V155.2a10,10,0,0,0-15.28-8.63Z"/><path class="cls-1" d="M416.16,98.15l-130.53-96a10.38,10.38,0,0,0-14.56,1.91,10.5,10.5,0,0,0-1.78,3.59L221.63,221.49,415,114.57a9.62,9.62,0,0,0,1.15-16.42"/><path class="cls-1" d="M285.48,509.8l130.68-96a9.78,9.78,0,0,0-1.07-16.65L221.63,290.23l47.66,213.84A10.29,10.29,0,0,0,285.48,510"/><path class="cls-1" d="M179.63,252,229.27,19.87A9.85,9.85,0,0,0,214,9.86L86.83,107.39a26.38,26.38,0,0,0-10.31,21V375.84a26.37,26.37,0,0,0,10.31,21.31l126.55,97.22a9.85,9.85,0,0,0,15.28-10Z"/></svg>