<svg width="101" height="101" viewBox="0 0 101 101" fill="none" xmlns="http://www.w3.org/2000/svg">
<circle cx="50.2587" cy="50.4348" r="50" fill="white"/>
<g clip-path="url(#clip0)">
<path d="M80.2836 31.8888C79.2609 31.0813 78.0417 29.9789 75.8171 29.704C73.7319 29.4291 71.6069 30.8263 70.1712 31.7507C68.7355 32.675 66.0195 35.3911 64.8973 36.2238C63.775 37.0565 60.9036 37.8175 56.2791 40.592C51.6545 43.3664 33.515 55.0141 33.515 55.0141L38.2365 55.0725L17.1884 65.9074H19.2881L16.2587 68.2104C16.2587 68.2104 18.9348 68.9182 21.1727 67.5011V68.1506C21.1727 68.1506 46.2451 58.2707 51.0848 60.8313L48.1337 61.6972C48.39 61.6972 53.1513 62.012 53.1513 62.012C53.2666 62.998 53.5979 63.9465 54.1215 64.7899C54.6451 65.6332 55.3482 66.3508 56.1808 66.8915C59.0535 68.7801 59.1133 69.8254 59.1133 69.8254C59.1133 69.8254 57.6178 70.4363 57.6178 71.2039C57.6178 71.2039 59.8212 70.5399 61.8678 70.593C63.1666 70.6429 64.4547 70.848 65.7048 71.2039C65.7048 71.2039 65.5467 70.3765 63.5598 69.8254C61.573 69.2742 59.6047 67.1107 58.6458 65.93C58.0533 65.1791 57.6664 64.287 57.5231 63.3414C57.3799 62.3957 57.4853 61.429 57.829 60.5364C58.5169 58.7461 60.9182 57.762 65.8761 55.204C71.7198 52.1746 73.0573 49.9314 73.8847 48.1796C74.7121 46.4278 75.93 42.9454 76.6193 41.3132C77.4852 39.2081 78.5477 38.0832 79.4376 37.4191C80.3274 36.755 84.2587 35.2728 84.2587 35.2728C84.2587 35.2728 81.2478 32.6551 80.2836 31.8888Z" fill="black"/>
</g>
<defs>
<clipPath id="clip0">
<rect width="68" height="68" fill="white" transform="translate(16.2587 16.4348)"/>
</clipPath>
</defs>
</svg>
