<svg id="Layer_1" data-name="Layer 1" xmlns="http://www.w3.org/2000/svg" viewBox="0 0 512 512"><defs><style>.cls-1{fill:#fff;}.cls-2{fill:#345d9d;}</style></defs><circle class="cls-1" cx="256" cy="256" r="228.29"/><path class="cls-2" d="M256,0C114.61,0,0,114.62,0,256S114.61,512,256,512,512,397.38,512,256h0C512.41,115,398.46.41,257.49,0H256Zm4.34,264.68-26.66,89.88H376.25a7.19,7.19,0,0,1,7.44,6.93h0v2.35l-12.4,42.77a9.22,9.22,0,0,1-9.3,6.82H143.81l36.57-124.59-40.91,12.4,9.29-28.51,40.92-12.4,51.44-174.8a9.37,9.37,0,0,1,9.3-6.82h55.17A7.2,7.2,0,0,1,313,85.66h0V88L269.64,235.54l40.91-12.39-8.68,29.75Z"/></svg>