<svg width="512" height="512" viewBox="0 0 512 512" fill="none" xmlns="http://www.w3.org/2000/svg">
<circle cx="256" cy="256" r="256" fill="white"/>
<path d="M175.88 29.9434C223.973 11.9547 278.103 11.9137 327.099 26.6988C390.881 46.4945 444.723 94.6285 472.856 155.042C480.619 172.251 488.052 190.198 488.791 209.337C452.937 188.555 413.633 175.084 374.247 162.805C311.246 140.093 245.288 124.322 185.654 93.1089C171.773 84.8128 154.072 76.3113 150.293 59.0209C148.774 44.0714 164.586 35.7342 175.88 29.9434Z" fill="#FFD83D"/>
<path d="M30.6973 175.331C44.62 137.547 67.4548 102.473 98.4626 76.4756C106.348 141.325 133.947 203.998 179.535 251.146C234.199 307.946 312.067 342.814 391.291 341.5C422.751 342.485 453.512 335.216 484.191 329.343C454.005 438.425 334.45 510.831 223.685 493.417C156.823 484.875 95.0949 445.283 57.8445 389.387C15.83 327.618 5.23394 245.601 30.6973 175.331Z" fill="#FFD83D"/>
<path d="M374.247 162.805C413.633 175.085 452.937 188.556 488.791 209.337L491.214 210.61C494.541 235.622 496.964 261.126 492.528 286.179C474.499 278.54 459.878 265.11 444.6 253.241C415.194 228.763 385.172 200.753 374.247 162.805Z" fill="#FF6F03"/>
</svg>
