<svg id="a1716234-f982-4a2e-91c9-f9e6d9767cf5" data-name="Layer 1" xmlns="http://www.w3.org/2000/svg" xmlns:xlink="http://www.w3.org/1999/xlink" viewBox="0 0 512 512"><defs><style>.b146e492-16a9-4401-9bd3-11ccddeed56a{fill:url(#ae1fef55-1d42-4367-92e7-bb359df186ed);}.a34be3a2-b6f6-4f8b-97e8-42ba800a28b5,.ad59dad0-82a4-437a-893d-f32d29c84ed9,.b27ad56d-004e-4500-b273-6cd40f0de2de,.b468266b-5084-43dd-958d-fb4a67068f04,.b617c317-a58d-4611-8f3b-75d8cb4f0d60,.ee7a1e2d-f4bf-4ba9-9d28-a020d21c7b15{fill-rule:evenodd;}.b617c317-a58d-4611-8f3b-75d8cb4f0d60{fill:url(#ff40d8fa-5503-4f03-8788-d80b63f4adaf);}.b27ad56d-004e-4500-b273-6cd40f0de2de{fill:#fff;}.b468266b-5084-43dd-958d-fb4a67068f04{fill:#fc9965;}.ee7a1e2d-f4bf-4ba9-9d28-a020d21c7b15{fill:#ff2d55;}.ad59dad0-82a4-437a-893d-f32d29c84ed9{fill:url(#ecbe05e6-45b6-430c-b7fd-4ea3d35cd9e0);}.a34be3a2-b6f6-4f8b-97e8-42ba800a28b5{fill:#ffbc5b;}.f42ae092-2ccb-4f6f-814e-3ab8aff309d9{fill:#ffc95b;}</style><linearGradient id="ae1fef55-1d42-4367-92e7-bb359df186ed" x1="-540.55" y1="706.33" x2="-541.46" y2="705.42" gradientTransform="matrix(400, 0, 0, -400, 216657, 282607)" gradientUnits="userSpaceOnUse"><stop offset="0" stop-color="#ff2d55"/><stop offset="1" stop-color="#ffbc5b"/></linearGradient><linearGradient id="ff40d8fa-5503-4f03-8788-d80b63f4adaf" x1="-537.7" y1="705.47" x2="-537.7" y2="704.19" gradientTransform="matrix(125, 0, 0, -150, 67473.7, 105987)" gradientUnits="userSpaceOnUse"><stop offset="0" stop-color="#a524b3"/><stop offset="1" stop-color="#ff2d55"/></linearGradient><linearGradient id="ecbe05e6-45b6-430c-b7fd-4ea3d35cd9e0" x1="-535.62" y1="704.71" x2="-535.62" y2="703.43" gradientTransform="matrix(91.7, 0, 0, -110, 49518.4, 77787)" xlink:href="#ff40d8fa-5503-4f03-8788-d80b63f4adaf"/></defs><circle class="b146e492-16a9-4401-9bd3-11ccddeed56a" cx="256" cy="256" r="256"/><path class="b617c317-a58d-4611-8f3b-75d8cb4f0d60" d="M181.38,166.4v192h160Z"/><path class="b27ad56d-004e-4500-b273-6cd40f0de2de" d="M21.38,358.4h160v-192Z"/><path class="b468266b-5084-43dd-958d-fb4a67068f04" d="M51.2,409.6a262,262,0,0,0,51.2,51.2H409.6a262,262,0,0,0,51.2-51.2Z"/><path class="ee7a1e2d-f4bf-4ba9-9d28-a020d21c7b15" d="M102.4,460.8a256,256,0,0,0,307.2,0Z"/><path class="ad59dad0-82a4-437a-893d-f32d29c84ed9" d="M343.42,268.8V409.6H460.8Z"/><path class="a34be3a2-b6f6-4f8b-97e8-42ba800a28b5" d="M343.42,358.4h-322A254.42,254.42,0,0,0,51.2,409.6H343.55V358.4Z"/><path class="b27ad56d-004e-4500-b273-6cd40f0de2de" d="M226.18,409.6H343.42V268.8Z"/><circle class="f42ae092-2ccb-4f6f-814e-3ab8aff309d9" cx="343.42" cy="166.4" r="64"/><circle class="f42ae092-2ccb-4f6f-814e-3ab8aff309d9" cx="181.38" cy="96" r="32"/></svg>