<svg id="Layer_1" data-name="Layer 1" xmlns="http://www.w3.org/2000/svg" viewBox="0 0 512 512"><defs><style>.cls-1{fill:#8247e5;}</style></defs><path class="cls-1" d="M387.68,168.44c-9.36-5.35-21.39-5.35-32.09,0l-74.86,44.11-50.8,28.08-73.52,44.11c-9.36,5.35-21.39,5.35-32.09,0L66.84,250a32.57,32.57,0,0,1-16-28.07V155.07c0-10.69,5.35-21.39,16-28.07l57.48-33.42c9.36-5.35,21.39-5.35,32.09,0l57.48,34.75a32.6,32.6,0,0,1,16,28.08v44.11l50.8-29.41V125.66c0-10.69-5.35-21.39-16-28.07L157.74,34.76c-9.35-5.35-21.38-5.35-32.08,0L16,98.92C5.35,104.27,0,115,0,125.66V251.32c0,10.7,5.35,21.39,16,28.07l108.28,62.83c9.36,5.35,21.39,5.35,32.09,0l73.52-42.77L280.73,270l73.53-42.78c9.35-5.35,21.38-5.35,32.08,0l57.48,33.42a32.58,32.58,0,0,1,16,28.07v66.84c0,10.7-5.34,21.39-16,28.08l-56.14,33.42c-9.36,5.34-21.39,5.34-32.09,0l-57.48-33.42a32.6,32.6,0,0,1-16-28.08V312.81l-50.8,29.41v44.12c0,10.69,5.35,21.39,16,28.07l108.28,62.83c9.36,5.35,21.39,5.35,32.09,0L496,414.41a32.57,32.57,0,0,0,16-28.07v-127c0-10.69-5.35-21.39-16-28.07Z"/></svg>