<svg xmlns="http://www.w3.org/2000/svg" viewBox="0 0 98.18 86.61"><defs><style>.cls-1{fill:#131735;}.cls-2{fill:#fff;}.cls-3{fill:#4caadd;}</style></defs><g id="Layer_2" data-name="Layer 2"><g id="Layer_1-2" data-name="Layer 1"><path class="cls-1" d="M14.79,86.6V81.44q-.09-28-.18-56c0-4.52,1.82-7.92,6-9.8s7.63-.77,10.84,2.2C39.93,25.75,48.52,33.5,57,41.38c4.38,4.07,4.36,9.78.15,14a10.39,10.39,0,0,1-14.4.17c-4.27-4-4.48-10-.3-14a32.38,32.38,0,0,1,4.84-3.16L35,27.09c-3.2,4.26-7.07,7.82-8.93,12.23-4.44,10.52.35,23.57,10.15,30.13,9.39,6.3,21.83,5.13,30.48-2.85,9.7-8.95,10.92-25.45,2.32-33.72C59.8,24,50.43,15.29,41.07,6.56A22.68,22.68,0,0,0,26.89.07C11.79-1,.34,9.67.12,25.36-.1,40.88.05,56.41.08,71.93A22.09,22.09,0,0,0,.5,76C1.81,82.73,7.23,86.89,14.79,86.6Zm47.1-65.16c1.48-1.39,2.61-2.38,3.66-3.44,3.28-3.34,7.16-4.48,11.54-2.72,4.68,1.89,6.78,5.58,6.73,10.62q-.24,28-.41,56c0,1.47,0,2.94,0,4.38,8.21.55,14.29-4.94,14.41-13,.23-15.79.32-31.58.36-47.38a28.1,28.1,0,0,0-.91-7.66C94.36,8,87.21,2.21,77,.53,66.17-1.24,58.26,4,51.48,12.17Z"/><path class="cls-2" d="M14.79,86.6C7.23,86.89,1.81,82.73.5,76a22.09,22.09,0,0,1-.42-4c0-15.52-.18-31.05,0-46.57C.34,9.67,11.79-1,26.89.07A22.68,22.68,0,0,1,41.07,6.56C50.43,15.29,59.8,24,69,32.88c8.6,8.27,7.38,24.77-2.32,33.72-8.65,8-21.09,9.15-30.48,2.85-9.8-6.56-14.59-19.61-10.15-30.13,1.86-4.41,5.73-8,8.93-12.23L47.29,38.32a32.38,32.38,0,0,0-4.84,3.16c-4.18,4-4,10,.3,14a10.39,10.39,0,0,0,14.4-.17c4.21-4.19,4.23-9.9-.15-14-8.48-7.88-17.07-15.63-25.56-23.5-3.21-3-6.76-4-10.84-2.2s-6,5.28-6,9.8q.11,28,.18,56Z"/><path class="cls-3" d="M61.89,21.44,51.48,12.17C58.26,4,66.17-1.24,77,.53,87.21,2.21,94.36,8,97.27,18.23a28.1,28.1,0,0,1,.91,7.66c0,15.8-.13,31.59-.36,47.38-.12,8-6.2,13.51-14.41,13,0-1.44,0-2.91,0-4.38q.2-28,.41-55.95c.05-5-2-8.73-6.73-10.62-4.38-1.76-8.26-.62-11.54,2.72C64.5,19.06,63.37,20.05,61.89,21.44Z"/></g></g></svg>