<svg width="100" height="100" viewBox="0 0 100 100" fill="none" xmlns="http://www.w3.org/2000/svg">
<path d="M50 100C77.6142 100 100 77.6142 100 50C100 22.3858 77.6142 0 50 0C22.3858 0 0 22.3858 0 50C0 77.6142 22.3858 100 50 100Z" fill="#343434"/>
<path d="M54.25 64.4375L53.625 68.1875C53.625 69.125 53.3125 69.75 52.6875 70.375C52.0625 70.6875 51.4375 71 50.5 71C49.5625 71 48.9375 70.6875 48.3125 70.375C47.6875 69.75 47.375 69.125 47.375 68.1875L46.75 64.4375M54.25 64.4375C51.75 65.0625 49.25 65.0625 46.75 64.4375M54.25 64.4375C58 63.5 60.8125 60.6875 61.4375 55.6875L65.1875 26.9375M54.25 64.4375L57.6875 36.625C58.625 31.3125 60.8125 27.875 65.1875 26.9375M46.75 64.4375L43.3125 36.625C42.6875 31.3125 40.1875 27.875 36.125 26.9375M46.75 64.4375C43 63.5 40.5 60.6875 39.875 55.6875L36.125 26.9375M72.0625 27.25C75.8125 28.5 78 31.625 78 36.3125V70.375H72.0625V27.25ZM72.0625 27.25V24.75C72.0625 22.25 70.8125 21 68.9375 21C67.0625 21 65.8125 22.25 65.5 24.4375L65.1875 26.9375M72.0625 27.25C69.875 26.625 67.375 26.625 65.1875 26.9375M28.9375 27.25V70.375H23V36.3125C23 31.625 25.1875 28.5 28.9375 27.25ZM28.9375 27.25C30.1875 26.9375 31.75 26.625 33 26.625C33.9375 26.625 34.875 26.625 36.125 26.9375M28.9375 27.25V24.75C28.9375 22.25 30.1875 21 32.0625 21C33.9375 21 35.1875 21.9375 35.8125 24.4375L36.125 26.9375" stroke="white" stroke-width="4.16656" stroke-miterlimit="5.3333"/>
</svg>
