<svg width="87" height="31" viewBox="0 0 87 31" fill="none" xmlns="http://www.w3.org/2000/svg">
<path d="M12.1793 30.1304H0.487061V26.1913H1.6542C2.17525 26.1913 2.34198 25.8995 2.34198 25.4201V15.5411C2.34198 15.0617 2.1544 14.77 1.6542 14.77H0.487061V10.7058H10.8454V13.6445C12.0959 11.3519 14.0759 10.289 16.8687 10.289C20.6619 10.289 22.0166 11.7479 22.4543 13.9988C23.6215 11.4144 25.6848 10.289 28.6235 10.289C33.438 10.289 34.355 12.6233 34.355 16.1038V25.441C34.355 25.9203 34.5842 26.2121 35.1678 26.2121H36.1682V30.1512H24.6635V26.1913H25.1429C25.6223 26.1913 25.8307 25.8995 25.8307 25.4201V16.9792C25.8307 15.3744 25.4764 14.8742 24.3509 14.8742C22.8712 14.8742 22.6002 16.083 22.6002 17.9796V25.3784C22.6002 25.8995 22.8295 26.1913 23.288 26.1913H23.9132V30.1304H12.8879V26.1913H13.3673C13.8467 26.1913 14.0551 25.8995 14.0551 25.4201V16.9792C14.0551 15.3744 13.7008 14.8742 12.5753 14.8742C11.0955 14.8742 10.8246 16.083 10.8246 17.9796V25.3784C10.8246 25.8995 11.0122 26.1913 11.5124 26.1913H12.1376V30.1304H12.1793ZM42.8793 0.910156C45.2344 0.910156 47.1519 2.84844 47.1519 5.22441C47.1519 7.55869 45.2344 9.49698 42.8793 9.49698C40.5658 9.49698 38.6484 7.55869 38.6484 5.22441C38.6484 2.84844 40.5658 0.910156 42.8793 0.910156ZM38.6901 15.5203C38.6901 15.0409 38.5025 14.7491 38.0023 14.7491H36.8352V10.685H47.1935V25.3784C47.1935 25.8995 47.3811 26.1913 47.8813 26.1913H48.9859V30.1304H36.8143V26.1913H37.9815C38.5025 26.1913 38.6692 25.8995 38.6692 25.4201V15.5203H38.6901ZM61.3243 30.1304H49.632V26.1913H50.7992C51.3202 26.1913 51.4869 25.8995 51.4869 25.4201V15.5411C51.4869 15.0617 51.2994 14.77 50.7992 14.77H49.632V10.7058H59.9904V13.6862C61.1575 11.3519 63.1167 10.3098 66.3055 10.3098C70.7448 10.3098 71.8911 12.6441 71.8911 16.1247V25.4618C71.8911 25.9412 72.0786 26.233 72.6622 26.233H73.7043V30.1721H62.0537V26.1913H62.679C63.1584 26.1913 63.3668 25.8995 63.3668 25.4201V16.9792C63.3668 15.3744 62.9708 14.8742 61.887 14.8742C60.4072 14.8742 59.9696 16.083 59.9696 17.9796V25.3784C59.9696 25.8995 60.1571 26.1913 60.6573 26.1913H61.2826L61.3243 30.1304ZM72.4955 10.685L74.5588 10.5599L74.8923 6.12061H82.7496V10.6433H86.0427V14.6449H82.7288V23.0858C82.7288 25.3784 83.1665 26.1287 85.6675 26.1287H86.2302V30.0679C84.5837 30.2554 82.8539 30.3179 81.2074 30.3179C76.6638 30.3179 74.5797 28.9424 74.267 25.045V14.6866H72.5163L72.4955 10.685Z" fill="#D9DADB" fill-opacity="0.2"/>
</svg>
