<svg xmlns="http://www.w3.org/2000/svg" xmlns:xlink="http://www.w3.org/1999/xlink" viewBox="0 0 100 100"><defs><style>.cls-1{fill:url(#linear-gradient);}.cls-2{fill:#fff;}</style><linearGradient id="linear-gradient" x1="50" y1="-502" x2="50" y2="-402" gradientTransform="translate(0 502)" gradientUnits="userSpaceOnUse"><stop offset="0" stop-color="#4fa89b"/><stop offset="1" stop-color="#6acebb"/></linearGradient></defs><g id="Layer_2" data-name="Layer 2"><g id="Layer_1-2" data-name="Layer 1"><g id="Layer_2-2" data-name="Layer 2"><g id="Layer_1-2-2" data-name="Layer 1-2"><circle class="cls-1" cx="50" cy="50" r="50"/><path class="cls-2" d="M25.39,65V41.47L43.24,54.9V65h4.55V54a2.65,2.65,0,0,0-1.06-2.12L25.09,35.54a2.67,2.67,0,0,0-3.73.55,2.73,2.73,0,0,0-.53,1.58V65Zm49.36,0V41.47L56.9,54.9V65H52.35V54a2.67,2.67,0,0,1,1-2.12L75.05,35.54a2.67,2.67,0,0,1,3.73.56,2.6,2.6,0,0,1,.52,1.57V65Z"/></g></g></g></g></svg>