<svg id="Layer_1" data-name="Layer 1" xmlns="http://www.w3.org/2000/svg" viewBox="0 0 512 512"><defs><style>.cls-1{fill:#4a90e2;}</style></defs><circle class="cls-1" cx="36.85" cy="328.92" r="36.85"/><path class="cls-1" d="M475.92,146.23a36.87,36.87,0,0,0-36.84,36.85c0,29.18-4.62,36.84-36.85,36.84h-3.08a36,36,0,0,0-33,36.08v.77c0,28.41-5.38,35.31-36.84,35.31-1.54,0-3.08,0-3.85.77-18.41,2.3-33,17.66-33,36.07a36.87,36.87,0,0,0,36.85,36.85c19.18,0,35.31-15.36,36.07-33.77v-3.08c0-26.1,8.44-36.07,36.08-36.84h.77a36.26,36.26,0,0,0,36.08-34.54v-2.31c0-26.87,8.43-36.85,36.84-36.85A36.87,36.87,0,0,0,512,181.54C512,162.36,495.87,146.23,475.92,146.23ZM259.46,219.92h-3.08c-32.22,0-36.84-7.66-36.84-36.84a36.85,36.85,0,1,0-73.69,0c0,29.18-4.62,36.07-36.85,36.07h-3.08a36,36,0,0,0-33,36.08,36.87,36.87,0,0,0,36.85,36.85c19.18,0,35.31-15.36,36.08-33.77V256c0-26.87,8.43-36.85,36.84-36.85s36.85,10,36.85,36.08a36.87,36.87,0,0,0,36.84,36.85,36.39,36.39,0,0,0,36.85-36.85A37.18,37.18,0,0,0,259.46,219.92Z"/></svg>