<svg width="512" height="512" viewBox="0 0 512 512" fill="none" xmlns="http://www.w3.org/2000/svg">
<circle cx="256" cy="256" r="256" fill="white"/>
<path d="M347.002 120.436L283.988 214.056C279.63 220.431 288.01 228.149 294.043 222.78L356.052 168.756C357.728 167.413 360.074 168.42 360.074 170.769V339.553C360.074 341.902 357.058 342.909 355.717 341.231L168.014 116.409C161.981 109.027 153.266 105 143.546 105H136.842C119.413 105 105 119.429 105 137.213V374.787C105 392.571 119.413 407 137.178 407C148.239 407 158.629 401.296 164.663 391.564L227.677 297.944C232.034 291.569 223.655 283.851 217.622 289.22L155.613 342.909C153.937 344.251 151.59 343.244 151.59 340.896V172.447C151.59 170.098 154.607 169.091 155.948 170.769L343.65 395.591C349.684 402.973 358.734 407 368.119 407H374.822C392.587 407 407 392.571 407 374.787V137.213C407 119.429 392.587 105 374.822 105C363.426 105 353.036 110.704 347.002 120.436Z" fill="black"/>
</svg>
