<svg width="101" height="101" viewBox="0 0 101 101" fill="none" xmlns="http://www.w3.org/2000/svg">
<circle cx="50.7402" cy="50.4006" r="50" fill="white"/>
<path d="M45.7674 10.6137C28.4906 12.9575 14.5872 25.9624 11.4075 42.7565C9.41682 53.3535 11.5997 63.9834 17.6685 73.0695C19.7889 76.2164 25.0874 81.5462 28.1374 83.5697C32.6664 86.5682 37.7222 88.682 43.0377 89.7995C46.8268 90.601 54.6613 90.601 58.4504 89.7995C66.2865 88.1291 72.6116 84.8541 78.1992 79.5868C84.1087 73.9617 88.0259 67.16 89.7619 59.4849C92.7729 46.1925 89.0853 32.6735 79.7414 22.7452C74.2507 16.9639 66.2865 12.5653 58.3864 11.0559C55.0801 10.42 48.7534 10.195 45.7674 10.6137ZM54.7582 13.7919C64.2896 14.8857 73.3194 19.7655 79.1945 27.0218C82.9837 31.7422 85.1681 36.1095 86.6134 42.0502C87.3197 44.8768 87.4478 46.1612 87.4806 50.0785C87.4806 55.6661 86.9025 59.1021 85.0712 63.7256C75.4054 88.5479 43.4549 95.2589 24.7343 76.4102C14.1685 65.8131 11.0528 50.4019 16.6779 36.4954C19.5357 29.3344 25.5093 22.4327 32.1234 18.6733C39.3439 14.531 46.8581 12.9247 54.7582 13.7919Z" fill="black"/>
<path d="M24.8293 40.9581C20.6558 42.4675 17.9901 47.6379 18.9542 52.4552C19.4354 54.863 19.9807 55.9865 21.4901 57.5599C23.4808 59.7115 24.7715 60.1943 28.2653 60.1943C31.0591 60.1943 31.4763 60.0975 33.0185 59.2568C35.8763 57.6506 37.4498 55.113 37.8029 51.5176C38.2529 46.5722 35.3951 41.9487 31.1887 40.7596C29.5497 40.3159 26.4027 40.4128 24.8293 40.9581ZM31.8606 44.9722C33.756 46.3535 34.7185 49.5332 34.0482 52.327C32.7638 57.7209 25.6668 58.7803 23.2261 53.9317C21.748 51.0411 22.5199 46.5144 24.7668 44.941C26.6277 43.5925 29.9356 43.6238 31.8622 44.9722H31.8606Z" fill="black"/>
<path d="M68.2767 41.0877C62.2391 43.4956 60.5375 52.391 65.097 57.7849C67.5705 60.7396 73.4143 61.2849 76.0159 58.7802L76.7222 58.1068L76.819 59.0052C76.9144 59.8084 77.0112 59.8724 78.5206 59.8724H80.1254L80.2222 54.7989L80.3191 49.7566H71.2955V52.9692H74.0221C76.9753 52.9692 77.0722 53.0332 76.2378 54.7661C75.6596 55.9552 73.6049 57.1427 72.0627 57.1427C68.3705 57.1427 66.1548 54.5426 66.1548 50.3348C66.1861 45.6784 69.172 43.0143 73.2502 43.9768C74.8237 44.3628 76.43 45.7441 76.43 46.7394C76.43 47.0597 76.9112 47.1878 78.3566 47.1878H80.2519L79.8035 45.7441C78.8081 42.3721 76.3347 40.669 72.2565 40.5408C70.4596 40.4768 69.4642 40.6049 68.2767 41.0877Z" fill="black"/>
<path d="M40.4686 50.4019V60.0364H43.6796L43.7437 53.5488L43.8406 47.0315L46.2094 53.5457L48.586 60.0646L50.1922 59.9692L51.7969 59.8724L54.1407 53.4504L56.4845 47.0284L56.5798 53.4504L56.6767 59.8724L58.3783 59.9692L60.0486 60.0646L59.9846 50.4956L59.8877 40.9267H55.4283L52.8626 48.0581C51.4563 52.0082 50.2063 55.1223 50.1016 54.9629C49.9735 54.8348 48.8172 51.7832 47.5328 48.155C46.2484 44.5268 45.0328 41.3799 44.8671 41.1549C44.675 40.9299 43.7734 40.7689 42.5234 40.7689H40.4686V50.4019Z" fill="black"/>
</svg>
