<svg xmlns="http://www.w3.org/2000/svg" xmlns:xlink="http://www.w3.org/1999/xlink" viewBox="0 0 100 100"><defs><style>.cls-1{fill:#fff;}.cls-2{fill:url(#linear-gradient);}</style><linearGradient id="linear-gradient" x1="-109.65" y1="-916.94" x2="-109.35" y2="-917.25" gradientTransform="translate(19760.04 164677.82) scale(180 179.51)" gradientUnits="userSpaceOnUse"><stop offset="0" stop-color="#00aee9"/><stop offset="1" stop-color="#69fabd"/></linearGradient></defs><g id="Layer_2" data-name="Layer 2"><g id="Layer_1-2" data-name="Layer 1"><circle class="cls-1" cx="50" cy="50" r="50"/><path id="Shape" class="cls-2" d="M68,18.45A13.64,13.64,0,0,0,54.33,32.06V47.14c-1.4.1-2.84.16-4.33.16s-2.92.06-4.33.14V32.06a13.66,13.66,0,0,0-27.31,0V68.12a13.66,13.66,0,0,0,27.31,0V53c1.4-.1,2.84-.16,4.33-.16s2.92-.06,4.33-.14V68.12a13.66,13.66,0,0,0,27.31,0V32.06A13.64,13.64,0,0,0,68,18.45ZM32,24a8.06,8.06,0,0,1,8.06,8V48a46.18,46.18,0,0,0-11.6,3.28A21.12,21.12,0,0,0,24,54V32.06A8.06,8.06,0,0,1,32,24Zm8.06,44.1a8.06,8.06,0,0,1-16.12,0h0V64.5c0-3.2,2.54-6.22,6.78-8.11a40,40,0,0,1,9.34-2.73V68.12Zm27.92,8a8.06,8.06,0,0,1-8.06-8v-16a45.76,45.76,0,0,0,11.6-3.28A20.71,20.71,0,0,0,76,46.17v22a8.06,8.06,0,0,1-8,8Zm1.28-32.39a39.56,39.56,0,0,1-9.34,2.73V32.06a8.06,8.06,0,1,1,16.12,0h0v3.61C76.05,38.85,73.51,41.88,69.27,43.76Z"/></g></g></svg>