<svg width="100" height="100" viewBox="0 0 100 100" fill="none" xmlns="http://www.w3.org/2000/svg">
<path d="M50 100C77.6142 100 100 77.6142 100 50C100 22.3858 77.6142 0 50 0C22.3858 0 0 22.3858 0 50C0 77.6142 22.3858 100 50 100Z" fill="#FF0420"/>
<path d="M35.4198 63.28C32.4398 63.28 29.9998 62.58 28.0998 61.18C26.2198 59.76 25.2798 57.72 25.2798 55.1C25.2798 54.54 25.3398 53.88 25.4598 53.08C25.7798 51.28 26.2398 49.12 26.8398 46.58C28.5398 39.7 32.9398 36.26 40.0198 36.26C41.9398 36.26 43.6798 36.58 45.1998 37.24C46.7198 37.86 47.9198 38.82 48.7998 40.1C49.6798 41.36 50.1198 42.86 50.1198 44.6C50.1198 45.12 50.0598 45.78 49.9398 46.58C49.5598 48.8 49.1198 50.98 48.5798 53.08C47.6998 56.5 46.1998 59.08 44.0398 60.78C41.8998 62.46 39.0198 63.28 35.4198 63.28ZM35.9598 57.88C37.3598 57.88 38.5398 57.46 39.5198 56.64C40.5198 55.82 41.2398 54.56 41.6598 52.84C42.2398 50.48 42.6798 48.44 42.9798 46.68C43.0798 46.16 43.1398 45.62 43.1398 45.06C43.1398 42.78 41.9598 41.64 39.5798 41.64C38.1798 41.64 36.9798 42.06 35.9798 42.88C34.9998 43.7 34.2998 44.96 33.8798 46.68C33.4198 48.36 32.9798 50.4 32.5198 52.84C32.4198 53.34 32.3598 53.86 32.3598 54.42C32.3398 56.74 33.5598 57.88 35.9598 57.88Z" fill="white"/>
<path d="M51.86 62.92C51.58 62.92 51.38 62.84 51.22 62.66C51.1 62.46 51.06 62.24 51.1 61.98L56.28 37.58C56.32 37.3 56.46 37.08 56.7 36.9C56.92 36.72 57.16 36.64 57.42 36.64H67.4C70.18 36.64 72.4 37.22 74.08 38.36C75.78 39.52 76.64 41.18 76.64 43.36C76.64 43.98 76.56 44.64 76.42 45.32C75.8 48.2 74.54 50.32 72.62 51.7C70.74 53.08 68.16 53.76 64.88 53.76H59.82L58.1 61.98C58.04 62.26 57.92 62.48 57.68 62.66C57.46 62.84 57.22 62.92 56.96 62.92H51.86ZM65.14 48.58C66.2 48.58 67.1 48.3 67.88 47.72C68.68 47.14 69.2 46.32 69.46 45.24C69.54 44.82 69.58 44.44 69.58 44.12C69.58 43.4 69.36 42.84 68.94 42.46C68.52 42.06 67.78 41.86 66.76 41.86H62.26L60.84 48.58H65.14Z" fill="white"/>
</svg>
