<svg xmlns="http://www.w3.org/2000/svg" xmlns:xlink="http://www.w3.org/1999/xlink" viewBox="0 0 97.05 91.48"><defs><style>.cls-1{fill:#fff;fill-rule:evenodd;}.cls-2{mask:url(#mask);}.cls-3{fill:#efe812;}.cls-4{fill:#ede70a;}.cls-5{fill:#dec21c;}.cls-6{fill:#e5cb22;}.cls-7{fill:#cca727;}</style><mask id="mask" x="0" y="6.48" width="32.19" height="73.58" maskUnits="userSpaceOnUse"><g id="mask-2" data-name="mask"><g id="mask-2-2" data-name="mask-2"><polygon id="path-1" class="cls-1" points="0.06 6.48 32.19 6.48 32.19 80.06 0.06 80.06 0.06 6.48"/></g></g></mask></defs><g id="Layer_2" data-name="Layer 2"><g id="Layer_1-2" data-name="Layer 1"><g id="Group-3"><g id="Fill-1-Clipped"><g class="cls-2"><path id="Fill-1" class="cls-3" d="M27,11.9a74.38,74.38,0,0,1,5.16-5.39c-27.3-.88-19.35,18.86-28.3,38.9-10.24,23.1,1.21,31.9,18.28,34.65a37,37,0,0,1-5.77-9.43C5.37,56.71,9.83,31.33,27,11.9"/></g></g></g><path id="Fill-4" class="cls-4" d="M92.71,36.5A78,78,0,0,1,78.92,59.59,66.06,66.06,0,0,1,62.17,74.1a45.32,45.32,0,0,1-24.72,7A97.34,97.34,0,0,1,22.2,80.06a31.15,31.15,0,0,0,10.2,8C57.09,100,58.64,77.82,84.76,66.57c14.66-6.32,14.71-18.66,7.93-30.07"/><path id="Fill-6" class="cls-4" d="M62.17,13.46a32.72,32.72,0,0,1,10.19,3.61A56.9,56.9,0,0,1,92.71,36.5C97.16,24,95.08,14.13,85.36,12.36c-10.7-2-19-2.59-27.08-8.2C48.38-2.71,39.71-.47,32.19,6.52l1.63.07c10.43.62,20.4,2.69,28.3,6.84"/><path id="Fill-8" class="cls-5" d="M27,11.9C9.83,31.33,5.37,56.71,16.43,70.63a42.27,42.27,0,0,1,2.39-37.74c9.31-15.52,28-22.26,43.35-19.43-8-4.2-17.92-6.23-28.3-6.85l-1.63-.08A71.44,71.44,0,0,0,27,11.9"/><path id="Fill-10" class="cls-6" d="M72.36,17a32.66,32.66,0,0,0-10.19-3.58C72.63,19,79.57,28.28,79.57,43A37.08,37.08,0,0,1,62.17,74.1,65.69,65.69,0,0,0,78.92,59.59,78,78,0,0,0,92.71,36.5,56.9,56.9,0,0,0,72.36,17"/><path id="Fill-12" class="cls-7" d="M62.17,13.46c-15.35-2.83-34,3.91-43.35,19.37a42.21,42.21,0,0,0-2.39,37.8,37,37,0,0,0,5.77,9.43,97.34,97.34,0,0,0,15.25,1.07,45.32,45.32,0,0,0,24.72-7A37.07,37.07,0,0,0,79.57,43c0-14.75-6.94-24.07-17.4-29.57M60.45,67.1a25.53,25.53,0,0,1-35.2-7.58c-7.63-11.76-3.86-26.95,7.58-35C45.64,15.39,62.05,19,68,32.06c5.84,12.75,4.23,27.48-7.58,35"/></g></g></svg>