<svg width="33" height="20" viewBox="0 0 33 20" fill="none" xmlns="http://www.w3.org/2000/svg">
<path d="M31.7058 6.90951C31.0528 5.12324 29.8997 3.56393 28.3848 2.41876C28.1583 2.24536 27.9258 2.08323 27.6872 1.93236C26.1144 0.929924 24.2948 0.385556 22.4315 0.360016C21.2386 0.362377 20.059 0.610781 18.9659 1.08979C17.8728 1.56881 16.8896 2.26818 16.0775 3.14446L15.7662 3.46569L18.1821 5.87299L18.492 5.55566C18.9989 5.00706 19.6128 4.56873 20.2956 4.26784C20.9784 3.96695 21.7155 3.8099 22.4613 3.80644C23.8685 3.83253 25.2293 4.3153 26.3399 5.1824C27.516 6.08498 28.5677 7.51166 28.77 9.23097C28.8997 10.2883 28.6987 11.4575 28.0088 12.6839C27.2636 13.9827 26.0866 14.9771 24.6839 15.4931L21.0466 11.9686L18.6891 9.68746L9.82846 1.10392C9.61737 0.873169 9.34652 0.705746 9.04612 0.620322C8.74572 0.534898 8.42756 0.53483 8.12713 0.620123C6.813 0.92542 5.57624 1.50059 4.49488 2.30933C3.41352 3.11808 2.51105 4.14284 1.84441 5.31896C1.74067 5.50233 1.64471 5.68701 1.55523 5.87039C-0.708878 10.4925 1.30496 14.887 4.41715 17.2735C6.13141 18.5836 8.22062 19.3054 10.3757 19.3322C11.5685 19.3296 12.7481 19.0811 13.8412 18.6021C14.9342 18.1231 15.9174 17.4239 16.7297 16.5478L17.0383 16.2279L14.6134 13.8271L14.3048 14.147C13.7985 14.6964 13.185 15.1356 12.5024 15.4374C11.8198 15.7392 11.0827 15.8971 10.3368 15.9014C8.92516 15.8766 7.55983 15.3924 6.44655 14.5216C4.80358 13.26 3.4018 10.9711 4.22782 8.29199C4.36673 7.84904 4.55235 7.42222 4.78153 7.01876C5.52248 5.71201 6.69943 4.70939 8.10508 4.18749L16.1695 11.9985L16.4833 12.3028L22.9735 18.5896C23.2637 18.8835 23.6482 19.065 24.0589 19.102C24.0787 19.1092 24.0991 19.1144 24.1199 19.1176H24.2171C24.3138 19.1158 24.4101 19.1053 24.505 19.0864H24.6347C25.9534 18.7807 27.1946 18.2043 28.2802 17.3935C29.3657 16.5828 30.272 15.5553 30.942 14.3759C32.4346 11.7202 32.4929 9.12043 31.7058 6.90951Z" fill="white"/>
</svg>
