<svg width="100" height="100" viewBox="0 0 100 100" fill="none" xmlns="http://www.w3.org/2000/svg">
<circle cx="50" cy="50" r="50" fill="#1F5A12"/>
<path d="M40.7598 25.2156C41.0275 24.9448 41.2471 24.6125 41.5429 24.3805C41.6971 24.1213 41.952 23.8584 42.0772 23.6707C42.3239 23.3006 42.8997 23.4198 43.2676 23.4168C43.9608 23.4111 44.6484 23.3215 45.3415 23.3215C47.5805 23.3215 49.6754 23.7355 51.8544 24.2738C52.8723 24.5253 53.9904 24.7703 54.9285 25.2685C55.7428 25.7012 56.533 26.1778 57.3354 26.6335C58.8621 27.5004 60.7078 28.2329 62.3988 28.7075C63.6582 29.0608 64.9641 29.2541 66.1712 29.7656C66.9983 30.1161 68.0169 30.3422 68.7584 30.8555C69.3934 31.2952 69.9305 31.7784 70.2923 32.4639C70.4985 32.8539 70.7352 33.2275 70.9592 33.6067C71.0912 33.8304 71.184 34.0909 71.3188 34.305C71.5482 34.6693 71.4681 35.0619 71.6947 35.4584C72.2027 36.3474 72.8254 36.736 73.5937 37.3736C73.824 37.5647 73.9801 37.9435 74.0807 38.2202C74.1695 38.4645 74.4886 39.1018 74.7048 39.2254C75.0025 39.3954 75.7844 39.6646 75.652 40.0878C75.5031 40.5634 75.2483 40.9901 75.2237 41.511C75.2014 41.9779 75.2237 42.4513 75.2237 42.9183V45.0187C75.2237 45.3442 75.2865 45.7464 75.1704 46.061C75.0498 46.3892 75.0275 46.7448 74.9324 47.0768C74.8946 47.2094 74.5619 47.4818 74.4667 47.6006C73.707 48.5501 73.8873 49.3094 74.4617 50.3147C74.8991 51.0805 75.7143 51.8235 75.8159 52.7167C75.9105 53.545 75.9743 54.23 75.8846 55.0339C75.7831 55.9483 75.5145 56.8755 75.3188 57.7744C74.9738 59.3562 74.5546 60.9169 74.266 62.5046C74.1968 62.8851 73.8213 63.2151 73.7949 63.5838C73.7776 63.8264 73.7949 64.0758 73.7949 64.3194C73.7949 64.7222 73.4503 65.0909 73.2819 65.4409C72.6588 66.7349 71.6451 67.8761 71.1708 69.2238C70.4066 71.395 69.4252 73.5475 68.1658 75.472C67.1635 77.0032 65.8799 78.3587 64.8112 79.8475C64.3232 80.528 63.4912 81.1707 62.7693 81.604C61.8535 82.1534 60.9418 82.7083 60.0337 83.2704C59.4506 83.6318 58.7642 83.6919 58.0919 83.6992C56.7947 83.7128 55.4174 83.5613 54.1347 83.7943C52.7638 84.0437 51.3191 83.7943 49.9286 83.7943H44.1088C42.6476 83.7943 41.2511 83.4657 39.8074 83.2231C38.0689 82.9304 36.2961 83.0324 34.5379 83.0324C33.6121 83.0324 32.8306 83.0287 31.9349 82.747C31.4694 82.6004 31.0453 82.5785 30.5593 82.5562C29.5381 82.5098 28.4809 82.1998 27.4695 82.0433C26.8718 81.9504 26.2983 81.8694 25.7024 81.736C24.3202 81.4274 22.6654 81.3218 21.364 80.7469C20.951 80.5644 20.6066 80.2026 20.2742 79.9108C19.5426 79.2695 19.0515 78.711 18.5653 77.8844C18.163 77.2007 17.9086 76.4251 17.6076 75.6941C16.8585 73.8748 16.9961 71.7978 17.0363 69.8693C17.0589 68.7828 17.3222 67.6926 17.4278 66.6102C17.5644 65.2097 17.8863 63.6826 18.2743 62.3248C18.4673 61.6489 18.4472 60.9302 18.6341 60.2401C18.7235 59.9097 18.8028 59.6083 18.8668 59.277C19.1826 57.6456 19.9309 56.0302 20.5069 54.4786C20.974 53.2203 21.4174 51.9536 21.9778 50.7327C22.1724 50.3087 22.2791 49.5715 22.5598 49.2248C22.7745 48.9596 22.9663 48.6352 23.1523 48.3466C23.4881 47.8255 23.7365 47.1811 24.1576 46.7276C24.5258 46.3311 24.686 45.8044 24.9882 45.3679C25.3013 44.9157 25.6433 44.3626 25.7765 43.8177C26.1205 42.4103 27.1963 41.3333 27.7922 40.0296C28.5703 38.3276 29.2785 36.6223 30.1731 34.9822C30.5329 34.3226 30.9692 33.9056 31.554 33.395C32.247 32.7898 32.8241 32.1218 33.4586 31.4692C33.9548 30.9589 34.4029 30.487 34.9506 30.0248C35.7826 29.3228 36.7282 28.7908 37.6012 28.1361C38.1876 27.6963 38.919 27.2028 39.3948 26.6547C39.8305 26.1527 40.2918 25.689 40.7598 25.2156Z" fill="#378427"/>
<path d="M41.892 24.1786C41.397 24.369 41.1225 24.8486 40.7598 25.2156C40.2918 25.689 39.8305 26.1527 39.3948 26.6547C38.919 27.2028 38.1876 27.6963 37.6012 28.1361C36.7282 28.7908 35.7826 29.3228 34.9506 30.0248C34.4029 30.487 33.9548 30.9589 33.4586 31.4692C32.8241 32.1218 32.247 32.7898 31.554 33.395C30.9692 33.9056 30.5329 34.3226 30.1731 34.9822C29.2785 36.6223 28.5703 38.3276 27.7922 40.0296C27.1963 41.3333 26.1205 42.4103 25.7765 43.8177C25.6433 44.3626 25.3013 44.9157 24.9882 45.3679C24.686 45.8044 24.5258 46.3311 24.1576 46.7276C23.7365 47.1811 23.4881 47.8255 23.1523 48.3466C22.9663 48.6352 22.7745 48.9596 22.5598 49.2248C22.2791 49.5715 22.1724 50.3087 21.9778 50.7327C21.4174 51.9536 20.974 53.2203 20.5069 54.4786C19.9309 56.0302 19.1826 57.6456 18.8668 59.277C18.8028 59.6083 18.7235 59.9097 18.6341 60.2401C18.4472 60.9302 18.4673 61.6489 18.2743 62.3248C17.8863 63.6826 17.5644 65.2097 17.4278 66.6102C17.3222 67.6926 17.0589 68.7828 17.0363 69.8693C16.9961 71.7978 16.8585 73.8748 17.6076 75.6941C17.9086 76.4251 18.163 77.2007 18.5653 77.8844C19.0515 78.711 19.5426 79.2695 20.2742 79.9108C20.6066 80.2026 20.951 80.5644 21.364 80.7469C22.6654 81.3218 24.3202 81.4274 25.7024 81.736C26.2983 81.8694 26.8718 81.9504 27.4695 82.0433C28.4809 82.1998 29.5381 82.5098 30.5593 82.5562C31.0453 82.5785 31.4694 82.6004 31.9349 82.747C32.8306 83.0287 33.6121 83.0324 34.5379 83.0324C36.2961 83.0324 38.0689 82.9304 39.8074 83.2231C41.2511 83.4657 42.6476 83.7943 44.1088 83.7943C46.0487 83.7943 47.9886 83.7943 49.9286 83.7943C51.3191 83.7943 52.7638 84.0437 54.1347 83.7943C55.4174 83.5613 56.7947 83.7128 58.0919 83.6992C58.7642 83.6919 59.4506 83.6318 60.0337 83.2704C60.9418 82.7083 61.8535 82.1534 62.7693 81.604C63.4912 81.1707 64.3232 80.528 64.8112 79.8475C65.8799 78.3587 67.1635 77.0032 68.1658 75.472C69.4252 73.5475 70.4066 71.395 71.1708 69.2238C71.6451 67.8761 72.6588 66.7349 73.2819 65.4409C73.4503 65.0909 73.7949 64.7222 73.7949 64.3194C73.7949 64.0758 73.7776 63.8264 73.7949 63.5838C73.8213 63.2151 74.1968 62.8851 74.266 62.5046C74.5546 60.9169 74.9738 59.3562 75.3188 57.7744C75.5145 56.8755 75.7831 55.9483 75.8846 55.0339C75.9743 54.23 75.9105 53.545 75.8159 52.7167C75.7143 51.8235 74.8991 51.0805 74.4617 50.3147C73.8873 49.3094 73.707 48.5501 74.4667 47.6006C74.5619 47.4818 74.8946 47.2094 74.9324 47.0768C75.0275 46.7448 75.0498 46.3892 75.1704 46.061C75.2865 45.7464 75.2237 45.3442 75.2237 45.0187C75.2237 44.3186 75.2237 43.6184 75.2237 42.9183C75.2237 42.4513 75.2014 41.9779 75.2237 41.511C75.2483 40.9901 75.5031 40.5634 75.652 40.0878C75.7844 39.6646 75.0025 39.3954 74.7048 39.2254C74.4886 39.1018 74.1695 38.4645 74.0807 38.2202C73.9801 37.9435 73.824 37.5647 73.5937 37.3736C72.8254 36.736 72.2027 36.3474 71.6947 35.4584C71.4681 35.0619 71.5482 34.6693 71.3188 34.305C71.184 34.0909 71.0912 33.8304 70.9592 33.6067C70.7352 33.2275 70.4985 32.8539 70.2923 32.4639C69.9305 31.7784 69.3934 31.2952 68.7584 30.8555C68.0169 30.3422 66.9983 30.1161 66.1712 29.7656C64.9641 29.2541 63.6582 29.0608 62.3988 28.7075C60.7078 28.2329 58.8621 27.5004 57.3354 26.6335C56.533 26.1778 55.7428 25.7012 54.9285 25.2685C53.9904 24.7703 52.8723 24.5253 51.8544 24.2738C49.6754 23.7355 47.5805 23.3215 45.3415 23.3215C44.6484 23.3215 43.9608 23.4111 43.2676 23.4168C42.8997 23.4198 42.3239 23.3006 42.0772 23.6707C41.8907 23.9504 41.4158 24.3972 41.4158 24.75" stroke="black" stroke-width="0.490875" stroke-linecap="round"/>
<mask id="mask0_3904_265" style="mask-type:luminance" maskUnits="userSpaceOnUse" x="17" y="13" width="66" height="74">
<path d="M83 13H17.7134V86.9435H83V13Z" fill="white"/>
</mask>
<g mask="url(#mask0_3904_265)">
<path d="M46.9592 14.9131C47.0273 15.0817 47.017 15.2995 46.8922 15.5721C46.7671 15.8453 46.5358 16.1515 46.2038 16.4698C45.5409 17.1054 44.514 17.7536 43.2787 18.2525C42.0433 18.7514 40.8544 18.9982 39.936 19.0013C39.476 19.0028 39.097 18.9432 38.8172 18.8335C38.5381 18.724 38.3794 18.5745 38.3113 18.4058C38.2432 18.2372 38.2535 18.0194 38.3783 17.7468C38.5035 17.4736 38.7348 17.1674 39.0667 16.8491C39.7297 16.2135 40.7565 15.5653 41.9919 15.0664C43.2272 14.5675 44.4161 14.3207 45.3346 14.3177C45.7945 14.3161 46.1736 14.3757 46.4533 14.4854C46.7324 14.5949 46.8911 14.7444 46.9592 14.9131Z" fill="#C82727" stroke="black" stroke-width="0.490875"/>
<path d="M59.6092 71.6972C59.6501 71.7381 59.6888 71.8069 59.7311 71.8665C59.7621 71.9002 59.7944 71.9343 59.8272 71.9676C59.946 72.0868 60.0775 72.1906 60.2305 72.1906C60.4831 72.1906 60.7812 72.2425 61.0011 72.105C61.3648 71.8779 61.7284 71.643 61.9902 71.2939C62.3456 70.8196 62.6788 70.3385 63.0289 69.8615C63.4845 69.2402 63.9556 68.6539 64.606 68.2206C65.0207 67.9438 65.3812 67.5888 65.8464 67.3999C65.962 67.353 66.053 67.2684 66.1664 67.2174C66.4822 67.0754 66.8792 67.0249 67.2169 66.9684C67.8705 66.8587 68.5733 66.9698 69.2092 67.1036C69.6329 67.1928 69.9224 67.384 70.2929 67.6157C70.5924 67.8027 70.7986 68.0963 70.9452 68.4245C71.0931 68.7554 71.5269 68.8965 71.6616 69.2688C71.6935 69.3567 71.7991 69.3922 71.8701 69.4536C72.0426 69.6038 72.1755 69.8014 72.3517 69.9448C72.5274 70.0872 72.6835 70.2579 72.8756 70.374C73.2083 70.5747 73.501 70.8246 73.8455 71.014C74.3075 71.268 74.7636 71.5056 75.2115 71.7873C75.7859 72.1487 76.3617 72.5151 76.9025 72.9211C77.0167 73.0067 77.151 73.0568 77.2393 73.1747C77.319 73.2803 77.3749 73.385 77.4669 73.4805C77.6899 73.7118 77.8301 74.0613 78.0104 74.3272C78.1915 74.5957 78.3458 74.8998 78.5033 75.1833C78.8634 75.8315 79.4728 76.2339 79.9335 76.7915C80.2566 77.1824 80.4351 77.69 80.6781 78.1287C80.9116 78.5502 81.1424 78.9531 81.2994 79.4096C81.4009 79.7036 81.6162 79.9526 81.7478 80.2371C81.9321 80.6367 82.2826 80.9367 82.4806 81.3259C82.7796 81.913 82.6754 82.3723 82.324 82.9244C81.8953 83.5981 81.3208 84.2453 80.5903 84.6104C80.3017 84.7551 80.0436 84.9595 79.7464 85.0847C79.4319 85.2171 79.1055 85.3232 78.8001 85.4761C78.4055 85.6732 77.994 85.8434 77.5857 86.0119C76.4132 86.4962 75.2061 86.7897 73.9334 86.7897C73.2902 86.7897 72.6084 86.858 71.9698 86.7806C71.607 86.7365 71.2005 86.7565 70.8505 86.6618C70.2174 86.4912 69.5592 86.4365 68.9247 86.2586C68.3626 86.1011 67.7604 86.0633 67.1887 85.9363C66.1814 85.7124 65.1149 85.5699 64.1504 85.1916C63.8031 85.0551 63.5391 84.8721 63.2232 84.6791C63.0994 84.6036 63.0052 84.5189 62.9078 84.411C62.7325 84.2171 62.5018 84.0838 62.3315 83.8871C62.0457 83.5571 61.7785 83.2836 61.4353 83C61.1822 82.7915 60.9064 82.5885 60.7617 82.284C60.7139 82.1839 60.7207 82.0528 60.6788 81.9449C60.5345 81.5762 60.5718 81.1661 60.5718 80.7778V78.9804C60.5718 78.7004 60.4662 78.4783 60.3301 78.2425C60.1827 77.9881 59.921 77.5739 59.6661 77.4078C59.4749 77.2835 59.3069 77.1165 59.1299 76.9717C58.9437 76.8192 58.7239 76.7204 58.5418 76.5639C58.408 76.4483 58.2782 76.3213 58.1385 76.2125C58.0798 76.167 57.9628 76.1169 57.925 76.0514C57.8745 75.963 57.7562 75.9098 57.6856 75.8333C57.5527 75.6886 57.4312 75.5243 57.3183 75.3636C57.1399 75.1105 56.9277 74.8797 56.8058 74.5953C56.6587 74.2521 56.4312 73.8961 56.4312 73.5115C56.4312 73.2097 56.4612 72.9685 56.5163 72.679C56.6018 72.2316 56.9068 71.7513 57.2327 71.4555C57.6037 71.1182 58.3624 70.9143 58.8618 70.9976C59.0479 71.0285 59.2145 71.2657 59.3242 71.4031C59.4093 71.5092 59.5131 71.6011 59.6092 71.6972Z" fill="#388329"/>
<path d="M59.8463 71.9771C59.7512 71.9389 59.6838 71.7718 59.6092 71.6972C59.5131 71.6011 59.4093 71.5092 59.3242 71.4031C59.2145 71.2657 59.0479 71.0285 58.8618 70.9976C58.3624 70.9143 57.6037 71.1182 57.2327 71.4555C56.9068 71.7513 56.6018 72.2316 56.5163 72.679C56.4612 72.9685 56.4312 73.2097 56.4312 73.5115C56.4312 73.8961 56.6587 74.2521 56.8058 74.5953C56.9277 74.8797 57.1399 75.1105 57.3183 75.3636C57.4312 75.5243 57.5527 75.6886 57.6856 75.8333C57.7562 75.9098 57.8745 75.963 57.925 76.0514C57.9628 76.1169 58.0798 76.167 58.1385 76.2125C58.2782 76.3213 58.408 76.4483 58.5418 76.5639C58.7239 76.7204 58.9437 76.8192 59.1299 76.9717C59.3069 77.1165 59.4749 77.2835 59.6661 77.4078C59.921 77.5739 60.1827 77.9881 60.3301 78.2425C60.4662 78.4783 60.5718 78.7004 60.5718 78.9804C60.5718 79.5794 60.5718 80.1788 60.5718 80.7778C60.5718 81.1661 60.5345 81.5762 60.6788 81.9449C60.7207 82.0528 60.7139 82.1839 60.7617 82.284C60.9064 82.5885 61.1822 82.7915 61.4353 83C61.7785 83.2836 62.0457 83.5571 62.3315 83.8871C62.5018 84.0838 62.7325 84.2171 62.9078 84.411C63.0052 84.5189 63.0994 84.6036 63.2232 84.6791C63.5391 84.8721 63.8031 85.0551 64.1504 85.1916C65.1149 85.5699 66.1814 85.7124 67.1887 85.9363C67.7604 86.0633 68.3626 86.1011 68.9247 86.2586C69.5592 86.4365 70.2174 86.4912 70.8505 86.6618C71.2005 86.7565 71.607 86.7365 71.9698 86.7806C72.6084 86.858 73.2902 86.7897 73.9334 86.7897C75.2061 86.7897 76.4132 86.4962 77.5857 86.0119C77.994 85.8434 78.4055 85.6732 78.8001 85.4761C79.1055 85.3232 79.4319 85.2171 79.7464 85.0847C80.0436 84.9595 80.3017 84.7551 80.5903 84.6104C81.3208 84.2453 81.8953 83.5981 82.324 82.9244C82.6754 82.3723 82.7796 81.913 82.4806 81.3259C82.2826 80.9367 81.9321 80.6367 81.7478 80.2371C81.6162 79.9526 81.4009 79.7036 81.2994 79.4096C81.1424 78.9531 80.9116 78.5502 80.6781 78.1287C80.4351 77.69 80.2566 77.1824 79.9335 76.7915C79.4728 76.2339 78.8634 75.8315 78.5033 75.1833C78.3458 74.8998 78.1915 74.5957 78.0104 74.3272C77.8301 74.0613 77.6899 73.7118 77.4669 73.4805C77.3749 73.385 77.319 73.2803 77.2393 73.1747C77.151 73.0568 77.0167 73.0067 76.9025 72.9211C76.3617 72.5151 75.7859 72.1487 75.2115 71.7873C74.7636 71.5056 74.3075 71.268 73.8455 71.014C73.501 70.8246 73.2083 70.5747 72.8756 70.374C72.6835 70.2579 72.5274 70.0872 72.3517 69.9448C72.1755 69.8014 72.0426 69.6038 71.8701 69.4536C71.7991 69.3922 71.6935 69.3567 71.6616 69.2688C71.5269 68.8965 71.0931 68.7554 70.9452 68.4245C70.7986 68.0963 70.5924 67.8027 70.2929 67.6157C69.9224 67.384 69.6329 67.1928 69.2092 67.1036C68.5733 66.9698 67.8705 66.8587 67.2169 66.9684C66.8792 67.0249 66.4822 67.0754 66.1664 67.2174C66.053 67.2684 65.962 67.353 65.8464 67.3999C65.3812 67.5888 65.0207 67.9438 64.606 68.2206C63.9556 68.6539 63.4845 69.2402 63.0289 69.8615C62.6788 70.3385 62.3456 70.8196 61.9902 71.2939C61.7284 71.643 61.3648 71.8779 61.0011 72.105C60.7812 72.2425 60.4831 72.1906 60.2305 72.1906C59.9897 72.1906 59.8017 71.9325 59.6328 71.7636" stroke="black" stroke-width="0.490875" stroke-linecap="round"/>
<path d="M62.4072 70.9094C62.6721 71.4078 63.1715 71.6727 63.6357 71.9763C63.9166 72.1598 64.1232 72.2426 64.0695 72.6168C64.0254 72.9281 63.7322 73.2171 63.536 73.4493C63.2984 73.7301 62.9671 73.9809 62.6207 74.1111" stroke="black" stroke-width="0.490875" stroke-linecap="round"/>
<path d="M60.5609 72.4828C60.5354 72.6986 60.4854 72.9007 60.4854 73.1187C60.4854 73.2675 60.5222 73.3955 60.5341 73.5402C60.5473 73.695 60.5823 73.8957 60.6729 74.0263C60.7949 74.2029 60.8918 74.3841 61.0721 74.5043C61.3101 74.6627 61.5131 74.7036 61.7853 74.766C61.9478 74.8033 62.1431 74.7774 62.3106 74.7774C62.433 74.7774 62.5486 74.74 62.6674 74.7114C63.1267 74.6017 63.6046 74.5006 64.0516 74.3486C64.1659 74.3099 64.1768 74.253 64.2646 74.1861C64.439 74.0536 64.6151 73.9316 64.7858 73.7955C65.0398 73.5921 65.322 73.4055 65.6024 73.2407C65.723 73.1697 65.8209 73.0832 65.9328 73.0013C66.1859 72.8151 66.4718 72.6681 66.7553 72.5361C67.3375 72.2644 67.8955 71.999 68.5328 71.8806C68.8669 71.8183 69.1596 71.8333 69.4418 72.029C69.8364 72.3021 70.1928 72.5138 70.1928 73.0318C70.1928 73.3012 70.1846 73.5179 70.0822 73.7687C70.0376 73.8775 70.0358 73.9644 69.9347 74.0459C69.785 74.1674 69.6061 74.258 69.4459 74.3654C69.2383 74.5052 69.0389 74.6713 68.8396 74.8138C68.5669 75.0086 68.2633 75.1415 68.0116 75.3714C67.7936 75.5703 67.5487 75.7796 67.307 75.9485C67.0667 76.116 66.7622 76.3427 66.6247 76.6067C66.4039 77.0318 66.205 77.4724 66.0589 77.9349C65.9893 78.1552 65.977 78.3823 65.9369 78.6099C65.8782 78.9444 65.9069 79.2626 66.0016 79.5876C66.0448 79.7374 66.0835 79.8903 66.1627 80.0287C66.226 80.1397 66.2601 80.2631 66.3225 80.3737C66.3835 80.4825 66.4754 80.5803 66.5423 80.6887C66.6279 80.8284 66.7212 80.9618 66.7999 81.1047C66.8455 81.1875 66.8955 81.2048 66.982 81.2435C67.1623 81.3236 67.3621 81.4361 67.5551 81.4816C67.6748 81.5098 67.8263 81.4843 67.947 81.4843C68.1072 81.4843 68.2674 81.4843 68.4276 81.4843C68.6598 81.4843 68.8919 81.4843 69.124 81.4843C69.3266 81.4843 69.5478 81.3482 69.7249 81.2572C69.9634 81.1347 70.1468 80.8826 70.3189 80.6832C70.5146 80.4561 70.6989 80.2126 70.8369 79.9476C71.0007 79.6331 71.242 79.3386 71.4336 79.0387C71.5943 78.7874 71.815 78.5648 71.9452 78.2949C72.0649 78.0455 72.2401 77.7938 72.4313 77.5958C72.516 77.5075 72.5829 77.4019 72.6776 77.324C72.7918 77.2298 72.6534 77.3809 72.6243 77.4123C72.4823 77.5662 72.3175 77.7014 72.1901 77.8675C71.815 78.3568 71.541 78.9317 71.2893 79.4911C71.1882 79.716 70.9657 79.8926 70.8232 80.0919C70.6921 80.2749 70.4905 80.4137 70.3398 80.5794C70.0949 80.8489 69.7135 81.167 69.7135 81.5658C69.7135 81.6645 69.7135 81.7633 69.7135 81.8626C69.7135 82.0287 69.6571 82.2954 69.739 82.4424C69.8159 82.5808 69.9857 82.6031 70.0412 82.7561C70.0667 82.8261 70.1432 82.9445 70.2037 82.9832C70.4135 83.1165 70.6662 83.1734 70.9129 83.1734C71.247 83.1734 71.5815 83.1989 71.9115 83.1989C72.4054 83.1989 72.8492 83.2039 73.3221 83.046C73.5274 82.9777 73.7408 82.7774 73.8906 82.6272C74.2739 82.2444 74.6585 81.8689 75.0226 81.4647C75.206 81.2613 75.3562 81.041 75.552 80.8512C75.7136 80.6946 75.8387 80.5339 75.968 80.3509C76.0941 80.1734 76.2557 80.0264 76.3704 79.8398C76.3931 79.8024 76.5178 79.6044 76.5661 79.6044C76.5747 79.6044 76.5215 79.6996 76.5215 79.6996C76.4282 79.8648 76.3371 80.0305 76.2343 80.1898C75.7969 80.868 75.3271 81.5471 74.7591 82.1215C74.3767 82.5089 74.024 82.9117 73.658 83.3123C73.5947 83.3819 73.4418 83.4971 73.5014 83.6163C73.526 83.6655 73.5829 83.7178 73.633 83.7397C73.683 83.7611 73.6198 83.6313 73.6066 83.5785C73.5738 83.4493 73.541 83.3227 73.4955 83.1989" stroke="black" stroke-width="0.490875" stroke-linecap="round"/>
<path d="M73.6372 83.5357C73.6563 83.7447 73.8252 83.949 74.0232 84.0205C74.1343 84.0606 74.2471 84.1024 74.3587 84.1398C74.4633 84.1744 74.6154 84.1821 74.7082 84.2413C74.7788 84.2859 74.9003 84.285 74.98 84.295C75.1497 84.3168 75.3277 84.335 75.4993 84.3186C75.7774 84.2913 76.0533 84.2449 76.3223 84.1689C76.406 84.1457 76.4611 84.0824 76.5421 84.0483C76.675 83.9918 76.746 83.8516 76.8407 83.7492C77.0246 83.5512 77.2112 83.3573 77.3874 83.1525C77.5731 82.9372 77.7579 82.7205 77.9504 82.5112C78.1316 82.315 78.3441 82.1388 78.5125 81.9331C78.6409 81.7765 78.7752 81.6304 78.8967 81.4684C78.9859 81.3496 79.0733 81.233 79.1762 81.1252C79.2995 80.9963 79.4024 80.8457 79.518 80.7091C79.5467 80.6754 79.5822 80.6286 79.6013 80.5903" stroke="black" stroke-width="0.490875" stroke-linecap="round"/>
<path d="M37.5954 54.4507C37.8262 54.4416 38.0482 54.473 38.1599 54.5568C38.7539 54.539 39.154 54.4967 39.7097 54.6751C40.7149 54.9978 41.7145 55.4617 42.6378 55.9674C43.2829 56.3206 43.9857 56.5263 44.6904 56.7189C45.2224 56.8636 45.7304 57.0834 46.252 57.26C46.7688 57.4348 47.3353 57.4913 47.8728 57.5673C48.9978 57.7275 50.1546 57.6447 51.2859 57.7211C52.233 57.7858 53.2193 58.0589 54.1457 58.2564C54.3205 58.2937 54.5963 58.3106 54.7138 58.4694C54.7688 58.5445 54.8066 58.5759 54.8999 58.6028C55.2076 58.6907 55.5344 58.743 55.8467 58.8158C56.5167 58.9719 57.2523 59.2637 57.9405 59.2919C58.8485 59.3288 59.7703 59.56 60.6706 59.6911C61.4694 59.8076 62.2332 59.8272 63.0393 59.8272H66.8372C67.6156 59.8272 68.3694 59.8509 69.1354 59.6938C69.6698 59.5846 70.1987 59.4285 70.7413 59.3598C71.5929 59.2523 72.3762 58.5887 73.0007 58.0584C73.658 57.5004 74.089 56.6629 74.3348 55.8313C74.5884 54.9733 75.0012 54.1289 75.3198 53.2908C75.3585 53.1888 75.4796 52.723 75.6507 52.8945C75.7409 52.9843 75.8528 53.081 75.9052 53.1991C76.0554 53.5367 76.4236 53.9227 76.4377 54.3023C76.4568 54.8203 76.4377 55.3424 76.4377 55.8609C76.4377 56.0279 76.4773 56.0816 76.4377 56.2414C76.3007 56.7885 76.0904 57.4389 75.9616 57.9874C75.8638 58.4034 76.4728 58.779 76.3999 59.2C76.2352 60.1508 74.9739 61.1131 74.8965 62.0808C74.836 62.8368 74.0731 63.49 73.4058 63.7872C72.9875 63.9738 72.556 64.094 72.1432 64.2756C71.7103 64.4659 71.1969 64.7185 70.7235 64.7663C70.3311 64.8059 69.9884 64.769 69.6115 64.8728C69.2483 64.9729 68.8855 64.9898 68.5227 65.1272C67.9237 65.3544 67.3593 65.5068 66.7367 65.6507C66.2801 65.7563 65.8427 65.7367 65.3702 65.7367H61.3183C60.8181 65.7367 60.3096 65.7576 59.8099 65.7249C59.2673 65.6889 58.7256 65.6038 58.189 65.5769C56.94 65.5141 55.8276 65.3821 54.6341 65.0148C53.7597 64.7458 52.8276 64.6138 51.9455 64.3493C51.4008 64.1859 50.9266 63.9502 50.3335 63.9292C49.9596 63.9165 49.5838 63.9265 49.2097 63.9265C49.1024 63.9265 49.0245 63.9893 48.9257 64.0212C48.7527 64.0767 48.5934 63.9174 48.4673 63.8259C48.2457 63.6648 48.0914 63.4299 47.7367 63.246C47.1988 62.9674 46.5168 62.8905 45.9858 62.566C45.1163 62.0343 44.131 61.7626 43.2707 61.2232C43.0626 61.0926 42.8721 60.9365 42.6585 60.8149C42.4408 60.6916 42.1932 60.652 41.9752 60.5309C41.2725 60.1408 40.5046 59.9132 39.8132 59.4813C39.4553 59.2573 39.1503 58.9638 38.7987 58.733C38.5645 58.5787 38.2905 58.5154 38.0564 58.3629C37.7332 58.1531 37.3715 58.0302 37.0715 57.7803C36.3698 57.1959 36.1823 56.4712 36.2996 55.5918C36.3552 55.1749 36.6015 54.8854 36.9059 54.6364C37.0358 54.5304 37.3219 54.4617 37.5954 54.4507Z" fill="#973C1F"/>
<path d="M38.1599 54.5568C37.9159 54.3734 37.1455 54.4403 36.9059 54.6364C36.6015 54.8854 36.3552 55.1749 36.2996 55.5918C36.1823 56.4712 36.3698 57.1959 37.0715 57.7803C37.3715 58.0302 37.7332 58.1531 38.0564 58.3629C38.2905 58.5154 38.5645 58.5787 38.7987 58.733C39.1503 58.9638 39.4553 59.2573 39.8132 59.4813C40.5046 59.9132 41.2725 60.1408 41.9752 60.5309C42.1932 60.652 42.4408 60.6916 42.6585 60.8149C42.8721 60.9365 43.0626 61.0926 43.2707 61.2232C44.1309 61.7626 45.1163 62.0343 45.9858 62.566C46.5168 62.8905 47.1988 62.9674 47.7367 63.246C48.0914 63.4299 48.2457 63.6648 48.4673 63.8259C48.5934 63.9174 48.7527 64.0767 48.9257 64.0212C49.0245 63.9893 49.1024 63.9265 49.2097 63.9265C49.5838 63.9265 49.9596 63.9165 50.3335 63.9292C50.9266 63.9502 51.4008 64.1859 51.9455 64.3493C52.8276 64.6138 53.7597 64.7458 54.6341 65.0148C55.8276 65.3821 56.94 65.5141 58.189 65.5769C58.7256 65.6038 59.2673 65.6889 59.8099 65.7249C60.3096 65.7576 60.8181 65.7367 61.3183 65.7367C62.6688 65.7367 64.0193 65.7367 65.3702 65.7367C65.8427 65.7367 66.2801 65.7563 66.7367 65.6507C67.3593 65.5068 67.9237 65.3544 68.5227 65.1272C68.8855 64.9898 69.2483 64.9729 69.6115 64.8728C69.9884 64.769 70.3311 64.8059 70.7235 64.7663C71.1969 64.7185 71.7103 64.4659 72.1432 64.2756C72.556 64.094 72.9875 63.9738 73.4058 63.7872C74.0731 63.49 74.836 62.8368 74.8965 62.0808C74.9739 61.1131 76.2352 60.1508 76.3999 59.2C76.4728 58.779 75.8638 58.4034 75.9616 57.9874C76.0904 57.4389 76.3007 56.7885 76.4377 56.2414C76.4773 56.0816 76.4377 56.0279 76.4377 55.8609C76.4377 55.3424 76.4568 54.8203 76.4377 54.3023C76.4236 53.9227 76.0554 53.5367 75.9052 53.1991C75.8528 53.081 75.7409 52.9843 75.6507 52.8945C75.4796 52.723 75.3585 53.1888 75.3198 53.2908C75.0012 54.1289 74.5884 54.9733 74.3348 55.8313C74.089 56.6629 73.658 57.5004 73.0007 58.0584C72.3762 58.5887 71.5929 59.2523 70.7413 59.3598C70.1987 59.4285 69.6698 59.5846 69.1354 59.6938C68.3694 59.8509 67.6156 59.8272 66.8372 59.8272C65.5714 59.8272 64.3056 59.8272 63.0393 59.8272C62.2332 59.8272 61.4694 59.8076 60.6706 59.6911C59.7703 59.56 58.8485 59.3288 57.9405 59.2919C57.2523 59.2637 56.5167 58.9719 55.8467 58.8158C55.5344 58.743 55.2076 58.6907 54.8999 58.6028C54.8066 58.5759 54.7688 58.5445 54.7138 58.4694C54.5963 58.3106 54.3205 58.2937 54.1457 58.2564C53.2193 58.0589 52.233 57.7858 51.2859 57.7211C50.1546 57.6447 48.9978 57.7275 47.8728 57.5673C47.3353 57.4913 46.7688 57.4348 46.252 57.26C45.7304 57.0834 45.2224 56.8636 44.6904 56.7189C43.9857 56.5263 43.2829 56.3206 42.6378 55.9674C41.7145 55.4617 40.7149 54.9978 39.7097 54.6751C39.154 54.4967 38.7539 54.539 38.1599 54.5568ZM38.1599 54.5568C37.9881 54.5618 37.7334 54.4503 37.5743 54.4503" stroke="black" stroke-width="0.490875" stroke-linecap="round"/>
<path d="M31.9762 24.7721C32.6333 23.2527 33.4737 21.7128 34.5288 20.426C35.0133 19.6186 34.9143 20.1487 35.47 19.3872C35.752 19.0007 35.8435 18.5658 36.1892 18.2064C36.6267 17.7513 37.3656 17.7687 38.0004 17.6115C39.01 17.3615 40.0079 17.0434 41.0102 16.768C42.1352 16.4589 43.3155 16.3088 44.4552 16.0488C46.0359 15.6883 47.5627 15.238 49.1386 14.8769C50.351 14.599 51.5606 13.7138 52.8277 13.7138C54.4843 13.7138 56.1283 13.554 57.782 13.554C58.6586 13.554 59.5262 13.6339 60.401 13.6339C61.2208 13.6339 62.107 13.5881 62.914 13.7315C63.8785 13.903 64.7502 14.3473 65.6842 14.6371C66.1389 14.7783 66.6232 14.9702 67.0156 15.232C68.067 15.9327 69.2901 16.3484 70.4339 16.8612C71.1936 17.2017 71.327 18.282 71.4908 19.0232C71.7007 19.9741 72.1654 20.8658 72.1654 21.8644V23.3382V27.3824C72.1654 28.3934 72.0056 29.359 72.0056 30.3701C72.0056 31.4982 73.8673 31.6796 74.7225 31.8351C76.1236 32.0898 77.5446 32.375 78.8154 33.0514C79.3239 33.3219 80.0025 33.5223 80.5615 33.6871L80.5733 33.6907C81.2638 33.8944 81.389 34.5075 81.7854 35.0802C81.963 35.3363 82.1855 35.7547 82.2383 36.0436C82.3271 36.5333 82.7213 37.5108 82.429 37.9702C82.3353 38.1175 82.0954 38.4429 81.9143 38.463C81.7745 38.4785 81.5783 38.2865 81.4345 38.2454C80.8646 38.0826 80.3808 37.4691 79.7922 37.362C78.6557 37.1554 77.5341 36.8151 76.4449 36.452C75.9419 36.2843 75.4504 36.2 74.9356 36.0835C74.5969 36.0069 74.3042 35.825 73.9679 35.7639C73.6579 35.7075 73.2851 35.5211 73.0621 35.3066C72.7694 35.0246 72.2933 34.997 71.9879 34.7473C71.7084 34.5188 71.5177 34.1517 71.1886 33.9926C70.5982 33.7068 69.8413 33.2306 69.1644 33.2113C68.4562 33.191 67.7516 33.1314 67.0338 33.1314C66.3956 33.1314 65.7707 33.2113 65.1289 33.2113C64.3105 33.2113 63.5872 33.3903 62.7761 33.4865L62.7224 33.4929C61.731 33.6104 60.7096 33.7315 59.7797 34.0858C59.041 34.3673 58.3186 34.6764 57.5776 34.9515C56.9522 35.1838 56.2654 35.2469 55.6245 35.4487C54.391 35.837 53.2249 35.7683 51.931 35.7683C51.3451 35.7683 50.6577 35.8697 50.0753 35.7506C49.0213 35.535 47.914 35.4207 46.8435 35.3244C45.3848 35.1931 43.9525 34.9897 42.5108 34.6851C41.7322 34.5206 41.0095 33.8865 40.2778 33.5664C39.4826 33.2185 38.7443 32.7868 37.9338 32.4566C37.5171 32.2868 37.1706 31.9801 36.7308 31.8218C36.4257 31.712 36.0461 31.7502 35.7275 31.6753C35.3818 31.5939 34.9921 31.4874 34.6443 31.4533C34.4602 31.4353 34.2893 31.0879 34.1293 30.9561C33.9178 30.7819 33.7431 30.5648 33.5345 30.3967C33.0864 30.0358 32.7977 29.6053 32.5933 29.0738C32.4431 28.6832 32.1082 28.3348 31.9363 27.9418C31.7899 27.6073 31.5723 27.311 31.5723 26.9296C31.5723 26.1575 31.6667 25.4879 31.9762 24.7721Z" fill="#C82727" stroke="black" stroke-width="0.490875" stroke-linecap="round"/>
<path d="M79.7934 36.1217C78.8271 36.0573 77.8585 35.7818 76.9094 35.592C76.5016 35.5105 76.061 35.4493 75.665 35.3242C75.4297 35.25 75.1957 35.1733 74.9558 35.1153C74.645 35.0404 74.2967 35.0482 73.9995 34.927C73.6199 34.7724 73.2462 34.6032 72.8607 34.4562C72.5471 34.3367 72.2407 34.2004 71.9367 34.059C71.8038 33.9971 71.6513 33.8697 71.5043 33.8471C70.9203 33.7573 70.2708 33.8442 69.6768 33.8442" stroke="black" stroke-width="0.490875" stroke-linecap="round"/>
<path d="M35.0078 55.4809C35.2943 54.1118 36.7388 53.4002 37.9953 53.1469C38.7748 52.9896 39.512 52.9673 40.3045 52.9673" stroke="black" stroke-width="0.490875" stroke-linecap="round"/>
<path d="M36.8932 51.3958C36.7952 51.2838 38.5064 50.8123 38.7336 50.8123" stroke="black" stroke-width="0.490875" stroke-linecap="round"/>
<path d="M42.7729 45.6497C43.0981 45.7038 43.4562 46.0301 43.7255 46.1983C44.2308 46.5137 44.733 46.8206 45.2517 47.1134C46.124 47.6059 47.0039 48.1319 47.9474 48.475C48.4694 48.6648 48.9981 48.8467 49.5359 48.9912C50.0008 49.1161 50.5064 49.2842 50.9872 49.3279C51.2647 49.3531 51.5467 49.3187 51.8251 49.3403C52.1919 49.3688 52.5252 49.4915 52.8824 49.5448C53.3039 49.6077 53.7347 49.5117 54.1566 49.6022C54.5599 49.6886 54.9832 49.7439 55.3984 49.667C55.7857 49.5953 56.1999 49.6094 56.5782 49.5199C56.8053 49.466 57.037 49.3752 57.2714 49.3752" stroke="black" stroke-width="0.490875" stroke-linecap="round"/>
<path d="M48.2046 54.807C48.4746 54.807 48.76 54.711 49.0275 54.6727C49.6204 54.5872 50.3321 54.4493 50.8679 54.1689C51.0444 54.0765 51.1587 53.9285 51.3467 53.8548C51.6472 53.736 51.9789 53.6472 52.2544 53.4756C53.1936 52.8909 54.034 52.1465 54.9826 51.5754C55.2771 51.398 55.4496 51.263 55.6758 51.0367C55.7769 50.9354 55.9221 50.9012 56.0249 50.8023C56.1069 50.7231 56.1419 50.6096 56.2293 50.543C56.4719 50.3585 56.6185 50.0811 56.8579 49.8897C57.2794 49.5525 57.7887 49.3694 58.2739 49.1515C58.8156 48.9086 59.4123 48.8282 59.8302 48.3884C60.2371 47.9601 60.329 47.5625 60.4934 47.0069C60.6308 46.5441 59.8953 46.4773 59.5908 46.5132C59.1929 46.56 58.7724 46.75 58.4037 46.9072C58.1638 47.0097 57.9235 47.1826 57.6759 47.2563C57.4724 47.3167 57.2967 47.4422 57.1023 47.5256C56.8925 47.6155 56.6704 47.6611 56.4637 47.76C56.1656 47.9029 55.867 48.031 55.5461 48.1091C54.776 48.2965 53.7787 48.278 53.0174 48.1291C52.4146 48.0111 51.8068 47.879 51.202 47.75C50.6668 47.636 50.1542 47.3949 49.611 47.3211C48.4068 47.1576 47.4822 46.4785 46.439 45.9047C46.138 45.7391 45.8211 45.6173 45.5313 45.4259C45.2027 45.2088 44.8448 45.0545 44.5588 44.7875C44.1746 44.429 43.5772 44.2762 43.1523 43.9546C42.9537 43.8043 42.7349 43.6932 42.5389 43.5407C42.4388 43.4629 42.1516 43.3694 42.11 43.2514C42.0552 43.0963 42.0327 43.0976 41.8855 43.012C41.6307 42.8639 41.2985 42.7896 41.0227 42.6629C40.5164 42.4302 40.0078 42.3053 39.4517 42.1941" stroke="black" stroke-width="0.490875" stroke-linecap="round"/>
<path d="M41.4717 42.5526C41.9122 42.5407 42.3781 42.4422 42.7834 42.2733C43.3737 42.0273 43.984 42.1498 44.5913 42.0564C44.8218 42.0209 45.0258 41.9352 45.2671 41.9267C45.6801 41.9122 46.098 41.9515 46.509 41.8992C47.115 41.8221 47.7237 41.7987 48.3294 41.6997C48.9779 41.5939 49.6583 41.6616 50.3144 41.62C51.1174 41.569 51.9334 41.61 52.7383 41.61C53.6539 41.61 54.547 41.4304 55.4664 41.4304C55.8515 41.4304 56.1929 41.5097 56.5538 41.62C56.9243 41.7332 57.2398 42.0209 57.5884 42.1736C58.2402 42.4588 58.6203 43.013 58.8975 43.6399C59.0236 43.9245 59.1037 44.2238 59.222 44.5127C59.3299 44.7765 59.4715 45.0138 59.4715 45.3131C59.4715 45.6879 59.6508 46.0404 59.6508 46.4129" stroke="black" stroke-width="0.490875" stroke-linecap="round"/>
<path d="M38.1949 40.5335C38.1378 40.9407 38.018 41.2745 37.948 41.6806C37.9133 41.8818 37.9011 42.1262 37.9355 42.329C37.9781 42.5798 38.1049 42.611 38.3295 42.6781C38.7317 42.7983 39.0385 42.9109 39.3844 42.6182C39.5344 42.4913 39.6051 42.353 39.6961 42.1843C39.8506 41.8981 40.0594 41.6006 40.1699 41.2966C40.3742 40.7347 40.8316 40.485 41.2671 40.1096C41.708 39.7295 42.2541 39.375 42.7833 39.132C43.4859 38.8095 44.1882 38.4238 44.9728 38.4238" stroke="black" stroke-width="0.490875" stroke-linecap="round"/>
<path d="M44.6172 38.4657C45.1088 38.4657 45.5798 38.4303 46.0706 38.3977C46.7048 38.3557 47.2935 38.198 47.9257 38.198C49.1056 38.198 50.1043 38.4937 51.1578 38.9927C51.493 39.1515 51.8378 39.2773 52.1906 39.3752C52.5359 39.4712 52.7961 39.7473 53.1149 39.9001C53.434 40.053 53.7545 40.102 54.0094 40.3399C54.1418 40.4633 54.2711 40.5846 54.4004 40.714C54.5041 40.8174 54.632 41.0284 54.7914 41.0284" stroke="black" stroke-width="0.490875" stroke-linecap="round"/>
<path d="M38.0386 40.7224C38.0711 40.484 38.2428 40.2491 38.3807 40.0594C38.6488 39.6908 39.1242 39.2946 39.5303 39.1032C39.8252 38.9642 40.1342 38.8454 40.4419 38.7356C40.5873 38.6836 40.8609 38.64 40.954 38.5039C41.0657 38.3407 41.4266 38.2929 41.5979 38.217C41.7685 38.1416 42.0236 38.0879 42.1695 37.9684C42.5209 37.6809 43.054 37.546 43.4743 37.3947C44.3263 37.0879 45.2241 37.0131 46.0965 36.787C46.3271 36.7272 46.6164 36.6989 46.853 36.6765C48.0008 36.5676 49.1731 36.6297 50.3251 36.6297C50.8007 36.6297 51.2772 36.9111 51.7276 37.0674C52.4538 37.3196 53.1691 37.689 53.9123 37.8834C54.5427 38.0484 55.1298 38.2257 55.7311 38.4954C55.8636 38.5549 55.9209 38.6127 55.9947 38.7334C56.083 38.8791 56.2186 38.9613 56.3556 39.0564C56.5695 39.205 56.6997 39.3998 56.8868 39.5749C57.3265 39.986 57.5354 40.5505 57.89 41.0199C57.9774 41.1355 58.0575 41.2559 58.1408 41.3747C58.2778 41.5708 58.4394 41.6526 58.6169 41.7976C58.9242 42.0491 59.2341 42.3028 59.5345 42.5605C59.6406 42.651 59.7548 42.7292 59.8618 42.8176C60.0034 42.9342 60.1058 43.173 60.2064 43.3255C60.4285 43.6635 60.5482 44.0522 60.7225 44.4156C60.8436 44.6675 60.8627 44.9365 60.9501 45.1975" stroke="black" stroke-width="0.490875" stroke-linecap="round"/>
<path d="M52.688 37.1642C52.7145 37.0846 52.8553 37.0857 52.9217 37.0707C53.3885 36.9651 53.8515 36.8592 54.3285 36.8072C54.8069 36.7551 55.2971 36.7817 55.7778 36.7817C56.3358 36.7817 56.9498 37.0527 57.3882 37.3937C57.6076 37.564 57.7241 37.7974 57.9535 37.9632C58.3277 38.2332 58.7514 38.453 59.1055 38.7494C59.3149 38.9247 59.517 39.2247 59.6854 39.4379C59.9581 39.7828 60.2093 40.1485 60.4865 40.4876C60.6932 40.7401 60.8215 41.0002 60.969 41.2951C61.0646 41.4861 61.1561 41.6616 61.2344 41.8603C61.2954 42.0141 61.3036 42.1647 61.3409 42.3279C61.4028 42.5991 61.3646 42.829 61.2007 43.0397C61.0974 43.1722 60.9795 43.214 60.8051 43.2076C60.6527 43.2019 60.5807 43.059 60.4524 43.0163" stroke="black" stroke-width="0.490875" stroke-linecap="round"/>
<path d="M57.813 35.2136C57.8904 35.3599 58.0114 35.4792 58.102 35.6174C58.2527 35.847 58.3419 36.1111 58.4994 36.3378C58.6541 36.5601 58.7634 36.8049 58.884 37.0496C58.9527 37.1892 59.0638 37.341 59.0752 37.5001C59.0825 37.6002 59.1617 37.6045 59.1899 37.6828C59.2527 37.8553 59.4197 38.0013 59.4197 38.1971" stroke="black" stroke-width="0.490875" stroke-linecap="round"/>
<path d="M65.4253 38.3116C65.4981 37.9457 65.9852 37.7763 66.2965 37.6698C66.7357 37.5198 67.2059 37.3463 67.6734 37.3171C68.3266 37.2762 68.9825 37.2788 69.6388 37.2788C70.3889 37.2788 71.1391 37.2788 71.8892 37.2788C72.1327 37.2788 72.3598 37.4131 72.6097 37.4297C72.7631 37.44 72.911 37.4917 72.9984 37.6231" stroke="black" stroke-width="0.490875" stroke-linecap="round"/>
<path d="M63.1299 41.143C63.383 40.8899 63.6947 40.752 63.9965 40.5629C64.5081 40.2425 65.0307 39.8633 65.5924 39.6343C66.0293 39.4564 66.4581 39.2556 66.8996 39.0967C67.109 39.0212 67.332 38.9784 67.5264 38.865C67.9265 38.6316 68.4304 38.6568 68.8905 38.6568C69.7035 38.6568 70.5059 38.6689 71.3152 38.7312C72.3029 38.8071 73.2283 39.1327 74.171 39.4133C74.4432 39.4942 74.5879 39.6288 74.8255 39.7873C74.9625 39.8786 75.2065 40.0189 75.293 40.1485" stroke="black" stroke-width="0.490875" stroke-linecap="round"/>
<path d="M64.4688 41.9845C65.1442 41.319 65.8757 40.865 66.7255 40.463C67.3582 40.1636 68.1083 39.904 68.8143 39.8829C69.7082 39.8563 70.6805 39.8056 71.5066 40.1953C71.8812 40.372 72.2321 40.4988 72.5794 40.7223C72.7447 40.8284 72.9627 40.9331 73.092 41.0857C73.1366 41.1388 73.1675 41.203 73.2108 41.2578C73.2599 41.3203 73.3277 41.3093 73.3805 41.3555C73.6031 41.5502 73.8293 41.7332 74.031 41.9463C74.1803 42.1041 74.3423 42.35 74.4516 42.5413C74.5626 42.7356 74.7265 42.9241 74.7961 43.132" stroke="black" stroke-width="0.490875" stroke-linecap="round"/>
<path d="M64.4601 42.3831C64.4892 42.3633 64.5188 42.3477 64.5488 42.3344C64.9853 42.0743 65.4714 41.5095 65.9689 41.4014C66.8816 41.203 67.9043 41.1325 68.8288 41.2866C68.9485 41.3065 69.2671 41.2955 69.3263 41.429C69.3868 41.5655 69.578 41.6315 69.6918 41.718C70.0031 41.9553 70.3673 42.0834 70.6945 42.2896C70.8033 42.3581 70.9499 42.38 71.071 42.4426C71.2635 42.5424 71.4806 42.5861 71.6786 42.6721C71.9422 42.7867 72.2221 42.9544 72.5011 43.0163C72.66 43.0517 72.8088 43.1265 72.9472 43.2076C73.0437 43.2642 73.1575 43.2599 73.2531 43.3223C73.3618 43.3936 73.4938 43.4385 73.6104 43.4966C73.7337 43.5584 73.8234 43.6752 73.9563 43.7218C74.178 43.7993 74.3819 43.9067 74.6131 43.9811C74.7096 44.0121 74.7842 44.1148 74.8807 44.1256C74.959 44.1343 75.1315 44.2018 75.1698 44.2786C75.2417 44.4226 75.0105 44.7359 74.949 44.8502C74.792 45.1419 74.5885 45.328 74.3072 45.5026C73.502 46.0023 72.7933 46.502 71.8379 46.6861C71.5566 46.7404 71.2894 46.8219 71.0177 46.9093C70.8843 46.9521 70.7155 46.9266 70.5757 46.956C70.36 47.0015 70.1588 47.0708 69.9362 47.0708C69.669 47.0708 69.4683 47.1388 69.2134 47.1813C68.5193 47.297 67.7523 47.2238 67.0482 47.2238C66.532 47.2238 65.9485 47.2898 65.4373 47.2216C65.1929 47.1891 64.938 47.2103 64.7068 47.126C64.6153 47.0928 64.5006 47.109 64.405 47.109C64.0217 47.109 63.659 47.0325 63.2743 47.0325C63.0367 47.0325 62.7746 47.0745 62.5538 46.9752C62.4159 46.9129 62.3176 46.8076 62.1928 46.7244C62.0058 46.5997 62.0208 46.0844 62.0208 45.8935C62.0208 45.4266 62.3066 45.1016 62.5329 44.7248C62.8783 44.1486 63.2256 43.592 63.608 43.0397C63.7978 42.7653 64.187 42.5685 64.4601 42.3831Z" fill="#D9D9D9"/>
<path d="M65.1187 42.0984C64.994 42.0984 64.9221 42.1811 64.8128 42.2343C64.6931 42.2925 64.5738 42.3058 64.4601 42.3831M64.4601 42.3831C64.187 42.5685 63.7978 42.7653 63.608 43.0397C63.2256 43.592 62.8783 44.1486 62.5329 44.7248C62.3066 45.1016 62.0208 45.4266 62.0208 45.8935C62.0208 46.0844 62.0058 46.5997 62.1928 46.7244C62.3176 46.8076 62.4159 46.9129 62.5538 46.9752C62.7746 47.0745 63.0367 47.0325 63.2743 47.0325C63.659 47.0325 64.0217 47.109 64.405 47.109C64.5006 47.109 64.6153 47.0928 64.7068 47.126C64.938 47.2103 65.1929 47.1891 65.4373 47.2216C65.9485 47.2898 66.532 47.2238 67.0482 47.2238C67.7523 47.2238 68.5193 47.297 69.2134 47.1813C69.4683 47.1388 69.669 47.0708 69.9362 47.0708C70.1588 47.0708 70.36 47.0015 70.5757 46.956C70.7155 46.9266 70.8843 46.9521 71.0177 46.9093C71.2894 46.8219 71.5566 46.7404 71.8379 46.6861C72.7933 46.502 73.502 46.0023 74.3072 45.5026C74.5885 45.328 74.792 45.1419 74.949 44.8502C75.0105 44.7359 75.2417 44.4226 75.1698 44.2786C75.1315 44.2018 74.959 44.1343 74.8807 44.1256C74.7842 44.1148 74.7096 44.0121 74.6131 43.9811C74.3819 43.9067 74.178 43.7993 73.9563 43.7218C73.8234 43.6752 73.7337 43.5584 73.6104 43.4966C73.4938 43.4385 73.3618 43.3936 73.2531 43.3223C73.1575 43.2599 73.0437 43.2642 72.9472 43.2076C72.8088 43.1265 72.66 43.0517 72.5011 43.0163C72.2221 42.9544 71.9422 42.7867 71.6786 42.6721C71.4806 42.5861 71.2635 42.5424 71.071 42.4426C70.9499 42.38 70.8033 42.3581 70.6945 42.2896C70.3673 42.0834 70.0031 41.9553 69.6918 41.718C69.578 41.6315 69.3868 41.5655 69.3263 41.429C69.2671 41.2955 68.9485 41.3065 68.8288 41.2866C67.9043 41.1325 66.8816 41.203 65.9689 41.4014C65.4373 41.5169 64.9193 42.1534 64.4601 42.3831Z" stroke="black" stroke-width="0.490875" stroke-linecap="round"/>
<path d="M43.4501 42.1671C42.8845 42.2548 42.3547 42.5491 41.7832 42.5958C41.8429 42.7816 41.6547 43.013 41.8257 43.0926C41.8957 43.1251 41.9245 43.1821 41.9917 43.217C42.1398 43.2943 42.288 43.383 42.4278 43.4745C42.5672 43.5657 42.7113 43.6436 42.8566 43.7276C43.2713 43.9677 43.6714 44.2809 44.1267 44.4425C44.3419 44.5188 44.5112 44.674 44.7065 44.7872C44.8477 44.8691 44.99 44.9463 45.132 45.0265C45.2125 45.072 45.3065 45.0837 45.383 45.1329C45.559 45.246 45.7421 45.3537 45.9 45.4914C46.0275 45.6025 46.1842 45.6968 46.3032 45.8158C46.5074 46.02 46.7087 46.2511 46.9915 46.3488C47.0882 46.3822 47.1847 46.4041 47.2808 46.4349C47.529 46.5147 47.8131 46.5333 48.0489 46.6403C48.4506 46.8225 48.8264 47.0361 49.2446 47.1881C49.4721 47.2709 49.6979 47.3933 49.9424 47.4168C50.0337 47.4256 50.1239 47.4104 50.2115 47.4413C50.3023 47.4733 50.4055 47.5168 50.503 47.5168C50.6834 47.5168 50.8389 47.6183 51.0125 47.6328C51.1273 47.6423 51.203 47.6824 51.3104 47.7232C51.392 47.7542 51.4744 47.7849 51.5572 47.8126C51.6165 47.8324 51.6759 47.8137 51.7327 47.8434C51.8222 47.8901 51.9129 47.8876 52.004 47.9232C52.0932 47.958 52.1796 47.9887 52.2721 48.0147C52.5082 48.0811 52.7694 48.1296 53.0114 48.1668C53.2209 48.199 53.4175 48.2636 53.6314 48.2636C53.8285 48.2636 54.0838 48.31 54.2677 48.2349C54.3565 48.1986 54.4557 48.19 54.5509 48.187C54.6187 48.1849 54.676 48.1531 54.742 48.1487C54.8845 48.1392 55.0056 48.0749 55.1412 48.054L55.1553 48.0518C55.27 48.0342 55.3993 48.0143 55.5081 47.9807C55.8267 47.8817 56.169 47.8445 56.4953 47.7807C56.7052 47.7396 56.8904 47.6484 57.0912 47.5764C57.2241 47.5287 57.3875 47.497 57.5081 47.4211C57.6105 47.3567 57.7302 47.3153 57.8376 47.2583C57.9615 47.1929 58.0812 47.1155 58.1972 47.0381C58.392 46.9085 58.611 46.7783 58.8336 46.7041C59.0775 46.6228 59.4758 46.4397 59.4758 46.1307V45.6105V45.3105C59.4758 45.1716 59.5068 44.9947 59.4471 44.8637C59.3033 44.5474 59.2956 44.1995 59.1877 43.8766C59.1139 43.6546 59.063 43.4332 58.9592 43.2192C58.8659 43.0276 58.7871 42.8447 58.6529 42.6798C58.306 42.2545 57.6847 42.0479 57.1667 41.9352C56.9774 41.8941 56.7735 41.9037 56.5868 41.8596C56.321 41.7969 56.0638 41.715 55.7994 41.649C55.5531 41.5874 55.3351 41.4469 55.0793 41.4469C54.9018 41.4469 54.717 41.4315 54.5399 41.4511C54.4717 41.4587 54.4138 41.4852 54.3442 41.4852C54.0666 41.4852 53.7989 41.5613 53.5285 41.6086C53.3725 41.6358 53.2213 41.6609 53.0678 41.7001C52.8908 41.7452 52.7107 41.7341 52.5295 41.7341C52.234 41.7341 51.945 41.7724 51.6476 41.7724C51.4731 41.7724 51.3013 41.7951 51.1274 41.8064C50.9796 41.8161 50.8301 41.8 50.6828 41.815C50.346 41.849 50.0128 41.849 49.6741 41.849H49.6445C49.3276 41.849 49.0113 41.8682 48.6956 41.8682H45.6149H44.8373C44.7553 41.8682 44.6946 41.9015 44.616 41.9075C44.4564 41.9198 44.2909 41.9731 44.1341 42.0064C43.904 42.0554 43.6831 42.1309 43.4501 42.1671Z" fill="#D9D9D9"/>
<path d="M41.7832 42.5958C42.3547 42.5491 42.8845 42.2548 43.4501 42.1671C43.6831 42.1309 43.904 42.0554 44.1341 42.0064C44.2909 41.9731 44.4564 41.9198 44.616 41.9075C44.6946 41.9015 44.7553 41.8682 44.8373 41.8682C45.0965 41.8682 45.3557 41.8682 45.6149 41.8682C46.6418 41.8682 47.6687 41.8682 48.6956 41.8682C49.0113 41.8682 49.3276 41.849 49.6445 41.849C49.9934 41.849 50.3363 41.85 50.6828 41.815C50.8301 41.8 50.9796 41.8161 51.1274 41.8064C51.3013 41.7951 51.4731 41.7724 51.6476 41.7724C51.945 41.7724 52.234 41.7341 52.5295 41.7341C52.7107 41.7341 52.8908 41.7452 53.0678 41.7001C53.2213 41.6609 53.3725 41.6358 53.5285 41.6086C53.7989 41.5613 54.0666 41.4852 54.3442 41.4852C54.4138 41.4852 54.4717 41.4587 54.5399 41.4511C54.717 41.4315 54.9018 41.4469 55.0793 41.4469C55.3351 41.4469 55.5531 41.5874 55.7994 41.649C56.0638 41.715 56.321 41.7969 56.5868 41.8596C56.7735 41.9037 56.9774 41.8941 57.1667 41.9352C57.6847 42.0479 58.306 42.2545 58.6529 42.6798C58.7871 42.8447 58.8659 43.0276 58.9592 43.2192C59.063 43.4332 59.1139 43.6546 59.1877 43.8766C59.2956 44.1995 59.3033 44.5474 59.4471 44.8637C59.5068 44.9947 59.4758 45.1716 59.4758 45.3105C59.4758 45.4105 59.4758 45.5105 59.4758 45.6105C59.4758 45.7839 59.4758 45.9573 59.4758 46.1307C59.4758 46.4397 59.0775 46.6228 58.8336 46.7041C58.611 46.7783 58.392 46.9085 58.1972 47.0381C58.0812 47.1155 57.9615 47.1929 57.8376 47.2583C57.7302 47.3153 57.6105 47.3567 57.5081 47.4211C57.3875 47.497 57.2241 47.5287 57.0912 47.5764C56.8904 47.6484 56.7052 47.7396 56.4953 47.7807C56.169 47.8445 55.8267 47.8817 55.5081 47.9807C55.3947 48.0158 55.2591 48.0359 55.1412 48.054C55.0056 48.0749 54.8845 48.1392 54.742 48.1487C54.676 48.1531 54.6187 48.1849 54.5509 48.187C54.4557 48.19 54.3565 48.1986 54.2677 48.2349C54.0838 48.31 53.8285 48.2636 53.6314 48.2636C53.4175 48.2636 53.2209 48.199 53.0114 48.1668C52.7694 48.1296 52.5082 48.0811 52.2721 48.0147C52.1796 47.9887 52.0932 47.958 52.004 47.9232C51.9129 47.8876 51.8222 47.8901 51.7327 47.8434C51.6759 47.8137 51.6165 47.8324 51.5572 47.8126C51.4744 47.7849 51.392 47.7542 51.3104 47.7232C51.203 47.6824 51.1273 47.6423 51.0125 47.6328C50.8389 47.6183 50.6834 47.5168 50.503 47.5168C50.4055 47.5168 50.3023 47.4733 50.2115 47.4413C50.1239 47.4104 50.0337 47.4256 49.9424 47.4168C49.6979 47.3933 49.4721 47.2709 49.2446 47.1881C48.8264 47.0361 48.4506 46.8225 48.0489 46.6403C47.8131 46.5333 47.529 46.5147 47.2808 46.4349C47.1847 46.4041 47.0882 46.3822 46.9915 46.3488C46.7087 46.2511 46.5074 46.02 46.3032 45.8158C46.1842 45.6968 46.0275 45.6025 45.9 45.4914C45.7421 45.3537 45.559 45.246 45.383 45.1329C45.3065 45.0837 45.2125 45.072 45.132 45.0265C44.99 44.9463 44.8477 44.8691 44.7065 44.7872C44.5112 44.674 44.3419 44.5188 44.1267 44.4425C43.6714 44.2809 43.2713 43.9677 42.8566 43.7276C42.7113 43.6436 42.5672 43.5657 42.4278 43.4745C42.288 43.383 42.1398 43.2943 41.9917 43.217C41.9245 43.1821 41.8957 43.1251 41.8257 43.0926C41.6547 43.013 41.8429 42.7816 41.7832 42.5958ZM41.7832 42.5958C41.7596 42.5224 41.7832 42.6729 41.7832 42.5958Z" stroke="black" stroke-width="0.490875" stroke-linecap="round"/>
<path d="M62.8989 48.9568C63.0268 48.9568 63.2317 49.0405 63.3277 49.0695C63.7706 49.2035 64.2226 49.3885 64.6809 49.4642C64.8958 49.4997 65.1106 49.5464 65.3259 49.5894C65.6386 49.652 65.9549 49.7051 66.2658 49.7742C66.7975 49.8924 67.3878 49.7718 67.8881 49.6051" stroke="black" stroke-width="0.490875" stroke-linecap="round"/>
<path d="M64.1113 49.6895C64.851 50.0594 65.6566 50.4117 66.2816 50.9642C66.4259 51.0917 66.5237 51.2519 66.6498 51.3964C66.7677 51.5318 66.8983 51.6342 66.9926 51.7879C67.1915 52.1118 67.3003 52.4665 67.4532 52.812C67.5356 52.999 67.6152 53.1924 67.6913 53.3821" stroke="black" stroke-width="0.490875" stroke-linecap="round"/>
<path d="M70.3125 49.2376C70.7791 49.2254 71.2866 49.262 71.7358 49.1562C71.8783 49.1227 71.9802 49.1199 72.1009 49.0341C72.4249 48.8038 72.8196 48.6883 73.1751 48.5188C73.4159 48.4039 73.7022 48.3568 73.8924 48.1665" stroke="black" stroke-width="0.490875" stroke-linecap="round"/>
<path d="M72.4261 49.1257C72.4157 49.2384 72.3669 49.3331 72.3701 49.4483C72.3738 49.5938 72.4666 49.7647 72.4202 49.9087C72.3219 50.2123 71.9477 50.4768 71.6592 50.5696C71.0624 50.7613 70.4388 50.6314 69.833 50.7324" stroke="black" stroke-width="0.490875" stroke-linecap="round"/>
<path d="M64.4742 42.1599C64.5033 42.1401 64.5329 42.1245 64.563 42.1113C64.9995 41.8512 65.4856 41.2864 65.9831 41.1782C66.8957 40.9798 67.9185 40.9094 68.8429 41.0635C68.9627 41.0834 69.2813 41.0724 69.3405 41.2059C69.401 41.3423 69.5922 41.4083 69.706 41.4948C70.0173 41.7321 70.3814 41.8602 70.7087 42.0664C70.8175 42.1349 70.9641 42.1568 71.0851 42.2194C71.2777 42.3193 71.4948 42.3629 71.6928 42.4489C71.9563 42.5635 72.2363 42.7312 72.5153 42.7932C72.6741 42.8285 72.823 42.9033 72.9613 42.9844C73.0578 43.041 73.1716 43.0367 73.2672 43.0992C73.376 43.1704 73.508 43.2154 73.6245 43.2734C73.7479 43.3352 73.8375 43.452 73.9705 43.4987C74.1921 43.5761 74.396 43.6835 74.6273 43.7579C74.7238 43.789 74.7984 43.8917 74.8949 43.9024C74.9732 43.9111 75.1457 43.9786 75.1839 44.0554C75.2559 44.1994 75.0246 44.5127 74.9632 44.627C74.8061 44.9187 74.6027 45.1048 74.3214 45.2794C73.5162 45.7791 72.8075 46.2789 71.8521 46.463C71.5708 46.5172 71.3036 46.5987 71.0319 46.6861C70.8985 46.7289 70.7296 46.7035 70.5899 46.7329C70.3741 46.7783 70.173 46.8476 69.9504 46.8476C69.6832 46.8476 69.4825 46.9157 69.2276 46.9581C68.5334 47.0739 67.7665 47.0006 67.0623 47.0006C66.5462 47.0006 65.9626 47.0666 65.4515 46.9985C65.207 46.9659 64.9521 46.9871 64.7209 46.9029C64.6294 46.8696 64.5147 46.8858 64.4191 46.8858C64.0359 46.8858 63.6731 46.8094 63.2885 46.8094C63.0509 46.8094 62.7887 46.8513 62.568 46.752C62.43 46.6898 62.3317 46.5844 62.207 46.5012C62.0199 46.3766 62.035 45.8612 62.035 45.6704C62.035 45.2034 62.3208 44.8785 62.547 44.5017C62.8925 43.9255 63.2398 43.3688 63.6221 42.8166C63.8119 42.5421 64.2011 42.3454 64.4742 42.1599Z" fill="#D9D9D9"/>
<path d="M65.1329 41.8752C65.0081 41.8752 64.9362 41.9579 64.827 42.0112C64.7073 42.0694 64.588 42.0826 64.4742 42.1599M64.4742 42.1599C64.2011 42.3454 63.8119 42.5421 63.6221 42.8166C63.2398 43.3688 62.8925 43.9255 62.547 44.5017C62.3208 44.8785 62.035 45.2034 62.035 45.6704C62.035 45.8612 62.0199 46.3766 62.207 46.5012C62.3317 46.5844 62.43 46.6898 62.568 46.752C62.7887 46.8513 63.0509 46.8094 63.2885 46.8094C63.6731 46.8094 64.0359 46.8858 64.4191 46.8858C64.5147 46.8858 64.6294 46.8696 64.7209 46.9029C64.9521 46.9871 65.207 46.9659 65.4515 46.9985C65.9626 47.0666 66.5462 47.0006 67.0623 47.0006C67.7665 47.0006 68.5334 47.0739 69.2276 46.9581C69.4825 46.9157 69.6832 46.8476 69.9504 46.8476C70.173 46.8476 70.3741 46.7783 70.5899 46.7329C70.7296 46.7035 70.8985 46.7289 71.0319 46.6861C71.3036 46.5987 71.5708 46.5172 71.8521 46.463C72.8075 46.2789 73.5162 45.7791 74.3214 45.2794C74.6027 45.1048 74.8061 44.9187 74.9632 44.627C75.0246 44.5127 75.2559 44.1994 75.1839 44.0554C75.1457 43.9786 74.9732 43.9111 74.8949 43.9024C74.7984 43.8917 74.7238 43.789 74.6273 43.7579C74.396 43.6835 74.1921 43.5761 73.9705 43.4987C73.8375 43.452 73.7479 43.3352 73.6245 43.2734C73.508 43.2154 73.376 43.1704 73.2672 43.0992C73.1716 43.0367 73.0578 43.041 72.9613 42.9844C72.823 42.9033 72.6741 42.8285 72.5153 42.7932C72.2363 42.7312 71.9563 42.5635 71.6928 42.4489C71.4948 42.3629 71.2777 42.3193 71.0851 42.2194C70.9641 42.1568 70.8175 42.1349 70.7087 42.0664C70.3814 41.8602 70.0173 41.7321 69.706 41.4948C69.5922 41.4083 69.401 41.3423 69.3405 41.2059C69.2813 41.0724 68.9627 41.0834 68.8429 41.0635C67.9185 40.9094 66.8957 40.9798 65.9831 41.1782C65.4515 41.2937 64.9335 41.9303 64.4742 42.1599Z" stroke="black" stroke-width="0.490875" stroke-linecap="round"/>
<path d="M43.4643 41.9439C42.8986 42.0317 42.3689 42.326 41.7973 42.3726C41.8571 42.5584 41.6689 42.7899 41.8399 42.8694C41.9098 42.902 41.9387 42.9589 42.0059 42.9939C42.154 43.0711 42.3022 43.1599 42.442 43.2513C42.5814 43.3426 42.7255 43.4204 42.8707 43.5045C43.2854 43.7446 43.6856 44.0578 44.1408 44.2194C44.356 44.2957 44.5254 44.4508 44.7206 44.564C44.8619 44.6459 45.0042 44.7231 45.1461 44.8034C45.2266 44.8489 45.3206 44.8606 45.3972 44.9098C45.5731 45.0229 45.7562 45.1306 45.9142 45.2683C46.0417 45.3794 46.1984 45.4737 46.3173 45.5927C46.5215 45.7969 46.7229 46.028 47.0056 46.1257C47.1024 46.1591 47.1989 46.1809 47.295 46.2118C47.5432 46.2916 47.8273 46.3102 48.063 46.4172C48.4648 46.5994 48.8406 46.813 49.2587 46.965C49.4862 47.0478 49.712 47.1702 49.9566 47.1937C50.0479 47.2025 50.138 47.1872 50.2257 47.2182C50.3165 47.2502 50.4197 47.2937 50.5172 47.2937C50.6976 47.2937 50.8531 47.3952 51.0267 47.4097C51.1415 47.4192 51.2172 47.4592 51.3246 47.5001C51.4062 47.5311 51.4886 47.5618 51.5714 47.5894C51.6307 47.6092 51.69 47.5906 51.7469 47.6203C51.8363 47.6669 51.927 47.6645 52.0182 47.7001C52.1073 47.7349 52.1938 47.7656 52.2862 47.7915C52.5224 47.858 52.7836 47.9064 53.0256 47.9437C53.2351 47.9759 53.4318 48.0405 53.6457 48.0405C53.8428 48.0405 54.0981 48.0869 54.282 48.0118C54.3703 47.9755 54.47 47.9668 54.5647 47.9639C54.6329 47.9617 54.6903 47.93 54.7563 47.9256C54.8988 47.9161 55.0194 47.8518 55.155 47.8309L55.1696 47.8287C55.2843 47.8111 55.4136 47.7912 55.5224 47.7575C55.841 47.6586 56.1833 47.6214 56.5096 47.5575C56.7195 47.5164 56.9047 47.4253 57.105 47.3533C57.2379 47.3056 57.4018 47.2738 57.5224 47.198C57.6243 47.1336 57.7445 47.0922 57.8519 47.0352C57.9753 46.9698 58.0954 46.8924 58.2115 46.815C58.4059 46.6853 58.6253 46.5552 58.8478 46.481C59.0918 46.3996 59.4901 46.2165 59.4901 45.9076V45.3874V45.0874C59.4901 44.9485 59.521 44.7716 59.4614 44.6406C59.3176 44.3243 59.3094 43.9764 59.202 43.6535C59.1278 43.4315 59.0772 43.2101 58.973 42.996C58.8801 42.8045 58.801 42.6216 58.6667 42.4567C58.3203 42.0314 57.699 41.8247 57.1805 41.7121C56.9916 41.6709 56.7873 41.6806 56.6011 41.6365C56.3353 41.5738 56.0781 41.4919 55.8137 41.4259C55.5674 41.3643 55.3494 41.2237 55.0936 41.2237C54.9161 41.2237 54.7308 41.2084 54.5542 41.228C54.4859 41.2356 54.4281 41.2621 54.3585 41.2621C54.0808 41.2621 53.8132 41.3382 53.5424 41.3855C53.3866 41.4127 53.2354 41.4378 53.082 41.477C52.9049 41.5221 52.7249 41.511 52.5437 41.511C52.2481 41.511 51.9591 41.5493 51.6618 41.5493C51.4873 41.5493 51.3155 41.5719 51.1416 41.5833C50.9938 41.593 50.8442 41.5769 50.6969 41.5918C50.3602 41.6259 50.0269 41.6259 49.6882 41.6259H49.6587C49.3417 41.6259 49.0254 41.645 48.7098 41.645H45.6291H44.8515C44.7695 41.645 44.7088 41.6783 44.6302 41.6844C44.4705 41.6967 44.3051 41.75 44.1483 41.7833C43.9182 41.8323 43.6972 41.9078 43.4643 41.9439Z" fill="#D9D9D9"/>
<path d="M41.7973 42.3726C42.3689 42.326 42.8986 42.0317 43.4643 41.9439C43.6972 41.9078 43.9182 41.8323 44.1483 41.7833C44.3051 41.75 44.4705 41.6967 44.6302 41.6844C44.7088 41.6783 44.7695 41.645 44.8515 41.645C45.1107 41.645 45.3699 41.645 45.6291 41.645C46.656 41.645 47.6829 41.645 48.7098 41.645C49.0254 41.645 49.3417 41.6259 49.6587 41.6259C50.0076 41.6259 50.3504 41.6269 50.6969 41.5918C50.8442 41.5769 50.9938 41.593 51.1416 41.5833C51.3155 41.5719 51.4873 41.5493 51.6618 41.5493C51.9591 41.5493 52.2481 41.511 52.5437 41.511C52.7249 41.511 52.9049 41.5221 53.082 41.477C53.2354 41.4378 53.3866 41.4127 53.5424 41.3855C53.8132 41.3382 54.0808 41.2621 54.3585 41.2621C54.4281 41.2621 54.4859 41.2356 54.5542 41.228C54.7308 41.2084 54.9161 41.2237 55.0936 41.2237C55.3494 41.2237 55.5674 41.3643 55.8137 41.4259C56.0781 41.4919 56.3353 41.5738 56.6011 41.6365C56.7873 41.6806 56.9916 41.6709 57.1805 41.7121C57.699 41.8247 58.3203 42.0314 58.6667 42.4567C58.801 42.6216 58.8801 42.8045 58.973 42.996C59.0772 43.2101 59.1278 43.4315 59.202 43.6535C59.3094 43.9764 59.3176 44.3243 59.4614 44.6406C59.521 44.7716 59.4901 44.9485 59.4901 45.0874C59.4901 45.1874 59.4901 45.2874 59.4901 45.3874C59.4901 45.5608 59.4901 45.7342 59.4901 45.9076C59.4901 46.2165 59.0918 46.3996 58.8478 46.481C58.6253 46.5552 58.4059 46.6853 58.2115 46.815C58.0954 46.8924 57.9753 46.9698 57.8519 47.0352C57.7445 47.0922 57.6243 47.1336 57.5224 47.198C57.4018 47.2738 57.2379 47.3056 57.105 47.3533C56.9047 47.4253 56.7195 47.5164 56.5096 47.5575C56.1833 47.6214 55.841 47.6586 55.5224 47.7575C55.409 47.7926 55.2734 47.8128 55.155 47.8309C55.0194 47.8518 54.8988 47.9161 54.7563 47.9256C54.6903 47.93 54.6329 47.9617 54.5647 47.9639C54.47 47.9668 54.3703 47.9755 54.282 48.0118C54.0981 48.0869 53.8428 48.0405 53.6457 48.0405C53.4318 48.0405 53.2351 47.9759 53.0256 47.9437C52.7836 47.9064 52.5224 47.858 52.2862 47.7915C52.1938 47.7656 52.1073 47.7349 52.0182 47.7001C51.927 47.6645 51.8363 47.6669 51.7469 47.6203C51.69 47.5906 51.6307 47.6092 51.5714 47.5894C51.4886 47.5618 51.4062 47.5311 51.3246 47.5001C51.2172 47.4592 51.1415 47.4192 51.0267 47.4097C50.8531 47.3952 50.6976 47.2937 50.5172 47.2937C50.4197 47.2937 50.3165 47.2502 50.2257 47.2182C50.138 47.1872 50.0479 47.2025 49.9566 47.1937C49.712 47.1702 49.4862 47.0478 49.2587 46.965C48.8406 46.813 48.4648 46.5994 48.063 46.4172C47.8273 46.3102 47.5432 46.2916 47.295 46.2118C47.1989 46.1809 47.1024 46.1591 47.0056 46.1257C46.7229 46.028 46.5215 45.7969 46.3173 45.5927C46.1984 45.4737 46.0417 45.3794 45.9142 45.2683C45.7562 45.1306 45.5731 45.0229 45.3972 44.9098C45.3206 44.8606 45.2266 44.8489 45.1461 44.8034C45.0042 44.7231 44.8619 44.6459 44.7206 44.564C44.5254 44.4508 44.356 44.2957 44.1408 44.2194C43.6856 44.0578 43.2854 43.7446 42.8707 43.5045C42.7255 43.4204 42.5814 43.3426 42.442 43.2513C42.3022 43.1599 42.154 43.0711 42.0059 42.9939C41.9387 42.9589 41.9098 42.902 41.8399 42.8694C41.6689 42.7899 41.8571 42.5584 41.7973 42.3726ZM41.7973 42.3726C41.7738 42.2993 41.7973 42.4497 41.7973 42.3726Z" stroke="black" stroke-width="0.490875" stroke-linecap="round"/>
<mask id="mask1_3904_265" style="mask-type:alpha" maskUnits="userSpaceOnUse" x="41" y="40" width="19" height="9">
<path d="M43.4643 41.9432C42.8986 42.031 42.3689 42.3252 41.7973 42.3719C41.857 42.5577 41.6689 42.7891 41.8399 42.8687C41.9098 42.9012 41.9387 42.9582 42.0058 42.9931C42.154 43.0704 42.3022 43.1591 42.442 43.2506C42.5814 43.3418 42.7255 43.4197 42.8707 43.5038C43.2854 43.7439 43.6856 44.0571 44.1409 44.2186C44.356 44.295 44.5254 44.4501 44.7206 44.5633C44.8619 44.6452 45.0041 44.7224 45.1461 44.8026C45.2266 44.8481 45.3206 44.8598 45.3972 44.909C45.5732 45.0222 45.7562 45.1298 45.9142 45.2675C46.0417 45.3786 46.1983 45.473 46.3174 45.592C46.5216 45.7961 46.7229 46.0273 47.0056 46.1249C47.1023 46.1584 47.1988 46.1802 47.295 46.2111C47.5432 46.2909 47.8273 46.3095 48.063 46.4164C48.4648 46.5986 48.8406 46.8122 49.2587 46.9642C49.4863 47.047 49.712 47.1694 49.9565 47.193C50.0479 47.2017 50.138 47.1865 50.2257 47.2174C50.3165 47.2495 50.4197 47.293 50.5172 47.293C50.6976 47.293 50.8531 47.3944 51.0267 47.4089C51.1414 47.4184 51.2172 47.4585 51.3246 47.4993C51.4062 47.5304 51.4886 47.5611 51.5714 47.5887C51.6308 47.6085 51.69 47.5899 51.7469 47.6195C51.8363 47.6662 51.927 47.6637 52.0182 47.6993C52.1073 47.7342 52.1938 47.7648 52.2862 47.7908C52.5224 47.8572 52.7836 47.9057 53.0256 47.9429C53.2351 47.9752 53.4316 48.0397 53.6456 48.0397C53.8427 48.0397 54.098 48.0861 54.2819 48.011C54.3707 47.9748 54.4699 47.9661 54.565 47.9632C54.6328 47.961 54.6902 47.9292 54.7562 47.9248C54.8987 47.9153 55.0197 47.851 55.1554 47.8302L55.1695 47.828C55.2842 47.8104 55.4135 47.7905 55.5222 47.7568C55.8409 47.6579 56.1831 47.6206 56.5095 47.5568C56.7193 47.5157 56.9046 47.4245 57.1053 47.3525C57.2382 47.3048 57.4016 47.2731 57.5223 47.1972C57.6247 47.1328 57.7444 47.0915 57.8518 47.0345C57.9756 46.9691 58.0953 46.8916 58.2114 46.8143C58.4062 46.6846 58.6251 46.5544 58.8477 46.4802C59.0917 46.3989 59.49 46.2158 59.49 45.9068V45.3867V45.0867C59.49 44.9477 59.5209 44.7709 59.4613 44.6399C59.3175 44.3236 59.3097 43.9757 59.2018 43.6527C59.1281 43.4307 59.0771 43.2093 58.9733 42.9953C58.88 42.8037 58.8013 42.6209 58.667 42.4559C58.3202 42.0306 57.6989 41.824 57.1809 41.7113C56.9915 41.6702 56.7876 41.6798 56.601 41.6358C56.3352 41.573 56.078 41.4912 55.8136 41.4251C55.5673 41.3635 55.3493 41.223 55.0935 41.223C54.916 41.223 54.7312 41.2076 54.5541 41.2273C54.4858 41.2349 54.428 41.2613 54.3584 41.2613C54.0807 41.2613 53.8131 41.3375 53.5427 41.3847C53.3866 41.4119 53.2354 41.437 53.0819 41.4762C52.905 41.5213 52.7249 41.5102 52.5436 41.5102C52.2482 41.5102 51.9591 41.5485 51.6618 41.5485C51.4873 41.5485 51.3155 41.5712 51.1416 41.5826C50.9938 41.5923 50.8443 41.5761 50.6969 41.5911C50.3602 41.6252 50.0269 41.6252 49.6882 41.6251H49.6587C49.3417 41.6251 49.0254 41.6443 48.7098 41.6443H45.6291H44.8515C44.7695 41.6443 44.7087 41.6776 44.6302 41.6836C44.4705 41.6959 44.3051 41.7492 44.1483 41.7826C43.9182 41.8315 43.6972 41.9071 43.4643 41.9432Z" fill="#D9D9D9"/>
<path d="M41.7973 42.3719C42.3689 42.3252 42.8986 42.031 43.4643 41.9432C43.6972 41.9071 43.9182 41.8315 44.1483 41.7826C44.3051 41.7492 44.4705 41.6959 44.6302 41.6836C44.7087 41.6776 44.7695 41.6443 44.8515 41.6443C45.1107 41.6443 45.3699 41.6443 45.6291 41.6443C46.656 41.6443 47.6829 41.6443 48.7098 41.6443C49.0254 41.6443 49.3417 41.6251 49.6587 41.6251C50.0076 41.6251 50.3504 41.6262 50.6969 41.5911C50.8443 41.5761 50.9938 41.5923 51.1416 41.5826C51.3155 41.5712 51.4873 41.5485 51.6618 41.5485C51.9591 41.5485 52.2482 41.5102 52.5436 41.5102C52.7249 41.5102 52.905 41.5213 53.0819 41.4762C53.2354 41.437 53.3866 41.4119 53.5427 41.3847C53.8131 41.3375 54.0807 41.2613 54.3584 41.2613C54.428 41.2613 54.4858 41.2349 54.5541 41.2273C54.7312 41.2076 54.916 41.223 55.0935 41.223C55.3493 41.223 55.5673 41.3635 55.8136 41.4251C56.078 41.4912 56.3352 41.573 56.601 41.6358C56.7876 41.6798 56.9915 41.6702 57.1809 41.7113C57.6989 41.824 58.3202 42.0306 58.667 42.4559C58.8013 42.6209 58.88 42.8037 58.9733 42.9953C59.0771 43.2093 59.1281 43.4307 59.2018 43.6527C59.3097 43.9757 59.3175 44.3236 59.4613 44.6399C59.5209 44.7709 59.49 44.9477 59.49 45.0867C59.49 45.1867 59.49 45.2867 59.49 45.3867C59.49 45.56 59.49 45.7334 59.49 45.9068C59.49 46.2158 59.0917 46.3989 58.8477 46.4802C58.6251 46.5544 58.4062 46.6846 58.2114 46.8143C58.0953 46.8916 57.9756 46.9691 57.8518 47.0345C57.7444 47.0915 57.6247 47.1328 57.5223 47.1972C57.4016 47.2731 57.2382 47.3048 57.1053 47.3525C56.9046 47.4245 56.7193 47.5157 56.5095 47.5568C56.1831 47.6206 55.8409 47.6579 55.5222 47.7568C55.4089 47.7919 55.2733 47.812 55.1554 47.8302C55.0197 47.851 54.8987 47.9153 54.7562 47.9248C54.6902 47.9292 54.6328 47.961 54.565 47.9632C54.4699 47.9661 54.3707 47.9748 54.2819 48.011C54.098 48.0861 53.8427 48.0397 53.6456 48.0397C53.4316 48.0397 53.2351 47.9752 53.0256 47.9429C52.7836 47.9057 52.5224 47.8572 52.2862 47.7908C52.1938 47.7648 52.1073 47.7342 52.0182 47.6993C51.927 47.6637 51.8363 47.6662 51.7469 47.6195C51.69 47.5899 51.6308 47.6085 51.5714 47.5887C51.4886 47.5611 51.4062 47.5304 51.3246 47.4993C51.2172 47.4585 51.1414 47.4184 51.0267 47.4089C50.8531 47.3944 50.6976 47.293 50.5172 47.293C50.4197 47.293 50.3165 47.2495 50.2257 47.2174C50.138 47.1865 50.0479 47.2017 49.9565 47.193C49.712 47.1694 49.4863 47.047 49.2587 46.9642C48.8406 46.8122 48.4648 46.5986 48.063 46.4164C47.8273 46.3095 47.5432 46.2909 47.295 46.2111C47.1988 46.1802 47.1023 46.1584 47.0056 46.1249C46.7229 46.0273 46.5216 45.7961 46.3174 45.592C46.1983 45.473 46.0417 45.3786 45.9142 45.2675C45.7562 45.1298 45.5732 45.0222 45.3972 44.909C45.3206 44.8598 45.2266 44.8481 45.1461 44.8026C45.0041 44.7224 44.8619 44.6452 44.7206 44.5633C44.5254 44.4501 44.356 44.295 44.1409 44.2186C43.6856 44.0571 43.2854 43.7439 42.8707 43.5038C42.7255 43.4197 42.5814 43.3418 42.442 43.2506C42.3022 43.1591 42.154 43.0704 42.0058 42.9931C41.9387 42.9582 41.9098 42.9012 41.8399 42.8687C41.6689 42.7891 41.857 42.5577 41.7973 42.3719ZM41.7973 42.3719C41.7737 42.2985 41.7973 42.449 41.7973 42.3719Z" stroke="black" stroke-width="0.490875" stroke-linecap="round"/>
</mask>
<g mask="url(#mask1_3904_265)">
<path d="M53.0562 49.8151C55.7672 49.8151 57.965 47.6173 57.965 44.9063C57.965 42.1953 55.7672 39.9976 53.0562 39.9976C50.3452 39.9976 48.1475 42.1953 48.1475 44.9063C48.1475 47.6173 50.3452 49.8151 53.0562 49.8151Z" fill="black"/>
<path d="M55.4628 45.782C56.1886 45.415 56.5787 44.7253 56.3341 44.2414C56.0894 43.7575 55.3027 43.6627 54.5769 44.0297C53.8511 44.3966 53.461 45.0864 53.7056 45.5702C53.9503 46.0541 54.737 46.1489 55.4628 45.782Z" fill="#D9D9D9"/>
<path d="M51.2898 46.1189C51.7226 45.9001 51.9552 45.4888 51.8093 45.2003C51.6635 44.9118 51.1944 44.8553 50.7616 45.0741C50.3289 45.2928 50.0963 45.7041 50.2421 45.9926C50.388 46.2811 50.8571 46.3376 51.2898 46.1189Z" fill="#D9D9D9"/>
<path d="M50.8734 43.9041C51.2943 44.145 51.7656 44.1129 51.9262 43.8323C52.0868 43.5517 51.8758 43.129 51.4549 42.8881C51.0341 42.6472 50.5627 42.6794 50.4021 42.9599C50.2415 43.2405 50.4525 43.6633 50.8734 43.9041Z" fill="#D9D9D9"/>
</g>
<mask id="mask2_3904_265" style="mask-type:alpha" maskUnits="userSpaceOnUse" x="61" y="40" width="15" height="8">
<path d="M64.4742 42.1599C64.5033 42.1401 64.5329 42.1245 64.5625 42.1113C64.9994 41.8512 65.4851 41.2864 65.9826 41.1782C66.8952 40.9798 67.9184 40.9094 68.8429 41.0635C68.9621 41.0834 69.2808 41.0724 69.3404 41.2059C69.4009 41.3423 69.5921 41.4083 69.7059 41.4948C70.0172 41.7321 70.3814 41.8602 70.7086 42.0664C70.8174 42.1349 70.964 42.1568 71.0846 42.2194C71.2772 42.3193 71.4947 42.3629 71.6927 42.4489C71.9563 42.5635 72.2362 42.7312 72.5148 42.7932C72.6741 42.8285 72.8229 42.9033 72.9613 42.9844C73.0578 43.041 73.1716 43.0367 73.2672 43.0992C73.3759 43.1704 73.5079 43.2154 73.624 43.2734C73.7478 43.3352 73.8375 43.452 73.9704 43.4987C74.1916 43.5761 74.3955 43.6835 74.6272 43.7579C74.7237 43.789 74.7984 43.8917 74.8949 43.9024C74.9731 43.9111 75.1456 43.9786 75.1839 44.0554C75.2558 44.1994 75.0246 44.5127 74.9627 44.627C74.8056 44.9187 74.6026 45.1048 74.3213 45.2794C73.5161 45.7791 72.807 46.2789 71.852 46.463C71.5707 46.5172 71.3036 46.5987 71.0318 46.6861C70.8984 46.7289 70.7291 46.7035 70.5898 46.7329C70.3736 46.7783 70.1729 46.8476 69.9499 46.8476C69.6831 46.8476 69.482 46.9157 69.2275 46.9581C68.5329 47.0739 67.766 47.0006 67.0623 47.0006C66.5461 47.0006 65.9626 47.0666 65.4514 46.9985C65.207 46.9659 64.9521 46.9871 64.7204 46.9029C64.6294 46.8696 64.5147 46.8858 64.4186 46.8858C64.0354 46.8858 63.6731 46.8094 63.2884 46.8094C63.0508 46.8094 62.7887 46.8513 62.5679 46.752C62.4295 46.6898 62.3317 46.5844 62.2065 46.5012C62.0199 46.3766 62.0344 45.8612 62.0344 45.6704C62.0344 45.2034 62.3207 44.8785 62.5465 44.5017C62.8924 43.9255 63.2397 43.3688 63.6221 42.8166C63.8119 42.5421 64.2006 42.3454 64.4742 42.1599Z" fill="#D9D9D9"/>
<path d="M65.1328 41.8752C65.0081 41.8752 64.9362 41.9579 64.8269 42.0112C64.7072 42.0694 64.588 42.0826 64.4742 42.1599M64.4742 42.1599C64.2006 42.3454 63.8119 42.5421 63.6221 42.8166C63.2397 43.3688 62.8924 43.9255 62.5465 44.5017C62.3207 44.8785 62.0344 45.2034 62.0344 45.6704C62.0344 45.8612 62.0199 46.3766 62.2065 46.5012C62.3317 46.5844 62.4295 46.6898 62.5679 46.752C62.7887 46.8513 63.0508 46.8094 63.2884 46.8094C63.6731 46.8094 64.0354 46.8858 64.4186 46.8858C64.5147 46.8858 64.6294 46.8696 64.7204 46.9029C64.9521 46.9871 65.207 46.9659 65.4514 46.9985C65.9626 47.0666 66.5461 47.0006 67.0623 47.0006C67.766 47.0006 68.5329 47.0739 69.2275 46.9581C69.482 46.9157 69.6831 46.8476 69.9499 46.8476C70.1729 46.8476 70.3736 46.7783 70.5898 46.7329C70.7291 46.7035 70.8984 46.7289 71.0318 46.6861C71.3036 46.5987 71.5707 46.5172 71.852 46.463C72.807 46.2789 73.5161 45.7791 74.3213 45.2794C74.6026 45.1048 74.8056 44.9187 74.9627 44.627C75.0246 44.5127 75.2558 44.1994 75.1839 44.0554C75.1456 43.9786 74.9731 43.9111 74.8949 43.9024C74.7984 43.8917 74.7237 43.789 74.6272 43.7579C74.3955 43.6835 74.1916 43.5761 73.9704 43.4987C73.8375 43.452 73.7478 43.3352 73.624 43.2734C73.5079 43.2154 73.3759 43.1704 73.2672 43.0992C73.1716 43.0367 73.0578 43.041 72.9613 42.9844C72.8229 42.9033 72.6741 42.8285 72.5148 42.7932C72.2362 42.7312 71.9563 42.5635 71.6927 42.4489C71.4947 42.3629 71.2772 42.3193 71.0846 42.2194C70.964 42.1568 70.8174 42.1349 70.7086 42.0664C70.3814 41.8602 70.0172 41.7321 69.7059 41.4948C69.5921 41.4083 69.4009 41.3423 69.3404 41.2059C69.2808 41.0724 68.9621 41.0834 68.8429 41.0635C67.9184 40.9094 66.8952 40.9798 65.9826 41.1782C65.4514 41.2937 64.9334 41.9303 64.4742 42.1599Z" stroke="black" stroke-width="0.490875" stroke-linecap="round"/>
</mask>
<g mask="url(#mask2_3904_265)">
<path d="M68.5186 48.8339C70.823 48.8339 72.6911 46.9658 72.6911 44.6615C72.6911 42.3571 70.823 40.489 68.5186 40.489C66.2143 40.489 64.3462 42.3571 64.3462 44.6615C64.3462 46.9658 66.2143 48.8339 68.5186 48.8339Z" fill="black"/>
<path d="M70.5639 45.4064C71.1809 45.0945 71.5125 44.5082 71.3045 44.0969C71.0966 43.6856 70.4279 43.605 69.8109 43.9169C69.194 44.2288 68.8624 44.8151 69.0704 45.2264C69.2783 45.6377 69.947 45.7183 70.5639 45.4064Z" fill="#D9D9D9"/>
<path d="M67.0174 45.6927C67.3852 45.5067 67.5829 45.1572 67.459 44.9119C67.335 44.6667 66.9363 44.6186 66.5684 44.8046C66.2005 44.9906 66.0029 45.3402 66.1268 45.5854C66.2508 45.8306 66.6495 45.8787 67.0174 45.6927Z" fill="#D9D9D9"/>
<path d="M66.6627 43.8101C67.0204 44.0149 67.4211 43.9875 67.5576 43.749C67.6941 43.5105 67.5148 43.1512 67.157 42.9464C66.7993 42.7417 66.3986 42.769 66.2621 43.0075C66.1256 43.246 66.305 43.6053 66.6627 43.8101Z" fill="#D9D9D9"/>
</g>
<path d="M40.5503 23.0938H39.7026V22.8171H40.0074V20.9188H39.7026V20.6421H40.0949C40.2957 20.9013 40.4942 21.1604 40.6904 21.4197C40.8888 21.6765 41.0885 21.9345 41.2893 22.1937C41.49 21.9345 41.6885 21.6765 41.8847 21.4197C42.0831 21.1604 42.2828 20.9013 42.4836 20.6421H42.8759V20.9188H42.5712V22.8171H42.8759V23.0938H42.0283V22.8171H42.2805V21.4477C42.2828 21.429 42.284 21.4103 42.284 21.3916C42.2863 21.373 42.2886 21.3543 42.291 21.3356C42.2723 21.3613 42.2536 21.3881 42.2349 21.4162C42.2162 21.4441 42.1976 21.471 42.1789 21.4967L41.2893 22.656L40.3611 21.4406C40.3447 21.4197 40.3308 21.4021 40.3191 21.3881C40.3097 21.3741 40.2992 21.3566 40.2876 21.3356C40.2899 21.3543 40.2922 21.373 40.2945 21.3916C40.2969 21.4103 40.298 21.429 40.298 21.4477V22.8171H40.5503V23.0938ZM43.8971 23.0938H43.1196V22.8171H43.4068C43.5679 22.4319 43.729 22.0513 43.8901 21.6753C44.0536 21.297 44.2159 20.9153 44.377 20.53C44.5381 20.9153 44.6992 21.297 44.8603 21.6753C45.0238 22.0513 45.186 22.4319 45.3472 22.8171H45.6344V23.0938H44.8568V22.8171H45.0529C45.0039 22.7004 44.9549 22.5848 44.9058 22.4704C44.8591 22.3559 44.8113 22.2404 44.7622 22.1236H43.9917C43.9263 22.2778 43.8773 22.3933 43.8446 22.4704C43.8119 22.5474 43.7629 22.663 43.6975 22.8171H43.8971V23.0938ZM44.3385 21.29C44.2964 21.3811 44.2556 21.4768 44.2159 21.5772C44.1785 21.6753 44.1435 21.7652 44.1108 21.8469H44.6432L44.4085 21.29L44.3735 21.1745C44.3641 21.2118 44.3559 21.2387 44.349 21.255C44.3443 21.2714 44.3408 21.2831 44.3385 21.29ZM46.7274 23.0938H45.8799V22.8171H46.1495V20.9188H45.8799V20.6421H46.6574V20.9188H46.4402V21.6018C46.4402 21.6204 46.4391 21.6391 46.4367 21.6578C46.4344 21.6765 46.4321 21.6952 46.4297 21.7138L46.4962 21.6333L47.2458 20.9188H47.1162V20.6421H47.8938V20.9188H47.603L46.85 21.6368C47.0065 21.8353 47.1618 22.0326 47.3158 22.2287C47.4723 22.4225 47.6287 22.6187 47.7852 22.8171H48.0374V23.0938H47.2598V22.8171H47.4419C47.3088 22.6514 47.1769 22.4867 47.0461 22.3233C46.9177 22.1575 46.7881 21.9905 46.6574 21.8224L46.4402 22.0291V22.8171H46.7274V23.0938ZM50.0357 23.0938H48.2809V22.8171H48.4771V20.9188H48.2809V20.6421H49.9866V21.1815H49.7099V20.9188H48.7678V21.7208H49.85V21.9975H48.7678V22.8171H49.759V22.5544H50.0357V23.0938ZM52.1795 23.0938H51.3319V22.8171H51.6366V20.9188H51.3319V20.6421H51.7242C51.925 20.9013 52.1235 21.1604 52.3196 21.4197C52.5181 21.6765 52.7177 21.9345 52.9185 22.1937C53.1194 21.9345 53.3178 21.6765 53.514 21.4197C53.7125 21.1604 53.9119 20.9013 54.113 20.6421H54.5049V20.9188H54.2004V22.8171H54.5049V23.0938H53.6574V22.8171H53.9096V21.4477C53.9119 21.429 53.9132 21.4103 53.9132 21.3916C53.9155 21.373 53.9178 21.3543 53.92 21.3356C53.9014 21.3613 53.8827 21.3881 53.8641 21.4162C53.8454 21.4441 53.8267 21.471 53.8081 21.4967L52.9185 22.656L51.9904 21.4406C51.974 21.4197 51.96 21.4021 51.9483 21.3881C51.939 21.3741 51.9285 21.3566 51.9168 21.3356C51.9192 21.3543 51.9215 21.373 51.9238 21.3916C51.9262 21.4103 51.9273 21.429 51.9273 21.4477V22.8171H52.1795V23.0938ZM56.5036 23.0938H54.7489V22.8171H54.9451V20.9188H54.7489V20.6421H56.4544V21.1815H56.1777V20.9188H55.2355V21.7208H56.3179V21.9975H55.2355V22.8171H56.2269V22.5544H56.5036V23.0938ZM57.5974 23.0938H56.7498V22.8171H57.0544V20.9188H56.7498V20.6421H57.1422C57.3429 20.9013 57.5414 21.1604 57.7376 21.4197C57.936 21.6765 58.1354 21.9345 58.3366 22.1937C58.5373 21.9345 58.7358 21.6765 58.9319 21.4197C59.1304 21.1604 59.3298 20.9013 59.5309 20.6421H59.9228V20.9188H59.6183V22.8171H59.9228V23.0938H59.0753V22.8171H59.3275V21.4477C59.3298 21.429 59.3311 21.4103 59.3311 21.3916C59.3334 21.373 59.3357 21.3543 59.3379 21.3356C59.3193 21.3613 59.3006 21.3881 59.282 21.4162C59.2633 21.4441 59.2446 21.471 59.226 21.4967L58.3366 22.656L57.408 21.4406C57.3921 21.4197 57.378 21.4021 57.3661 21.3881C57.357 21.3741 57.3466 21.3566 57.3347 21.3356C57.337 21.3543 57.3393 21.373 57.3416 21.3916C57.3438 21.4103 57.3452 21.429 57.3452 21.4477V22.8171H57.5974V23.0938ZM62.0544 22.9467C61.9611 23.0004 61.861 23.0436 61.7535 23.0763C61.6484 23.1067 61.536 23.1218 61.4172 23.1218C61.2442 23.1218 61.0822 23.0891 60.9301 23.0238C60.7786 22.9584 60.6466 22.8685 60.5346 22.7541C60.4199 22.642 60.3302 22.5101 60.2647 22.3583C60.1996 22.2065 60.1668 22.0442 60.1668 21.8715C60.1668 21.6987 60.1996 21.5364 60.2647 21.3846C60.3302 21.2305 60.4199 21.0963 60.5346 20.9818C60.6466 20.8698 60.7786 20.781 60.9301 20.7156C61.0822 20.6479 61.2442 20.6141 61.4172 20.6141C61.536 20.6141 61.6484 20.6293 61.7535 20.6596C61.861 20.69 61.9625 20.7332 62.0581 20.7892V21.1815H61.7813V20.9678C61.723 20.9421 61.6634 20.9235 61.6029 20.9118C61.5419 20.8978 61.48 20.8908 61.4172 20.8908C61.2838 20.8908 61.1591 20.9165 61.0426 20.9678C60.9279 21.0192 60.8277 21.0893 60.7412 21.178C60.6525 21.269 60.5824 21.3741 60.531 21.4932C60.4818 21.6123 60.4572 21.7384 60.4572 21.8715C60.4572 22.0046 60.4818 22.1306 60.531 22.2497C60.5824 22.3688 60.6525 22.4716 60.7412 22.558C60.8277 22.6467 60.9279 22.7167 61.0426 22.7681C61.1591 22.8195 61.2838 22.8451 61.4172 22.8451C61.5037 22.8451 61.5865 22.8347 61.6657 22.8136C61.7476 22.7903 61.8245 22.7576 61.8969 22.7155L62.0544 22.9467ZM64.4409 22.7541C64.3266 22.8685 64.1924 22.9584 64.038 23.0238C63.8865 23.0891 63.7253 23.1218 63.5547 23.1218C63.3821 23.1218 63.2196 23.0891 63.0681 23.0238C62.916 22.9584 62.7845 22.8685 62.6721 22.7541C62.5578 22.642 62.4677 22.5101 62.4026 22.3583C62.3371 22.2065 62.3043 22.0442 62.3043 21.8715C62.3043 21.701 62.3371 21.5399 62.4026 21.3881C62.4677 21.234 62.5578 21.0998 62.6721 20.9853C62.7845 20.8709 62.916 20.781 63.0681 20.7156C63.2196 20.6479 63.3821 20.6141 63.5547 20.6141C63.7253 20.6141 63.8865 20.6479 64.038 20.7156C64.1924 20.781 64.3266 20.8709 64.4409 20.9853C64.5556 21.0998 64.6452 21.234 64.7108 21.3881C64.7782 21.5399 64.8123 21.701 64.8123 21.8715C64.8123 22.0442 64.7782 22.2065 64.7108 22.3583C64.6452 22.5101 64.5556 22.642 64.4409 22.7541ZM62.8787 22.558C62.9652 22.6467 63.0667 22.7167 63.1837 22.7681C63.3002 22.8195 63.4254 22.8451 63.5583 22.8451C63.6917 22.8451 63.8164 22.8195 63.9329 22.7681C64.0499 22.7167 64.1528 22.6467 64.2415 22.558C64.3275 22.4716 64.3954 22.37 64.4445 22.2532C64.4959 22.1341 64.5214 22.0069 64.5214 21.8715C64.5214 21.7361 64.4959 21.6099 64.4445 21.4932C64.3954 21.3741 64.3275 21.2702 64.2415 21.1815C64.1528 21.0928 64.0499 21.0227 63.9329 20.9713C63.8164 20.92 63.6917 20.8943 63.5583 20.8943C63.4254 20.8943 63.3002 20.92 63.1837 20.9713C63.0667 21.0227 62.9652 21.0928 62.8787 21.1815C62.79 21.2702 62.7199 21.3741 62.6689 21.4932C62.6197 21.6099 62.5952 21.7361 62.5952 21.8715C62.5952 22.0069 62.6197 22.1341 62.6689 22.2532C62.7199 22.37 62.79 22.4716 62.8787 22.558ZM65.9056 23.0938H65.0581V22.8171H65.3344V20.9188H65.0581V20.6421H65.9056V20.9188H65.6252V22.8171H65.9056V23.0938ZM68.5939 20.9188V23.2059L66.8005 21.3005L66.734 21.2095L66.7445 21.3216V22.8171H66.9967V23.0938H66.1491V22.8171H66.4536V20.9188H66.1491V20.6421H66.5551L68.247 22.4739L68.3135 22.565L68.303 22.4529V20.9188H68.0508V20.6421H68.8984V20.9188H68.5939ZM70.4168 22.9397C70.349 22.9981 70.2707 23.0436 70.1819 23.0763C70.0932 23.1067 69.9999 23.1218 69.9016 23.1218C69.8128 23.1218 69.7268 23.1125 69.6426 23.0938C69.5584 23.0728 69.4814 23.0459 69.4113 23.0133C69.3412 22.9806 69.2784 22.9432 69.2224 22.9012C69.1687 22.8591 69.1264 22.8148 69.0964 22.7681V22.3618H69.3727V22.6735C69.4336 22.7202 69.506 22.7611 69.5902 22.7961C69.674 22.8288 69.7687 22.8451 69.8738 22.8451C69.9343 22.8451 69.9926 22.837 70.049 22.8206C70.105 22.8019 70.1551 22.7763 70.1992 22.7436C70.2416 22.7086 70.2753 22.6653 70.3012 22.614C70.3267 22.5626 70.3394 22.5031 70.3394 22.4354C70.3394 22.3933 70.3362 22.3513 70.329 22.3092C70.3244 22.2672 70.3126 22.231 70.2939 22.2007C70.2639 22.1517 70.2275 22.1131 70.1856 22.0851C70.1455 22.0548 70.0991 22.0267 70.0454 22.0011C69.9612 21.966 69.8702 21.9357 69.7723 21.91C69.674 21.8843 69.5829 21.8493 69.4987 21.8049C69.4127 21.7605 69.3403 21.6987 69.2816 21.6193C69.2256 21.5399 69.1965 21.4278 69.1942 21.2831C69.192 21.206 69.2024 21.1289 69.2256 21.0519C69.2493 20.9748 69.2875 20.9048 69.3412 20.8417C69.395 20.7787 69.4664 20.7273 69.5552 20.6876C69.6439 20.6479 69.7523 20.6281 69.8806 20.6281C69.923 20.6281 69.9685 20.6304 70.0172 20.6351C70.0663 20.6398 70.1178 20.6491 70.1715 20.6631C70.2252 20.6771 70.2798 20.6981 70.3363 20.7262C70.3945 20.7542 70.4514 20.7915 70.5079 20.8382V21.1815H70.2311V20.9748C70.1865 20.9562 70.1351 20.9398 70.0768 20.9258C70.0185 20.9118 69.9544 20.9048 69.8843 20.9048C69.8142 20.9048 69.7536 20.9165 69.7022 20.9398C69.6508 20.9608 69.6089 20.99 69.5761 21.0273C69.5456 21.0624 69.5224 21.1033 69.506 21.15C69.4919 21.1943 69.4851 21.2422 69.4851 21.2935C69.4851 21.3636 69.5015 21.4208 69.5338 21.4652C69.5666 21.5072 69.6098 21.5434 69.6635 21.5737C69.7477 21.6181 69.8479 21.6578 69.9648 21.6929C70.0814 21.7255 70.1938 21.7675 70.3012 21.8189C70.3991 21.8656 70.4783 21.938 70.5393 22.0361C70.5998 22.1341 70.6303 22.2684 70.6303 22.4388C70.6303 22.5439 70.6103 22.6385 70.5707 22.7225C70.5333 22.8066 70.4819 22.879 70.4168 22.9397ZM44.7407 26.5951C44.6473 26.6488 44.5468 26.692 44.4394 26.7247C44.3344 26.755 44.2223 26.7702 44.1032 26.7702C43.9304 26.7702 43.7681 26.7375 43.6163 26.6722C43.4646 26.6067 43.3326 26.5169 43.2206 26.4025C43.1061 26.2904 43.0162 26.1584 42.9509 26.0067C42.8855 25.8549 42.8528 25.6926 42.8528 25.5198C42.8528 25.3471 42.8855 25.1847 42.9509 25.033C43.0162 24.8789 43.1061 24.7446 43.2206 24.6302C43.3326 24.5181 43.4646 24.4294 43.6163 24.364C43.7681 24.2963 43.9304 24.2624 44.1032 24.2624C44.2223 24.2624 44.3344 24.2776 44.4394 24.308C44.5468 24.3384 44.6484 24.3816 44.7442 24.4376L44.583 24.6722C44.5107 24.6302 44.4347 24.5975 44.3554 24.5742C44.276 24.5508 44.1919 24.5391 44.1032 24.5391C43.9701 24.5391 43.8451 24.5648 43.7284 24.6162C43.614 24.6676 43.5136 24.7376 43.4272 24.8263C43.3385 24.9174 43.2684 25.0225 43.2171 25.1416C43.168 25.2607 43.1435 25.3868 43.1435 25.5198C43.1435 25.6529 43.168 25.779 43.2171 25.8981C43.2684 26.0172 43.3385 26.1199 43.4272 26.2063C43.5136 26.295 43.614 26.3651 43.7284 26.4165C43.8451 26.4678 43.9701 26.4935 44.1032 26.4935C44.1639 26.4935 44.2234 26.4889 44.2818 26.4795C44.3402 26.4678 44.3962 26.4515 44.4499 26.4305V25.9681H44.0892V25.6914H44.7407V26.5951ZM45.8347 26.7352H44.9871V26.4585H45.1447V24.5602H44.9871V24.2835H45.7226C45.802 24.2835 45.8896 24.2963 45.9853 24.322C46.0834 24.3453 46.1744 24.3839 46.2585 24.4376C46.3426 24.4913 46.4126 24.5602 46.4687 24.6442C46.5247 24.7283 46.5527 24.8298 46.5527 24.9489C46.5527 25.1241 46.5084 25.27 46.4196 25.3868C46.3333 25.5035 46.206 25.5806 46.0378 25.6179L46.4301 26.4585H46.7594V26.7352H46.248L45.7332 25.6389C45.7005 25.6389 45.6748 25.6401 45.6561 25.6424C45.6398 25.6424 45.6152 25.6424 45.5825 25.6424H45.4354V26.4585H45.8347V26.7352ZM45.4354 24.5602V25.3622H45.7402C45.8429 25.3622 45.927 25.3494 45.9923 25.3237C46.0601 25.2957 46.1137 25.2618 46.1535 25.2221C46.1932 25.1824 46.2211 25.138 46.2375 25.089C46.2538 25.04 46.262 24.9933 46.262 24.9489C46.262 24.8976 46.248 24.8485 46.22 24.8018C46.1943 24.7551 46.1593 24.7131 46.1149 24.6757C46.0682 24.6407 46.0122 24.6127 45.9468 24.5917C45.8838 24.5707 45.816 24.5602 45.7437 24.5602H45.4354ZM48.7599 26.7352H47.0051V26.4585H47.2013V24.5602H47.0051V24.2835H48.7108V24.8228H48.4341V24.5602H47.492V25.3622H48.5742V25.6389H47.492V26.4585H48.4832V26.1958H48.7599V26.7352ZM49.7836 26.7352H49.0061V26.4585H49.2933C49.4544 26.0732 49.6155 25.6926 49.7766 25.3167C49.94 24.9384 50.1023 24.5567 50.2634 24.1714C50.4246 24.5567 50.5857 24.9384 50.7468 25.3167C50.9102 25.6926 51.0725 26.0732 51.2336 26.4585H51.5208V26.7352H50.7433V26.4585H50.9394C50.8904 26.3417 50.8414 26.2262 50.7923 26.1117C50.7456 25.9973 50.6978 25.8818 50.6487 25.765H49.8782C49.8128 25.9191 49.7637 26.0347 49.7311 26.1117C49.6984 26.1888 49.6494 26.3044 49.5839 26.4585H49.7836V26.7352ZM50.2249 24.9314C50.1829 25.0225 50.142 25.1182 50.1023 25.2186C50.065 25.3167 50.0299 25.4066 49.9972 25.4883H50.5296L50.295 24.9314L50.2599 24.8158C50.2506 24.8532 50.2424 24.8801 50.2354 24.8964C50.2307 24.9127 50.2272 24.9244 50.2249 24.9314ZM53.1392 26.7352H52.2917V26.4585H52.5929V24.5602H52.043V24.8228H51.7663V24.2835H53.7034V24.8228H53.4266V24.5602H52.8836V26.4585H53.1392V26.7352ZM55.7762 26.7352H54.9983V26.4585H55.2856C55.4467 26.0732 55.6078 25.6926 55.769 25.3167C55.9324 24.9384 56.0949 24.5567 56.256 24.1714C56.4171 24.5567 56.5782 24.9384 56.7394 25.3167C56.9028 25.6926 57.0648 26.0732 57.226 26.4585H57.5132V26.7352H56.7357V26.4585H56.9319C56.8828 26.3417 56.8341 26.2262 56.7849 26.1117C56.738 25.9973 56.6902 25.8818 56.6411 25.765H55.8705C55.8054 25.9191 55.7562 26.0347 55.7234 26.1117C55.6907 26.1888 55.642 26.3044 55.5764 26.4585H55.7762V26.7352ZM56.2173 24.9314C56.1754 25.0225 56.1345 25.1182 56.0949 25.2186C56.0575 25.3167 56.0225 25.4066 55.9897 25.4883H56.5223L56.2874 24.9314L56.2523 24.8158C56.2432 24.8532 56.235 24.8801 56.2278 24.8964C56.2232 24.9127 56.2196 24.9244 56.2173 24.9314ZM59.6466 26.5951C59.5532 26.6488 59.4527 26.692 59.3452 26.7247C59.2405 26.755 59.1281 26.7702 59.0093 26.7702C58.8364 26.7702 58.6743 26.7375 58.5223 26.6722C58.3707 26.6067 58.2387 26.5169 58.1267 26.4025C58.012 26.2904 57.9224 26.1584 57.8568 26.0067C57.7913 25.8549 57.759 25.6926 57.759 25.5198C57.759 25.3471 57.7913 25.1847 57.8568 25.033C57.9224 24.8789 58.012 24.7446 58.1267 24.6302C58.2387 24.5181 58.3707 24.4294 58.5223 24.364C58.6743 24.2963 58.8364 24.2624 59.0093 24.2624C59.1281 24.2624 59.2405 24.2776 59.3452 24.308C59.4527 24.3384 59.5546 24.3816 59.6502 24.4376L59.4891 24.6722C59.4167 24.6302 59.3407 24.5975 59.2615 24.5742C59.1818 24.5508 59.0981 24.5391 59.0093 24.5391C58.8759 24.5391 58.7512 24.5648 58.6343 24.6162C58.52 24.6676 58.4194 24.7376 58.3334 24.8263C58.2446 24.9174 58.1745 25.0225 58.1231 25.1416C58.0739 25.2607 58.0494 25.3868 58.0494 25.5198C58.0494 25.6529 58.0739 25.779 58.1231 25.8981C58.1745 26.0172 58.2446 26.1199 58.3334 26.2063C58.4194 26.295 58.52 26.3651 58.6343 26.4165C58.7512 26.4678 58.8759 26.4935 59.0093 26.4935C59.0699 26.4935 59.1295 26.4889 59.1877 26.4795C59.246 26.4678 59.302 26.4515 59.3557 26.4305V25.9681H58.9952V25.6914H59.6466V26.5951ZM60.6707 26.7352H59.8933V26.4585H60.1805C60.3416 26.0732 60.5027 25.6926 60.6639 25.3167C60.8273 24.9384 60.9893 24.5567 61.1504 24.1714C61.3116 24.5567 61.4727 24.9384 61.6338 25.3167C61.7972 25.6926 61.9597 26.0732 62.1209 26.4585H62.4081V26.7352H61.6302V26.4585H61.8264C61.7772 26.3417 61.7285 26.2262 61.6794 26.1117C61.6325 25.9973 61.5847 25.8818 61.536 25.765H60.7654C60.6998 25.9191 60.6507 26.0347 60.6179 26.1117C60.5856 26.1888 60.5364 26.3044 60.4709 26.4585H60.6707V26.7352ZM61.1118 24.9314C61.0699 25.0225 61.0289 25.1182 60.9893 25.2186C60.952 25.3167 60.9169 25.4066 60.8842 25.4883H61.4167L61.1818 24.9314L61.1468 24.8158C61.1377 24.8532 61.1295 24.8801 61.1227 24.8964C61.1177 24.9127 61.1145 24.9244 61.1118 24.9314ZM63.5009 26.7352H62.6534V26.4585H62.9302V24.5602H62.6534V24.2835H63.5009V24.5602H63.2206V26.4585H63.5009V26.7352ZM66.1892 24.5602V26.8473L64.3958 24.9419L64.3294 24.8509L64.3398 24.9629V26.4585H64.592V26.7352H63.7445V26.4585H64.049V24.5602H63.7445V24.2835H64.1509L65.8423 26.1153L65.9088 26.2063L65.8983 26.0942V24.5602H65.6462V24.2835H66.4937V24.5602H66.1892Z" fill="white"/>
<path d="M41.2852 32.232C41.5088 32.3438 41.7325 32.4293 41.9627 32.5244C42.1456 32.6001 42.2964 32.6974 42.4983 32.7011C43.0675 32.7114 43.6296 32.7532 44.2008 32.7532C44.5853 32.7532 44.9378 32.6489 45.3241 32.6489C45.6824 32.6489 46.057 32.5475 46.4041 32.4607C46.5752 32.4179 46.7313 32.3755 46.9078 32.342C47.1206 32.3017 47.3419 32.2775 47.5578 32.2595C47.6678 32.2503 47.7726 32.1905 47.8865 32.1741C48.2452 32.1223 48.6075 32.132 48.9635 32.0699C49.1873 32.0308 49.3794 31.9323 49.5918 31.8672C50.5696 31.5675 51.5832 31.4238 52.5783 31.1897C53.6202 30.9445 54.6762 30.7922 55.7213 30.5527C56.2925 30.4217 56.9015 30.434 57.486 30.434C57.6822 30.434 57.8788 30.434 58.075 30.434C58.2903 30.434 58.4805 30.3654 58.6917 30.3573C59.0267 30.3444 59.3872 30.4053 59.7181 30.3544C59.9298 30.3218 60.1296 30.3037 60.3508 30.3037C61.1155 30.3037 61.8802 30.3037 62.6453 30.3037C63.9157 30.3037 65.1866 30.3037 66.4569 30.3037" stroke="black" stroke-width="0.396225" stroke-linecap="round"/>
<path d="M66.457 30.3034C66.9204 30.3034 67.392 30.2674 67.8467 30.3613C68.1189 30.4174 68.392 30.4666 68.6632 30.5263C68.7597 30.5476 68.8713 30.59 68.9714 30.59C69.1011 30.59 69.2418 30.6535 69.3638 30.6885C69.6123 30.7594 69.8526 30.8419 70.1052 30.8998C70.6273 31.0197 71.2072 31.0309 71.702 31.2429C72.0597 31.3963 72.5281 31.4459 72.9104 31.4963C73.0283 31.5117 73.1125 31.6063 73.2323 31.6063" stroke="black" stroke-width="0.396225" stroke-linecap="round"/>
<path d="M41.124 32.1404C41.4872 32.5443 41.6764 32.7778 42.1678 32.9846C42.4645 33.1096 42.8488 33.1445 43.0955 33.3419C43.5448 33.7013 44.1086 33.8577 44.6472 34.0794C44.9083 34.1869 45.2329 34.1861 45.5147 34.1861C45.8189 34.1861 46.0933 34.3114 46.3844 34.3114C46.5864 34.3114 46.7715 34.4366 46.9782 34.4366C47.4413 34.4366 47.9044 34.4366 48.3675 34.4366C48.7015 34.4366 49.0355 34.4366 49.3695 34.4366C49.4988 34.4366 49.6282 34.3965 49.7476 34.3531C49.9614 34.2754 50.1907 34.2856 50.4017 34.2093C50.69 34.105 50.9908 33.9543 51.2923 33.9031C51.4809 33.8711 51.663 33.8212 51.8536 33.8104C51.9625 33.8041 52.1866 33.7465 52.292 33.706C52.5099 33.6222 52.7907 33.5989 53.0249 33.5598C53.4701 33.4857 53.821 33.3929 54.2753 33.3929C54.6808 33.3929 55.2002 33.4673 55.5834 33.3279C55.933 33.2007 56.4292 33.2676 56.801 33.2676C57.0436 33.2676 57.2389 33.2005 57.471 33.1864C57.7824 33.1676 58.0924 33.2125 58.3969 33.1238C58.6686 33.0445 59.04 33.009 59.3222 32.9777C60.1921 32.881 61.0806 32.8176 61.9618 32.8083C62.4807 32.8029 62.96 32.7249 63.4829 32.7249C63.9104 32.7249 64.3701 32.7755 64.7938 32.7225C65.7825 32.599 66.8435 32.5996 67.8435 32.5996C68.9049 32.5996 69.9801 32.5476 71.0397 32.6019C71.7184 32.6367 72.4098 32.8459 73.0693 32.9939C73.829 33.1645 74.5946 33.2972 75.3493 33.4764C75.6533 33.5486 75.9123 33.6691 76.1936 33.7918C76.4854 33.919 76.7962 33.9488 77.0866 34.1003C77.3443 34.2346 77.6383 34.2976 77.9028 34.4134C78.0106 34.4605 78.4044 34.433 78.4481 34.5201" stroke="black" stroke-width="0.396225" stroke-linecap="round"/>
<path d="M42.7832 58.5956C44.6535 59.1564 46.3621 60.1696 48.2422 60.7294C48.8379 60.9069 49.4803 60.9147 50.0684 61.0968C50.7238 61.2993 51.3523 61.353 52.0188 61.5037C53.4105 61.8177 54.7779 62.2729 56.1925 62.4864C57.8002 62.7285 59.2932 62.9725 60.9168 62.9725C62.5536 62.9725 64.1935 63.0016 65.8299 62.9725C66.5136 62.9602 67.1631 62.6648 67.8449 62.6102C68.3911 62.5665 69.0848 62.3585 69.5618 62.099C70.7526 61.4522 72.2173 61.3307 73.403 60.6302C74.1372 60.1964 75.9242 59.2524 75.9242 58.2383" stroke="black" stroke-width="0.449376" stroke-linecap="round"/>
</g>
</svg>
