<svg id="a1d5742b-adb2-43d6-a706-d0032e03a6ac" data-name="Layer 1" xmlns="http://www.w3.org/2000/svg" xmlns:xlink="http://www.w3.org/1999/xlink" viewBox="0 0 512 512"><defs><style>.b791bbd2-ca5d-4b54-8410-e8a67da392cc{fill:url(#b8161cf7-93f1-4281-8532-58b2bcd8d849);}.f5c636a0-3c6f-4332-af7e-d18d5f1b3667{fill:url(#bca88d63-6230-4271-b871-23b1f573b9ca);}</style><linearGradient id="b8161cf7-93f1-4281-8532-58b2bcd8d849" x1="192.46" y1="498.96" x2="391.29" y2="38.68" gradientTransform="matrix(1, 0, 0, -1, 0, 514)" gradientUnits="userSpaceOnUse"><stop offset="0" stop-color="#17e2cf"/><stop offset="1" stop-color="#5181fd"/></linearGradient><linearGradient id="bca88d63-6230-4271-b871-23b1f573b9ca" x1="124.16" y1="469.45" x2="322.98" y2="9.2" xlink:href="#b8161cf7-93f1-4281-8532-58b2bcd8d849"/></defs><path class="b791bbd2-ca5d-4b54-8410-e8a67da392cc" d="M166.76,462.53a25.51,25.51,0,0,1,3.6-12.17l.3-.87,65-111.78,1.87-3.48a22.52,22.52,0,0,1,18.38-9.58,23,23,0,0,1,18.64,9.58l1.87,3.48,26.18,44.51c6.05,10.92,20.22,14.63,31.15,8.28a22.55,22.55,0,0,0,11.32-20,18.1,18.1,0,0,0-3.27-11.21L290.8,270.66l-4-6.91c-.45-2.5-1.43-5.06-1.43-7.79s1-5.3,1.43-7.6l4-7.13L380,86.44l3.36-5.7c4.69-5.38,10.73-8.88,18.12-8.88a22.43,22.43,0,0,1,18.12,9.08A14.73,14.73,0,0,1,423,86.33l82.85,143.1c8.2,14.59,8.2,38.43,0,53L403.33,459c-7.93,14.56-29,26.5-45.59,26.5H190C177.4,485.46,166.76,475.19,166.76,462.53Z"/><path class="f5c636a0-3c6f-4332-af7e-d18d5f1b3667" d="M345.05,49.24a25,25,0,0,1-3.59,12.46l-.21.66L276.37,174.2l-1.87,3.45a22.61,22.61,0,0,1-18.64,9.85,22.24,22.24,0,0,1-18.4-9.85l-1.85-3.48-26.18-44.38a22.83,22.83,0,0,0-42.67,11.45,18.77,18.77,0,0,0,3.45,11.48l50.93,88.54,3.81,7.1a26.24,26.24,0,0,1,1.61,7.6c0,2.73-.92,5.29-1.61,7.79l-3.81,6.91L132,425.5l-3.42,5.79c-4.52,5.37-10.87,8.94-18.15,8.94a22.84,22.84,0,0,1-18.14-9.11,19.7,19.7,0,0,1-3.3-5.41L6.3,282.42c-8.4-14.56-8.4-38.4,0-53L108.57,52.87c8-14.5,29.08-26.33,45.48-26.33H322.5A22.74,22.74,0,0,1,345.05,49.24Z"/></svg>