<svg width="512" height="512" viewBox="0 0 512 512" fill="none" xmlns="http://www.w3.org/2000/svg">
<path d="M349.44 35.8398H170.24V215.04H349.44V35.8398Z" fill="white"/>
<path d="M432.384 79.6152L79.616 432.383C177.152 335.103 335.104 335.103 432.384 432.383C477.696 387.327 505.6 324.863 505.6 255.743C505.6 187.135 477.696 124.671 432.384 79.6152ZM291.84 503.039C285.952 503.807 280.064 504.575 273.92 505.087C279.808 504.575 285.952 503.807 291.84 503.039Z" fill="#D95E59"/>
<path d="M429.056 76.2887C428.032 75.2647 426.752 74.2407 425.728 72.9607C423.168 70.4007 420.352 68.0967 417.536 65.7927C417.024 65.2807 416.256 64.7687 415.744 64.2567C414.208 62.9767 412.672 61.6967 411.136 60.4167C408.576 58.3687 406.272 56.5767 403.712 54.7847C400.384 52.2247 396.8 49.9207 393.472 47.6167C391.68 46.3367 389.888 45.3127 388.352 44.2887C382.976 40.9607 377.6 37.8887 372.224 35.0727C370.432 34.0487 368.64 33.2807 366.848 32.2567C363.264 30.4647 359.424 28.6727 355.84 27.1367C350.72 24.8327 345.344 22.7847 340.224 20.9927C337.664 20.2247 335.36 19.2007 332.8 18.4327C331.264 17.9207 329.984 17.6647 328.448 17.1527C317.952 14.0807 307.2 11.5207 296.192 9.72875C294.656 9.47275 293.376 9.21675 292.096 8.96075C289.024 8.44875 286.208 8.19275 283.136 7.93675C280.064 7.68075 277.248 7.42475 274.176 7.16875C271.616 6.91275 268.8 6.91275 265.984 6.65675C264.704 6.65675 263.424 6.65675 262.144 6.65675C257.28 6.40075 252.416 6.65675 247.808 6.65675C246.272 6.65675 244.992 6.65675 243.456 6.91275C241.664 6.91275 239.872 7.16875 238.08 7.16875C236.288 7.16875 234.24 7.42475 232.448 7.68075C230.4 7.93675 228.352 7.93675 226.56 8.44875C225.024 8.70475 223.744 8.70475 222.208 8.96075C221.44 8.96075 220.672 9.21675 219.904 9.21675C218.112 9.47275 216.576 9.72875 214.784 9.98475C212.736 10.2407 210.944 10.7527 208.896 11.0087C207.36 11.2647 205.824 11.5207 204.288 12.0327C203.264 12.2887 202.496 12.5447 201.472 12.5447C199.936 12.8007 199.168 12.8007 198.4 13.0567C197.376 13.3127 196.352 13.5687 195.072 13.8247C193.792 14.0807 192.768 14.3367 191.488 14.8487C190.976 14.8487 190.208 15.1047 189.44 15.3607C188.416 15.6167 187.392 15.8727 186.368 16.1287C185.088 16.3847 184.064 16.8967 183.04 17.1527C182.272 17.4087 181.76 17.6647 180.992 17.9207C179.456 18.4327 177.92 18.9447 176.64 19.4567C176.128 19.4567 175.872 19.7127 175.36 19.9687C173.568 20.4807 172.032 21.2487 170.24 21.7607C168.192 22.2727 166.4 23.0407 164.608 23.8087C161.792 24.8327 158.976 26.1127 156.16 27.3927C153.344 28.6727 150.528 29.9527 147.968 31.2327C146.432 32.0007 144.896 32.7687 143.36 33.5367C141.824 34.3047 140.288 35.0727 138.752 35.8407C95.232 59.1367 59.392 94.9767 36.096 138.497C35.328 140.033 34.56 141.569 33.792 143.105C33.024 144.641 32.256 146.177 31.488 147.713C30.208 150.529 28.928 153.089 27.648 155.905C26.368 158.721 25.344 161.537 24.064 164.353C23.04 166.401 22.272 168.193 21.504 170.241C20.992 171.777 20.48 173.313 19.968 174.849C19.712 175.873 19.2 176.897 18.944 177.921C18.688 178.689 18.432 179.713 18.176 180.481C17.664 181.761 17.408 183.041 16.896 184.321C16.64 184.833 16.64 185.345 16.384 185.857C15.872 187.393 15.36 189.185 15.104 190.721C15.104 190.977 15.104 191.233 14.848 191.489C14.336 193.025 14.08 194.561 13.568 196.097C13.312 196.865 13.056 197.633 13.056 198.401C12.8 199.681 12.544 200.705 12.288 201.985C12.032 202.497 12.032 203.009 11.776 203.777C11.52 205.569 11.008 207.105 10.752 208.897C10.24 210.945 9.98397 212.737 9.72797 214.785C9.47197 216.833 8.95997 218.625 8.70397 220.673C8.19197 223.745 7.93597 226.561 7.67997 229.633C7.42397 232.705 7.16797 235.521 6.91197 238.593C6.65597 241.153 6.65597 243.969 6.39997 246.785C6.39997 248.065 6.39997 249.345 6.39997 250.625C6.14397 255.489 6.39997 260.353 6.39997 264.961C6.39997 266.497 6.39997 267.777 6.65597 269.313C6.65597 271.105 6.91197 272.897 6.91197 274.945C6.91197 276.737 7.16797 278.785 7.42397 280.577C7.67997 282.369 7.67997 284.161 7.93597 286.209C7.93597 286.465 7.93597 286.465 7.93597 286.721C8.19197 288.001 8.19197 289.281 8.44797 290.561C8.70397 291.585 8.70397 292.865 8.95997 293.889C8.95997 294.401 9.21597 294.913 9.21597 295.425C9.47197 296.961 9.72797 298.753 9.98397 300.289C9.98397 300.545 9.98397 300.801 9.98397 301.057C10.24 302.849 10.752 304.897 11.008 306.689C11.264 308.225 11.776 310.017 12.032 311.553C22.528 358.401 46.336 400.129 79.104 432.897L432.384 79.6167C431.36 78.3367 430.08 77.3127 429.056 76.2887ZM299.776 167.681C275.712 192.257 236.288 192.257 211.712 167.681C187.392 143.361 187.392 103.681 211.712 79.6167C236.032 55.5527 275.712 55.2967 299.776 79.6167C323.84 103.937 324.096 143.617 299.776 167.681Z" fill="#FF6666"/>
<path d="M432.384 432.64C412.672 452.352 389.632 468.736 364.288 481.024C358.912 483.584 353.28 486.144 347.648 488.192C345.856 488.96 343.808 489.728 342.016 490.24C340.48 490.752 338.944 491.264 337.664 491.776C336.64 492.032 335.616 492.544 334.592 492.8C333.824 493.056 332.8 493.312 332.032 493.568C330.752 494.08 329.472 494.336 328.192 494.848C327.68 495.104 327.168 495.104 326.656 495.36C325.12 495.872 323.328 496.384 321.792 496.64C321.536 496.64 321.28 496.64 321.024 496.896C319.488 497.408 317.952 497.664 316.416 498.176C315.648 498.432 314.88 498.688 314.112 498.688C312.832 498.944 311.808 499.2 310.528 499.456C310.016 499.712 309.504 499.712 308.736 499.968C306.944 500.224 305.408 500.736 303.616 500.992C301.568 501.504 299.776 501.76 297.728 502.016C295.68 502.272 293.888 502.784 291.84 503.04C285.952 503.808 280.064 504.576 273.92 505.088C271.36 505.344 268.544 505.344 265.728 505.6C264.448 505.6 263.168 505.6 261.888 505.6C257.024 505.856 252.16 505.6 247.552 505.6C246.016 505.6 244.736 505.6 243.2 505.344C241.408 505.344 239.616 505.088 237.568 505.088C235.776 505.088 233.728 504.832 231.936 504.576C230.144 504.32 228.352 504.32 226.304 504.064C226.048 504.064 226.048 504.064 225.792 504.064C224.512 503.808 223.232 503.808 221.952 503.552C220.928 503.296 219.648 503.296 218.624 503.04C218.112 503.04 217.6 502.784 217.088 502.784C215.552 502.528 213.76 502.272 212.224 502.016C211.968 502.016 211.712 502.016 211.456 502.016C209.664 501.76 207.616 501.248 205.824 500.992C157.184 491.008 113.408 466.944 79.616 432.896C177.152 335.104 334.848 335.104 432.384 432.64Z" fill="#FFF4C7"/>
<path d="M233.984 101.632C221.696 113.92 221.696 133.632 233.984 145.92C246.272 158.208 265.984 158.208 278.272 145.92C290.56 133.632 290.56 113.92 278.272 101.632C265.728 89.344 246.016 89.344 233.984 101.632Z" fill="#016273"/>
</svg>
