<svg width="512" height="512" viewBox="0 0 512 512" fill="none" xmlns="http://www.w3.org/2000/svg">
<path d="M256 512C397.385 512 512 397.385 512 256C512 114.615 397.385 0 256 0C114.615 0 0 114.615 0 256C0 397.385 114.615 512 256 512Z" fill="#FF3465"/>
<ellipse cx="144.099" cy="296.813" rx="52.0987" ry="51.9209" fill="white"/>
<path fill-rule="evenodd" clip-rule="evenodd" d="M180.905 409.013V361.593C209.681 353.171 230.692 326.64 230.692 295.214C230.692 263.788 209.681 237.257 180.905 228.835V103H252.385H252.385H314.619C372.755 103 419.883 150.128 419.883 208.264V218.222C419.883 276.357 372.755 323.486 314.619 323.486H252.385L252.385 409.013H180.905ZM252.563 160.966V266.586H300.928C327.246 266.586 348.581 245.251 348.581 218.933V208.62C348.581 182.302 327.246 160.966 300.928 160.966H252.563Z" fill="white"/>
</svg>
