<svg id="Layer_1" data-name="Layer 1" xmlns="http://www.w3.org/2000/svg" viewBox="0 0 512 512"><defs><style>.cls-1{fill:#3f4b80;}.cls-2{fill:#313a62;}.cls-3{fill:#4b5897;}.cls-4{fill:#5161a4;}.cls-5{fill:#1f243e;}.cls-6{fill:#495692;}.cls-7{fill:#5d6cac;}.cls-8{fill:#4f60a3;}</style></defs><g id="Group"><g id="Shape"><polygon class="cls-1" points="435.26 148.19 414.2 132.89 463.45 108.04 435.26 148.19"/><polygon class="cls-2" points="310.08 97.8 371.4 129.32 378.76 180.18 310.08 97.8"/><polygon class="cls-1" points="378.76 180.18 368.99 223.44 310.08 97.8 378.76 180.18"/><polygon class="cls-3" points="368.99 223.44 275.1 104.93 310.19 98.03 368.99 223.44"/><polygon class="cls-4" points="368.99 223.44 267.16 183.63 275.1 104.93 368.99 223.44"/><polygon class="cls-3" points="275.1 104.93 267.16 183.63 162.23 198.36 275.1 104.93"/><polygon class="cls-3" points="368.99 223.44 256.69 253.93 267.16 183.63 368.99 223.44"/><polygon class="cls-1" points="256.69 253.93 368.99 223.44 318.36 247.03 256.69 253.93"/><polygon class="cls-1" points="194.68 264.51 256.69 253.93 257.73 275.1 194.68 264.51"/><polygon class="cls-2" points="257.73 275.1 256.69 253.93 318.36 247.03 257.73 275.1"/><polygon class="cls-1" points="162.23 198.36 267.16 183.63 256.69 253.93 162.23 198.36"/><polygon class="cls-3" points="162.23 198.36 256.69 253.93 194.68 264.51 162.23 198.36"/><polygon class="cls-2" points="162.23 198.36 194.68 264.51 163.38 287.41 162.23 198.36"/><polygon class="cls-4" points="108.96 216.19 121.5 291.55 86.98 239.66 108.96 216.19"/><polygon class="cls-2" points="47.17 240.12 86.98 239.66 87.21 263.94 47.17 240.12"/><polygon class="cls-1" points="50.4 256.57 47.17 240.12 87.21 263.94 50.4 256.57"/><polygon class="cls-3" points="50.4 256.57 27.61 276.71 47.17 240.12 50.4 256.57"/><polygon class="cls-2" points="27.61 276.71 26 288.91 0 284.65 27.61 276.71"/><polygon class="cls-4" points="27.61 276.71 50.4 256.57 26 288.91 27.61 276.71"/><polygon class="cls-1" points="86.98 239.66 121.5 291.55 87.21 298.34 86.98 239.66"/><polygon class="cls-1" points="97.11 337 72.14 388.66 68.46 348.85 97.11 337"/><polygon class="cls-5" points="68.46 348.85 72.14 388.66 57.76 395.56 68.46 348.85"/><polygon class="cls-1" points="72.14 388.66 75.94 408.1 46.25 414.2 72.14 388.66"/><polygon class="cls-2" points="57.76 395.56 72.14 388.66 46.25 414.2 57.76 395.56"/><polygon class="cls-2" points="87.21 298.34 121.5 291.55 68.46 348.85 87.21 298.34"/><polygon class="cls-3" points="121.5 291.55 144.86 318.13 68.46 348.85 121.5 291.55"/><polygon class="cls-3" points="108.96 216.19 162.23 198.36 121.5 291.55 108.96 216.19"/><polygon class="cls-1" points="121.5 291.55 162.23 198.36 163.38 287.41 121.5 291.55"/><polygon class="cls-2" points="144.86 318.13 121.5 291.55 163.38 287.41 144.86 318.13"/><polygon class="cls-3" points="318.36 247.03 367.72 246.68 336.19 294.77 318.36 247.03"/><polygon class="cls-4" points="318.36 247.03 368.99 223.44 367.72 246.68 318.36 247.03"/><polygon class="cls-1" points="308.7 289.6 318.36 247.03 336.19 294.77 308.7 289.6"/><polygon class="cls-3" points="296.85 311.92 308.7 289.6 336.19 294.77 296.85 311.92"/><polygon class="cls-1" points="272.91 327.91 280.39 291.32 308.7 289.6 272.91 327.91"/><polygon class="cls-2" points="272.91 327.91 308.7 289.6 296.85 311.92 272.91 327.91"/><polygon class="cls-6" points="414.2 132.89 461.14 99.98 463.45 108.04 414.2 132.89"/><polygon class="cls-7" points="461.14 99.98 499.57 98.03 463.45 108.04 461.14 99.98"/><polygon class="cls-8" points="436.52 175.12 415.12 160.04 487.49 160.16 436.52 175.12"/><polygon class="cls-6" points="415.12 160.04 477.37 151.99 487.49 160.16 415.12 160.04"/><polygon class="cls-1" points="477.37 151.99 505.9 127.02 487.49 160.16 477.37 151.99"/><polygon class="cls-8" points="487.49 160.16 505.9 127.02 512 129.9 487.49 160.16"/><polygon class="cls-2" points="505.9 127.02 510.96 112.64 512 129.9 505.9 127.02"/></g><polygon id="Shape-2" class="cls-2" points="378.76 180.18 385.67 240.7 368.99 223.44 378.76 180.18"/><polygon id="Shape-3" class="cls-1" points="385.67 240.7 378.76 180.18 436.52 175.12 385.67 240.7"/><polygon id="Shape-4" class="cls-3" points="436.52 175.12 378.76 180.18 371.4 129.32 436.52 175.12"/><polygon id="Shape-5" class="cls-2" points="435.26 148.19 444.58 156.59 415.12 160.04 435.26 148.19"/><polygon id="Shape-6" class="cls-1" points="371.4 129.32 435.26 148.19 415.12 160.04 371.4 129.32"/><polygon id="Shape-7" class="cls-2" points="371.4 129.32 414.2 132.89 435.26 148.19 371.4 129.32"/><polygon id="Shape-8" class="cls-1" points="433.88 270.84 436.52 175.12 459.53 193.87 433.88 270.84"/><polygon id="Shape-9" class="cls-6" points="433.88 270.84 436.52 175.12 385.67 240.7 433.88 270.84"/><polygon id="Shape-10" class="cls-2" points="459.53 193.87 452.17 169.94 436.52 175.12 459.53 193.87"/><polygon id="Shape-11" class="cls-2" points="462.64 257.61 433.88 270.84 459.53 193.87 462.64 257.61"/></g></svg>