<svg xmlns="http://www.w3.org/2000/svg" viewBox="0 0 100 100"><defs><style>.cls-1{fill:#004170;}.cls-2{fill:#fff;}.cls-3{fill:#e30613;}.cls-4{fill:#ceab5d;}</style></defs><g id="Layer_2" data-name="Layer 2"><g id="Layer_1-2" data-name="Layer 1"><path class="cls-1" d="M50,0a50,50,0,1,0,50,50A50.06,50.06,0,0,0,50,0"/><path class="cls-2" d="M49.93,3.59A46.43,46.43,0,0,0,17.1,82.84,46.43,46.43,0,1,0,82.76,17.19,46.13,46.13,0,0,0,49.93,3.59m0,1.84A44.59,44.59,0,1,1,5.34,50,44.58,44.58,0,0,1,49.93,5.43"/><path class="cls-2" d="M36.56,17.89l.2-4.91L40,16.69a33.94,33.94,0,0,0-3.43,1.2m.69-7.44c-.82.27-1.62.55-2.42.86l-.85,13c.77-.47,1.56-.91,2.37-1.31l.13-3a33.66,33.66,0,0,1,4.89-1.71l2,2.3c.88-.19,1.78-.34,2.68-.45ZM72.54,18.5c1.72-.41,4.88,2.73,5.49,4.86.5-.39,1.62-1.21,1.62-1.21-1.34-3.8-6.66-7.6-9.18-5.22-1.5,1.42-.65,3.6.66,5l1.27,1.34c1.29,1.37,2.42,2.72,1.38,3.58s-4.21-1.38-6.07-5.32L66,22.75a12.75,12.75,0,0,0,2.5,3.82,8.49,8.49,0,0,0,4.2,2.64,3.16,3.16,0,0,0,2.79-.59c1.72-1.59,1.1-3.92-1.61-6.77L72.8,20.67c-1.25-1.31-.74-2.06-.26-2.17M22.11,21.83l3.13-3.43A1.89,1.89,0,0,1,28,21l-3.13,3.44ZM29,28.12l-2.6-2.37,3.22-3.55a4,4,0,0,0-.14-5.63,4.07,4.07,0,0,0-5.66.34L19,22.18l8.34,7.6c.52-.58,1.07-1.12,1.63-1.66M49.78,10.58h4.27a1.9,1.9,0,0,1,0,3.79H49.78Zm0,9.3V16.4h2.91l2.51,4c1,.18,2,.41,2.92.68l-3-4.79a4.1,4.1,0,0,0,3.14-3.78,4.19,4.19,0,0,0-4.21-3.93H47.46V20c.76,0,1.53-.09,2.32-.09Zm12.71,2.8L66.9,12.07c-.72-.32-1.45-.63-2.2-.91L60.29,21.77c.75.27,1.48.58,2.2.91"/><path class="cls-3" d="M58.82,49.68a51.28,51.28,0,0,1-6.53-24.94c-.77-.07-1.54-.11-2.33-.11s-1.56,0-2.33.11a51.39,51.39,0,0,1-6.54,24.94Zm.58,1H40.51a51.47,51.47,0,0,1-11.9,13.49,25.53,25.53,0,0,0,7.91,7.71,11.72,11.72,0,0,1-.19-2.07c0-7,6.11-12.74,13.63-12.74s13.63,5.7,13.63,12.74a11.72,11.72,0,0,1-.18,2.07,25.57,25.57,0,0,0,7.9-7.7A51.71,51.71,0,0,1,59.4,50.68"/><path class="cls-2" d="M53.57,24.89A25.54,25.54,0,0,1,72.78,61.64C61.53,53.2,54.69,41.3,53.57,24.89m9.84,47a11.72,11.72,0,0,0,.18-2.07c0-7-6.1-12.74-13.63-12.74s-13.63,5.7-13.63,12.74a11.72,11.72,0,0,0,.19,2.07,25.53,25.53,0,0,1-7.91-7.71,51.47,51.47,0,0,0,11.9-13.49H59.4a51.71,51.71,0,0,0,11.91,13.5,25.57,25.57,0,0,1-7.9,7.7M59.13,74A25.56,25.56,0,0,1,40.8,74a9.84,9.84,0,0,1-1.64-5.44A10.55,10.55,0,0,1,50,58.31,10.55,10.55,0,0,1,60.77,68.57,9.84,9.84,0,0,1,59.13,74M24.42,50.17A25.54,25.54,0,0,1,46.36,24.89c-1.12,16.41-8,28.31-19.22,36.75a25.51,25.51,0,0,1-2.72-11.47M50,24.63c.79,0,1.56,0,2.33.11a51.28,51.28,0,0,0,6.53,24.94H41.09a51.39,51.39,0,0,0,6.54-24.94c.77-.07,1.55-.11,2.33-.11m0-1.84A27.38,27.38,0,1,0,77.34,50.17,27.41,27.41,0,0,0,50,22.79"/><path class="cls-4" d="M54.12,66.73c-1.32,0-2.59,1.06-3.33,3a.3.3,0,0,0,0,.1.22.22,0,0,0,.22.22.21.21,0,0,0,.2-.12h0a2.88,2.88,0,0,1,2.21-1.8.61.61,0,0,1,.6.61.6.6,0,0,1-.6.61H53.3a.09.09,0,0,0-.12,0,.67.67,0,0,0,.18.65,1.1,1.1,0,0,0,.76.31,1.81,1.81,0,1,0,0-3.62m-5,3c-.74-1.94-2-3-3.34-3a1.81,1.81,0,0,0,0,3.62,1.11,1.11,0,0,0,.77-.31.67.67,0,0,0,.18-.65.09.09,0,0,0-.12,0h-.11a.61.61,0,1,1,0-1.21,2.88,2.88,0,0,1,2.21,1.79h0a.21.21,0,0,0,.21.12.22.22,0,0,0,.22-.22.3.3,0,0,0,0-.1m2.66-3.84c0-1-1.36-4.3-1.78-4.3a.16.16,0,0,0-.1,0,10.46,10.46,0,0,0-1.68,4.26c0,.77,1.58,2.82,1.58,3.94a.21.21,0,1,0,.41,0h0c0-1.11,1.57-3.16,1.57-3.93m-.87,5.73a1.37,1.37,0,0,1-.61-.82.3.3,0,0,0-.3-.24.32.32,0,0,0-.3.24,1.33,1.33,0,0,1-.61.82s-.06.06,0,.1a3.37,3.37,0,0,0,.86,1.1c0,.05.07.05.08.05s0,0,.09-.05a3.51,3.51,0,0,0,.86-1.1s0-.07,0-.1"/><path class="cls-2" d="M44.36,86l-1.53-.33L43,85l1.52.35ZM25.53,73.72c-.35-1.31-1.67-2.59-2.67-2.59a1,1,0,0,0-.6.19.9.9,0,0,0-.36.59,1.84,1.84,0,0,0,.42,1.29l.46.61c.35.48.69,1,.62,1.36a.59.59,0,0,1-.26.38.53.53,0,0,1-.28.07c-.62,0-1.67-1.1-2.18-2.68v0l-.45.42h0A5,5,0,0,0,21,75a3.34,3.34,0,0,0,1.53,1.24,1.42,1.42,0,0,0,.48.08,1,1,0,0,0,.57-.16,1.05,1.05,0,0,0,.44-.69,3,3,0,0,0-.8-2l-.4-.54c-.33-.43-.31-.71-.24-.87a.42.42,0,0,1,.33-.25H23c.74,0,1.78,1.21,2,2.16v0h0l.44-.25h0ZM67,79.24l-.55.28-.09,3-2.51-1.71-.55.28L65.19,85l.56-.25L64.45,82h0L67,83.67l.1-3h0l1.46,2.67.53-.3Zm7.26-5.76,4.12.29h0L76,71.58l.41-.46L79.58,74l-.37.46-4.16-.29h0l2.45,2.21-.43.44-3.2-2.88Zm-1.7,1.68,2.92,3.15-.46.41-2.91-3.14Zm-2.53,3,.32,1.61,1.1-.78Zm3.87,1.55-.54.43-1.33-.82-1.56,1.11L70.8,82l-.55.35-.91-4.61.56-.4ZM59,83.27l.36,1.21,1.83-.55a.62.62,0,0,0,.5-.83c-.14-.47-.53-.48-.87-.37Zm1.65-1.14a1.2,1.2,0,0,1,1.63.79,1.12,1.12,0,0,1-.58,1.48L63,85.84l-.65.23-1.32-1.46-1.53.46.52,1.72-.59.17-1.24-4.1Zm-3.89,1.08.09.62L54,84.24l.16,1.11,1.45-.21.08.61L54.22,86l.19,1.29,3-.42.08.61L53.88,88l-.6-4.24ZM50.08,85.8l2,0L52,87c0,.77-.87,1.27-1.94,1.25a2.23,2.23,0,1,1,.09-4.46,2.4,2.4,0,0,1,1.79.81l-.43.43a1.65,1.65,0,0,0-1.31-.62,1.62,1.62,0,1,0-.1,3.23c.74,0,1.28-.32,1.28-.69v-.48l-1.35,0Zm-9.42-3.19-.2.58L39,82.69l-1.22,3.5-.58-.2,1.22-3.5L37,82l.2-.58Zm-7.4-3.17L34,83.5h0l1.51-2.88.55.29-2,3.79-.54-.25-.75-4.11h0l-1.54,2.92L30.72,83l2-3.81Zm-1.88-1.2L29,81.88l-.51-.34,2.39-3.63Zm-3.68-1.8-1.47.7,1,.87Zm-.55,4.16-.55-.41.47-1.53-1.46-1.24-1.45.69-.49-.45,4.28-2,.52.44Z"/></g></g></svg>