<svg xmlns="http://www.w3.org/2000/svg" xmlns:xlink="http://www.w3.org/1999/xlink" viewBox="0 0 94.85 100"><defs><style>.cls-1{fill:url(#linear-gradient);}.cls-2{fill:url(#linear-gradient-2);}</style><linearGradient id="linear-gradient" y1="34.18" x2="74.45" y2="34.18" gradientUnits="userSpaceOnUse"><stop offset="0" stop-color="#f69227"/><stop offset="1" stop-color="#fcca15"/></linearGradient><linearGradient id="linear-gradient-2" x1="27.13" y1="97.2" x2="98.09" y2="24.27" gradientUnits="userSpaceOnUse"><stop offset="0" stop-color="#f26b33"/><stop offset="1" stop-color="#fcca15"/></linearGradient></defs><g id="Layer_2" data-name="Layer 2"><g id="Layer_1-2" data-name="Layer 1"><path class="cls-1" d="M51.91,0c.78,6.18-1.58,11.65-5.5,16.31C42,21.53,37,26.24,32.35,31.22a34.56,34.56,0,0,0-5.07,6.71c15.29-7.83,34.07-8.09,46.13-23.14,2,4.51,1,7.91-1.66,10.36C67.5,29.09,63.1,33.05,58.17,36,50.62,40.6,42.62,44.42,34.73,48.4c-7.67,3.86-16.94,10.86-21.85,18.23-2.44,3.67-3.25.76-6.45-1.76C-.11,59.71-2.16,49.16,2.62,41.23a53.51,53.51,0,0,1,9.34-11c3.49-3.3,7.58-6,11.44-8.9C32.8,14.3,42.22,7.26,51.91,0Z"/><path class="cls-2" d="M90,61.37A124.8,124.8,0,0,1,73.81,76.18C63.35,84.3,52.5,91.93,41.49,100a21.07,21.07,0,0,1,5.32-16.85C50.49,78.86,54.76,75.09,58.7,71a63.19,63.19,0,0,0,8-9.69c-11.24,6-24.54,7.41-35.43,14l-.23.15-1.21.76c-5.42,3.43-8.74,5.79-10.46,7-1,.71-1.41,1.07-1.41,1.07s-.6-8.7,8.93-14.84h0A184.58,184.58,0,0,1,45.81,58c6.57-3.61,13.71-6.26,20-10.27a73.37,73.37,0,0,0,13.75-12c2.81-3,5-3.32,8.08-1A17.83,17.83,0,0,1,90,61.37Z"/></g></g></svg>