<svg width="512" height="512" viewBox="0 0 512 512" fill="none" xmlns="http://www.w3.org/2000/svg">
<circle cx="256" cy="256" r="256" fill="white"/>
<path fill-rule="evenodd" clip-rule="evenodd" d="M231.276 74C231.574 74.226 231.872 74.452 232.175 74.6725C232.221 74.7071 232.267 74.7474 232.312 74.7881C232.428 74.8903 232.546 74.9946 232.672 75.0143C232.788 75.0322 232.903 75.045 233.017 75.0577C233.605 75.123 234.156 75.1842 234.521 75.9183C234.626 76.1242 235.072 76.1572 235.538 76.1918C235.758 76.2081 235.982 76.2247 236.177 76.2601L236.398 77.0484C236.467 77.0596 236.536 77.0702 236.606 77.0808C237.327 77.1908 238.087 77.3066 238.429 78.1509C238.943 78.1131 239.248 78.4518 239.553 78.79C239.872 79.1427 240.19 79.4948 240.742 79.4188C240.911 79.7982 241.263 79.975 241.616 80.152C242.022 80.3555 242.428 80.5595 242.558 81.0725C243.017 81.1123 243.283 81.4118 243.557 81.7205C243.776 81.968 244.001 82.2214 244.335 82.3514C244.839 82.5474 245.24 82.9245 245.644 83.3029C245.842 83.4886 246.04 83.6747 246.251 83.8398C246.379 83.9396 246.521 84.0231 246.662 84.1061C246.848 84.2155 247.033 84.324 247.183 84.4682C247.295 84.5754 247.384 84.7348 247.468 84.8868L247.468 84.887C247.583 85.0946 247.69 85.2885 247.84 85.3171C248.36 85.409 248.535 85.7038 248.745 86.058C248.787 86.1288 248.83 86.2019 248.878 86.2763C248.954 86.3967 249.109 86.4601 249.274 86.5274C249.562 86.6451 249.879 86.7746 249.855 87.241C250.339 87.241 250.561 87.5605 250.79 87.8879C250.964 88.139 251.143 88.3947 251.444 88.5144C251.964 88.7775 252.416 89.1544 252.769 89.6169C253.558 90.5221 254.477 91.2845 255.394 92.0464L255.395 92.0465C256.12 92.6487 256.845 93.2505 257.505 93.9221C257.87 94.2942 258.226 94.6686 258.583 95.0437L258.584 95.0447C259.014 95.4972 259.446 95.9508 259.895 96.4028C260.289 96.7865 260.698 97.1558 261.108 97.5254L261.108 97.5255C261.645 98.0107 262.184 98.4963 262.688 99.0157C263.182 99.5243 263.62 100.045 264.052 100.559C264.398 100.97 264.74 101.378 265.106 101.772C265.589 102.306 266.085 102.828 266.58 103.35L266.58 103.351L266.581 103.352C267.046 103.842 267.51 104.332 267.965 104.831C268.075 104.953 268.16 105.117 268.243 105.278C268.362 105.509 268.478 105.732 268.66 105.807C269.118 105.994 269.378 106.143 269.483 106.667C269.503 106.779 269.72 106.873 269.916 106.959C270.088 107.034 270.244 107.102 270.239 107.169C270.203 107.671 270.549 107.826 270.876 107.973C271.145 108.093 271.4 108.207 271.42 108.503C271.446 108.872 271.728 109.015 272.002 109.154C272.304 109.307 272.596 109.455 272.524 109.897C272.989 109.897 273.176 110.239 273.363 110.581C273.547 110.917 273.731 111.253 274.18 111.264C274.204 111.731 274.519 111.974 274.84 112.222C275.108 112.428 275.381 112.639 275.494 112.984C275.727 113.448 276.072 113.846 276.498 114.142C276.793 114.407 277.021 114.744 277.241 115.067C277.433 115.35 277.618 115.623 277.834 115.829C277.988 115.975 278.115 116.174 278.246 116.38C278.509 116.793 278.79 117.234 279.346 117.334C279.424 117.362 279.492 117.409 279.546 117.47C279.6 117.532 279.638 117.606 279.655 117.686C279.655 118.041 279.88 118.17 280.101 118.297C280.19 118.348 280.278 118.399 280.351 118.464C280.806 118.838 281.202 119.279 281.527 119.77C281.67 120.081 281.934 120.281 282.191 120.476C282.536 120.738 282.869 120.991 282.884 121.49C283.881 122.076 284.623 123.011 284.965 124.114C285.338 124.217 285.521 124.525 285.705 124.835C285.904 125.171 286.104 125.508 286.549 125.586C286.625 125.62 286.691 125.672 286.742 125.737C286.793 125.802 286.828 125.879 286.842 125.961C286.875 126.369 287.008 126.6 287.466 126.65C287.609 126.65 287.825 126.92 287.841 127.08C287.836 127.167 287.85 127.255 287.882 127.337C287.914 127.419 287.963 127.493 288.027 127.554C288.091 127.615 288.167 127.661 288.25 127.689C288.333 127.718 288.421 127.728 288.509 127.719C288.586 127.719 288.73 127.78 288.735 127.824C288.775 128.31 289.088 128.604 289.408 128.904C289.673 129.153 289.943 129.406 290.065 129.775C290.362 130.463 290.805 131.078 291.363 131.578C291.908 132.264 292.502 132.911 293.14 133.513C293.396 133.707 293.57 133.967 293.742 134.222C293.985 134.584 294.221 134.936 294.674 135.078C294.773 135.108 294.845 135.248 294.911 135.376C294.921 135.395 294.93 135.414 294.94 135.432C294.949 135.449 294.958 135.465 294.967 135.481C295.109 135.716 295.234 135.985 295.358 136.254C295.63 136.843 295.902 137.43 296.352 137.653C296.622 137.786 296.784 138.055 296.946 138.324C297.178 138.709 297.409 139.093 297.959 139.08C297.996 139.529 298.299 139.77 298.608 140.014C298.849 140.205 299.094 140.398 299.217 140.696C299.491 141.164 299.815 141.602 300.183 142.002C300.268 142.124 300.317 142.275 300.365 142.426C300.475 142.766 300.585 143.105 301.105 143.105C301.15 143.572 301.465 143.822 301.787 144.079C302.016 144.261 302.249 144.446 302.391 144.714C302.737 145.297 303.191 145.809 303.727 146.225C303.985 146.427 304.177 146.701 304.279 147.013C304.318 147.119 304.347 147.236 304.377 147.354L304.377 147.354C304.483 147.781 304.594 148.227 305.217 148.27C305.217 148.777 305.545 149.017 305.886 149.266C306.171 149.474 306.465 149.688 306.586 150.072C306.657 150.324 306.921 150.564 307.199 150.816C307.371 150.973 307.548 151.134 307.69 151.307C307.855 151.509 307.999 151.763 308.143 152.017L308.143 152.017C308.322 152.334 308.502 152.65 308.722 152.867C308.902 153.049 309.042 153.273 309.182 153.496C309.43 153.893 309.678 154.288 310.152 154.444C310.473 154.549 310.595 154.796 310.725 155.058C310.847 155.305 310.975 155.565 311.283 155.734C311.691 155.957 311.976 156.49 312.267 157.034C312.428 157.337 312.592 157.642 312.779 157.9C313.199 158.57 313.718 159.172 314.319 159.686C314.514 159.835 314.626 160.06 314.738 160.286C314.904 160.623 315.071 160.961 315.517 161.053C315.538 161.677 315.907 162.096 316.275 162.515L316.275 162.515C316.483 162.751 316.691 162.986 316.836 163.258C316.89 163.363 316.986 163.443 317.083 163.524C317.143 163.574 317.204 163.625 317.255 163.683C317.454 163.876 317.639 164.085 317.807 164.306C317.858 164.376 317.893 164.465 317.927 164.552C317.976 164.675 318.024 164.795 318.111 164.857C319.215 165.585 319.093 166.599 318.79 167.751C318.737 167.757 318.685 167.764 318.632 167.77C317.924 167.854 317.174 167.943 316.819 168.743C316.31 168.762 315.953 169.07 315.591 169.382C315.217 169.705 314.836 170.033 314.275 170.05C314.064 170.05 313.869 170.261 313.664 170.483C313.51 170.651 313.349 170.826 313.171 170.921C312.693 171.089 312.234 171.307 311.802 171.571C311.627 171.702 311.456 171.847 311.283 171.993C310.732 172.459 310.165 172.939 309.395 173.048C308.987 173.109 308.595 173.181 308.567 173.715C308.14 173.824 307.794 174.102 307.447 174.381C306.931 174.797 306.413 175.213 305.62 175.072L305.256 175.942C305.064 176.008 304.852 176.035 304.641 176.061C304.084 176.132 303.528 176.202 303.34 176.973C302.8 176.936 302.462 177.269 302.121 177.605C301.764 177.956 301.404 178.311 300.807 178.252C300.649 178.234 300.485 178.429 300.307 178.64C300.16 178.813 300.005 178.998 299.835 179.085C299.666 179.171 299.391 179.214 299.135 179.253C298.822 179.301 298.538 179.344 298.511 179.459C298.397 179.934 298.051 180.052 297.726 180.163C297.5 180.24 297.284 180.314 297.164 180.501C296.835 181.007 296.371 181.121 295.893 181.239C295.793 181.263 295.691 181.288 295.591 181.317C295.414 181.372 295.171 181.543 295.138 181.698C295.055 182.087 294.797 182.145 294.519 182.208C294.462 182.22 294.405 182.233 294.349 182.249C294.248 182.278 294.141 182.3 294.034 182.322C293.592 182.412 293.142 182.505 293.035 183.109C292.589 183.15 292.269 183.445 291.954 183.736C291.6 184.063 291.251 184.385 290.733 184.332C290.273 184.286 290.158 184.554 290.043 184.819C289.955 185.022 289.869 185.223 289.629 185.281C289.503 185.311 289.376 185.336 289.252 185.361C288.835 185.444 288.446 185.521 288.178 185.771C288.09 185.853 288.016 185.937 287.947 186.015C287.741 186.248 287.574 186.438 287.19 186.422C287.064 186.437 286.947 186.496 286.859 186.587L286.829 186.616C286.031 187.376 286.023 187.383 284.965 187.53L284.629 188.357C284.513 188.381 284.394 188.4 284.273 188.42C283.648 188.523 282.996 188.631 282.686 189.371C282.198 189.389 281.852 189.697 281.506 190.007C281.116 190.356 280.724 190.706 280.125 190.644C280.018 190.644 279.886 190.801 279.77 190.94C279.759 190.954 279.748 190.967 279.737 190.98C279.72 190.999 279.704 191.018 279.689 191.036C279.634 191.097 279.589 191.172 279.549 191.24C279.491 191.338 279.443 191.419 279.391 191.416C278.784 191.374 278.374 191.702 277.966 192.029C277.632 192.297 277.3 192.564 276.862 192.623C276.78 192.64 276.703 192.677 276.639 192.731C276.574 192.785 276.524 192.854 276.493 192.932C276.435 193.345 276.154 193.418 275.879 193.488C275.788 193.512 275.697 193.536 275.615 193.571C275.5 193.616 275.373 193.643 275.245 193.67C274.867 193.749 274.483 193.829 274.401 194.376C274.401 194.453 274.202 194.547 274.092 194.564C273.76 194.573 273.436 194.664 273.147 194.827C272.859 194.99 272.614 195.222 272.436 195.501C272.368 195.612 272.141 195.646 271.929 195.679C271.73 195.709 271.543 195.738 271.514 195.826C271.264 196.626 270.686 196.678 270.071 196.735C269.885 196.752 269.695 196.769 269.51 196.807L269.157 197.645C269.014 197.679 268.862 197.7 268.708 197.721C268.151 197.798 267.572 197.878 267.308 198.56C266.858 198.646 266.511 198.952 266.166 199.257C265.666 199.7 265.17 200.139 264.366 199.894C264.314 199.992 264.27 200.095 264.227 200.196C264.066 200.578 263.917 200.928 263.389 200.853C263.117 201.345 262.632 201.525 262.143 201.706C261.64 201.893 261.133 202.081 260.85 202.612C260.779 202.744 260.552 202.789 260.314 202.836C260.166 202.865 260.013 202.895 259.89 202.948C259.58 203.055 259.295 203.222 259.051 203.439C258.25 204.299 256.34 204.166 255.976 203.069C255.596 202.173 254.963 201.407 254.155 200.864C254.053 200.784 253.994 200.62 253.939 200.469C253.882 200.309 253.829 200.162 253.735 200.142C253.165 200.018 252.884 199.588 252.613 199.174C252.488 198.984 252.365 198.796 252.217 198.643C252.103 198.525 251.975 198.407 251.842 198.285C251.428 197.905 250.969 197.484 250.743 196.879C250.467 196.15 249.969 195.525 249.319 195.093C249.037 194.924 248.894 194.636 248.752 194.353C248.548 193.944 248.35 193.546 247.746 193.533C247.702 193.112 247.42 192.898 247.146 192.69C247.008 192.585 246.871 192.481 246.769 192.353C246.636 192.186 246.46 192.034 246.291 191.888C246.076 191.701 245.871 191.524 245.781 191.339C245.504 190.775 245.074 190.319 244.645 189.866C244.078 189.265 243.513 188.667 243.309 187.822C242.897 187.747 242.708 187.433 242.516 187.113C242.327 186.798 242.135 186.479 241.724 186.378C241.509 186.324 241.429 186.107 241.347 185.882C241.233 185.57 241.113 185.242 240.62 185.303C240.62 184.85 240.305 184.632 239.991 184.413C239.688 184.203 239.386 183.994 239.367 183.577C238.792 183.184 238.431 182.602 238.071 182.021C237.639 181.326 237.209 180.633 236.414 180.27C236.431 179.798 236.098 179.571 235.766 179.344C235.43 179.115 235.095 178.886 235.123 178.407C234.602 178.434 234.407 178.089 234.204 177.731C234.036 177.436 233.864 177.132 233.5 177.017C233.322 176.961 233.207 176.753 233.08 176.522C232.921 176.232 232.744 175.908 232.396 175.81C232.23 174.989 231.676 174.44 231.122 173.891C230.642 173.415 230.162 172.94 229.934 172.288C229.476 172.288 229.291 171.948 229.106 171.607C228.921 171.267 228.736 170.926 228.279 170.921C228.279 170.463 227.961 170.238 227.644 170.014C227.347 169.803 227.049 169.593 227.014 169.19C226.404 168.922 226.123 168.386 225.841 167.848C225.682 167.545 225.522 167.241 225.303 166.985C225.138 166.791 224.939 166.622 224.738 166.452L224.738 166.451C224.315 166.093 223.889 165.73 223.769 165.132C223.33 165.043 223.119 164.717 222.904 164.384C222.72 164.101 222.534 163.813 222.201 163.661C221.949 163.542 221.783 163.31 221.608 163.064C221.449 162.843 221.283 162.609 221.037 162.437C220.639 162.157 220.378 161.697 220.113 161.232C219.955 160.954 219.797 160.675 219.607 160.43C219.237 159.953 218.85 159.551 218.46 159.147L218.459 159.145C218.314 158.995 218.168 158.844 218.023 158.688C217.988 158.651 217.932 158.618 217.879 158.588C217.806 158.546 217.739 158.507 217.736 158.462C217.736 157.911 217.493 157.542 216.886 157.52C216.903 157.048 216.567 156.833 216.231 156.618C215.899 156.406 215.567 156.194 215.572 155.734C214.99 155.451 214.636 154.954 214.284 154.457C213.948 153.985 213.613 153.513 213.083 153.231C212.937 153.143 212.825 153.009 212.763 152.851C212.352 151.81 211.629 150.922 210.693 150.309C210.715 149.853 210.394 149.64 210.073 149.426C209.758 149.217 209.443 149.007 209.451 148.567C208.931 148.439 208.67 148.046 208.412 147.655L208.412 147.655C208.292 147.474 208.172 147.293 208.027 147.14C207.593 146.673 207.215 146.155 206.837 145.636L206.837 145.636L206.837 145.635C206.639 145.363 206.44 145.09 206.233 144.824C205.802 144.273 205.366 143.722 204.886 143.237C204.719 143.068 204.518 142.91 204.314 142.751L204.314 142.751C203.933 142.452 203.545 142.148 203.368 141.76C203.215 141.423 202.999 141.275 202.808 141.144C202.661 141.044 202.529 140.953 202.452 140.795C202.429 140.746 202.407 140.698 202.385 140.65C202.202 140.256 202.041 139.906 201.563 139.758C201.487 139.737 201.441 139.616 201.396 139.493C201.372 139.431 201.349 139.368 201.321 139.317C200.866 138.372 200.171 137.563 199.306 136.969C199.306 136.514 198.993 136.293 198.68 136.073C198.38 135.862 198.08 135.651 198.058 135.233C198.033 135.154 197.988 135.084 197.928 135.027C197.869 134.97 197.796 134.929 197.716 134.907C197.319 134.847 197.054 134.715 197.054 134.257C197.052 134.192 197.036 134.128 197.006 134.07C196.976 134.012 196.934 133.961 196.883 133.921C196.027 133.479 195.476 132.723 194.935 131.982C194.746 131.723 194.559 131.466 194.36 131.225C194.126 130.947 193.907 130.629 193.687 130.311L193.687 130.311L193.687 130.31C193.389 129.877 193.089 129.443 192.748 129.103C192.593 128.947 192.461 128.762 192.328 128.576C192.064 128.206 191.796 127.829 191.33 127.664C191.237 127.626 191.154 127.568 191.087 127.493C191.02 127.419 190.971 127.33 190.944 127.234C190.894 126.799 190.645 126.683 190.281 126.556C190.166 126.508 190.107 126.339 190.045 126.165C189.986 125.997 189.926 125.824 189.812 125.751C189.18 125.364 188.795 124.761 188.411 124.159C188.003 123.521 187.597 122.885 186.898 122.51C186.926 122.041 186.601 121.821 186.275 121.601C185.961 121.389 185.647 121.176 185.65 120.74C185.161 120.704 184.948 120.366 184.729 120.017C184.554 119.74 184.375 119.457 184.049 119.313C183.535 118.983 183.131 118.507 182.89 117.946C182.365 116.895 181.611 115.976 180.683 115.255C180.733 114.773 180.398 114.564 180.064 114.356C179.741 114.155 179.419 113.954 179.441 113.508C178.96 113.472 178.758 113.136 178.55 112.788C178.371 112.489 178.188 112.183 177.818 112.053C177.555 111.958 177.379 111.685 177.192 111.393C177.052 111.177 176.907 110.951 176.714 110.779C176.308 110.43 176.033 109.927 175.756 109.422C175.597 109.131 175.437 108.838 175.251 108.574C175.181 108.47 175.027 108.398 174.884 108.331C174.733 108.261 174.595 108.196 174.583 108.106C174.537 107.674 174.222 107.448 173.909 107.225C173.584 106.992 173.262 106.762 173.253 106.303C172.912 106.177 172.695 105.859 172.502 105.577C172.342 105.343 172.199 105.134 172.017 105.079C171.639 104.959 171.473 104.649 171.314 104.351C171.131 104.009 170.957 103.685 170.482 103.685C170.45 103.255 170.167 103.022 169.885 102.79C169.736 102.668 169.588 102.545 169.478 102.395C169.255 102.094 169.064 101.769 168.873 101.444L168.873 101.444L168.873 101.444C168.623 101.018 168.373 100.592 168.054 100.223C167.934 100.085 167.784 99.9726 167.634 99.8593C167.327 99.6278 167.016 99.3938 166.95 98.9385C166.453 98.9917 166.267 98.6407 166.082 98.2898C165.902 97.9501 165.722 97.6104 165.261 97.6376C164.981 97.0784 164.924 96.4345 165.101 95.835L166.282 95.642C166.332 95.6339 166.393 95.6305 166.454 95.6272C166.599 95.6192 166.747 95.611 166.778 95.5373C167.163 94.7563 167.826 94.722 168.492 94.6875C168.686 94.6775 168.881 94.6674 169.069 94.6388C169.116 94.6316 169.168 94.626 169.222 94.6202C169.418 94.5992 169.635 94.5758 169.687 94.4679C170.14 93.7088 170.852 93.6498 171.578 93.5896C171.674 93.5816 171.771 93.5735 171.868 93.5638C172.108 93.4923 172.335 93.3784 172.536 93.2276C172.854 92.9989 173.201 92.8135 173.568 92.6763C173.734 92.6405 173.905 92.6186 174.076 92.5967C174.666 92.5208 175.248 92.4459 175.621 91.7998C175.675 91.7058 175.872 91.6972 176.075 91.6884C176.181 91.6837 176.288 91.6791 176.377 91.662C176.556 91.6284 176.738 91.6099 176.92 91.5916C177.542 91.5286 178.158 91.4664 178.585 90.7966C178.674 90.6518 178.983 90.6361 179.278 90.6211C179.388 90.6155 179.496 90.61 179.59 90.5981C179.667 90.5889 179.745 90.5808 179.822 90.5727C180.44 90.5081 181.044 90.4448 181.466 89.8374C181.558 89.7004 181.812 89.6617 182.038 89.6274C182.085 89.6203 182.13 89.6134 182.173 89.6059C182.309 89.5803 182.45 89.5687 182.59 89.5572C183.081 89.5166 183.562 89.477 183.829 88.8286C183.896 88.6693 184.266 88.6216 184.617 88.5764C184.727 88.5621 184.836 88.5481 184.933 88.5309C185.098 88.5024 185.268 88.494 185.438 88.4856C185.991 88.4585 186.537 88.4317 186.853 87.7151C186.934 87.5339 187.466 87.5135 187.852 87.4988L187.904 87.4968C187.922 87.496 187.94 87.4953 187.957 87.4946C188.288 87.5221 188.619 87.4715 188.926 87.347C189.233 87.2225 189.506 87.0276 189.724 86.7779C189.865 86.6173 190.062 86.5168 190.276 86.4968C191.141 86.4976 191.982 86.2149 192.671 85.692C192.919 85.4956 193.295 85.4726 193.677 85.4493C194.034 85.4274 194.397 85.4053 194.664 85.24C194.814 85.147 194.953 85.0446 195.09 84.9438C195.457 84.6739 195.809 84.4146 196.32 84.3745C196.438 84.3652 196.561 84.3618 196.683 84.3585C197.286 84.3421 197.906 84.3252 198.241 83.5972C198.276 83.5137 198.451 83.4863 198.608 83.4618C198.648 83.4556 198.686 83.4496 198.721 83.4429C198.852 83.4207 198.985 83.4048 199.119 83.389C199.717 83.3178 200.314 83.2468 200.675 82.616C200.675 82.616 200.752 82.5719 200.796 82.5664C201.037 82.52 201.292 82.494 201.546 82.4679C202.109 82.4104 202.673 82.3528 203.087 82.0758C203.674 81.641 204.361 81.3587 205.085 81.2544C205.167 81.2442 205.253 81.2384 205.34 81.2324C205.768 81.2033 206.225 81.1722 206.404 80.604C206.404 80.5654 206.465 80.5102 206.487 80.5102C207.25 80.6007 207.863 80.2491 208.477 79.8966C209.023 79.5834 209.569 79.2696 210.224 79.2644L210.318 79.2647C210.873 79.2669 211.437 79.2692 211.802 78.5754C211.906 78.3795 212.312 78.3344 212.704 78.2907C212.853 78.2742 213 78.2578 213.127 78.2336C213.27 78.2064 213.417 78.1975 213.563 78.1886C214.04 78.1595 214.508 78.131 214.783 77.4729C214.882 77.2303 215.65 77.1972 216.119 77.1807C216.875 77.1476 217.515 77.0098 217.747 76.194C217.925 76.1816 218.095 76.172 218.26 76.1627C218.608 76.1432 218.934 76.1249 219.259 76.0837C219.453 76.0837 219.751 75.979 219.811 75.8467C220.077 75.1795 220.622 75.1497 221.162 75.1202C221.229 75.1165 221.296 75.1129 221.362 75.108C221.433 75.1028 221.507 75.0992 221.582 75.0956C222.145 75.0681 222.799 75.0362 223.101 74.2922C223.146 74.179 223.347 74.1278 223.547 74.0767L223.547 74.0767C223.639 74.0531 223.731 74.0296 223.808 74H231.276ZM89.079 225.224L88.0055 225.608L88 240.848C88.8471 241.808 89.2767 243.064 89.1946 244.34C89.2276 244.822 89.2276 245.305 89.2276 245.787C89.2385 246.369 89.2492 246.95 89.2599 247.532L89.2599 247.533C89.3032 249.888 89.3464 252.241 89.4038 254.597C89.3558 255.03 89.4383 255.467 89.6405 255.852C90.0083 256.346 90.1825 256.956 90.1305 257.568C90.191 259.298 90.2433 261.029 90.2956 262.76L90.2956 262.76C90.3479 264.491 90.4002 266.222 90.4608 267.951C90.4866 268.426 90.5623 268.896 90.6865 269.355C90.9022 269.911 91.0662 270.485 91.1764 271.071C91.26 272.814 91.3127 274.567 91.3652 276.313L91.3652 276.313C91.3958 277.328 91.4263 278.341 91.4627 279.349C91.4659 279.432 91.4664 279.52 91.4669 279.611C91.469 279.985 91.4713 280.393 91.6664 280.61C92.1239 281.147 92.1555 281.7 92.1911 282.321C92.1983 282.448 92.2057 282.577 92.2169 282.709C92.2829 283.493 92.3545 284.283 92.4536 285.061C92.4811 285.308 92.5802 285.741 92.7013 285.741C93.1573 285.813 93.2067 286.091 93.257 286.374C93.2795 286.5 93.3022 286.628 93.3619 286.738C93.7025 287.484 94.1494 288.176 94.6886 288.794C95.0344 289.135 95.4704 289.378 95.9083 289.622C96.1956 289.782 96.4836 289.943 96.7475 290.132C97.3585 290.488 97.9418 290.89 98.4926 291.332C98.9219 291.739 99.4654 292.004 100.051 292.095C100.17 292.127 100.309 292.145 100.448 292.163C100.736 292.201 101.025 292.239 101.152 292.401C101.571 292.963 102.118 293.004 102.675 293.046C102.841 293.059 103.007 293.071 103.172 293.098C103.3 293.118 103.437 293.132 103.576 293.146C103.987 293.187 104.413 293.23 104.647 293.46C104.877 293.657 105.143 293.808 105.431 293.902C105.72 293.996 106.024 294.032 106.326 294.008C106.934 294.036 107.542 294.059 108.15 294.081C109.303 294.124 110.454 294.166 111.6 294.249C111.77 294.263 111.944 294.269 112.118 294.276C112.811 294.3 113.519 294.325 114.099 294.868C114.227 294.987 114.492 294.98 114.726 294.975C114.774 294.974 114.821 294.973 114.865 294.973C115.525 295 116.186 295 116.846 295C149.818 294.978 182.79 294.967 215.761 294.967C215.891 294.967 216.021 294.97 216.151 294.973C216.891 294.99 217.627 295.006 218.283 294.479C218.454 294.34 218.76 294.346 219.033 294.351H219.034C219.084 294.352 219.133 294.353 219.18 294.353C219.702 294.336 220.227 294.317 220.753 294.299L220.754 294.299L220.756 294.299C222.685 294.231 224.636 294.163 226.573 294.128C229.658 294.079 232.744 294.042 235.831 294.004L235.834 294.004L235.838 294.004C237.899 293.979 239.96 293.954 242.02 293.926C242.454 293.985 242.896 293.924 243.297 293.75C243.931 293.35 244.68 293.169 245.428 293.235C246.749 293.187 248.071 293.142 249.392 293.097C251.374 293.03 253.355 292.963 255.337 292.884C255.771 292.916 256.206 292.821 256.587 292.61C257.055 292.283 257.617 292.117 258.189 292.138C258.536 292.107 258.884 292.095 259.232 292.083L259.232 292.083C259.678 292.067 260.122 292.051 260.561 291.996C261.029 291.925 261.482 291.774 261.899 291.552C262.287 291.303 262.656 291.025 263 290.718V287.616C263 287.446 262.994 287.21 262.89 287.117C262.318 286.577 262.328 285.872 262.337 285.184V285.183C262.338 285.096 262.339 285.01 262.339 284.924C262.269 283.078 262.208 281.233 262.146 279.389C262.096 277.904 262.047 276.42 261.993 274.936C262.04 274.504 261.967 274.068 261.783 273.675C261.441 273.164 261.278 272.555 261.321 271.942C261.286 270.956 261.254 269.969 261.221 268.984C261.154 266.99 261.088 264.998 261.007 263.007C261.046 262.442 260.944 261.877 260.71 261.362C260.395 260.838 260.24 260.234 260.264 259.624C260.249 258.961 260.237 258.294 260.225 257.629C260.207 256.623 260.189 255.62 260.159 254.63C260.121 253.226 260.066 251.823 259.972 250.425C259.906 249.997 259.797 249.577 259.647 249.17C259.464 248.699 259.333 248.21 259.257 247.712C259.207 246.178 259.175 244.644 259.144 243.111V243.111V243.11C259.112 241.575 259.08 240.04 259.031 238.507C259.025 238.342 259.023 238.175 259.021 238.007C259.01 237.094 258.999 236.168 258.343 235.371C258.21 235.095 258.154 234.788 258.183 234.483C258.139 233.633 258.101 232.817 258.101 231.989C258.089 231.358 258.08 230.726 258.072 230.095C258.052 228.621 258.032 227.147 257.974 225.674C257.993 224.976 257.85 224.284 257.555 223.651C257.264 223.118 257.12 222.519 257.137 221.913C257.118 221.002 257.1 220.093 257.083 219.183L257.083 219.18C257.038 216.891 256.993 214.604 256.933 212.314C256.994 211.747 256.918 211.174 256.713 210.642C256.091 209.587 256.076 208.465 256.061 207.342C256.057 207.034 256.053 206.727 256.036 206.42L255.959 205.012H246.545C246.149 204.969 245.748 205.045 245.395 205.231C244.603 205.854 243.704 205.853 242.787 205.852C242.607 205.851 242.427 205.851 242.246 205.856C240.424 205.902 238.602 205.944 236.779 205.986L236.778 205.986L236.776 205.986C234.509 206.039 232.24 206.091 229.97 206.152C229.49 206.105 229.006 206.196 228.577 206.415C228.037 206.792 227.376 206.956 226.722 206.875C225.476 206.895 224.231 206.914 222.986 206.932C220.49 206.969 217.995 207.005 215.497 207.056C214.977 207.001 214.452 207.094 213.983 207.325C213.329 207.774 212.539 207.981 211.748 207.912C208.137 207.966 204.527 208.027 200.92 208.092C200.835 208.094 200.746 208.091 200.654 208.089C200.323 208.08 199.971 208.071 199.764 208.23C199.005 208.822 198.147 208.827 197.301 208.832C197.153 208.833 197.004 208.834 196.857 208.838C194.132 208.922 191.405 208.982 188.679 209.041H188.678C187.312 209.071 185.946 209.101 184.581 209.134C184.528 209.135 184.473 209.135 184.418 209.135C184.367 209.134 184.315 209.133 184.262 209.132C183.901 209.123 183.525 209.115 183.292 209.288C182.494 209.864 181.61 209.884 180.727 209.904C180.654 209.905 180.581 209.907 180.509 209.909C180.484 209.909 180.459 209.91 180.434 209.911C180.416 209.911 180.398 209.912 180.38 209.913C178.388 209.974 176.396 210.016 174.402 210.058L174.4 210.058L174.398 210.059C173.005 210.088 171.612 210.118 170.218 210.154C170.122 210.156 170.02 210.155 169.917 210.154H169.916C169.507 210.149 169.069 210.144 168.814 210.346C168.087 210.894 167.256 210.894 166.436 210.894C164.315 210.949 162.189 211 160.062 211.051L160.06 211.051L160.057 211.051C157.963 211.102 155.868 211.152 153.774 211.206C153.675 211.209 153.57 211.206 153.463 211.204H153.463C153.1 211.196 152.717 211.187 152.492 211.365C151.786 211.908 151.002 211.923 150.225 211.937C150.1 211.939 149.974 211.942 149.849 211.946C147.93 212.006 145.996 212.054 144.059 212.102C142.424 212.143 140.786 212.184 139.153 212.231C139.069 212.234 138.98 212.233 138.89 212.232C138.513 212.23 138.108 212.228 137.881 212.418C137.32 212.879 136.717 212.886 136.103 212.893H136.102H136.102C135.987 212.895 135.872 212.896 135.756 212.9C134.062 212.954 132.369 213.006 130.677 213.058L130.674 213.058L130.626 213.06C128.023 213.14 125.421 213.22 122.819 213.306C122.384 213.251 121.942 213.318 121.542 213.498C120.946 213.872 120.24 214.036 119.538 213.964C118.484 213.993 117.427 214.017 116.37 214.041L116.363 214.041C115.662 214.057 114.961 214.072 114.259 214.09C113.638 214.106 113.016 214.121 112.394 214.136L112.391 214.136C110.948 214.171 109.503 214.206 108.06 214.26C107.626 214.238 107.195 214.351 106.827 214.583C106.411 214.908 105.883 215.055 105.357 214.994C104.449 215.012 103.54 215.024 102.631 215.037L102.628 215.037H102.627C100.939 215.06 99.2524 215.084 97.5678 215.137C97.4066 215.143 97.2351 215.131 97.0611 215.119C96.3796 215.073 95.6596 215.024 95.3658 215.998C95.3437 216.069 95.129 216.107 95.0079 216.107C94.4088 216.054 94.0486 216.419 93.689 216.783C93.3778 217.098 93.067 217.413 92.6022 217.456C92.5094 217.867 92.2207 218.16 91.9305 218.455C91.5662 218.825 91.1996 219.197 91.2149 219.808C91.2205 219.917 91.0993 220.115 91.0168 220.115C90.4204 220.187 90.3646 220.577 90.3087 220.969C90.2923 221.083 90.2759 221.198 90.2461 221.304C90.2284 221.372 90.2143 221.449 90.2 221.527C90.1606 221.742 90.1194 221.968 89.9983 222.028C89.3216 222.367 89.3063 222.922 89.2909 223.481C89.2864 223.645 89.2819 223.809 89.2607 223.969C89.2292 224.213 89.1923 224.457 89.1563 224.697C89.1292 224.876 89.1026 225.052 89.079 225.224ZM228.029 436.894C228.363 436.92 228.697 436.945 229.03 436.972L248.643 437C248.846 436.974 249.049 436.951 249.254 436.928L249.254 436.928L249.262 436.927C249.711 436.877 250.161 436.826 250.603 436.746C250.929 436.686 251.392 436.587 251.514 436.361C251.81 435.805 252.261 435.781 252.73 435.757L252.733 435.757C252.779 435.754 252.826 435.752 252.872 435.749C253.131 435.73 253.39 435.717 253.65 435.703L253.717 435.7C254.139 435.678 254.561 435.656 254.981 435.616C255.23 435.594 255.6 435.539 255.683 435.379C256.041 434.685 256.698 434.685 257.284 434.685C257.962 434.654 258.517 434.326 259.069 433.999C259.587 433.693 260.104 433.388 260.718 433.329C260.746 433.324 260.79 433.263 260.79 433.219C260.927 432.855 261.226 432.787 261.543 432.716C261.58 432.708 261.616 432.7 261.653 432.691C261.684 432.684 261.714 432.676 261.745 432.668C262.001 432.637 262.247 432.553 262.467 432.42C262.687 432.287 262.876 432.108 263.021 431.896C263.411 431.445 263.883 431.071 264.412 430.794C264.727 430.587 265.032 430.352 265.337 430.115L265.338 430.115C265.767 429.783 266.198 429.449 266.659 429.195C267.251 428.869 267.737 428.323 268.208 427.794C268.366 427.617 268.522 427.442 268.68 427.277C268.923 427.023 269.081 426.703 269.239 426.383C269.489 425.874 269.74 425.363 270.337 425.116C270.389 424.755 270.662 424.558 270.936 424.36C271.243 424.139 271.551 423.917 271.551 423.463C272.05 423.412 272.241 423.056 272.439 422.688C272.605 422.379 272.776 422.062 273.136 421.908C273.37 421.809 273.497 421.516 273.633 421.201C273.747 420.937 273.867 420.658 274.064 420.464C274.216 420.314 274.308 420.112 274.4 419.911C274.567 419.544 274.735 419.176 275.273 419.108C275.358 419.097 275.407 418.934 275.462 418.748C275.517 418.561 275.579 418.351 275.692 418.248C276.377 417.609 277.41 416.595 277.481 416.044C277.539 415.591 277.847 415.313 278.153 415.037C278.462 414.759 278.768 414.483 278.812 414.032C279.354 413.981 279.453 413.588 279.55 413.2L279.55 413.199C279.57 413.121 279.59 413.043 279.613 412.968C279.715 412.613 279.932 412.303 280.231 412.086C280.771 411.544 281.226 410.923 281.578 410.245C281.737 409.999 281.873 409.728 282.009 409.458C282.292 408.893 282.572 408.335 283.047 408.04C283.345 407.855 283.496 407.563 283.64 407.282C283.835 406.902 284.02 406.544 284.543 406.502C284.661 405.718 285.052 404.999 285.648 404.474C286.27 403.818 286.773 403.059 287.133 402.231C287.326 401.751 287.691 400.963 288.044 400.82C288.892 400.486 289.205 399.761 289.484 399.115L289.485 399.115C289.556 398.949 289.625 398.789 289.701 398.642C289.868 398.291 290.128 398.01 290.387 397.73C290.726 397.364 291.063 397 291.191 396.482C291.246 396.261 291.419 396.057 291.588 395.86C291.777 395.638 291.959 395.424 291.959 395.203C291.95 394.775 292.223 394.651 292.481 394.534C292.692 394.439 292.892 394.348 292.92 394.1C292.972 393.678 293.249 393.371 293.526 393.063C293.86 392.693 294.194 392.322 294.14 391.747C294.134 391.692 294.239 391.57 294.311 391.57C294.83 391.384 295.055 390.953 295.28 390.523C295.459 390.18 295.639 389.837 295.967 389.619C295.905 389.039 296.265 388.705 296.631 388.366C296.946 388.075 297.264 387.78 297.32 387.321C297.328 387.266 297.422 387.208 297.539 387.137C297.75 387.008 298.038 386.832 298.038 386.538C298.009 385.948 298.369 385.585 298.727 385.225C299.044 384.905 299.36 384.587 299.402 384.113C299.885 383.898 300.07 383.442 300.254 382.987C300.452 382.496 300.651 382.006 301.224 381.82C301.305 381.422 301.56 381.114 301.817 380.804C302.158 380.393 302.502 379.979 302.439 379.35C302.434 379.29 302.555 379.206 302.652 379.138C302.671 379.126 302.688 379.114 302.704 379.102C303.381 378.632 303.889 377.955 304.15 377.173C304.277 376.747 304.563 376.441 304.843 376.142C305.186 375.776 305.518 375.421 305.536 374.869C306.046 374.677 306.217 374.212 306.388 373.747C306.575 373.24 306.761 372.734 307.386 372.582C307.312 372.117 307.596 371.859 307.882 371.599C308.085 371.415 308.288 371.231 308.363 370.972C308.54 370.386 308.89 369.867 309.368 369.484C309.81 369.085 310.049 368.456 310.287 367.828C310.391 367.554 310.495 367.28 310.616 367.026L310.63 366.997C310.684 366.881 310.759 366.722 310.82 366.722C311.383 366.714 311.459 366.366 311.539 365.999L311.539 365.998C311.56 365.905 311.581 365.81 311.61 365.719C311.791 365.352 312.007 365.003 312.256 364.678C312.418 364.34 312.671 364.07 312.925 363.798C313.26 363.44 313.598 363.079 313.736 362.555C313.916 361.782 314.337 361.085 314.939 360.566C315.374 360.224 315.673 359.739 315.784 359.199C315.8 359.155 315.816 359.101 315.833 359.045C315.888 358.861 315.952 358.647 316.033 358.647C316.485 358.596 316.622 358.243 316.761 357.884C316.906 357.512 317.053 357.135 317.557 357.088C317.62 357.082 317.645 356.887 317.677 356.645C317.711 356.38 317.753 356.06 317.86 355.875C317.962 355.699 318.137 355.563 318.313 355.426C318.489 355.288 318.666 355.15 318.771 354.971C319.047 354.495 319.283 354.004 319.517 353.513L319.517 353.512C319.677 353.179 319.836 352.846 320.008 352.518C320.045 352.451 320.134 352.414 320.228 352.376C320.302 352.345 320.379 352.314 320.433 352.265C320.602 352.141 320.738 351.978 320.831 351.791C321.225 350.76 321.842 349.829 322.636 349.062C322.735 348.924 322.806 348.769 322.846 348.605C322.891 348.481 322.927 348.348 322.962 348.214C323.072 347.795 323.185 347.368 323.625 347.188C323.871 347.087 323.941 346.835 324.011 346.583C324.105 346.242 324.199 345.902 324.729 345.937C324.784 345.942 324.9 345.727 324.9 345.617C324.855 345.01 325.201 344.601 325.549 344.189C325.84 343.845 326.133 343.498 326.203 343.032C326.225 342.886 326.399 342.759 326.571 342.633C326.75 342.502 326.926 342.373 326.926 342.227C326.978 341.616 327.346 341.216 327.715 340.815C328.014 340.49 328.314 340.165 328.445 339.725C328.728 339.065 329.083 338.438 329.505 337.856L330.096 337.669C330.135 337.504 330.158 337.332 330.18 337.161C330.256 336.586 330.331 336.018 331.029 335.767C331.069 335.384 331.346 335.13 331.607 334.89C331.845 334.671 332.071 334.464 332.095 334.18C332.137 333.643 332.449 333.276 332.755 332.914C333.05 332.566 333.341 332.225 333.381 331.744C334.154 331.482 334.235 330.855 334.303 330.334C334.318 330.218 334.332 330.107 334.353 330.007C335.413 329.095 336.182 327.891 336.562 326.546C338.047 326.452 338.13 326.518 338.439 327.885C338.444 327.908 338.45 327.933 338.455 327.958L338.469 328.028C338.515 328.254 338.57 328.522 338.687 328.558C339.244 328.739 339.321 329.155 339.397 329.573L339.397 329.573L339.398 329.573C339.421 329.702 339.445 329.83 339.482 329.952C339.498 330.002 339.512 330.059 339.528 330.117C339.586 330.337 339.651 330.584 339.764 330.619C340.278 330.736 340.35 331.114 340.421 331.487C340.447 331.623 340.473 331.759 340.52 331.881C340.55 331.962 340.573 332.062 340.595 332.161C340.638 332.354 340.68 332.541 340.774 332.57C341.346 332.738 341.426 333.159 341.506 333.585C341.529 333.706 341.552 333.827 341.586 333.943C341.605 334.008 341.623 334.087 341.641 334.168C341.69 334.39 341.743 334.626 341.84 334.626C342.378 334.742 342.436 335.113 342.493 335.481C342.515 335.622 342.536 335.763 342.585 335.889C342.623 335.986 342.648 336.121 342.67 336.248C342.704 336.436 342.735 336.605 342.801 336.605C343.378 336.717 343.453 337.112 343.527 337.502C343.563 337.691 343.598 337.878 343.69 338.033C344.243 338.809 344.644 339.682 344.871 340.607C344.874 340.617 344.877 340.626 344.881 340.635C344.886 340.645 344.892 340.655 344.899 340.665C344.904 340.671 344.91 340.677 344.916 340.683C344.926 340.692 344.937 340.7 344.949 340.706C345.378 340.816 345.465 341.129 345.558 341.46C345.59 341.577 345.623 341.695 345.672 341.808C345.83 342.173 346.029 342.517 346.23 342.863L346.23 342.864C346.542 343.402 346.856 343.944 347.014 344.564C347.031 344.632 347.095 344.67 347.17 344.716C347.243 344.76 347.327 344.811 347.389 344.901C347.413 344.934 347.438 344.968 347.463 345.003C347.575 345.156 347.693 345.317 347.693 345.452C347.631 346.078 347.977 346.507 348.323 346.936C348.622 347.307 348.921 347.678 348.952 348.175C349.643 348.498 349.727 349.133 349.813 349.785L349.819 349.828C349.841 349.977 349.951 350.247 350.067 350.247C350.574 350.363 350.645 350.731 350.717 351.099C350.744 351.241 350.771 351.382 350.824 351.509C350.864 351.601 350.894 351.715 350.925 351.827C350.983 352.04 351.039 352.249 351.155 352.292C351.583 352.439 351.65 352.747 351.719 353.059C351.722 353.075 351.726 353.09 351.729 353.106C351.733 353.125 351.738 353.145 351.742 353.164C351.757 353.227 351.774 353.29 351.795 353.35C351.827 353.447 351.85 353.569 351.873 353.69C351.917 353.924 351.961 354.154 352.066 354.183C352.725 354.367 352.792 354.833 352.859 355.299C352.883 355.462 352.906 355.625 352.955 355.776C352.974 355.833 352.988 355.907 353.003 355.979C353.029 356.117 353.055 356.25 353.109 356.25C353.751 356.401 353.82 356.865 353.888 357.319C353.914 357.494 353.94 357.667 353.998 357.821C354.007 357.845 354.015 357.873 354.023 357.903C354.03 357.932 354.038 357.964 354.045 357.995C354.079 358.138 354.114 358.284 354.175 358.284C354.775 358.429 354.836 358.857 354.899 359.293V359.293C354.921 359.451 354.944 359.609 354.992 359.755C355.008 359.798 355.025 359.85 355.042 359.904C355.101 360.09 355.17 360.307 355.268 360.307C355.875 360.423 355.922 360.91 355.962 361.327C355.969 361.404 355.976 361.478 355.986 361.547C356.028 361.832 356.201 362.049 356.364 362.254C356.456 362.37 356.545 362.482 356.605 362.6C356.718 362.818 356.829 363.037 356.941 363.255C357.276 363.913 357.611 364.568 357.979 365.218C358.078 365.385 358.129 365.566 358.181 365.747C358.281 366.097 358.383 366.45 358.819 366.722C359.045 366.855 359.132 367.174 359.224 367.51C359.312 367.83 359.404 368.167 359.625 368.376C359.866 368.605 359.938 368.894 360.003 369.156C360.061 369.387 360.113 369.597 360.271 369.727C360.543 369.943 360.766 370.215 360.926 370.523C361.086 370.832 361.179 371.171 361.198 371.518C361.21 371.634 361.292 371.821 361.381 371.849C361.932 372.008 362.012 372.427 362.092 372.846C362.117 372.978 362.142 373.109 362.181 373.232C362.205 373.3 362.224 373.379 362.244 373.458L362.244 373.459C362.296 373.662 362.348 373.87 362.463 373.921C362.938 374.117 363.01 374.491 363.084 374.869C363.108 374.992 363.132 375.115 363.17 375.233C363.282 375.543 363.426 375.84 363.6 376.12C363.668 376.237 363.761 376.351 363.852 376.463C364.021 376.672 364.186 376.876 364.186 377.079C364.183 377.52 364.498 377.715 364.809 377.908C365.134 378.109 365.454 378.307 365.406 378.777C365.406 378.808 365.493 378.837 365.601 378.874C365.727 378.916 365.881 378.968 365.958 379.042C366.071 379.155 366.167 379.293 366.261 379.43C366.405 379.639 366.547 379.844 366.748 379.951C367.198 380.12 367.667 380.237 368.145 380.298C368.182 380.319 368.215 380.347 368.241 380.381C368.256 380.402 368.268 380.423 368.278 380.447C368.282 380.457 368.286 380.468 368.289 380.479C368.291 380.485 368.292 380.491 368.294 380.497C368.398 381.092 368.879 381.092 369.315 381.092H373.55C373.804 381.087 374.224 381.07 374.295 380.927C374.649 380.22 375.249 380.163 375.858 380.105C376.076 380.084 376.295 380.063 376.504 380.012L376.511 379.998C376.636 379.743 376.765 379.479 376.868 379.257C377.079 379.16 377.318 379.125 377.553 379.09C378.069 379.012 378.567 378.938 378.707 378.226C379.289 378.027 379.771 377.613 380.054 377.068C380.319 376.802 380.607 376.56 380.916 376.346C381.166 376.135 381.374 375.903 381.584 375.669C381.795 375.433 382.008 375.195 382.269 374.974C382.419 374.846 382.59 374.723 382.762 374.6C383.182 374.298 383.607 373.993 383.748 373.601C383.867 373.26 384.145 373.063 384.416 372.872C384.759 372.628 385.09 372.394 385.062 371.882C386.009 371.231 386.725 370.297 387.105 369.214C387.138 369.098 387.249 368.922 387.332 368.922C387.764 368.898 387.925 368.561 388.085 368.226C388.258 367.864 388.43 367.504 388.944 367.544C388.892 367.064 389.228 366.842 389.563 366.62C389.903 366.396 390.242 366.171 390.181 365.681C390.752 365.524 390.967 365.056 391.182 364.588C391.383 364.151 391.584 363.715 392.075 363.531C392.075 363.084 392.378 362.869 392.683 362.653C392.871 362.52 393.059 362.386 393.179 362.197C393.551 361.578 394.017 361.021 394.559 360.544C395.24 359.97 395.812 359.279 396.249 358.504C396.478 358.102 396.759 357.732 397.083 357.402C397.199 357.284 397.332 357.167 397.467 357.048L397.467 357.048C397.815 356.742 398.174 356.426 398.281 356.073C398.439 355.572 398.785 355.269 399.129 354.97C399.348 354.778 399.565 354.588 399.733 354.348C399.961 354.017 400.239 353.709 400.52 353.397C400.866 353.013 401.218 352.623 401.489 352.176C401.603 351.988 401.706 351.778 401.81 351.568C402.052 351.077 402.295 350.583 402.682 350.352C403.182 350.058 403.397 349.585 403.608 349.123C403.815 348.667 404.019 348.22 404.487 347.96C404.376 347.306 404.844 347.122 405.215 346.976C405.27 346.954 405.322 346.934 405.37 346.912C405.423 346.693 405.454 346.451 405.485 346.22L405.485 346.22C405.547 345.744 405.604 345.311 405.823 345.204C406.45 344.878 406.511 344.398 406.573 343.909L406.573 343.909C406.593 343.752 406.613 343.594 406.651 343.44C406.666 343.374 406.679 343.306 406.693 343.236C406.763 342.882 406.838 342.504 407.06 342.338C407.562 341.95 407.581 341.453 407.6 340.941L407.6 340.939L407.6 340.937C407.604 340.853 407.607 340.769 407.612 340.684C407.636 340.362 407.649 340.039 407.662 339.716V339.715C407.708 338.596 407.754 337.479 408.225 336.401C408.391 336.039 408.302 335.538 408.218 335.067C408.199 334.958 408.18 334.851 408.164 334.748C408.117 334.411 408.041 334.078 407.965 333.745C407.855 333.264 407.745 332.785 407.723 332.3C407.663 331.04 407.636 329.778 407.608 328.516C407.585 327.444 407.561 326.371 407.518 325.3C407.447 324.736 407.312 324.181 407.115 323.647C406.925 323.172 406.777 322.681 406.674 322.18C406.615 321.421 406.595 320.656 406.575 319.89V319.89V319.89C406.563 319.422 406.551 318.954 406.53 318.487C406.525 318.406 406.524 318.317 406.522 318.226C406.517 317.881 406.51 317.503 406.331 317.346C405.773 316.862 405.73 316.256 405.688 315.652C405.68 315.527 405.671 315.403 405.658 315.279C405.599 314.722 405.575 314.159 405.551 313.596V313.595C405.532 313.146 405.512 312.696 405.475 312.248L405.469 312.172C405.438 311.792 405.4 311.326 405.177 311.145C404.61 310.691 404.568 310.104 404.525 309.508C404.522 309.46 404.518 309.413 404.515 309.365C404.488 309.012 404.473 308.657 404.458 308.302V308.302C404.442 307.909 404.425 307.515 404.393 307.122C404.392 307.106 404.39 307.09 404.389 307.074C404.388 307.055 404.386 307.036 404.385 307.017C404.361 306.722 404.334 306.384 404.167 306.256C403.562 305.788 403.514 305.161 403.466 304.527C403.461 304.461 403.456 304.395 403.45 304.329C403.448 304.305 403.446 304.281 403.444 304.258C403.439 304.205 403.433 304.153 403.427 304.101C403.423 304.066 403.419 304.03 403.416 303.992C403.41 303.92 403.406 303.844 403.402 303.768C403.381 303.404 403.359 303.018 403.162 302.855C402.614 302.407 402.564 301.86 402.513 301.303C402.504 301.212 402.496 301.121 402.485 301.031C402.477 300.959 402.467 300.887 402.455 300.816C402.439 300.711 402.428 300.598 402.417 300.484C402.383 300.132 402.347 299.764 402.151 299.581C401.603 299.069 401.536 298.469 401.464 297.832C401.458 297.776 401.451 297.72 401.445 297.663C401.44 297.623 401.435 297.581 401.43 297.536C401.389 297.163 401.334 296.663 401.147 296.594C400.442 296.324 400.444 295.746 400.445 295.246L400.445 295.183C400.461 294.519 400.122 293.994 399.784 293.472C399.424 292.915 399.065 292.361 399.142 291.644C399.142 291.6 399.015 291.501 398.932 291.501C398.436 291.406 398.397 291.064 398.357 290.71C398.348 290.632 398.339 290.553 398.325 290.476C398.32 290.45 398.316 290.422 398.311 290.394L398.299 290.325C398.242 289.987 398.166 289.538 398.032 289.538C397.415 289.422 397.344 289.016 397.27 288.586C397.262 288.542 397.255 288.497 397.246 288.453C397.24 288.42 397.233 288.387 397.226 288.353C397.142 287.981 396.888 287.706 396.633 287.43C396.336 287.108 396.039 286.786 396.006 286.308C396.006 286.275 395.923 286.275 395.885 286.275L394.278 284.738C393.758 284.121 393.188 283.549 392.572 283.029C392.389 282.796 392.229 282.544 392.097 282.279C392.488 282.246 392.862 282.216 393.225 282.186C394.143 282.111 394.986 282.043 395.829 281.96C395.897 281.954 395.968 281.949 396.04 281.946C396.068 281.944 396.096 281.943 396.125 281.942C396.491 281.924 396.877 281.906 397.094 281.711C397.511 281.389 398.03 281.227 398.557 281.254C399.279 281.225 400.001 281.204 400.722 281.183C401.767 281.152 402.81 281.122 403.852 281.067C404.417 281.083 404.977 280.946 405.47 280.67C405.94 280.349 406.502 280.189 407.071 280.212C407.849 280.179 408.627 280.147 409.404 280.116C410.962 280.052 412.52 279.988 414.078 279.915C414.153 279.912 414.232 279.911 414.314 279.91C414.707 279.904 415.148 279.899 415.353 279.689C415.879 279.168 416.515 279.159 417.119 279.151C417.269 279.149 417.418 279.147 417.562 279.137C418.045 279.104 418.52 279.083 419.014 279.062C419.261 279.051 419.512 279.04 419.771 279.027C419.816 278.757 419.948 278.509 420.148 278.321C420.347 278.133 420.602 278.015 420.875 277.985C421.242 277.862 421.548 277.604 421.731 277.263C421.891 277.012 422.104 276.792 422.317 276.571C422.727 276.147 423.141 275.718 423.199 275.059C423.89 274.846 423.935 274.321 423.981 273.794C423.995 273.638 424.008 273.482 424.039 273.333C424.06 273.234 424.076 273.123 424.093 273.01L424.093 273.01C424.139 272.691 424.187 272.357 424.37 272.231C425.005 271.784 425.002 271.186 425 270.584C425 270.547 424.999 270.51 424.999 270.473C424.981 266.905 424.953 263.336 424.917 259.768C424.916 259.729 424.916 259.688 424.915 259.646C424.913 259.318 424.911 258.93 424.734 258.754C424.187 258.197 424.165 257.52 424.144 256.849C424.142 256.79 424.14 256.73 424.138 256.671C424.078 255.183 424.028 253.697 423.977 252.212L423.977 252.204L423.977 252.196C423.935 250.957 423.893 249.718 423.845 248.48C423.843 248.407 423.843 248.33 423.844 248.251C423.844 247.907 423.844 247.532 423.669 247.339C423.264 246.811 423.076 246.148 423.144 245.487C423.089 244.141 423.04 242.795 422.992 241.448L422.992 241.445C422.944 240.107 422.896 238.768 422.841 237.428C422.839 237.397 422.838 237.366 422.837 237.333L422.835 237.269L422.833 237.194C422.821 236.768 422.809 236.294 422.581 236.039C422.081 235.493 422.083 234.898 422.084 234.29L422.084 234.198C422.027 232.846 421.975 231.494 421.923 230.144L421.922 230.124L421.921 230.099L421.921 230.097C421.869 228.733 421.816 227.37 421.758 226.008C421.803 225.57 421.73 225.129 421.548 224.729C421.053 224.099 421.055 223.416 421.057 222.725L421.057 222.601C421.043 222.243 421.036 221.882 421.029 221.522V221.521C421.018 220.907 421.006 220.294 420.958 219.696C420.942 219.501 420.942 219.298 420.943 219.096C420.946 218.317 420.949 217.532 420.002 217.095C419.931 217.067 419.931 216.935 419.931 216.852C419.867 216.454 419.57 216.236 419.273 216.017C418.981 215.802 418.688 215.586 418.611 215.199C418.181 215.11 417.898 214.81 417.612 214.507C417.313 214.192 417.011 213.872 416.535 213.782C416.05 213.623 415.587 213.4 415.16 213.121C415.098 213.089 415.025 213.063 414.953 213.039C414.815 212.991 414.677 212.943 414.608 212.845C414.23 212.305 413.659 212.241 413.125 212.181C413.027 212.17 412.93 212.159 412.836 212.145C412.687 212.123 412.53 212.109 412.371 212.095C411.878 212.05 411.369 212.004 411.069 211.737C410.519 211.309 409.832 211.095 409.136 211.136C408.809 211.112 408.481 211.096 408.154 211.079L408.153 211.079C407.73 211.057 407.309 211.036 406.889 210.999C406.816 210.991 406.735 210.985 406.651 210.98C406.319 210.958 405.939 210.933 405.785 210.739C405.273 210.14 404.647 210.134 404.024 210.129C403.96 210.128 403.897 210.128 403.834 210.127C403.747 210.125 403.661 210.122 403.576 210.117C402.931 210.076 402.285 210.052 401.639 210.029H401.639C401.051 210.007 400.463 209.985 399.877 209.951C399.794 209.946 399.705 209.943 399.614 209.94C399.226 209.928 398.798 209.914 398.601 209.709C398.02 209.084 397.331 209.088 396.638 209.092C396.549 209.092 396.461 209.092 396.372 209.092C396.298 209.091 396.223 209.089 396.15 209.086C395.653 209.061 395.157 209.05 394.661 209.039H394.66C393.965 209.024 393.27 209.008 392.577 208.954C392.416 208.942 392.253 208.936 392.09 208.931C391.295 208.902 390.491 208.873 389.85 208.215C389.723 208.099 389.43 208.099 389.215 208.099C388.083 208.066 386.946 208.034 385.814 208.033L385.813 208L385.78 208.033L385.814 208.033C385.83 208.696 385.845 209.357 385.86 210.018L385.863 210.146C385.917 212.471 385.971 214.788 386.034 217.111C386.016 217.466 386.085 217.819 386.233 218.142C386.658 218.968 386.849 219.894 386.785 220.821C386.802 221.645 386.817 222.468 386.831 223.292L386.831 223.295L386.831 223.297C386.863 225.117 386.896 226.936 386.956 228.753C387.023 229.403 387.147 230.047 387.326 230.676C387.545 231.38 387.704 232.101 387.801 232.831C387.871 234.52 387.903 236.211 387.935 237.902V237.904L387.935 237.914C387.954 238.906 387.973 239.899 388 240.89C387.965 241.374 388.029 241.859 388.188 242.317C388.794 243.548 388.826 244.85 388.859 246.153C388.862 246.251 388.864 246.348 388.867 246.446C388.916 248.14 388.948 249.832 388.98 251.525C389.001 252.652 389.022 253.779 389.049 254.907C389.05 255.001 389.047 255.1 389.043 255.2C389.031 255.524 389.019 255.861 389.17 256.075C389.913 257.131 389.918 258.303 389.924 259.475C389.925 259.698 389.926 259.921 389.932 260.143C389.988 261.905 390.021 263.669 390.055 265.433C390.075 266.49 390.095 267.547 390.12 268.604C390.073 268.993 390.14 269.388 390.313 269.74C390.678 270.242 390.854 270.857 390.81 271.476C390.921 274.59 391.031 277.715 391.108 280.846C391.124 281.342 391.079 281.841 391.038 282.314V282.315V282.315C391.026 282.445 391.015 282.573 391.005 282.699C390.998 282.786 390.992 282.872 390.987 282.957C390.841 283.019 390.692 283.067 390.556 283.11C390.291 283.195 390.077 283.263 390.037 283.387C389.906 283.855 389.546 284.011 389.187 284.167C389.034 284.233 388.881 284.3 388.745 284.39C388.524 284.527 388.32 284.69 388.138 284.875C387.973 285.05 387.751 285.165 387.53 285.279C387.13 285.486 386.731 285.693 386.664 286.253C386.169 286.215 385.931 286.556 385.692 286.898C385.453 287.24 385.214 287.582 384.72 287.543C384.301 288.133 383.703 288.527 383.103 288.923C382.47 289.34 381.835 289.758 381.407 290.409C380.984 290.437 380.752 290.737 380.52 291.037C380.288 291.336 380.057 291.636 379.635 291.666C379.383 292.183 378.91 292.428 378.437 292.673C377.996 292.901 377.554 293.13 377.288 293.579C376.893 293.546 376.754 293.855 376.637 294.116C376.554 294.3 376.482 294.461 376.338 294.461C375.872 294.482 375.638 294.807 375.408 295.124C375.169 295.454 374.936 295.776 374.456 295.745C374.447 296.379 374.035 296.486 373.609 296.596C373.498 296.625 373.386 296.654 373.28 296.693C373.019 296.827 372.789 297.015 372.606 297.244C372.154 297.747 371.651 298.202 371.104 298.6C370.824 298.78 370.604 299.003 370.382 299.229C370.065 299.551 369.744 299.878 369.238 300.088C368.819 300.262 368.458 300.582 368.097 300.902C367.715 301.24 367.334 301.578 366.886 301.742C366.577 301.856 366.459 302.084 366.349 302.296C366.235 302.514 366.13 302.717 365.837 302.767C365.47 302.83 365.26 303.107 365.046 303.388C364.811 303.697 364.572 304.011 364.119 304.057C364.021 304.066 363.947 304.208 363.866 304.362C363.798 304.494 363.725 304.634 363.628 304.707C363.415 304.882 363.18 305.02 362.947 305.157C362.709 305.297 362.473 305.436 362.264 305.611C362.13 305.723 361.953 305.791 361.774 305.859C361.399 306.001 361.016 306.146 361.016 306.714C361.016 306.745 360.957 306.76 360.876 306.781C360.784 306.805 360.663 306.837 360.564 306.907L360.537 306.925L360.495 306.954C360.319 307.076 360.117 307.215 360.078 307.381C360.006 307.756 359.802 307.86 359.454 307.932C359.303 307.958 359.188 308.084 359.075 308.209C359.019 308.272 358.962 308.334 358.902 308.384C358.696 308.577 358.47 308.747 358.228 308.891C358.109 308.946 357.982 308.978 357.858 309.009C357.673 309.056 357.497 309.1 357.378 309.216C357.019 309.623 356.605 309.978 356.146 310.269C355.999 310.35 355.868 310.499 355.728 310.658C355.516 310.898 355.286 311.159 354.954 311.239C354.963 311.708 354.631 311.842 354.312 311.971C354.069 312.069 353.833 312.164 353.761 312.402C353.61 312.891 353.253 312.988 352.901 313.083C352.686 313.141 352.472 313.198 352.309 313.345C352.216 313.431 352.116 313.511 352.011 313.582C351.725 313.766 351.492 314.017 351.259 314.267L351.259 314.267C350.907 314.645 350.555 315.024 350.017 315.18C349.942 315.214 349.877 315.266 349.827 315.332C349.777 315.397 349.744 315.474 349.73 315.555C349.697 316.007 349.449 316.134 349.046 316.189C348.948 316.215 348.857 316.264 348.782 316.332C348.707 316.4 348.65 316.485 348.615 316.58C348.554 316.931 348.347 317.01 348.103 317.102C348.036 317.127 347.967 317.153 347.897 317.186C347.752 317.257 347.598 317.326 347.441 317.397L347.44 317.398C346.746 317.71 345.995 318.049 345.738 318.592C345.587 318.918 345.284 319.076 344.992 319.227C344.604 319.43 344.236 319.621 344.281 320.185C343.819 320.233 343.526 320.547 343.233 320.862C342.916 321.202 342.6 321.541 342.072 321.541C341.955 321.546 341.83 321.669 341.721 321.777C341.701 321.796 341.682 321.815 341.663 321.833C341.506 321.989 341.357 322.17 341.209 322.35L341.209 322.35C340.889 322.739 340.572 323.125 340.173 323.25C339.82 323.354 339.645 323.624 339.49 323.862C339.351 324.075 339.23 324.262 339.013 324.28C338.529 324.319 338.384 324.604 338.217 324.934C338.125 325.116 338.026 325.311 337.859 325.487C337.666 325.459 337.437 325.454 337.202 325.449H337.201C336.668 325.437 336.102 325.425 335.849 325.135C335.419 324.645 334.851 324.497 334.282 324.35C333.705 324.2 333.127 324.05 332.691 323.542C332.495 323.315 332.153 323.209 331.777 323.093C331.423 322.984 331.039 322.865 330.72 322.627C330.438 322.416 330.063 322.321 329.673 322.223L329.672 322.223C329.153 322.091 328.605 321.952 328.207 321.524C328.158 321.453 328.042 321.453 327.954 321.453C327.813 321.429 327.67 321.411 327.526 321.393L327.526 321.393C326.854 321.31 326.182 321.227 325.8 320.477C325.767 320.4 325.633 320.391 325.496 320.383C325.465 320.381 325.433 320.379 325.403 320.376C325.368 320.373 325.334 320.368 325.303 320.361C325.215 320.343 325.125 320.328 325.036 320.313C324.528 320.226 324.026 320.14 323.763 319.54C323.734 319.432 323.48 319.396 323.276 319.367C323.241 319.362 323.208 319.357 323.177 319.353C322.904 319.31 322.631 319.284 322.351 319.257L322.348 319.257C322.226 319.245 322.104 319.234 321.979 319.22C321.87 319.122 321.794 318.987 321.718 318.85C321.553 318.555 321.383 318.253 320.875 318.294C320.479 318.357 320.074 318.307 319.705 318.151C319.336 317.996 319.018 317.74 318.788 317.412C318.697 317.316 318.572 317.259 318.44 317.253C318.303 317.238 318.162 317.231 318.021 317.225H318.021C317.39 317.198 316.762 317.171 316.491 316.338C316.469 316.255 316.171 316.222 315.999 316.222L314.79 316.068L314.415 315.379C314.156 315.302 313.903 315.248 313.665 315.197L313.665 315.197L313.665 315.197C313.166 315.09 312.731 314.996 312.433 314.739C312.036 314.41 311.56 314.19 311.052 314.1C310.933 314.071 310.791 314.057 310.648 314.043C310.359 314.016 310.066 313.988 309.948 313.83C309.472 313.192 308.826 313.092 308.155 312.989C308.101 312.981 308.047 312.973 307.993 312.964C307.973 312.961 307.95 312.957 307.926 312.954C307.798 312.934 307.634 312.909 307.634 312.849C307.408 312.174 306.888 312.124 306.368 312.073C306.204 312.057 306.039 312.041 305.884 312.005C305.872 312.002 305.859 312 305.846 311.997L305.797 311.986C305.638 311.953 305.447 311.912 305.415 311.829C305.201 311.206 304.712 311.148 304.221 311.089C304.078 311.072 303.934 311.055 303.797 311.024C303.56 310.974 303.217 310.875 303.134 310.699C303.022 310.481 302.845 310.303 302.628 310.189C302.41 310.076 302.163 310.032 301.92 310.065C301.271 310.057 300.741 309.728 300.211 309.399C299.645 309.048 299.079 308.697 298.369 308.737C298.348 308.731 298.327 308.721 298.31 308.707C298.302 308.699 298.294 308.691 298.287 308.683C298.28 308.674 298.275 308.664 298.27 308.654C298.094 308.02 297.615 307.992 297.151 307.964C297.018 307.956 296.886 307.949 296.763 307.926L296.696 307.914C296.508 307.879 296.318 307.844 296.155 307.844L295.813 307.133C295.561 307.067 295.305 307.027 295.062 306.988C294.565 306.908 294.118 306.837 293.847 306.581C293.371 306.137 292.753 305.876 292.102 305.843C291.732 305.799 291.153 305.705 291.064 305.485C290.85 304.925 290.379 304.876 289.989 304.836C289.907 304.827 289.828 304.819 289.756 304.807C289.685 304.794 289.612 304.786 289.54 304.778L289.539 304.778L289.539 304.778C289.185 304.739 288.832 304.7 288.745 304.184C288.729 304.062 288.497 303.897 288.353 303.897C287.569 303.791 286.823 303.492 286.183 303.026C285.856 302.825 285.465 302.745 285.067 302.664C284.452 302.539 283.822 302.41 283.389 301.825C283.356 301.786 283.224 301.786 283.135 301.786C282.533 301.794 282.043 301.489 281.553 301.184C281.023 300.854 280.494 300.524 279.823 300.59C279.463 299.832 278.822 299.771 278.17 299.709C278.021 299.695 277.871 299.681 277.724 299.658C277.558 299.616 277.415 299.509 277.327 299.361C277.188 299.134 276.988 298.951 276.75 298.833C276.511 298.715 276.244 298.667 275.98 298.694C275.693 298.711 275.406 298.657 275.145 298.537C274.884 298.417 274.657 298.234 274.483 298.005C274.39 297.859 274.247 297.751 274.08 297.702C273.95 297.682 273.817 297.668 273.685 297.655H273.685C273.046 297.591 272.411 297.527 272.109 296.737C272.076 296.638 271.789 296.638 271.618 296.638C271.494 296.623 271.367 296.616 271.24 296.609C270.681 296.579 270.125 296.549 269.9 295.795C269.856 295.684 269.514 295.613 269.304 295.613C268.644 295.619 268.008 295.368 267.532 294.913C267.347 294.709 267.002 294.65 266.655 294.59C266.495 294.563 266.335 294.536 266.19 294.494C266.087 294.462 265.965 294.441 265.842 294.419C265.579 294.373 265.314 294.326 265.235 294.18C265.152 294.012 265.037 293.862 264.896 293.739C264.755 293.616 264.591 293.522 264.413 293.463C264.235 293.403 264.048 293.379 263.861 293.393C263.674 293.406 263.492 293.456 263.324 293.54C262.979 293.692 262.676 293.925 262.439 294.218C262.203 294.512 262.041 294.858 261.966 295.227C261.899 295.759 261.613 296.199 261.325 296.64C260.992 297.15 260.657 297.663 260.657 298.325C260.657 298.374 260.587 298.412 260.501 298.46C260.424 298.502 260.334 298.552 260.271 298.622C260.254 298.641 260.236 298.66 260.218 298.68C260.094 298.817 259.951 298.974 259.951 299.118C259.951 299.748 259.613 300.235 259.276 300.721C258.929 301.22 258.584 301.719 258.609 302.37C257.991 302.571 257.892 303.057 257.793 303.544C257.756 303.727 257.719 303.911 257.654 304.079C257.537 304.305 257.392 304.516 257.223 304.707C257.18 304.767 257.13 304.826 257.08 304.884C256.965 305.019 256.849 305.154 256.814 305.308C256.78 305.452 256.764 305.605 256.748 305.759L256.748 305.76L256.748 305.76C256.695 306.272 256.642 306.788 255.903 306.962C255.826 306.978 255.765 307.27 255.765 307.441C255.735 307.986 255.426 308.418 255.116 308.851C254.745 309.37 254.374 309.89 254.479 310.605C254.485 310.647 254.414 310.69 254.325 310.744C254.248 310.791 254.159 310.845 254.092 310.914L254.069 310.937C254.052 310.954 254.035 310.972 254.016 310.99C253.883 311.121 253.733 311.269 253.733 311.421C253.727 311.467 253.721 311.513 253.714 311.559C253.625 312.213 253.538 312.852 252.795 313.141C252.836 313.806 252.502 314.309 252.168 314.813C251.923 315.182 251.678 315.551 251.58 315.985C251.562 316.062 251.547 316.147 251.532 316.235L251.532 316.235C251.489 316.492 251.443 316.761 251.298 316.839C250.781 317.116 250.651 317.629 250.523 318.138C250.386 318.682 250.25 319.221 249.642 319.463C249.747 320.127 249.392 320.613 249.036 321.098C248.701 321.556 248.365 322.014 248.416 322.621C247.736 323.147 247.524 323.9 247.312 324.652C247.289 324.733 247.266 324.813 247.242 324.894C247.226 324.952 247.208 325.011 247.19 325.069C247.171 325.129 247.104 325.171 247.036 325.214C247.012 325.229 246.988 325.244 246.966 325.26C246.942 325.278 246.92 325.296 246.903 325.317C246.862 325.367 246.812 325.418 246.763 325.469C246.628 325.609 246.489 325.752 246.489 325.901C246.447 326.443 246.149 326.883 245.853 327.322C245.494 327.852 245.137 328.381 245.23 329.087L245.23 329.094C245.23 329.103 245.229 329.111 245.227 329.12C245.226 329.126 245.224 329.133 245.221 329.139C245.22 329.144 245.218 329.148 245.215 329.153C245.205 329.173 245.189 329.19 245.17 329.203C244.491 329.41 244.408 329.938 244.324 330.47C244.301 330.617 244.278 330.765 244.242 330.906C244.198 331.066 244.121 331.308 244.005 331.341C243.483 331.484 243.413 331.89 243.342 332.298C243.323 332.409 243.304 332.52 243.276 332.625C243.231 332.924 243.107 333.206 242.917 333.441C242.424 333.887 242.132 334.46 241.842 335.03L241.841 335.031C241.712 335.284 241.583 335.537 241.437 335.778C241.283 336.032 241.226 336.333 241.169 336.636C241.068 337.169 240.967 337.705 240.333 337.983C240.403 338.67 240.058 339.175 239.706 339.69C239.447 340.069 239.185 340.454 239.079 340.921C238.984 341.34 238.757 341.741 238.523 342.153C238.271 342.598 238.012 343.055 237.903 343.561C237.893 343.604 237.872 343.644 237.844 343.677C237.815 343.711 237.779 343.737 237.738 343.754C237.275 343.894 237.228 344.239 237.177 344.606L237.177 344.606C237.173 344.635 237.169 344.664 237.165 344.693C237.159 344.731 237.154 344.769 237.147 344.807C237.112 345.159 236.954 345.487 236.7 345.733C236.378 345.948 236.287 346.237 236.196 346.526C236.154 346.659 236.112 346.792 236.048 346.918C235.527 347.801 235.075 348.722 234.695 349.674C234.68 349.716 234.651 349.751 234.612 349.773C234.13 350.008 234.076 350.42 234.022 350.824C233.997 351.017 233.972 351.208 233.9 351.377C233.806 351.601 233.651 351.807 233.499 352.011C233.294 352.285 233.092 352.554 233.044 352.854C232.947 353.364 232.662 353.784 232.379 354.199C232.008 354.746 231.642 355.286 231.714 356.013C231.309 356.137 231.188 356.485 231.074 356.809C230.991 357.046 230.913 357.271 230.731 357.385C230.13 357.756 230.041 358.282 229.953 358.802C229.945 358.846 229.938 358.89 229.93 358.934C229.923 358.974 229.916 359.015 229.909 359.055C229.82 359.577 229.733 360.087 229.179 360.384C229.078 360.432 229.033 360.579 228.987 360.729L228.987 360.729C228.973 360.774 228.96 360.818 228.944 360.861C228.935 360.887 228.925 360.911 228.914 360.935C228.797 361.193 228.684 361.448 228.573 361.701C228.281 362.364 227.994 363.017 227.622 363.691C227.21 364.439 226.772 365.156 226.33 365.88L226.317 365.9C226.213 366.071 226.109 366.242 226.004 366.414C225.88 366.596 225.812 366.811 225.811 367.031C225.91 367.886 225.418 368.499 224.944 369.089C224.758 369.321 224.574 369.549 224.431 369.787C224.174 370.202 223.984 370.656 223.794 371.111C223.509 371.791 223.223 372.473 222.714 373.028C222.684 373.069 222.683 373.141 222.682 373.217C222.68 373.284 222.679 373.354 222.658 373.409C222.573 373.625 222.468 373.828 222.362 374.034L222.333 374.092L222.281 374.188C222.218 374.304 222.155 374.42 222.092 374.536C221.948 374.799 221.805 375.062 221.67 375.327C221.593 375.469 221.526 375.621 221.458 375.775L221.458 375.775C221.406 375.895 221.353 376.015 221.295 376.131C221.19 376.341 221.081 376.547 220.972 376.754L220.971 376.756C220.862 376.962 220.753 377.168 220.649 377.377C220.606 377.459 220.576 377.559 220.546 377.657L220.546 377.657C220.496 377.823 220.447 377.985 220.339 378.044C219.872 378.306 219.799 378.714 219.726 379.124C219.694 379.3 219.663 379.477 219.6 379.643C219.322 380.198 218.989 380.725 218.606 381.213C218.595 381.255 218.595 381.299 218.606 381.34C218.602 382.104 218.203 382.679 217.804 383.253C217.552 383.616 217.3 383.979 217.148 384.388C216.89 384.827 216.686 385.295 216.541 385.783C216.48 386.416 216.125 386.869 215.77 387.321C215.508 387.656 215.246 387.99 215.105 388.396C215.06 388.56 214.946 388.708 214.832 388.855C214.709 389.014 214.587 389.172 214.553 389.349C214.538 389.433 214.524 389.516 214.51 389.599C214.385 390.329 214.271 390.999 213.587 391.554C213.451 391.663 213.38 391.852 213.303 392.057C213.189 392.359 213.063 392.695 212.698 392.849C212.593 392.899 212.526 393.163 212.526 393.334C212.431 394.017 212.124 394.653 211.649 395.153C211.473 395.341 211.417 395.602 211.36 395.865C211.272 396.272 211.183 396.684 210.649 396.834C210.579 397.639 210.192 398.293 209.8 398.955C209.701 399.123 209.601 399.292 209.506 399.464C209.395 399.669 209.323 399.893 209.252 400.119C209.121 400.531 208.988 400.949 208.606 401.266C208.482 401.369 208.442 401.568 208.401 401.771C208.376 401.892 208.351 402.015 208.308 402.12C208.194 402.388 208.067 402.649 207.927 402.903C207.833 403.084 207.735 403.264 207.638 403.444C207.513 403.675 207.388 403.905 207.27 404.138C207.208 404.261 207.157 404.393 207.105 404.527C207.051 404.667 206.996 404.809 206.928 404.942C206.793 405.204 206.652 405.46 206.51 405.716L206.51 405.717L206.443 405.837L206.388 405.937C206.326 406.05 206.265 406.163 206.204 406.276C206.156 406.371 206.11 406.469 206.064 406.566L206.064 406.567L206.064 406.567C206.006 406.69 205.949 406.813 205.884 406.932C205.861 406.975 205.838 407.018 205.815 407.061C205.794 407.099 205.773 407.137 205.752 407.175C205.713 407.246 205.675 407.317 205.636 407.388L205.629 407.4C205.473 407.684 205.316 407.969 205.166 408.261C205.097 408.393 205.042 408.541 204.987 408.689C204.942 408.813 204.896 408.937 204.841 409.054C204.727 409.283 204.61 409.508 204.493 409.733C204.375 409.957 204.258 410.182 204.145 410.41C204.106 410.488 204.076 410.584 204.048 410.678C203.994 410.851 203.943 411.02 203.836 411.066C203.398 411.255 203.312 411.607 203.227 411.96C203.192 412.101 203.158 412.242 203.101 412.373C203.021 412.565 202.933 412.734 202.839 412.915C202.766 413.056 202.69 413.204 202.61 413.376C202.508 413.594 202.414 413.815 202.319 414.036C202.244 414.212 202.169 414.388 202.091 414.561L202.046 414.661C201.957 414.859 201.868 415.056 201.76 415.244C201.664 415.413 201.564 415.578 201.463 415.744C201.323 415.972 201.183 416.201 201.058 416.44C201.012 416.533 200.988 416.661 200.965 416.784C200.934 416.954 200.904 417.112 200.821 417.14C200.272 417.33 200.195 417.748 200.117 418.166C200.093 418.295 200.069 418.424 200.031 418.546C200.011 418.616 199.997 418.703 199.983 418.789C199.955 418.959 199.928 419.125 199.855 419.147C199.143 419.368 199.093 419.895 199.042 420.43C199.029 420.575 199.015 420.721 198.988 420.861C198.944 421.076 198.833 421.346 198.684 421.412C198.245 421.6 198.148 421.956 198.049 422.318C198.024 422.411 197.998 422.505 197.966 422.597C197.831 422.944 197.676 423.282 197.502 423.611C197.289 423.934 197.13 424.29 197.033 424.664C196.989 425.411 196.989 426.16 197.033 426.908C197.039 427.073 197.077 427.338 197.177 427.382C197.84 427.659 197.913 428.2 197.986 428.734C198.017 428.964 198.048 429.193 198.126 429.399C198.216 429.442 198.325 429.485 198.434 429.527L198.434 429.528C198.673 429.621 198.905 429.712 198.905 429.796C198.905 430.264 199.241 430.407 199.544 430.536C199.759 430.627 199.957 430.711 200.009 430.898C200.174 431.471 200.571 431.535 200.963 431.599C201.148 431.629 201.331 431.658 201.489 431.742C201.535 431.767 201.598 431.781 201.658 431.796C201.743 431.815 201.823 431.834 201.842 431.879C202.094 432.544 202.622 432.606 203.153 432.669L203.153 432.669L203.154 432.669C203.31 432.687 203.466 432.705 203.615 432.739C203.871 432.765 204.113 432.867 204.31 433.031C204.515 433.229 204.761 433.381 205.029 433.476C205.298 433.571 205.584 433.607 205.868 433.583C205.922 433.587 205.977 433.591 206.032 433.595C206.107 433.601 206.183 433.607 206.258 433.612C206.39 433.622 206.521 433.631 206.652 433.641L206.654 433.641L206.655 433.641C207.231 433.683 207.8 433.724 208.374 433.781C208.425 433.785 208.478 433.789 208.532 433.793C208.816 433.812 209.121 433.832 209.247 433.985C209.672 434.529 210.229 434.544 210.79 434.56C210.843 434.561 210.896 434.563 210.949 434.565C210.984 434.566 211.018 434.568 211.052 434.569C211.607 434.597 212.162 434.614 212.719 434.631L212.721 434.631L212.724 434.631C213.401 434.652 214.079 434.673 214.757 434.713C214.845 434.717 214.937 434.72 215.032 434.723C215.501 434.737 216.019 434.752 216.281 435.005C216.863 435.561 217.51 435.576 218.174 435.591C218.279 435.593 218.384 435.595 218.49 435.6C219.336 435.636 220.184 435.661 221.033 435.685L221.037 435.685C221.6 435.702 222.162 435.718 222.725 435.738L222.813 435.741C223.572 435.766 224.305 435.791 224.9 436.449C225.072 436.648 225.466 436.68 225.814 436.708L225.817 436.708C225.882 436.713 225.945 436.718 226.004 436.724C226.677 436.791 227.353 436.842 228.029 436.894ZM385.801 207.999C385.843 207.999 385.885 207.999 385.927 207.999L385.933 207.987C385.967 207.789 385.98 207.562 385.993 207.334C386.022 206.828 386.051 206.322 386.314 206.127C386.864 205.724 386.91 205.268 386.959 204.791C386.972 204.667 386.984 204.542 387.006 204.417C387.031 204.275 387.043 204.11 387.056 203.945C387.085 203.558 387.115 203.167 387.305 203.059C387.984 202.677 388.009 202.127 388.034 201.563C388.041 201.411 388.048 201.257 388.068 201.105C388.077 201.017 388.082 200.928 388.088 200.839C388.119 200.337 388.15 199.843 388.677 199.449C388.921 199.269 388.984 198.79 389.038 198.384C389.045 198.331 389.052 198.279 389.059 198.229C389.101 197.918 389.115 197.602 389.128 197.285C389.141 196.985 389.154 196.684 389.191 196.386C389.225 196.105 389.297 195.691 389.49 195.591C390.009 195.31 390.039 194.855 390.069 194.405C390.073 194.342 390.077 194.279 390.082 194.217C390.125 193.68 390.148 193.137 390.171 192.594C390.187 192.215 390.203 191.836 390.226 191.457C390.231 191.381 390.233 191.299 390.234 191.216C390.237 190.961 390.241 190.696 390.37 190.563C391.083 189.843 391.096 188.962 391.109 188.095C391.111 187.92 391.114 187.745 391.122 187.572C391.192 186.249 391.228 184.926 391.264 183.605C391.281 182.941 391.299 182.279 391.322 181.616C391.276 181.266 391.31 180.909 391.421 180.573C392.098 179.483 392.027 178.326 391.956 177.169C391.928 176.709 391.9 176.249 391.919 175.794C391.946 175.574 391.895 175.351 391.775 175.164C391.284 174.624 391.289 173.978 391.293 173.339C391.293 173.28 391.294 173.22 391.294 173.161C391.271 172.562 391.252 171.962 391.232 171.362C391.19 170.066 391.148 168.77 391.073 167.476C391.088 166.906 390.947 166.343 390.663 165.848C390.367 165.418 390.208 164.908 390.209 164.385C390.186 164.083 390.174 163.781 390.163 163.479C390.147 163.075 390.132 162.672 390.088 162.271C390.081 162.211 390.074 162.148 390.068 162.084C390.028 161.69 389.983 161.243 389.75 161.03C389.175 160.489 389.139 159.847 389.102 159.187C389.095 159.079 389.089 158.97 389.081 158.861C389.075 158.785 389.07 158.701 389.066 158.613C389.044 158.202 389.018 157.71 388.826 157.619C388.207 157.324 388.162 156.848 388.116 156.368C388.098 156.182 388.08 155.996 388.029 155.819C387.862 155.34 387.65 154.876 387.399 154.434C387.368 154.37 387.307 154.313 387.248 154.258C387.17 154.184 387.094 154.113 387.094 154.031C387.082 153.916 387.072 153.801 387.062 153.686C387 152.947 386.938 152.221 386.115 151.796C386.021 151.746 386.021 151.465 386.021 151.294L386.02 151.287C385.965 150.677 385.914 150.106 385.307 149.693C385.144 149.583 385.077 149.331 385.01 149.078C384.98 148.962 384.949 148.846 384.909 148.744C384.88 148.669 384.859 148.581 384.837 148.493C384.792 148.307 384.747 148.123 384.638 148.07C384.166 147.847 384.077 147.447 383.988 147.047C383.956 146.904 383.924 146.76 383.874 146.624C383.847 146.549 383.827 146.447 383.808 146.349C383.776 146.189 383.747 146.039 383.692 146.039C382.945 145.929 382.901 145.245 382.901 144.825C382.894 144.404 382.618 144.224 382.363 144.058C382.16 143.925 381.97 143.802 381.938 143.572C381.81 142.706 381.272 142.082 380.734 141.458C380.293 140.946 379.851 140.433 379.636 139.786C379.107 139.633 378.942 139.17 378.777 138.706C378.597 138.199 378.416 137.691 377.761 137.578C377.78 137.458 377.773 137.335 377.739 137.218C377.705 137.101 377.646 136.993 377.564 136.902C377.483 136.811 377.383 136.739 377.27 136.692C377.158 136.645 377.036 136.623 376.914 136.629C376.875 136.626 376.848 136.552 376.818 136.469C376.796 136.41 376.773 136.347 376.742 136.303C376.278 135.5 375.764 134.726 375.204 133.985C374.872 133.591 374.504 133.229 374.135 132.866C373.487 132.227 372.838 131.588 372.383 130.779C371.99 130.75 371.797 130.449 371.614 130.164C371.478 129.952 371.347 129.748 371.143 129.675C370.803 129.561 370.614 129.276 370.427 128.997C370.198 128.653 369.975 128.317 369.483 128.317C369.511 127.855 369.182 127.669 368.846 127.479C368.512 127.291 368.172 127.099 368.172 126.628C368.172 126.564 368.002 126.509 367.815 126.449C367.604 126.381 367.371 126.306 367.348 126.203C367.235 125.686 366.894 125.572 366.536 125.452C366.454 125.424 366.372 125.397 366.291 125.364C366.041 125.285 365.819 125.138 365.649 124.939C365.304 124.41 364.805 124.057 364.303 123.702C363.79 123.339 363.274 122.975 362.916 122.417C362.719 122.114 362.357 121.918 361.993 121.721C361.64 121.531 361.286 121.339 361.079 121.048C360.821 120.676 360.417 120.509 360.018 120.344C359.511 120.134 359.012 119.927 358.833 119.31C358.256 119.405 358.074 119.013 357.919 118.68C357.869 118.572 357.822 118.47 357.765 118.393L356.216 118.04C356.247 117.494 355.861 117.331 355.464 117.164C355.098 117.009 354.722 116.85 354.655 116.384C354.641 116.291 354.382 116.25 354.081 116.202C353.815 116.16 353.517 116.113 353.328 116.02C353.136 115.926 352.98 115.729 352.836 115.548C352.676 115.347 352.531 115.165 352.37 115.165C351.726 115.183 351.304 114.82 350.888 114.461C350.539 114.161 350.195 113.864 349.726 113.796C349.591 113.313 349.197 113.217 348.805 113.12C348.681 113.09 348.557 113.06 348.442 113.018C348.366 112.991 348.27 112.969 348.175 112.947C347.972 112.9 347.769 112.854 347.751 112.764C347.638 112.232 347.264 112.175 346.894 112.119C346.754 112.098 346.614 112.077 346.489 112.03C346.393 111.993 346.267 111.973 346.147 111.954C345.962 111.925 345.791 111.898 345.764 111.814C345.53 111.123 345.015 111.057 344.495 110.992C344.339 110.972 344.182 110.952 344.032 110.915C343.817 110.885 343.62 110.777 343.479 110.611C343.137 109.95 342.63 109.981 342.095 110.014C341.938 110.024 341.778 110.034 341.62 110.026C341.596 110.16 341.577 110.271 341.561 110.37C341.546 110.457 341.533 110.535 341.521 110.611C341.481 110.825 341.463 111.06 341.446 111.294C341.407 111.815 341.367 112.334 341.089 112.631C340.589 113.143 340.542 113.686 340.496 114.224C340.483 114.376 340.47 114.528 340.447 114.679C340.422 114.841 340.404 115.011 340.386 115.183C340.327 115.735 340.267 116.304 339.971 116.682C339.624 117.181 339.431 117.77 339.418 118.377C339.398 118.563 339.398 118.769 339.398 118.975C339.398 119.44 339.397 119.907 339.164 120.16C338.451 120.903 338.408 121.73 338.363 122.588C338.356 122.724 338.349 122.86 338.339 122.996C338.334 123.063 338.331 123.138 338.327 123.216C338.31 123.574 338.289 124.01 338.112 124.1C337.389 124.471 337.377 125.049 337.365 125.633C337.361 125.813 337.357 125.994 337.332 126.17C337.317 126.273 337.308 126.387 337.298 126.505C337.268 126.866 337.235 127.252 337.039 127.39C336.437 127.816 336.383 128.371 336.326 128.951C336.316 129.054 336.305 129.157 336.292 129.261C336.281 129.353 336.273 129.451 336.264 129.552C336.23 129.959 336.192 130.403 335.966 130.602C335.439 131.054 335.371 131.594 335.3 132.154C335.286 132.271 335.271 132.388 335.252 132.506C335.233 132.975 335.098 133.432 334.859 133.836C334.426 134.335 334.187 134.971 334.184 135.63C334.182 135.669 334.181 135.709 334.179 135.751C334.166 136.123 334.15 136.585 333.941 136.734C333.309 137.194 333.241 137.811 333.17 138.448C333.16 138.537 333.15 138.626 333.138 138.715C333.127 138.8 333.121 138.895 333.114 138.993C333.094 139.293 333.072 139.614 332.917 139.714C332.258 140.116 332.209 140.706 332.158 141.303C332.147 141.429 332.137 141.555 332.12 141.679C332.053 142.179 331.803 142.614 331.552 143.05C331.228 143.614 330.903 144.179 330.975 144.886C330.981 144.93 330.853 145.04 330.776 145.04C330.298 145.144 330.25 145.489 330.201 145.839C330.189 145.92 330.178 146 330.162 146.078C330.114 146.29 330.11 146.522 330.106 146.754C330.095 147.382 330.085 148.011 329.199 148.253C329.239 148.887 328.936 149.425 328.647 149.938C328.421 150.34 328.203 150.727 328.164 151.134C328.105 151.787 327.792 152.334 327.483 152.873C327.106 153.532 326.735 154.18 326.842 154.997C326.835 155.04 326.818 155.08 326.792 155.115C326.766 155.15 326.732 155.177 326.693 155.196C326.016 155.305 325.979 155.766 325.943 156.224C325.932 156.365 325.92 156.506 325.89 156.636C325.876 156.707 325.868 156.795 325.861 156.881C325.846 157.057 325.832 157.229 325.758 157.254C324.986 157.55 324.935 158.161 324.882 158.781C324.873 158.891 324.863 159.001 324.85 159.109C324.828 159.263 324.728 159.501 324.618 159.528C324.125 159.656 324.047 160.031 323.97 160.401C323.941 160.542 323.912 160.683 323.86 160.809C323.819 160.903 323.79 161.017 323.762 161.129C323.708 161.34 323.656 161.544 323.533 161.598C323.074 161.803 322.989 162.168 322.903 162.535C322.873 162.662 322.843 162.79 322.797 162.912C322.698 163.186 322.583 163.455 322.454 163.718C322.218 164.067 322.012 164.436 321.84 164.821C321.81 164.91 321.788 165.001 321.767 165.091C321.689 165.415 321.615 165.722 321.182 165.842C321.071 165.87 320.966 166.483 321.01 166.483C321.257 166.602 321.382 166.855 321.508 167.109C321.695 167.486 321.882 167.865 322.471 167.802C322.529 167.796 322.571 167.866 322.628 167.961C322.681 168.048 322.746 168.156 322.847 168.243C322.892 168.282 322.939 168.326 322.986 168.37C323.161 168.535 323.349 168.712 323.528 168.712C324.137 168.719 324.54 169.073 324.941 169.425C325.254 169.701 325.566 169.975 325.973 170.081C326.06 170.555 326.422 170.665 326.782 170.774C326.929 170.818 327.075 170.862 327.202 170.931C327.275 170.979 327.397 171.011 327.508 171.04C327.64 171.074 327.755 171.104 327.755 171.152C327.789 171.648 328.146 171.742 328.488 171.833C328.747 171.901 328.998 171.968 329.094 172.206C329.294 172.725 329.694 172.783 330.093 172.84C330.28 172.867 330.466 172.894 330.632 172.968C330.663 172.983 330.702 172.998 330.741 173.013C330.847 173.054 330.958 173.098 330.958 173.15C331.014 173.673 331.337 173.763 331.696 173.862C331.833 173.9 331.975 173.94 332.109 174.005C332.312 174.104 332.498 174.263 332.682 174.42C332.939 174.639 333.189 174.853 333.47 174.889C334.003 174.958 334.122 175.264 334.268 175.64C334.309 175.744 334.351 175.853 334.405 175.965C335.153 175.685 335.602 176.101 336.06 176.526C336.416 176.855 336.777 177.19 337.288 177.207C337.406 177.959 337.94 178.021 338.446 178.08C338.697 178.11 338.941 178.138 339.125 178.25C339.183 178.342 339.24 178.452 339.297 178.559C339.418 178.789 339.532 179.006 339.623 179.006C340.089 178.958 340.339 179.233 340.59 179.509C340.774 179.711 340.958 179.914 341.227 179.988C341.823 180.164 342.361 180.498 342.782 180.954C343.04 181.212 343.401 181.381 343.786 181.561C344.119 181.717 344.47 181.881 344.79 182.119C344.958 182.243 345.121 182.387 345.287 182.533C345.806 182.992 346.353 183.474 347.142 183.449C347.331 183.756 347.673 183.916 347.983 184.061C348.262 184.191 348.516 184.31 348.608 184.514C348.871 185.081 349.306 185.167 349.676 185.24C349.735 185.252 349.793 185.263 349.847 185.276C349.898 185.288 349.948 185.298 349.998 185.309C350.336 185.379 350.632 185.441 350.738 185.894C350.769 186.025 350.981 186.132 351.161 186.223C351.208 186.247 351.253 186.27 351.292 186.291C351.361 186.33 351.449 186.359 351.534 186.387C351.677 186.435 351.813 186.48 351.845 186.567C352.069 187.212 352.575 187.275 353.088 187.34C353.181 187.352 353.274 187.363 353.366 187.379C353.49 187.405 353.612 187.438 353.732 187.478L354.014 188.339C354.783 188.109 355.253 188.529 355.728 188.953C356.073 189.261 356.42 189.571 356.885 189.636C357.123 190.323 357.683 190.52 358.258 190.722C358.686 190.872 359.123 191.025 359.441 191.386C359.956 191.965 360.714 192.765 361.782 192.655C361.829 192.651 361.884 192.733 361.94 192.815C361.969 192.857 361.997 192.899 362.025 192.931C362.615 193.704 363.446 194.26 364.388 194.509C364.6 194.527 364.801 194.61 364.963 194.748C365.125 194.885 365.239 195.07 365.29 195.277C365.919 195.49 366.518 195.785 367.071 196.154C367.125 196.202 367.175 196.251 367.223 196.299C367.404 196.477 367.569 196.639 367.879 196.679C368.032 196.694 368.15 196.827 368.269 196.961C368.322 197.021 368.376 197.082 368.432 197.131C368.484 197.176 368.537 197.231 368.591 197.286C368.728 197.425 368.866 197.567 368.986 197.567C369.557 197.518 369.917 197.861 370.274 198.2C370.602 198.511 370.927 198.82 371.409 198.82C371.603 199.669 372.229 199.739 372.837 199.807C372.976 199.823 373.114 199.839 373.246 199.863C373.315 199.963 373.374 200.07 373.432 200.175C373.551 200.391 373.663 200.595 373.838 200.691C374.375 200.994 374.935 201.256 375.495 201.518C375.783 201.652 376.07 201.787 376.355 201.927C376.379 201.938 376.403 201.951 376.425 201.965C376.454 201.985 376.482 202.008 376.507 202.034C376.55 202.08 376.583 202.134 376.604 202.192C376.66 202.546 376.889 202.623 377.142 202.709C377.213 202.733 377.285 202.757 377.357 202.788C377.501 202.855 377.654 202.921 377.81 202.989C378.525 203.299 379.305 203.637 379.636 204.113C379.936 204.543 380.265 204.669 380.608 204.8C380.727 204.846 380.848 204.892 380.97 204.952C380.991 204.962 381.012 204.973 381.034 204.983C381.25 205.086 381.503 205.208 381.578 205.388C381.645 205.548 381.757 205.685 381.9 205.783C382.044 205.881 382.212 205.935 382.386 205.94C382.505 205.963 382.617 206.013 382.713 206.087C382.809 206.161 382.886 206.256 382.939 206.365C383.055 206.823 383.376 206.873 383.725 206.917C383.961 206.947 384.194 206.989 384.46 207.038C384.586 207.061 384.72 207.085 384.865 207.11C384.669 208.009 385.231 208.004 385.801 207.999Z" fill="black"/>
</svg>
