<svg id="Layer_1" data-name="Layer 1" xmlns="http://www.w3.org/2000/svg" viewBox="0 0 512 512"><defs><style>.cls-1{fill:#2e9ad0;}</style></defs><g id="Lines"><path class="cls-1" d="M310.37,472.86H169.61L56,389.63,12.75,255.21,56,120.79,169.52,37.56H310.37l113.57,83.23,43.19,134.42L423.94,389.63l-1.59,1.58-112,81.65Zm-137.59-9.69H307.2l108.82-80,41.61-128L416,127.21l-108.82-80H172.78l-108.73,80-41.62,128,41.62,128,108.73,80Z"/><path class="cls-1" d="M483.23,450.42l-65.62-59.21-64.05-24L240,381.63,124.83,367.2l-64,24-3.17-9.58L123.16,356h1.67L240,372l115.24-16,1.59,1.58L424,383.21,489.57,444Z"/><path class="cls-1" d="M307.2,477.6,240,384.79,169.61,477.6,118.41,364l9.59-4.84,44.78,99.24L240,367.2l65.63,91.23,44.77-99.24,60.79-121.58,14.43,148.76H416L404.76,272.8,360,364Z"/><path class="cls-1" d="M19.18,250.37H464V260H19.18Z"/><path class="cls-1" d="M411.18,272.8,355.23,162.4l-48,104L240,146.39l-68.8,120-48-104L67.21,272.8,54.37,125.63,64.05,124,73.63,239.2l49.53-97.56,48,104L240,127.21l65.63,118.41,49.61-104,49.53,96,8-113.57h9.68Z"/><path class="cls-1" d="M350.39,154.39,305.62,53.57,240,146.39,172.78,53.57,128,154.39l-8-4.75L169.61,34.4,240,128.79,307.2,34.4,360,149.64Zm65.63,232L404.76,272.8,355.23,372,305.62,266.38,240,386.37l-68.8-120L123.16,372,73.63,272.8,64.05,386.37H54.37L67.21,237.61l56,112,48-104,68.8,120,67.21-120,48,105.57,55.95-113.58,14.43,148.76Z"/><path class="cls-1" d="M355.23,157.65l-116.82-16-115.25,16L57.62,128.79l3.17-9.59,64,27.19,113.58-14.34,116.82,14.34,62.38-27.19,4.84,9.59Z"/></g><g id="Circles"><circle class="cls-1" cx="171.19" cy="468.01" r="19.18"/><circle class="cls-1" cx="305.62" cy="468.01" r="19.18"/><circle class="cls-1" cx="171.19" cy="43.99" r="19.18"/><circle class="cls-1" cx="305.62" cy="43.99" r="19.18"/><circle class="cls-1" cx="417.61" cy="124.04" r="19.18"/><circle class="cls-1" cx="59.21" cy="124.04" r="19.18"/><circle class="cls-1" cx="59.21" cy="388.05" r="19.18"/><circle class="cls-1" cx="19.18" cy="255.21" r="19.18"/><circle class="cls-1" cx="462.38" cy="255.21" r="19.18" transform="translate(136.4 670.74) rotate(-80.78)"/><circle class="cls-1" cx="408.02" cy="255.21" r="19.18"/><circle class="cls-1" cx="70.38" cy="255.21" r="19.18"/><circle class="cls-1" cx="171.19" cy="255.21" r="19.18"/><circle class="cls-1" cx="305.62" cy="255.21" r="19.18"/><circle class="cls-1" cx="239.99" cy="136.82" r="19.18"/><circle class="cls-1" cx="123.16" cy="152.81" r="19.18"/><circle class="cls-1" cx="355.23" cy="152.81" r="19.18"/><circle class="cls-1" cx="239.99" cy="376.79" r="19.18"/><circle class="cls-1" cx="123.16" cy="360.77" r="19.18"/><circle class="cls-1" cx="355.23" cy="360.77" r="19.18"/><circle class="cls-1" cx="486.4" cy="447.26" r="25.6"/></g></svg>