<svg id="Layer_1" data-name="Layer 1" xmlns="http://www.w3.org/2000/svg" viewBox="0 0 512 512"><defs><style>.cls-1{fill:#0e0e21;}.cls-2{fill:#fff;}.cls-3{fill:#2ae7a8;}</style></defs><circle class="cls-1" cx="256" cy="256" r="256"/><path class="cls-2" d="M398.93,315.73,368.53,264a3.32,3.32,0,0,0-5.33-1.07l-19.73,12.8a4.14,4.14,0,0,0-1.07,5.34L360,310.4a2.36,2.36,0,0,1-.53,2.67L257.07,379.2a1.64,1.64,0,0,1-2.14,0L153.6,313.07c-1.07-.54-1.07-1.6-.53-2.67l17.6-29.33a4.15,4.15,0,0,0-1.07-5.34l-19.73-12.8c-2.14-1.06-4.27-.53-5.34,1.07l-30.4,51.73a7.78,7.78,0,0,0,2.67,10.67l136,88.53a8.18,8.18,0,0,0,8.53,0l136-88.53C400,323.73,401.07,318.93,398.93,315.73Z"/><path class="cls-3" d="M164.8,235.2,184.53,248a4,4,0,0,0,5.34-1.07l64-108.8a2,2,0,0,1,3.2,0l64,108.8A3.32,3.32,0,0,0,326.4,248l19.73-12.8a4.13,4.13,0,0,0,1.07-5.33L272,99.73c-1.6-2.66-3.73-3.73-6.93-3.73H246.93A9.13,9.13,0,0,0,240,99.73L163.73,229.87A4.14,4.14,0,0,0,164.8,235.2Z"/></svg>