<svg width="512" height="512" viewBox="0 0 512 512" fill="none" xmlns="http://www.w3.org/2000/svg">
<circle cx="256" cy="256" r="256" fill="white"/>
<path fill-rule="evenodd" clip-rule="evenodd" d="M392.164 153.064C366.171 119.836 328.12 98.6664 286.048 98.6664C204.586 98.6664 144.829 174.502 144.829 256.5C144.829 313.577 182.88 356.452 224.952 356.452C228.971 356.452 232.723 356.184 236.742 355.38C208.338 334.747 190.384 297.231 190.384 256.5C190.384 191.652 234.33 141.005 286.048 141.005C342.59 141.005 381.713 197.011 381.713 256.5C381.445 300.447 365.903 344.126 338.302 376.282C314.185 404.419 283.101 422.105 248.801 427.732C248.801 427.732 251.748 428 255.5 428C350.093 428 427 351.093 427 256.5C427 217.645 414.138 181.737 392.164 153.064ZM366.171 256.5C366.171 199.423 328.12 156.548 286.048 156.548C282.029 156.548 278.277 156.816 274.258 157.62C302.663 178.253 320.616 215.769 320.616 256.5C320.616 321.348 276.67 371.995 224.952 371.995C168.41 371.995 129.287 315.989 129.287 256.5C129.555 212.553 145.097 168.874 172.698 136.718C196.815 108.581 227.899 90.8953 262.199 85.268C262.199 85.268 259.252 85 255.5 85C160.907 85 84 161.907 84 256.5C84 295.355 96.8625 331.263 118.836 359.936C144.829 393.164 182.88 414.066 224.952 414.066C306.414 414.334 366.171 338.498 366.171 256.5Z" fill="#0089DB"/>
</svg>
