<svg id="Layer_1" data-name="Layer 1" xmlns="http://www.w3.org/2000/svg" viewBox="0 0 512 512"><defs><style>.cls-1{fill:#20ee82;}.cls-2{fill:#7f8c8d;}</style></defs><path class="cls-1" d="M332.84,256v76.79H256A76.79,76.79,0,1,1,332.78,256M257,128a128,128,0,0,0-7.61,256H384V257.5c0-70.58-56.39-129-127-129.51"/><path class="cls-2" d="M437,75A256,256,0,0,0,114.88,42.42a51.13,51.13,0,0,1,7.35,10.51A243.56,243.56,0,0,1,427.88,84.11c94.79,94.66,94.79,248.88,0,343.67s-249,94.78-343.79,0A243.56,243.56,0,0,1,53,122.12a50.44,50.44,0,0,1-10.52-7.35c-78,117.85-45.62,276.73,72.23,354.72s276.72,45.62,354.72-72.23A256,256,0,0,0,437,75"/><path class="cls-1" d="M58.87,58.76A25.6,25.6,0,1,1,59,95l-.09-.09a25.6,25.6,0,0,1,0-36.12"/></svg>