<svg width="100" height="100" viewBox="0 0 100 100" fill="none" xmlns="http://www.w3.org/2000/svg">
<circle cx="50" cy="50" r="50" fill="white"/>
<path fill-rule="evenodd" clip-rule="evenodd" d="M49.8982 90C61.781 90 72.4569 84.8447 79.8002 76.6541C76.3842 73.693 71.2363 73.513 67.5997 76.4399L66.905 76.9991C60.2465 82.3582 50.5442 81.5669 44.8472 75.1998C41.7399 71.7274 36.4184 71.3728 32.8757 74.4021L24.8657 81.2519C31.7263 86.7264 40.429 90 49.8982 90ZM62.9004 70.6308C69.2424 65.5262 78.1567 65.7094 84.2564 70.6394C87.9024 64.6137 90 57.5512 90 50.0001C90 41.6093 87.41 33.8221 82.9839 27.3904C80.1305 26.7843 77.0377 27.4922 74.6901 29.5674L74.0218 30.158C67.6183 35.818 57.8899 35.474 51.9042 29.3762C48.6398 26.0503 43.3074 25.9411 39.9087 29.1305L30.5873 37.8777L25.4594 32.4411L34.7808 23.6938C41.1474 17.7193 51.1362 17.9239 57.2516 24.154C60.4468 27.4092 65.6402 27.5928 69.0586 24.5713L69.7268 23.9808C71.8018 22.1466 74.2024 20.9102 76.7162 20.2599C69.6113 13.8816 60.2092 10 49.8982 10C29.5408 10 12.7263 25.1302 10.1408 44.7317C16.3242 41.772 23.9513 42.9109 28.9929 48.0607C32.1757 51.3117 37.3006 51.6548 40.8904 48.8574L46.1021 44.7961C52.6523 39.6919 61.9114 39.9389 68.1785 45.3851L78.3254 54.203L73.4095 59.8311L63.2627 51.0134C59.6991 47.9163 54.434 47.7758 50.7095 50.6782L45.4977 54.7397C38.902 59.8792 29.4864 59.2489 23.6387 53.2758C20.2384 49.8025 14.677 49.6813 11.1278 53.0032L10 54.0589C10.844 62.4132 14.2655 70.0092 19.4592 76.0432L28.005 68.7353C34.6412 63.0602 44.6097 63.7244 50.4304 70.2294C53.4717 73.6284 58.651 74.0507 62.2054 71.1898L62.9004 70.6308Z" fill="#0B2632"/>
</svg>
