<svg id="Layer_1" data-name="Layer 1" xmlns="http://www.w3.org/2000/svg" viewBox="0 0 512 512"><defs><style>.cls-1{fill:#fff;}.cls-2{fill:#f30504;}.cls-2,.cls-3,.cls-4{fill-rule:evenodd;}.cls-3{fill:#fba10b;}.cls-4{fill:#060505;}</style></defs><g id="svgg"><circle id="svg_1" data-name="svg 1" class="cls-1" cx="257.31" cy="264.21" r="247.44"/><path id="path0" class="cls-2" d="M241.14,15.27c-8.56.48-20.34,1.56-21.44,2-.45.17-3.17.65-6,1.07s-6.83,1.12-8.79,1.56l-7.42,1.63c-2.12.47-5.21,1.22-6.87,1.67l-7.33,2a175.14,175.14,0,0,0-17.53,6.1,4.51,4.51,0,0,1-1.54.5A15.65,15.65,0,0,0,161,32.88c-3.85,1.7-5.67,2.48-7.77,3.32-1.9.77-16.78,7.92-19.18,9.22-1.47.8-2.23-.07,16.93,19.57,5.31,5.44,12,12.38,14.87,15.42,6.08,6.44,6.11,6.46,7.78,5.77,3.26-1.35,21.93-6.82,26.55-7.78,17.44-3.61,29.33-5,51.65-5.83,12.29-.48,37.52,1.7,51.67,4.46,8.7,1.69,9.92,2,11.82,2.49,1.06.3,4.4,1.17,7.42,1.92s8.21,2.25,11.54,3.31,6.08,2,6.13,2,2.52-2.91,5.48-6.46,6.26-7.47,7.33-8.7,3.18-3.7,4.69-5.49c3.8-4.5,12.78-14.24,16.16-17.53a13.9,13.9,0,0,0,2.8-3.29c0-.68-9.25-5.25-21.71-10.75-5.07-2.24-6.33-2.74-6.84-2.74a4.09,4.09,0,0,1-1.54-.52C342.71,29,318.16,22,306,19.61a266.16,266.16,0,0,0-64.85-4.34M461.61,120.66c-.34,1.12-1.6,6-2.79,10.83-2.38,9.62-4.2,16.29-6.72,24.73-.9,3-2.14,7.23-2.76,9.34s-2.72,8.61-4.66,14.43l-3.53,10.58,1,2.06c.56,1.13,3.15,6.14,5.74,11.13,8.83,17,15.3,33.61,18.79,48.25.77,3.23,1.63,6.75,1.92,7.8,3.59,13.4,6.06,35.84,6.12,55.79a115,115,0,0,1-.53,13.73c-1.39,6.74-1.78,8.23-3.12,12-.79,2.18-1.65,4.71-1.93,5.62-1.26,4.09-7.93,16.58-12.34,23.08a158.26,158.26,0,0,1-18.72,23.63c-2.51,2.72-5,5.46-5.55,6.08-3.51,4-20.15,18.22-26.84,23-20.42,14.58-39.27,25.46-59.66,34.43-7.05,3.11-23.3,9.33-24.36,9.33a10.07,10.07,0,0,0-2.18.78,62.88,62.88,0,0,1-10.07,3.07,4.38,4.38,0,0,0-1.69.5c-.9.47-5,1.48-15,3.64-2.27.5-5.62,1.25-7.46,1.68a31.75,31.75,0,0,1-5.22.78,73.4,73.4,0,0,0-7.38.85c-15.58,2.4-37.56.49-58.53-5.09-4.49-1.2-15.5-4.57-16.76-5.14-.61-.27-2.34-.9-3.85-1.39-14.18-4.66-46.68-19.86-57.56-26.92a12.59,12.59,0,0,0-2.36-1.34,42,42,0,0,1-4.49-2.74c-2.29-1.51-4.24-2.75-4.33-2.75-1.15,0-19.78-13.36-28.26-20.28-16.55-13.49-22.63-19.34-36-34.62-2.35-2.68-8.49-10.84-8.49-11.27a43.51,43.51,0,0,0-2.52-3.94,39.76,39.76,0,0,1-2.84-4.57,12.83,12.83,0,0,0-1.3-2.31c-9.78-14.13-11.85-28.4-8.75-60.13.91-9.22,4.34-29.4,6-35.45,3-10.62,5.89-20.42,6.63-22.25.25-.61.86-2.43,1.36-4.06,1.18-3.85,6.28-16.86,8.54-21.77,1-2.12,3.24-7,5-10.88,4.27-9.19,4.28-9.7.21-20.73-4.34-11.76-7.55-21.53-9.11-27.75-.22-.9-1-3.63-1.63-6-2.13-7.66-3.84-14.84-5.06-21.32-.76-4-.7-4-5.39,3.1-7.56,11.5-15.82,26.63-20,36.63-.57,1.36-1.71,4-2.54,5.8a33.32,33.32,0,0,0-1.9,5.08,4.28,4.28,0,0,1-.89,2.06,1.48,1.48,0,0,0-.51,1.16,8.78,8.78,0,0,1-.77,2.58c-2,4.53-5.23,15.91-8.88,31.41-2.53,10.75-4.34,26.07-5.54,46.9-.53,9.11,1.55,33.51,3.94,46.25,1.5,8,3.63,17.43,5,22,4,13.79,4.83,16.28,7.2,21.79a9.57,9.57,0,0,1,.75,2.34,4.25,4.25,0,0,0,.53,1.57c.3.52,1.56,3.43,2.81,6.45,12.47,30.14,35.83,62.59,62.15,86.36C94.4,455.32,99.11,459,113.36,469c3.4,2.39,11.59,7.38,17.86,10.88,3.73,2.09,22.37,11.27,22.86,11.27.26,0,1.44.5,7.1,3,3.26,1.45,14.53,5.24,24.45,8.23,41.06,12.37,94.84,12.71,137.12.86,2.42-.68,5.22-1.43,6.23-1.67a31.69,31.69,0,0,0,3.3-1c.8-.3,3.32-1.1,5.58-1.78s4.5-1.41,4.95-1.64,2.06-.84,3.57-1.36,3.49-1.26,4.4-1.65,3.87-1.65,6.59-2.79a254.63,254.63,0,0,0,71.42-46,257.45,257.45,0,0,0,23.7-24.5c1.87-2.16,10-13,14.34-19,14.4-20.17,27.83-49.78,35.15-77.44,8.67-32.81,9.92-78.51,3-108.82-.28-1.21-1-4.67-1.7-7.69s-1.52-6.61-1.93-8c-3.44-11.61-4.27-14.29-5-16.21l-1.57-4.12C490.11,167.2,483.7,153,479.1,145c-5.79-10.13-11.08-18.6-14.32-22.92l-2.55-3.41-.62,2m-74.7,101.63a12.71,12.71,0,0,0,3,0c.84-.13.16-.23-1.51-.23s-2.34.1-1.51.23m-61.55,54.94a4.44,4.44,0,0,0,1.92,0c.53-.14.1-.25-1-.25s-1.49.11-1,.25"/><path id="path1" class="cls-3" d="M53.63.85C44,7.19,37.6,39.38,40.54,66.53c.3,2.78.79,8.15,1.09,11.92a290.5,290.5,0,0,0,4.16,32.15c.42,2.12.93,5.46,1.13,7.42a12.34,12.34,0,0,0,.78,3.85,11.19,11.19,0,0,1,1,3.3c1.44,7.25,3,13.79,5.05,21.16.67,2.41,1.41,5.14,1.63,6,1.56,6.22,4.77,16,9.11,27.75,4.07,11,4.06,11.54-.21,20.73-1.79,3.87-4.06,8.76-5,10.88-2.26,4.91-7.36,17.92-8.54,21.77-.5,1.63-1.11,3.45-1.36,4.06-.74,1.83-3.66,11.63-6.63,22.25-.93,3.31-3.22,15.48-4.67,24.73-1.2,7.73-3.2,29.11-2.75,29.55a21.7,21.7,0,0,0,4.24-.42c8.28-1.27,13.14-1.58,24.92-1.59,13.51,0,20,.64,31.7,3.18,20.25,4.4,44.09,18.24,60.61,35.18,3.37,3.46,3.08,3.49,5-.63,15.74-34.75,34.24-55,60.47-66.05,16.66-7.05,40-8.21,60.18-3,27,7,49.9,28.23,62.09,57.62.94,2.27,1.94,4.62,2.23,5.22s1.15,2.82,1.93,4.93,1.55,4,1.71,4.29,1.94-1.09,3.95-3c12.87-12.26,24.62-19.93,43.1-28.1a12.17,12.17,0,0,1,2.67-.92,9.3,9.3,0,0,0,2.31-.76c5.1-2.27,14.86-4.62,25.92-6.24,10.45-1.54,41-.92,45.61.93,1.47.58,1-12.55-1.05-31a180.91,180.91,0,0,0-4.19-23.91c-.29-1.05-1.15-4.57-1.92-7.8-3.49-14.64-10-31.28-18.79-48.25-2.59-5-5.18-10-5.74-11.13l-1-2.06L444.68,180c1.94-5.82,4-12.31,4.66-14.43s1.86-6.32,2.76-9.34c2.54-8.5,4.35-15.15,6.71-24.73,1.19-4.84,2.52-9.91,2.95-11.27a120.28,120.28,0,0,0,2.86-12.36c2.57-12.68,3.94-20.63,4.86-28.31.43-3.47,1-8.67,1.4-11.54.8-6.63.85-31.55.07-36.27-1.46-8.87-1.83-10.57-3.15-14.62C464.31,6.43,460.51.23,457.69.65c-1.07.15-3.18.44-4.69.63-2.48.31-6.27,1.23-13.47,3.25-16.78,4.73-44.23,22.2-59,37.6a8.45,8.45,0,0,1-2.89,2.25.71.71,0,0,0-.71.71c0,.39-1.26,1.93-2.8,3.43-3.38,3.29-12.36,13-16.16,17.53-1.51,1.79-3.62,4.26-4.69,5.49s-4.36,5.15-7.33,8.7-5.43,6.46-5.48,6.46-2.81-.88-6.13-2-8.52-2.56-11.54-3.31-6.36-1.62-7.42-1.92c-1.9-.54-3.12-.8-11.82-2.49-14.15-2.76-39.38-4.94-51.67-4.46-22.32.88-34.21,2.22-51.65,5.83-4.62,1-23.29,6.43-26.55,7.78-1.67.69-1.7.67-7.78-5.77-2.87-3-9.56-10-14.87-15.42-15.82-16.22-18.14-18.75-17.71-19.28.23-.28.19-.32-.09-.09s-2.14-1.13-4.14-3c-20.17-19-34.93-30.06-49.21-36.75C69.44,1,57-1.39,53.63.85M244,15.1a9.7,9.7,0,0,0,2.75,0c.67-.13,0-.23-1.52-.23s-2.06.11-1.23.24M162.4,171c16.45,4.38,28.19,26.94,18,34.68-5.65,4.3-25.69,6.32-40.7,4.1-12.91-1.91-14.73-20.71-3-31.45,7.57-7,17-9.64,25.68-7.33m196.43.07c17.61,4.56,26.68,24.65,16.06,35.58-6.24,6.42-41.49,4.94-47.9-2-2.45-2.66-3.86-7.9-2.84-10.57a8.65,8.65,0,0,0,.52-2.53c0-2.06,2.9-7.12,6-10.45,8.56-9.25,18.09-12.63,28.18-10m33.31,53.83c1.54,5.58,1.73,7.33,1.75,16l0,8.88-3.71,3.37c-7.55,6.85-15.19,11.07-28.72,15.84-7.49,2.64-9.66,3.25-22.25,6.19-8.18,1.91-22.07,2.78-29.12,1.81l-2.62-.36.34-3.27c.78-7.46,7.46-15.05,21.23-24.11A263,263,0,0,1,369.19,227c5.85-2.72,15.09-5,19.47-4.91l2.72.09.76,2.74m-258.72-1a52.39,52.39,0,0,1,11.54,3.6c6.18,2.77,15.14,7.32,21.44,10.91,3.77,2.16,8.19,4.65,9.81,5.54,19.25,10.58,30.83,21.64,30.85,29.48,0,12.59-63.23-2-82.71-19-6-5.24-7.13-17.58-2.63-28.39,1.68-4,2-4.1,11.7-2.1m-129,6.78c0,1.05.11,1.49.25,1a4.49,4.49,0,0,0,0-1.93c-.14-.53-.25-.09-.25,1m504,7.41c0,1.21.12,1.64.25,1a6.22,6.22,0,0,0,0-2.2c-.14-.52-.25,0-.24,1.24M2.2,254.87c0,1.06.11,1.49.25,1a4.44,4.44,0,0,0,0-1.92c-.14-.53-.25-.1-.25,1m507.34,7.42c0,3.62.09,5,.2,3.14s.1-4.87,0-6.6-.19-.17-.19,3.46M2.2,273c0,1.06.11,1.49.25,1a4.44,4.44,0,0,0,0-1.92c-.14-.53-.25-.09-.25,1m506.17,15.67c0,1.21.12,1.63.25.95a6.22,6.22,0,0,0,0-2.2c-.14-.52-.25,0-.24,1.25m-33.52,29.4c0,1.36.11,1.91.24,1.23a7.87,7.87,0,0,0,0-2.47c-.13-.68-.24-.12-.24,1.24M79,396.83a14,14,0,0,0,1.79,1.78l1.79,1.62L81,398.44c-1.5-1.66-2-2-2-1.61M426.58,405,425,406.82l1.79-1.61a13.31,13.31,0,0,0,1.78-1.79c0-.42-.45-.05-2,1.62M69.4,431.83a15.36,15.36,0,0,0,2.42,2.2,9.57,9.57,0,0,0-1.87-2.2,14.74,14.74,0,0,0-2.43-2.2,9.82,9.82,0,0,0,1.88,2.2m13.74,13.74a15.36,15.36,0,0,0,2.42,2.2,9.48,9.48,0,0,0-1.88-2.2,14.45,14.45,0,0,0-2.42-2.2,9.48,9.48,0,0,0,1.88,2.2m342.34,2.88-1.61,1.79,1.79-1.62a13.57,13.57,0,0,0,1.78-1.78c0-.42-.45,0-2,1.61M255.3,478.93a5.94,5.94,0,0,0,2.19,0c.53-.14,0-.25-1.24-.24s-1.64.12-.95.25m-13.47,33a4.77,4.77,0,0,0,1.92,0c.53-.14.09-.26-1-.26s-1.49.12-1,.26"/><path id="path2" class="cls-4" d="M123.14,223.15c-3,4-5,17.21-3.48,22.86.29,1.09.65,2.64.81,3.43.62,3,8.84,9.37,18.39,14.19,19,9.62,56.56,17.15,65.76,13.21l2.59-1.12-.3-2.94c-.74-7.15-7.28-14.09-22.47-23.84-2.93-1.88-5.46-3.42-5.63-3.42s-3-1.57-6.23-3.49c-12.41-7.35-25.72-14-32.34-16.21-6.93-2.3-16.29-3.76-17.1-2.67m259.51-.35c-10.34,2.15-24.37,8.59-42.3,19.42-23.2,14-31.58,22.13-32.55,31.56l-.31,3,6.38.4c24.9,1.56,60.93-9.8,76.61-24.16l3.44-3.14,0-8.89c0-8.51-.18-10-1.69-15.89l-.66-2.61-3.9.07a41.89,41.89,0,0,0-5,.29M237.29,311.22c-7.28,2.27-10.43,11.92-8.27,25.26,1.67,10.24,14,21.56,28.74,26.31.86.27,1,1.18,1,8.51v8.21l-1.85,1.1a14.46,14.46,0,0,0-3.66,3.76c-1,1.47-1.89,2.77-2,2.88-.86,1.08-21,.2-29-1.27-4.41-.81-17.37-1.18-18-.51-.2.19.38,1.19,1.27,2.21,2.35,2.67,3.57,5.36,4.63,10.21l.94,4.26h2.17c2.4,0,2.42,0,4.07,5.5,1.12,3.69,4.31,10.62,5.7,12.4l1,1.3,1-2.31c.91-2,1-3.6.95-13.36l-.09-11.05,2.84.23c1.55.12,5.06.46,7.78.75,16.13,1.7,36.09,1.7,50.28,0,2.27-.27,6-.65,8.35-.84l4.23-.35-.11,10.6c-.1,10,0,10.72,1.13,12.9,1.27,2.38,2.34,3.45,2.34,2.35a8.9,8.9,0,0,1,.8-2.37c.44-1,1.9-4.58,3.25-8l2.44-6.32,2.91-.89,2.91-.88,1.73-6.29c.95-3.46,1.91-7.2,2.11-8.32l.39-2h-8.14c-6.69,0-8.52.19-10.35,1-3.26,1.48-7.72,1.87-16.52,1.43l-7.83-.4-2.5-3.21c-1.45-1.87-3.09-3.37-3.9-3.58l-1.4-.35.15-8.31.15-8.32,2.2-1c16.86-7.78,21.88-15.23,22-32.52,0-13.14-1.61-16.16-10.22-18.62-4.27-1.22-41.64-1.25-45.53,0m1.39,92.17c.52,2.42,1.48,3.39,4.81,4.82l2.81,1.21,1.83-2c3.17-3.46,5.69-2.47,9.2,3.64,2.23,3.89,5,3.15,10.32-2.79,2.47-2.74,2.28-2.73,5.34-.4l2.46,1.86,2-1.46c2.38-1.71,2.95-2.52,3.48-4.92l.38-1.77h-43l.38,1.79"/></g></svg>