<svg xmlns="http://www.w3.org/2000/svg" viewBox="0 0 80 95.17"><defs><style>.cls-1{fill:#0b4431;}.cls-2{fill:#77baa1;}.cls-3{fill:#f3acbb;}.cls-4{fill:#89b772;}.cls-5{fill:#f08fa2;}.cls-6{fill:#f8d0d9;}.cls-7{fill:#dd8843;}.cls-8{fill:#ebb646;}.cls-9{fill:#fff;}.cls-10{fill:#a5d4c1;}</style></defs><g id="Layer_2" data-name="Layer 2"><g id="Layer_1-2" data-name="Layer 1"><path class="cls-1" d="M39.13,95.17H39C19.09,95.11,9.54,85.56,5,77.63A37.94,37.94,0,0,1,.35,53.53a51.82,51.82,0,0,1,8.3-21.6A66,66,0,0,1,19.26,19.4c2.93-2.68,5.31-4.41,7.22-5.19a63.47,63.47,0,0,1-1.07-7.64V6.34c-.06-3,3.34-4.42,4.47-4.9A20.57,20.57,0,0,1,37,0,28,28,0,0,1,44,.61C45.22.91,49,1.74,49,5l.17,5.49A20.91,20.91,0,0,1,49,13.2c10.67,3.75,19.74,15,23.44,21.12h0a55.13,55.13,0,0,1,6.74,17.36c1.91,10,.3,18.85-4.83,26.55C63.83,93.92,44.92,95.17,39.13,95.17ZM28.51,20.36c-2.38,1.31-9.3,7.09-14.44,15.09-5.07,7.81-12.29,23.33-3.4,39,5.25,9.3,15.1,14.26,28.4,14.32h.12c5,0,21.12-1.08,29.77-14.08,10.2-15.28.12-33.47-2-36.93h0A58.55,58.55,0,0,0,56.67,25.61l-19.51-3L22.37,25.55l7.81-4.42a6,6,0,0,1-.89-.42A6,6,0,0,1,28.51,20.36Zm17.84-.12,7.34,2.86a27.54,27.54,0,0,0-6.15-3.52c-.29.18-.59.36-.95.54A.31.31,0,0,1,46.35,20.24ZM31.91,7.59a49.66,49.66,0,0,0,.9,5.67,4.14,4.14,0,0,0,2.44,2.62l2.39,1,2-1.14a7.11,7.11,0,0,0,1.85-1.55l.24-.36.12-.06a4.85,4.85,0,0,0,.71-3V6.93a20.88,20.88,0,0,0-5.43-.48A14.68,14.68,0,0,0,31.91,7.59Z"/><path class="cls-2" d="M71.59,76.44C61.8,91.17,43.67,92,39,92,33.17,92,16.4,91.23,7.81,76-.42,61.46,3.46,45.77,11.33,33.66c6.15-9.49,15-16.65,17.24-16.77a7.88,7.88,0,0,1,2.09.9A13.23,13.23,0,0,0,37.76,19c4-.35,6.14-1.07,7.4-1.73,1.43-.71,1.79-1.31,2.38-1.07,10.27,3.46,19,14.74,22.14,19.87C73.08,41.65,82.39,60.27,71.59,76.44Z"/><path class="cls-3" d="M13.18,44.34S8.71,55.26,9.66,63.43c.89,7.87,6.2,19.57,19.21,22.43s21.42-.48,28.64-3.7,12.11-10,12.82-16.34.78-15.69-2.8-23.27"/><path class="cls-4" d="M44.92,24.29c-.42,1.49-7.22,2.93-10.32,2.09s-3.28-2.8-4-8.59A13.23,13.23,0,0,0,37.7,19c4-.35,6.14-1.07,7.4-1.73C45.22,18.74,45.34,22.86,44.92,24.29Z"/><path class="cls-5" d="M28.75,79.06a4.88,4.88,0,0,1-.3-2.62c.42-3.23,2.69-11.76,14.44-18.2C57.63,50.13,65.38,57,65.38,57S70,61.1,66.52,70.89s-20.77,13.3-20.77,13.3S32,87.35,28.75,79.06Z"/><path class="cls-5" d="M14.55,61.22c-1,0-1-3.76.18-5.43,1.91-2.68,5.19-.18,5.19-.18S17.06,61.22,14.55,61.22Z"/><path class="cls-6" d="M67.53,42.55c0-1.43-12.17-2.57-27.2-2.57s-27.21,2.93-27.21,4.36,12.17,3.94,27.21,3.94S67.53,44,67.53,42.55Z"/><path class="cls-7" d="M28.57,6.28s1,6.26,1.43,8.05c.36,1.49,2.69,4.71,7,5.19C41.58,20,44.2,16,44.2,16a7.25,7.25,0,0,0,1.73-5.43c-.12-3.7-.18-5.49-.18-5.49S36.09,6,28.57,6.28Z"/><path class="cls-8" d="M45.75,5.08c0-.89-4-2-8.65-1.85s-8.59,2.15-8.53,3.05,4,2.26,8.65,2.14S45.75,6,45.75,5.08Z"/><path class="cls-9" d="M15.39,46.07a2,2,0,0,1-1.14-.84c-.83-1.31-2-4.77,2.75-11.39,6.2-8.71,9.54-5.79,9.54-5.79s4.12,2.09-.35,9.43c-.06.06-.06.12-.12.18C25.65,38.67,21.23,47.68,15.39,46.07Z"/><path class="cls-9" d="M59.65,81.21a1.79,1.79,0,0,1-1.49-2.09,9,9,0,0,1,3.05-5c3.22-2.86,5.54-.3,6.08.42a2.07,2.07,0,0,1,.24.53c.12.6.06,1.79-1.55,3.58C64.13,80.67,61.86,81.63,59.65,81.21Z"/><path class="cls-10" d="M74.57,54.78c.6,1.55-3.82-4.24-4.41-4.3-.9-.12-5.43,10.86-6.57,11.16C62.16,62,50.53,53.53,48,53.76c-4.47.3-13.66,13.79-14.85,14-1.44.24-11.7-12.05-15.4-12.52-1.25-.18-9.9,10.32-10.62,9.54-.35-.36-1.19-8.71-1.07-11,.12-1.49,1.13,5.85,1.55,5.85.72.06,8.65-7.87,10.32-7.75C19.44,52,31.2,62.42,32.33,62.18s12.53-11.46,15-11.82c1.9-.23,12,7.1,14.79,6.63,1.67-.24,6.8-9.31,7.7-9.55C70.57,47.38,73.91,53.11,74.57,54.78Z"/></g></g></svg>