<svg id="f3df8b21-c59c-4f6d-bd71-4d14f697572f" data-name="Layer 1" xmlns="http://www.w3.org/2000/svg" xmlns:xlink="http://www.w3.org/1999/xlink" viewBox="0 0 512 512"><defs><style>.be6a91ca-2a34-4ad2-b174-b80e608296e9{fill:url(#a39c08a1-2eb9-481e-8721-eb78823141a8);}.b0ee777d-81ff-4fc1-be4c-b31189aef164{fill:#00d1ff;}</style><linearGradient id="a39c08a1-2eb9-481e-8721-eb78823141a8" x1="2423.75" y1="282.47" x2="2423.75" y2="965.21" gradientTransform="translate(-224.96 -56.05) scale(0.2)" gradientUnits="userSpaceOnUse"><stop offset="0" stop-color="#090220"/><stop offset="1" stop-color="#170659"/></linearGradient></defs><circle class="be6a91ca-2a34-4ad2-b174-b80e608296e9" cx="256" cy="256" r="256"/><path class="b0ee777d-81ff-4fc1-be4c-b31189aef164" d="M171.68,192.35a10.79,10.79,0,0,0-8.47-3.95H94.84a2.31,2.31,0,0,1-1.49-.56,1.79,1.79,0,0,1-.56-1.27V140.49a1.94,1.94,0,0,1,2-1.84h72.25q27.32,0,47.21,22.37l17.57,21.45-34.23,41.71ZM298,160.81q19.8-22.12,47.42-22.16h72.05a1.84,1.84,0,0,1,1.34.43,1.64,1.64,0,0,1,.42,1.41v46.08a2,2,0,0,1-.42,1.27,1.49,1.49,0,0,1-1.34.56H349.07a10.79,10.79,0,0,0-8.47,3.95l-50.38,61.32,50.6,61.74a10.7,10.7,0,0,0,8.18,3.67h68.38a1.58,1.58,0,0,1,1.34.57,2.28,2.28,0,0,1,.42,1.48v46.08a2,2,0,0,1-.42,1.27,1.49,1.49,0,0,1-1.34.56h-72c-18.41,0-34.08-7.48-47.2-22.37l-41.92-51.16-41.91,51.16Q194.57,369,167,369H94.84a1.58,1.58,0,0,1-1.34-.56,1.93,1.93,0,0,1-.43-1.49V320.92a1.92,1.92,0,0,1,.43-1.27,1.46,1.46,0,0,1,1.34-.57h68.37a11.23,11.23,0,0,0,8.47-3.95l49.46-60.4Z"/></svg>