<svg id="Layer_1" data-name="Layer 1" xmlns="http://www.w3.org/2000/svg" xmlns:xlink="http://www.w3.org/1999/xlink" viewBox="0 0 512 512"><defs><style>.cls-1{fill:url(#linear-gradient);}.cls-2{fill:url(#linear-gradient-2);}.cls-3{fill:url(#linear-gradient-3);}</style><linearGradient id="linear-gradient" x1="464.58" y1="593.16" x2="181.81" y2="1134.78" gradientTransform="translate(0 -586)" gradientUnits="userSpaceOnUse"><stop offset="0" stop-color="#00ffa3"/><stop offset="1" stop-color="#dc1fff"/></linearGradient><linearGradient id="linear-gradient-2" x1="340.95" y1="528.62" x2="58.18" y2="1070.24" xlink:href="#linear-gradient"/><linearGradient id="linear-gradient-3" x1="402.37" y1="560.68" x2="119.6" y2="1102.3" xlink:href="#linear-gradient"/></defs><path class="cls-1" d="M83.18,361.62A16.76,16.76,0,0,1,95,356.73H503.61A8.37,8.37,0,0,1,509.53,371l-80.71,80.71A16.76,16.76,0,0,1,417,456.62H8.39a8.37,8.37,0,0,1-5.92-14.29Z"/><path class="cls-2" d="M83.18,60.27A17.22,17.22,0,0,1,95,55.38H503.61a8.37,8.37,0,0,1,5.92,14.29l-80.71,80.71A16.76,16.76,0,0,1,417,155.27H8.39A8.37,8.37,0,0,1,2.47,141Z"/><path class="cls-3" d="M428.82,210A16.76,16.76,0,0,0,417,205.09H8.39a8.37,8.37,0,0,0-5.92,14.29l80.71,80.71A16.76,16.76,0,0,0,95,305H503.61a8.37,8.37,0,0,0,5.92-14.29Z"/></svg>