<svg width="512" height="512" viewBox="0 0 512 512" fill="none" xmlns="http://www.w3.org/2000/svg">
<path d="M256 0C114.639 0 0 114.583 0 256C0 397.361 114.639 512 256 512C397.361 512 512 397.361 512 256C512 114.583 397.417 0 256 0ZM331.438 367.383C310.574 383.306 284.017 391.266 251.768 391.263C220.238 391.263 195.293 383.485 176.934 367.928C158.576 352.372 149.571 332.831 149.919 309.304C149.919 290.601 154.38 276.409 163.302 266.729C172.225 257.049 183.965 249.71 198.523 244.713C213.12 239.706 228.98 235.283 246.103 231.444C263.232 227.348 277.046 222.646 287.475 217.459C297.971 212.273 303.15 205.212 303.15 196.165C303.15 187.187 299.418 179.878 291.886 174.17C284.355 168.461 273.736 165.599 259.978 165.599C245.926 165.599 234.708 168.713 226.324 174.94C217.892 181.161 212.874 189.788 211.126 200.876H158.669C161.802 175.598 172.119 156.076 189.793 142.252C207.468 128.428 230.497 121.516 258.962 121.516C289.836 121.516 313.838 129.033 330.97 144.069C348.086 159.076 356.657 177.905 356.657 200.333C356.657 216.623 351.954 229.508 342.548 238.989C333.082 248.522 321.239 255.881 307.021 261.064C293.015 266.201 278.667 270.354 264.082 273.492C245.568 277.295 231.098 281.533 220.672 286.208C210.176 290.849 204.984 299.776 204.984 312.914C204.984 321.905 208.745 329.869 216.266 336.806C223.803 343.675 235.802 347.182 252.27 347.182C269.092 347.182 282.598 342.961 292.918 334.459C303.158 326.004 309.669 315.89 312.451 304.118H367.457C364.385 330.4 352.384 351.486 331.453 367.375" fill="#262626"/>
</svg>
