<svg id="Layer_1" data-name="Layer 1" xmlns="http://www.w3.org/2000/svg" viewBox="0 0 512 512"><defs><style>.cls-1{fill:#171fc9;}</style></defs><path class="cls-1" d="M256,0C114.62,0,0,114.62,0,256S114.62,512,256,512,512,397.38,512,256,397.38,0,256,0ZM192,344.45l-2.43,2.43a190,190,0,0,1-15.94,14.21l-6.41,5a2.32,2.32,0,0,1-1.47.52,2,2,0,0,1-1.21-.35,2.21,2.21,0,0,1-1-2.51L166,352.42a70.8,70.8,0,0,0-1.73-37.25L162.87,311c-1.56-4.85-3.47-9.61-5.46-14.29h0L127.87,227l-3.21-9.53a46.58,46.58,0,0,1-2-9.1l-.52-4.76a44,44,0,0,1,12.65-36.13l2.43-2.42a188.27,188.27,0,0,1,15.94-14.21l6.41-5a2.35,2.35,0,0,1,2.68-.17,2.21,2.21,0,0,1,1,2.51l-2.51,11.35a70.69,70.69,0,0,0,1.73,37.25l1.39,4.16c1.56,4.85,3.46,9.62,5.46,14.3L199,284.94l3.2,9.52a45.87,45.87,0,0,1,2,9.1l.52,4.77A44.44,44.44,0,0,1,192,344.45Zm100,22.87-3.12,3.12a217.35,217.35,0,0,1-20.09,17.85l-8.32,6.58a2.57,2.57,0,0,1-1.56.52,2.92,2.92,0,0,1-1.39-.43,2.45,2.45,0,0,1-1.12-2.69l3.29-14.64a89.57,89.57,0,0,0-2.25-47l-1.74-5.28a189.27,189.27,0,0,0-6.93-18.11h0l-37.34-87.93-4-12A56.42,56.42,0,0,1,204.89,196l-.7-6.06A55.38,55.38,0,0,1,220,144.59l3.12-3.12a216.07,216.07,0,0,1,20.1-17.84L251.5,117a2.46,2.46,0,0,1,2.94-.17,2.43,2.43,0,0,1,1.13,2.68l-3.3,14.64a89.51,89.51,0,0,0,2.26,47.05l1.73,5.28c2,6.06,4.33,12.22,6.93,18.11l37.34,88,4,12A56.59,56.59,0,0,1,307,316l.69,6.06A55.25,55.25,0,0,1,292,367.32Zm85.25-22.87-2.43,2.43a190,190,0,0,1-15.94,14.21l-6.41,5a2.32,2.32,0,0,1-1.47.52,2,2,0,0,1-1.21-.35,2.21,2.21,0,0,1-1-2.51l2.51-11.35a70.69,70.69,0,0,0-1.73-37.25L348.09,311c-1.56-4.85-3.46-9.61-5.46-14.29h0L313,227l-3.2-9.53a45.87,45.87,0,0,1-2-9.1l-.52-4.76a44,44,0,0,1,12.65-36.13l2.42-2.42a191.42,191.42,0,0,1,15.94-14.21l6.41-5a2.37,2.37,0,0,1,2.69-.17,2.23,2.23,0,0,1,1,2.51l-2.52,11.35a70.7,70.7,0,0,0,1.74,37.25L349,200.9c1.56,4.85,3.47,9.62,5.46,14.3l29.63,69.74,3.21,9.52a46.58,46.58,0,0,1,2,9.1l.52,4.77A44.12,44.12,0,0,1,377.2,344.45Z"/></svg>