<svg xmlns="http://www.w3.org/2000/svg" viewBox="0 0 100 100"><defs><style>.cls-1{fill:#fff;fill-rule:evenodd;}.cls-2{fill:#2683ff;}</style></defs><g id="Layer_2" data-name="Layer 2"><g id="Layer_1-2" data-name="Layer 1"><path class="cls-1" d="M50,0h0a50.15,50.15,0,0,1,50,50h0a50.15,50.15,0,0,1-50,50h0A50.15,50.15,0,0,1,0,50H0A50.15,50.15,0,0,1,50,0Z"/><path class="cls-2" d="M21.94,64.13a2.15,2.15,0,1,0,2.15,2.15h0a2.25,2.25,0,0,0-.28-1.07,2.21,2.21,0,0,0-1.87-1.08m30.33-46.7a2.15,2.15,0,1,0-2.15,2.15,2.15,2.15,0,0,0,2.15-2.15M78.45,36.06a2.15,2.15,0,1,0-2.15-2.15h0a2.18,2.18,0,0,0,2.15,2.15M23,31.94a2.13,2.13,0,1,0,.79,2.9,2.11,2.11,0,0,0-.79-2.9M79.31,64.55a2.19,2.19,0,0,0-1.07-.31,2.15,2.15,0,1,0-.06,4.29h.06a2.22,2.22,0,0,0,1.87-1.07,2.13,2.13,0,0,0-.8-2.91M48,82.45a2.18,2.18,0,0,0,1.38,2.25,2.23,2.23,0,0,0,.66.14A2.29,2.29,0,0,0,52.24,83,2.14,2.14,0,0,0,48,82.38a.09.09,0,0,0,0,.07"/><path class="cls-2" d="M81.42,60.6a5.34,5.34,0,0,0-.8-.38v-20c.32-.11.63-.28.94-.42a6.69,6.69,0,1,0-6.51-11.7,5.77,5.77,0,0,0-.76.48L56.63,18.33a6.82,6.82,0,0,0,.07-.9A6.69,6.69,0,0,0,50,10.75a6.8,6.8,0,0,0-6.75,6.72,7,7,0,0,0,.07.9L25.82,28.51a6.69,6.69,0,1,0-8.25,10.54l.12.09c.24.17.48.34.76.52a4.08,4.08,0,0,0,.9.41v20a6.68,6.68,0,1,0,5,12.4,7.77,7.77,0,0,0,.87-.42c.27-.17.55-.34.83-.55l17.34,10a6.68,6.68,0,0,0,13.19,2.12,6,6,0,0,0,.07-1.11,6.24,6.24,0,0,0-.07-1l17.25-9.94a6.53,6.53,0,0,0,.86.59,6.7,6.7,0,0,0,9.11-2.56,6.79,6.79,0,0,0-2.36-9ZM82.63,69a5.1,5.1,0,0,1-9.38-3.74l-8.1-4.74a9,9,0,0,1-9.8,2,25.89,25.89,0,0,1-3.81.62V77.43a5.37,5.37,0,1,1-3.18,10.25s-.07,0-.1,0a3.28,3.28,0,0,1-.66-.28,5.35,5.35,0,0,1-2.39-7.2,5.48,5.48,0,0,1,3.22-2.73V62.89a24.44,24.44,0,0,1-3-1.15,10.72,10.72,0,0,1-8.86-2.18l-9.66,5.58a5.15,5.15,0,1,1-1.49-2.56l9-5.23a10.84,10.84,0,0,1,1.17-13.92L25.37,37.55a5.11,5.11,0,0,1-7-7.46l0,0A5.1,5.1,0,0,1,26.86,35l11.39,6.54a10.79,10.79,0,0,1,4.85-1.28c1.59-1.31,5.67-2.66,5.67-2.66V22a4.72,4.72,0,1,1,2.77,0V37.27s7.48,1.87,9.84,4.67l12.11-6.89a5.14,5.14,0,1,1,6.17,3.85A5.21,5.21,0,0,1,75,37.62L63,44.4a13.1,13.1,0,0,1,.87,2.22,9,9,0,0,1,3,11.42l7.93,4.61A5.07,5.07,0,0,1,82.63,69Z"/><path class="cls-2" d="M60.3,49.32c0-.28-.07-.52-.1-.8a4.92,4.92,0,0,0-.14-.55c0-.07,0-.14,0-.21l-.21-.66v0a9,9,0,0,0-2-3.12c-.2-.21-.38-.38-.62-.59l0,0a4.51,4.51,0,0,0-.66-.49l0,0c-.2-.14-.45-.31-.65-.42l0,0a5.58,5.58,0,0,0-.69-.35L55,42c-.24-.11-.48-.21-.76-.31l0,0a7.06,7.06,0,0,0-.79-.21h0a7.56,7.56,0,0,0-.83-.14h0a8.64,8.64,0,0,0-4.36.52l-.18.14a6.43,6.43,0,0,0-.76.35,1.42,1.42,0,0,1-.35.17c-.1,0-.27.18-.38.24l-.48.35-.1.07a6.52,6.52,0,0,0-.59.48l-.18.18a7.54,7.54,0,0,0-.55.59,7.45,7.45,0,0,0-1.25-.11.91.91,0,0,0-.34,0,6.85,6.85,0,0,0-4.3,1.8A7,7,0,0,0,37.28,48l0,.07a4.91,4.91,0,0,0-.28.62,1.22,1.22,0,0,0-.07.17,3.62,3.62,0,0,0-.17.56,2.17,2.17,0,0,0-.07.24c0,.17-.07.35-.11.55s0,.14,0,.25a7,7,0,0,0,0,.79,4.87,4.87,0,0,0,0,.66c0,.07,0,.14,0,.24s0,.28.07.42,0,.17.07.27a1.14,1.14,0,0,1,.07.32,1.39,1.39,0,0,0,.1.31,2.56,2.56,0,0,0,.11.24,3.65,3.65,0,0,1,.14.35c0,.07.07.1.07.17A6,6,0,0,0,39.53,57a7.46,7.46,0,0,0,1.59.76,5.33,5.33,0,0,0,.66.17l.07,0,.62.1.14,0a6.19,6.19,0,0,0,.76,0A6.35,6.35,0,0,0,46,57.56l.59.41.07,0c.17.1.38.2.59.31h0a8.93,8.93,0,0,0,6.4.66h0a4.2,4.2,0,0,0,.9-.32l.93-.41a5.1,5.1,0,0,0,3.12,1.07c.24,0,.45,0,.69,0l.18,0a4.69,4.69,0,0,0,.65-.14,3.71,3.71,0,0,0,.63-.24l.1,0c.21-.11.38-.21.59-.31a5.06,5.06,0,0,0,1.9-2.32,4.79,4.79,0,0,0,.28-.94v-.1c0-.14,0-.28.07-.42s0-.34,0-.52a5.08,5.08,0,0,0-3.53-4.91"/></g></g></svg>