<svg width="512" height="512" viewBox="0 0 512 512" fill="none" xmlns="http://www.w3.org/2000/svg">
<path d="M256 512C397.385 512 512 397.385 512 256C512 114.615 397.385 0 256 0C114.615 0 0 114.615 0 256C0 397.385 114.615 512 256 512Z" fill="#5546FF"/>
<path d="M360.45 390.89L305.342 304.382H384.48V271.701H124.956V304.382H204.095L148.986 390.89H189.997L254.718 289.323L319.439 390.89H360.45ZM384.48 239.982V207.301H306.944L361.412 121.754H320.08L254.718 224.923L189.357 121.754H148.025L202.493 207.301H124.956V240.302L384.48 239.982Z" fill="white"/>
</svg>
