<svg width="100" height="100" viewBox="0 0 100 100" fill="none" xmlns="http://www.w3.org/2000/svg">
<path d="M50 100C77.6142 100 100 77.6142 100 50C100 22.3858 77.6142 0 50 0C22.3858 0 0 22.3858 0 50C0 77.6142 22.3858 100 50 100Z" fill="#6FBCF0"/>
<path fill-rule="evenodd" clip-rule="evenodd" d="M26.0156 76.0156C31.0156 84.6875 40 89.8828 50 89.8828C60 89.8828 68.9844 84.6875 73.9844 76.0156C78.9844 67.3438 78.9844 56.9922 73.9844 48.3203L52.8906 11.7578C51.6016 9.53125 48.3984 9.53125 47.1094 11.7578L26.0156 48.3203C20.9766 56.9922 20.9766 67.3438 26.0156 76.0156ZM44.0625 29.1406L48.5547 21.3281C49.1797 20.2344 50.8203 20.2344 51.4453 21.3281L68.75 51.3281C71.9141 56.8359 72.5391 63.2031 70.5469 69.0625C70.3516 68.125 70.0391 67.1484 69.6484 66.1719C67.2656 60.1172 61.8359 55.4687 53.5547 52.3437C47.8516 50.1953 44.2188 46.9922 42.7734 42.8906C40.8984 37.5781 42.8906 31.7969 44.0625 29.1406ZM36.3672 42.4219L31.25 51.3281C27.3438 58.125 27.3438 66.2109 31.25 73.0078C35.1562 79.8047 42.1875 83.8281 50 83.8281C55.1953 83.8281 60.0391 82.0312 63.8672 78.8672C64.375 77.6172 65.8984 73.0469 63.9844 68.3203C62.2266 63.9453 58.0078 60.4687 51.4063 57.9687C43.9844 55.1562 39.1406 50.7422 37.0313 44.8828C36.7578 44.0625 36.5625 43.2422 36.3672 42.4219Z" fill="white"/>
</svg>
