<svg id="a973db26-ce43-4729-8987-685bdf23133f" data-name="Layer 1" xmlns="http://www.w3.org/2000/svg" xmlns:xlink="http://www.w3.org/1999/xlink" viewBox="0 0 512 512"><defs><style>.a6371cc1-abff-4e6a-a16c-3f78d663b45e,.add080ba-88fc-461d-8588-69b8437a5e50{fill:none;}.a95e0ad5-f51f-49a0-8c31-98f081e4cc7b{fill:#fff;}.a95e0ad5-f51f-49a0-8c31-98f081e4cc7b,.ab69fc7a-0c4f-406f-80a0-e75d4b432b52,.b49774df-4eaf-47f3-baf2-13f27e60df84{fill-rule:evenodd;}.ab69fc7a-0c4f-406f-80a0-e75d4b432b52{fill:#0e0f23;}.af8485ab-3625-4ea1-9ed8-eb9a05a4e237{clip-path:url(#b088f84c-e2fe-4ed3-a33b-c1b483a19564);}.b49774df-4eaf-47f3-baf2-13f27e60df84{fill:url(#eaf258e4-8401-4a75-9621-c365ae004d9c);}.add080ba-88fc-461d-8588-69b8437a5e50{stroke:#fff;stroke-linecap:round;stroke-linejoin:round;stroke-dashoffset:6.67px;stroke-width:6.67px;stroke-dasharray:13.33 13.33 166.66 166.66;}</style><clipPath id="b088f84c-e2fe-4ed3-a33b-c1b483a19564"><path class="a6371cc1-abff-4e6a-a16c-3f78d663b45e" d="M122.76,63.65C136.1,45,161.87,36.76,195.2,39.43c46,3.78,106.89,28.44,165.55,70.22,58.44,42,101.33,92,119.55,134.21,13.33,30.66,13.77,57.77.44,76.44l-91.55,128c-13.33,18.67-39.33,26.89-72.44,24.22-46-4-107.1-28.44-165.54-70.44C92.54,360.3,49.88,310.3,31.44,268.08,18.1,237.41,17.66,210.31,31,191.64ZM468.08,311.19V311c10.66-14.67,8.44-36.45-2-60.89-17.56-40.22-58.67-87.55-114.66-127.55-55.78-40-113.77-63.77-157.55-67.33C167.21,53,146.1,57.87,135.43,72.76l-.44.89c-10,14.89-7.78,36,2.66,60,17.56,40.45,58.66,87.78,114.44,127.77s113.77,63.78,157.54,67.33c26.23,2,46.89-2.66,57.78-16.66l.67-1.11ZM325.42,158.75c28,20,48.66,43.78,57.33,64,5.11,11.33,6.44,21.33,1.33,28.22-4.89,6.89-14.89,8.89-27.11,7.78C335,257,306.09,245,278.09,225s-48.67-43.55-57.33-63.77c-4.89-11.33-6.22-21.33-1.34-28.22s14.89-8.89,27.34-8C268.53,127,297.64,138.76,325.42,158.75Z"/></clipPath><linearGradient id="eaf258e4-8401-4a75-9621-c365ae004d9c" x1="-542.7" y1="707.25" x2="-542.13" y2="707.25" gradientTransform="matrix(109.01, 548.79, 548.79, -109.01, -328636.34, 374936.7)" gradientUnits="userSpaceOnUse"><stop offset="0" stop-color="#27b0e6"/><stop offset="0.52" stop-color="#c26bb3"/><stop offset="1" stop-color="#fa52a0"/></linearGradient></defs><g id="fa890614-a2fe-447d-9108-8b1167b65751" data-name="Icon-Logo"><rect class="a6371cc1-abff-4e6a-a16c-3f78d663b45e" x="0.02" width="512" height="512"/><path class="a95e0ad5-f51f-49a0-8c31-98f081e4cc7b" d="M486.89,324.52,395,452.55c-14.45,20.33-42.48,30.12-78.92,27.13-47-3.89-109.32-28.72-169-71.57S43.8,314.19,24.83,271c-14.45-33.51-14.24-63.09.43-83.44l91.63-128c14.67-20.33,42.7-30.12,78.92-27.12,47,3.88,109.53,28.74,169.26,71.58s103.28,93.9,122,137.14c14.67,33.5,14.24,63.11-.21,83.44ZM141.48,77.08c9.48-13.15,28.46-16.56,52-14.62,42.91,3.54,99.4,26.91,154,66s94.87,85.17,112.12,124.63c9.27,21.62,12.29,40.68,2.8,53.84l12.29,8.77L462.31,307,370.46,435c-9.27,13.13-28.25,16.56-51.75,14.6-42.91-3.52-99.61-26.91-154.17-66S69.67,298.39,52.64,259c-9.48-21.65-12.29-40.71-2.8-53.84Z"/><path class="a95e0ad5-f51f-49a0-8c31-98f081e4cc7b" d="M129.37,71.39C159.34,29.56,260.9,51,356.2,119.3S504.54,277,474.57,318.83l-91.64,128c-30,41.83-131.74,20.36-227-47.93S7.55,241.25,37.52,199.42Z"/><path class="ab69fc7a-0c4f-406f-80a0-e75d4b432b52" d="M122.76,63.65C136.1,45,161.87,36.76,195.2,39.43c46,3.78,106.89,28.44,165.55,70.22,58.44,42,101.33,92,119.55,134.21,13.33,30.66,13.77,57.77.44,76.44l-91.55,128c-13.33,18.67-39.33,26.89-72.44,24.22-46-4-107.1-28.44-165.54-70.44C92.54,360.3,49.88,310.3,31.44,268.08,18.1,237.41,17.66,210.31,31,191.64ZM468.08,311.19V311c10.66-14.67,8.44-36.45-2-60.89-17.56-40.22-58.67-87.55-114.66-127.55-55.78-40-113.77-63.77-157.55-67.33C167.21,53,146.1,57.87,135.43,72.76l-.44.89c-10,14.89-7.78,36,2.66,60,17.56,40.45,58.66,87.78,114.44,127.77s113.77,63.78,157.54,67.33c26.23,2,46.89-2.66,57.78-16.66l.67-1.11ZM325.42,158.75c28,20,48.66,43.78,57.33,64,5.11,11.33,6.44,21.33,1.33,28.22-4.89,6.89-14.89,8.89-27.11,7.78C335,257,306.09,245,278.09,225s-48.67-43.55-57.33-63.77c-4.89-11.33-6.22-21.33-1.34-28.22s14.89-8.89,27.34-8C268.53,127,297.64,138.76,325.42,158.75Z"/><g class="af8485ab-3625-4ea1-9ed8-eb9a05a4e237"><path class="b49774df-4eaf-47f3-baf2-13f27e60df84" d="M1.77,315.47c2.45,0,6.45,5.79,8.67,7.37,7.78,5.8,15.55,11.6,23.55,16.34,23.33,14.23,47.56,22.14,71.55,16.87,37.78-8.44,72-74.32,110-65.36,21.34,4.74,36.45,34.79,55.11,55.34,17.78,20.56,37.34,29.52,57.11,25.3,58.88-11.59,81.11-127.55,140.88-121.22,49.55,5.27,30.22,64.83,77.77,85.91.45.53,114.89-100.14,115.77-117.53,3.34-66.94-60.21-855.41-57.32-855.41L38-428.74Z"/></g><path class="add080ba-88fc-461d-8588-69b8437a5e50" d="M113.57,109.44c2.45,58.44,60,114.21,104.22,152,61.56,52.44,160.66,91.77,216,82.88"/></g></svg>