<svg width="512" height="512" viewBox="0 0 512 512" fill="none" xmlns="http://www.w3.org/2000/svg">
<path d="M256 512C397.385 512 512 397.385 512 256C512 114.615 397.385 0 256 0C114.615 0 0 114.615 0 256C0 397.385 114.615 512 256 512Z" fill="url(#paint0_linear_17_6789)"/>
<path fill-rule="evenodd" clip-rule="evenodd" d="M246.73 92.3533C231.866 94.0664 218.046 100.848 207.596 111.558C199.751 119.326 192.319 127.301 184.37 135.147C180.391 139.229 176.369 143.199 172.347 147.23C168.325 151.261 163.888 155.542 159.711 159.771C155.533 164.001 152.064 167.712 148.197 171.639C142.155 177.681 136.113 183.723 130.071 189.825C125.437 194.615 120.905 199.561 116.322 204.343C113.621 207.199 110.712 209.849 108.166 212.853C97.6578 225.673 91.9148 241.737 91.9131 258.313C91.9131 259.288 91.9131 260.29 91.9736 261.256C92.1885 270.775 94.6868 280.102 99.2583 288.453C101.861 293.5 104.875 298.324 108.269 302.876C110.513 306.035 112.145 305.983 115.096 303.54C115.66 303.071 116.188 302.561 116.676 302.013C119.585 298.949 122.433 295.893 125.393 292.838C129.571 288.453 133.852 284.077 138.029 279.641C142.207 275.204 146.738 270.319 151.123 265.736C153.212 263.492 155.438 261.42 157.544 259.211C162.024 254.472 166.409 249.587 170.888 244.9C175.368 240.214 179.908 235.829 184.292 231.246C188.677 226.663 194.071 221.052 199.008 215.96C203.946 210.868 208.132 206.587 212.715 201.9C218.679 195.729 224.488 189.411 230.391 183.248C234.06 179.476 237.831 175.86 241.5 172.14C246.592 167.047 251.331 161.955 256.328 156.863C261.325 151.77 265.037 148.352 269.318 143.968C278.887 134.301 288.442 124.576 297.982 114.794C298.598 114.187 299.174 113.541 299.708 112.861C302.056 109.9 302.254 109.244 299.354 107.156C294.926 103.667 290.185 100.596 285.191 97.9808C276.363 93.8527 266.737 91.7135 256.993 91.7146H256.509C253.254 91.7153 250.003 91.92 246.773 92.3274L246.722 92.2756L246.73 92.3533ZM331.048 155.067H330.435C326.254 155.069 322.124 155.981 318.332 157.742C314.54 159.502 311.177 162.068 308.477 165.261C307.994 165.795 307.485 166.305 306.95 166.788L291.362 182.074C286.269 187.175 280.763 192.725 275.411 198.076C270.984 202.504 266.547 206.837 262.171 211.273C257.795 215.71 253.1 220.647 248.361 225.282C243.623 229.917 238.582 234.776 233.688 239.549L216.314 257.07L184.016 289.377C169.746 303.704 155.496 318.003 141.266 332.273C138.521 334.975 138.47 335.329 141.266 338.229C148.093 345.134 155.024 351.987 161.644 358.944C165.74 363.285 171.146 366.165 177.034 367.143C182.589 368.261 188.327 368.069 193.795 366.582C197.892 365.569 201.673 363.555 204.8 360.722L221.717 344.383C225.687 340.568 229.718 336.796 233.637 332.921C241.482 325.153 249.225 317.333 257.07 309.617C263.44 303.35 269.965 297.136 276.43 290.87L302.953 265.02C311.205 256.915 319.508 248.767 327.863 240.662C328.42 239.835 329.193 239.175 330.098 238.756C331.003 238.337 332.006 238.174 332.998 238.286C333.989 238.397 334.931 238.778 335.721 239.387C336.511 239.996 337.119 240.811 337.478 241.741C341.725 247.943 343.996 255.285 343.995 262.801C343.993 264.087 343.927 265.372 343.796 266.651C343.111 274.229 339.985 281.379 334.889 287.029C328.769 293.606 322.253 299.82 315.9 306.138C311.369 310.618 306.734 315.003 302.194 319.534C296.333 325.343 290.576 331.255 284.716 337.064C283.853 338.03 283.041 339.049 282.127 339.964L276.37 345.928C272.054 350.244 267.661 354.438 263.423 358.762C259.185 363.087 254.317 368.145 249.786 372.866C249.38 373.323 248.922 373.625 248.517 374.031C243.416 378.77 238.729 383.525 233.887 388.298C231.6 390.542 229.407 392.83 227.163 395.074C223.297 399.001 219.318 402.842 215.598 406.847C213.31 409.237 213.31 410.713 216.012 412.604C220.447 416.008 225.169 419.023 230.124 421.615C242.449 427.188 256.108 429.131 269.499 427.216C282.79 425.639 295.259 419.958 305.172 410.964C312.707 404.344 319.439 396.904 326.465 389.774C331.557 384.673 336.658 379.227 342.104 373.979L356.829 359.151C361.317 354.62 365.745 350.08 370.285 345.6C374.825 341.12 380.47 335.769 385.562 330.72C390.655 325.671 395.756 320.535 400.848 315.132C404.909 310.997 408.659 306.569 412.069 301.883C418.425 292.279 422.394 281.294 423.643 269.844C424.333 264.157 424.333 258.407 423.643 252.72C422.128 242.6 418.46 232.923 412.888 224.341C408.881 218.268 404.087 212.754 398.63 207.942C384.518 193.933 370.449 179.821 356.648 165.502C353.639 162.153 349.96 159.473 345.848 157.638C341.737 155.803 337.285 154.854 332.783 154.851H332.593L331.065 155.059L331.048 155.067Z" fill="white"/>
<defs>
<linearGradient id="paint0_linear_17_6789" x1="34.8832" y1="107.415" x2="445.747" y2="388.533" gradientUnits="userSpaceOnUse">
<stop stop-color="#FF4439"/>
<stop offset="1" stop-color="#FF7723"/>
</linearGradient>
</defs>
</svg>
