<svg width="512" height="512" viewBox="0 0 512 512" fill="none" xmlns="http://www.w3.org/2000/svg">
<path d="M256 0C397.363 0 512 114.637 512 256C512 397.363 397.363 512 256 512C114.637 512 0 397.363 0 256C0 114.637 114.637 0 256 0Z" fill="url(#paint0_linear_17_6784)"/>
<path d="M354.304 177.664C351.078 181.504 351.283 190.003 346.112 187.392C346.112 187.392 310.118 173.619 332.288 133.12C338.278 123.75 344.474 123.136 343.552 100.352C349.082 108.748 367.206 125.593 368.64 152.064C370.074 169.728 359.526 172.083 354.304 177.664Z" fill="white"/>
<path d="M325.632 240.64C334.49 237.67 348.826 232.96 349.696 202.752C363.366 223.693 409.754 253.081 387.584 343.04C378.573 378.112 344.986 395.161 313.344 408.064C293.581 416.461 273.408 430.489 265.216 451.584C265.216 451.584 115.661 432.691 120.32 284.16C124.058 207.104 196.25 177.664 226.816 121.344C243.098 85.811 237.568 50.1758 237.568 50.1758C237.568 50.1758 332.8 109.414 289.792 200.704C275.814 232.96 309.197 243.865 325.632 240.64Z" fill="white"/>
<path d="M178.688 267.264V316.928H231.424V369.664H281.088V316.928H333.824V267.264H178.688Z" fill="url(#paint1_linear_17_6784)"/>
<defs>
<linearGradient id="paint0_linear_17_6784" x1="0" y1="256" x2="512" y2="256" gradientUnits="userSpaceOnUse">
<stop stop-color="#FFA50D"/>
<stop offset="1" stop-color="#FE5413"/>
</linearGradient>
<linearGradient id="paint1_linear_17_6784" x1="178.688" y1="318.464" x2="333.824" y2="318.464" gradientUnits="userSpaceOnUse">
<stop stop-color="#FFA50D"/>
<stop offset="1" stop-color="#FE5413"/>
</linearGradient>
</defs>
</svg>
