<svg id="Layer_1" data-name="Layer 1" xmlns="http://www.w3.org/2000/svg" viewBox="0 0 512 512"><defs><style>.cls-1{fill:#ff060a;}</style></defs><g id="tron"><path class="cls-1" d="M492.69,154.24c-24-22.15-57.2-56-84.24-80l-1.6-1.12a30.43,30.43,0,0,0-8.88-5h0C332.77,56,29.33-.71,23.41,0a11.13,11.13,0,0,0-4.64,1.76L17.25,3a17.84,17.84,0,0,0-4.16,6.72l-.4,1v6.56c34.16,95.12,169,406.71,195.6,479.83,1.6,5,4.64,14.4,10.32,14.88h1.28c3,0,16-17.12,16-17.12S467.57,213.92,491,184a75.9,75.9,0,0,0,8-11.84A19.3,19.3,0,0,0,492.69,154.24ZM295.33,187l98.88-82,58,53.43Zm-38.4-5.36L86.69,42.09l275.44,50.8Zm15.36,36.56,174.24-28.08-199.2,240ZM63.57,56,242.69,208,216.77,430.24Z"/></g></svg>