<svg width="512" height="512" viewBox="0 0 512 512" fill="none" xmlns="http://www.w3.org/2000/svg">
<path d="M256 512C397.385 512 512 397.385 512 256C512 114.615 397.385 0 256 0C114.615 0 0 114.615 0 256C0 397.385 114.615 512 256 512Z" fill="white"/>
<path d="M310.983 304.826H294.593C291.558 304.826 288.978 302.398 288.978 299.211V256.109L260.294 274.018C257.866 275.535 254.831 275.535 252.402 274.018L223.871 256.109V299.211C223.871 302.246 221.442 304.826 218.255 304.826H202.016C198.981 304.826 196.401 302.398 196.401 299.211V216.044C196.401 211.946 199.74 208.607 203.838 208.607C205.355 208.607 206.721 209.062 207.935 209.973L253.161 241.085C254.982 242.451 257.562 242.451 259.383 241.085L304.609 209.973C307.948 207.696 312.653 208.607 314.929 211.946C315.84 213.16 316.143 214.678 316.295 216.044V299.211C316.447 302.246 314.019 304.826 310.983 304.826Z" fill="#FF4A4A"/>
<path d="M171.967 304.674H70.2846C66.1869 304.674 62.8481 301.335 62.8481 297.238V213.615C62.9999 210.428 65.4281 208 68.6152 208H85.0058C88.041 208 90.621 210.428 90.621 213.615V277.205H152.238V213.615C152.238 210.58 154.666 208 157.853 208H173.788C176.823 208 179.403 210.428 179.403 213.615V297.238C179.403 301.335 176.065 304.674 171.967 304.674Z" fill="#FF4A4A"/>
<path d="M341.033 208H442.715C446.813 208 450.152 211.339 450.152 215.436V299.059C450.152 302.094 447.724 304.674 444.688 304.674H428.298C425.262 304.674 422.682 302.246 422.682 299.059V239.112C422.682 237.139 421.013 235.469 419.04 235.469H364.86C362.887 235.469 361.218 237.139 361.218 239.112V299.059C361.218 302.094 358.789 304.674 355.602 304.674H339.212C336.176 304.674 333.596 302.246 333.596 299.059V215.436C333.596 211.339 336.935 208 341.033 208Z" fill="#FF4A4A"/>
<path d="M383.679 253.074H399.918C402.953 253.074 405.533 255.502 405.533 258.689V275.232C405.533 278.267 403.105 280.847 399.918 280.847H383.679C380.644 280.847 378.064 278.419 378.064 275.232V258.538C378.064 255.502 380.644 253.074 383.679 253.074Z" fill="#FF4A4A"/>
</svg>
