<svg id="Layer_1" data-name="Layer 1" xmlns="http://www.w3.org/2000/svg" viewBox="0 0 512 512"><defs><style>.cls-1,.cls-2{fill:#ff007a;}.cls-2{fill-rule:evenodd;}</style></defs><path class="cls-1" d="M208,116.45c-5.54-.79-5.81-1.06-3.17-1.32,5-.79,16.64.26,24.82,2.11,19,4.49,36.18,16.11,54.4,36.44l4.75,5.54,6.87-1.05c29.31-4.75,59.41-1.06,84.49,10.56,6.87,3.17,17.7,9.51,19,11.09.52.53,1.32,4,1.84,7.39,1.85,12.41,1.06,21.66-2.9,28.79-2.11,4-2.11,5-.79,8.45a7.93,7.93,0,0,0,7.13,4.48c6.33,0,12.94-10,16.1-24l1.32-5.55,2.38,2.64c13.47,15.05,24,35.91,25.61,50.7l.53,4-2.37-3.43c-4-6.08-7.66-10-12.68-13.47-9-6.07-18.48-7.92-43.57-9.24-22.71-1.32-35.64-3.17-48.32-7.39-21.65-7.13-32.74-16.38-58.35-50.44-11.36-15.05-18.49-23.24-25.62-30.1C243.93,127.54,228.35,119.62,208,116.45Z"/><path class="cls-1" d="M404.74,150c.53-10,1.85-16.63,4.75-22.71,1.06-2.37,2.12-4.49,2.38-4.49s-.26,1.85-1.06,4c-2.11,5.8-2.37,14-1.05,23.23,1.85,11.88,2.64,13.47,15.31,26.41,5.81,6.07,12.68,13.73,15.32,16.9l4.49,5.81-4.49-4.23c-5.55-5.28-18.22-15.31-21.13-16.63-1.84-1.06-2.11-1.06-3.43.26-1.05,1.06-1.32,2.64-1.32,10.3-.26,11.88-1.85,19.27-5.81,26.93-2.11,4-2.37,3.17-.53-1.32,1.32-3.43,1.59-5,1.59-16.37,0-23-2.64-28.52-18.75-37.76-4-2.38-10.83-5.81-14.79-7.66a60,60,0,0,1-7.13-3.43c.53-.53,16.11,4,22.18,6.6,9.25,3.7,10.83,4,11.89,3.7C404,158.7,404.48,156.58,404.74,150Z"/><path class="cls-1" d="M218.85,189.33c-11.09-15.32-18.22-39.08-16.64-56.78l.53-5.54,2.64.53a61.82,61.82,0,0,1,16.9,6.34c10.56,6.33,15.32,15.05,19.8,36.7,1.32,6.34,3.17,13.73,4,16.11,1.32,4,6.33,13.2,10.56,19,2.9,4.22,1.05,6.34-5.55,5.81C241,210.45,227.56,201.21,218.85,189.33Z"/><path class="cls-1" d="M391.27,304.19C339,283.07,320.51,264.85,320.51,234c0-4.49.26-8.18.26-8.18a48.52,48.52,0,0,1,4.49,3.43c10.56,8.45,22.45,12.15,55.45,16.9,19.28,2.9,30.37,5,40.4,8.45,31.95,10.56,51.76,32.21,56.51,61.52,1.32,8.45.53,24.56-1.58,33-1.85,6.6-7.13,18.75-8.45,19-.27,0-.8-1.32-.8-3.43-.52-11.09-6.07-21.65-15.31-29.84C440.39,325.31,426.13,318.18,391.27,304.19Z"/><path class="cls-1" d="M354.31,312.9a63.1,63.1,0,0,0-2.64-11.09l-1.32-4,2.37,2.91c3.44,4,6.08,8.71,8.45,15.31,1.85,5,1.85,6.6,1.85,14.79,0,7.92-.26,9.77-1.85,14.26a47.82,47.82,0,0,1-11.09,17.69c-9.5,9.77-21.91,15.05-39.61,17.43-3.16.26-12.14,1.05-20.06,1.58-19.81,1.06-33,3.17-44.89,7.4-1.59.52-3.17,1-3.44.79-.52-.53,7.66-5.28,14.26-8.45,9.25-4.49,18.75-6.87,39.61-10.56,10.3-1.59,20.86-3.7,23.5-4.76C345.59,358.06,358.53,337.72,354.31,312.9Z"/><path class="cls-1" d="M378.34,355.42q-10.3-22.57-4.76-42.78c.53-1.32,1.06-2.64,1.59-2.64a11.22,11.22,0,0,1,3.69,1.85c3.17,2.11,9.77,5.81,26.67,15,21.39,11.62,33.54,20.59,42,30.89,7.39,9,11.88,19.28,14,31.95,1.32,7.13.53,24.3-1.32,31.43-5.81,22.44-19,40.4-38.29,50.69a36.08,36.08,0,0,1-5.54,2.64c-.26,0,.79-2.64,2.38-5.8,6.33-13.47,7.13-26.41,2.37-40.93-2.9-9-9-19.81-21.12-38C385.47,368.62,382,363.07,378.34,355.42Z"/><path class="cls-1" d="M181.62,436.22c19.54-16.37,43.56-28,65.75-31.69,9.5-1.58,25.34-1.06,34.06,1.32,14,3.7,26.67,11.62,33.27,21.39,6.34,9.5,9.24,17.69,12.15,35.91,1,7.13,2.37,14.52,2.64,16.11,2.11,9.5,6.33,16.9,11.61,20.86,8.19,6.07,22.45,6.33,36.44,1.05,2.38-.79,4.49-1.58,4.49-1.32.53.53-6.6,5.28-11.35,7.66a37.4,37.4,0,0,1-19,4.49c-12.68,0-23.5-6.6-32.22-19.8-1.85-2.64-5.54-10.3-8.71-17.43-9.24-21.39-14-27.73-24.82-34.86-9.51-6.07-21.66-7.39-30.9-2.9-12.14,5.81-15.31,21.39-6.86,30.89,3.43,4,9.77,7.13,15,7.92a16.1,16.1,0,0,0,18.22-16.1c0-6.34-2.38-10-8.72-12.94-8.45-3.7-17.69.53-17.42,8.71,0,3.44,1.58,5.55,5,7.13,2.12,1.06,2.12,1.06.53.79-7.66-1.58-9.5-11.09-3.43-17.16,7.39-7.39,23-4.22,28.25,6.07,2.12,4.23,2.38,12.68.53,18C281.69,481.9,269,488,256.08,484.54c-8.71-2.38-12.41-4.75-23-15.58-18.49-19-25.62-22.71-52-26.67l-5-.79Z"/><path class="cls-2" d="M42.72,11.35C104.25,86.08,199,202.27,203.8,208.6c4,5.28,2.37,10.3-4.23,14-3.69,2.11-11.35,4.22-15,4.22a19.05,19.05,0,0,1-12.67-5.54c-2.38-2.38-12.68-17.43-35.92-53.61-17.69-27.72-32.74-50.69-33-51-1.06-.53-1.06-.53,31.16,57,20.33,36.17,26.93,49.11,26.93,50.7,0,3.43-1.06,5.28-5.28,10-7.13,7.92-10.3,16.9-12.68,35.65-2.64,20.86-9.77,35.64-30.1,60.73-11.88,14.79-13.73,17.43-16.63,23.5-3.7,7.39-4.76,11.62-5.28,21.12-.53,10,.52,16.38,3.43,25.88,2.64,8.45,5.54,14,12.67,24.82,6.08,9.51,9.77,16.64,9.77,19.28,0,2.11.53,2.11,10,0,22.71-5.28,41.45-14.26,51.75-25.35,6.34-6.87,7.92-10.56,7.92-20.07,0-6.07-.26-7.39-1.85-11.09-2.64-5.81-7.65-10.56-18.48-17.95C152,361.23,146,353.3,144.38,342.74c-1.32-9,.27-15.05,8.19-31.68,8.19-17.17,10.3-24.3,11.62-41.73.79-11.09,2.11-15.57,5.28-19,3.43-3.69,6.34-5,14.52-6.07,13.47-1.85,22.18-5.28,29-11.88,6.07-5.55,8.71-11.09,9-19.28l.26-6.07-3.43-3.7C206.44,189.06,34.54,0,33.75,0,33.48,0,37.71,5,42.72,11.35Zm81.07,375.49a10.9,10.9,0,0,0-3.43-14.52c-4.49-2.91-11.36-1.59-11.36,2.37a2.7,2.7,0,0,0,2.11,2.64c2.38,1.32,2.64,2.64.8,5.55s-1.85,5.54.52,7.39C116.13,393.18,121.15,391.59,123.79,386.84Z"/><path class="cls-2" d="M230.73,248c-6.34,1.84-12.41,8.71-14.26,15.58-1.06,4.22-.53,11.88,1.32,14.25,2.91,3.7,5.55,4.76,12.94,4.76,14.52,0,26.93-6.34,28.25-14,1.32-6.33-4.22-15.05-11.88-19C243.14,247.42,235,246.63,230.73,248Zm16.9,13.2c2.11-3.17,1.32-6.6-2.64-9-7.13-4.49-18-.79-18,6.07,0,3.44,5.55,7.13,10.83,7.13C241.29,265.37,246.05,263.26,247.63,261.15Z"/></svg>