<svg id="Layer_1" data-name="Layer 1" xmlns="http://www.w3.org/2000/svg" viewBox="0 0 512 512"><defs><style>.cls-1{fill:#50af95;}.cls-2{fill:#fff;fill-rule:evenodd;}</style></defs><circle class="cls-1" cx="256" cy="256" r="256"/><path class="cls-2" d="M290.59,267.76h0c-1.93.15-11.91.74-34.18.74-17.71,0-30.28-.53-34.69-.74h0c-68.44-3-119.52-14.92-119.52-29.19s51.08-26.16,119.52-29.22V255.9c4.47.32,17.29,1.07,35,1.07,21.25,0,31.89-.88,33.8-1.06V209.38c68.3,3.05,119.27,15,119.27,29.19s-51,26.15-119.27,29.17h0Zm0-63.19V162.92H385.9V99.41H126.41v63.51H221.7v41.63C144.25,208.11,86,223.46,86,241.84s58.25,33.71,135.7,37.29V412.59h68.87V279.08C367.85,275.52,426,260.19,426,241.82s-58.1-33.69-135.43-37.27h0Zm0,0Z"/></svg>