<svg width="512" height="512" viewBox="0 0 512 512" fill="none" xmlns="http://www.w3.org/2000/svg">
<path d="M256 512C397.385 512 512 397.385 512 256C512 114.615 397.385 0 256 0C114.615 0 0 114.615 0 256C0 397.385 114.615 512 256 512Z" fill="white"/>
<path d="M203.482 117.823C227.57 107.117 254.126 103.201 280.278 106.499C306.431 109.797 331.183 120.184 351.859 136.535C340.303 131.849 327.708 130.326 315.369 132.125C294.679 134.736 274.404 139.96 255.029 147.673C237.263 154.231 220.673 163.615 205.899 175.462C199.438 180.794 193.982 187.238 189.789 194.489C181.139 189.105 173.893 181.741 168.65 173.004C181.308 167.434 193.034 159.949 203.415 150.812C209.036 146.089 213.162 139.834 215.291 132.807C215.767 131.126 215.881 129.363 215.624 127.636C215.366 125.908 214.744 124.254 213.799 122.785C211.092 119.912 207.417 118.144 203.482 117.823V117.823Z" fill="#0E3CA5"/>
<path d="M175.28 124.214C183.671 118.916 193.627 116.659 203.483 117.822C207.417 118.142 211.093 119.91 213.799 122.784C214.745 124.253 215.367 125.906 215.624 127.634C215.881 129.362 215.768 131.125 215.291 132.806C213.163 139.832 209.037 146.088 203.416 150.811C193.034 159.948 181.308 167.433 168.65 173.003C155.886 179.064 142.458 183.615 128.639 186.562C125.185 187.256 121.647 187.432 118.141 187.084C119.329 184.463 120.647 181.904 122.091 179.416C134.875 156.819 153.174 137.828 175.28 124.214V124.214Z" fill="#5493F7"/>
<path d="M315.369 132.125C327.708 130.326 340.303 131.848 351.859 136.534C354.746 138.581 357.471 140.849 360.007 143.319C382.322 164.393 397.801 191.677 404.443 221.643C405.26 227.231 206.177 253.974 202.259 248.405C193.47 240.407 187.493 229.789 185.214 218.127C184.133 209.96 185.739 201.663 189.789 194.488C193.982 187.237 199.438 180.793 205.899 175.461C220.673 163.614 237.263 154.23 255.029 147.672C274.404 139.959 294.679 134.735 315.369 132.125V132.125Z" fill="#5493F7"/>
<path d="M111.872 201.516C120.097 212.292 129.113 222.428 137.72 232.894C149.464 247.784 160.232 263.419 169.956 279.7C175.714 287.183 180.055 381.255 170.002 381.255C158.23 373.323 147.616 363.795 138.464 352.944C120.035 331.187 108.104 304.68 104.04 276.458C103.08 270.902 102.96 265.248 102.418 259.641V249.392C102.94 243.8 103.058 238.161 104.003 232.621C105.487 221.997 108.126 211.567 111.872 201.516V201.516Z" fill="#5493F7"/>
<path d="M297.157 306.182C297.141 301.772 297.141 297.364 297.157 292.958C297.147 288.476 297.157 283.994 297.147 279.512C297.147 275.056 297.148 270.604 297.152 266.155C297.152 261.637 297.157 257.114 297.141 252.596C297.152 248.026 297.154 243.456 297.147 238.887C259.658 244.511 221.87 247.922 183.98 249.1C181.708 248.986 179.43 249.095 177.18 249.425C175.183 249.961 173.409 251.12 172.116 252.733C170.822 254.345 170.077 256.329 169.987 258.394C169.904 265.499 170.028 272.604 169.93 279.709C170.039 300.967 169.925 322.224 169.992 343.482C176.323 343.343 182.658 343.389 188.994 343.167C196.796 343.069 204.582 342.372 212.384 342.191C214.992 342.119 217.594 341.944 220.191 341.695C227.91 341.148 235.625 340.528 243.323 339.769C252.468 338.943 261.597 337.931 270.715 336.832C276.235 336.155 281.744 335.396 287.264 334.756C290.522 334.157 293.832 333.888 297.085 333.269C297.209 328.792 297.126 324.305 297.147 319.829C297.157 315.274 297.147 310.725 297.157 306.182Z" fill="#0828A7"/>
<path d="M180.949 300.852C179.885 300.171 178.863 299.438 177.84 298.704L174.66 301.136C175.057 299.835 175.465 298.539 175.816 297.228C174.861 296.536 173.906 295.854 172.981 295.126C174.179 295.054 175.388 295.023 176.591 294.982C176.971 293.751 177.417 292.541 177.928 291.357C178.336 292.504 178.739 293.66 179.116 294.822C180.288 294.874 181.465 294.92 182.642 295.013C181.764 295.783 180.85 296.505 179.932 297.218C180.283 298.426 180.634 299.634 180.949 300.852Z" fill="white"/>
<path d="M176.611 313.56C176.988 312.44 177.401 311.335 177.871 310.256C178.305 311.335 178.728 312.419 179.121 313.519C180.35 313.56 181.579 313.576 182.802 313.643C181.878 314.433 180.918 315.187 179.952 315.936C180.283 317.123 180.613 318.321 180.892 319.529C179.844 318.905 178.837 318.217 177.825 317.552C176.782 318.295 175.749 319.054 174.716 319.808C175.093 318.532 175.465 317.252 175.765 315.956C174.778 315.238 173.797 314.505 172.842 313.735C174.097 313.658 175.352 313.617 176.611 313.56Z" fill="white"/>
<path d="M180.964 338.447C179.916 337.73 178.878 336.991 177.851 336.243C176.823 337.012 175.796 337.782 174.753 338.525C175.144 337.344 175.464 336.14 175.712 334.921C174.898 334.02 173.976 333.224 172.965 332.551C174.179 332.479 175.397 332.432 176.611 332.396C177.003 331.244 177.416 330.108 177.917 329.004C178.377 330.135 178.795 331.286 179.188 332.448C180.442 332.402 181.697 332.371 182.952 332.355C181.96 333.176 180.943 333.955 179.926 334.751C180.277 335.979 180.649 337.208 180.964 338.447Z" fill="white"/>
<path d="M179.942 278.449C180.283 279.673 180.639 280.897 180.959 282.125C179.911 281.444 178.894 280.721 177.876 280.008C176.911 280.674 175.945 281.351 174.954 281.981C175.186 280.855 175.543 279.75 175.672 278.604C174.821 277.708 173.884 276.899 172.873 276.188C174.112 276.1 175.352 276.064 176.596 276.028C177.009 274.908 177.438 273.797 177.933 272.713C178.439 273.782 178.543 275.145 179.4 276.002C180.587 276.105 181.785 276.059 182.978 276.079C181.981 276.889 180.959 277.659 179.942 278.449Z" fill="white"/>
<path d="M179.936 259.608C180.277 260.816 180.612 262.024 180.902 263.254C179.843 262.614 178.826 261.906 177.793 261.224C176.766 262.009 175.733 262.794 174.69 263.558C175.082 262.262 175.475 260.971 175.795 259.654C174.824 258.973 173.864 258.276 172.94 257.537C174.163 257.444 175.392 257.388 176.616 257.321C176.988 256.19 177.396 255.069 177.865 253.975C178.325 255.069 178.754 256.179 179.12 257.31C180.411 257.357 181.707 257.357 183.003 257.388C181.987 258.137 180.969 258.881 179.936 259.608Z" fill="white"/>
<path d="M288.539 248.361C288.859 247.173 289.205 246.001 289.592 244.834C290.072 245.949 290.522 247.08 291.002 248.195C292.314 248.035 293.625 247.844 294.937 247.669C293.894 248.557 292.845 249.435 291.792 250.312C292.107 251.531 292.453 252.75 292.763 253.973C291.74 253.4 290.728 252.817 289.716 252.233C288.694 253.116 287.661 253.993 286.567 254.784C286.907 253.519 287.305 252.269 287.682 251.015C286.665 250.431 285.663 249.832 284.667 249.218C285.957 248.923 287.248 248.65 288.539 248.361Z" fill="white"/>
<path d="M277.314 259.272C277.65 258.054 277.985 256.835 278.362 255.627C278.95 256.693 279.373 257.842 279.617 259.035C280.856 258.947 282.095 258.839 283.334 258.787C282.343 259.623 281.422 260.54 280.582 261.529C280.872 262.639 281.29 263.708 281.594 264.818C280.541 264.281 279.508 263.703 278.49 263.104C277.463 263.971 276.425 264.828 275.346 265.634C275.666 264.441 276.089 263.274 276.368 262.071C275.572 261.235 274.648 260.529 273.632 259.98C274.851 259.711 276.08 259.484 277.314 259.272Z" fill="white"/>
<path d="M269.331 253.36C269.672 254.512 270.023 255.663 270.353 256.825C269.29 256.277 268.241 255.699 267.188 255.131C266.362 255.9 265.536 256.675 264.684 257.413H264.235C264.57 256.215 264.903 255.017 265.231 253.82C264.255 253.19 263.29 252.554 262.35 251.884C263.517 251.729 264.694 251.589 265.871 251.46C266.403 250.236 266.894 249.002 267.41 247.773C267.787 248.837 268.149 249.901 268.505 250.975C269.125 250.928 269.744 250.882 270.369 250.84C271.014 250.794 271.665 250.758 272.315 250.727C271.345 251.63 270.343 252.503 269.331 253.36Z" fill="white"/>
<path d="M254.966 261.873C255.292 260.681 255.658 259.498 256.051 258.326C256.531 259.405 256.975 260.505 257.429 261.6C258.627 261.569 259.83 261.533 261.039 261.533C260.048 262.3 259.138 263.167 258.323 264.119C258.573 265.323 258.9 266.51 259.304 267.671C258.266 267.042 257.238 266.401 256.195 265.776C255.152 266.598 254.12 267.434 253.041 268.208C253.371 266.964 253.743 265.735 254.094 264.501C253.18 263.861 252.266 263.226 251.388 262.549C252.571 262.287 253.769 262.079 254.966 261.873Z" fill="white"/>
<path d="M243.762 253.717C244.081 252.434 244.515 251.183 245.058 249.979C245.414 251.094 245.744 252.219 246.065 253.35C247.319 253.283 248.574 253.237 249.834 253.273C248.905 254.145 247.939 254.982 246.979 255.829C247.397 256.99 247.769 258.173 248.073 259.376C247.025 258.777 246.003 258.126 244.985 257.481C243.922 258.328 242.863 259.18 241.763 259.98C242.115 258.767 242.579 257.584 242.863 256.35C242.014 255.534 241.083 254.807 240.085 254.182C241.309 254.016 242.535 253.861 243.762 253.717Z" fill="white"/>
<path d="M236.858 307.178C235.779 306.641 234.741 306.037 233.714 305.422C232.79 306.192 231.85 306.946 230.864 307.643C231.08 306.413 231.365 305.196 231.716 303.997C230.709 303.367 229.717 302.707 228.767 301.999C230.001 301.855 231.24 301.746 232.479 301.643C232.928 300.409 233.383 299.175 233.827 297.936C234.245 299.066 234.622 300.213 234.989 301.369C236.233 301.338 237.477 301.312 238.727 301.302C237.761 302.149 236.77 302.96 235.794 303.786C236.161 304.912 236.538 306.032 236.858 307.178Z" fill="white"/>
<path d="M236.832 288.424C235.837 287.758 234.755 287.235 233.615 286.87C232.619 287.474 231.751 288.259 230.817 288.951C231.049 287.722 231.369 286.513 231.699 285.31C230.713 284.639 229.722 283.973 228.771 283.25C229.995 283.132 231.219 283.059 232.443 282.987C232.928 281.675 233.351 280.343 233.811 279.021C234.24 280.24 234.637 281.47 235.035 282.703C236.3 282.574 237.56 282.44 238.83 282.341C237.724 283.165 236.733 284.133 235.882 285.217C236.141 286.302 236.528 287.35 236.832 288.424Z" fill="white"/>
<path d="M225.757 280.158C224.724 279.518 223.707 278.857 222.695 278.196C221.632 278.948 220.529 279.641 219.39 280.272C219.85 279.115 220.201 277.923 220.568 276.74C219.535 276.053 218.508 275.367 217.496 274.659C218.74 274.582 219.988 274.508 221.24 274.437C221.431 273.864 221.622 273.291 221.828 272.723C222.076 272.052 222.334 271.386 222.598 270.725C223.037 271.845 223.45 272.976 223.852 274.117C225.097 274.049 226.336 273.973 227.586 273.936C226.636 274.834 225.65 275.686 224.658 276.538C225.013 277.747 225.39 278.95 225.757 280.158Z" fill="white"/>
<path d="M221.889 310.241C222.127 309.617 222.364 308.996 222.597 308.377C223.036 309.461 223.454 310.556 223.867 311.656C225.075 311.614 226.289 311.578 227.497 311.563C226.49 312.334 225.583 313.227 224.796 314.222C225.043 315.428 225.375 316.615 225.788 317.774C224.735 317.072 223.687 316.359 222.644 315.646C221.74 316.369 220.837 317.092 219.923 317.809C219.959 316.627 220.131 315.452 220.435 314.309C219.557 313.627 218.664 312.961 217.776 312.295C219.354 312.064 221.595 312.322 221.889 310.241Z" fill="white"/>
<path d="M210.184 265.627C210.538 264.365 210.971 263.127 211.48 261.92C211.852 263.082 212.224 264.249 212.58 265.421C213.835 265.4 215.094 265.369 216.354 265.41C215.435 266.267 214.464 267.068 213.484 267.853C213.845 269.025 214.18 270.202 214.464 271.395C213.416 270.811 212.415 270.161 211.397 269.531C210.344 270.321 209.296 271.121 208.217 271.875C208.573 270.661 209.043 269.479 209.296 268.235C208.368 267.312 207.319 266.52 206.177 265.88C207.515 265.803 208.847 265.715 210.184 265.627Z" fill="white"/>
<path d="M214.516 290.324C213.478 289.632 212.442 288.937 211.408 288.238C210.385 289.033 209.363 289.844 208.294 290.582C208.62 289.348 208.997 288.13 209.353 286.911C208.382 286.168 207.396 285.45 206.457 284.681C207.675 284.546 208.905 284.474 210.128 284.417C210.482 283.199 210.952 282.018 211.532 280.891C211.894 281.97 212.245 283.054 212.586 284.144C213.82 284.18 215.049 284.221 216.288 284.298C215.405 285.13 214.186 285.703 213.603 286.792C213.829 287.985 214.222 289.142 214.516 290.324Z" fill="white"/>
<path d="M203.301 281.283C202.336 280.751 201.432 280.106 200.43 279.641C199.201 279.817 198.298 280.921 197.198 281.459C197.488 280.297 197.854 279.161 198.247 278.035C197.25 277.276 196.248 276.527 195.277 275.732C196.517 275.68 197.751 275.629 198.989 275.588C199.397 274.281 199.847 272.985 200.28 271.689C200.693 272.934 201.07 274.194 201.457 275.448C202.737 275.417 204.019 275.371 205.299 275.387C204.313 276.203 203.285 276.977 202.237 277.715C202.614 278.898 202.992 280.08 203.301 281.283Z" fill="white"/>
<path d="M192.2 291.212C191.136 290.556 190.104 289.844 189.076 289.131C188.048 289.89 187.031 290.66 185.999 291.408C186.283 290.123 186.639 288.852 186.985 287.588C185.952 286.88 184.935 286.161 183.933 285.429C185.126 285.398 186.329 285.445 187.522 285.31C188.492 284.376 188.503 282.785 189.019 281.566C189.504 282.761 189.923 283.981 190.274 285.222C191.518 285.232 192.763 285.238 194.007 285.284C193.067 286.064 192.096 286.797 191.111 287.51C191.467 288.749 191.864 289.973 192.2 291.212Z" fill="white"/>
<path d="M187.806 303.981C188.208 302.829 188.611 301.683 189.029 300.537C189.504 301.616 189.902 302.721 190.284 303.836C191.534 303.867 192.778 303.883 194.028 303.929C193.073 304.787 192.081 305.602 191.095 306.418C191.477 307.626 191.88 308.83 192.247 310.048C191.173 309.356 190.13 308.623 189.072 307.905C188.055 308.649 187.053 309.403 186 310.1C186.294 308.871 186.645 307.657 187.043 306.465C186.072 305.762 185.112 305.039 184.193 304.27C185.394 304.146 186.597 304.063 187.806 303.981Z" fill="white"/>
<path d="M192.231 328.787C191.136 328.106 190.083 327.362 189.035 326.624C188.023 327.434 187 328.224 185.968 329.014C186.272 327.729 186.618 326.464 186.98 325.193C186.05 324.481 185.121 323.763 184.228 323.014C185.436 322.891 186.654 322.828 187.873 322.767C188.229 321.574 188.611 320.386 189.009 319.209C189.516 320.367 189.932 321.564 190.253 322.787C191.585 322.751 192.912 322.694 194.24 322.658C193.191 323.48 192.14 324.299 191.085 325.116C191.467 326.335 191.869 327.553 192.231 328.787Z" fill="white"/>
<path d="M191.105 268.829C191.472 270.037 191.859 271.235 192.189 272.454C191.116 271.782 190.072 271.065 189.014 270.362C188.012 271.158 187.005 271.942 185.983 272.717C186.293 271.421 186.644 270.146 187.011 268.87C185.968 268.147 184.93 267.414 183.907 266.665C185.234 266.567 186.561 266.511 187.893 266.443C188.245 265.266 188.622 264.089 189.013 262.922C189.505 264.055 189.921 265.219 190.258 266.407C191.595 266.387 192.927 266.351 194.265 266.351C193.217 267.182 192.159 267.998 191.105 268.829Z" fill="white"/>
<path d="M198.824 256.695C199.462 255.513 199.928 254.248 200.208 252.936C200.549 254.211 201.138 255.399 201.473 256.68C202.712 256.654 203.952 256.607 205.191 256.561C204.225 257.459 203.229 258.316 202.263 259.21C202.661 260.33 203.032 261.461 203.332 262.612C202.258 261.988 201.22 261.3 200.203 260.588C199.25 261.359 198.257 262.08 197.229 262.747C197.497 261.58 197.853 260.428 198.225 259.292C197.203 258.502 196.165 257.728 195.174 256.907C196.387 256.839 197.611 256.844 198.824 256.695Z" fill="white"/>
<path d="M198.959 294.301C199.413 293.01 199.811 291.699 200.229 290.393C200.647 291.642 201.034 292.902 201.453 294.157C202.718 294.136 203.983 294.121 205.248 294.131C204.288 294.978 203.286 295.783 202.294 296.594C202.635 297.74 202.981 298.886 203.265 300.053C202.272 299.365 201.213 298.775 200.105 298.293C199.103 298.917 198.184 299.662 197.203 300.322C197.492 299.104 197.859 297.911 198.226 296.724C197.203 296.006 196.181 295.284 195.184 294.529C196.439 294.405 197.699 294.343 198.959 294.301Z" fill="white"/>
<path d="M203.296 337.559C202.212 337.063 201.277 336.077 200.074 335.927C199.072 336.433 198.2 337.151 197.244 337.739C197.513 336.572 197.854 335.426 198.195 334.28C197.198 333.526 196.201 332.783 195.205 332.029C196.465 331.951 197.725 331.874 198.99 331.817C199.418 330.537 199.831 329.251 200.27 327.98C200.693 329.199 201.065 330.444 201.442 331.678C202.717 331.641 203.998 331.6 205.278 331.616C204.297 332.504 203.264 333.33 202.237 334.166C202.625 335.282 202.992 336.413 203.296 337.559Z" fill="white"/>
<path d="M202.237 315.31C202.625 316.487 203.007 317.67 203.322 318.873C202.021 318.444 200.673 316.24 199.315 317.582C198.613 318.062 197.921 318.558 197.208 319.033C197.487 317.913 197.854 316.818 198.107 315.698C197.251 314.773 196.283 313.96 195.226 313.276C196.48 313.219 197.735 313.183 198.99 313.142C199.387 311.846 199.775 310.555 200.208 309.279C200.632 310.555 201.112 311.815 201.53 313.095C202.888 312.987 204.246 312.894 205.604 312.77C204.473 313.606 203.363 314.469 202.237 315.31Z" fill="white"/>
<path d="M214.475 327.697C213.432 327.093 212.42 326.447 211.403 325.812C210.355 326.592 209.317 327.387 208.248 328.141C208.594 326.938 209.048 325.761 209.281 324.526C208.34 323.604 207.289 322.801 206.152 322.136C207.494 322.043 208.838 321.943 210.184 321.836C210.571 320.607 210.979 319.384 211.485 318.201C211.851 319.363 212.213 320.535 212.569 321.707C213.793 321.723 215.017 321.723 216.246 321.774C215.363 322.606 214.438 323.38 213.514 324.16C213.856 325.332 214.191 326.504 214.475 327.697Z" fill="white"/>
<path d="M213.432 305.387C213.85 306.575 214.206 307.778 214.511 309.001C213.447 308.377 212.42 307.685 211.387 307.013C210.339 307.845 209.291 308.681 208.217 309.476C208.583 308.18 208.991 306.895 209.353 305.599C208.372 304.907 207.396 304.21 206.461 303.461C207.706 303.368 208.955 303.311 210.2 303.265C210.512 302.003 210.93 300.77 211.449 299.578C211.898 300.73 212.322 301.897 212.735 303.069C214.036 302.955 215.343 302.852 216.649 302.8C215.611 303.704 214.516 304.54 213.432 305.387Z" fill="white"/>
<path d="M221.895 253.953C222.127 253.333 222.354 252.713 222.581 252.094C223.041 253.178 223.464 254.273 223.893 255.367C225.086 255.357 226.279 255.342 227.477 255.336C226.475 256.086 225.571 256.958 224.787 257.934C225.038 259.136 225.376 260.318 225.799 261.471C224.761 260.779 223.718 260.095 222.67 259.421C221.678 260.128 220.682 260.841 219.639 261.486C219.853 260.312 220.143 259.153 220.507 258.016C219.484 257.314 218.452 256.617 217.429 255.915C219.034 255.589 221.575 256.157 221.895 253.953Z" fill="white"/>
<path d="M225.71 336.434C224.693 335.81 223.692 335.158 222.685 334.518C221.662 335.205 220.656 335.917 219.613 336.573C219.847 335.367 220.157 334.177 220.542 333.01C219.52 332.334 218.492 331.663 217.454 331.017C219.045 330.687 221.621 331.229 221.879 329.024L222.587 327.016C223.02 328.115 223.439 329.22 223.852 330.336C225.065 330.32 226.284 330.299 227.502 330.31C226.583 331.177 225.628 332.014 224.678 332.85C225.019 334.043 225.37 335.236 225.71 336.434Z" fill="white"/>
<path d="M224.693 295.184C225.019 296.418 225.354 297.642 225.679 298.876C224.642 298.225 223.619 297.559 222.591 296.903C221.657 297.698 220.719 298.49 219.777 299.278C219.876 298.025 220.108 296.786 220.469 295.581C219.561 294.895 218.657 294.198 217.779 293.475C218.941 293.31 220.113 293.18 221.28 293.056C221.445 292.587 221.616 292.122 221.786 291.657C222.039 290.996 222.298 290.335 222.561 289.68C222.994 290.738 223.423 291.792 223.867 292.85L227.781 292.726C226.754 293.547 225.724 294.366 224.693 295.184Z" fill="white"/>
<path d="M232.5 264.069C232.955 262.814 233.409 261.565 233.832 260.305C234.251 261.492 234.628 262.701 234.984 263.914C236.255 263.821 237.525 263.723 238.795 263.656C237.819 264.554 236.792 265.401 235.774 266.253C236.156 267.425 236.559 268.597 236.905 269.785C235.836 269.186 234.788 268.54 233.756 267.879C232.816 268.638 231.871 269.387 230.88 270.079C231.091 268.907 231.38 267.755 231.69 266.609C230.72 265.871 229.728 265.169 228.737 264.456C229.991 264.306 231.246 264.182 232.5 264.069Z" fill="white"/>
<path d="M237.013 326.144C235.975 325.529 234.979 324.842 233.909 324.274C232.848 324.901 231.831 325.598 230.863 326.36C231.09 325.199 231.379 324.052 231.689 322.916C230.729 322.157 229.742 321.44 228.767 320.712C230.006 320.613 231.245 320.531 232.489 320.443C232.944 319.157 233.383 317.867 233.863 316.586C234.25 317.789 234.606 319.002 234.947 320.226C236.254 320.092 237.56 319.947 238.876 319.88C237.859 320.805 236.796 321.672 235.742 322.544C236.172 323.742 236.61 324.935 237.013 326.144Z" fill="white"/>
<path d="M243.746 272.403C244.113 271.127 244.546 269.87 245.042 268.639C245.419 269.837 245.77 271.045 246.132 272.253C247.459 272.17 248.781 272.047 250.108 271.943C249.08 272.836 248.032 273.699 246.973 274.556C247.376 275.723 247.753 276.895 248.068 278.093C247.009 277.504 245.977 276.879 244.949 276.244C243.937 277.065 242.93 277.902 241.861 278.66C242.156 277.421 242.543 276.212 242.92 275.005C241.949 274.287 240.952 273.605 239.972 272.903C241.227 272.707 242.486 272.553 243.746 272.403Z" fill="white"/>
<path d="M248.078 315.673C247.03 315.063 246.008 314.423 244.986 313.773C243.927 314.609 242.874 315.451 241.779 316.241C242.14 315.002 242.554 313.778 242.972 312.554C241.996 311.888 241.03 311.217 240.096 310.499C241.309 310.267 242.538 310.081 243.767 309.9C244.107 308.656 244.541 307.439 245.063 306.26C245.414 307.39 245.748 308.53 246.064 309.678C247.304 309.637 248.548 309.59 249.798 309.621C248.873 310.478 247.923 311.294 246.989 312.131C247.402 313.292 247.774 314.475 248.078 315.673Z" fill="white"/>
<path d="M247.98 296.752C246.942 296.21 245.936 295.606 244.924 295.028C243.886 295.895 242.853 296.762 241.779 297.589C242.125 296.293 242.538 295.017 242.936 293.737C241.955 293.055 240.974 292.389 240.024 291.671C241.258 291.537 242.502 291.434 243.741 291.331C244.023 290.024 244.47 288.759 245.073 287.566C245.43 288.666 245.771 289.776 246.106 290.886C247.371 290.845 248.636 290.763 249.901 290.757C248.983 291.637 248.018 292.466 247.01 293.241C247.36 294.403 247.712 295.564 247.98 296.752Z" fill="white"/>
<path d="M248.053 334.337C246.994 333.779 245.967 333.154 244.949 332.529C243.932 333.371 242.915 334.212 241.82 334.956C242.135 333.717 242.543 332.508 242.946 331.3C241.954 330.598 240.953 329.906 239.998 329.157C241.227 329.013 242.461 328.92 243.695 328.842C244.103 327.52 244.511 326.193 245.037 324.918C245.419 326.131 245.776 327.36 246.127 328.589C247.485 328.45 248.837 328.269 250.201 328.15C249.152 329.08 248.063 329.958 246.963 330.825C247.36 331.983 247.738 333.149 248.053 334.337Z" fill="white"/>
<path d="M254.858 280.762C255.225 279.569 255.632 278.387 256.051 277.215C256.557 278.309 257.047 279.409 257.486 280.53C258.705 280.37 259.923 280.21 261.152 280.111C260.212 281.046 259.216 281.914 258.214 282.776C258.571 283.974 258.942 285.172 259.299 286.375C258.245 285.771 257.218 285.141 256.19 284.506C255.168 285.332 254.14 286.158 253.072 286.932C253.381 285.698 253.753 284.484 254.104 283.266C253.072 282.549 252.018 281.872 250.991 281.154C252.276 280.979 253.568 280.865 254.858 280.762Z" fill="white"/>
<path d="M259.35 324C258.287 323.334 257.223 322.669 256.159 322.007C255.142 322.869 254.12 323.721 253.046 324.511C253.361 323.272 253.732 322.048 254.073 320.819C253.159 320.143 252.24 319.477 251.347 318.785C252.54 318.506 253.753 318.299 254.966 318.108C255.292 316.931 255.664 315.764 256.056 314.607C256.557 315.707 256.991 316.838 257.419 317.969C258.638 317.871 259.856 317.783 261.08 317.778C260.083 318.57 259.156 319.447 258.312 320.401C258.568 321.625 258.915 322.828 259.35 324V324Z" fill="white"/>
<path d="M258.276 301.415C258.55 302.613 258.86 303.801 259.128 304.999C258.163 304.473 257.243 303.853 256.237 303.414C255.141 304.086 254.094 304.833 253.102 305.65C253.406 304.395 253.763 303.156 254.094 301.912C253.067 301.282 252.05 300.646 251.048 299.98C252.339 299.81 253.63 299.676 254.926 299.536C255.256 298.318 255.638 297.12 256.051 295.938C256.563 296.991 257.011 298.07 257.466 299.149C258.767 299.046 260.068 298.938 261.375 298.839C260.357 299.717 259.319 300.574 258.276 301.415Z" fill="white"/>
<path d="M269.326 328.502C269.682 329.618 270.044 330.728 270.385 331.853C269.326 331.332 268.293 330.769 267.266 330.201C266.326 330.976 265.366 331.735 264.385 332.452C264.452 332.034 264.596 331.198 264.663 330.774L265.149 328.848C264.193 328.187 263.233 327.547 262.278 326.891C263.497 326.715 264.715 326.561 265.939 326.411C266.435 325.187 266.904 323.948 267.39 322.725C267.674 323.577 267.953 324.434 268.237 325.291L268.505 326.029C269.78 325.972 271.051 325.812 272.321 325.693C271.34 326.643 270.323 327.567 269.326 328.502Z" fill="white"/>
<path d="M272.104 288.223C271.221 289.173 270.291 290.082 269.347 290.975C269.677 292.07 270.003 293.169 270.307 294.28C269.263 293.753 268.241 293.19 267.214 292.638C266.599 293.216 265.99 293.794 265.355 294.352C264.967 294.615 264.58 294.879 264.198 295.147C264.534 293.903 264.88 292.653 265.236 291.414C264.27 290.717 263.289 290.046 262.324 289.354C263.532 289.204 264.746 289.07 265.954 288.93C266.424 287.686 266.873 286.431 267.343 285.182C267.777 286.313 268.195 287.454 268.608 288.595L269.713 288.435C270.503 288.347 271.304 288.275 272.104 288.223Z" fill="white"/>
<path d="M269.326 309.646C269.678 310.808 270.033 311.97 270.364 313.142C269.31 312.584 268.273 311.995 267.23 311.422C266.393 312.176 265.557 312.94 264.684 313.653L264.281 313.694C264.586 312.501 264.896 311.309 265.211 310.116C264.235 309.476 263.269 308.83 262.329 308.149C263.507 307.973 264.689 307.818 265.877 307.669C266.398 306.476 266.884 305.268 267.41 304.08C267.767 305.077 268.113 306.082 268.448 307.095C269.501 307.266 270.555 307.447 271.603 307.684C270.844 308.345 270.085 308.995 269.326 309.646Z" fill="white"/>
<path d="M269.517 272.381C269.682 273.424 270.029 274.431 270.235 275.469C269.274 274.928 268.277 274.456 267.25 274.055C266.248 274.674 265.355 275.449 264.405 276.146C264.632 274.932 264.891 273.719 265.138 272.511C264.173 271.891 263.212 271.276 262.252 270.652C263.496 270.445 264.746 270.254 265.996 270.053C266.43 268.86 266.864 267.662 267.318 266.469L268.056 268.302C268.258 268.834 268.469 269.365 268.68 269.897C269.894 269.737 271.107 269.567 272.32 269.401C271.396 270.388 270.054 271.111 269.517 272.381Z" fill="white"/>
<path d="M277.267 277.921C277.758 276.791 278.052 275.588 278.47 274.426C279.002 275.5 279.1 276.874 279.973 277.741C281.119 277.669 282.261 277.503 283.412 277.41C282.482 278.36 281.496 279.254 280.489 280.121C280.882 281.283 281.274 282.45 281.625 283.632C280.562 283.08 279.529 282.48 278.501 281.877C277.495 282.723 276.472 283.56 275.393 284.314C275.693 283.08 276.069 281.866 276.457 280.658C275.398 279.966 274.324 279.3 273.266 278.613C274.628 278.599 275.979 278.365 277.267 277.921V277.921Z" fill="white"/>
<path d="M281.563 321.062C280.5 320.545 279.472 319.977 278.455 319.394C277.448 320.272 276.421 321.124 275.351 321.924C275.661 320.726 276.079 319.559 276.358 318.356C275.519 317.53 274.577 316.817 273.554 316.234C274.793 315.97 276.043 315.79 277.292 315.604C277.638 314.37 277.979 313.136 278.356 311.912C278.953 312.972 279.377 314.121 279.611 315.315C280.876 315.191 282.141 315.051 283.421 314.995C282.377 315.836 281.425 316.786 280.581 317.829C280.84 318.924 281.248 319.977 281.563 321.062Z" fill="white"/>
<path d="M280.505 298.845C280.882 300.017 281.274 301.189 281.589 302.382C280.531 301.829 279.503 301.23 278.47 300.642C277.432 301.519 276.395 302.402 275.331 303.254C275.656 301.933 276.049 300.637 276.462 299.346C275.398 298.731 274.36 298.086 273.322 297.435C274.634 297.26 275.946 297.082 277.257 296.903C277.557 295.665 277.967 294.455 278.481 293.289C279.005 294.286 279.371 295.36 279.565 296.47C280.923 296.408 282.281 296.304 283.639 296.222C282.586 297.089 281.543 297.967 280.505 298.845Z" fill="white"/>
<path d="M288.456 267.347C288.808 266.051 289.179 264.766 289.592 263.49C290.062 264.6 290.496 265.726 290.935 266.852C292.169 266.712 293.408 266.573 294.653 266.516C293.723 267.445 292.737 268.323 291.757 269.201C292.077 270.326 292.392 271.457 292.655 272.603C291.659 272.103 290.688 271.55 289.722 270.998C288.695 271.86 287.672 272.727 286.588 273.517C286.898 272.278 287.285 271.065 287.667 269.846C286.624 269.154 285.555 268.504 284.528 267.791C285.833 267.606 287.145 267.476 288.456 267.347Z" fill="white"/>
<path d="M292.784 291.549C291.817 290.95 290.819 290.402 289.794 289.907C288.687 290.601 287.626 291.367 286.619 292.2C286.923 290.961 287.3 289.747 287.651 288.529C286.675 287.956 285.715 287.351 284.791 286.711C286.004 286.448 287.228 286.236 288.452 285.988C288.819 284.775 289.211 283.572 289.66 282.395C290.12 283.479 290.543 284.584 290.987 285.684C292.185 285.544 293.383 285.405 294.586 285.302C293.677 286.221 292.712 287.083 291.746 287.945C292.107 289.138 292.463 290.336 292.784 291.549Z" fill="white"/>
<path d="M292.639 328.88C291.684 328.41 290.77 327.863 289.783 327.465C288.647 328.163 287.568 328.951 286.556 329.82C286.876 328.57 287.269 327.342 287.676 326.123C286.654 325.478 285.616 324.853 284.604 324.197C285.861 324.061 287.108 323.847 288.338 323.557C288.831 322.319 289.248 321.051 289.587 319.762C290.041 320.872 290.465 321.992 290.899 323.113C292.107 323.046 293.315 322.989 294.524 322.963C293.605 323.831 292.655 324.672 291.72 325.524C292.045 326.634 292.365 327.749 292.639 328.88Z" fill="white"/>
<path d="M291.932 306.59C292.042 307.804 292.272 309.004 292.618 310.174C291.632 309.647 290.666 309.079 289.716 308.501C288.689 309.389 287.661 310.272 286.582 311.088C286.886 309.833 287.274 308.599 287.63 307.36C286.613 306.694 285.586 306.048 284.568 305.382C285.9 305.242 287.216 304.976 288.498 304.587C288.911 303.441 289.2 302.253 289.582 301.102C290.062 302.207 290.506 303.332 290.987 304.447C292.303 304.277 293.62 304.076 294.942 303.926C293.892 304.76 292.887 305.649 291.932 306.59V306.59Z" fill="white"/>
<path d="M386.825 331.756C396.532 330.305 406.224 328.653 416.045 328.142C419.469 327.74 422.936 327.92 426.299 328.674C428.948 329.252 432.052 330.698 432.403 333.744C432.397 338.035 432.382 342.32 432.397 346.611C431.447 342.93 427.053 342.155 423.8 342.037C418.472 341.527 413.104 341.591 407.788 342.228C398.603 343.188 389.494 344.727 380.365 346.116C334.086 354.191 287.79 362.628 240.937 366.682C235.392 367.461 229.784 367.498 224.229 368.179C216.494 368.726 208.749 369.057 201.003 369.47C190.682 370.094 180.334 369.991 170.002 370.131C170.033 365.618 170.033 361.103 170.002 356.587C176.802 356.639 183.613 356.597 190.408 356.298C196.093 356.437 201.757 355.89 207.432 355.699C213.613 355.306 219.809 355.198 225.974 354.563C230.1 354.093 234.262 354.093 238.382 353.582C243.029 352.936 247.738 352.895 252.385 352.193C276.137 349.843 299.764 346.43 323.32 342.594C344.521 339.181 365.639 335.242 386.825 331.756Z" fill="url(#paint0_linear_201_3)"/>
<path d="M392.308 357.795C403.176 355.669 414.255 354.829 425.318 355.291C428.334 355.952 432.351 357.367 432.403 361.084C432.392 365.071 432.397 369.057 432.382 373.048C431.84 372.014 431.054 371.128 430.092 370.467C429.13 369.806 428.021 369.389 426.862 369.253C417.05 368.24 407.144 368.626 397.441 370.399C376.885 373.327 356.489 377.303 336.006 380.695C301.762 386.551 267.338 391.523 232.691 394.311C224.3 395.246 215.848 395.426 207.437 396.134C195.024 396.588 182.606 396.924 170.183 397.141C170.193 392.623 170.167 388.1 170.193 383.576C179.337 383.581 188.472 383.132 197.616 383.019C207.173 382.843 216.695 381.996 226.237 381.511C231.829 380.876 237.452 380.612 243.044 380.019C247.396 379.395 251.816 379.404 256.164 378.681C279.28 376.342 302.263 372.898 325.194 369.186C347.593 365.561 369.889 361.296 392.308 357.795Z" fill="url(#paint1_linear_201_3)"/>
<path d="M384.124 385.967C394.038 384.433 403.952 382.812 413.959 381.981C418.662 381.457 423.422 381.797 428.003 382.982C429.088 383.228 430.079 383.779 430.86 384.57C431.64 385.362 432.178 386.361 432.408 387.449C432.361 392.08 432.449 396.717 432.356 401.349C432.221 403.027 431.433 404.586 430.162 405.691C427.449 408.055 424.288 409.848 420.868 410.963C413.235 413.571 405.382 415.484 397.405 416.679C382.875 419.106 368.2 420.407 353.531 421.61C321.272 424.145 275.474 425.359 258.55 425.245C232.278 425.379 206.005 425.383 179.73 425.255C177.992 425.143 176.315 424.568 174.874 423.589C173.433 422.611 172.28 421.264 171.536 419.689C170.299 416.794 169.833 413.627 170.183 410.498C182.926 410.581 195.654 409.904 208.387 409.445C214.976 409.331 221.518 408.474 228.101 408.226C232.051 408.056 235.96 407.369 239.909 407.188C269.325 404.607 298.576 400.491 327.698 395.664C346.524 392.535 365.309 389.147 384.124 385.967Z" fill="url(#paint2_linear_201_3)"/>
<path d="M427.497 248.331C423.752 247.382 419.873 247.07 416.024 247.407C411.63 247.923 407.179 247.975 402.821 248.775C388.064 250.701 373.41 253.345 358.751 255.906C338.259 259.537 317.726 262.907 297.151 266.016V266.155C297.146 270.553 297.145 274.952 297.146 279.353C321.201 275.782 345.173 271.65 369.119 267.4C381.775 265.21 394.446 263.104 407.21 261.627C412.076 261.101 416.974 260.939 421.864 261.142C423.476 261.177 425.082 261.35 426.666 261.658C427.877 261.773 429.038 262.195 430.04 262.884C431.042 263.574 431.852 264.508 432.392 265.598C432.392 261.451 432.395 257.305 432.402 253.159C432.164 251.955 431.569 250.85 430.694 249.989C429.819 249.128 428.705 248.55 427.497 248.331V248.331Z" fill="url(#paint3_linear_201_3)"/>
<path d="M426.15 288.466C427.443 288.53 428.698 288.928 429.791 289.622C430.885 290.317 431.779 291.283 432.387 292.426C432.397 288.146 432.392 283.87 432.403 279.595C431.536 276.229 427.808 275.072 424.777 274.587C417.192 274.106 409.576 274.491 402.078 275.734C390.29 277.37 378.542 279.26 366.833 281.403C343.633 285.37 320.47 289.6 297.157 292.8V292.959C297.146 297.349 297.146 301.742 297.157 306.138C328.628 301.812 359.815 295.618 391.189 290.63C402.693 288.345 414.452 287.617 426.15 288.466Z" fill="url(#paint4_linear_201_3)"/>
<path d="M297.147 238.886C297.147 243.405 297.145 247.924 297.141 252.444C313.241 250.031 329.325 247.509 345.352 244.638C368.102 240.926 390.712 236.108 413.716 234.187C418.001 233.901 422.304 234.106 426.542 234.796C427.781 234.863 428.979 235.265 430.009 235.959C431.038 236.653 431.86 237.612 432.387 238.736C432.366 234.419 432.444 230.098 432.366 225.786C432.289 223.437 429.918 222.017 427.869 221.521C420.141 220.248 412.258 220.233 404.525 221.475C401.763 221.196 371.117 226.153 367.828 227C350.516 229.907 333.197 233 315.853 235.798L297.147 238.886Z" fill="url(#paint5_linear_201_3)"/>
<path d="M429.304 302.836C423.632 300.874 417.547 300.418 411.646 301.514C395.262 303.228 379.038 306.13 362.825 308.97C340.968 312.767 319.122 316.64 297.147 319.706V319.829C297.126 324.247 297.205 328.676 297.088 333.094C305.156 331.921 313.213 330.678 321.26 329.365C348.383 325.121 375.3 319.612 402.512 315.93C409.882 314.741 417.376 314.503 424.807 315.223C426.327 315.137 427.841 315.475 429.179 316.2C430.518 316.925 431.628 318.008 432.387 319.328C432.397 315.032 432.387 310.731 432.408 306.44C432.181 305.651 431.787 304.92 431.251 304.298C430.715 303.676 430.051 303.177 429.304 302.836V302.836Z" fill="url(#paint6_linear_201_3)"/>
<path d="M397.441 370.4C407.144 368.627 417.05 368.241 426.862 369.254C428.022 369.39 429.13 369.807 430.092 370.468C431.054 371.129 431.84 372.015 432.382 373.049C432.418 377.846 432.377 382.648 432.408 387.45C432.178 386.362 431.641 385.363 430.86 384.571C430.08 383.78 429.088 383.228 428.004 382.983C423.422 381.798 418.663 381.458 413.959 381.982C403.952 382.814 394.039 384.434 384.125 385.968C365.309 389.148 346.525 392.536 327.699 395.664C298.577 400.492 269.326 404.607 239.91 407.189C235.855 407.668 232.052 408.056 228.102 408.226C221.519 408.474 214.977 409.331 208.388 409.445C195.655 409.905 182.927 410.581 170.184 410.498V397.141C182.602 396.918 195.02 396.583 207.438 396.134C215.849 395.426 224.302 395.246 232.692 394.311C267.339 391.523 301.765 386.551 336.008 380.695C356.49 377.303 376.885 373.328 397.441 370.4Z" fill="url(#paint7_linear_201_3)"/>
<path d="M432.397 346.612C431.447 342.93 427.053 342.155 423.8 342.037C418.472 341.527 413.104 341.591 407.788 342.228C398.603 343.188 389.494 344.727 380.365 346.116C334.086 354.191 287.79 362.628 240.937 366.682C235.392 367.461 229.784 367.498 224.229 368.179C216.494 368.726 208.749 369.057 201.004 369.47C190.682 370.094 180.334 369.991 170.002 370.131L170.193 383.576C179.338 383.582 188.472 383.132 197.616 383.019C207.174 382.843 216.695 381.996 226.237 381.511C231.829 380.876 237.452 380.613 243.044 380.019C247.396 379.395 251.817 379.404 256.164 378.682C279.281 376.343 302.263 372.899 325.194 369.186C347.593 365.561 369.889 361.296 392.308 357.795C403.175 355.669 414.255 354.829 425.318 355.291C428.334 355.952 432.351 357.367 432.402 361.084C432.387 356.256 432.403 351.434 432.397 346.612Z" fill="url(#paint8_linear_201_3)"/>
<path d="M432.387 319.327C431.628 318.008 430.518 316.925 429.179 316.2C427.841 315.475 426.327 315.137 424.807 315.222C417.376 314.503 409.882 314.741 402.511 315.93C375.3 319.611 348.383 325.121 321.26 329.365C298.892 333 276.436 336.201 253.898 338.489C249.411 338.83 244.98 339.728 240.467 339.728C233.435 340.802 226.309 340.781 219.251 341.628C217.222 341.871 215.162 341.664 213.133 341.902C209.327 342.398 205.47 342.052 201.665 342.526C191.145 343.041 180.615 343.329 170.079 343.269L170.003 356.586C176.803 356.637 183.613 356.596 190.408 356.297C196.093 356.436 201.758 355.889 207.432 355.698C213.613 355.305 219.809 355.197 225.974 354.562C230.1 354.092 234.262 354.092 238.382 353.58C243.029 352.935 247.738 352.894 252.385 352.192C276.137 349.842 299.765 346.429 323.321 342.593C344.522 339.18 365.641 335.24 386.826 331.755C396.533 330.304 406.225 328.652 416.045 328.14C419.473 327.948 422.911 328.126 426.3 328.672C428.949 329.25 432.052 330.696 432.403 333.743C432.377 328.936 432.418 324.129 432.387 319.327Z" fill="url(#paint9_linear_201_3)"/>
<path d="M407.21 261.626C412.076 261.101 416.974 260.939 421.864 261.141C423.454 261.399 425.06 261.518 426.666 261.657C427.877 261.772 429.038 262.194 430.04 262.884C431.043 263.573 431.852 264.507 432.392 265.597C432.413 270.259 432.376 274.927 432.403 279.595C431.535 276.228 427.807 275.072 424.776 274.587C417.191 274.106 409.576 274.491 402.078 275.733C390.29 277.37 378.541 279.26 366.832 281.403C343.612 285.373 320.428 289.607 297.095 292.809C297.074 288.327 297.105 283.845 297.079 279.363C321.156 275.79 345.15 271.654 369.119 267.4C381.776 265.21 394.446 263.103 407.21 261.626Z" fill="url(#paint10_linear_201_3)"/>
<path d="M391.188 290.63C402.692 288.345 414.451 287.617 426.15 288.467C427.443 288.53 428.698 288.929 429.791 289.623C430.885 290.317 431.779 291.283 432.387 292.427C432.418 297.095 432.377 301.768 432.408 306.44C432.181 305.651 431.787 304.92 431.251 304.298C430.715 303.676 430.051 303.177 429.304 302.836C423.631 300.874 417.546 300.419 411.645 301.515C395.261 303.229 379.038 306.131 362.824 308.971C340.947 312.771 319.08 316.649 297.084 319.716C297.073 315.192 297.12 310.669 297.063 306.151C328.566 301.825 359.784 295.623 391.188 290.63Z" fill="url(#paint11_linear_201_3)"/>
<path d="M413.716 234.188C418.001 233.902 422.304 234.106 426.542 234.797C427.781 234.864 428.979 235.266 430.009 235.959C431.038 236.653 431.86 237.613 432.387 238.736C432.413 243.544 432.377 248.351 432.403 253.158C432.165 251.954 431.569 250.849 430.695 249.988C429.82 249.127 428.706 248.549 427.498 248.33C423.752 247.381 419.874 247.069 416.025 247.406C411.631 247.922 407.18 247.974 402.822 248.774C388.065 250.7 373.411 253.344 358.752 255.905C338.238 259.54 317.682 262.913 297.085 266.025C297.085 261.502 297.116 256.979 297.064 252.456C313.19 250.04 329.3 247.514 345.352 244.638C368.102 240.926 390.713 236.108 413.716 234.188Z" fill="url(#paint12_linear_201_3)"/>
<path d="M426.955 398.141C423.209 397.239 419.341 396.956 415.503 397.305C407.078 397.794 398.691 398.798 390.388 400.31C377.252 402.081 364.22 404.523 351.125 406.563C348.755 406.924 346.427 407.472 344.072 407.89C313.277 412.878 282.385 417.354 251.332 420.416C249.509 420.576 213.7 422.848 202.852 423.194C195.948 423.643 189.019 423.649 182.105 423.886C178.585 424.092 175.105 423.044 172.284 420.928C173.068 422.188 174.141 423.244 175.414 424.007C176.688 424.769 178.125 425.216 179.606 425.312C191.902 425.403 203.494 425.347 215.291 425.32C277.602 426.643 339.918 422.976 401.644 414.355C407.141 413.377 412.572 412.055 417.904 410.394C421.171 409.452 424.284 408.036 427.141 406.191C427.991 405.682 428.709 404.98 429.238 404.143C429.767 403.305 430.092 402.355 430.187 401.369C430.121 399.634 428.453 398.58 426.955 398.141Z" fill="#6A0000"/>
<defs>
<linearGradient id="paint0_linear_201_3" x1="170.002" y1="348.996" x2="432.403" y2="348.996" gradientUnits="userSpaceOnUse">
<stop stop-color="#C11212"/>
<stop offset="0.23403" stop-color="#C31414"/>
<stop offset="0.31821" stop-color="#CA1B1B"/>
<stop offset="0.37811" stop-color="#D52626"/>
<stop offset="0.4" stop-color="#DC2D2D"/>
<stop offset="0.67908" stop-color="#DA2C2C"/>
<stop offset="0.77958" stop-color="#D32727"/>
<stop offset="0.85122" stop-color="#C81E1E"/>
<stop offset="0.90876" stop-color="#B71111"/>
<stop offset="0.95784" stop-color="#A10101"/>
<stop offset="0.96" stop-color="#A00000"/>
<stop offset="1" stop-color="#DC2D2D"/>
</linearGradient>
<linearGradient id="paint1_linear_201_3" x1="2959.26" y1="1341.7" x2="7256.77" y2="1341.7" gradientUnits="userSpaceOnUse">
<stop stop-color="#C11212"/>
<stop offset="0.23403" stop-color="#C31414"/>
<stop offset="0.31821" stop-color="#CA1B1B"/>
<stop offset="0.37811" stop-color="#D52626"/>
<stop offset="0.4" stop-color="#DC2D2D"/>
<stop offset="0.67908" stop-color="#DA2C2C"/>
<stop offset="0.77958" stop-color="#D32727"/>
<stop offset="0.85122" stop-color="#C81E1E"/>
<stop offset="0.90876" stop-color="#B71111"/>
<stop offset="0.95784" stop-color="#A10101"/>
<stop offset="0.96" stop-color="#A00000"/>
<stop offset="1" stop-color="#DC2D2D"/>
</linearGradient>
<linearGradient id="paint2_linear_201_3" x1="2959.91" y1="1481.7" x2="7259.87" y2="1481.7" gradientUnits="userSpaceOnUse">
<stop stop-color="#C11212"/>
<stop offset="0.23403" stop-color="#C31414"/>
<stop offset="0.31821" stop-color="#CA1B1B"/>
<stop offset="0.37811" stop-color="#D52626"/>
<stop offset="0.4" stop-color="#DC2D2D"/>
<stop offset="0.67908" stop-color="#DA2C2C"/>
<stop offset="0.77958" stop-color="#D32727"/>
<stop offset="0.85122" stop-color="#C81E1E"/>
<stop offset="0.90876" stop-color="#B71111"/>
<stop offset="0.95784" stop-color="#A10101"/>
<stop offset="0.96" stop-color="#A00000"/>
<stop offset="1" stop-color="#DC2D2D"/>
</linearGradient>
<linearGradient id="paint3_linear_201_3" x1="297.147" y1="263.319" x2="432.403" y2="263.319" gradientUnits="userSpaceOnUse">
<stop stop-color="#DC2D2D"/>
<stop offset="0.46347" stop-color="#DA2C2C"/>
<stop offset="0.63038" stop-color="#D32727"/>
<stop offset="0.74935" stop-color="#C81E1E"/>
<stop offset="0.84491" stop-color="#B71111"/>
<stop offset="0.92642" stop-color="#A10101"/>
<stop offset="0.93" stop-color="#A00000"/>
<stop offset="1" stop-color="#DC2D2D"/>
</linearGradient>
<linearGradient id="paint4_linear_201_3" x1="2809.04" y1="850.348" x2="3952.41" y2="850.348" gradientUnits="userSpaceOnUse">
<stop stop-color="#DC2D2D"/>
<stop offset="0.46347" stop-color="#DA2C2C"/>
<stop offset="0.63038" stop-color="#D32727"/>
<stop offset="0.74935" stop-color="#C81E1E"/>
<stop offset="0.84491" stop-color="#B71111"/>
<stop offset="0.92642" stop-color="#A10101"/>
<stop offset="0.93" stop-color="#A00000"/>
<stop offset="1" stop-color="#DC2D2D"/>
</linearGradient>
<linearGradient id="paint5_linear_201_3" x1="2809.1" y1="691.851" x2="3952.56" y2="691.851" gradientUnits="userSpaceOnUse">
<stop stop-color="#DC2D2D"/>
<stop offset="0.46347" stop-color="#DA2C2C"/>
<stop offset="0.63038" stop-color="#D32727"/>
<stop offset="0.74935" stop-color="#C81E1E"/>
<stop offset="0.84491" stop-color="#B71111"/>
<stop offset="0.92642" stop-color="#A10101"/>
<stop offset="0.93" stop-color="#A00000"/>
<stop offset="1" stop-color="#DC2D2D"/>
</linearGradient>
<linearGradient id="paint6_linear_201_3" x1="2809.71" y1="938.256" x2="3954.18" y2="938.256" gradientUnits="userSpaceOnUse">
<stop stop-color="#DC2D2D"/>
<stop offset="0.46347" stop-color="#DA2C2C"/>
<stop offset="0.63038" stop-color="#D32727"/>
<stop offset="0.74935" stop-color="#C81E1E"/>
<stop offset="0.84491" stop-color="#B71111"/>
<stop offset="0.92642" stop-color="#A10101"/>
<stop offset="0.93" stop-color="#A00000"/>
<stop offset="1" stop-color="#DC2D2D"/>
</linearGradient>
<linearGradient id="paint7_linear_201_3" x1="170.183" y1="389.551" x2="432.408" y2="389.551" gradientUnits="userSpaceOnUse">
<stop stop-color="#E0E0E0"/>
<stop offset="0.23403" stop-color="#E2E2E2"/>
<stop offset="0.31821" stop-color="#E9E9E9"/>
<stop offset="0.37811" stop-color="#F4F4F4"/>
<stop offset="0.4" stop-color="#FBFBFB"/>
<stop offset="0.68196" stop-color="#F9F9F9"/>
<stop offset="0.78351" stop-color="#F2F2F2"/>
<stop offset="0.85591" stop-color="#E7E7E7"/>
<stop offset="0.914" stop-color="#D6D6D6"/>
<stop offset="0.96" stop-color="#C2C2C2"/>
<stop offset="1" stop-color="#FCFCFC"/>
</linearGradient>
<linearGradient id="paint8_linear_201_3" x1="2958.04" y1="1290.79" x2="7261.41" y2="1290.79" gradientUnits="userSpaceOnUse">
<stop stop-color="#E0E0E0"/>
<stop offset="0.23403" stop-color="#E2E2E2"/>
<stop offset="0.31821" stop-color="#E9E9E9"/>
<stop offset="0.37811" stop-color="#F4F4F4"/>
<stop offset="0.4" stop-color="#FBFBFB"/>
<stop offset="0.68196" stop-color="#F9F9F9"/>
<stop offset="0.78351" stop-color="#F2F2F2"/>
<stop offset="0.85591" stop-color="#E7E7E7"/>
<stop offset="0.914" stop-color="#D6D6D6"/>
<stop offset="0.96" stop-color="#C2C2C2"/>
<stop offset="1" stop-color="#FCFCFC"/>
</linearGradient>
<linearGradient id="paint9_linear_201_3" x1="2958.04" y1="1191.46" x2="7261.42" y2="1191.46" gradientUnits="userSpaceOnUse">
<stop stop-color="#E0E0E0"/>
<stop offset="0.23403" stop-color="#E2E2E2"/>
<stop offset="0.31821" stop-color="#E9E9E9"/>
<stop offset="0.37811" stop-color="#F4F4F4"/>
<stop offset="0.4" stop-color="#FBFBFB"/>
<stop offset="0.68196" stop-color="#F9F9F9"/>
<stop offset="0.78351" stop-color="#F2F2F2"/>
<stop offset="0.85591" stop-color="#E7E7E7"/>
<stop offset="0.914" stop-color="#D6D6D6"/>
<stop offset="0.96" stop-color="#C2C2C2"/>
<stop offset="1" stop-color="#FCFCFC"/>
</linearGradient>
<linearGradient id="paint10_linear_201_3" x1="297.079" y1="276.899" x2="432.403" y2="276.899" gradientUnits="userSpaceOnUse">
<stop stop-color="white"/>
<stop offset="0.46192" stop-color="#FDFDFD"/>
<stop offset="0.62829" stop-color="#F6F6F6"/>
<stop offset="0.74687" stop-color="#EBEBEB"/>
<stop offset="0.84208" stop-color="#DADADA"/>
<stop offset="0.92334" stop-color="#C4C4C4"/>
<stop offset="0.93" stop-color="#C2C2C2"/>
<stop offset="1" stop-color="#FCFCFC"/>
</linearGradient>
<linearGradient id="paint11_linear_201_3" x1="2809.94" y1="888.006" x2="3954.82" y2="888.006" gradientUnits="userSpaceOnUse">
<stop stop-color="white"/>
<stop offset="0.46192" stop-color="#FDFDFD"/>
<stop offset="0.62829" stop-color="#F6F6F6"/>
<stop offset="0.74687" stop-color="#EBEBEB"/>
<stop offset="0.84208" stop-color="#DADADA"/>
<stop offset="0.92334" stop-color="#C4C4C4"/>
<stop offset="0.93" stop-color="#C2C2C2"/>
<stop offset="1" stop-color="#FCFCFC"/>
</linearGradient>
<linearGradient id="paint12_linear_201_3" x1="2809.83" y1="733.61" x2="3954.61" y2="733.61" gradientUnits="userSpaceOnUse">
<stop stop-color="white"/>
<stop offset="0.46192" stop-color="#FDFDFD"/>
<stop offset="0.62829" stop-color="#F6F6F6"/>
<stop offset="0.74687" stop-color="#EBEBEB"/>
<stop offset="0.84208" stop-color="#DADADA"/>
<stop offset="0.92334" stop-color="#C4C4C4"/>
<stop offset="0.93" stop-color="#C2C2C2"/>
<stop offset="1" stop-color="#FCFCFC"/>
</linearGradient>
</defs>
</svg>
