<svg id="Layer_1" data-name="Layer 1" xmlns="http://www.w3.org/2000/svg" xmlns:xlink="http://www.w3.org/1999/xlink" viewBox="0 0 512 512"><defs><style>.cls-1{fill:url(#linear-gradient);}.cls-2{fill:#fff;opacity:0.1;isolation:isolate;}</style><linearGradient id="linear-gradient" y1="1532" x2="512" y2="1532" gradientTransform="matrix(1, 0, 0, -1, 0, 1788)" gradientUnits="userSpaceOnUse"><stop offset="0" stop-color="#9d4abe"/><stop offset="0.03" stop-color="#9055c4"/><stop offset="0.15" stop-color="#6b74d6"/><stop offset="0.26" stop-color="#4c8fe5"/><stop offset="0.39" stop-color="#34a3f0"/><stop offset="0.52" stop-color="#22b2f9"/><stop offset="0.66" stop-color="#18bafd"/><stop offset="0.83" stop-color="#15bdff"/><stop offset="1" stop-color="#28bad5"/></linearGradient></defs><g id="Layer_2" data-name="Layer 2"><g id="Layer_1-2" data-name="Layer 1-2"><path class="cls-1" d="M220.1,475.9l-219-446A10.82,10.82,0,0,1,10.8,14.34H86.68a10.88,10.88,0,0,1,9.67,5.87L256.27,343.78c14.26,29,55.5,29,69.76,0L485.44,20.46a10.89,10.89,0,0,1,9.68-5.86h9.42a7.36,7.36,0,0,1,6.63,10.7L289.89,475.9c-14.26,29-55.53,29-69.79,0Z"/><path class="cls-2" d="M220.1,475.9,96.35,20.46a10.53,10.53,0,0,0-9.16-5.86H11.06A10.85,10.85,0,0,0,1.12,30.14Z"/><path class="cls-2" d="M256.27,344,1.12,29.88c-3-7.37,1.54-14.77,8.66-15.54H86.93a11.44,11.44,0,0,1,9.17,5.87Z"/></g></g></svg>