<svg id="b0e2397b-cbaf-4dc9-b815-a7cb0ea33089" data-name="Layer 1" xmlns="http://www.w3.org/2000/svg" viewBox="0 0 512 512"><defs><style>.e6f2c172-7d86-45f1-9a28-8c7e2b6246b1{fill:#5a5564;}.b36e58b0-b341-4a9a-9ef2-eac3159b7f73{fill:#f09242;}.b245a5d8-4d92-4bb9-ab6b-a0144ff039b6{fill:#282138;}</style></defs><g id="be317447-b7f2-448f-94f7-d70b189c0773" data-name="Layer 2"><g id="fd062903-8818-4457-a21b-c9f97a83a0ef" data-name="Layer 1-2"><g id="e88a353c-7ef0-49a3-b8a0-241da78fdbac" data-name="Page-1"><g id="fcc83261-6b1e-4595-a02a-4a861ea46f02" data-name="wbtc colour"><path id="f86cc031-9ee5-421a-9309-c93568a43b24" data-name="Shape" class="e6f2c172-7d86-45f1-9a28-8c7e2b6246b1" d="M417.48,107.45l-14.06,14.06a199,199,0,0,1,0,268.61l14.06,14.05a219.11,219.11,0,0,0,0-297Z"/><path id="aebc642f-0533-4310-a990-842df1b249d9" data-name="Shape-2" class="e6f2c172-7d86-45f1-9a28-8c7e2b6246b1" d="M121.84,108.67a199,199,0,0,1,268.6,0L404.5,94.61a219.11,219.11,0,0,0-297,0Z"/><path id="ae4d6afa-8afe-4907-b433-35a5c6a9c863" data-name="Shape-3" class="e6f2c172-7d86-45f1-9a28-8c7e2b6246b1" d="M108.67,390.26a199,199,0,0,1,0-268.47L94.61,107.73a219.11,219.11,0,0,0,0,297Z"/><path id="a700dcbd-16eb-4be9-b9d0-7db00f77c5ce" data-name="Shape-4" class="e6f2c172-7d86-45f1-9a28-8c7e2b6246b1" d="M390.26,403.24a199,199,0,0,1-268.61,0l-14.06,14.05a219.11,219.11,0,0,0,297,0Z"/><path id="e1f1fe3e-fe5f-43ca-87dc-2a465f3e058c" data-name="Shape-5" class="b36e58b0-b341-4a9a-9ef2-eac3159b7f73" d="M344.75,209.09c-2.81-29.33-28.11-39.17-60.12-42.17v-40.4H259.89v39.65H240.11V126.52H215.56V167.2H165.37v26.48s18.28-.33,18,0a12.78,12.78,0,0,1,14,10.87V315.89a8.81,8.81,0,0,1-9.37,8.2c.33.28-18,0-18,0l-4.69,29.57h49.72V395h24.74V354.27h19.78V394.8H284.4V353.94c41.8-2.53,70.94-12.84,74.6-52,2.95-31.49-11.86-45.55-35.52-51.22C337.87,243.68,346.77,230.55,344.75,209.09Zm-34.67,88c0,30.74-52.67,27.22-69.45,27.22V269.78C257.41,269.82,310.08,265,310.08,297.1ZM298.6,220.25c0,28.11-44,24.69-57.92,24.69V195.36C254.64,195.36,298.6,191,298.6,220.25Z"/><path id="a6cec2d4-e103-4c82-8f80-4351da9e2118" data-name="Shape-6" class="b245a5d8-4d92-4bb9-ab6b-a0144ff039b6" d="M256,512C114.57,512,0,397.34,0,256S114.66,0,256.05,0,512,114.6,512,256,397.43,512,256.05,512Zm0-492c-130.28.11-235.81,105.8-235.71,236.09S126.05,491.86,256.33,491.76,492,386.13,492,256,386.52,20,256.23,20Z"/></g></g></g></g></svg>