<svg xmlns="http://www.w3.org/2000/svg" viewBox="0 0 78.21 51.04"><defs><style>.cls-1{fill:#fff;}.cls-2{fill:#fbc506;}</style></defs><g id="Layer_2" data-name="Layer 2"><g id="Layer_1-2" data-name="Layer 1"><path class="cls-1" d="M60.72,0h0a1.32,1.32,0,0,0-.58.15h0S57,2,55.65,2.68c-1.11.61-1.17,1.33-1.17,1.58s.09,1,1.17,1.58c1.33.73,4.49,2.54,4.49,2.54h0a1.11,1.11,0,0,0,.58.15,1.15,1.15,0,0,0,.81-.34,1.12,1.12,0,0,0,.33-.81,1.45,1.45,0,0,0-.14-.58,1.4,1.4,0,0,0-.42-.42h0L57.43,4.26,61.3,2.14h0a1.37,1.37,0,0,0,.42-.41,1.17,1.17,0,0,0,.14-.59A1.13,1.13,0,0,0,60.72,0ZM34.35.6a4.37,4.37,0,0,0-1.52.29,4.06,4.06,0,0,0-1.28.86A3.7,3.7,0,0,0,30.69,3a3.69,3.69,0,0,0-.29,1.51,4.37,4.37,0,0,0,.29,1.52,4.35,4.35,0,0,0,.86,1.29,3.59,3.59,0,0,0,1.28.85,3.78,3.78,0,0,0,1.52.3,4.16,4.16,0,0,0,1.52-.3,4.32,4.32,0,0,0,1.29-.85A3.5,3.5,0,0,0,38,6.07a3.77,3.77,0,0,0,.29-1.52A3.94,3.94,0,0,0,34.35.6ZM75,13.81a3.14,3.14,0,0,0-2.54,1.27h0l-6.28,8.83h0a3.15,3.15,0,0,0,0,3.75h0l6.28,8.83h0A3.14,3.14,0,0,0,75,37.76a2.9,2.9,0,0,0,1.2-.25,3.29,3.29,0,0,0,1-.68,3.37,3.37,0,0,0,.69-1,3,3,0,0,0,.25-1.21,3.28,3.28,0,0,0-.58-1.83h0l-5-7,5-7h0A3.23,3.23,0,0,0,78.21,17,3,3,0,0,0,78,15.74a3.63,3.63,0,0,0-.69-1,3.08,3.08,0,0,0-1-.68,3.69,3.69,0,0,0-1.2-.21ZM30.21,42.61a1.64,1.64,0,0,0-1.6,1.66,1.67,1.67,0,0,0,.9,1.5C38.74,51.57,46.85,51,46.85,51s8.11.52,17.34-5.26a1.69,1.69,0,0,0,.9-1.5,1.63,1.63,0,0,0-1.6-1.66,1.52,1.52,0,0,0-.94.31L62.4,43a29.13,29.13,0,0,1-15.57,4.72A29.18,29.18,0,0,1,31.25,43l-.14-.08A1.44,1.44,0,0,0,30.21,42.61Z"/><path class="cls-2" d="M51.88,13.66c-.29,0-.58,0-.87,0l-.48.07a4.37,4.37,0,0,0-.54.08,3.48,3.48,0,0,0-.44.1L49,14.1l-.39.12c-.19.07-.4.13-.59.21a2.26,2.26,0,0,0-.35.17c-.19.08-.37.19-.56.27l-.33.19a4.73,4.73,0,0,0-.56.35,1.82,1.82,0,0,0-.3.21c-.18.12-.37.27-.54.41a2.52,2.52,0,0,1-.25.21c-.18.15-.35.31-.52.48l-.2.21a6,6,0,0,0-.48.54,1.24,1.24,0,0,0-.17.23c-.14.18-.29.39-.43.6a1.82,1.82,0,0,0-.15.23,5.32,5.32,0,0,0-.37.66,1,1,0,0,0-.11.23,7.6,7.6,0,0,0-.31.71c0,.08-.06.14-.08.23l-.25.75c0,.08,0,.14-.07.23s-.12.52-.16.76c0,.09,0,.15,0,.23a7.14,7.14,0,0,0-.11.79,4.26,4.26,0,0,0,0,.5h0V24h0V34.71h0a3.08,3.08,0,0,0,5.24,2.16,3.06,3.06,0,0,0,.92-2.16h0V23.62a4.14,4.14,0,0,1,1-2.41A4.21,4.21,0,0,1,51,19.88h0a1.65,1.65,0,0,1,.31,0l.11,0,.25,0h.37a.9.9,0,0,1,.23,0l.12,0,.29,0h0a1.79,1.79,0,0,1,.35.1,4,4,0,0,1,2,1.38,4.07,4.07,0,0,1,.85,2.26V34.71h0a3.07,3.07,0,0,0,3.08,3,3,3,0,0,0,2.16-.89,3.05,3.05,0,0,0,.91-2.16h0V24h0v-.36h0c0-.16,0-.33,0-.5s-.06-.54-.1-.79a1,1,0,0,0,0-.23c0-.27-.11-.52-.17-.76s0-.15-.06-.23c-.09-.25-.15-.5-.25-.75,0-.09-.06-.15-.08-.23-.11-.25-.21-.48-.32-.71s-.06-.14-.1-.23-.25-.45-.38-.66a1.09,1.09,0,0,0-.14-.23c-.15-.21-.29-.42-.44-.6a2.44,2.44,0,0,1-.16-.23,6.35,6.35,0,0,0-.48-.54.84.84,0,0,0-.21-.21,5.91,5.91,0,0,0-.52-.48L58.37,16c-.19-.14-.35-.29-.54-.41l-.27-.21c-.19-.13-.37-.23-.56-.35l-.31-.19a4,4,0,0,0-.59-.27c-.12-.06-.25-.11-.35-.17s-.37-.14-.58-.21l-.4-.12a5.12,5.12,0,0,0-.56-.15l-.43-.1c-.19,0-.38-.06-.55-.08l-.47-.07-.88,0ZM3.1,13.87A3.12,3.12,0,0,0,0,17a2.58,2.58,0,0,0,.08.68h0L4.47,35.54h0a3.22,3.22,0,0,0,1.1,1.64,3.08,3.08,0,0,0,1.87.65,3,3,0,0,0,1.83-.61,3.23,3.23,0,0,0,1.13-1.56v0l3.26-9.33,3.27,9.33v0a3,3,0,0,0,1.12,1.56,3,3,0,0,0,3.7,0,3,3,0,0,0,1.1-1.64h0l4.39-17.89h0a3.83,3.83,0,0,0,.08-.68,3.1,3.1,0,0,0-.91-2.18,3,3,0,0,0-4.18-.17,3,3,0,0,0-1,1.87h0l-1.81,7.38-2.79-7.94h0v0a.94.94,0,0,0-.1-.23s0,0,0-.06a.84.84,0,0,0-.13-.21s0,0,0-.06a1,1,0,0,0-.14-.21l0-.06c0-.07-.11-.13-.15-.19s0,0,0-.06l-.17-.17-.06-.06c-.06,0-.12-.11-.17-.15l-.06-.06-.19-.12a.12.12,0,0,0-.08,0l-.19-.1s-.06,0-.1,0L14.74,14l-.1,0a.65.65,0,0,0-.19,0,.25.25,0,0,0-.12,0l-.19,0-.12,0a.47.47,0,0,1-.17,0h-.38a.44.44,0,0,0-.16,0l-.15,0-.16,0a.33.33,0,0,0-.13,0,.58.58,0,0,1-.19,0s-.08,0-.1,0l-.19.06-.1,0a.87.87,0,0,0-.19.1l-.08.07a1.25,1.25,0,0,0-.17.12l-.06.06a.8.8,0,0,0-.17.15l-.06.06a1.33,1.33,0,0,0-.16.17s-.05,0-.05.06a.85.85,0,0,0-.14.19s0,0,0,.06a1.28,1.28,0,0,0-.13.21s0,0,0,.06l-.12.21s0,0,0,.06-.06.15-.1.23v0h0L7.94,23.89,6.13,16.51h0a3.06,3.06,0,0,0-1-1.87,2.94,2.94,0,0,0-2-.77Zm31.38,0a3.07,3.07,0,0,0-3.08,3h0v18h0a3,3,0,0,0,1,2,3.08,3.08,0,0,0,2.1.83,3,3,0,0,0,2.1-.83,3.16,3.16,0,0,0,1-2h0v-18h0a3.06,3.06,0,0,0-3.1-3Z"/></g></g></svg>