<svg id="Layer_1" data-name="Layer 1" xmlns="http://www.w3.org/2000/svg" viewBox="0 0 512 512"><defs><style>.cls-1{fill:#f7a800;}.cls-2{fill:#67b2e8;}.cls-3{fill:#00c4b3;}</style></defs><path d="M256.13,511.55l-2.93-1.46C138.83,443.13,52.32,332.67,17.13,200.7A505.23,505.23,0,0,1,4.42,137.16a577.61,577.61,0,0,1-4.4-65C0,68.49-.46,69,3,67.27a509.87,509.87,0,0,1,190.37-63,549.27,549.27,0,0,1,75-3.67c14.18.25,28.11,1.23,42,2.69A513.09,513.09,0,0,1,507.85,66.29c1,.49,1.71,1,2.68,1.47A2.45,2.45,0,0,1,512,70.2v3.67c-.24,12.7-.73,25.17-1.71,37.88A499.87,499.87,0,0,1,503,165.51a498.07,498.07,0,0,1-34.7,110.7A506.13,506.13,0,0,1,365.13,427a508.66,508.66,0,0,1-104.84,81.86c-1.47,1-2.69,1.71-4.16,2.69ZM23.48,84.62v2.93a433.93,433.93,0,0,0,3.43,53.52,456.32,456.32,0,0,0,8.3,47.9A52.57,52.57,0,0,0,37.9,197a108.9,108.9,0,0,0,123.17,60.12c38.37-8.8,69.65-38.37,80.16-76.24,2.93-10.51,3.91-21.27,4.4-32a154.82,154.82,0,0,1,2.2-21.26,129.08,129.08,0,0,1,77.22-95.31c2.2-1,4.64-1.71,6.84-2.69.25-.24.74-.24.74-.73-6.36-2.2-44.24-6.11-67-6.6A459.63,459.63,0,0,0,122.21,41.85,466.39,466.39,0,0,0,23.48,84.62ZM383.94,377.39a7.65,7.65,0,0,0,2.45-2.45c9.77-12.22,19.06-24.92,27.61-38.12A462.31,462.31,0,0,0,478,183.1a445.85,445.85,0,0,0,8.55-56.69c1.23-13,1.72-25.91,1.72-39.1a9.82,9.82,0,0,0-.25-2.69l-3.66-2.2c-10-5.62-20.29-11-30.55-15.88A395.57,395.57,0,0,0,407.65,48a105.55,105.55,0,0,0-58.41-2c-56,13.44-91.88,68.42-81.13,124.88,5.86,31.28,22.73,55.71,49.61,72.82,1.71,1.22,3.66,2.2,5.37,3.42a126.15,126.15,0,0,1,46.19,48.63,123.93,123.93,0,0,1,15.4,68.43,83.18,83.18,0,0,1-.74,13.2ZM256.13,486.62a21.79,21.79,0,0,0,3.18-1.95,472.77,472.77,0,0,0,85.05-64,16.91,16.91,0,0,0,3.91-5.37c1.71-3.18,3.42-6.6,4.88-9.78,12.22-25.41,14.91-51.81,6.85-79.18a108.69,108.69,0,0,0-117.8-76.73,104.93,104.93,0,0,0-40.81,13.68,129.3,129.3,0,0,1-77.95,16.62,126.71,126.71,0,0,1-39.1-10.26A128.9,128.9,0,0,1,57,253.24a14.9,14.9,0,0,0-2.44-1.46,10.41,10.41,0,0,0,.73,2.44,475.17,475.17,0,0,0,40.33,79.42A463.77,463.77,0,0,0,229,470.25c12.22,7.82,23.7,14.91,27.12,16.37Z"/><path class="cls-1" d="M23.48,84.62A456.31,456.31,0,0,1,122,42.1,467.42,467.42,0,0,1,265.42,22.55c22.73.49,60.61,4.15,67,6.6.25.48-.24.73-.73.73-2.2,1-4.65,1.71-6.85,2.69a129.08,129.08,0,0,0-77.22,95.31,157.84,157.84,0,0,0-2.2,21.26c-.24,10.75-1.22,21.5-4.4,32A108.81,108.81,0,0,1,37.66,197.28,34.94,34.94,0,0,1,35,189.21a456.17,456.17,0,0,1-8.31-47.89A437.07,437.07,0,0,1,23.24,87.8a14.25,14.25,0,0,0,.24-3.18Z"/><path class="cls-2" d="M383.94,377.39c.49-4.65,1-8.8,1.23-13.2a129,129,0,0,0-61.59-117.06c-1.71-1.22-3.66-2.2-5.37-3.42-27.13-17.11-43.75-41.3-49.61-72.82A108.59,108.59,0,0,1,408.14,48c15.88,4.89,31,11.49,46.19,18.58,10.5,4.88,20.52,10.26,30.54,15.88,1.23.73,2.2,1.22,3.67,2.2,0,1,.24,1.71.24,2.69,0,13-.73,26.15-1.71,39.1a487.69,487.69,0,0,1-8.55,56.69,457.37,457.37,0,0,1-64,153.72c-8.55,13.2-17.84,25.9-27.61,38.12C385.9,375.68,385.41,376.65,383.94,377.39Z"/><path class="cls-3" d="M256.13,486.62c-3.66-1.46-14.9-8.3-26.88-16.37a466.49,466.49,0,0,1-73.8-61.34,453.8,453.8,0,0,1-59.63-75.27A440.77,440.77,0,0,1,55.5,254.22a14.17,14.17,0,0,1-.73-2.44c1.22.73,1.71,1,2.44,1.46a125,125,0,0,0,27.37,16.38,126.79,126.79,0,0,0,39.1,10.26c27.62,2.69,53.52-2.93,78-16.62a115,115,0,0,1,40.81-13.68,108.68,108.68,0,0,1,117.79,76.73c8.06,27.13,5.62,53.52-6.84,79.18-1.71,3.42-3.18,6.6-4.89,9.78a16.91,16.91,0,0,1-3.91,5.37,472.35,472.35,0,0,1-85,64c-1.23.73-2.45,1.47-3.43,1.95Z"/></svg>