<svg width="101" height="101" viewBox="0 0 101 101" fill="none" xmlns="http://www.w3.org/2000/svg">
<circle cx="50.875" cy="50.9177" r="50" fill="white"/>
<path d="M72.1268 32.461L64.9961 36.0864L30.5627 53.5884C30.4462 52.7022 30.3876 51.8093 30.3873 50.9156C30.392 47.3494 31.3302 43.8463 33.1091 40.7534C34.8879 37.6604 37.4457 35.0848 40.5289 33.2818C43.6122 31.4788 47.114 30.5108 50.6874 30.4739C54.2609 30.4369 57.782 31.3322 60.9021 33.0711L64.9836 30.9959L65.5924 30.6858C61.8535 27.9778 57.4371 26.354 52.8312 25.9941C48.2253 25.6341 43.6094 26.552 39.4936 28.6462C35.3778 30.7404 31.9224 33.9294 29.5093 37.8608C27.0961 41.7922 25.8192 46.3128 25.8197 50.9231C25.8197 51.5598 25.8439 52.194 25.8924 52.8258C25.9602 53.7204 25.7614 54.6151 25.3209 55.3972C24.8804 56.1793 24.218 56.8139 23.4169 57.2213L21.2646 58.3164V63.4244L27.6011 60.2016L29.6531 59.1565L31.6751 58.1289L67.9752 39.6718L72.0542 37.5991L80.4853 33.3111V28.2056L72.1268 32.461Z" fill="black"/>
<path d="M80.4853 38.4216L33.7372 62.1742L29.6582 64.252L21.2646 68.5199V73.623L29.6005 69.385L36.7313 65.7596L71.1998 48.2327C71.3163 49.1248 71.3749 50.0234 71.3752 50.923C71.373 54.4933 70.435 58.0009 68.6544 61.0977C66.8738 64.1944 64.3125 66.7725 61.2248 68.5761C58.1371 70.3797 54.6304 71.3461 51.0528 71.3792C47.4751 71.4123 43.951 70.5111 40.8303 68.765L40.5797 68.8975L36.155 71.1477C39.893 73.8559 44.3086 75.4801 48.9137 75.8409C53.5189 76.2018 58.1343 75.2851 62.2501 73.1924C66.3659 71.0996 69.8219 67.9121 72.236 63.9821C74.6502 60.0521 75.9287 55.5326 75.9302 50.923C75.9302 50.2804 75.9052 49.6379 75.8576 49.0028C75.7898 48.1085 75.9884 47.2142 76.4284 46.4321C76.8684 45.6501 77.5301 45.0152 78.3305 44.6073L80.4853 43.5122V38.4216Z" fill="black"/>
</svg>
