<svg id="Layer_1" data-name="Layer 1" xmlns="http://www.w3.org/2000/svg" viewBox="0 0 512 512"><defs><style>.cls-1{fill:#fff;}.cls-2{fill:#f26822;}.cls-3{fill:#4d4d4d;}</style></defs><path class="cls-1" d="M512,256c0,141.37-114.59,256-256,256S0,397.34,0,256,114.63,0,256,0,512,114.6,512,256Z"/><path id="_149931032" data-name=" 149931032" class="cls-2" d="M256,0C114.67,0-.13,114.77.05,256a256.63,256.63,0,0,0,13,80.84H89.63V121.48L256,287.84,422.35,121.48V336.81H499A257.2,257.2,0,0,0,512,256C512.19,114.63,397.33,0,256,0Z"/><path id="_149931160" data-name=" 149931160" class="cls-3" d="M217.74,326.08l-72.61-72.6V389H37.25a256,256,0,0,0,437.5,0H366.84V253.48l-72.61,72.6L256,364.33l-38.25-38.25Z"/></svg>