<svg width="101" height="101" viewBox="0 0 101 101" fill="none" xmlns="http://www.w3.org/2000/svg">
<circle cx="50.875" cy="50.4006" r="50" fill="white"/>
<path d="M72.2018 25.4006H80.921L62.7756 43.3817C56.2044 49.8899 45.5506 49.8899 38.9746 43.3817L20.8223 25.4006H29.5485L43.3342 39.0598C45.3428 41.041 48.0497 42.1517 50.8698 42.1517C53.69 42.1517 56.3969 41.041 58.4055 39.0598L72.2018 25.4006Z" fill="#23292F"/>
<path d="M29.4365 75.4007H20.7114L38.9746 57.3088C45.5458 50.8006 56.1997 50.8006 62.7756 57.3088L81.0387 75.4007H72.3195L58.416 61.6307C56.4074 59.6495 53.7005 58.5388 50.8804 58.5388C48.0602 58.5388 45.3533 59.6495 43.3448 61.6307L29.4365 75.4007Z" fill="#23292F"/>
</svg>
