<svg id="b5d16c36-6378-4f50-a237-a1c9f3751f54" data-name="Layer 1" xmlns="http://www.w3.org/2000/svg" viewBox="0 0 512 512"><defs><style>.bc285843-487d-40fd-a8d6-f379daedca06{fill:#2c7df7;}</style></defs><g id="ecad476e-d437-43c8-a10d-0048b958fb97" data-name="Layer 2"><path class="bc285843-487d-40fd-a8d6-f379daedca06" d="M310.87,512q-54.8,0-80-26.4a81.49,81.49,0,0,1-25.11-56.89,37.64,37.64,0,0,1,4.4-18.8,32.43,32.43,0,0,1,12-12,41.83,41.83,0,0,1,37.36,0,31.91,31.91,0,0,1,11.93,12,36.84,36.84,0,0,1,4.56,18.8,35.87,35.87,0,0,1-6.4,22,29.77,29.77,0,0,1-15.2,11.13,41.53,41.53,0,0,0,24,15,118.74,118.74,0,0,0,32.72,4.72,73,73,0,0,0,41.2-12.32,72.05,72.05,0,0,0,26.88-36.4,158.26,158.26,0,0,0,8.8-54.48,149.57,149.57,0,0,0-9.6-56.64,70,70,0,0,0-27.76-35.2,73.8,73.8,0,0,0-40-11.44A76,76,0,0,0,276,286.8l-25.68,12.88V286.8L365.75,131.94h-160v160.7a57.39,57.39,0,0,0,8.8,32.88,30.33,30.33,0,0,0,26.88,12.88A45,45,0,0,0,268,329a95.88,95.88,0,0,0,22.24-22.88,8,8,0,0,1,2.9-3.84,5.87,5.87,0,0,1,3.85-1.44,13.29,13.29,0,0,1,7.52,3.2A16,16,0,0,1,308.58,315a64.19,64.19,0,0,1-1.44,8A77.46,77.46,0,0,1,279.7,357a68.1,68.1,0,0,1-38.49,11.69q-52,0-72-20.48a76.73,76.73,0,0,1-19.85-56V131.94H68V102.08h81.76V34L131,15.27V0h54.31l20.41,10.56v91.52l211.35-.64,21,21.12L308.55,252.79A86.86,86.86,0,0,1,333,246.87a106,106,0,0,1,47.37,13.52,97.24,97.24,0,0,1,40.8,36.41,128.29,128.29,0,0,1,18.4,43.92,184.41,184.41,0,0,1,4.4,37.6A157.1,157.1,0,0,1,428,448a102.14,102.14,0,0,1-48,48A155.29,155.29,0,0,1,310.87,512Z"/></g></svg>