<svg id="f8babd91-8bc4-48e7-93e9-71f91697932a" data-name="Layer 1" xmlns="http://www.w3.org/2000/svg" xmlns:xlink="http://www.w3.org/1999/xlink" viewBox="0 0 512 512"><defs><style>.ac9ddaa6-b2c3-46f5-af7e-a6473c4b448a{fill:url(#b91b080c-77c4-481b-8480-e18f38c1a725);}.bdc60ad1-1cba-49f2-b768-c7bdf6122ae4{fill:url(#bec8118d-e3f6-4d0c-b666-e8ff1e08f0c7);}.a1d182fb-d27f-4e2c-ab99-46933cf0a939{fill:url(#bc0564f0-d582-4009-a177-b8e029e5a81f);}.f8616e45-342a-4892-9f56-16acac5995b6{fill:#fff;}</style><linearGradient id="b91b080c-77c4-481b-8480-e18f38c1a725" x1="317.42" y1="69.28" x2="142.64" y2="334.78" gradientTransform="matrix(1, 0, 0, -1, 0, 512.72)" gradientUnits="userSpaceOnUse"><stop offset="0" stop-color="#fff"/><stop offset="0.05" stop-color="#fffaff"/><stop offset="0.11" stop-color="#ffeaff"/><stop offset="0.18" stop-color="#ffd0ff"/><stop offset="0.25" stop-color="#ffacff"/><stop offset="0.33" stop-color="#ff7eff"/><stop offset="0.41" stop-color="#ff46ff"/><stop offset="0.49" stop-color="#ff05ff"/><stop offset="0.5" stop-color="#f0f"/></linearGradient><linearGradient id="bec8118d-e3f6-4d0c-b666-e8ff1e08f0c7" x1="3782.73" y1="-985.88" x2="3608.1" y2="-720.61" gradientTransform="matrix(-0.5, -0.87, -0.87, 0.5, 1462.96, 3815.83)" xlink:href="#b91b080c-77c4-481b-8480-e18f38c1a725"/><linearGradient id="bc0564f0-d582-4009-a177-b8e029e5a81f" x1="1182.5" y1="-3303.93" x2="1007.76" y2="-3038.48" gradientTransform="matrix(-0.5, 0.87, 0.87, 0.5, 3480.38, 778.92)" xlink:href="#b91b080c-77c4-481b-8480-e18f38c1a725"/></defs><polygon class="ac9ddaa6-b2c3-46f5-af7e-a6473c4b448a" points="197.23 252.01 197.23 460.96 323.13 462.74 323.13 252.01 256.69 167.16 197.23 252.01"/><polygon class="bdc60ad1-1cba-49f2-b768-c7bdf6122ae4" points="318.86 249.32 499.83 144.87 439.04 31.71 256.75 136.9 216.52 236.88 318.86 249.32"/><polygon class="a1d182fb-d27f-4e2c-ab99-46933cf0a939" points="255.99 142.17 75.07 37.67 7.8 146.76 190.16 252.06 296.92 236.82 255.99 142.17"/><path class="f8616e45-342a-4892-9f56-16acac5995b6" d="M511.15,131.38c-2.81-11.14-8.91-30-21.64-52.07-10.08-17.42-21.46-32-31.67-44.34a14.61,14.61,0,0,0-25.21,4.87c-25.4,79.64-102.22,138.46-175.88,97l-.11,0L75.72,32.39A14.55,14.55,0,0,0,58.24,34.5c-8.27,8-21.52,22.7-34.3,44.81C13.85,96.72,6.93,114,1.36,128.92a14.62,14.62,0,0,0,16.83,19.41c81.69-17.83,171,19.18,171.94,103.68V461a14.64,14.64,0,0,0,10.56,14.08c11.08,3.16,30.44,7.27,55.95,7.27,20.17,0,38.52-2.58,54.24-5.22a14.61,14.61,0,0,0,8.39-24.28c-55.95-61.46-68.67-156.52,2.64-200,.41-.23.82-.49,1.29-.78l.06,0L504.17,147.63A14.64,14.64,0,0,0,511.15,131.38Z"/></svg>