<svg id="adaca95b-b3f6-4afa-8cfa-2dd4ba84d37e" data-name="Layer 1" xmlns="http://www.w3.org/2000/svg" viewBox="0 0 512 512"><defs><style>.b3fdb36b-3119-45fb-8ac1-4703994fec43{fill:#006ae3;fill-rule:evenodd;}.f4fe9e91-32bb-43dc-81af-b710af91ba46{fill:#fff;}</style></defs><g id="f97abd95-9696-45c6-81f3-553c341580a2" data-name="Layer 2"><g id="e645837e-338f-46fe-87e7-5810afbc7383" data-name="Layer 1-2"><path id="f43255ab-b541-4422-82f9-0cf7bc8fa7e4" data-name="SVGID" class="b3fdb36b-3119-45fb-8ac1-4703994fec43" d="M256,0C397.36,0,512,114.64,512,256S397.36,512,256,512,0,397.36,0,256,114.64,0,256,0Z"/><polygon id="bdd4c100-6073-4d4d-9083-142ab2bbb49f" data-name="SVGID-2" class="f4fe9e91-32bb-43dc-81af-b710af91ba46" points="245.45 363.93 245.45 150.94 268.65 150.94 268.65 363.93 245.45 363.93"/><path id="e6e6c5fd-1cdc-457c-aad9-18ac646c56dd" data-name="SVGID-3" class="f4fe9e91-32bb-43dc-81af-b710af91ba46" d="M363.52,221.9l-71.63,19-16-74.35,21.3-4.81L305.61,197s19.36-31.75-6.45-64.62c-15.2-16.89-22.42-17.61-39.47-20.27-15-2.15-49.87,2.92-60.27,43.62-4.4,26.21.57,45.62,34.36,71L231.88,255s-37.73-26.58-47.46-45.21C176.9,195,164,165.89,187.29,125.34c12.54-20.28,37.27-39.73,80.84-37.69,21.92.93,75.42,27.7,67.13,90.27-1.44,11.72-7.53,27.34-7.53,27.34l29.39-6.55Z"/><path id="b18b476d-4700-4a3f-ac55-dda650c5d594" data-name="SVGID-4" class="f4fe9e91-32bb-43dc-81af-b710af91ba46" d="M322.61,388.56c-13.11,19.91-38.35,38.7-81.82,35.53-21.91-1.49-74.65-29.7-64.71-92,1.74-11.67,8.24-27.08,8.24-27.08l-29.54,5.73L149,287.44l72.14-17.1,14,74.75-21.45,4.25-7.48-35.48s-20.17,31.18,4.71,64.76c14.75,17.31,21.92,18.18,39,21.3,14.9,2.56,49.92-1.64,61.39-42,5.06-26.06.61-45.62-32.46-71.94l2.66-28.21s37,27.55,46.23,46.44c7.07,15,19.2,44.49-5.12,84.38Z"/></g></g></svg>