<svg id="Layer_1" data-name="Layer 1" xmlns="http://www.w3.org/2000/svg" xmlns:xlink="http://www.w3.org/1999/xlink" viewBox="0 0 512 512"><defs><style>.cls-1{fill:url(#linear-gradient);}</style><linearGradient id="linear-gradient" x1="790.36" y1="358.7" x2="793.74" y2="358.7" gradientTransform="matrix(86.56, -86.56, -86.56, -86.56, -37250.05, 99863.32)" gradientUnits="userSpaceOnUse"><stop offset="0" stop-color="#cf8724"/><stop offset="1" stop-color="#fdce58"/></linearGradient></defs><g id="Layer_2" data-name="Layer 2"><g id="Layer_1-2" data-name="Layer 1-2"><path class="cls-1" d="M258.67,470.55C142,470.55,46.79,375.23,46.79,258.67S142.11,46.79,258.67,46.79s211.88,95.32,211.88,211.88S375.33,470.55,258.67,470.55Z"/><path d="M256,512C115.2,512,0,396.8,0,256S115.2,0,256,0,512,115.2,512,256,396.8,512,256,512Zm0-455.08C146.52,56.92,56.92,146.52,56.92,256S146.52,455.08,256,455.08,455.08,365.48,455.08,256,365.48,56.92,256,56.92Z"/><path d="M250.07,325.34H361v55.47H295.55v46.93H238.63V382.27H170.36c0-18.53-2.81-36.95,1.46-54,1.45-8.53,11.34-17.06,18.52-25.6,21.33-25.6,42.67-51.2,65.45-76.8,8.54-10,17.07-18.52,27.06-29.86H176.18V140.52h62.55V93.59h55.46v45.47h68.27c0,18.52,2.81,36.95-1.45,54-1.46,8.54-11.35,17.07-18.53,25.6-21.33,25.6-42.66,51.2-65.45,76.8C268.49,305.47,260,315.36,250.07,325.34Z"/></g></g></svg>