<svg id="Layer_1" data-name="Layer 1" xmlns="http://www.w3.org/2000/svg" viewBox="0 0 512 512"><defs><style>.cls-1{fill:#49c1bf;}.cls-2{fill:#077a8f;}.cls-3{fill:#298e97;}</style></defs><path id="path0_fill" data-name="path0 fill" class="cls-1" d="M436.88,211.58l-73.74,32.88L167.53,344l195.61,94.05V282.62l73.74-33.23V479.06l-73.74,32.87-288-137.84V300.82L274.49,203,75.12,107.2V32.88L150,0,436.88,138.08v73.5Z"/><path id="path1_fill" data-name="path1 fill" class="cls-2" d="M75.12,32.88,363.14,171l73.74-32.88L150,0Z"/><path id="path2_fill" data-name="path2 fill" class="cls-3" d="M363.14,170.65l73.74-32.88v73.5l-73.74,32.88v-73.5Z"/><path id="path3_fill" data-name="path3 fill" class="cls-1" d="M75.12,32.94v74.33l199.37,95.81L75.12,300.89v73.26L363.14,512V438.26L167.53,344.09l195.61-99.56V171Z"/><path id="path4_fill" data-name="path4 fill" class="cls-3" d="M363.14,511.45l73.74-32.87V248.91l-73.74,33.23V511.45Z"/></svg>