<svg width="101" height="100" viewBox="0 0 101 100" fill="none" xmlns="http://www.w3.org/2000/svg">
<circle cx="50.4106" cy="50" r="50" fill="white"/>
<path d="M66.7585 60.3792C68.9246 63.2891 71.1584 66.2666 73.3921 69.2441C68.9246 74.5225 63.3741 77.9061 56.6728 79.3272C49.227 80.8836 42.1872 79.7332 35.3506 75.9436C41.4427 71.4096 47.3993 66.9433 53.4237 62.477C54.7775 63.7628 56.0636 65.0485 57.3497 66.2666C58.7712 67.62 58.2297 67.6877 60.0573 66.6726C62.5618 65.2515 64.6602 63.2891 66.2847 60.9206C66.3524 60.7852 66.4878 60.6499 66.5555 60.5145C66.4878 60.5145 66.5555 60.5145 66.7585 60.3792ZM40.1566 66.3343C38.4643 67.62 36.9075 68.7704 35.3506 69.9885C34.1999 70.8683 33.0492 71.6803 31.8984 72.56C31.4246 72.9661 31.0862 72.9661 30.5446 72.4924C25.4002 67.8907 22.1511 62.2063 20.9327 55.4392C19.7143 48.6044 20.7974 42.1079 24.0465 35.9499C24.1141 35.8145 24.2495 35.6115 24.3172 35.4762C24.3172 35.4085 24.3849 35.4085 24.5203 35.3408C28.9878 41.2282 33.523 47.1156 37.9905 53.003C37.8551 53.206 37.7874 53.3414 37.6521 53.4767C36.2983 54.8978 34.9445 56.3189 33.523 57.6723C33.1169 58.0784 33.0492 58.4167 33.3199 58.8904C34.7414 61.5973 36.7044 63.8304 39.1412 65.6576C39.4797 65.8606 39.7504 66.0636 40.1566 66.3343ZM65.4048 24.3104C63.2387 25.8668 61.0726 27.4233 58.9066 28.912C55.1836 31.5512 51.4607 34.2581 47.8055 36.8972C47.3317 37.2356 46.9932 37.3033 46.5871 36.8296C45.3687 35.5438 44.0826 34.3934 42.8641 33.1077C42.5257 32.7693 42.1872 32.7016 41.7134 32.9046C38.8028 34.3934 36.5013 36.4912 34.606 39.1304C34.4706 39.2657 34.3353 39.4688 34.1999 39.6718C33.1169 38.2507 32.1015 36.9649 31.0862 35.6115C30.0031 34.1904 28.9878 32.7693 27.9724 31.4159C27.634 30.9422 27.5663 30.6038 28.0401 30.1301C33.2522 24.3781 39.6827 20.9945 47.3993 20.1824C53.4914 19.5057 59.3127 20.7238 64.7279 23.6337C64.9309 23.769 65.134 23.8367 65.3371 23.972C65.3371 24.175 65.3371 24.2427 65.4048 24.3104ZM76.4382 64.9132C75.0167 63.0861 73.7306 61.3943 72.4445 59.7025C69.4661 55.7775 66.4878 51.7849 63.4418 47.86C63.0356 47.3186 63.0356 46.9803 63.5095 46.5066C64.7956 45.2208 66.014 43.9351 67.3001 42.6493C67.6385 42.311 67.7739 41.9726 67.5031 41.4989C66.014 38.6567 63.9833 36.2882 61.3434 34.3934C61.1403 34.2581 60.9373 34.0551 60.6665 33.9197C60.8696 33.7167 61.0726 33.5814 61.208 33.446C63.7802 31.4835 66.3524 29.5887 68.9246 27.6263C69.3307 27.2879 69.6692 27.1526 70.143 27.6263C76.5735 33.446 80.0257 40.6868 80.3641 49.4164C80.4995 54.4918 79.3488 59.2965 77.0474 63.8304C76.8443 64.1011 76.6412 64.4395 76.4382 64.9132Z" fill="#231815"/>
</svg>
