<svg width="21" height="20" viewBox="0 0 21 20" fill="none" xmlns="http://www.w3.org/2000/svg">
<g clip-path="url(#clip0)">
<path fill-rule="evenodd" clip-rule="evenodd" d="M7.59669 0.381888C9.76742 -0.127296 12.0265 -0.127296 14.1973 0.381887C17.3321 1.11722 19.7798 3.56491 20.5151 6.69972C21.0243 8.87045 21.0243 11.1296 20.5151 13.3003C19.7798 16.4351 17.3321 18.8828 14.1973 19.6181C12.0265 20.1273 9.76742 20.1273 7.5967 19.6181C4.46188 18.8828 2.01419 16.4351 1.27886 13.3003C0.769676 11.1296 0.769676 8.87045 1.27886 6.69972C2.01419 3.5649 4.46188 1.11722 7.59669 0.381888ZM11.5636 7.34084C11.5636 6.97265 11.2651 6.67418 10.8969 6.67418C10.5288 6.67418 10.2303 6.97265 10.2303 7.34084V9.33331H8.23782C7.86963 9.33331 7.57115 9.63178 7.57115 9.99997C7.57115 10.3682 7.86963 10.6666 8.23782 10.6666H10.2303V12.6591C10.2303 13.0273 10.5288 13.3258 10.8969 13.3258C11.2651 13.3258 11.5636 13.0273 11.5636 12.6591V10.6666H13.5561C13.9243 10.6666 14.2227 10.3682 14.2227 9.99997C14.2227 9.63178 13.9243 9.33331 13.5561 9.33331H11.5636V7.34084Z" fill="white"/>
</g>
<defs>
<clipPath id="clip0">
<rect width="20" height="20" fill="white" transform="translate(0.896973)"/>
</clipPath>
</defs>
</svg>
