<svg width="156" height="31" viewBox="0 0 156 31" fill="none" xmlns="http://www.w3.org/2000/svg">
<path d="M14.126 15.3266C14.126 16.1507 14.7698 16.7945 15.5939 16.7945C16.4179 16.7945 17.0617 16.1507 17.0617 15.3266C17.0617 14.5025 16.4179 13.8587 15.5939 13.8587C14.7698 13.8845 14.126 14.5283 14.126 15.3266ZM26.4355 13.8845C25.6114 13.8845 24.9676 14.5283 24.9676 15.3524C24.9676 16.1764 25.6114 16.8202 26.4355 16.8202C27.2596 16.8202 27.9034 16.1764 27.9034 15.3524C27.9034 14.5283 27.2596 13.8845 26.4355 13.8845ZM26.4355 24.9064C25.6114 24.9064 24.9676 25.5502 24.9676 26.3743C24.9676 27.1984 25.6114 27.8422 26.4355 27.8422C27.2596 27.8422 27.9034 27.1984 27.9034 26.3743C27.9034 25.5502 27.2596 24.9064 26.4355 24.9064Z" fill="white" fill-opacity="0.87"/>
<path d="M29.5515 1.75528C28.0836 -0.0731237 25.4569 -0.150377 23.9118 1.29174L23.7315 1.47201L23.371 1.75528C21.9031 2.93988 19.7142 2.83688 18.3493 1.47201V1.369C17.8858 0.905459 17.2677 0.54493 16.6239 0.364665C16.5209 0.364665 16.3406 0.261658 16.2634 0.261658H14.7955C14.6925 0.261658 14.6152 0.261656 14.5122 0.364665H14.332C14.229 0.364665 14.1517 0.467672 14.0487 0.467672C14.0487 0.467672 13.9457 0.467678 13.9457 0.570687C13.8427 0.570687 13.7654 0.673694 13.6624 0.673694C13.6624 0.673694 13.5594 0.673692 13.5594 0.776701C13.4564 0.87971 13.3791 0.879713 13.2761 0.956969C13.2761 0.956969 13.1731 0.956968 13.1731 1.05998C13.0701 1.16299 12.9929 1.16298 12.8899 1.24024L12.7868 1.34325L12.6066 1.52351L12.246 1.80679C10.7782 2.99139 8.58924 2.88838 7.32738 1.52351C7.32738 1.52351 7.22437 1.52351 7.22437 1.42051L7.04411 1.24024C6.50331 0.776698 5.85951 0.416168 5.13845 0.338911H3.49031C3.49031 0.44192 3.3873 0.441923 3.31004 0.519179H3.28429C2.82075 0.699445 2.38297 0.879707 1.99668 1.24024L1.89367 1.34325L1.6104 1.62652C1.24987 1.98705 1.0696 2.45059 0.889339 2.81112C0.889339 2.91413 0.78633 2.99139 0.78633 3.0944C0.78633 3.19741 0.683322 3.27466 0.683322 3.45493C0.580313 4.09873 0.580313 4.74253 0.78633 5.36058C0.78633 5.46359 0.889339 5.54085 0.889339 5.64386V5.74687C0.889339 5.84988 0.992348 5.92713 0.992348 6.03014C1.09536 6.13315 1.09536 6.21041 1.17261 6.39067C1.35288 6.49368 1.53314 6.67395 1.63615 6.75121L1.81642 6.93147L1.99668 7.11174C3.36155 8.4766 3.36155 10.8458 1.89367 12.3137C1.71341 12.4939 1.43013 12.7772 1.35288 12.9575C1.24987 13.0605 1.24987 13.1377 1.17261 13.318V13.421C1.0696 13.524 1.0696 13.6013 0.992348 13.7043V13.8073C0.992348 13.9103 0.889339 13.9876 0.889339 14.0906V14.1936C0.889339 14.2966 0.889339 14.3739 0.78633 14.4769V15.8417C0.78633 15.9447 0.786331 16.022 0.889339 16.125V16.228C1.0696 16.8718 1.43013 17.5156 1.97093 18.0564C3.4388 19.5243 3.4388 21.8935 1.97093 23.3356L1.86792 23.4386L1.68766 23.6189V23.7219C1.58465 23.8249 1.50739 23.9022 1.50739 24.0052C1.50739 24.0052 1.50739 24.1082 1.40438 24.1082C1.30137 24.2112 1.30137 24.2884 1.22412 24.3914L1.12111 24.4945C1.12111 24.5975 1.0181 24.5975 1.0181 24.6747C1.0181 24.752 0.915091 24.7777 0.915091 24.855C0.915091 24.958 0.915091 24.958 0.812083 25.0352C0.631817 25.3958 0.528809 25.8593 0.528809 26.2198V26.9409C0.631817 27.2242 0.631817 27.4817 0.812083 27.662C0.812083 27.765 0.915091 27.8422 0.915091 27.8422C0.915091 27.8422 0.915092 27.9452 1.0181 27.9452C1.0181 28.0483 1.12111 28.1255 1.12111 28.2285C1.12111 28.2285 1.12111 28.3315 1.22412 28.3315C1.32713 28.5118 1.40438 28.6148 1.50739 28.6921C1.50739 28.6921 1.50739 28.7951 1.6104 28.7951C1.6104 28.7951 1.6104 28.8981 1.71341 28.8981C1.71341 29.0011 1.81642 29.0011 1.81642 29.0011L1.91943 29.1041C2.02244 29.2071 2.09969 29.2071 2.09969 29.2844L2.2027 29.3874C2.2027 29.3874 2.30571 29.3874 2.30571 29.4904C2.40872 29.5934 2.48597 29.6706 2.58898 29.6706C2.58898 29.6706 2.69199 29.6706 2.69199 29.7736C2.795 29.8767 2.87226 29.8767 2.97527 29.9539H3.02677C3.12978 30.0569 3.20703 30.0569 3.3873 30.0569C3.49031 30.0569 3.67057 30.1599 3.74783 30.1599H3.85084C3.95385 30.1599 4.0311 30.1599 4.13411 30.2629H4.95818C5.24146 30.2629 5.42172 30.1599 5.67924 30.1599H5.78225C5.88526 30.1599 5.96252 30.0569 6.06553 30.0569H6.11703C6.22004 30.0569 6.29729 29.9539 6.4003 29.9539H6.50331C6.68358 29.8509 6.96685 29.6706 7.14712 29.5934L7.43039 29.3101L7.5334 29.2071C9.00127 27.662 11.3705 27.662 12.8126 29.2071C14.4607 30.9325 17.1905 30.8552 18.7356 28.9238C19.8172 27.559 19.8172 25.5503 18.7356 24.0824C17.2677 22.254 14.641 22.1768 13.0959 23.6189L12.9156 23.7991L12.5551 24.0824C11.0872 25.267 8.89826 25.164 7.5334 23.7991L7.35313 23.6189L7.06986 23.2583C5.88526 21.7905 5.98827 19.6015 7.35313 18.2367C8.1772 17.5156 8.53773 16.5113 8.53773 15.5069V15.2237C8.53773 14.3223 8.1772 13.3953 7.45614 12.7515C7.45614 12.6485 7.35313 12.6484 7.35313 12.5712L7.06986 12.2107C5.88526 10.7428 5.98827 8.55386 7.35313 7.18899L7.45614 7.08598L7.55915 6.98298C9.02702 5.43785 11.3962 5.43785 12.8383 6.98298L12.9414 7.08598L13.0444 7.18899L13.2246 7.36926C13.3276 7.36926 13.3276 7.47227 13.4049 7.47227C13.4822 7.47227 13.5079 7.57527 13.5852 7.57527C13.6624 7.57527 13.6882 7.67828 13.7654 7.67828C13.8427 7.67828 13.8684 7.78129 13.9457 7.78129C14.0229 7.78129 14.0487 7.8843 14.126 7.8843C14.2032 7.8843 14.229 7.98731 14.3062 7.98731C14.3835 7.98731 14.4092 7.98731 14.4865 8.09032C14.5895 8.09032 14.5895 8.09031 14.6667 8.19332H16.2119C16.3149 8.19332 16.3921 8.19332 16.4952 8.09032H16.6754C16.7784 8.09032 16.8557 7.98731 16.9587 7.98731H17.0617C17.1647 7.98731 17.242 7.8843 17.4222 7.80704C17.7828 7.62678 18.1433 7.3435 18.4266 7.08598L18.5296 6.98298C19.9974 5.43785 22.3666 5.43785 23.8088 6.98298C25.3539 8.81138 28.1866 8.70837 29.6545 6.80271C30.6331 5.12882 30.6331 3.12015 29.5515 1.75528Z" fill="white" fill-opacity="0.87"/>
<path d="M50.3337 13.0604C49.7929 12.5196 49.3294 12.159 48.6855 11.8758C48.1448 11.5925 47.5009 11.4122 46.6769 11.4122C45.9558 11.4122 45.209 11.5925 44.6682 11.8758C44.1274 12.159 43.6639 12.5196 43.3033 13.0604C42.9428 13.5239 42.6595 14.0647 42.4793 14.7085C42.299 15.3523 42.196 15.9961 42.196 16.6142C42.196 17.2322 42.299 17.9018 42.5565 18.5198C42.7368 19.1636 43.0973 19.6014 43.4579 20.065C43.8184 20.5285 44.3592 20.889 44.9257 21.1465C45.4665 21.4298 46.1103 21.5071 46.8314 21.5071C47.6555 21.5071 48.2993 21.3268 48.8401 21.0435C49.3809 20.7603 49.9217 20.3997 50.3852 19.8589L52.2909 21.8676C51.5698 22.6917 50.7457 23.2325 49.8186 23.593C48.9173 23.9535 47.913 24.1338 46.8056 24.1338C45.724 24.1338 44.6167 23.9535 43.7154 23.593C42.8141 23.2325 41.99 22.6917 41.3462 22.0479C40.7024 21.4041 40.1616 20.58 39.8011 19.6787C39.4405 18.7773 39.2603 17.67 39.2603 16.5884C39.2603 15.5068 39.4405 14.3995 39.8011 13.4981C40.1616 12.5968 40.7024 11.7727 41.3462 11.0259C41.99 10.3821 42.8141 9.84133 43.7154 9.4808C44.6167 9.12027 45.724 8.94001 46.8056 8.94001C47.8872 8.94001 48.8916 9.12027 49.8186 9.4808C50.823 9.84133 51.6471 10.4851 52.3681 11.2062L50.3337 13.0604ZM56.5142 16.4339C56.5142 17.155 56.6172 17.9018 56.8747 18.4426C57.055 19.0864 57.4155 19.6272 57.7761 20.0907C58.1366 20.5542 58.6774 20.9148 59.2439 21.095C59.7847 21.3783 60.5316 21.4556 61.2526 21.4556C61.9737 21.4556 62.6175 21.3526 63.2613 21.095C63.8021 20.8118 64.3429 20.4512 64.7292 20.0907C65.0897 19.6272 65.4502 19.0864 65.6305 18.4426C65.8107 17.7988 65.991 17.155 65.991 16.4339C65.991 15.7128 65.888 14.966 65.6305 14.4252C65.4502 13.7814 65.0897 13.2406 64.7292 12.7771C64.3686 12.3135 63.8278 11.953 63.2613 11.7728C62.7205 11.4895 61.9737 11.4122 61.2526 11.4122C60.5316 11.4122 59.8877 11.5152 59.2439 11.7728C58.7031 12.056 58.1624 12.4166 57.7761 12.7771C57.4155 13.2406 57.055 13.7814 56.8747 14.4252C56.6945 15.069 56.5142 15.7128 56.5142 16.4339ZM53.6042 16.4339C53.6042 15.3523 53.7845 14.348 54.145 13.4209C54.5055 12.5196 55.0463 11.6955 55.7931 10.9487C56.5142 10.2276 57.261 9.66107 58.2654 9.30054C59.1667 8.94001 60.171 8.65674 61.2784 8.65674C62.3857 8.65674 63.3643 8.837 64.2914 9.30054C65.1927 9.66107 66.0168 10.2019 66.7636 10.9487C67.4846 11.6697 67.9482 12.4938 68.4117 13.4209C68.7722 14.3222 68.9525 15.3265 68.9525 16.4339C68.9525 17.5155 68.7722 18.5198 68.4117 19.4469C68.0512 20.3482 67.5104 21.1723 66.7636 21.9191C66.0425 22.6402 65.2957 23.1037 64.2914 23.5672C63.39 23.9278 62.3857 24.2111 61.2784 24.2111C60.1968 24.2111 59.1924 24.0308 58.2654 23.5672C57.364 23.2067 56.54 22.6659 55.7931 21.9191C55.0721 21.198 54.6085 20.4512 54.145 19.4469C53.8875 18.5198 53.6042 17.5155 53.6042 16.4339ZM71.7595 23.8248H74.4892V9.24904H71.7595V23.8248ZM71.1157 3.94409C71.1157 3.40329 71.296 2.93976 71.6565 2.47622C72.017 2.11569 72.4806 1.83241 73.0213 1.83241C73.5621 1.83241 74.0257 2.01268 74.3862 2.47622C74.7467 2.83675 74.927 3.37754 74.927 3.94409C74.927 4.51064 74.7467 4.94843 74.3862 5.41196C74.0257 5.77249 73.5621 6.05577 73.0213 6.05577C72.4806 6.05577 72.017 5.8755 71.6565 5.41196C71.296 5.02568 71.1157 4.48488 71.1157 3.94409ZM78.3005 9.22328H81.056V11.4895H81.159C81.5196 10.6654 82.0604 10.0216 82.9874 9.58382C83.8115 9.12028 84.8158 8.86275 86.0004 8.86275C86.7215 8.86275 87.3653 8.96576 88.0091 9.22328C88.6529 9.40355 89.1937 9.76408 89.6572 10.2276C90.1208 10.6912 90.4813 11.232 90.8419 11.953C91.1251 12.6741 91.3054 13.4981 91.3054 14.5025V23.902H88.5242V15.2493C88.5242 14.6055 88.4211 13.9617 88.2409 13.5239C88.0606 13.0604 87.7773 12.6226 87.5198 12.3393C87.2365 12.056 86.876 11.7985 86.4382 11.6955C86.0777 11.5925 85.6142 11.5152 85.1506 11.5152C84.6098 11.5152 84.069 11.6182 83.6055 11.7985C83.1419 11.9788 82.7042 12.262 82.3179 12.6998C81.9574 13.0604 81.6741 13.6012 81.4938 14.245C81.3136 14.8888 81.2105 15.6098 81.2105 16.4339V24.005H78.4808V9.24904L78.3005 9.22328ZM101.374 21.5328C102.096 21.5328 102.739 21.4298 103.383 21.1723C104.027 20.889 104.465 20.5285 104.928 20.0907C105.289 19.6272 105.649 19.0864 105.83 18.4426C106.01 17.7988 106.19 17.155 106.19 16.3566C106.19 15.6356 106.087 14.8888 105.83 14.2707C105.649 13.6269 105.289 13.0861 104.928 12.6226C104.465 12.159 104.027 11.7985 103.383 11.541C102.739 11.2577 102.096 11.1805 101.374 11.1805C100.653 11.1805 100.01 11.2835 99.3658 11.541C98.722 11.8243 98.2842 12.1848 97.8207 12.6226C97.4602 13.0861 97.0996 13.6269 96.9194 14.2707C96.7391 14.9145 96.5588 15.5583 96.5588 16.3566C96.5588 17.0777 96.6618 17.8245 96.9194 18.4426C97.0996 19.0864 97.4602 19.6272 97.8207 20.0907C98.1812 20.5542 98.722 20.9148 99.3658 21.1723C99.9066 21.3526 100.653 21.5328 101.374 21.5328ZM108.946 23.7218H106.216V21.6358H106.113C105.572 22.4599 104.825 23.0007 103.924 23.4642C103.023 23.9278 102.018 24.108 101.014 24.108C99.9324 24.108 98.825 23.9278 97.9237 23.5672C97.0224 23.2067 96.1983 22.6659 95.5545 21.9191C94.9107 21.198 94.3699 20.374 94.0866 19.4469C93.7261 18.5456 93.5458 17.5412 93.5458 16.4339C93.5458 15.3265 93.7261 14.348 94.0866 13.3436C94.4472 12.4423 94.9107 11.6182 95.5545 10.8714C96.1983 10.1504 97.0224 9.58381 97.9237 9.22328C98.825 8.86275 99.8294 8.68249 101.014 8.68249C102.018 8.68249 103.023 8.86276 103.924 9.3263C104.825 9.78984 105.572 10.4079 106.01 11.1547H106.113V0.210022H108.843V23.7218H108.946ZM122.878 15.2493C122.878 14.6055 122.775 14.0647 122.594 13.5239C122.414 12.9831 122.131 12.5196 121.77 12.159C121.41 11.7985 120.946 11.5152 120.483 11.2577C119.942 11.0774 119.401 10.8972 118.654 10.8972C118.01 10.8972 117.367 11.0002 116.826 11.2577C116.285 11.541 115.821 11.7985 115.358 12.262C114.997 12.6226 114.637 13.0861 114.457 13.6269C114.276 14.1677 114.096 14.6312 114.096 15.0948H122.852L122.878 15.2493ZM114.148 17.5155C114.148 18.1593 114.328 18.7001 114.611 19.2409C114.894 19.7817 115.255 20.2452 115.693 20.6057C116.156 20.9663 116.697 21.2496 117.238 21.4298C117.882 21.6101 118.422 21.7131 119.066 21.7131C119.89 21.7131 120.714 21.5328 121.332 21.0693C121.976 20.7088 122.517 20.168 123.058 19.5242L125.144 21.1723C123.599 23.181 121.41 24.1853 118.68 24.1853C117.495 24.1853 116.491 24.005 115.59 23.6445C114.688 23.284 113.864 22.7432 113.22 21.9964C112.577 21.2753 112.036 20.5285 111.753 19.5242C111.392 18.6228 111.212 17.6185 111.212 16.5112C111.212 15.4296 111.392 14.4252 111.753 13.4981C112.113 12.5968 112.654 11.7727 113.298 11.0259C113.942 10.3049 114.766 9.84134 115.667 9.3778C116.568 9.01727 117.573 8.837 118.68 8.837C119.968 8.837 121.049 9.01727 121.95 9.4808C122.852 9.94434 123.599 10.4851 124.139 11.2062C124.68 11.9273 125.144 12.7513 125.427 13.6784C125.71 14.5797 125.788 15.5068 125.788 16.5112V17.5155H114.148ZM136.552 12.8801C136.191 12.5196 135.831 12.159 135.367 11.8758C134.904 11.5925 134.286 11.4122 133.642 11.4122C132.998 11.4122 132.457 11.5925 131.917 11.8758C131.453 12.159 131.196 12.5196 131.196 13.0604C131.196 13.5239 131.376 13.8844 131.659 14.0647C131.942 14.348 132.303 14.5282 132.663 14.7085C133.024 14.8888 133.487 14.9918 133.848 15.069C134.312 15.172 134.672 15.2493 134.93 15.2493C135.47 15.4296 136.114 15.5326 136.578 15.7901C137.118 15.9704 137.582 16.2536 137.943 16.6142C138.303 16.9747 138.586 17.3352 138.844 17.7988C139.024 18.2623 139.204 18.8031 139.204 19.5242C139.204 20.3482 139.024 21.0693 138.664 21.6101C138.303 22.1509 137.84 22.6917 137.299 23.078C136.758 23.4642 136.114 23.7218 135.393 23.902C134.672 24.0823 133.925 24.1853 133.307 24.1853C132.123 24.1853 131.041 24.005 130.114 23.6445C129.213 23.284 128.389 22.6402 127.642 21.6358L129.728 19.9104C130.191 20.374 130.629 20.7345 131.196 21.095C131.762 21.4556 132.38 21.6358 133.204 21.6358C133.565 21.6358 133.925 21.6358 134.286 21.5328C134.646 21.4298 134.93 21.3526 135.187 21.1723C135.47 20.992 135.651 20.8118 135.831 20.6315C136.011 20.3482 136.114 20.0907 136.114 19.8074C136.114 19.4469 136.011 19.0864 135.754 18.8031C135.47 18.5198 135.213 18.3396 134.852 18.1593C134.492 17.979 134.131 17.876 133.771 17.7988L132.689 17.5155C132.148 17.3352 131.505 17.2322 131.041 17.052C130.5 16.8717 130.037 16.5884 129.676 16.3309C129.316 16.0476 128.955 15.6098 128.672 15.1463C128.389 14.6827 128.311 14.0647 128.311 13.4209C128.311 12.6998 128.492 11.953 128.775 11.4122C129.058 10.8714 129.496 10.4079 130.062 10.0474C130.603 9.68683 131.144 9.40355 131.788 9.22328C132.432 9.04302 133.153 8.94001 133.796 8.94001C134.801 8.94001 135.702 9.12027 136.629 9.4808C137.531 9.84133 138.277 10.4851 138.818 11.3092L136.552 12.8801ZM141.857 0.570559H144.587V15.3266L150.793 9.12028H154.527L147.883 15.6871L155.171 23.5157H151.256L144.612 16.0476V23.5157H141.883V0.570559" fill="white" fill-opacity="0.87"/>
</svg>
