<svg width="113" height="30" viewBox="0 0 113 30" fill="none" xmlns="http://www.w3.org/2000/svg">
<path fill-rule="evenodd" clip-rule="evenodd" d="M102.175 29.3693C100.741 29.2157 98.4596 28.7159 97.7 28.3893L97.3288 28.2298L97.2781 26.3911C97.2504 25.3797 97.2184 24.0274 97.2069 23.3861L97.1861 22.2198L97.4087 22.1132C97.5309 22.0547 97.7778 22 97.9572 21.9916L98.2833 21.9763L98.5613 22.6605C99.6452 25.3296 100.917 26.769 102.577 27.2066C103.211 27.3736 104.399 27.3751 104.868 27.2094C106.182 26.7453 106.902 25.7504 106.908 24.3913C106.916 22.7815 106.031 22.008 102.689 20.7021C100.619 19.8932 99.8964 19.4767 99.0367 18.5963C98.1089 17.6465 97.6637 16.5654 97.58 15.0595C97.479 13.2398 98.0483 11.7059 99.31 10.3987C100.579 9.08315 102.228 8.37031 104.473 8.16536C106.45 7.98497 109.485 8.40422 111.075 9.07786L111.365 9.20071L111.417 10.8397C111.445 11.741 111.475 12.9493 111.482 13.525L111.496 14.5712L111.106 14.7158C110.49 14.9447 110.45 14.9158 110.107 14.008C109.147 11.4624 108.031 10.2578 106.292 9.8899C105.233 9.66598 104.348 9.90701 103.704 10.595C103.202 11.1318 103.007 11.6082 102.959 12.4088C102.907 13.2759 103.063 13.7445 103.592 14.3246C104.245 15.039 105.315 15.656 107.446 16.5467C110.055 17.6374 111.301 18.5636 111.978 19.9171C112.418 20.7964 112.542 21.4983 112.498 22.8499C112.464 23.8641 112.432 24.0725 112.201 24.7533C111.449 26.9733 109.752 28.435 107.129 29.1202C106.241 29.3522 106.114 29.3643 104.348 29.3836C103.33 29.3948 102.352 29.3883 102.175 29.3693V29.3693ZM67.4927 29.1392C69.9372 28.7725 71.7303 27.9328 73.2488 26.4437C75.4436 24.2912 76.5007 21.2532 76.358 17.5093C76.2843 15.5817 75.9697 14.3224 75.1709 12.7602C74.0889 10.6438 72.2383 9.15965 70.1371 8.72238C68.5607 8.39457 66.5326 8.65115 64.9907 9.37425C64.6064 9.55401 64.2386 9.70143 64.1733 9.70143C64.0698 9.70143 64.0586 9.10554 64.0847 5.00675L64.1152 0.311768L63.7921 0.376455C63.6146 0.412221 61.8038 0.749666 59.7678 1.12661C57.7319 1.50355 55.9867 1.83042 55.8897 1.85344C55.7423 1.88796 55.7165 1.94425 55.7324 2.19617C55.7498 2.47701 55.7731 2.50251 56.0697 2.56782C57.0899 2.79237 57.2714 2.8723 57.6508 3.26417C58.1153 3.74437 58.3252 4.35737 58.4629 5.63686C58.5727 6.65634 58.5969 24.2212 58.4921 26.8141L58.4303 28.3514L59.2598 28.5287C62.3986 29.2001 65.5274 29.4328 67.4927 29.1392V29.1392ZM89.6599 29.1367C91.5242 28.8341 93.3602 27.939 94.68 26.689C95.4026 26.0045 95.6423 25.6739 95.5419 25.501C95.2739 25.0391 95.2854 25.0394 94.6005 25.4606C93.5097 26.1305 92.9634 26.3152 91.6821 26.4468C90.1857 26.6004 88.8052 26.35 87.5295 25.6941C86.6834 25.259 85.6692 24.2579 85.1624 23.3575C84.4709 22.1287 84.0956 20.6937 83.9837 18.8491C83.9367 18.0747 83.947 17.8816 84.0378 17.824C84.0997 17.7849 86.7829 17.7525 90.0442 17.7519L95.9387 17.7506V17.5177C95.9387 16.9884 95.7649 15.5652 95.6091 14.8194C94.9829 11.8194 93.33 9.68028 90.9729 8.82003C90.0346 8.4773 89.1472 8.3333 87.9775 8.3333C85.2059 8.3333 82.9424 9.24269 81.1913 11.0593C79.7953 12.508 78.967 14.1352 78.4614 16.4226C78.3091 17.1118 78.2836 17.4701 78.2836 18.9179C78.2836 20.3547 78.3097 20.7254 78.4574 21.3901C79.3957 25.6117 82.1723 28.3918 86.1617 29.104C87.1725 29.2844 88.6621 29.2984 89.6599 29.1367V29.1367ZM32.6097 29.0319C34.0375 28.6985 35.1758 28.1893 36.1931 27.4292C38.668 25.5803 40.024 22.7458 40.1493 19.1592C40.2727 15.6237 39.2066 12.61 37.1455 10.6668C35.4724 9.08937 33.3637 8.3333 30.6382 8.3333C27.7491 8.3333 25.4221 9.22932 23.6322 11.0313C21.7147 12.9617 20.7002 15.6545 20.7002 18.8149C20.7002 22.0936 21.6168 24.7403 23.3937 26.5945C24.3737 27.6168 25.3276 28.2301 26.6951 28.7168C27.1788 28.8888 27.5345 28.9715 28.8277 29.2119C28.9384 29.2325 29.6805 29.2362 30.4771 29.2203C31.551 29.1989 32.0955 29.151 32.6097 29.0319V29.0319ZM17.0524 19.6422L16.8662 18.8774C16.5158 17.4409 15.8414 16.4124 15.0078 16.0435C14.6232 15.8734 13.6708 15.7764 11.8286 15.7204L10.9636 15.6943V17.5109C10.9636 19.4907 11.0725 22.1691 11.2118 23.6225C11.4064 25.649 11.9241 26.7687 12.8537 27.1739C13.0313 27.2513 13.5928 27.377 14.1018 27.4532C14.6108 27.5294 15.0905 27.6246 15.1679 27.6644C15.3644 27.7661 15.3759 28.8154 15.1816 28.89C15.0293 28.9485 0.828819 28.9442 0.683618 28.8857C0.61677 28.8586 0.583191 28.658 0.583191 28.2867C0.583191 27.6196 0.540593 27.6494 1.8303 27.4103C2.81965 27.2265 3.17348 27.0389 3.61033 26.466C4.45728 25.3551 4.64041 23.2166 4.64228 14.4104C4.64414 6.14007 4.48464 4.4006 3.60877 3.12235C3.22012 2.55507 2.56532 2.24717 1.46838 2.11593L0.623299 2.01454L0.599978 1.35489L0.57666 0.694929L0.841565 0.647966C0.987077 0.621841 6.10237 0.610958 12.2086 0.623398L23.311 0.646414L23.3632 0.968305C23.3918 1.14527 23.4388 2.96156 23.4674 5.00458L23.5199 8.71895L22.9475 8.89281C22.0856 9.15468 22.0909 9.15779 21.7035 8.13208C20.7512 5.61198 19.6595 4.15988 18.1655 3.42683C17.1351 2.92082 16.6588 2.85986 13.7489 2.85986H11.2164L11.1729 3.28252C11.0911 4.07466 10.9618 9.17241 10.9627 11.5731L10.9636 13.9675L11.708 13.9632C12.1175 13.961 12.9246 13.9308 13.5017 13.8963C14.3695 13.8444 14.6275 13.7983 14.9904 13.6304C15.8824 13.2174 16.4893 12.3083 16.8612 10.8279L17.053 10.0638L18.3667 10.0171V19.6889L17.0524 19.6422ZM40.3508 28.8705C40.2774 28.8238 40.2534 28.6381 40.2702 28.2475L40.2945 27.6914L40.5762 27.6314C40.731 27.5984 41.0637 27.5328 41.3155 27.4858C42.0947 27.3403 42.5424 26.917 42.7943 26.0888C42.9995 25.4136 43.09 23.2543 43.0946 18.9179C43.1005 13.6142 42.9902 12.3618 42.4538 11.6518C42.1634 11.267 41.9539 11.1576 41.249 11.0223C40.9011 10.9554 40.5348 10.8839 40.4353 10.863C40.274 10.8295 40.2541 10.7769 40.2541 10.3825C40.2541 9.99907 40.2786 9.92971 40.4353 9.86502C40.676 9.76612 48.6477 8.1722 48.9024 8.1722H49.101L49.0622 9.35932C49.0407 10.0124 49.0062 10.9632 48.986 11.4723L48.9487 12.3979L49.2375 11.8769C50.1619 10.2093 51.1988 9.17427 52.5775 8.5423C53.3342 8.19522 53.8392 8.09165 54.7741 8.09165C55.8832 8.09165 56.9916 8.45367 56.9916 8.81568C56.9916 9.0592 55.0381 14.2229 54.9302 14.2642C54.8777 14.2845 54.4962 14.1383 54.0826 13.9399C53.2198 13.5256 52.4105 13.3231 51.6248 13.325C50.646 13.3272 49.5531 13.6873 49.1216 14.1504C48.9372 14.3485 48.9362 14.3603 48.8902 17.3177C48.8448 20.2465 48.9425 23.8187 49.1069 25.2556C49.2475 26.4794 49.5724 27.0822 50.244 27.3627C50.4682 27.4563 51.8853 27.6504 52.348 27.651C52.3831 27.651 52.4012 27.9318 52.3881 28.2749L52.3648 28.8988L46.41 28.918C43.1696 28.9283 40.4661 28.9075 40.3508 28.8705V28.8705ZM31.3057 27.7692C31.8756 27.6 32.5789 26.9403 32.9536 26.2235C33.7275 24.7434 34.0732 22.5545 34.0816 19.0787C34.0925 14.723 33.4097 11.951 31.9689 10.4998C31.3639 9.89052 30.9348 9.70112 30.1612 9.70236C28.4443 9.70516 27.3545 11.4981 26.9239 15.0284C26.7261 16.6512 26.7249 20.5174 26.922 21.9362C27.5321 26.3273 29.1066 28.4226 31.3057 27.7692ZM66.1716 27.7303C66.7561 27.6196 67.2101 27.3869 67.6979 26.9484C68.9198 25.8493 69.8386 23.5802 70.1999 20.769C70.3473 19.6242 70.3274 17.0151 70.1641 16.0594C69.7229 13.4746 68.7746 11.7759 67.3917 11.092C66.8177 10.8083 66.7294 10.7881 66.0488 10.7881C65.5619 10.7881 65.1434 10.8403 64.7874 10.9452L64.2545 11.1022L64.215 14.044C64.1646 17.8125 64.2871 27.247 64.39 27.5179C64.4556 27.6905 64.5281 27.7272 64.8539 27.7527C65.616 27.8127 65.7459 27.8108 66.1716 27.7303V27.7303ZM88.6077 16.1713L90.0078 16.1225L89.9574 15.1279C89.7796 11.62 88.9215 9.7033 87.5295 9.70454C86.0168 9.70641 84.808 11.6518 84.3052 14.8931C84.2436 15.2915 84.1923 15.7642 84.1914 15.9434L84.1902 16.2687L85.6988 16.2444C86.5286 16.2311 87.8376 16.1981 88.6077 16.1713V16.1713Z" fill="white" fill-opacity="0.87"/>
</svg>
