<svg xmlns="http://www.w3.org/2000/svg" viewBox="0 0 119.66 40"><defs><style>.b2f4a976-89c2-478e-8cd0-fee3be63a03d{fill:#b7b7b7;}.a90d9c05-10a6-4906-805c-66334ec8079a,.aed8b758-0b1e-458a-8643-89ad6b8fb457,.b6db7030-ba3f-4df7-a174-18aa5aeec54b{fill:#fff;}.a90d9c05-10a6-4906-805c-66334ec8079a{font-size:8px;font-family:Roboto-Regular, Roboto;}.b6db7030-ba3f-4df7-a174-18aa5aeec54b{font-size:13px;font-family:Roboto-Bold, Roboto;font-weight:700;}</style></defs><g id="ad0a394a-3eb6-4847-87ec-b8df1b69323d" data-name="Layer 2"><g id="b00b7ed4-833f-4716-a77d-4cef35fedbbd" data-name="livetype"><path class="b2f4a976-89c2-478e-8cd0-fee3be63a03d" d="M110.13,0H7.52a13.51,13.51,0,0,0-2,.18,6.74,6.74,0,0,0-1.9.63A6.3,6.3,0,0,0,2,2,6.07,6.07,0,0,0,.82,3.62a6.74,6.74,0,0,0-.63,1.9,12.18,12.18,0,0,0-.17,2c0,.31,0,.62,0,.92V31.56c0,.31,0,.61,0,.92a12.18,12.18,0,0,0,.17,2,6.8,6.8,0,0,0,.63,1.91A6.19,6.19,0,0,0,2,38a6.07,6.07,0,0,0,1.62,1.18,6.74,6.74,0,0,0,1.9.63,13.51,13.51,0,0,0,2,.18H112.14a13.39,13.39,0,0,0,2-.18,6.91,6.91,0,0,0,1.91-.63A6.24,6.24,0,0,0,117.67,38a6.68,6.68,0,0,0,1.18-1.61,7.12,7.12,0,0,0,.62-1.91,13.39,13.39,0,0,0,.18-2c0-.31,0-.61,0-.92V8.44c0-.3,0-.61,0-.92a13.39,13.39,0,0,0-.18-2,7.05,7.05,0,0,0-.62-1.9A6.54,6.54,0,0,0,117.67,2,6.47,6.47,0,0,0,116.05.82a6.91,6.91,0,0,0-1.91-.63,13.39,13.39,0,0,0-2-.18h-2Z"/><path d="M8.44,39.13l-.9,0A11.52,11.52,0,0,1,5.67,39,5.89,5.89,0,0,1,4,38.4a5.16,5.16,0,0,1-1.39-1,5.19,5.19,0,0,1-1-1.4,5.79,5.79,0,0,1-.55-1.66,12.1,12.1,0,0,1-.16-1.87c0-.21,0-.92,0-.92V8.44s0-.69,0-.89a12,12,0,0,1,.16-1.87A5.69,5.69,0,0,1,1.6,4a5.06,5.06,0,0,1,1-1.4A5.52,5.52,0,0,1,4,1.6a5.79,5.79,0,0,1,1.66-.55A12.1,12.1,0,0,1,7.54.89H112.13a12.08,12.08,0,0,1,1.86.16,6,6,0,0,1,1.67.55A5.49,5.49,0,0,1,118.07,4a5.92,5.92,0,0,1,.54,1.65,13.68,13.68,0,0,1,.17,1.88v.89c0,.38,0,.74,0,1.1V30.46c0,.37,0,.72,0,1.08v.93a13.12,13.12,0,0,1-.17,1.85,5.85,5.85,0,0,1-.54,1.67,5.42,5.42,0,0,1-1,1.39,5.19,5.19,0,0,1-1.4,1A5.59,5.59,0,0,1,114,39a11.52,11.52,0,0,1-1.87.16l-.9,0H8.44Z"/><path class="aed8b758-0b1e-458a-8643-89ad6b8fb457" d="M24.77,20.3a4.92,4.92,0,0,1,2.36-4.15,5.08,5.08,0,0,0-4-2.16c-1.67-.18-3.3,1-4.16,1s-2.19-1-3.61-1a5.31,5.31,0,0,0-4.47,2.73C9,20.11,10.4,25,12.25,27.74c.93,1.33,2,2.81,3.43,2.75s1.9-.88,3.58-.88,2.14.88,3.59.85,2.43-1.33,3.32-2.67a11.09,11.09,0,0,0,1.52-3.09A4.77,4.77,0,0,1,24.77,20.3Z"/><path class="aed8b758-0b1e-458a-8643-89ad6b8fb457" d="M22,12.21a4.89,4.89,0,0,0,1.11-3.49,5,5,0,0,0-3.21,1.66,4.65,4.65,0,0,0-1.14,3.36A4.11,4.11,0,0,0,22,12.21Z"/><text class="a90d9c05-10a6-4906-805c-66334ec8079a" transform="translate(58.18 14.89)">iOS App</text><text class="b6db7030-ba3f-4df7-a174-18aa5aeec54b" transform="translate(33.12 29.88)">Coming Soon</text></g></g></svg>