<svg width="244" height="36" viewBox="0 0 244 36" fill="none" xmlns="http://www.w3.org/2000/svg">
<path d="M148.199 0.606689H149.981V36H148.199V0.606689ZM9.59381 20.8314C10.7684 20.8314 11.5785 20.1034 11.5785 18.9303C11.5785 17.6764 10.6874 17.0292 9.5533 17.0292H5.66491V20.8314H9.59381ZM9.06725 13.3078C10.1204 13.3078 10.8089 12.782 10.8089 11.7303C10.8089 10.7191 10.0799 10.1123 9.02675 10.1123H5.66491V13.3078H9.06725ZM0.358887 5.74378H10.0394C11.8215 5.74378 13.2392 6.18873 14.2113 6.99772C15.3454 7.88761 15.9934 9.26288 15.9934 10.8809C15.9934 12.7415 15.2644 13.9146 13.6847 14.6427V14.6831C15.7099 15.3708 16.8845 17.1505 16.8845 19.4157C16.8845 21.5595 16.115 23.1371 14.7378 24.0674C13.6037 24.9168 12.1456 25.3213 10.2419 25.3213H0.358887V5.74378ZM17.8566 5.74378H22.9196V25.3213H17.8566V5.74378ZM33.3292 18.364C33.3292 16.018 32.5596 14.4404 31.0204 14.4404C29.4813 14.4404 28.7522 16.018 28.7522 18.364C28.7522 20.7101 29.4813 22.2876 31.0204 22.2876C32.5596 22.2876 33.3292 20.7101 33.3292 18.364ZM23.7702 18.364C23.7702 14.0764 26.646 10.9618 31.1014 10.9618C35.5569 10.9618 38.3517 14.1573 38.3517 18.364C38.3517 22.5708 35.5569 25.7663 31.1014 25.7663C26.646 25.7663 23.7702 22.5708 23.7702 18.364ZM48.3967 18.364C48.3967 16.018 47.6271 14.4404 46.0879 14.4404C44.5488 14.4404 43.8197 16.018 43.8197 18.364C43.8197 20.7101 44.5488 22.2876 46.0879 22.2876C47.6271 22.2876 48.3967 20.7101 48.3967 18.364ZM38.8782 18.364C38.8782 14.0764 41.754 10.9618 46.2094 10.9618C50.6649 10.9618 53.4597 14.1573 53.4597 18.364C53.4597 22.5708 50.6649 25.7663 46.2094 25.7663C41.754 25.7663 38.8782 22.5708 38.8782 18.364ZM54.5128 11.3663H59.1707V13.4292H59.2112C60.1833 11.8112 61.3985 10.9213 63.4237 10.9213C65.2058 10.9213 66.502 11.8112 67.1905 13.3483H67.231C68.3652 11.4876 69.8638 10.9213 71.565 10.9213C74.8458 10.9213 76.2229 13.3483 76.2229 16.5438V25.3213H71.2814V17.4741C71.2814 16.0584 70.8359 15.1281 69.5803 15.1281C68.3247 15.1281 67.7171 16.2606 67.7171 17.7573V25.3213H62.7756V17.4741C62.7756 16.0584 62.3301 15.1281 61.0744 15.1281C59.8188 15.1281 59.2112 16.2606 59.2112 17.7573V25.3213H54.2698V11.3258H54.5128V11.3663ZM87.321 18.2427C87.321 16.0584 86.5515 14.6427 85.0123 14.6427C83.4732 14.6427 82.5011 16.2202 82.5011 18.2427C82.5011 20.3056 83.5137 21.8427 85.0123 21.8427C86.511 21.8427 87.321 20.4674 87.321 18.2427ZM82.5416 23.5416L82.5011 25.3213H77.8431V5.70333H82.7846V12.782H82.8251C83.7972 11.5281 84.9718 10.8809 86.754 10.8809C90.3588 10.8809 92.384 14.2382 92.384 18.2831C92.384 23.0562 90.2373 25.7663 86.7135 25.7663C84.9718 25.7663 83.3921 25.1191 82.5416 23.5416ZM98.0141 16.8674H102.632C102.389 15.2899 101.578 14.4 100.444 14.4C99.0267 14.3191 98.2976 15.3303 98.0141 16.8674ZM93.1941 18.3236C93.1941 14.1168 96.0699 10.9213 100.282 10.9213C102.348 10.9213 103.928 11.6494 105.183 12.8224C106.803 14.4 107.533 16.8674 107.492 19.6584H97.9736C98.2571 21.2764 99.1077 22.2472 100.566 22.2472C101.416 22.2472 102.024 21.9236 102.429 21.1955H107.209C106.925 22.4494 105.953 23.6629 104.657 24.5528C103.401 25.4022 102.146 25.7258 100.363 25.7258C96.1104 25.7258 93.1941 22.5708 93.1941 18.3236ZM112.798 13.4292H112.839C113.892 11.6899 115.188 11.0022 116.889 11.0022C117.294 11.0022 117.578 11.0427 117.659 11.1236V15.573H117.537C114.661 15.0876 112.92 16.4224 112.92 19.5775V25.3213H107.978V11.3258H112.636V13.3887C112.717 13.4292 112.798 13.4292 112.798 13.4292ZM127.542 17.7977C127.542 16.0584 126.691 14.6427 125.273 14.6427C123.856 14.6427 123.005 15.8966 123.005 17.7977C123.005 19.6584 123.896 20.9932 125.273 20.9932C126.691 20.9932 127.542 19.6584 127.542 17.7977ZM118.509 25.564H123.248C123.41 26.1303 124.018 26.7371 125.233 26.7371C126.812 26.7371 127.38 25.7258 127.38 24.3101V23.0562H127.258C126.488 24.027 125.476 24.6337 123.896 24.6337C120.858 24.6337 118.226 22.3685 118.226 18C118.226 13.9955 120.372 10.8809 123.694 10.8809C125.557 10.8809 126.731 11.6494 127.461 12.8629H127.501V11.3258H132.159V23.6225C132.159 25.8472 131.389 27.627 130.174 28.6382C128.919 29.7708 127.177 30.1753 125.233 30.1753C121.547 30.2157 118.955 28.6382 118.509 25.564ZM181.938 35.9596C181.533 36 181.169 35.9596 180.804 35.9191C180.116 35.8787 179.468 35.7978 178.82 35.6764C177.767 35.5146 176.754 35.191 175.741 34.7056C173.838 33.8157 172.461 32.6832 171.245 30.9843C170.192 29.5281 169.261 28.1933 167.641 28.1933C167.195 28.1933 166.344 28.5978 166.061 28.7191C165.615 28.3955 165.372 28.1528 165.332 27.8697C165.21 27.4652 165.656 27.3034 165.858 27.2629C166.263 27.0202 166.709 26.9393 167.154 26.818C167.438 26.7775 167.722 26.6562 168.005 26.5753L169.18 26.2517C169.463 26.2112 169.747 26.0899 170.071 26.009C166.587 25.0382 164.441 21.9236 164.441 17.3123C164.441 9.22244 171.043 1.57748 178.01 1.57748C182.951 1.57748 185.989 5.05614 185.989 10.6382C185.989 16.9887 181.817 23.3798 176.349 25.564C174.931 26.1303 172.258 26.7371 171.043 27.1416C174.121 27.5461 176.349 29.6899 177.402 31.4292C178.131 32.5618 178.82 33.7348 180.035 34.3416C180.359 34.5034 180.642 34.6247 181.047 34.6652C181.331 34.7056 181.776 34.7865 182.222 34.827C182.181 35.0697 182.1 35.6764 181.938 35.9596ZM168.005 27.5461C169.99 27.6674 171.002 29.0023 172.055 30.4584C173.473 32.3596 175.215 34.3416 179.832 34.9079C178.293 34.2202 177.402 33.209 176.551 31.8742C175.134 29.609 173.838 27.5461 169.787 27.6674L169.747 27.1011C169.625 27.1416 169.504 27.1416 169.423 27.1416L168.248 27.4652C168.167 27.4652 168.046 27.5461 168.005 27.5461ZM174.648 3.03366C169.585 4.93479 165.413 10.8809 165.413 17.191C165.413 20.9123 166.83 23.5416 169.342 24.6741C168.491 23.9461 168.046 22.8135 168.046 21.3168C168.046 17.5146 171.407 7.64491 172.704 5.29884C173.352 4.32805 173.959 3.51905 174.648 3.03366ZM181.047 3.07411C181.898 3.8022 182.303 4.8539 182.303 6.39098C182.303 10.3955 178.779 20.2652 177.564 22.4494C176.997 23.4202 176.43 24.1483 175.701 24.6337C175.741 24.6337 175.822 24.5933 175.863 24.5933C181.047 22.5303 184.936 16.5034 184.936 10.5573C184.976 6.79547 183.599 4.2067 181.047 3.07411ZM177.969 3.07411C175.903 3.07411 174.688 3.8022 173.635 5.70333C172.461 7.8876 169.058 17.6764 169.058 21.2764C169.058 23.582 170.071 24.5933 172.42 24.5933C174.486 24.5933 175.701 23.8652 176.754 21.964C178.01 19.6584 181.371 9.99098 181.371 6.39098C181.331 4.08535 180.318 3.07411 177.969 3.07411ZM235.606 25.9685C234.594 25.9685 233.743 25.564 233.176 24.7955C232.447 23.8247 232.325 22.4494 232.771 20.8719L235.485 12.4584H233.338V11.9326C233.338 11.9326 233.743 10.6382 234.067 10.6382H236.052L237.469 6.14828L242.289 5.98648L240.75 10.6382H243.019V11.164C243.019 11.164 242.573 12.4584 242.289 12.4584H240.224L236.862 23.1775C236.821 23.2989 236.821 23.4202 236.862 23.5011C236.862 23.5416 236.983 23.5416 237.024 23.5416C237.753 23.5416 238.361 23.218 239.211 21.6809L239.454 21.2764L241.074 21.8831L240.831 22.3281C239.738 24.7146 237.875 25.9685 235.606 25.9685ZM236.862 11.4472L233.784 21.1146C233.379 22.3685 233.5 23.4607 234.027 24.1888C234.432 24.7146 234.999 24.9573 235.647 24.9573C236.416 24.9573 237.226 24.7955 237.834 24.391C237.226 24.5528 236.416 24.5528 236.092 24.0674C235.849 23.7438 235.809 23.3393 235.93 22.8135L239.454 11.5281L240.912 6.91682L238.158 7.03816L236.862 11.4472ZM226.331 25.9685C224.184 25.9685 223.05 24.4315 223.05 22.9348C223.05 21.5191 223.658 20.0629 224.306 18.7281C224.913 17.3123 225.561 15.9371 225.561 14.5213C225.561 13.6719 225.278 13.6719 225.035 13.6719C223.779 13.6719 222.726 14.9258 220.539 18.9708L218.473 25.7258H213.734L217.46 13.9955C217.582 13.591 217.582 13.3078 217.46 13.2269C217.46 13.2269 217.42 13.1056 217.217 13.1056C216.893 13.1056 216.488 13.2269 215.881 14.5618L215.719 14.9663L214.018 14.4L214.261 13.8741C215.152 11.8921 216.893 10.6786 218.838 10.6786C219.85 10.6786 220.701 11.0831 221.268 11.8112C221.551 12.2157 221.835 12.8224 221.875 13.7123C223.415 11.6494 225.075 10.6786 226.938 10.6786C228.964 10.6786 230.219 11.9326 230.219 14.0359C230.219 16.1798 229.207 18.3236 228.437 20.0629C227.911 21.1955 227.424 22.2067 227.424 22.8135C227.424 23.582 227.749 23.582 227.911 23.582C228.518 23.582 229.166 23.2584 230.098 21.7213L230.341 21.3977L231.92 22.0854L231.677 22.5303C230.543 24.5933 228.518 25.9685 226.331 25.9685ZM225.116 12.7011C225.804 12.7011 226.574 13.0247 226.574 14.5618C226.574 16.1393 225.885 17.6359 225.237 19.173C224.63 20.5078 224.063 21.8022 224.063 22.9753C224.063 23.9461 224.792 24.9978 226.331 24.9978C227.06 24.9978 227.749 24.8359 228.356 24.5124C228.194 24.5528 228.032 24.5528 227.83 24.5528C226.857 24.5528 226.371 23.8652 226.371 22.8135C226.371 21.964 226.898 20.9123 227.424 19.6584C228.194 18.0404 229.166 16.018 229.166 14.0359C229.166 12.4584 228.397 11.6899 226.857 11.6899C226.007 11.6899 224.954 11.9326 223.577 13.146C224.144 12.8224 224.589 12.7011 225.116 12.7011ZM215.071 24.6741H217.785L219.688 18.5663C220.255 17.555 220.741 16.6651 221.227 15.9371L220.62 15.6539C221.065 14.2382 221.025 13.0651 220.458 12.337C220.012 11.7303 219.324 11.609 218.838 11.609C218.23 11.609 217.582 11.7708 217.096 12.0539C217.541 12.0135 217.987 12.1753 218.271 12.5797C218.554 12.9842 218.595 13.591 218.392 14.2786L215.071 24.6741ZM208.064 25.9685C206.079 25.9685 204.783 24.6742 204.783 22.6921C204.783 20.9528 205.633 19.2135 206.484 17.4741C207.172 16.0584 207.78 14.7236 207.78 13.7123C207.78 13.0247 207.618 13.0247 207.375 13.0247C207.132 13.0247 206.403 13.591 206.038 14.4809L205.876 14.8854L204.175 14.3191L204.418 13.7932C205.309 11.7708 207.132 10.5977 209.238 10.5977C211.223 10.5977 212.316 12.1753 212.316 13.6719C212.316 15.573 211.304 17.5955 210.453 19.4157C209.846 20.7101 209.198 21.9236 209.198 22.773C209.198 23.5416 209.481 23.5416 209.724 23.5416C210.453 23.5416 211.061 23.218 211.911 21.6809L212.154 21.2764L213.734 21.964L213.491 22.409C212.397 24.5528 210.251 25.9685 208.064 25.9685ZM207.375 12.0943C208.266 12.0943 208.793 12.6606 208.793 13.7123C208.793 14.9663 208.104 16.4225 207.375 17.9191C206.605 19.5371 205.795 21.2359 205.795 22.7326C205.795 24.1483 206.646 24.9978 208.064 24.9978C208.752 24.9978 209.4 24.8359 210.089 24.5124H209.684C209.238 24.5124 208.226 24.3506 208.226 22.773C208.226 21.7618 208.833 20.4674 209.562 19.0112C210.413 17.3123 211.304 15.4112 211.304 13.7123C211.304 12.6606 210.575 11.6494 209.238 11.6494C208.59 11.6494 207.902 11.8112 207.334 12.0943H207.375ZM198.505 25.9685C197.371 25.9685 196.439 25.5236 195.791 24.6741C195.426 24.1483 195.224 23.5416 195.183 22.9348C193.644 24.9978 192.145 25.9281 190.363 25.9281C188.298 25.9281 186.88 24.5933 186.88 22.5708C186.88 20.427 187.852 18.2022 188.622 16.382C189.148 15.209 189.594 14.1168 189.594 13.5101C189.594 13.0651 189.553 13.0247 189.553 13.0247H189.391C189.108 13.0247 188.622 13.4696 188.095 14.4809L187.933 14.8854L186.313 14.3191L186.556 13.7932C187.447 11.8112 189.027 10.6382 191.011 10.6382C192.915 10.6382 194.09 11.7708 194.09 13.6314C194.09 15.0472 193.482 16.5034 192.834 17.8382C192.227 19.2539 191.578 20.6292 191.578 22.0045C191.578 22.8539 191.862 22.8539 192.064 22.8539C193.32 22.8539 194.333 21.6 196.56 17.6359L198.626 10.8809L203.446 10.7595L199.517 23.1775C199.477 23.4202 199.477 23.4607 199.477 23.5011C199.477 23.5011 199.598 23.5416 199.882 23.5416C200.57 23.5416 201.016 23.2584 201.907 21.7618L202.069 21.4382L203.77 22.0045L203.487 22.5303C202.312 24.7146 200.57 25.9685 198.505 25.9685ZM195.912 20.6696L196.52 20.9528C196.074 22.2876 196.115 23.3798 196.641 24.1079C197.371 25.1191 199.234 25.2404 200.53 24.4314C200.368 24.4719 200.125 24.4719 199.922 24.4719C199.355 24.4719 198.95 24.3101 198.748 23.9461C198.586 23.7034 198.464 23.3798 198.626 22.773L202.109 11.6899L199.355 11.8517L197.452 18.0404C196.844 19.0921 196.358 19.9416 195.912 20.6696ZM189.472 12.0135C190.242 12.0135 190.647 12.5393 190.647 13.5505C190.647 14.3191 190.201 15.4112 189.594 16.8269C188.865 18.5663 187.893 20.7101 187.893 22.6112C187.893 24.1483 188.865 25.0382 190.363 25.0382C191.254 25.0382 192.348 24.7955 193.563 23.4607C193.037 23.7843 192.551 23.9865 191.983 23.9865C191.416 23.9865 190.444 23.7438 190.444 22.1258C190.444 20.5483 191.133 19.0517 191.781 17.5146C192.389 16.1798 192.956 14.8854 192.956 13.7123C192.956 12.3775 192.226 11.6899 190.89 11.6899C190.323 11.6899 189.756 11.8112 189.27 12.0943L189.472 12.0135ZM210.939 8.85839C209.603 8.85839 208.469 7.8067 208.469 6.51232C208.469 5.09659 209.522 3.96401 210.939 3.96401C212.276 3.96401 213.289 5.09659 213.289 6.51232C213.289 7.8067 212.235 8.85839 210.939 8.85839ZM210.939 5.01568C210.089 5.01568 209.4 5.62243 209.4 6.55277C209.4 7.32131 210.089 7.96851 210.939 7.96851C211.668 7.96851 212.357 7.36176 212.357 6.55277C212.316 5.66288 211.709 5.01568 210.939 5.01568Z" fill="white" fill-opacity="0.87"/>
<path d="M233.379 10.3549L232.771 12.5392H242.289L243.019 10.3549H233.379Z" fill="white" fill-opacity="0.87"/>
<path d="M181.857 6.35049C181.857 10.1527 178.415 19.9011 177.199 22.1258C176.146 24.1078 174.769 25.0382 172.42 25.0382C169.423 25.0382 168.613 23.4606 168.613 21.2764C168.613 17.5146 171.974 7.72577 173.23 5.50105C174.364 3.51902 175.66 2.58868 178.01 2.58868C181.007 2.62913 181.857 4.20666 181.857 6.35049ZM185.422 10.5168C185.422 5.17745 182.546 1.98193 177.929 1.98193C171.124 1.98193 164.886 9.58645 164.886 17.2719C164.886 22.6112 167.762 25.8067 172.379 25.8067C172.501 25.8067 172.785 25.7663 172.906 25.7663C172.785 25.8067 172.663 25.8067 172.582 25.8876C172.136 26.0089 171.691 26.1303 171.286 26.2112C170.759 26.3325 170.273 26.4539 169.747 26.6157C169.22 26.737 168.734 26.8988 168.289 27.0202C167.884 27.1415 167.438 27.3033 167.033 27.4247C166.871 27.4651 166.709 27.4651 166.587 27.546C166.466 27.5865 166.304 27.6674 166.182 27.7078C166.061 27.7483 166.02 27.7483 165.939 27.8292C165.939 27.8292 165.818 27.8696 165.818 27.9505C165.818 28.2741 166.061 28.5573 166.223 28.5573C166.466 28.5573 166.952 28.0314 167.803 28.0314C172.46 28.0314 171.164 35.5146 181.979 35.5146C182.019 35.5146 182.019 34.8269 181.979 34.8269C176.065 34.8269 177.888 26.8584 169.828 27.1415C172.015 26.6157 174.04 25.8876 176.187 24.9977C181.331 22.9348 185.422 16.746 185.422 10.5168ZM199.072 22.9752L202.717 11.2449L198.95 11.4067L196.925 17.9191C194.778 21.8427 193.563 23.4202 192.024 23.4202C191.254 23.4202 191.011 22.8539 191.011 22.0853C191.011 19.2134 193.523 16.3011 193.523 13.6719C193.523 12.0943 192.631 11.164 190.93 11.164C189.229 11.164 187.771 12.1752 186.92 14.0359L187.649 14.319C188.217 13.1864 188.824 12.5797 189.391 12.5797C189.918 12.5797 190.12 12.8629 190.12 13.5909C190.12 15.2898 187.366 19.1325 187.366 22.6516C187.366 24.5123 188.622 25.564 190.363 25.564C192.064 25.564 193.806 24.7146 195.993 20.9123C194.94 24.1887 196.682 25.564 198.464 25.564C200.165 25.564 201.826 24.5528 203.041 22.2876L202.312 22.0044C201.461 23.5415 200.894 24.0674 199.882 24.0674C199.112 23.9865 198.829 23.6629 199.072 22.9752ZM209.238 11.1235C207.172 11.1235 205.593 12.3775 204.864 14.0359L205.633 14.319C206.079 13.3482 206.97 12.5797 207.415 12.5797C207.983 12.5797 208.307 12.8224 208.307 13.7527C208.307 16.1797 205.309 19.6988 205.309 22.7325C205.309 24.3101 206.281 25.4831 208.064 25.4831C210.129 25.4831 212.073 24.0674 212.965 22.2876L212.235 22.0044C211.344 23.582 210.615 24.0674 209.603 24.0674C208.874 24.0674 208.631 23.582 208.631 22.8134C208.631 20.7505 211.709 16.9887 211.709 13.7527C211.83 12.4179 210.858 11.1235 209.238 11.1235ZM212.762 6.51228C212.762 5.3797 211.911 4.48981 210.899 4.48981C209.765 4.48981 208.914 5.3797 208.914 6.51228C208.914 7.52352 209.765 8.37296 210.899 8.37296C211.952 8.37296 212.762 7.52352 212.762 6.51228ZM231.191 22.2471L230.462 21.964C229.571 23.4202 228.842 24.0269 227.87 24.0269C227.141 24.0269 226.857 23.5011 226.857 22.773C226.857 21.0337 229.652 17.4741 229.652 13.9954C229.652 12.1348 228.64 11.1235 226.898 11.1235C225.197 11.1235 223.253 11.8921 221.065 15.7752C222.037 12.6202 220.66 11.1235 218.797 11.1235C216.934 11.1235 215.435 12.3775 214.625 14.0359L215.354 14.319C215.962 12.9842 216.488 12.5797 217.136 12.5797C217.744 12.5797 218.109 13.1864 217.825 14.1168L214.301 25.2404H218.028L220.053 18.7685C222.199 14.8449 223.415 13.2674 224.994 13.2674C225.764 13.2674 225.966 13.8336 225.966 14.6022C225.966 17.4741 223.496 20.3865 223.496 23.0157C223.496 24.3505 224.508 25.5236 226.25 25.5236C228.194 25.4427 230.179 24.3101 231.191 22.2471ZM242.532 11.1235H240.102L241.56 6.47183L237.793 6.59319L236.376 11.0831H234.067C233.946 11.0831 233.743 11.9325 233.784 11.9325H236.092L233.217 20.9932C232.447 23.6224 233.541 25.4831 235.525 25.4831C237.55 25.4831 239.171 24.4314 240.264 22.2876L239.535 22.0044C238.644 23.582 237.915 24.0674 236.902 24.0674C236.335 24.0674 236.133 23.6224 236.295 23.0561L239.778 11.973H242.208C242.411 11.8921 242.613 11.1235 242.532 11.1235Z" fill="white" fill-opacity="0.87"/>
</svg>
