<svg width="163" height="39" viewBox="0 0 163 39" fill="none" xmlns="http://www.w3.org/2000/svg">
<path d="M24.2821 27.6975L17.5436 30.6355V30.339C16.2498 30.6625 14.7943 30.8511 13.4466 30.932C7.08545 30.8781 2.07201 27.5358 1.99115 23.6005V22.145C4.0666 25.1639 8.32533 27.2124 13.4466 27.1315C15.1716 27.2124 16.9506 26.9428 18.4331 26.5385L19.026 25.083C17.274 25.6221 15.3334 25.9725 13.4466 25.9725C7.08545 25.9725 2.07201 22.6571 1.99115 18.641V17.455C4.0666 20.2582 8.32533 22.2798 13.4466 22.145C15.7646 22.2798 18.0018 21.7946 19.9155 20.959L20.212 19.5035C18.3522 20.4739 15.9533 21.0399 13.4735 20.959C7.1124 21.0399 2.09897 17.7246 2.0181 13.6276V12.4416C4.09356 15.2987 8.35228 17.3472 13.4735 17.4281C16.3846 17.3472 19.1339 16.5655 21.398 15.3796L21.6945 13.6276C19.646 15.137 16.6541 16.1343 13.4735 16.2691C7.1124 16.1343 2.09897 12.792 2.0181 8.64108C2.07201 4.67885 7.1124 1.36352 13.4735 1.30961C17.2471 1.36352 20.7781 2.68427 22.8535 4.84058L23.0691 5.19098H24.5516L24.336 4.84058C22.2605 2.01042 18.0827 0.150592 13.4735 0.150592C6.4116 0.123638 0.805176 3.97806 0.805176 8.61414V8.91062V23.8701C1.04776 28.3983 6.51942 32.091 13.4196 32.091C17.9748 32.118 22.0988 30.3121 24.2821 27.6975Z" fill="white" fill-opacity="0.87"/>
<path d="M21.5327 38.0209L23.9046 27.9401L17.0853 30.905L21.2362 13.4389H13.2578L15.3333 4.84058H40.8048L38.7293 13.4389H30.4275L28.6485 18.1828L37.8398 14.3284L21.5327 38.0209ZM25.6836 25.8916L24.4976 31.8215L34.2819 17.0238L26.2766 20.5817L29.8345 12.2799H37.8398L39.3223 6.0535H16.1958L14.7133 12.2799H22.7187L18.8642 28.8565L25.6836 25.8916Z" fill="white" fill-opacity="0.87"/>
<path d="M57.7047 10.6088V10.6357C57.7317 11.5791 57.4352 12.3069 56.8422 12.8459C56.2492 13.385 55.4406 13.6546 54.3894 13.6546C53.3382 13.6546 52.4756 13.3042 51.8287 12.6303C51.1818 11.9565 50.8584 11.067 50.8584 9.98882V8.23681C50.8584 7.15865 51.1818 6.26918 51.8018 5.59533C52.4487 4.92148 53.2843 4.57108 54.3085 4.57108C55.3867 4.57108 56.2222 4.84062 56.8422 5.35275C57.4621 5.89183 57.7586 6.61958 57.7317 7.56296V7.58992H56.0066C56.0066 7.02389 55.8718 6.59263 55.6023 6.32309C55.3328 6.05355 54.9015 5.91878 54.3355 5.91878C53.7964 5.91878 53.3921 6.13441 53.0956 6.56567C52.7991 6.99694 52.6374 7.53602 52.6374 8.20986V9.98882C52.6374 10.6627 52.7991 11.2287 53.0956 11.66C53.419 12.0912 53.8503 12.3069 54.4163 12.3069C54.9554 12.3069 55.3328 12.1721 55.6023 11.9025C55.8718 11.633 56.0066 11.2018 56.0066 10.6357H57.7047V10.6088ZM67.462 9.90796C67.462 10.9861 67.1116 11.9026 66.4378 12.6034C65.7639 13.3042 64.8745 13.6546 63.7693 13.6546C62.6642 13.6546 61.8017 13.3042 61.1009 12.6034C60.4271 11.9026 60.0767 10.9861 60.0767 9.90796V8.31768C60.0767 7.23952 60.4271 6.35004 61.1009 5.62229C61.7748 4.92148 62.6642 4.54413 63.7424 4.54413C64.8475 4.54413 65.737 4.89453 66.4108 5.62229C67.1116 6.32309 67.4351 7.23952 67.4351 8.31768V9.90796H67.462ZM65.6831 8.29072C65.6831 7.58992 65.5213 7.05085 65.1709 6.59263C64.8205 6.16137 64.3623 5.91878 63.7424 5.91878C63.1494 5.91878 62.6642 6.13441 62.3408 6.59263C62.0173 7.02389 61.8287 7.58992 61.8287 8.29072V9.881C61.8287 10.5818 61.9904 11.1478 62.3408 11.6061C62.6642 12.0373 63.1494 12.2799 63.7424 12.2799C64.3623 12.2799 64.8205 12.0643 65.1709 11.6061C65.5213 11.1748 65.6831 10.5818 65.6831 9.881V8.29072ZM72.0442 13.5198H70.2653V4.6789H72.0442V13.5198ZM82.2598 13.5198H80.4808L76.9229 7.56296H76.8959V13.5198H75.117V4.6789H76.8959L80.4538 10.6357H80.4808V4.6789H82.2598V13.5198ZM91.1815 6.05355H88.6478V13.5198H86.8689V6.05355H84.3891V4.6789H91.1815V6.05355ZM98.513 9.63842H95.2246V12.1721H99.1329V13.5198H93.4726V4.6789H99.1329V6.05355H95.2516V8.26377H98.5399V9.63842H98.513ZM103.446 12.1721H107.408V13.5198H101.667V4.6789H103.446V12.1721ZM114.955 9.63842H111.667V12.1721H115.575V13.5198H109.915V4.6789H115.575V6.05355H111.693V8.26377H114.982V9.63842H114.955ZM124.901 12.3338C124.631 12.6842 124.227 13.0077 123.661 13.2772C123.122 13.5467 122.421 13.6815 121.559 13.6815C120.48 13.6815 119.618 13.3581 118.944 12.6842C118.27 12.0104 117.92 11.1478 117.92 10.0697V8.20986C117.92 7.13171 118.243 6.26918 118.917 5.59533C119.564 4.92148 120.427 4.57108 121.451 4.57108C122.529 4.57108 123.365 4.84062 123.931 5.35275C124.497 5.86487 124.793 6.53872 124.766 7.40125V7.42819H123.095C123.095 6.96998 122.96 6.59263 122.691 6.32309C122.421 6.05355 122.017 5.91878 121.505 5.91878C120.966 5.91878 120.534 6.13441 120.184 6.53872C119.861 6.96998 119.699 7.50906 119.699 8.15595V10.0158C119.699 10.6896 119.861 11.2287 120.211 11.66C120.561 12.0912 121.02 12.2799 121.586 12.2799C122.017 12.2799 122.34 12.226 122.583 12.1451C122.825 12.0643 123.014 11.9565 123.149 11.8217V10.0966H121.451V8.85676H124.928V12.3338H124.901ZM129.483 9.98882V13.5198H127.704V4.6789H130.777C131.774 4.6789 132.583 4.92149 133.149 5.3797C133.715 5.83792 134.011 6.48481 134.011 7.29342C134.011 7.75164 133.904 8.129 133.661 8.4794C133.418 8.80285 133.068 9.07239 132.61 9.28802C133.122 9.44975 133.499 9.69233 133.742 10.0697C133.957 10.4201 134.092 10.8783 134.092 11.4174V12.0643C134.092 12.3069 134.119 12.5764 134.2 12.8459C134.254 13.1155 134.389 13.3042 134.55 13.4389V13.5737H132.718C132.556 13.4389 132.448 13.2233 132.394 12.9268C132.34 12.6303 132.313 12.3338 132.313 12.0643V11.4443C132.313 11.0131 132.205 10.6627 131.963 10.4201C131.72 10.1775 131.37 10.0427 130.939 10.0427H129.483V9.98882ZM129.483 8.64112H130.75C131.235 8.64112 131.612 8.53331 131.855 8.31768C132.098 8.10205 132.232 7.80555 132.232 7.37429C132.232 6.96998 132.098 6.64653 131.855 6.40395C131.612 6.16136 131.262 6.05355 130.777 6.05355H129.483V8.64112ZM141.531 11.633H138.674L138.081 13.5467H136.222L139.213 4.70585H141.019L143.984 13.5467H142.124L141.531 11.633ZM139.106 10.2314H141.1L140.13 7.10475H140.103L139.106 10.2314ZM147.92 10.3123V13.5198H146.141V4.6789H149.537C150.561 4.6789 151.343 4.94844 151.936 5.46056C152.529 5.97269 152.798 6.67349 152.798 7.50906C152.798 8.34463 152.502 9.04544 151.936 9.55756C151.343 10.0697 150.561 10.3392 149.537 10.3392H147.92V10.3123ZM147.92 8.96457H149.537C150.022 8.96457 150.399 8.8298 150.669 8.56026C150.911 8.29072 151.046 7.94033 151.046 7.53602C151.046 7.10475 150.911 6.75435 150.669 6.48481C150.426 6.21527 150.049 6.0805 149.537 6.0805H147.92V8.96457ZM162.529 13.5198H160.75V9.85405H157.138V13.5198H155.359V4.6789H157.138V8.4794H160.75V4.6789H162.529V13.5198Z" fill="white" fill-opacity="0.87"/>
<path d="M54.0934 27.9671H52.9882V22.145H50.9937V21.2017H56.0879V22.145H54.0934V27.9671ZM61.5057 27.9671H60.4006V24.8135C60.4006 24.4092 60.3197 24.1127 60.158 23.924C59.9963 23.7353 59.7537 23.6275 59.4033 23.6275C58.9451 23.6275 58.6216 23.7623 58.406 24.0318C58.1904 24.3014 58.0825 24.7596 58.0825 25.4065V27.9401H57.0044V20.7434H58.0825V22.5763C58.0825 22.8728 58.0556 23.1693 58.0286 23.5197H58.1095C58.2443 23.2771 58.4599 23.0884 58.7294 22.9537C58.999 22.8189 59.2955 22.738 59.6459 22.738C60.8858 22.738 61.5057 23.358 61.5057 24.6248V27.9671ZM65.2523 28.048C64.4437 28.048 63.8237 27.8054 63.3925 27.3472C62.9343 26.889 62.7186 26.2421 62.7186 25.4334C62.7186 24.5979 62.9343 23.951 63.3386 23.4658C63.7429 22.9806 64.3359 22.738 65.0636 22.738C65.7375 22.738 66.2765 22.9537 66.6539 23.358C67.0582 23.7623 67.2469 24.3283 67.2469 25.0561V25.6491H63.8237C63.8507 26.1342 63.9855 26.5385 64.228 26.7811C64.4706 27.0507 64.848 27.1854 65.3062 27.1854C65.6027 27.1854 65.8992 27.1585 66.1418 27.1046C66.4113 27.0507 66.6809 26.9429 66.9773 26.8081V27.6976C66.7078 27.8323 66.4383 27.9132 66.1687 27.9671C65.9261 28.021 65.6027 28.048 65.2523 28.048ZM65.0636 23.5736C64.7132 23.5736 64.4437 23.6814 64.228 23.8971C64.0124 24.1127 63.9046 24.4361 63.8507 24.8674H66.1687C66.1687 24.4361 66.0609 24.1127 65.8722 23.8971C65.6836 23.6814 65.414 23.5736 65.0636 23.5736ZM73.5002 23.6545H72.2603V27.9671H71.1552V23.6545H70.3196V23.1423L71.1552 22.8189V22.4955C71.1552 21.9025 71.29 21.4443 71.5865 21.1478C71.883 20.8513 72.3142 20.7165 72.8803 20.7165C73.2576 20.7165 73.635 20.7704 74.0123 20.9052L73.7158 21.7407C73.4463 21.6599 73.2037 21.606 72.9342 21.606C72.6916 21.606 72.5029 21.6868 72.3951 21.8216C72.2873 21.9833 72.2334 22.199 72.2334 22.4955V22.8189H73.4733V23.6545H73.5002ZM78.0015 27.9671L77.8398 27.2933H77.7859C77.6242 27.5358 77.4085 27.7245 77.139 27.8593C76.8695 27.9941 76.546 28.0749 76.1956 28.0749C75.5757 28.0749 75.1174 27.9132 74.794 27.6167C74.4705 27.3202 74.3358 26.835 74.3358 26.2151V22.8459H75.4409V25.9995C75.4409 26.4038 75.5218 26.6733 75.6835 26.8889C75.8452 27.0776 76.0878 27.1854 76.4382 27.1854C76.8964 27.1854 77.2199 27.0507 77.4355 26.7811C77.6511 26.5116 77.7589 26.0534 77.7589 25.4065V22.8459H78.864V27.9671H78.0015ZM82.3141 27.1585C82.5837 27.1585 82.8532 27.1046 83.1228 27.0237V27.8323C83.015 27.8862 82.8532 27.9402 82.6646 27.9671C82.4759 27.9941 82.2872 28.021 82.0716 28.021C81.0473 28.021 80.5352 27.4819 80.5352 26.4038V23.6545H79.8344V23.1693L80.5891 22.765L80.9665 21.6868H81.6403V22.8189H83.0958V23.6545H81.6403V26.4038C81.6403 26.6733 81.6942 26.862 81.829 26.9968C81.9098 27.1046 82.0985 27.1585 82.3141 27.1585ZM87.7319 27.9671L87.5702 27.2933H87.5163C87.3545 27.5358 87.1389 27.7245 86.8694 27.8593C86.5998 27.9941 86.2764 28.0749 85.926 28.0749C85.306 28.0749 84.8478 27.9132 84.5244 27.6167C84.2279 27.3202 84.0662 26.835 84.0662 26.2151V22.8459H85.1713V25.9995C85.1713 26.4038 85.2521 26.6733 85.4139 26.8889C85.5756 27.0776 85.8182 27.1854 86.1686 27.1854C86.6268 27.1854 86.9502 27.0507 87.1659 26.7811C87.3815 26.5116 87.4893 26.0534 87.4893 25.4065V22.8459H88.5944V27.9671H87.7319ZM92.7453 22.738C92.961 22.738 93.1496 22.765 93.2844 22.7919L93.1766 23.8162C93.0149 23.7892 92.8531 23.7623 92.6914 23.7623C92.2602 23.7623 91.9098 23.8971 91.6402 24.1936C91.3707 24.49 91.2359 24.8404 91.2359 25.2987V27.9671H90.1578V22.8459H91.0203L91.155 23.7353H91.209C91.3707 23.4388 91.6133 23.1963 91.8828 23.0076C92.1254 22.8459 92.4219 22.738 92.7453 22.738ZM96.2763 28.048C95.4677 28.048 94.8477 27.8054 94.4165 27.3472C93.9583 26.889 93.7426 26.2421 93.7426 25.4334C93.7426 24.5979 93.9583 23.951 94.3626 23.4658C94.7669 22.9806 95.3599 22.738 96.0876 22.738C96.7615 22.738 97.3005 22.9537 97.6779 23.358C98.0822 23.7623 98.2709 24.3283 98.2709 25.0561V25.6491H94.8477C94.8747 26.1342 95.0095 26.5385 95.252 26.7811C95.4946 27.0507 95.872 27.1854 96.3302 27.1854C96.6267 27.1854 96.9232 27.1585 97.1658 27.1046C97.4353 27.0507 97.7049 26.9429 98.0014 26.8081V27.6976C97.7318 27.8323 97.4623 27.9132 97.1927 27.9671C96.9232 28.021 96.6267 28.048 96.2763 28.048ZM96.0876 23.5736C95.7372 23.5736 95.4677 23.6814 95.252 23.8971C95.0364 24.1127 94.9286 24.4361 94.8747 24.8674H97.1927C97.1927 24.4361 97.0849 24.1127 96.8962 23.8971C96.6806 23.6814 96.4111 23.5736 96.0876 23.5736ZM106.492 25.3795C106.492 26.2151 106.276 26.862 105.845 27.3472C105.414 27.8054 104.821 28.048 104.066 28.048C103.581 28.048 103.177 27.9402 102.799 27.7245C102.422 27.5089 102.152 27.1854 101.964 26.7811C101.775 26.3768 101.667 25.9186 101.667 25.3795C101.667 24.544 101.883 23.8971 102.314 23.4388C102.745 22.9806 103.338 22.738 104.12 22.738C104.848 22.738 105.441 22.9806 105.872 23.4658C106.303 23.951 106.492 24.5709 106.492 25.3795ZM102.772 25.3795C102.772 26.5655 103.203 27.1585 104.093 27.1585C104.955 27.1585 105.387 26.5655 105.387 25.3795C105.387 24.2205 104.955 23.6275 104.093 23.6275C103.635 23.6275 103.311 23.7892 103.096 24.0857C102.88 24.3822 102.772 24.8135 102.772 25.3795ZM110.319 23.6545H109.079V27.9671H107.974V23.6545H107.139V23.1423L107.974 22.8189V22.4955C107.974 21.9025 108.109 21.4443 108.406 21.1478C108.702 20.8513 109.133 20.7165 109.699 20.7165C110.077 20.7165 110.454 20.7704 110.831 20.9052L110.535 21.7407C110.265 21.6599 110.023 21.606 109.753 21.606C109.511 21.606 109.322 21.6868 109.214 21.8216C109.106 21.9564 109.052 22.199 109.052 22.4955V22.8189H110.292V23.6545H110.319ZM117.974 27.9671H116.869V24.8135C116.869 24.4092 116.788 24.1396 116.653 23.924C116.519 23.7353 116.276 23.6275 115.953 23.6275C115.521 23.6275 115.225 23.7623 115.036 24.0318C114.848 24.3014 114.74 24.7596 114.74 25.4065V27.9671H113.662V22.8459H114.524L114.686 23.5197H114.74C114.875 23.2771 115.09 23.0884 115.36 22.9537C115.629 22.8189 115.926 22.765 116.249 22.765C117.031 22.765 117.57 23.0345 117.813 23.5736H117.893C118.055 23.331 118.271 23.1154 118.54 22.9806C118.81 22.8459 119.133 22.765 119.484 22.765C120.104 22.765 120.535 22.9267 120.831 23.2232C121.101 23.5197 121.263 24.0049 121.263 24.6248V27.9671H120.184V24.8135C120.184 24.4092 120.104 24.1396 119.969 23.924C119.807 23.7353 119.591 23.6275 119.268 23.6275C118.837 23.6275 118.54 23.7623 118.352 24.0318C118.163 24.3014 118.055 24.7057 118.055 25.2448V27.9671H117.974ZM127.246 25.3795C127.246 26.2151 127.031 26.862 126.6 27.3472C126.168 27.8054 125.575 28.048 124.821 28.048C124.335 28.048 123.931 27.9402 123.554 27.7245C123.176 27.5089 122.907 27.1854 122.718 26.7811C122.529 26.3768 122.422 25.9186 122.422 25.3795C122.422 24.544 122.637 23.8971 123.069 23.4388C123.5 22.9806 124.093 22.738 124.874 22.738C125.602 22.738 126.195 22.9806 126.626 23.4658C127.031 23.951 127.246 24.5709 127.246 25.3795ZM123.527 25.3795C123.527 26.5655 123.958 27.1585 124.847 27.1585C125.71 27.1585 126.141 26.5655 126.141 25.3795C126.141 24.2205 125.71 23.6275 124.847 23.6275C124.389 23.6275 124.066 23.7892 123.85 24.0857C123.635 24.3822 123.527 24.8135 123.527 25.3795ZM133.015 27.9671H131.909V24.8135C131.909 24.4092 131.829 24.1127 131.667 23.924C131.505 23.7353 131.263 23.6275 130.912 23.6275C130.454 23.6275 130.104 23.7623 129.915 24.0318C129.726 24.3014 129.591 24.7596 129.591 25.4065V27.9671H128.513V22.8459H129.376L129.537 23.5197H129.591C129.753 23.2771 129.969 23.0884 130.238 22.9537C130.508 22.8189 130.831 22.765 131.182 22.765C132.422 22.765 133.015 23.3849 133.015 24.6518V27.9671ZM136.761 28.048C135.953 28.048 135.333 27.8054 134.901 27.3472C134.443 26.889 134.227 26.2421 134.227 25.4334C134.227 24.5979 134.443 23.951 134.847 23.4658C135.252 22.9806 135.845 22.738 136.572 22.738C137.246 22.738 137.785 22.9537 138.163 23.358C138.567 23.7623 138.756 24.3283 138.756 25.0561V25.6491H135.333C135.36 26.1342 135.494 26.5385 135.737 26.7811C135.979 27.0507 136.357 27.1854 136.815 27.1854C137.112 27.1854 137.408 27.1585 137.651 27.1046C137.893 27.0507 138.19 26.9429 138.486 26.8081V27.6976C138.217 27.8323 137.947 27.9132 137.678 27.9671C137.408 28.021 137.112 28.048 136.761 28.048ZM136.546 23.5736C136.195 23.5736 135.926 23.6814 135.71 23.8971C135.494 24.1127 135.386 24.4361 135.333 24.8674H137.651C137.651 24.4361 137.543 24.1127 137.354 23.8971C137.165 23.6814 136.896 23.5736 136.546 23.5736ZM139.025 22.8459H140.211L141.262 25.7569C141.424 26.1612 141.532 26.5655 141.586 26.9159H141.613C141.64 26.7542 141.694 26.5385 141.775 26.296C141.855 26.0534 142.233 24.8944 142.961 22.8459H144.147L141.963 28.641C141.559 29.6922 140.912 30.2312 139.969 30.2312C139.726 30.2312 139.483 30.2043 139.268 30.1504V29.2878C139.43 29.3148 139.618 29.3418 139.834 29.3418C140.346 29.3418 140.723 29.0453 140.939 28.4253L141.128 27.9401L139.025 22.8459Z" fill="white" fill-opacity="0.87"/>
</svg>
