<svg width="103" height="30" viewBox="0 0 103 30" fill="none" xmlns="http://www.w3.org/2000/svg">
<path fill-rule="evenodd" clip-rule="evenodd" d="M57.8421 9.17826C54.9991 8.6296 52.112 8.34397 50.0817 8.34397C42.9031 8.34397 40.3187 11.3252 40.3187 16.5403V21.2594C40.3187 25.9857 42.0851 29.2074 50.5824 29.2074C52.8362 29.2074 55.6134 29.0037 58.3428 28.4622V24.2399C56.2069 24.6398 54.2208 24.7366 51.0831 24.7366C47.7151 24.7366 45.8261 23.1048 45.8261 20.2659V17.5338C45.8261 14.5307 47.3223 12.8147 50.3321 12.8147C50.8318 12.8147 51.8116 12.8212 52.3348 12.9525V16.0436H57.8421V9.17826ZM34.8113 16.0436C34.8113 10.4278 32.2369 8.34397 27.5516 8.34397C25.7783 8.34397 24.0597 8.83451 22.0443 9.83422L21.5436 8.84072H14.2839V13.3114H17.2879V24.7366H14.7846V29.2074H25.2986V24.7366H22.7953V13.3219C23.9238 12.9218 25.0523 12.8147 26.3418 12.8147C29.5733 12.8147 29.304 15.6134 29.304 17.5442V29.2074H37.8153V24.7366H34.8113V16.0436ZM8.77652 24.7366H11.7805V29.2074H0.265137V24.7366H3.26915V5.36349H0.765806V0.892761H11.2799V5.36349H8.77652V24.7366Z" fill="white" fill-opacity="0.87"/>
<path fill-rule="evenodd" clip-rule="evenodd" d="M97.3945 10.3312C97.3945 8.26499 96.65 5.36373 93.1388 5.36373C89.4466 5.36373 87.739 8.92194 88.8778 12.8149H83.9505C83.5772 11.6988 83.3542 8.5921 84.5478 6.12202C85.8645 3.39686 88.9714 0.893005 93.0762 0.893005H82.875H74.3637L63.8496 16.5406V23.2466H75.1147V18.7759H69.1066L77.8684 5.36373H78.1187V29.2076H82.875C82.875 20.3946 88.0472 17.5393 92.8884 15.524C95.5522 14.415 97.3945 13.0479 97.3945 10.3312ZM102.401 10.0828V24.7369H89.8844C89.8844 22.2531 92.226 21.8302 95.1414 20.2662C98.8849 18.2578 102.401 15.7954 102.401 10.0828Z" fill="white" fill-opacity="0.87"/>
</svg>
