<svg width="87" height="30" viewBox="0 0 87 30" fill="none" xmlns="http://www.w3.org/2000/svg">
<path d="M12.12 29.4195H0.427734V25.4804H1.59487C2.11592 25.4804 2.28266 25.1886 2.28266 24.7092V14.8302C2.28266 14.3509 2.09508 14.0591 1.59487 14.0591H0.427734V9.99493H10.7861V12.9336C12.0366 10.641 14.0166 9.57809 16.8094 9.57809C20.6026 9.57809 21.9573 11.037 22.395 13.2879C23.5621 10.7036 25.6255 9.57809 28.5642 9.57809C33.3786 9.57809 34.2957 11.9124 34.2957 15.393V24.7301C34.2957 25.2094 34.5249 25.5012 35.1085 25.5012H36.1089V29.4403H24.6042V25.4804H25.0836C25.5629 25.4804 25.7714 25.1886 25.7714 24.7092V16.2683C25.7714 14.6635 25.4171 14.1633 24.2916 14.1633C22.8118 14.1633 22.5409 15.3721 22.5409 17.2687V24.6676C22.5409 25.1886 22.7701 25.4804 23.2287 25.4804H23.8539V29.4195H12.8286V25.4804H13.308C13.7873 25.4804 13.9957 25.1886 13.9957 24.7092V16.2683C13.9957 14.6635 13.6414 14.1633 12.516 14.1633C11.0362 14.1633 10.7653 15.3721 10.7653 17.2687V24.6676C10.7653 25.1886 10.9528 25.4804 11.453 25.4804H12.0783V29.4195H12.12ZM42.82 0.19928C45.1751 0.19928 47.0925 2.13757 47.0925 4.51353C47.0925 6.84782 45.1751 8.7861 42.82 8.7861C40.5065 8.7861 38.5891 6.84782 38.5891 4.51353C38.5891 2.13757 40.5065 0.19928 42.82 0.19928ZM38.6308 14.8094C38.6308 14.33 38.4432 14.0382 37.943 14.0382H36.7758V9.97409H47.1342V24.6676C47.1342 25.1886 47.3218 25.4804 47.822 25.4804H48.9266V29.4195H36.755V25.4804H37.9221C38.4432 25.4804 38.6099 25.1886 38.6099 24.7092V14.8094H38.6308ZM61.265 29.4195H49.5727V25.4804H50.7398C51.2609 25.4804 51.4276 25.1886 51.4276 24.7092V14.8302C51.4276 14.3509 51.24 14.0591 50.7398 14.0591H49.5727V9.99493H59.9311V12.9753C61.0982 10.641 63.0573 9.59894 66.2461 9.59894C70.6854 9.59894 71.8317 11.9332 71.8317 15.4138V24.7509C71.8317 25.2303 72.0193 25.5221 72.6029 25.5221H73.645V29.4612H61.9944V25.4804H62.6197C63.099 25.4804 63.3075 25.1886 63.3075 24.7092V16.2683C63.3075 14.6635 62.9115 14.1633 61.8277 14.1633C60.3479 14.1633 59.9102 15.3721 59.9102 17.2687V24.6676C59.9102 25.1886 60.0978 25.4804 60.598 25.4804H61.2233L61.265 29.4195ZM72.4362 9.97409L74.4995 9.84904L74.833 5.40973H82.6903V9.9324H85.9833V13.934H82.6695V22.375C82.6695 24.6676 83.1072 25.4179 85.6082 25.4179H86.1709V29.357C84.5244 29.5445 82.7945 29.6071 81.148 29.6071C76.6045 29.6071 74.5203 28.2315 74.2077 24.3341V13.9757H72.457L72.4362 9.97409Z" fill="white" fill-opacity="0.87"/>
</svg>
