<svg width="20" height="20" viewBox="0 0 20 20" fill="none" xmlns="http://www.w3.org/2000/svg">
<path fill-rule="evenodd" clip-rule="evenodd" d="M19.6181 13.3003C20.1273 11.1296 20.1273 8.87044 19.6181 6.69972C18.8828 3.5649 16.4351 1.11722 13.3003 0.381888C11.1296 -0.127296 8.87044 -0.127296 6.69971 0.381889C3.5649 1.11722 1.11721 3.56491 0.381887 6.69972C-0.127296 8.87045 -0.127295 11.1296 0.381886 13.3003C1.11721 16.4351 3.5649 18.8828 6.69972 19.6181C8.87045 20.1273 11.1296 20.1273 13.3003 19.6181C16.4351 18.8828 18.8828 16.4351 19.6181 13.3003ZM10.6124 6.88957C10.8616 6.64034 11.2657 6.64034 11.5149 6.88957L14.1741 9.5487C14.2937 9.66838 14.361 9.83071 14.361 9.99997C14.361 10.1692 14.2937 10.3316 14.1741 10.4512L11.5149 13.1104C11.2657 13.3596 10.8616 13.3596 10.6124 13.1104C10.3632 12.8611 10.3632 12.4571 10.6124 12.2078L12.1821 10.6382L6.27722 10.6382C5.92476 10.6382 5.63903 10.3524 5.63903 9.99997C5.63903 9.64751 5.92476 9.36178 6.27722 9.36178L12.1821 9.36178L10.6124 7.79211C10.3632 7.54288 10.3632 7.1388 10.6124 6.88957Z" fill="white"/>
</svg>
